<svg width="240" height="210" viewBox="0 0 240 210" fill="none" xmlns="http://www.w3.org/2000/svg">
<path d="M130.062 74.3263L130.259 73.0708L123.346 92.2364L123.663 91.8583L130.062 74.3263Z" fill="#CEE0E8" stroke="#29256A" stroke-width="0.5" stroke-linecap="round" stroke-linejoin="round"/>
<path d="M137.157 77.0793L134.782 77.0642L128.398 94.6113L130.244 96.245L137.157 77.0793Z" fill="#BACFD6" stroke="#29256A" stroke-width="0.5" stroke-linecap="round" stroke-linejoin="round"/>
<path d="M134.782 77.0641L130.063 74.3262L123.664 91.8581L128.399 94.6112L134.782 77.0641Z" fill="#CEE0E8" stroke="#29256A" stroke-width="0.5" stroke-linecap="round" stroke-linejoin="round"/>
<path d="M116.675 109.889L114.33 111.432L132.966 100.692L133.284 100.299L116.675 109.889Z" fill="#1F787D" stroke="#29256A" stroke-width="0.5" stroke-linecap="round" stroke-linejoin="round"/>
<path d="M134.964 74.3715L130.229 71.6184L130.062 74.3261L134.782 77.064L134.964 74.3715Z" fill="#CEE0E8" stroke="#29256A" stroke-width="0.5" stroke-linecap="round" stroke-linejoin="round"/>
<path d="M142.164 75.8845L142.209 75.2945L143.147 60.9241L142.875 63.7982L142.164 75.8845Z" fill="#04555B" stroke="#29256A" stroke-width="0.5" stroke-linecap="round" stroke-linejoin="round"/>
<path d="M137.415 72.7529L134.965 74.3715L134.783 77.0641L137.158 77.0792L137.415 72.7529Z" fill="#BACFD6" stroke="#29256A" stroke-width="0.5" stroke-linecap="round" stroke-linejoin="round"/>
<path d="M116.659 104.096L114.314 102.734L114.33 111.432L116.674 109.889L116.659 104.096Z" fill="#1F787D" stroke="#29256A" stroke-width="0.5" stroke-linecap="round" stroke-linejoin="round"/>
<path d="M114.315 102.734L109.58 99.9963L109.61 108.694L114.33 111.432L114.315 102.734Z" fill="#CEE0E8" stroke="#29256A" stroke-width="0.5" stroke-linecap="round" stroke-linejoin="round"/>
<path d="M128.398 94.6112L123.663 91.8582L109.58 99.9964L114.315 102.734L128.398 94.6112Z" fill="#EBF3F6" stroke="#29256A" stroke-width="0.5" stroke-linecap="round" stroke-linejoin="round"/>
<path d="M130.243 96.245L128.397 94.6113L114.314 102.734L116.659 104.096L130.243 96.245Z" fill="#1F787D" stroke="#29256A" stroke-width="0.5" stroke-linecap="round" stroke-linejoin="round"/>
<path d="M76.9065 138.993L74.3047 140.309L81.6563 138.131L81.8227 137.541L76.9065 138.993Z" fill="#1F787D" stroke="#29256A" stroke-width="0.5" stroke-linecap="round" stroke-linejoin="round"/>
<path d="M88.706 100.874L88.6152 101.116L134.964 74.3715L137.414 72.7529L88.706 100.874Z" fill="#BACFD6" stroke="#29256A" stroke-width="0.5" stroke-linecap="round" stroke-linejoin="round"/>
<path d="M84.7268 97.3642L76.9062 138.993L81.8225 137.541L88.7051 100.874L137.413 72.7529L137.156 77.0792L130.243 96.2448L116.659 104.096L116.675 109.889L133.284 100.299L142.163 75.8842L142.874 63.7979L84.7268 97.3642Z" fill="#CEE0E8" stroke="#29256A" stroke-width="0.5" stroke-linecap="round" stroke-linejoin="round"/>
<path d="M143.147 60.924L138.427 58.1709L77.9199 93.0986L82.6395 95.8517L143.147 60.924Z" fill="#EBF3F6" stroke="#29256A" stroke-width="0.5" stroke-linecap="round" stroke-linejoin="round"/>
<path d="M142.874 63.7982L143.146 60.9241L82.6387 95.8518L84.7262 97.3645L142.874 63.7982Z" fill="#BACFD6" stroke="#29256A" stroke-width="0.5" stroke-linecap="round" stroke-linejoin="round"/>
<path d="M84.727 97.3642L82.6395 95.8516L74.3047 140.309L76.9065 138.993L84.727 97.3642Z" fill="#BACFD6" stroke="#29256A" stroke-width="0.5" stroke-linecap="round" stroke-linejoin="round"/>
<path d="M82.6399 95.8517L77.9203 93.0986L69.5703 137.556L74.305 140.309L82.6399 95.8517Z" fill="#CEE0E8" stroke="#29256A" stroke-width="0.5" stroke-linecap="round" stroke-linejoin="round"/>
<path d="M64.623 137.935V131.264L67.6938 129.403L64.623 137.935Z" fill="#EBF3F6" stroke="#29256A" stroke-width="0.5" stroke-linecap="round" stroke-linejoin="round"/>
<path d="M190.402 128.299L130.197 93.3103L130.228 106.607L190.432 141.595L190.402 128.299Z" fill="#09C8D6" stroke="#29256A" stroke-width="0.5" stroke-linecap="round" stroke-linejoin="round"/>
<path d="M200.144 99.0432L139.939 64.0549L130.197 93.3101L190.402 128.298L200.144 99.0432Z" fill="#CEE0E8" stroke="#29256A" stroke-width="0.5" stroke-linecap="round" stroke-linejoin="round"/>
<path d="M205.181 50.1383L162.493 25.4817L139.939 64.055L200.144 99.0432L205.181 50.1383Z" fill="#CEE0E8" stroke="#29256A" stroke-width="0.5" stroke-linecap="round" stroke-linejoin="round"/>
<path d="M194.682 49.2154L172.749 36.5391C167.968 33.7709 161.842 35.3895 159.059 40.1696L146.02 62.4513L196.407 91.7368L199.765 59.1839C200.189 55.1451 198.192 51.2424 194.682 49.2154V49.2154Z" fill="url(#paint0_linear_340_2385)" stroke="#29256A" stroke-width="0.5" stroke-linecap="round" stroke-linejoin="round"/>
<path d="M210.777 48.2475L168.089 23.5908L162.492 25.4817L205.18 50.1383L210.777 48.2475Z" fill="#EBF3F6" stroke="#29256A" stroke-width="0.5" stroke-linecap="round" stroke-linejoin="round"/>
<path d="M205.182 50.1383L207.98 49.2004V97.9541L200.145 99.0432L205.182 50.1383Z" fill="#BACFD6" stroke="#29256A" stroke-width="0.5" stroke-linecap="round" stroke-linejoin="round"/>
<path d="M210.779 51.4392L211.989 92.2059L207.98 97.9541V49.2004L210.779 51.4392Z" fill="#BACFD6" stroke="#29256A" stroke-width="0.5" stroke-linecap="round" stroke-linejoin="round"/>
<path d="M200.144 99.043L207.98 97.9539L193.745 137.299L190.402 128.298L200.144 99.043Z" fill="#08AAB6" stroke="#29256A" stroke-width="0.5" stroke-linecap="round" stroke-linejoin="round"/>
<path d="M193.744 137.299L207.979 97.954L211.987 92.2058L198.131 137.102L190.432 141.595L193.744 137.299Z" fill="#BACFD6" stroke="#29256A" stroke-width="0.5" stroke-linecap="round" stroke-linejoin="round"/>
<path d="M188.631 142.215L128.426 107.242L127.973 107.923L188.177 142.911L188.631 142.215Z" fill="#09C8D6" stroke="#29256A" stroke-width="0.5" stroke-linecap="round" stroke-linejoin="round"/>
<path d="M185.878 139.81L125.674 104.822L128.427 107.242L188.632 142.215L185.878 139.81Z" fill="#09C8D6" stroke="#29256A" stroke-width="0.5" stroke-linecap="round" stroke-linejoin="round"/>
<path d="M185.879 139.81L125.674 104.822L120.818 112.053L181.023 147.026L185.879 139.81Z" fill="#09C8D6" stroke="#29256A" stroke-width="0.5" stroke-linecap="round" stroke-linejoin="round"/>
<path d="M78.2812 145.392L70.7934 139.674L63.2754 160.488L71.2926 164.573L78.2812 145.392Z" fill="#CEE0E8" stroke="#29256A" stroke-width="0.5" stroke-linecap="round" stroke-linejoin="round"/>
<path d="M78.797 137.405L71.1882 133.2L70.7949 139.674L78.2827 145.392L78.797 137.405Z" fill="#068791" stroke="#29256A" stroke-width="0.5" stroke-linecap="round" stroke-linejoin="round"/>
<path d="M83.2133 135.272L73.0783 132.292L71.1875 133.2L78.7963 137.405L83.2133 135.272Z" fill="#068A94" stroke="#29256A" stroke-width="0.5" stroke-linecap="round" stroke-linejoin="round"/>
<path d="M56.2568 173.255L48.7539 168.884V171.062L56.2719 178.338L56.2568 173.255Z" fill="#CEE0E8" stroke="#29256A" stroke-width="0.5" stroke-linecap="round" stroke-linejoin="round"/>
<path d="M71.2928 164.573L63.2756 160.488L48.7539 168.884L56.2568 173.255L71.2928 164.573Z" fill="#EBF3F6" stroke="#29256A" stroke-width="0.5" stroke-linecap="round" stroke-linejoin="round"/>
<path d="M116.537 167.628L78.2815 145.392L71.293 164.573L109.549 186.809L116.537 167.628Z" fill="url(#paint1_linear_340_2385)" stroke="#29256A" stroke-width="0.5" stroke-linecap="round" stroke-linejoin="round"/>
<path d="M116.537 167.628L78.2815 145.392L71.293 164.573L109.549 186.809L116.537 167.628Z" fill="url(#paint2_linear_340_2385)" stroke="#29256A" stroke-width="0.5" stroke-linecap="round" stroke-linejoin="round"/>
<path d="M117.066 159.641L78.7956 137.405L78.2812 145.392L116.537 167.628L117.066 159.641Z" fill="#068993" stroke="#29256A" stroke-width="0.5" stroke-linecap="round" stroke-linejoin="round"/>
<path d="M121.47 157.509L83.2139 135.272L78.7969 137.405L117.068 159.641L121.47 157.509Z" fill="#078C96" stroke="#29256A" stroke-width="0.5" stroke-linecap="round" stroke-linejoin="round"/>
<path d="M126.612 172.106L116.537 167.629L109.549 186.809L119.094 192.921L126.612 172.106Z" fill="#CEE0E8" stroke="#29256A" stroke-width="0.5" stroke-linecap="round" stroke-linejoin="round"/>
<path d="M94.5266 195.492L56.2559 173.256L56.271 178.338L94.5266 200.575V195.492Z" fill="#CEE0E8" stroke="#29256A" stroke-width="0.5" stroke-linecap="round" stroke-linejoin="round"/>
<path d="M109.548 186.809L71.2919 164.573L56.2559 173.256L94.5266 195.492L109.548 186.809Z" fill="url(#paint3_linear_340_2385)" stroke="#29256A" stroke-width="0.5" stroke-linecap="round" stroke-linejoin="round"/>
<path d="M127.005 165.647L117.067 159.642L116.537 167.629L126.612 172.106L127.005 165.647Z" fill="#068993" stroke="#29256A" stroke-width="0.5" stroke-linecap="round" stroke-linejoin="round"/>
<path d="M128.896 164.724L121.468 157.509L117.066 159.641L127.005 165.647L128.896 164.724Z" fill="#078C96" stroke="#29256A" stroke-width="0.5" stroke-linecap="round" stroke-linejoin="round"/>
<path d="M119.093 192.921L109.548 186.809L94.5273 195.492L104.556 201.316L119.093 192.921Z" fill="#EBF3F6" stroke="#29256A" stroke-width="0.5" stroke-linecap="round" stroke-linejoin="round"/>
<path d="M127.005 165.647L126.611 172.106L119.093 192.92L104.557 201.316L104.572 203.494L120.228 194.448L128.517 171.652L128.896 164.724L127.005 165.647Z" fill="#BACFD6" stroke="#29256A" stroke-width="0.5" stroke-linecap="round" stroke-linejoin="round"/>
<path d="M104.556 201.316L94.5273 195.492V200.575L104.572 203.494L104.556 201.316Z" fill="#CEE0E8" stroke="#29256A" stroke-width="0.5" stroke-linecap="round" stroke-linejoin="round"/>
<path d="M129.926 176.538L69.7214 141.55L67.1348 140.46L127.339 175.449L129.926 176.538Z" fill="#09C8D6" stroke="#29256A" stroke-width="0.5" stroke-linecap="round" stroke-linejoin="round"/>
<path d="M136.64 172.65L76.4352 137.662L70.0215 134.954L130.226 169.943L136.64 172.65Z" fill="#09C8D6" stroke="#29256A" stroke-width="0.5" stroke-linecap="round" stroke-linejoin="round"/>
<path d="M181.022 147.025L120.817 112.052L101.092 141.353L161.296 176.341L181.022 147.025Z" fill="#EBF3F6" stroke="#29256A" stroke-width="0.5" stroke-linecap="round" stroke-linejoin="round"/>
<path d="M161.962 181.408L101.757 146.42L93.7402 151.049L153.945 186.037L161.962 181.408Z" fill="#09C8D6" stroke="#29256A" stroke-width="0.5" stroke-linecap="round" stroke-linejoin="round"/>
<path d="M161.297 176.341L101.092 141.353C100.109 142.82 98.9139 143.939 97.734 144.635C96.4633 145.376 95.1776 145.588 94.1641 145.164L154.369 180.153C155.397 180.576 156.668 180.365 157.939 179.623C159.118 178.943 160.313 177.808 161.297 176.341Z" fill="#EBF3F6" stroke="#29256A" stroke-width="0.5" stroke-linecap="round" stroke-linejoin="round"/>
<path d="M154.369 180.153L94.1641 145.165L76.4355 137.662L136.64 172.65L154.369 180.153Z" fill="#EBF3F6" stroke="#29256A" stroke-width="0.5" stroke-linecap="round" stroke-linejoin="round"/>
<path d="M130.227 169.942L127.338 175.448L129.925 176.537L151.48 185.659C152.237 185.977 153.069 186.098 153.946 186.052L161.978 181.423C162.704 180.622 163.4 179.744 164.051 178.776L188.178 142.926L188.632 142.245L185.879 139.84L181.023 147.055L161.298 176.371C160.314 177.838 159.119 178.958 157.939 179.654C156.669 180.395 155.383 180.607 154.369 180.183L136.656 172.695L130.242 169.988L130.227 169.942Z" fill="#BACFD6" stroke="#29256A" stroke-width="0.5" stroke-linecap="round" stroke-linejoin="round"/>
<path d="M130.229 169.943L70.024 134.954L67.1348 140.46L127.339 175.449L130.229 169.943Z" fill="#09C8D6" stroke="#29256A" stroke-width="0.5" stroke-linecap="round" stroke-linejoin="round"/>
<path d="M124.828 172.923L64.623 137.934L67.724 142.699L127.929 177.688L124.828 172.923Z" fill="#BACFD6" stroke="#29256A" stroke-width="0.5" stroke-linecap="round" stroke-linejoin="round"/>
<path d="M190.402 128.299L130.197 93.3103L67.6934 129.403L127.898 164.391L190.402 128.299Z" fill="#EBF3F6" stroke="#29256A" stroke-width="0.5" stroke-linecap="round" stroke-linejoin="round"/>
<path d="M127.898 164.391L67.6938 129.403L64.623 137.935L124.828 172.923L127.898 164.391Z" fill="#CEE0E8" stroke="#29256A" stroke-width="0.5" stroke-linecap="round" stroke-linejoin="round"/>
<path d="M127.929 177.688L124.828 172.923L127.899 171.395L133.239 172.424L127.929 177.688Z" fill="#BACFD6" stroke="#29256A" stroke-width="0.5" stroke-linecap="round" stroke-linejoin="round"/>
<path d="M190.402 128.298L193.745 137.299L133.238 172.423L127.898 164.391L190.402 128.298Z" fill="#CEE0E8" stroke="#29256A" stroke-width="0.5" stroke-linecap="round" stroke-linejoin="round"/>
<path d="M133.237 172.423L193.744 137.299L190.432 141.595L127.928 177.688L133.237 172.423Z" fill="#BACFD6" stroke="#29256A" stroke-width="0.5" stroke-linecap="round" stroke-linejoin="round"/>
<path d="M200.945 91.1926L207.162 89.7858L219.975 69.1982L209.915 72.2085L200.945 91.1926Z" fill="#BACFD6" stroke="#29256A" stroke-width="0.5" stroke-linecap="round" stroke-linejoin="round"/>
<path d="M209.915 72.2086L219.975 69.1984L218.356 61.5745L208.297 64.5998L209.915 72.2086Z" fill="#CEE0E8" stroke="#29256A" stroke-width="0.5" stroke-linecap="round" stroke-linejoin="round"/>
<path d="M210.777 48.2476L218.355 61.5743L208.296 64.5996L205.18 50.1384L210.777 48.2476Z" fill="#EBF3F6" stroke="#29256A" stroke-width="0.5" stroke-linecap="round" stroke-linejoin="round"/>
<path d="M205.181 50.1384L201.974 75.4002L200.945 91.1925L209.915 72.2084L208.297 64.5996L205.181 50.1384Z" fill="#CEE0E8" stroke="#29256A" stroke-width="0.5" stroke-linecap="round" stroke-linejoin="round"/>
<path d="M140.787 27.8112L145.083 22.1689L141.225 26.2078L136.914 31.8501L140.787 27.8112Z" fill="#BACFD6"/>
<path d="M162.492 25.4817L168.089 23.5909L145.081 22.1689L140.785 27.8112L162.492 25.4817Z" fill="#EBF3F6"/>
<path d="M140.787 27.8112L136.914 31.8501L143.812 57.2933L151.436 46.3113L162.493 25.4817L140.787 27.8112Z" fill="#CEE0E8"/>
<path d="M160.223 27.675L142.101 29.7928L139.893 32.6064L144.718 54.4948L144.779 54.6159L160.223 27.675Z" fill="#BACFD6"/>
<path d="M176.229 14.4242L166.2 8.60034L162.131 41.2439L172.16 47.0678L176.229 14.4242Z" fill="#CEE0E8" stroke="#29256A" stroke-width="0.5" stroke-linecap="round" stroke-linejoin="round"/>
<path d="M180.103 12.2005L170.059 6.36157L166.201 8.60034L176.23 14.4241L180.103 12.2005Z" fill="#EBF3F6" stroke="#29256A" stroke-width="0.5" stroke-linecap="round" stroke-linejoin="round"/>
<path d="M176.229 14.4243L172.16 47.0679L176.547 34.0589L180.949 31.5025L180.102 12.2007L176.229 14.4243Z" fill="#BACFD6" stroke="#29256A" stroke-width="0.5" stroke-linecap="round" stroke-linejoin="round"/>
<path d="M187.604 20.9588L177.575 15.135L174.988 38.6723L185.032 44.5112L187.604 20.9588Z" fill="url(#paint4_linear_340_2385)" stroke="#29256A" stroke-width="0.5" stroke-linecap="round" stroke-linejoin="round"/>
<path d="M189.464 20.3538L179.435 14.53L177.574 15.1351L187.603 20.9589L189.464 20.3538Z" fill="url(#paint5_linear_340_2385)" stroke="#29256A" stroke-width="0.5" stroke-linecap="round" stroke-linejoin="round"/>
<path d="M187.603 20.9591L185.031 44.5115L190.31 36.6304L189.463 20.354L187.603 20.9591Z" fill="#056B73" stroke="#29256A" stroke-width="0.5" stroke-linecap="round" stroke-linejoin="round"/>
<path d="M194.033 24.7105L183.989 18.8716L179.92 51.5152L189.949 57.339L194.033 24.7105Z" fill="#CEE0E8" stroke="#29256A" stroke-width="0.5" stroke-linecap="round" stroke-linejoin="round"/>
<path d="M197.892 22.4718L187.863 16.6328L183.99 18.8716L194.034 24.7105L197.892 22.4718Z" fill="#EBF3F6" stroke="#29256A" stroke-width="0.5" stroke-linecap="round" stroke-linejoin="round"/>
<path d="M194.033 24.7107L189.949 57.3392L194.835 44.073L198.738 41.7888L197.891 22.4719L194.033 24.7107Z" fill="#BACFD6" stroke="#29256A" stroke-width="0.5" stroke-linecap="round" stroke-linejoin="round"/>
<path d="M196.423 91.7374L146.021 62.4519L134.131 95.5947L184.896 125.107L196.423 91.7374Z" fill="url(#paint6_linear_340_2385)" stroke="#29256A" stroke-width="0.25" stroke-linecap="round" stroke-linejoin="round"/>
<path d="M72.1715 132.005L134.131 95.6096L184.911 125.122L124.132 162.213L124.026 162.152C123.179 162.773 117.507 166.509 109.52 161.502C100.247 155.693 102.47 149.506 102.47 149.506L127.369 135L115.873 129.826L92.8801 144.227C92.8801 144.227 87.4345 148.871 78.6307 143.637C69.5092 138.207 72.1867 132.035 72.1867 132.035L72.1715 132.005Z" fill="url(#paint7_linear_340_2385)" stroke="#29256A" stroke-width="0.5" stroke-linecap="round" stroke-linejoin="round"/>
<path d="M127.899 164.391L124.828 172.923L133.239 172.423L127.899 164.391Z" fill="#EBF3F6" stroke="#29256A" stroke-width="0.5" stroke-linecap="round" stroke-linejoin="round"/>
<path d="M98.5385 191.166L97.1468 196.339L93.6828 201.512C93.6828 201.512 93.7281 209.469 88.8271 208.607C83.926 207.745 81.2183 202.42 81.2183 202.42C81.2183 202.42 71.038 197.368 70.1757 194.146C69.3135 190.908 71.3707 188.745 74.5474 189.577C77.724 190.409 85.7109 191.514 87.4959 190.424C88.0405 190.092 88.8271 187.944 88.8271 187.944C90.5666 185.962 93.1382 183.814 93.1382 183.814L98.5385 191.181V191.166Z" fill="url(#paint8_linear_340_2385)" stroke="#29256A" stroke-width="0.5" stroke-linecap="round" stroke-linejoin="round"/>
<path d="M89.4623 208.834C89.2505 208.834 89.0236 208.819 88.7967 208.773C83.8805 207.911 79.6602 203.207 79.6148 203.146C79.2971 202.949 70.8564 197.428 69.9941 194.146C69.9941 194.1 69.9941 194.04 70.0093 193.994C70.0244 193.949 70.0849 193.919 70.1303 193.904C70.2513 193.873 70.4026 193.858 70.5538 193.858C72.1724 193.858 75.0011 195.431 75.5457 195.749C75.8936 195.946 76.423 196.294 77.0583 196.702C78.8131 197.821 81.4754 199.516 83.5477 200.378C86.2706 201.512 91.2775 206.308 90.3548 208.607C90.3245 208.667 90.2792 208.713 90.2186 208.728C89.9766 208.773 89.7195 208.803 89.4472 208.803L89.4623 208.834Z" fill="#29256A"/>
<path d="M70.553 194.07C71.8993 194.07 74.244 195.25 75.4541 195.946C76.7853 196.717 80.6426 199.394 83.4864 200.589C86.3303 201.769 91.0347 206.459 90.2027 208.576C89.9758 208.622 89.7338 208.652 89.4766 208.652C89.28 208.652 89.0682 208.637 88.8413 208.592C83.9402 207.729 79.7652 203.025 79.7652 203.025C79.7652 203.025 71.0371 197.352 70.1749 194.115C70.2959 194.085 70.4169 194.07 70.553 194.07M70.553 193.692C70.3866 193.692 70.2202 193.707 70.0841 193.737C69.9782 193.767 69.9026 193.828 69.8421 193.903C69.7967 193.994 69.7816 194.1 69.7967 194.191C70.6589 197.443 78.7517 202.813 79.493 203.297C79.9316 203.781 83.9554 208.092 88.7505 208.939C88.9926 208.985 89.2195 209 89.4615 209C89.7338 209 89.9909 208.97 90.2632 208.924C90.3842 208.894 90.4901 208.818 90.5355 208.697C91.5188 206.232 86.3756 201.376 83.6226 200.226C81.5502 199.364 78.9181 197.685 77.1634 196.566C76.513 196.157 75.9835 195.825 75.6356 195.613C75.0759 195.295 72.217 193.692 70.553 193.692V193.692Z" fill="#29256A"/>
<path d="M61.3554 175.207L57.4073 179.79C57.4073 179.79 55.2744 189.88 50.7364 187.913C46.1984 185.947 35.7458 176.129 33.7944 173.452C31.843 170.775 34.3692 170.094 36.5929 169.958C38.8165 169.837 46.4404 171.743 50.7818 169.867C52.0676 169.307 53.4138 167.25 53.4138 167.25L64.4564 159.792L61.3554 175.207Z" fill="url(#paint9_linear_340_2385)" stroke="#29256A" stroke-width="0.5" stroke-linecap="round" stroke-linejoin="round"/>
<path d="M150.407 28.1894C150.407 28.1894 141.24 23.8632 134.827 28.7642C128.428 33.6653 127.157 38.5361 125.145 40.79C123.149 43.0439 113.437 51.046 113.437 51.046C113.437 51.046 105.556 53.8444 97.1609 61.2566C97.1609 61.2566 97.2819 65.2198 96.0566 71.0738C96.0566 71.0738 111.032 68.7292 121.031 62.0129C131.03 55.2966 141.906 44.5868 141.906 44.5868C141.906 44.5868 149.424 34.2855 150.407 28.1894V28.1894Z" fill="url(#paint10_linear_340_2385)" stroke="#29256A" stroke-width="0.5" stroke-linecap="round" stroke-linejoin="round"/>
<g opacity="0.15">
<path d="M147.911 27.282C145.763 33.3024 135.432 36.8724 135.432 36.8724C135.432 36.8724 132.633 50.1537 119.246 58.4432C111.562 63.2081 101.427 66.0671 96.7525 67.0352C96.5861 68.2302 96.3592 69.5916 96.0566 71.074C96.0566 71.074 111.032 68.7294 121.031 62.0131C131.03 55.2968 141.906 44.587 141.906 44.587C141.906 44.587 149.424 34.2857 150.407 28.1896C150.407 28.1896 149.424 27.7358 147.896 27.282H147.911Z" fill="#29256A"/>
</g>
<path d="M132.966 87.8347C132.966 87.8347 118.686 93.0081 112.091 97.1982C105.496 101.388 90.5806 112.749 83.2895 120.055C75.9984 127.376 53.4141 167.25 53.4141 167.25C53.4141 167.25 60.3724 166.57 61.3556 175.207L96.4346 135.121L143.449 111.221C143.449 111.221 153.508 89.2718 132.951 87.8498L132.966 87.8347Z" fill="url(#paint11_linear_340_2385)" stroke="#29256A" stroke-width="0.5" stroke-linecap="round" stroke-linejoin="round"/>
<g opacity="0.15">
<path d="M143.57 92.4934C145.506 99.24 137.55 99.8904 137.55 99.8904L94.6501 131.551L60.0098 170.85C60.6451 171.939 61.1443 173.346 61.356 175.207L96.4351 135.121L143.449 111.22C143.449 111.22 148.88 99.3458 143.57 92.5085V92.4934Z" fill="#29256A"/>
</g>
<path d="M126.701 135.287C126.701 135.287 126.61 135.287 126.58 135.242L120.741 130.386L119.395 127.936C119.349 127.86 119.364 127.754 119.44 127.694C119.47 127.664 119.516 127.648 119.561 127.648C119.606 127.648 119.652 127.648 119.682 127.694L127.291 134.032C127.291 134.032 127.382 134.183 127.336 134.259L126.867 135.182C126.867 135.182 126.792 135.272 126.731 135.272H126.701V135.287Z" fill="#CEE0E8"/>
<path d="M119.577 127.845L127.186 134.183L126.717 135.106L120.878 130.25L119.577 127.86M119.577 127.482C119.487 127.482 119.411 127.512 119.335 127.573C119.199 127.694 119.154 127.89 119.244 128.042L120.545 130.432C120.545 130.432 120.606 130.507 120.636 130.538L126.475 135.393C126.475 135.393 126.626 135.484 126.717 135.484C126.747 135.484 126.762 135.484 126.793 135.484C126.899 135.454 127.005 135.393 127.05 135.287L127.519 134.365C127.594 134.213 127.564 134.017 127.428 133.896L119.819 127.558C119.819 127.558 119.668 127.467 119.577 127.467V127.482Z" fill="#29256A"/>
<path d="M110.154 144.833C110.154 144.833 110.048 144.817 110.018 144.772C109.958 144.712 109.958 144.606 110.018 144.53L120.728 130.114C120.728 130.114 120.803 130.039 120.864 130.039C120.864 130.039 120.864 130.039 120.879 130.039C120.924 130.039 120.97 130.039 121 130.084L126.839 134.94C126.839 134.94 126.915 135.046 126.9 135.106C126.9 135.167 126.854 135.227 126.809 135.257L110.26 144.802C110.26 144.802 110.2 144.833 110.169 144.833H110.154Z" fill="#BACFD6"/>
<path d="M120.864 130.235L126.703 135.091L110.154 144.636L120.864 130.22M120.864 129.842C120.864 129.842 120.834 129.842 120.818 129.842C120.713 129.842 120.622 129.902 120.561 129.993L109.852 144.409C109.746 144.56 109.761 144.757 109.867 144.893C109.942 144.969 110.048 145.014 110.154 145.014C110.215 145.014 110.29 144.999 110.336 144.969L126.884 135.424C126.99 135.363 127.066 135.257 127.066 135.121C127.066 134.985 127.02 134.879 126.93 134.803L121.091 129.948C121.091 129.948 120.939 129.857 120.849 129.857L120.864 129.842Z" fill="#29256A"/>
<path d="M137.775 87.8344C137.775 87.8344 137.715 104.02 137.473 108.906C137.473 108.906 118.337 128.253 113.633 138.797C108.944 149.325 89.1426 187.913 89.1426 187.913C89.1426 187.913 96.827 187.913 97.4623 196.324C97.4623 196.324 119.895 173.195 122.921 166.237C124.675 162.198 127.973 148.205 127.973 148.205C127.973 148.205 163.597 131.808 167.953 122.369C172.31 112.93 169.239 106.637 171.16 95.3827C171.977 90.5875 146.473 79.7113 137.79 87.8344H137.775Z" fill="url(#paint12_linear_340_2385)" stroke="#29256A" stroke-width="0.5" stroke-linecap="round" stroke-linejoin="round"/>
<g opacity="0.15">
<path d="M169.03 96.1543C167.199 107.197 170.194 109.451 165.868 118.814C161.512 128.253 125.888 144.651 125.888 144.651C125.888 144.651 122.59 158.643 120.836 162.682C118.113 168.959 99.5675 188.397 95.9824 192.134C96.5875 193.223 97.0262 194.584 97.1623 196.324C97.1623 196.324 119.595 173.195 122.621 166.237C124.375 162.198 127.673 148.206 127.673 148.206C127.673 148.206 163.297 131.808 167.653 122.369C172.025 112.93 168.939 110.721 170.86 99.467C171.011 98.6199 170.315 97.4401 169.045 96.1392L169.03 96.1543Z" fill="#29256A"/>
</g>
<path d="M167.199 35.3748L178.211 44.5719C178.211 44.5719 177.697 55.8262 176.245 68.1394C174.717 81.0274 173.007 84.8091 170.844 95.3676C170.844 95.3676 164.431 99.0737 146.218 96.366C132.483 94.3239 132.967 87.8193 132.967 87.8193C132.967 87.8193 131.908 61.5744 132.407 55.206C132.906 48.8376 132.679 40.1548 137.172 33.8318C141.665 27.5089 150.423 28.1744 150.423 28.1744L167.214 35.3748H167.199Z" fill="url(#paint13_linear_340_2385)" stroke="#29256A" stroke-width="0.5" stroke-linecap="round" stroke-linejoin="round"/>
<g style="mix-blend-mode:darken">
<path d="M176.442 46.9468C176.442 46.9468 171.269 57.8078 169.801 70.121C168.274 83.009 170.633 90.3606 168.455 100.919C170.043 100.148 170.83 99.467 170.83 99.467C173.008 88.9085 174.702 81.0425 176.23 68.1394C177.698 55.8111 178.197 46.9316 178.197 46.9316H176.412L176.442 46.9468Z" fill="#BACFD6"/>
</g>
<path d="M173.097 89.0444C168.937 91.4496 160.799 93.9152 149.756 94.2329C140.741 94.5052 135.28 90.2999 132.542 87.5317C132.481 87.7586 132.451 87.8494 132.391 88.0007C132.391 88.0007 132.542 92.4933 132.965 94.2329C136.793 97.0314 142.48 99.8298 149.998 99.8298C150.301 99.8298 150.603 99.8298 150.906 99.8298C161.071 99.5273 166.577 96.6986 171.493 94.3237C171.826 92.9471 173.203 90.663 173.384 89.2864C173.384 89.2864 173.263 89.1957 173.082 89.0595L173.097 89.0444Z" fill="#29256A" stroke="#29256A" stroke-width="0.5" stroke-linecap="round" stroke-linejoin="round"/>
<path d="M173.4 89.2714C169.24 91.6765 161.238 94.8532 150.195 95.1708C141.18 95.4431 135.129 90.7538 132.406 88.0007C131.544 90.5723 131.907 92.4631 132.406 94.4901C136.233 97.2886 141.921 100.087 149.439 100.087C149.741 100.087 150.044 100.087 150.346 100.087C160.512 99.7845 166.683 98.5744 171.6 96.1995C173.233 95.7003 174.111 91.132 173.384 89.2865L173.4 89.2714Z" fill="url(#paint14_linear_340_2385)" stroke="#29256A" stroke-width="0.5" stroke-linecap="round" stroke-linejoin="round"/>
<path d="M144.523 102.16L143.631 102.659C143.949 102.477 144.16 102.099 144.16 101.555L145.053 101.055C145.053 101.6 144.856 101.978 144.523 102.16Z" fill="#10242B" stroke="#29256A" stroke-width="0.5" stroke-linecap="round" stroke-linejoin="round"/>
<path d="M144.175 96.2753L145.068 95.7761L145.053 101.055L144.16 101.555L144.175 96.2753Z" fill="#10242B" stroke="#29256A" stroke-width="0.5" stroke-linecap="round" stroke-linejoin="round"/>
<path d="M143.283 92.7959L138.487 90.1336C137.988 89.8613 137.549 89.8311 137.217 90.0126L136.324 90.5118C136.657 90.3303 137.096 90.3605 137.595 90.6328L142.39 93.2951C143.388 93.8397 144.19 95.186 144.19 96.2751L145.083 95.7759C145.083 94.6868 144.281 93.3405 143.283 92.7959Z" fill="#29256A" stroke="#29256A" stroke-miterlimit="10"/>
<path d="M142.375 93.2951C143.373 93.8397 144.175 95.186 144.175 96.2751V101.554C144.16 102.644 143.343 103.097 142.359 102.538L137.564 99.8753C136.581 99.3307 135.779 97.9845 135.779 96.8953V91.6161C135.794 90.527 136.611 90.0731 137.595 90.6177L142.39 93.28L142.375 93.2951Z" fill="url(#paint15_linear_340_2385)" stroke="#29256A" stroke-width="0.5" stroke-linecap="round" stroke-linejoin="round"/>
<path d="M178.225 44.5869C178.225 44.5869 185.289 49.1552 184.518 57.3842C183.746 65.6131 170.087 88.1672 167.757 91.3892C165.428 94.6112 166.774 94.1876 155.958 103.082C153.281 105.276 142.541 114.473 142.541 114.473C142.541 114.473 134.418 109.299 136.641 104.156L160.421 81.7837C160.421 81.7837 166.804 61.1961 169.587 55.6748C172.386 50.1536 175.078 45.6307 178.195 44.5869H178.225Z" fill="url(#paint16_linear_340_2385)" stroke="#29256A" stroke-width="0.5" stroke-linecap="round" stroke-linejoin="round"/>
<path d="M51.8855 188.352C51.4922 188.352 51.0838 188.261 50.6754 188.08C46.0617 186.068 35.6091 176.236 33.6577 173.543C33.2493 172.983 33.1283 172.635 33.2644 172.378C33.325 172.257 33.4611 172.121 33.7939 172.121C34.4141 172.121 35.4578 172.605 35.5032 172.62C38.9219 174.314 42.1892 176.523 43.4296 177.4L44.2314 177.96C45.8651 179.095 48.0887 180.653 50.1157 182.15C52.4452 183.875 54.1394 186.87 54.1697 187.172C54.1697 187.233 54.1697 187.293 54.1092 187.339C53.4133 188.004 52.657 188.337 51.8855 188.337V188.352Z" fill="#29256A"/>
<path d="M33.7646 172.333C34.3545 172.333 35.3983 172.817 35.3983 172.817C38.5749 174.39 41.6608 176.432 43.2945 177.582C44.9281 178.731 47.5905 180.577 49.9805 182.331C52.2949 184.041 53.9437 187.021 53.9588 187.217C53.3538 187.792 52.6579 188.155 51.8713 188.155C51.5083 188.155 51.1301 188.079 50.7368 187.898C46.1988 185.931 35.7462 176.114 33.7948 173.437C33.1746 172.575 33.341 172.333 33.7646 172.333M33.7646 171.954C33.341 171.954 33.1595 172.151 33.0687 172.302C32.857 172.711 33.1746 173.24 33.4772 173.664C35.4437 176.371 45.9265 186.234 50.5704 188.261C51.0091 188.443 51.4327 188.548 51.8562 188.548C52.6731 188.548 53.4597 188.201 54.2009 187.505C54.2916 187.414 54.337 187.293 54.3219 187.172C54.2765 186.854 52.5672 183.783 50.1923 182.029C48.1501 180.516 45.9114 178.958 44.2777 177.824L43.5062 177.279C42.2658 176.402 38.9833 174.193 35.5495 172.484C35.3529 172.393 34.3696 171.969 33.7495 171.969H33.7646V171.954Z" fill="#29256A"/>
<path d="M139.697 12.3668V31.4266L140.937 35.6318C140.937 35.6318 144.916 24.801 159.422 27.9323L158.454 6.21021L142.843 8.49435L139.682 12.3668H139.697Z" fill="#BACFD6" stroke="#29256A" stroke-width="0.5" stroke-linecap="round" stroke-linejoin="round"/>
<path d="M154.205 38.8992L156.126 43.8154C156.126 43.8154 156.171 46.6593 159.953 45.2676C163.734 43.8911 171.056 35.3596 171.056 35.3596L166.109 26.3743L153.357 35.6772L154.205 38.8992Z" fill="#E8B5A7" stroke="#29256A" stroke-width="0.5" stroke-linecap="round" stroke-linejoin="round"/>
<path d="M163.008 32.5459L161.117 30.0046L153.342 35.6621L154.189 38.8841L156.11 43.8003C156.11 43.8003 156.11 44.2087 156.337 44.6474C164.309 42.6658 162.993 32.5308 162.993 32.5308L163.008 32.5459Z" fill="#E8B5A7" stroke="#29256A" stroke-width="0.5" stroke-linecap="round" stroke-linejoin="round"/>
<path d="M143.419 20.5657C143.419 20.5657 143.056 26.6164 143.419 29.2031C143.782 31.7898 145.31 35.5715 145.371 36.8119C145.416 38.0371 145.749 39.8826 146.913 40.3515C148.078 40.8053 152.843 40.8356 156.322 38.7632C159.801 36.6908 162.978 33.363 163.825 31.8805C164.672 30.4132 167.743 26.3593 168.409 23.3339C169.074 20.3085 168.772 13.7586 164.869 12.125C160.981 10.4913 152.525 9.76517 148.32 13.7586C144.115 17.7521 144.085 19.0833 143.404 20.5657H143.419Z" fill="#FFD8CC" stroke="#29256A" stroke-width="0.5" stroke-linecap="round" stroke-linejoin="round"/>
<path d="M143.617 37.78C143.617 37.78 143.527 37.7649 143.496 37.7195C143.496 37.7195 143.481 37.6892 143.466 37.6892C143.405 37.5985 143.421 37.4775 143.511 37.417C143.542 37.3867 143.587 37.3716 143.632 37.3716C143.678 37.3716 143.738 37.3867 143.769 37.4321C143.829 37.5077 143.829 37.659 143.753 37.7195C143.708 37.7498 143.663 37.7649 143.617 37.7649V37.78Z" fill="#C4CBEB"/>
<path d="M143.617 37.5527C143.617 37.5527 143.617 37.5679 143.632 37.583C143.632 37.583 143.632 37.5679 143.617 37.5527ZM143.617 37.1897C143.541 37.1897 143.466 37.2048 143.405 37.2653C143.239 37.3863 143.193 37.5981 143.314 37.7645C143.314 37.7645 143.345 37.8099 143.36 37.825C143.435 37.9158 143.541 37.9612 143.647 37.9612C143.738 37.9612 143.814 37.9309 143.889 37.8704C144.041 37.7343 144.071 37.5074 143.935 37.341C143.859 37.2502 143.738 37.1897 143.617 37.1897V37.1897Z" fill="#29256A"/>
<path d="M153.357 21.0798C153.357 21.0798 146.293 21.6395 144.72 21.3067C141.921 20.7319 140.605 17.5099 141.029 14.3182C141.453 11.1264 144.493 7.43549 146.217 6.33123C147.942 5.21185 153.055 2.79156 156.7 2.91258C160.346 3.03359 166.079 4.83368 168.499 7.52625C171.071 10.3852 171.615 12.6391 171.994 15.7401C172.372 18.8562 170.723 25.5725 169.921 26.5709C169.119 27.5692 164.203 31.2753 164.203 31.2753L161.087 32.7577C161.087 32.7577 161.541 27.5692 161.359 25.27C161.163 22.9707 155.415 25.0582 153.372 21.0798H153.357Z" fill="#29256A"/>
<path d="M163.492 32.3796C163.492 32.3796 164.021 27.5087 166.487 25.6935C168.015 24.5741 168.499 25.7238 168.68 26.1019C168.862 26.4801 169.21 29.0668 167.213 30.4736C165.216 31.8955 163.477 32.3644 163.477 32.3644L163.492 32.3796Z" fill="#E8B5A7" stroke="#29256A" stroke-width="0.5" stroke-linecap="round" stroke-linejoin="round"/>
<path d="M173.005 34.3009L172.521 39.9885C172.521 39.9885 166.289 47.0981 156.124 46.9469C137.82 46.6595 139.167 36.2674 138.713 32.2134L140.286 34.3916L143.054 37.5985L146.473 39.9583L151.556 41.2743L158.726 41.4861L172.99 34.3009H173.005Z" fill="url(#paint17_linear_340_2385)" stroke="#29256A" stroke-width="0.5" stroke-linecap="round" stroke-linejoin="round"/>
<path d="M172.854 40.3818C172.733 40.2457 172.582 39.2927 172.582 39.2927C172.522 39.3683 166.078 46.4628 156.457 46.4628C156.351 46.4628 156.245 46.4628 156.139 46.4628C141.663 46.2359 140.029 39.5952 138.88 34.3916C138.789 34.7546 138.668 35.4505 138.547 36.0253C139.167 40.8507 141.739 47.2191 156.124 47.446C156.245 47.446 156.351 47.446 156.472 47.446C166.168 47.446 172.189 41.1079 172.854 40.3818V40.3818Z" fill="url(#paint18_linear_340_2385)" stroke="#29256A" stroke-width="0.25" stroke-linecap="round" stroke-linejoin="round"/>
<path d="M159.377 1.06722C148.591 0.310877 143.236 6.11956 140.665 9.34157C139.379 10.945 138.729 12.9569 138.729 15.0141V32.2133C140.226 37.6589 147.517 42.9382 158.484 41.9095C169.451 40.8809 173.021 34.3008 173.021 34.3008L172.083 26.1172C172.083 26.1172 179.949 2.50426 159.377 1.06722ZM165.412 35.0722C165.412 35.0722 164.61 40.9868 154.702 40.9868C140.302 40.9868 140.302 31.2451 140.302 31.2451L140.362 17.0411C140.362 17.0411 140.045 10.1735 147.411 11.3837C155.716 12.7451 164.005 19.7034 164.898 22.396C165.79 25.0885 165.397 35.0874 165.397 35.0874L165.412 35.0722Z" fill="url(#paint19_linear_340_2385)" stroke="#29256A" stroke-width="0.5" stroke-linecap="round" stroke-linejoin="round"/>
<g opacity="0.3">
<path d="M148.076 12.4878C152.841 13.2593 157.56 16.1334 160.465 18.6898C162.461 20.4445 162.446 23.5153 160.54 25.3607C158.967 26.8885 156.728 28.0987 153.627 27.9323C147.698 27.5995 142.116 26.1322 141.904 21.0193V17.4343C141.904 17.4343 141.632 11.4441 148.076 12.4878Z" fill="#CADDFF"/>
</g>
<g style="mix-blend-mode:darken">
<path d="M159.377 1.06734C157.864 0.961448 156.472 0.991702 155.156 1.12784C184.563 2.17159 169.678 29.3393 169.678 29.3393L169.224 38.7482C171.947 36.8119 173.021 34.3009 173.021 34.3009L173.475 25.603C173.475 25.603 179.949 2.50438 159.377 1.06734Z" fill="#BACFD6"/>
</g>
<path d="M118.641 152.199L157.864 129.509V127.331L118.641 149.976V152.199Z" fill="#29256A" stroke="#29256A" stroke-width="0.5" stroke-linecap="round" stroke-linejoin="round"/>
<path d="M57.4375 116.878L118.64 152.199V149.975L57.4375 114.639V116.878Z" fill="#3F15AB" stroke="#29256A" stroke-width="0.5" stroke-linecap="round" stroke-linejoin="round"/>
<path d="M118.64 149.975L157.864 127.331L96.6613 91.9944L57.4375 114.639L118.64 149.975Z" fill="url(#paint20_linear_340_2385)" stroke="#29256A" stroke-width="0.5" stroke-linecap="round" stroke-linejoin="round"/>
<path d="M133.993 131.021L129.728 128.556C129.637 128.51 129.591 128.435 129.591 128.374C129.591 128.314 129.637 128.253 129.728 128.193L132.087 126.831C132.193 126.771 132.36 126.725 132.526 126.725C132.692 126.725 132.844 126.756 132.965 126.831L137.23 129.297C137.321 129.342 137.367 129.418 137.367 129.479C137.367 129.539 137.321 129.6 137.23 129.66L134.871 131.021C134.765 131.082 134.598 131.127 134.432 131.127C134.266 131.127 134.114 131.097 133.993 131.021ZM138.214 128.647L135.4 127.028C135.309 126.983 135.264 126.907 135.264 126.846C135.264 126.786 135.309 126.725 135.4 126.665L137.76 125.304C137.866 125.243 138.032 125.198 138.199 125.198C138.365 125.198 138.516 125.228 138.637 125.304L141.451 126.922C141.542 126.968 141.587 127.043 141.587 127.104C141.587 127.164 141.542 127.225 141.451 127.285L139.091 128.647C138.985 128.707 138.819 128.752 138.652 128.752C138.486 128.752 138.335 128.722 138.214 128.647ZM127.988 127.557L125.174 125.939C125.084 125.893 125.038 125.818 125.038 125.757C125.038 125.697 125.084 125.636 125.174 125.576L127.534 124.214C127.64 124.154 127.806 124.109 127.973 124.109C128.139 124.109 128.29 124.139 128.412 124.214L131.225 125.833C131.316 125.878 131.361 125.954 131.361 126.015C131.361 126.075 131.316 126.136 131.225 126.196L128.865 127.557C128.759 127.618 128.593 127.663 128.427 127.663C128.26 127.663 128.109 127.633 127.988 127.557V127.557ZM142.222 126.257L137.957 123.791C137.866 123.745 137.82 123.67 137.82 123.609C137.82 123.549 137.866 123.488 137.957 123.428L140.316 122.066C140.422 122.006 140.589 121.961 140.755 121.961C140.921 121.961 141.073 121.991 141.194 122.066L145.459 124.532C145.55 124.577 145.596 124.653 145.596 124.714C145.596 124.774 145.55 124.835 145.459 124.895L143.1 126.257C142.994 126.317 142.827 126.362 142.661 126.362C142.495 126.362 142.343 126.332 142.222 126.257ZM133.676 126.03L130.862 124.411C130.771 124.366 130.726 124.29 130.726 124.23C130.726 124.169 130.771 124.109 130.862 124.048L133.222 122.687C133.328 122.626 133.494 122.581 133.661 122.581C133.827 122.581 133.978 122.611 134.099 122.687L136.913 124.305C137.004 124.351 137.049 124.426 137.049 124.487C137.049 124.547 137.004 124.608 136.913 124.668L134.553 126.03C134.447 126.09 134.281 126.136 134.114 126.136C133.948 126.136 133.797 126.105 133.676 126.03ZM123.45 124.941L120.636 123.322C120.546 123.277 120.5 123.201 120.5 123.14C120.5 123.08 120.546 123.019 120.636 122.959L122.996 121.597C123.102 121.537 123.268 121.492 123.435 121.492C123.601 121.492 123.752 121.522 123.873 121.597L126.687 123.216C126.778 123.261 126.823 123.337 126.823 123.398C126.823 123.458 126.778 123.519 126.687 123.579L124.327 124.941C124.221 125.001 124.055 125.046 123.889 125.046C123.722 125.046 123.571 125.016 123.45 124.941ZM129.138 123.413L126.324 121.794C126.233 121.749 126.188 121.673 126.188 121.613C126.188 121.552 126.233 121.492 126.324 121.431L128.684 120.07C128.79 120.009 128.956 119.964 129.122 119.964C129.289 119.964 129.44 119.994 129.561 120.07L132.375 121.688C132.465 121.734 132.511 121.809 132.511 121.87C132.511 121.93 132.465 121.991 132.375 122.051L130.015 123.413C129.909 123.473 129.743 123.519 129.576 123.519C129.41 123.519 129.259 123.488 129.138 123.413V123.413ZM136.232 122.793L133.418 121.174C133.328 121.129 133.282 121.053 133.282 120.992C133.282 120.932 133.328 120.871 133.418 120.811L135.778 119.449C135.884 119.389 136.051 119.344 136.217 119.344C136.383 119.344 136.535 119.374 136.656 119.449L139.469 121.068C139.56 121.113 139.605 121.189 139.605 121.25C139.605 121.31 139.56 121.371 139.469 121.431L137.109 122.793C137.004 122.853 136.837 122.898 136.671 122.898C136.504 122.898 136.353 122.868 136.232 122.793ZM118.927 122.308L116.113 120.69C116.023 120.645 115.977 120.569 115.977 120.508C115.977 120.448 116.023 120.387 116.113 120.327L118.473 118.965C118.579 118.905 118.745 118.86 118.912 118.86C119.078 118.86 119.23 118.89 119.351 118.965L122.164 120.584C122.255 120.629 122.3 120.705 122.3 120.766C122.3 120.826 122.255 120.887 122.164 120.947L119.804 122.308C119.698 122.369 119.532 122.414 119.366 122.414C119.199 122.414 119.048 122.384 118.927 122.308ZM124.615 120.781L121.801 119.162C121.71 119.117 121.665 119.041 121.665 118.981C121.665 118.92 121.71 118.86 121.801 118.799L124.161 117.438C124.267 117.377 124.433 117.332 124.6 117.332C124.766 117.332 124.917 117.362 125.038 117.438L127.852 119.056C127.943 119.102 127.988 119.177 127.988 119.238C127.988 119.298 127.943 119.359 127.852 119.419L125.492 120.781C125.386 120.841 125.22 120.887 125.053 120.887C124.887 120.887 124.736 120.856 124.615 120.781ZM131.709 120.16L128.896 118.542C128.805 118.496 128.759 118.421 128.759 118.36C128.759 118.3 128.805 118.239 128.896 118.179L131.255 116.817C131.361 116.757 131.528 116.712 131.694 116.712C131.86 116.712 132.012 116.742 132.133 116.817L134.946 118.436C135.037 118.481 135.082 118.557 135.082 118.618C135.082 118.678 135.037 118.739 134.946 118.799L132.586 120.16C132.481 120.221 132.314 120.266 132.148 120.266C131.981 120.266 131.83 120.236 131.709 120.16ZM114.404 119.676L111.591 118.058C111.5 118.012 111.454 117.937 111.454 117.876C111.454 117.816 111.5 117.755 111.591 117.695L113.95 116.333C114.056 116.273 114.223 116.227 114.389 116.227C114.555 116.227 114.707 116.258 114.828 116.333L117.641 117.952C117.732 117.997 117.777 118.073 117.777 118.133C117.777 118.194 117.732 118.254 117.641 118.315L115.281 119.676C115.176 119.737 115.009 119.782 114.843 119.782C114.676 119.782 114.525 119.752 114.404 119.676ZM120.092 118.149L117.278 116.53C117.187 116.485 117.142 116.409 117.142 116.349C117.142 116.288 117.187 116.227 117.278 116.167L119.638 114.806C119.744 114.745 119.91 114.7 120.077 114.7C120.243 114.7 120.394 114.73 120.515 114.806L123.329 116.424C123.42 116.47 123.465 116.545 123.465 116.606C123.465 116.666 123.42 116.727 123.329 116.787L120.969 118.149C120.863 118.209 120.697 118.254 120.53 118.254C120.364 118.254 120.213 118.224 120.092 118.149ZM127.186 117.528L124.373 115.91C124.282 115.864 124.237 115.789 124.237 115.728C124.237 115.668 124.282 115.607 124.373 115.547L126.732 114.185C126.838 114.125 127.005 114.079 127.171 114.079C127.338 114.079 127.489 114.11 127.61 114.185L130.423 115.804C130.514 115.849 130.56 115.925 130.56 115.985C130.56 116.046 130.514 116.106 130.423 116.167L128.064 117.528C127.958 117.589 127.791 117.634 127.625 117.634C127.459 117.634 127.307 117.604 127.186 117.528V117.528ZM109.881 117.044L107.068 115.426C106.977 115.38 106.931 115.305 106.931 115.244C106.931 115.184 106.977 115.123 107.068 115.063L109.427 113.701C109.533 113.641 109.7 113.595 109.866 113.595C110.032 113.595 110.184 113.626 110.305 113.701L113.118 115.32C113.209 115.365 113.254 115.441 113.254 115.501C113.254 115.562 113.209 115.622 113.118 115.683L110.759 117.044C110.653 117.105 110.486 117.15 110.32 117.15C110.153 117.15 110.002 117.12 109.881 117.044ZM115.569 115.517L112.755 113.898C112.665 113.853 112.619 113.777 112.619 113.716C112.619 113.656 112.665 113.595 112.755 113.535L115.115 112.174C115.221 112.113 115.387 112.068 115.554 112.068C115.72 112.068 115.871 112.098 115.992 112.174L118.806 113.792C118.897 113.837 118.942 113.913 118.942 113.974C118.942 114.034 118.897 114.095 118.806 114.155L116.446 115.517C116.34 115.577 116.174 115.622 116.008 115.622C115.841 115.622 115.69 115.592 115.569 115.517ZM122.663 114.896L119.85 113.278C119.759 113.232 119.714 113.157 119.714 113.096C119.714 113.036 119.759 112.975 119.85 112.915L122.21 111.553C122.315 111.493 122.482 111.447 122.648 111.447C122.815 111.447 122.966 111.478 123.087 111.553L125.9 113.172C125.991 113.217 126.037 113.293 126.037 113.353C126.037 113.414 125.991 113.474 125.9 113.535L123.541 114.896C123.435 114.957 123.268 115.002 123.102 115.002C122.936 115.002 122.784 114.972 122.663 114.896ZM105.358 114.412L102.545 112.794C102.454 112.748 102.409 112.673 102.409 112.612C102.409 112.552 102.454 112.491 102.545 112.431L104.904 111.069C105.01 111.009 105.177 110.963 105.343 110.963C105.51 110.963 105.661 110.994 105.782 111.069L108.595 112.688C108.686 112.733 108.732 112.809 108.732 112.869C108.732 112.93 108.686 112.99 108.595 113.051L106.236 114.412C106.13 114.473 105.963 114.518 105.797 114.518C105.631 114.518 105.479 114.488 105.358 114.412ZM111.046 112.884L108.232 111.266C108.142 111.221 108.096 111.145 108.096 111.084C108.096 111.024 108.142 110.963 108.232 110.903L110.592 109.541C110.698 109.481 110.864 109.436 111.031 109.436C111.197 109.436 111.349 109.466 111.47 109.541L114.283 111.16C114.374 111.205 114.419 111.281 114.419 111.342C114.419 111.402 114.374 111.463 114.283 111.523L111.923 112.884C111.817 112.945 111.651 112.99 111.485 112.99C111.318 112.99 111.167 112.96 111.046 112.884ZM118.14 112.264L115.327 110.646C115.236 110.6 115.191 110.525 115.191 110.464C115.191 110.404 115.236 110.343 115.327 110.283L117.687 108.921C117.793 108.861 117.959 108.815 118.125 108.815C118.292 108.815 118.443 108.846 118.564 108.921L121.378 110.54C121.468 110.585 121.514 110.661 121.514 110.721C121.514 110.782 121.468 110.842 121.378 110.903L119.018 112.264C118.912 112.325 118.745 112.37 118.579 112.37C118.413 112.37 118.261 112.34 118.14 112.264ZM100.835 111.78L98.0218 110.162C97.931 110.116 97.8857 110.041 97.8857 109.98C97.8857 109.92 97.931 109.859 98.0218 109.799L100.382 108.437C100.487 108.377 100.654 108.331 100.82 108.331C100.987 108.331 101.138 108.362 101.259 108.437L104.073 110.056C104.163 110.101 104.209 110.177 104.209 110.237C104.209 110.298 104.163 110.358 104.073 110.419L101.713 111.78C101.607 111.841 101.44 111.886 101.274 111.886C101.108 111.886 100.956 111.856 100.835 111.78ZM106.523 110.252L103.709 108.634C103.619 108.588 103.573 108.513 103.573 108.452C103.573 108.392 103.619 108.331 103.709 108.271L106.069 106.909C106.175 106.849 106.342 106.804 106.508 106.804C106.674 106.804 106.826 106.834 106.947 106.909L109.76 108.528C109.851 108.573 109.896 108.649 109.896 108.709C109.896 108.77 109.851 108.83 109.76 108.891L107.4 110.252C107.295 110.313 107.128 110.358 106.962 110.358C106.795 110.358 106.644 110.328 106.523 110.252ZM113.618 109.632L110.804 108.014C110.713 107.968 110.668 107.893 110.668 107.832C110.668 107.772 110.713 107.711 110.804 107.651L113.164 106.289C113.27 106.229 113.436 106.183 113.602 106.183C113.769 106.183 113.92 106.214 114.041 106.289L116.855 107.908C116.945 107.953 116.991 108.029 116.991 108.089C116.991 108.15 116.945 108.21 116.855 108.271L114.495 109.632C114.389 109.693 114.223 109.738 114.056 109.738C113.89 109.738 113.739 109.708 113.618 109.632ZM96.3125 109.148L93.4989 107.53C93.4081 107.484 93.3628 107.409 93.3628 107.348C93.3628 107.288 93.4081 107.227 93.4989 107.167L95.8587 105.805C95.9646 105.745 96.131 105.699 96.2973 105.699C96.4637 105.699 96.615 105.729 96.736 105.805L99.5496 107.424C99.6404 107.469 99.6858 107.545 99.6858 107.605C99.6858 107.666 99.6404 107.726 99.5496 107.787L97.1898 109.148C97.0839 109.209 96.9176 109.254 96.7512 109.254C96.5848 109.254 96.4335 109.224 96.3125 109.148ZM102 107.62L99.1866 106.002C99.0958 105.956 99.0504 105.881 99.0504 105.82C99.0504 105.76 99.0958 105.699 99.1866 105.639L101.546 104.277C101.652 104.217 101.819 104.171 101.985 104.171C102.151 104.171 102.303 104.202 102.424 104.277L105.237 105.896C105.328 105.941 105.373 106.017 105.373 106.077C105.373 106.138 105.328 106.198 105.237 106.259L102.878 107.62C102.772 107.681 102.605 107.726 102.439 107.726C102.272 107.726 102.121 107.696 102 107.62ZM109.095 107L106.281 105.382C106.19 105.336 106.145 105.261 106.145 105.2C106.145 105.14 106.19 105.079 106.281 105.019L108.641 103.657C108.747 103.597 108.913 103.551 109.079 103.551C109.246 103.551 109.397 103.581 109.518 103.657L112.332 105.276C112.423 105.321 112.468 105.397 112.468 105.457C112.468 105.518 112.423 105.578 112.332 105.639L109.972 107C109.866 107.061 109.7 107.106 109.533 107.106C109.367 107.106 109.216 107.076 109.095 107ZM91.7896 106.516L88.976 104.898C88.8852 104.852 88.8398 104.777 88.8398 104.716C88.8398 104.655 88.8852 104.595 88.976 104.534L91.3358 103.173C91.4417 103.113 91.608 103.067 91.7744 103.067C91.9408 103.067 92.0921 103.097 92.2131 103.173L95.0267 104.792C95.1175 104.837 95.1628 104.913 95.1628 104.973C95.1628 105.034 95.1175 105.094 95.0267 105.155L92.6669 106.516C92.561 106.577 92.3946 106.622 92.2282 106.622C92.0619 106.622 91.9106 106.592 91.7896 106.516ZM97.4772 104.988L93.2115 102.523C93.1207 102.477 93.0753 102.402 93.0753 102.341C93.0753 102.281 93.1207 102.22 93.2115 102.16L95.5713 100.798C95.6772 100.738 95.8435 100.692 96.0099 100.692C96.1763 100.692 96.3276 100.723 96.4486 100.798L100.714 103.264C100.805 103.309 100.851 103.385 100.851 103.445C100.851 103.506 100.805 103.566 100.714 103.627L98.3546 104.988C98.2487 105.049 98.0823 105.094 97.9159 105.094C97.7495 105.094 97.5983 105.064 97.4772 104.988ZM104.572 104.368L101.758 102.75C101.667 102.704 101.622 102.629 101.622 102.568C101.622 102.507 101.667 102.447 101.758 102.386L104.118 101.025C104.224 100.965 104.39 100.919 104.557 100.919C104.723 100.919 104.874 100.949 104.995 101.025L107.809 102.644C107.9 102.689 107.945 102.765 107.945 102.825C107.945 102.886 107.9 102.946 107.809 103.007L105.449 104.368C105.343 104.429 105.177 104.474 105.01 104.474C104.844 104.474 104.693 104.444 104.572 104.368ZM100.034 101.751L97.2201 100.133C97.1293 100.087 97.0839 100.012 97.0839 99.9511C97.0839 99.8906 97.1293 99.8301 97.2201 99.7695L99.5799 98.4081C99.6858 98.3476 99.8521 98.3022 100.019 98.3022C100.185 98.3022 100.336 98.3325 100.457 98.4081L103.271 100.027C103.362 100.072 103.407 100.148 103.407 100.208C103.407 100.269 103.362 100.329 103.271 100.39L100.911 101.751C100.805 101.812 100.639 101.857 100.472 101.857C100.306 101.857 100.155 101.827 100.034 101.751Z" fill="#29256A"/>
<path d="M125.599 135.937L122.785 134.319C122.694 134.273 122.649 134.198 122.649 134.137C122.649 134.077 122.694 134.016 122.785 133.956L125.145 132.594C125.251 132.534 125.417 132.489 125.584 132.489C125.75 132.489 125.901 132.519 126.022 132.594L128.836 134.213C128.927 134.258 128.972 134.334 128.972 134.394C128.972 134.455 128.927 134.516 128.836 134.576L126.476 135.937C126.37 135.998 126.204 136.043 126.037 136.043C125.871 136.043 125.72 136.013 125.599 135.937ZM129.622 133.547L125.357 131.082C125.266 131.036 125.221 130.961 125.221 130.9C125.221 130.84 125.266 130.779 125.357 130.719L127.716 129.357C127.822 129.297 127.989 129.251 128.155 129.251C128.322 129.251 128.473 129.282 128.594 129.357L132.86 131.823C132.95 131.868 132.996 131.944 132.996 132.004C132.996 132.065 132.95 132.125 132.86 132.186L130.5 133.547C130.394 133.608 130.228 133.653 130.061 133.653C129.895 133.653 129.743 133.623 129.622 133.547V133.547ZM121.076 133.32L118.262 131.702C118.171 131.657 118.126 131.581 118.126 131.52C118.126 131.46 118.171 131.399 118.262 131.339L120.622 129.977C120.728 129.917 120.894 129.872 121.061 129.872C121.227 129.872 121.378 129.902 121.499 129.977L124.313 131.596C124.404 131.641 124.449 131.717 124.449 131.778C124.449 131.838 124.404 131.899 124.313 131.959L121.953 133.32C121.847 133.381 121.681 133.426 121.514 133.426C121.348 133.426 121.197 133.396 121.076 133.32ZM116.538 130.704L113.724 129.085C113.633 129.04 113.588 128.964 113.588 128.903C113.588 128.843 113.633 128.782 113.724 128.722L116.084 127.361C116.19 127.3 116.356 127.255 116.523 127.255C116.689 127.255 116.84 127.285 116.961 127.361L119.775 128.979C119.866 129.024 119.911 129.1 119.911 129.161C119.911 129.221 119.866 129.282 119.775 129.342L117.415 130.704C117.309 130.764 117.143 130.809 116.976 130.809C116.81 130.809 116.659 130.779 116.538 130.704ZM123.632 130.083L120.819 128.465C120.728 128.419 120.683 128.344 120.683 128.283C120.683 128.223 120.728 128.162 120.819 128.102L123.178 126.74C123.284 126.68 123.451 126.634 123.617 126.634C123.784 126.634 123.935 126.665 124.056 126.74L126.869 128.359C126.96 128.404 127.006 128.48 127.006 128.54C127.006 128.601 126.96 128.661 126.869 128.722L124.51 130.083C124.404 130.144 124.237 130.189 124.071 130.189C123.905 130.189 123.753 130.159 123.632 130.083ZM112 128.087L109.186 126.468C109.095 126.423 109.05 126.347 109.05 126.287C109.05 126.226 109.095 126.166 109.186 126.105L111.546 124.744C111.652 124.683 111.818 124.638 111.985 124.638C112.151 124.638 112.302 124.668 112.423 124.744L115.237 126.362C115.328 126.408 115.373 126.483 115.373 126.544C115.373 126.604 115.328 126.665 115.237 126.725L112.877 128.087C112.771 128.147 112.605 128.193 112.438 128.193C112.272 128.193 112.121 128.162 112 128.087ZM119.094 127.466L116.281 125.848C116.19 125.802 116.144 125.727 116.144 125.666C116.144 125.606 116.19 125.545 116.281 125.485L118.64 124.123C118.746 124.063 118.913 124.018 119.079 124.018C119.245 124.018 119.397 124.048 119.518 124.123L122.331 125.742C122.422 125.787 122.467 125.863 122.467 125.923C122.467 125.984 122.422 126.044 122.331 126.105L119.972 127.466C119.866 127.527 119.699 127.572 119.533 127.572C119.366 127.572 119.215 127.542 119.094 127.466ZM107.462 125.47L104.648 123.851C104.557 123.806 104.512 123.73 104.512 123.67C104.512 123.609 104.557 123.549 104.648 123.488L107.008 122.127C107.114 122.066 107.28 122.021 107.447 122.021C107.613 122.021 107.764 122.051 107.885 122.127L110.699 123.745C110.79 123.791 110.835 123.866 110.835 123.927C110.835 123.987 110.79 124.048 110.699 124.108L108.339 125.47C108.233 125.53 108.067 125.576 107.9 125.576C107.734 125.576 107.583 125.545 107.462 125.47ZM114.556 124.849L111.743 123.231C111.652 123.186 111.606 123.11 111.606 123.049C111.606 122.989 111.652 122.928 111.743 122.868L114.102 121.506C114.208 121.446 114.375 121.401 114.541 121.401C114.707 121.401 114.859 121.431 114.98 121.506L117.793 123.125C117.884 123.17 117.929 123.246 117.929 123.307C117.929 123.367 117.884 123.428 117.793 123.488L115.434 124.849C115.328 124.91 115.161 124.955 114.995 124.955C114.828 124.955 114.677 124.925 114.556 124.849ZM102.924 122.853L100.11 121.234C100.019 121.189 99.9739 121.113 99.9739 121.053C99.9739 120.992 100.019 120.932 100.11 120.871L102.47 119.51C102.576 119.449 102.742 119.404 102.909 119.404C103.075 119.404 103.226 119.434 103.347 119.51L106.161 121.128C106.252 121.174 106.297 121.249 106.297 121.31C106.297 121.37 106.252 121.431 106.161 121.491L103.801 122.853C103.695 122.913 103.529 122.959 103.362 122.959C103.196 122.959 103.045 122.928 102.924 122.853ZM110.018 122.233L107.205 120.614C107.114 120.569 107.068 120.493 107.068 120.432C107.068 120.372 107.114 120.311 107.205 120.251L109.564 118.89C109.67 118.829 109.837 118.784 110.003 118.784C110.169 118.784 110.321 118.814 110.442 118.89L113.255 120.508C113.346 120.553 113.391 120.629 113.391 120.69C113.391 120.75 113.346 120.811 113.255 120.871L110.895 122.233C110.79 122.293 110.623 122.338 110.457 122.338C110.29 122.338 110.139 122.308 110.018 122.233ZM98.3856 120.236L95.5721 118.617C95.4813 118.572 95.4359 118.496 95.4359 118.436C95.4359 118.375 95.4813 118.315 95.5721 118.254L97.9318 116.893C98.0377 116.832 98.2041 116.787 98.3705 116.787C98.5369 116.787 98.6882 116.817 98.8092 116.893L101.623 118.511C101.714 118.557 101.759 118.632 101.759 118.693C101.759 118.753 101.714 118.814 101.623 118.874L99.263 120.236C99.1571 120.296 98.9907 120.342 98.8243 120.342C98.6579 120.342 98.5067 120.311 98.3856 120.236ZM105.48 119.616L102.667 117.997C102.576 117.952 102.53 117.876 102.53 117.816C102.53 117.755 102.576 117.695 102.667 117.634L105.026 116.273C105.132 116.212 105.299 116.167 105.465 116.167C105.631 116.167 105.783 116.197 105.904 116.273L108.717 117.891C108.808 117.937 108.853 118.012 108.853 118.073C108.853 118.133 108.808 118.194 108.717 118.254L106.357 119.616C106.252 119.676 106.085 119.722 105.919 119.722C105.752 119.722 105.601 119.691 105.48 119.616ZM93.8627 117.619L91.0491 116C90.9584 115.955 90.913 115.879 90.913 115.819C90.913 115.758 90.9584 115.698 91.0491 115.637L93.4089 114.276C93.5148 114.215 93.6812 114.17 93.8476 114.17C94.014 114.17 94.1653 114.2 94.2863 114.276L97.0999 115.894C97.1906 115.94 97.236 116.015 97.236 116.076C97.236 116.136 97.1906 116.197 97.0999 116.257L94.7401 117.619C94.6342 117.679 94.4678 117.725 94.3014 117.725C94.135 117.725 93.9837 117.695 93.8627 117.619ZM100.957 116.999L98.1436 115.38C98.0528 115.335 98.0075 115.259 98.0075 115.199C98.0075 115.138 98.0528 115.078 98.1436 115.017L100.503 113.656C100.609 113.595 100.776 113.55 100.942 113.55C101.108 113.55 101.26 113.58 101.381 113.656L104.194 115.274C104.285 115.32 104.33 115.395 104.33 115.456C104.33 115.516 104.285 115.577 104.194 115.637L101.835 116.999C101.729 117.059 101.562 117.105 101.396 117.105C101.229 117.105 101.078 117.074 100.957 116.999ZM89.3247 115.002L86.5111 113.383C86.4204 113.338 86.375 113.262 86.375 113.202C86.375 113.141 86.4204 113.081 86.5111 113.02L88.8709 111.659C88.9768 111.598 89.1432 111.553 89.3096 111.553C89.476 111.553 89.6272 111.583 89.7482 111.659L92.5618 113.277C92.6526 113.323 92.698 113.399 92.698 113.459C92.698 113.52 92.6526 113.58 92.5618 113.641L90.202 115.002C90.0962 115.062 89.9298 115.108 89.7634 115.108C89.597 115.108 89.4457 115.078 89.3247 115.002ZM96.4192 114.382L93.6056 112.763C93.5148 112.718 93.4694 112.642 93.4694 112.582C93.4694 112.521 93.5148 112.461 93.6056 112.4L95.9654 111.039C96.0712 110.978 96.2376 110.933 96.404 110.933C96.5704 110.933 96.7217 110.963 96.8427 111.039L99.6563 112.657C99.747 112.703 99.7924 112.778 99.7924 112.839C99.7924 112.899 99.747 112.96 99.6563 113.02L97.2965 114.382C97.1906 114.442 97.0242 114.488 96.8578 114.488C96.6914 114.488 96.5402 114.457 96.4192 114.382ZM84.7867 112.385L80.5209 109.919C80.4301 109.874 80.3848 109.798 80.3848 109.738C80.3848 109.677 80.4301 109.617 80.5209 109.556L82.8807 108.195C82.9866 108.134 83.153 108.089 83.3194 108.089C83.4858 108.089 83.637 108.119 83.758 108.195L88.0238 110.661C88.1146 110.706 88.1599 110.782 88.1599 110.842C88.1599 110.903 88.1146 110.963 88.0238 111.024L85.664 112.385C85.5581 112.446 85.3917 112.491 85.2253 112.491C85.0589 112.491 84.9077 112.461 84.7867 112.385ZM91.8811 111.765L89.0675 110.146C88.9768 110.101 88.9314 110.025 88.9314 109.965C88.9314 109.904 88.9768 109.844 89.0675 109.783L91.4273 108.422C91.5332 108.361 91.6996 108.316 91.866 108.316C92.0324 108.316 92.1837 108.346 92.3047 108.422L95.1183 110.04C95.209 110.086 95.2544 110.161 95.2544 110.222C95.2544 110.282 95.209 110.343 95.1183 110.403L92.7585 111.765C92.6526 111.825 92.4862 111.871 92.3198 111.871C92.1534 111.871 92.0021 111.84 91.8811 111.765ZM87.3431 109.148L84.5295 107.529C84.4387 107.484 84.3934 107.408 84.3934 107.348C84.3934 107.287 84.4387 107.227 84.5295 107.166L86.8893 105.805C86.9952 105.744 87.1616 105.699 87.328 105.699C87.4944 105.699 87.6456 105.729 87.7666 105.805L90.5802 107.423C90.671 107.469 90.7164 107.544 90.7164 107.605C90.7164 107.665 90.671 107.726 90.5802 107.786L88.2204 109.148C88.1145 109.208 87.9482 109.254 87.7818 109.254C87.6154 109.254 87.4641 109.224 87.3431 109.148Z" fill="#29256A"/>
<path style="mix-blend-mode:screen" d="M133.993 130.643L129.728 128.178C129.637 128.132 129.591 128.057 129.591 127.996C129.591 127.936 129.637 127.875 129.728 127.815L132.087 126.453C132.193 126.393 132.36 126.347 132.526 126.347C132.692 126.347 132.844 126.378 132.965 126.453L137.23 128.919C137.321 128.964 137.367 129.04 137.367 129.1C137.367 129.161 137.321 129.221 137.23 129.282L134.871 130.643C134.765 130.704 134.598 130.749 134.432 130.749C134.266 130.749 134.114 130.719 133.993 130.643ZM138.214 128.268L135.4 126.65C135.309 126.604 135.264 126.529 135.264 126.468C135.264 126.408 135.309 126.347 135.4 126.287L137.76 124.925C137.866 124.865 138.032 124.819 138.199 124.819C138.365 124.819 138.516 124.85 138.637 124.925L141.451 126.544C141.542 126.589 141.587 126.665 141.587 126.725C141.587 126.786 141.542 126.846 141.451 126.907L139.091 128.268C138.985 128.329 138.819 128.374 138.652 128.374C138.486 128.374 138.335 128.344 138.214 128.268ZM127.988 127.179L125.174 125.561C125.084 125.515 125.038 125.44 125.038 125.379C125.038 125.319 125.084 125.258 125.174 125.198L127.534 123.836C127.64 123.776 127.806 123.73 127.973 123.73C128.139 123.73 128.29 123.761 128.412 123.836L131.225 125.455C131.316 125.5 131.361 125.576 131.361 125.636C131.361 125.697 131.316 125.757 131.225 125.818L128.865 127.179C128.759 127.24 128.593 127.285 128.427 127.285C128.26 127.285 128.109 127.255 127.988 127.179V127.179ZM142.222 125.878L137.957 123.413C137.866 123.367 137.82 123.292 137.82 123.231C137.82 123.171 137.866 123.11 137.957 123.05L140.316 121.688C140.422 121.628 140.589 121.582 140.755 121.582C140.921 121.582 141.073 121.613 141.194 121.688L145.459 124.154C145.55 124.199 145.596 124.275 145.596 124.335C145.596 124.396 145.55 124.456 145.459 124.517L143.1 125.878C142.994 125.939 142.827 125.984 142.661 125.984C142.495 125.984 142.343 125.954 142.222 125.878ZM133.676 125.651L130.862 124.033C130.771 123.988 130.726 123.912 130.726 123.851C130.726 123.791 130.771 123.73 130.862 123.67L133.222 122.308C133.328 122.248 133.494 122.203 133.661 122.203C133.827 122.203 133.978 122.233 134.099 122.308L136.913 123.927C137.004 123.972 137.049 124.048 137.049 124.109C137.049 124.169 137.004 124.23 136.913 124.29L134.553 125.651C134.447 125.712 134.281 125.757 134.114 125.757C133.948 125.757 133.797 125.727 133.676 125.651ZM123.45 124.562L120.636 122.944C120.546 122.898 120.5 122.823 120.5 122.762C120.5 122.702 120.546 122.641 120.636 122.581L122.996 121.219C123.102 121.159 123.268 121.113 123.435 121.113C123.601 121.113 123.752 121.144 123.873 121.219L126.687 122.838C126.778 122.883 126.823 122.959 126.823 123.019C126.823 123.08 126.778 123.14 126.687 123.201L124.327 124.562C124.221 124.623 124.055 124.668 123.889 124.668C123.722 124.668 123.571 124.638 123.45 124.562ZM129.138 123.035L126.324 121.416C126.233 121.371 126.188 121.295 126.188 121.234C126.188 121.174 126.233 121.113 126.324 121.053L128.684 119.692C128.79 119.631 128.956 119.586 129.122 119.586C129.289 119.586 129.44 119.616 129.561 119.692L132.375 121.31C132.465 121.355 132.511 121.431 132.511 121.492C132.511 121.552 132.465 121.613 132.375 121.673L130.015 123.035C129.909 123.095 129.743 123.14 129.576 123.14C129.41 123.14 129.259 123.11 129.138 123.035V123.035ZM136.232 122.414L133.418 120.796C133.328 120.75 133.282 120.675 133.282 120.614C133.282 120.554 133.328 120.493 133.418 120.433L135.778 119.071C135.884 119.011 136.051 118.965 136.217 118.965C136.383 118.965 136.535 118.996 136.656 119.071L139.469 120.69C139.56 120.735 139.605 120.811 139.605 120.871C139.605 120.932 139.56 120.992 139.469 121.053L137.109 122.414C137.004 122.475 136.837 122.52 136.671 122.52C136.504 122.52 136.353 122.49 136.232 122.414ZM118.927 121.93L116.113 120.312C116.023 120.266 115.977 120.191 115.977 120.13C115.977 120.07 116.023 120.009 116.113 119.949L118.473 118.587C118.579 118.527 118.745 118.481 118.912 118.481C119.078 118.481 119.23 118.512 119.351 118.587L122.164 120.206C122.255 120.251 122.3 120.327 122.3 120.387C122.3 120.448 122.255 120.508 122.164 120.569L119.804 121.93C119.698 121.991 119.532 122.036 119.366 122.036C119.199 122.036 119.048 122.006 118.927 121.93ZM124.615 120.402L121.801 118.784C121.71 118.739 121.665 118.663 121.665 118.602C121.665 118.542 121.71 118.481 121.801 118.421L124.161 117.059C124.267 116.999 124.433 116.954 124.6 116.954C124.766 116.954 124.917 116.984 125.038 117.059L127.852 118.678C127.943 118.723 127.988 118.799 127.988 118.86C127.988 118.92 127.943 118.981 127.852 119.041L125.492 120.402C125.386 120.463 125.22 120.508 125.053 120.508C124.887 120.508 124.736 120.478 124.615 120.402ZM131.709 119.782L128.896 118.164C128.805 118.118 128.759 118.043 128.759 117.982C128.759 117.922 128.805 117.861 128.896 117.801L131.255 116.439C131.361 116.379 131.528 116.333 131.694 116.333C131.86 116.333 132.012 116.364 132.133 116.439L134.946 118.058C135.037 118.103 135.082 118.179 135.082 118.239C135.082 118.3 135.037 118.36 134.946 118.421L132.586 119.782C132.481 119.843 132.314 119.888 132.148 119.888C131.981 119.888 131.83 119.858 131.709 119.782ZM114.404 119.298L111.591 117.68C111.5 117.634 111.454 117.559 111.454 117.498C111.454 117.438 111.5 117.377 111.591 117.317L113.95 115.955C114.056 115.895 114.223 115.849 114.389 115.849C114.555 115.849 114.707 115.88 114.828 115.955L117.641 117.574C117.732 117.619 117.777 117.695 117.777 117.755C117.777 117.816 117.732 117.876 117.641 117.937L115.281 119.298C115.176 119.359 115.009 119.404 114.843 119.404C114.676 119.404 114.525 119.374 114.404 119.298ZM120.092 117.77L117.278 116.152C117.187 116.106 117.142 116.031 117.142 115.97C117.142 115.91 117.187 115.849 117.278 115.789L119.638 114.427C119.744 114.367 119.91 114.322 120.077 114.322C120.243 114.322 120.394 114.352 120.515 114.427L123.329 116.046C123.42 116.091 123.465 116.167 123.465 116.227C123.465 116.288 123.42 116.348 123.329 116.409L120.969 117.77C120.863 117.831 120.697 117.876 120.53 117.876C120.364 117.876 120.213 117.846 120.092 117.77ZM127.186 117.15L124.373 115.532C124.282 115.486 124.237 115.411 124.237 115.35C124.237 115.29 124.282 115.229 124.373 115.169L126.732 113.807C126.838 113.747 127.005 113.701 127.171 113.701C127.338 113.701 127.489 113.732 127.61 113.807L130.423 115.426C130.514 115.471 130.56 115.547 130.56 115.607C130.56 115.668 130.514 115.728 130.423 115.789L128.064 117.15C127.958 117.211 127.791 117.256 127.625 117.256C127.459 117.256 127.307 117.226 127.186 117.15V117.15ZM109.881 116.666L107.068 115.048C106.977 115.002 106.931 114.927 106.931 114.866C106.931 114.806 106.977 114.745 107.068 114.685L109.427 113.323C109.533 113.263 109.7 113.217 109.866 113.217C110.032 113.217 110.184 113.248 110.305 113.323L113.118 114.942C113.209 114.987 113.254 115.063 113.254 115.123C113.254 115.184 113.209 115.244 113.118 115.305L110.759 116.666C110.653 116.727 110.486 116.772 110.32 116.772C110.153 116.772 110.002 116.742 109.881 116.666ZM115.569 115.138L112.755 113.52C112.665 113.474 112.619 113.399 112.619 113.338C112.619 113.278 112.665 113.217 112.755 113.157L115.115 111.795C115.221 111.735 115.387 111.689 115.554 111.689C115.72 111.689 115.871 111.72 115.992 111.795L118.806 113.414C118.897 113.459 118.942 113.535 118.942 113.595C118.942 113.656 118.897 113.716 118.806 113.777L116.446 115.138C116.34 115.199 116.174 115.244 116.008 115.244C115.841 115.244 115.69 115.214 115.569 115.138ZM122.663 114.518L119.85 112.9C119.759 112.854 119.714 112.779 119.714 112.718C119.714 112.658 119.759 112.597 119.85 112.537L122.21 111.175C122.315 111.115 122.482 111.069 122.648 111.069C122.815 111.069 122.966 111.1 123.087 111.175L125.9 112.794C125.991 112.839 126.037 112.915 126.037 112.975C126.037 113.036 125.991 113.096 125.9 113.157L123.541 114.518C123.435 114.579 123.268 114.624 123.102 114.624C122.936 114.624 122.784 114.594 122.663 114.518ZM105.358 114.034L102.545 112.416C102.454 112.37 102.409 112.295 102.409 112.234C102.409 112.174 102.454 112.113 102.545 112.052L104.904 110.691C105.01 110.631 105.177 110.585 105.343 110.585C105.51 110.585 105.661 110.615 105.782 110.691L108.595 112.31C108.686 112.355 108.732 112.431 108.732 112.491C108.732 112.552 108.686 112.612 108.595 112.673L106.236 114.034C106.13 114.095 105.963 114.14 105.797 114.14C105.631 114.14 105.479 114.11 105.358 114.034ZM111.046 112.506L108.232 110.888C108.142 110.842 108.096 110.767 108.096 110.706C108.096 110.646 108.142 110.585 108.232 110.525L110.592 109.163C110.698 109.103 110.864 109.057 111.031 109.057C111.197 109.057 111.349 109.088 111.47 109.163L114.283 110.782C114.374 110.827 114.419 110.903 114.419 110.963C114.419 111.024 114.374 111.084 114.283 111.145L111.923 112.506C111.817 112.567 111.651 112.612 111.485 112.612C111.318 112.612 111.167 112.582 111.046 112.506ZM118.14 111.886L115.327 110.268C115.236 110.222 115.191 110.147 115.191 110.086C115.191 110.026 115.236 109.965 115.327 109.904L117.687 108.543C117.793 108.483 117.959 108.437 118.125 108.437C118.292 108.437 118.443 108.467 118.564 108.543L121.378 110.162C121.468 110.207 121.514 110.283 121.514 110.343C121.514 110.404 121.468 110.464 121.378 110.525L119.018 111.886C118.912 111.947 118.745 111.992 118.579 111.992C118.413 111.992 118.261 111.962 118.14 111.886ZM100.835 111.402L98.0218 109.783C97.931 109.738 97.8857 109.662 97.8857 109.602C97.8857 109.541 97.931 109.481 98.0218 109.42L100.382 108.059C100.487 107.999 100.654 107.953 100.82 107.953C100.987 107.953 101.138 107.983 101.259 108.059L104.073 109.678C104.163 109.723 104.209 109.799 104.209 109.859C104.209 109.92 104.163 109.98 104.073 110.041L101.713 111.402C101.607 111.463 101.44 111.508 101.274 111.508C101.108 111.508 100.956 111.478 100.835 111.402ZM106.523 109.874L103.709 108.256C103.619 108.21 103.573 108.135 103.573 108.074C103.573 108.014 103.619 107.953 103.709 107.893L106.069 106.531C106.175 106.471 106.342 106.425 106.508 106.425C106.674 106.425 106.826 106.456 106.947 106.531L109.76 108.15C109.851 108.195 109.896 108.271 109.896 108.331C109.896 108.392 109.851 108.452 109.76 108.513L107.4 109.874C107.295 109.935 107.128 109.98 106.962 109.98C106.795 109.98 106.644 109.95 106.523 109.874ZM113.618 109.254L110.804 107.635C110.713 107.59 110.668 107.514 110.668 107.454C110.668 107.393 110.713 107.333 110.804 107.272L113.164 105.911C113.27 105.851 113.436 105.805 113.602 105.805C113.769 105.805 113.92 105.835 114.041 105.911L116.855 107.53C116.945 107.575 116.991 107.651 116.991 107.711C116.991 107.772 116.945 107.832 116.855 107.893L114.495 109.254C114.389 109.315 114.223 109.36 114.056 109.36C113.89 109.36 113.739 109.33 113.618 109.254ZM96.3125 108.77L93.4989 107.151C93.4081 107.106 93.3628 107.03 93.3628 106.97C93.3628 106.909 93.4081 106.849 93.4989 106.788L95.8587 105.427C95.9646 105.366 96.131 105.321 96.2973 105.321C96.4637 105.321 96.615 105.351 96.736 105.427L99.5496 107.046C99.6404 107.091 99.6858 107.167 99.6858 107.227C99.6858 107.288 99.6404 107.348 99.5496 107.409L97.1898 108.77C97.0839 108.83 96.9176 108.876 96.7512 108.876C96.5848 108.876 96.4335 108.846 96.3125 108.77ZM102 107.242L99.1866 105.624C99.0958 105.578 99.0504 105.503 99.0504 105.442C99.0504 105.382 99.0958 105.321 99.1866 105.261L101.546 103.899C101.652 103.839 101.819 103.793 101.985 103.793C102.151 103.793 102.303 103.824 102.424 103.899L105.237 105.518C105.328 105.563 105.373 105.639 105.373 105.699C105.373 105.76 105.328 105.82 105.237 105.881L102.878 107.242C102.772 107.303 102.605 107.348 102.439 107.348C102.272 107.348 102.121 107.318 102 107.242ZM109.095 106.622L106.281 105.003C106.19 104.958 106.145 104.882 106.145 104.822C106.145 104.761 106.19 104.701 106.281 104.64L108.641 103.279C108.747 103.218 108.913 103.173 109.079 103.173C109.246 103.173 109.397 103.203 109.518 103.279L112.332 104.898C112.423 104.943 112.468 105.019 112.468 105.079C112.468 105.14 112.423 105.2 112.332 105.261L109.972 106.622C109.866 106.682 109.7 106.728 109.533 106.728C109.367 106.728 109.216 106.698 109.095 106.622ZM91.7896 106.138L88.976 104.519C88.8852 104.474 88.8398 104.398 88.8398 104.338C88.8398 104.277 88.8852 104.217 88.976 104.156L91.3358 102.795C91.4417 102.734 91.608 102.689 91.7744 102.689C91.9408 102.689 92.0921 102.719 92.2131 102.795L95.0267 104.413C95.1175 104.459 95.1628 104.534 95.1628 104.595C95.1628 104.655 95.1175 104.716 95.0267 104.777L92.6669 106.138C92.561 106.198 92.3946 106.244 92.2282 106.244C92.0619 106.244 91.9106 106.214 91.7896 106.138ZM97.4772 104.61L93.2115 102.144C93.1207 102.099 93.0753 102.023 93.0753 101.963C93.0753 101.902 93.1207 101.842 93.2115 101.781L95.5713 100.42C95.6772 100.359 95.8435 100.314 96.0099 100.314C96.1763 100.314 96.3276 100.344 96.4486 100.42L100.714 102.886C100.805 102.931 100.851 103.007 100.851 103.067C100.851 103.128 100.805 103.188 100.714 103.249L98.3546 104.61C98.2487 104.671 98.0823 104.716 97.9159 104.716C97.7495 104.716 97.5983 104.686 97.4772 104.61ZM104.572 103.99L101.758 102.371C101.667 102.326 101.622 102.25 101.622 102.19C101.622 102.129 101.667 102.069 101.758 102.008L104.118 100.647C104.224 100.586 104.39 100.541 104.557 100.541C104.723 100.541 104.874 100.571 104.995 100.647L107.809 102.265C107.9 102.311 107.945 102.386 107.945 102.447C107.945 102.507 107.9 102.568 107.809 102.629L105.449 103.99C105.343 104.05 105.177 104.096 105.01 104.096C104.844 104.096 104.693 104.066 104.572 103.99ZM100.034 101.373L97.2201 99.7544C97.1293 99.709 97.0839 99.6334 97.0839 99.5729C97.0839 99.5124 97.1293 99.4519 97.2201 99.3914L99.5799 98.03C99.6858 97.9695 99.8521 97.9241 100.019 97.9241C100.185 97.9241 100.336 97.9543 100.457 98.03L103.271 99.6485C103.362 99.6939 103.407 99.7695 103.407 99.8301C103.407 99.8906 103.362 99.9511 103.271 100.012L100.911 101.373C100.805 101.433 100.639 101.479 100.472 101.479C100.306 101.479 100.155 101.449 100.034 101.373Z" fill="url(#paint21_linear_340_2385)"/>
<path style="mix-blend-mode:screen" d="M125.599 135.559L122.785 133.941C122.694 133.895 122.649 133.82 122.649 133.759C122.649 133.699 122.694 133.638 122.785 133.578L125.145 132.216C125.251 132.156 125.417 132.11 125.584 132.11C125.75 132.11 125.901 132.141 126.022 132.216L128.836 133.835C128.927 133.88 128.972 133.956 128.972 134.016C128.972 134.077 128.927 134.137 128.836 134.198L126.476 135.559C126.37 135.62 126.204 135.665 126.037 135.665C125.871 135.665 125.72 135.635 125.599 135.559ZM129.622 133.169L125.357 130.704C125.266 130.658 125.221 130.583 125.221 130.522C125.221 130.462 125.266 130.401 125.357 130.341L127.716 128.979C127.822 128.919 127.989 128.873 128.155 128.873C128.322 128.873 128.473 128.903 128.594 128.979L132.86 131.445C132.95 131.49 132.996 131.566 132.996 131.626C132.996 131.687 132.95 131.747 132.86 131.808L130.5 133.169C130.394 133.23 130.228 133.275 130.061 133.275C129.895 133.275 129.743 133.245 129.622 133.169V133.169ZM121.076 132.942L118.262 131.324C118.171 131.278 118.126 131.203 118.126 131.142C118.126 131.082 118.171 131.021 118.262 130.961L120.622 129.599C120.728 129.539 120.894 129.493 121.061 129.493C121.227 129.493 121.378 129.524 121.499 129.599L124.313 131.218C124.404 131.263 124.449 131.339 124.449 131.399C124.449 131.46 124.404 131.52 124.313 131.581L121.953 132.942C121.847 133.003 121.681 133.048 121.514 133.048C121.348 133.048 121.197 133.018 121.076 132.942ZM116.538 130.325L113.724 128.707C113.633 128.661 113.588 128.586 113.588 128.525C113.588 128.465 113.633 128.404 113.724 128.344L116.084 126.982C116.19 126.922 116.356 126.876 116.523 126.876C116.689 126.876 116.84 126.907 116.961 126.982L119.775 128.601C119.866 128.646 119.911 128.722 119.911 128.782C119.911 128.843 119.866 128.903 119.775 128.964L117.415 130.325C117.309 130.386 117.143 130.431 116.976 130.431C116.81 130.431 116.659 130.401 116.538 130.325ZM123.632 129.705L120.819 128.087C120.728 128.041 120.683 127.966 120.683 127.905C120.683 127.845 120.728 127.784 120.819 127.724L123.178 126.362C123.284 126.302 123.451 126.256 123.617 126.256C123.784 126.256 123.935 126.287 124.056 126.362L126.869 127.981C126.96 128.026 127.006 128.102 127.006 128.162C127.006 128.223 126.96 128.283 126.869 128.344L124.51 129.705C124.404 129.766 124.237 129.811 124.071 129.811C123.905 129.811 123.753 129.781 123.632 129.705ZM112 127.708L109.186 126.09C109.095 126.045 109.05 125.969 109.05 125.908C109.05 125.848 109.095 125.787 109.186 125.727L111.546 124.365C111.652 124.305 111.818 124.26 111.985 124.26C112.151 124.26 112.302 124.29 112.423 124.365L115.237 125.984C115.328 126.029 115.373 126.105 115.373 126.166C115.373 126.226 115.328 126.287 115.237 126.347L112.877 127.708C112.771 127.769 112.605 127.814 112.438 127.814C112.272 127.814 112.121 127.784 112 127.708ZM119.094 127.088L116.281 125.47C116.19 125.424 116.144 125.349 116.144 125.288C116.144 125.228 116.19 125.167 116.281 125.107L118.64 123.745C118.746 123.685 118.913 123.639 119.079 123.639C119.245 123.639 119.397 123.67 119.518 123.745L122.331 125.364C122.422 125.409 122.467 125.485 122.467 125.545C122.467 125.606 122.422 125.666 122.331 125.727L119.972 127.088C119.866 127.149 119.699 127.194 119.533 127.194C119.366 127.194 119.215 127.164 119.094 127.088ZM107.462 125.092L104.648 123.473C104.557 123.428 104.512 123.352 104.512 123.291C104.512 123.231 104.557 123.17 104.648 123.11L107.008 121.748C107.114 121.688 107.28 121.643 107.447 121.643C107.613 121.643 107.764 121.673 107.885 121.748L110.699 123.367C110.79 123.412 110.835 123.488 110.835 123.549C110.835 123.609 110.79 123.67 110.699 123.73L108.339 125.092C108.233 125.152 108.067 125.197 107.9 125.197C107.734 125.197 107.583 125.167 107.462 125.092ZM114.556 124.471L111.743 122.853C111.652 122.807 111.606 122.732 111.606 122.671C111.606 122.611 111.652 122.55 111.743 122.49L114.102 121.128C114.208 121.068 114.375 121.022 114.541 121.022C114.707 121.022 114.859 121.053 114.98 121.128L117.793 122.747C117.884 122.792 117.929 122.868 117.929 122.928C117.929 122.989 117.884 123.049 117.793 123.11L115.434 124.471C115.328 124.532 115.161 124.577 114.995 124.577C114.828 124.577 114.677 124.547 114.556 124.471ZM102.924 122.475L100.11 120.856C100.019 120.811 99.9739 120.735 99.9739 120.674C99.9739 120.614 100.019 120.553 100.11 120.493L102.47 119.132C102.576 119.071 102.742 119.026 102.909 119.026C103.075 119.026 103.226 119.056 103.347 119.132L106.161 120.75C106.252 120.796 106.297 120.871 106.297 120.932C106.297 120.992 106.252 121.053 106.161 121.113L103.801 122.475C103.695 122.535 103.529 122.58 103.362 122.58C103.196 122.58 103.045 122.55 102.924 122.475ZM110.018 121.854L107.205 120.236C107.114 120.19 107.068 120.115 107.068 120.054C107.068 119.994 107.114 119.933 107.205 119.873L109.564 118.511C109.67 118.451 109.837 118.405 110.003 118.405C110.169 118.405 110.321 118.436 110.442 118.511L113.255 120.13C113.346 120.175 113.391 120.251 113.391 120.311C113.391 120.372 113.346 120.432 113.255 120.493L110.895 121.854C110.79 121.915 110.623 121.96 110.457 121.96C110.29 121.96 110.139 121.93 110.018 121.854ZM98.3856 119.858L95.5721 118.239C95.4813 118.194 95.4359 118.118 95.4359 118.058C95.4359 117.997 95.4813 117.937 95.5721 117.876L97.9318 116.515C98.0377 116.454 98.2041 116.409 98.3705 116.409C98.5369 116.409 98.6882 116.439 98.8092 116.515L101.623 118.133C101.714 118.179 101.759 118.254 101.759 118.315C101.759 118.375 101.714 118.436 101.623 118.496L99.263 119.858C99.1571 119.918 98.9907 119.964 98.8243 119.964C98.6579 119.964 98.5067 119.933 98.3856 119.858ZM105.48 119.237L102.667 117.619C102.576 117.573 102.53 117.498 102.53 117.437C102.53 117.377 102.576 117.316 102.667 117.256L105.026 115.894C105.132 115.834 105.299 115.789 105.465 115.789C105.631 115.789 105.783 115.819 105.904 115.894L108.717 117.513C108.808 117.558 108.853 117.634 108.853 117.695C108.853 117.755 108.808 117.816 108.717 117.876L106.357 119.237C106.252 119.298 106.085 119.343 105.919 119.343C105.752 119.343 105.601 119.313 105.48 119.237ZM93.8627 117.241L91.0491 115.622C90.9584 115.577 90.913 115.501 90.913 115.441C90.913 115.38 90.9584 115.32 91.0491 115.259L93.4089 113.898C93.5148 113.837 93.6812 113.792 93.8476 113.792C94.014 113.792 94.1653 113.822 94.2863 113.898L97.0999 115.516C97.1906 115.562 97.236 115.637 97.236 115.698C97.236 115.758 97.1906 115.819 97.0999 115.879L94.7401 117.241C94.6342 117.301 94.4678 117.347 94.3014 117.347C94.135 117.347 93.9837 117.316 93.8627 117.241ZM100.957 116.621L98.1436 115.002C98.0528 114.957 98.0075 114.881 98.0075 114.82C98.0075 114.76 98.0528 114.699 98.1436 114.639L100.503 113.277C100.609 113.217 100.776 113.172 100.942 113.172C101.108 113.172 101.26 113.202 101.381 113.277L104.194 114.896C104.285 114.941 104.33 115.017 104.33 115.078C104.33 115.138 104.285 115.199 104.194 115.259L101.835 116.621C101.729 116.681 101.562 116.726 101.396 116.726C101.229 116.726 101.078 116.696 100.957 116.621ZM89.3247 114.624L86.5111 113.005C86.4204 112.96 86.375 112.884 86.375 112.824C86.375 112.763 86.4204 112.703 86.5111 112.642L88.8709 111.281C88.9768 111.22 89.1432 111.175 89.3096 111.175C89.476 111.175 89.6272 111.205 89.7482 111.281L92.5618 112.899C92.6526 112.945 92.698 113.02 92.698 113.081C92.698 113.141 92.6526 113.202 92.5618 113.262L90.202 114.624C90.0962 114.684 89.9298 114.73 89.7634 114.73C89.597 114.73 89.4457 114.699 89.3247 114.624ZM96.4192 114.004L93.6056 112.385C93.5148 112.34 93.4694 112.264 93.4694 112.203C93.4694 112.143 93.5148 112.082 93.6056 112.022L95.9654 110.661C96.0712 110.6 96.2376 110.555 96.404 110.555C96.5704 110.555 96.7217 110.585 96.8427 110.661L99.6563 112.279C99.747 112.324 99.7924 112.4 99.7924 112.461C99.7924 112.521 99.747 112.582 99.6563 112.642L97.2965 114.004C97.1906 114.064 97.0242 114.109 96.8578 114.109C96.6914 114.109 96.5402 114.079 96.4192 114.004ZM84.7867 112.007L80.5209 109.541C80.4301 109.496 80.3848 109.42 80.3848 109.36C80.3848 109.299 80.4301 109.239 80.5209 109.178L82.8807 107.817C82.9866 107.756 83.153 107.711 83.3194 107.711C83.4858 107.711 83.637 107.741 83.758 107.817L88.0238 110.282C88.1146 110.328 88.1599 110.403 88.1599 110.464C88.1599 110.524 88.1146 110.585 88.0238 110.645L85.664 112.007C85.5581 112.067 85.3917 112.113 85.2253 112.113C85.0589 112.113 84.9077 112.082 84.7867 112.007ZM91.8811 111.387L89.0675 109.768C88.9768 109.723 88.9314 109.647 88.9314 109.587C88.9314 109.526 88.9768 109.466 89.0675 109.405L91.4273 108.044C91.5332 107.983 91.6996 107.938 91.866 107.938C92.0324 107.938 92.1837 107.968 92.3047 108.044L95.1183 109.662C95.209 109.708 95.2544 109.783 95.2544 109.844C95.2544 109.904 95.209 109.965 95.1183 110.025L92.7585 111.387C92.6526 111.447 92.4862 111.493 92.3198 111.493C92.1534 111.493 92.0021 111.462 91.8811 111.387ZM87.3431 108.77L84.5295 107.151C84.4387 107.106 84.3934 107.03 84.3934 106.97C84.3934 106.909 84.4387 106.849 84.5295 106.788L86.8893 105.427C86.9952 105.366 87.1616 105.321 87.328 105.321C87.4944 105.321 87.6456 105.351 87.7666 105.427L90.5802 107.045C90.671 107.091 90.7164 107.166 90.7164 107.227C90.7164 107.287 90.671 107.348 90.5802 107.408L88.2204 108.77C88.1145 108.83 87.9482 108.876 87.7818 108.876C87.6154 108.876 87.4641 108.845 87.3431 108.77Z" fill="url(#paint22_linear_340_2385)"/>
<path d="M125.131 111.508C123.861 111.795 122.62 111.039 123.392 109.647C125.509 105.805 131.666 105.472 134.722 104.58C134.933 104.489 135.069 104.383 135.251 104.292C139.759 102.16 146.369 112.385 142.572 114.458C136.537 117.755 136.522 117.604 135.538 118.799C134.752 119.767 133.436 121.537 131.454 123.866C130.259 125.258 128.081 123.897 130.153 120.735C129.382 121.658 128.474 122.853 127.551 124.366C126.084 126.786 123.8 124.426 124.269 123.413C124.813 122.202 125.615 120.539 126.387 119.102C125.177 120.69 123.83 122.399 123.316 122.989C121.728 124.835 119.489 122.913 120.926 120.871C121.531 120.009 122.106 119.132 122.696 118.239C121.622 119.223 120.2 120.493 119.186 119.449C117.689 117.891 121.425 114.367 125.146 111.493L125.131 111.508Z" fill="#29256A"/>
<path d="M78.2527 76.7618C79.0544 75.6727 79.9772 73.9785 80.9907 73.086C80.9907 73.086 78.4494 69.5615 79.3267 67.8521C79.3267 67.8521 82.0949 64.5545 82.8059 64.252C83.7437 63.8435 91.1861 62.3914 94.4233 61.4081C99.7933 59.7744 104.785 68.2303 101.563 70.2573C99.884 70.9985 99.2941 71.4069 98.205 72.4053C97.4486 73.1011 96.8738 73.9634 96.1477 74.7046C94.9224 75.9601 92.124 77.8509 90.3844 78.1383C89.6583 78.2594 88.8415 78.0325 88.6297 77.3215C88.2515 75.9903 92.5022 74.0692 91.6399 73.0557C89.9609 72.4355 85.2413 74.7802 85.2413 74.7802C85.2413 74.7802 82.5033 76.7164 80.8394 79.1821C79.3419 81.4057 76.3619 79.3031 78.2376 76.7618H78.2527Z" fill="#29256A"/>
<path d="M195.015 111.826L195.212 110.57L188.299 129.751L188.616 129.358L195.015 111.826Z" fill="#CEE0E8" stroke="#29256A" stroke-width="0.5" stroke-linecap="round" stroke-linejoin="round"/>
<path d="M202.11 114.579L199.735 114.563L193.352 132.111L195.197 133.759L202.11 114.579Z" fill="#BACFD6" stroke="#29256A" stroke-width="0.5" stroke-linecap="round" stroke-linejoin="round"/>
<path d="M199.735 114.563L195.016 111.825L188.617 129.357L193.352 132.11L199.735 114.563Z" fill="#CEE0E8" stroke="#29256A" stroke-width="0.5" stroke-linecap="round" stroke-linejoin="round"/>
<path d="M181.628 147.389L179.283 148.947L197.919 138.192L198.237 137.798L181.628 147.389Z" fill="#1F787D" stroke="#29256A" stroke-width="0.5" stroke-linecap="round" stroke-linejoin="round"/>
<path d="M199.917 111.871L195.182 109.118L195.016 111.825L199.735 114.563L199.917 111.871Z" fill="#CEE0E8" stroke="#29256A" stroke-width="0.5" stroke-linecap="round" stroke-linejoin="round"/>
<path d="M207.117 113.384L207.163 112.794L208.1 98.4233L207.828 101.297L207.117 113.384Z" fill="#04555B" stroke="#29256A" stroke-width="0.5" stroke-linecap="round" stroke-linejoin="round"/>
<path d="M202.368 110.252L199.918 111.871L199.736 114.563L202.111 114.578L202.368 110.252Z" fill="#BACFD6" stroke="#29256A" stroke-width="0.5" stroke-linecap="round" stroke-linejoin="round"/>
<path d="M181.614 141.595L179.27 140.234L179.285 148.947L181.629 147.389L181.614 141.595Z" fill="#BACFD6" stroke="#29256A" stroke-width="0.5" stroke-linecap="round" stroke-linejoin="round"/>
<path d="M179.268 140.234L174.533 137.496L174.563 146.194L179.283 148.947L179.268 140.234Z" fill="#CEE0E8" stroke="#29256A" stroke-width="0.5" stroke-linecap="round" stroke-linejoin="round"/>
<path d="M193.351 132.11L188.616 129.357L174.533 137.496L179.268 140.234L193.351 132.11Z" fill="#EBF3F6" stroke="#29256A" stroke-width="0.5" stroke-linecap="round" stroke-linejoin="round"/>
<path d="M195.198 133.76L193.353 132.111L179.27 140.234L181.614 141.595L195.198 133.76Z" fill="#BACFD6" stroke="#29256A" stroke-width="0.5" stroke-linecap="round" stroke-linejoin="round"/>
<path d="M141.86 176.492L139.258 177.808L146.609 175.645L146.776 175.04L141.86 176.492Z" fill="#BACFD6" stroke="#29256A" stroke-width="0.5" stroke-linecap="round" stroke-linejoin="round"/>
<path d="M153.659 138.373L153.568 138.63L199.917 111.871L202.367 110.252L153.659 138.373Z" fill="#BACFD6" stroke="#29256A" stroke-width="0.5" stroke-linecap="round" stroke-linejoin="round"/>
<path d="M149.68 134.864L141.859 176.493L146.776 175.04L153.658 138.373L202.367 110.252L202.109 114.579L195.196 133.759L181.613 141.595L181.628 147.389L198.237 137.798L207.116 113.384L207.827 101.297L149.68 134.864Z" fill="#CEE0E8" stroke="#29256A" stroke-width="0.5" stroke-linecap="round" stroke-linejoin="round"/>
<path d="M208.1 98.4232L203.38 95.6702L142.873 130.598L147.593 133.351L208.1 98.4232Z" fill="#EBF3F6" stroke="#29256A" stroke-width="0.5" stroke-linecap="round" stroke-linejoin="round"/>
<path d="M207.827 101.297L208.099 98.4233L147.592 133.351L149.679 134.864L207.827 101.297Z" fill="#BACFD6" stroke="#29256A" stroke-width="0.5" stroke-linecap="round" stroke-linejoin="round"/>
<path d="M149.68 134.864L147.593 133.351L139.258 177.808L141.86 176.492L149.68 134.864Z" fill="#BACFD6" stroke="#29256A" stroke-width="0.5" stroke-linecap="round" stroke-linejoin="round"/>
<path d="M147.593 133.351L142.873 130.598L134.523 175.056L139.258 177.809L147.593 133.351Z" fill="#CEE0E8" stroke="#29256A" stroke-width="0.5" stroke-linecap="round" stroke-linejoin="round"/>
<path d="M21 89.7458L117.762 145.662V60.9274L21 5V89.7458Z" fill="url(#paint23_linear_340_2385)" fill-opacity="0.7"/>
<g opacity="0.5">
<path opacity="0.7" d="M43.1331 94.8083L23.6055 83.522V87.3571L43.1331 98.6434V94.8083Z" fill="white"/>
<path opacity="0.7" d="M43.1331 87.2585L23.6055 75.9722V79.7964L43.1331 91.0826V87.2585Z" fill="white"/>
<path opacity="0.7" d="M43.1331 79.3578L23.6055 68.0715V71.8957L43.1331 83.182V79.3578Z" fill="white"/>
<path opacity="0.7" d="M43.1331 71.7973L23.6055 60.511V64.3352L43.1331 75.6215V71.7973Z" fill="white"/>
<path opacity="0.7" d="M43.1331 63.8969L23.6055 52.6106V56.4348L43.1331 67.7211V63.8969Z" fill="white"/>
<path opacity="0.7" d="M43.1331 56.3361L23.6055 45.0498V48.885L43.1331 60.1712V56.3361Z" fill="white"/>
<path opacity="0.7" d="M43.1331 48.4359L23.6055 37.1497V40.9738L43.1331 52.2601V48.4359Z" fill="white"/>
<path opacity="0.7" d="M43.1331 40.8752L23.6055 29.5889V33.424L43.1331 44.7103V40.8752Z" fill="white"/>
<path opacity="0.7" d="M43.1331 22.9596L23.6055 11.6733V21.8858L43.1331 33.1721V22.9596Z" fill="white"/>
</g>
<g opacity="0.5">
<path opacity="0.7" d="M106.641 74.208V84.4314L114.193 88.7925V78.5801L106.641 74.208Z" fill="white"/>
<path opacity="0.7" d="M106.641 89.4827V99.7061L114.193 104.067V93.8547L106.641 89.4827Z" fill="white"/>
<path opacity="0.7" d="M106.641 104.758V114.981L114.193 119.342V109.13L106.641 104.758Z" fill="white"/>
<path opacity="0.7" d="M106.641 120.032V130.256L114.193 134.617V124.405L106.641 120.032Z" fill="white"/>
</g>
<g opacity="0.5">
<path opacity="0.7" d="M114.194 64.2694L94.666 52.9832V63.2066L114.194 74.4928V64.2694Z" fill="white"/>
<path opacity="0.7" d="M85.7014 47.8002L66.1738 36.5139V59.2837L85.7014 70.57V47.8002Z" fill="white"/>
<path opacity="0.7" d="M87.4202 88.0583L67.8926 76.772V99.5418L87.4202 110.828V88.0583Z" fill="white"/>
</g>
<path opacity="0.5" d="M77.657 89.4938C77.657 89.4938 77.6242 89.4719 77.6023 89.4609C76.8799 89.0555 76.2231 89.0226 75.6868 89.2527L65.5617 70.4824L65.4851 70.329L44.3594 58.1223V58.8674L65.2662 70.9536L75.2818 89.5157C74.7345 89.9759 74.3951 90.8306 74.3951 91.9812C74.3951 94.4028 75.8619 97.2079 77.6789 98.2489C79.485 99.3008 80.9627 98.1831 80.9627 95.7725C80.9627 93.3618 79.496 90.5457 77.6789 89.5048L77.657 89.4938Z" fill="white"/>
<path opacity="0.5" d="M77.656 91.51C77.656 91.51 77.6341 91.51 77.6232 91.499C76.6928 90.984 75.9375 91.5648 75.9375 92.8139C75.9375 94.0741 76.7037 95.5424 77.656 96.0902C78.5974 96.6381 79.3745 96.0574 79.3745 94.7972C79.3745 93.5371 78.6083 92.0688 77.656 91.5209V91.51Z" fill="#85009B"/>
<path opacity="0.5" d="M75.9377 51.2518C75.9377 51.2518 75.9159 51.2518 75.9049 51.2409C74.9745 50.7259 74.2192 51.3066 74.2192 52.5558C74.2192 52.9612 74.3177 53.3666 74.4491 53.7721L63.722 61.1027L44.3477 49.9041V50.6492L63.941 61.9793L74.7884 54.572C75.0949 55.1199 75.489 55.5801 75.9268 55.8431C76.8682 56.3909 77.6453 55.8102 77.6453 54.5501C77.6453 53.2899 76.8791 51.8216 75.9268 51.2737L75.9377 51.2518Z" fill="#85009B"/>
<path opacity="0.5" d="M75.9384 51.9968C75.9384 51.9968 75.9274 51.9968 75.9165 51.9968C75.2926 51.6462 74.7891 52.0406 74.7891 52.8844C74.7891 53.7391 75.3035 54.7252 75.9384 55.0868C76.5733 55.4594 77.0877 55.0649 77.0877 54.2102C77.0877 53.3555 76.5733 52.3694 75.9384 52.0078V51.9968Z" fill="white"/>
<path opacity="0.5" d="M93.1009 73.2766C93.1009 73.2766 93.0352 73.2437 93.0024 73.2218C89.9047 71.5015 87.4199 73.43 87.4199 77.572C87.4199 81.7578 89.9703 86.6339 93.1009 88.4419C96.2424 90.2608 98.7818 88.3323 98.7818 84.1356C98.7818 79.9388 96.2314 75.0737 93.1009 73.2547V73.2766Z" fill="white"/>
<path opacity="0.5" d="M93.1018 76.3666C93.1018 76.3666 93.058 76.3447 93.0471 76.3338C91.2082 75.3147 89.7305 76.4543 89.7305 78.9197C89.7305 81.4071 91.241 84.289 93.1018 85.3738C94.9626 86.4476 96.4732 85.308 96.4732 82.8206C96.4732 80.3333 94.9626 77.4514 93.1018 76.3666Z" fill="#85009B"/>
<path opacity="0.5" d="M92.2269 87.861V121.271L63.428 104.265L63.5703 90.195L44.8965 80.8701V82.9192L61.7205 91.3236L61.5782 105.305L94.0549 124.492V88.902C94.0549 88.902 93.5732 88.7267 93.1026 88.4528C92.7304 88.2446 92.2269 87.8501 92.2269 87.8501V87.861Z" fill="white"/>
<defs>
<linearGradient id="paint0_linear_340_2385" x1="199.084" y1="71.724" x2="144.84" y2="43.3311" gradientUnits="userSpaceOnUse">
<stop stop-color="#5971FF"/>
<stop offset="1" stop-color="#15ABAB"/>
</linearGradient>
<linearGradient id="paint1_linear_340_2385" x1="112.529" y1="176.856" x2="68.5248" y2="151.443" gradientUnits="userSpaceOnUse">
<stop stop-color="#5971FF"/>
<stop offset="1" stop-color="#15ABAB"/>
</linearGradient>
<linearGradient id="paint2_linear_340_2385" x1="112.529" y1="176.856" x2="68.5248" y2="151.443" gradientUnits="userSpaceOnUse">
<stop stop-color="#6059FF"/>
<stop offset="0.76" stop-color="#1578AB"/>
<stop offset="0.82" stop-color="#1776AE"/>
<stop offset="0.87" stop-color="#2073B8"/>
<stop offset="0.92" stop-color="#2F6DC8"/>
<stop offset="0.96" stop-color="#4464E0"/>
<stop offset="1" stop-color="#6059FF"/>
</linearGradient>
<linearGradient id="paint3_linear_340_2385" x1="99.3218" y1="190.122" x2="58.3131" y2="164.921" gradientUnits="userSpaceOnUse">
<stop stop-color="#5971FF"/>
<stop offset="1" stop-color="#15ABAB"/>
</linearGradient>
<linearGradient id="paint4_linear_340_2385" x1="183.716" y1="30.7156" x2="172.19" y2="26.4498" gradientUnits="userSpaceOnUse">
<stop stop-color="#5971FF"/>
<stop offset="1" stop-color="#15ABAB"/>
</linearGradient>
<linearGradient id="paint5_linear_340_2385" x1="187.392" y1="19.8244" x2="173.52" y2="12.3518" gradientUnits="userSpaceOnUse">
<stop stop-color="#5971FF"/>
<stop offset="1" stop-color="#15ABAB"/>
</linearGradient>
<linearGradient id="paint6_linear_340_2385" x1="190.191" y1="106.546" x2="157.093" y2="89.4532" gradientUnits="userSpaceOnUse">
<stop stop-color="#5971FF"/>
<stop offset="1" stop-color="#15ABAB"/>
</linearGradient>
<linearGradient id="paint7_linear_340_2385" x1="144.493" y1="143.138" x2="99.43" y2="112.173" gradientUnits="userSpaceOnUse">
<stop stop-color="#5971FF"/>
<stop offset="1" stop-color="#15ABAB"/>
</linearGradient>
<linearGradient id="paint8_linear_340_2385" x1="69.964" y1="196.218" x2="98.5385" y2="196.218" gradientUnits="userSpaceOnUse">
<stop stop-color="#DDE7FF"/>
<stop offset="1" stop-color="#9FD0E3"/>
</linearGradient>
<linearGradient id="paint9_linear_340_2385" x1="33.0986" y1="173.981" x2="64.4564" y2="173.981" gradientUnits="userSpaceOnUse">
<stop stop-color="#DDE7FF"/>
<stop offset="1" stop-color="#9FD0E3"/>
</linearGradient>
<linearGradient id="paint10_linear_340_2385" x1="123.194" y1="52.1654" x2="122.755" y2="75.2337" gradientUnits="userSpaceOnUse">
<stop stop-color="#DDE7FF"/>
<stop offset="1" stop-color="#9FD0E3"/>
</linearGradient>
<linearGradient id="paint11_linear_340_2385" x1="53.4141" y1="131.521" x2="145.914" y2="131.521" gradientUnits="userSpaceOnUse">
<stop stop-color="#DDE7FF"/>
<stop offset="1" stop-color="#9FD0E3"/>
</linearGradient>
<linearGradient id="paint12_linear_340_2385" x1="89.1426" y1="140.627" x2="171.175" y2="140.627" gradientUnits="userSpaceOnUse">
<stop stop-color="#DDE7FF"/>
<stop offset="1" stop-color="#9FD0E3"/>
</linearGradient>
<linearGradient id="paint13_linear_340_2385" x1="137.823" y1="58.3372" x2="175.367" y2="74.538" gradientUnits="userSpaceOnUse">
<stop stop-color="#DDE7FF"/>
<stop offset="1" stop-color="#9FD0E3"/>
</linearGradient>
<linearGradient id="paint14_linear_340_2385" x1="131.892" y1="94.0363" x2="173.657" y2="94.0363" gradientUnits="userSpaceOnUse">
<stop stop-color="#B177CC"/>
<stop offset="0.76" stop-color="#142387"/>
<stop offset="0.81" stop-color="#172488"/>
<stop offset="0.85" stop-color="#21298C"/>
<stop offset="0.88" stop-color="#313294"/>
<stop offset="0.91" stop-color="#493F9E"/>
<stop offset="0.95" stop-color="#674FAB"/>
<stop offset="0.98" stop-color="#8C63BB"/>
<stop offset="1" stop-color="#B177CC"/>
</linearGradient>
<linearGradient id="paint15_linear_340_2385" x1="135.764" y1="96.5928" x2="144.175" y2="96.5928" gradientUnits="userSpaceOnUse">
<stop stop-color="#A05AC1"/>
<stop offset="1" stop-color="#142387"/>
</linearGradient>
<linearGradient id="paint16_linear_340_2385" x1="155.338" y1="75.022" x2="173.566" y2="91.5405" gradientUnits="userSpaceOnUse">
<stop stop-color="#DDE7FF"/>
<stop offset="1" stop-color="#9FD0E3"/>
</linearGradient>
<linearGradient id="paint17_linear_340_2385" x1="138.728" y1="39.5801" x2="173.005" y2="39.5801" gradientUnits="userSpaceOnUse">
<stop stop-color="#DDE7FF"/>
<stop offset="1" stop-color="#9FD0E3"/>
</linearGradient>
<linearGradient id="paint18_linear_340_2385" x1="138.547" y1="40.9112" x2="172.854" y2="40.9112" gradientUnits="userSpaceOnUse">
<stop stop-color="#B177CC"/>
<stop offset="0.76" stop-color="#142387"/>
<stop offset="0.81" stop-color="#172488"/>
<stop offset="0.85" stop-color="#21298C"/>
<stop offset="0.88" stop-color="#313294"/>
<stop offset="0.91" stop-color="#493F9E"/>
<stop offset="0.95" stop-color="#674FAB"/>
<stop offset="0.98" stop-color="#8C63BB"/>
<stop offset="1" stop-color="#B177CC"/>
</linearGradient>
<linearGradient id="paint19_linear_340_2385" x1="140.922" y1="12.9871" x2="178.088" y2="33.499" gradientUnits="userSpaceOnUse">
<stop stop-color="#DDE7FF"/>
<stop offset="1" stop-color="#9FD0E3"/>
</linearGradient>
<linearGradient id="paint20_linear_340_2385" x1="57.4375" y1="120.977" x2="157.864" y2="120.977" gradientUnits="userSpaceOnUse">
<stop stop-color="#B177CC"/>
<stop offset="0.76" stop-color="#142387"/>
<stop offset="0.81" stop-color="#172488"/>
<stop offset="0.85" stop-color="#21298C"/>
<stop offset="0.88" stop-color="#313294"/>
<stop offset="0.91" stop-color="#493F9E"/>
<stop offset="0.95" stop-color="#674FAB"/>
<stop offset="0.98" stop-color="#8C63BB"/>
<stop offset="1" stop-color="#B177CC"/>
</linearGradient>
<linearGradient id="paint21_linear_340_2385" x1="88.7642" y1="114.397" x2="145.611" y2="114.397" gradientUnits="userSpaceOnUse">
<stop stop-color="#E7E3FF"/>
<stop offset="1" stop-color="#8ED0D1"/>
</linearGradient>
<linearGradient id="paint22_linear_340_2385" x1="80.3696" y1="120.493" x2="132.996" y2="120.493" gradientUnits="userSpaceOnUse">
<stop stop-color="#E7E3FF"/>
<stop offset="1" stop-color="#8ED0D1"/>
</linearGradient>
<linearGradient id="paint23_linear_340_2385" x1="23.9576" y1="-15.925" x2="127.242" y2="33.9208" gradientUnits="userSpaceOnUse">
<stop stop-color="#E6007A"/>
<stop offset="0.239694" stop-color="#703AC2"/>
<stop offset="0.495059" stop-color="#0070EB"/>
<stop offset="0.791212" stop-color="#0297FB"/>
<stop offset="1" stop-color="#0AE2FF"/>
</linearGradient>
</defs>
</svg>
