<svg width="240" height="210" viewBox="0 0 240 210" fill="none" xmlns="http://www.w3.org/2000/svg">
<path d="M85.8105 38.9548C85.8105 38.9548 90.2781 35.6131 93.7373 35.7669C97.1965 35.9067 101.342 38.5493 102.714 41.9749C104.073 45.3866 109.899 59.0331 109.899 59.0331C109.899 59.0331 118.176 63.6053 123.946 70.065C129.716 76.5248 135.402 82.1736 135.402 82.1736C135.402 82.1736 135.164 86.3263 130.598 87.1093L103.933 70.6104C103.933 70.6104 88.9336 49.6371 85.8105 38.9688V38.9548Z" fill="url(#paint0_linear_340_2386)" stroke="#29256A" stroke-width="0.5" stroke-linecap="round" stroke-linejoin="round"/>
<g opacity="0.15">
<path d="M93.2471 35.7808C90.9363 36.7315 100.068 46.9944 100.068 46.9944C103.191 57.6488 107.14 69.7993 107.14 69.7993L133.287 85.9906C132.615 86.494 131.747 86.8994 130.598 87.0952L103.933 70.5963C103.933 70.5963 88.9336 49.6231 85.8105 38.9547C85.8105 38.9547 89.872 35.9206 93.2471 35.7808Z" fill="#29256A"/>
</g>
<path d="M71.5671 40.3813L57.4922 49.987C57.4922 49.987 59.2008 75.6722 62.1278 84.4669C62.1278 84.4669 61.6937 136.858 60.7133 143.695C60.7133 143.695 67.7998 149.638 76.1887 150.015C90.6837 150.672 99.1287 147.121 103.092 141.5C103.092 141.5 102.882 94.2684 103.47 85.963C104.058 77.6576 104.507 73.3372 104.507 73.3372C104.507 73.3372 104.563 65.0458 103.092 57.789C101.622 50.5323 97.8823 38.0602 91.9302 35.2079C85.9781 32.3415 71.5391 40.3953 71.5391 40.3953L71.5671 40.3813Z" fill="url(#paint1_linear_340_2386)" stroke="#29256A" stroke-width="0.5" stroke-linecap="round" stroke-linejoin="round"/>
<g opacity="0.15">
<path d="M56.6387 50.3785L60.2239 50.3086H60.8961L63.249 52.9792C63.249 52.9792 65.6018 61.4803 69.047 84.4809C69.047 84.4809 66.19 109.956 64.6355 122.317C61.1342 119.632 60.6441 116.975 60.6441 116.975C61.1202 105.216 62.1426 84.4809 62.1426 84.4809C59.2016 75.6862 56.6387 50.3785 56.6387 50.3785V50.3785Z" fill="#29256A"/>
</g>
<path d="M61.4836 98.0576C65.7691 100.63 74.158 103.273 85.5159 103.623C94.7872 103.916 100.417 99.4139 103.232 96.4497C103.302 96.7014 103.33 96.7853 103.386 96.9391C103.386 96.9391 103.232 101.749 102.798 103.623C98.8626 106.629 93.0085 109.621 85.2638 109.621C84.9557 109.621 84.6476 109.621 84.3255 109.607C73.8639 109.285 68.1919 106.237 63.1361 103.706C62.8 102.238 61.3855 99.7914 61.1895 98.3093C61.1895 98.3093 61.3155 98.2115 61.4976 98.0576H61.4836Z" fill="#29256A" stroke="#29256A" stroke-width="0.5" stroke-linecap="round" stroke-linejoin="round"/>
<path d="M61.1758 98.2952C65.4613 100.868 73.6962 104.28 85.0682 104.629C94.3394 104.923 100.572 99.9032 103.387 96.939C104.283 99.6934 103.891 101.721 103.387 103.888C99.4512 106.894 93.5971 109.886 85.8524 109.886C85.5443 109.886 85.2362 109.886 84.9141 109.872C74.4525 109.551 65.9655 106.81 60.9097 104.266C60.4756 102.364 60.4476 100.281 61.1898 98.2952H61.1758Z" fill="url(#paint2_linear_340_2386)" stroke="#29256A" stroke-width="0.5" stroke-linecap="round" stroke-linejoin="round"/>
<path d="M98.4288 99.1066C98.0927 98.9108 97.6305 98.9388 97.1263 99.2324L92.1826 102.085C91.1603 102.672 90.334 104.112 90.334 105.273V110.935C90.348 111.509 90.5581 111.928 90.8942 112.124L91.8185 112.655C91.4824 112.46 91.2723 112.054 91.2723 111.467V105.804C91.2583 104.644 92.0846 103.203 93.1069 102.616L98.0507 99.7638C98.5548 99.4701 99.017 99.4422 99.3531 99.6379L98.4288 99.1066V99.1066Z" fill="#29256A" stroke="#29256A" stroke-width="0.5" stroke-linecap="round" stroke-linejoin="round"/>
<path d="M93.1201 102.616C92.0978 103.203 91.2715 104.644 91.2715 105.804V111.467C91.2855 112.627 92.1258 113.117 93.1481 112.53L98.0919 109.677C99.1002 109.09 99.9405 107.65 99.9265 106.489V100.826C99.9125 99.6659 99.0722 99.1766 98.0638 99.7638L93.1201 102.616V102.616Z" fill="url(#paint3_linear_340_2386)" stroke="#29256A" stroke-width="0.5" stroke-linecap="round" stroke-linejoin="round"/>
<path d="M94.9569 19.7156V37.6966L93.7805 41.6676C93.7805 41.6676 90.0272 31.4606 76.3164 34.4108L77.2267 13.927L91.9739 16.0803L94.9569 19.7296V19.7156Z" fill="#CDE1F8" stroke="#29256A" stroke-width="0.5" stroke-linecap="round" stroke-linejoin="round"/>
<path d="M81.2728 44.7301L79.4662 49.3722C79.4662 49.3722 79.4242 52.0568 75.8529 50.7424C72.2817 49.4421 65.3633 41.4024 65.3633 41.4024L70.0409 32.9292L82.0851 41.696L81.2868 44.7441L81.2728 44.7301Z" fill="#E8B5A7" stroke="#29256A" stroke-width="0.5" stroke-linecap="round" stroke-linejoin="round"/>
<g style="mix-blend-mode:darken">
<path d="M72.9537 38.7459L74.7323 36.355L82.0708 41.6962L81.2726 44.7443L79.4659 49.3863C79.4659 49.3863 79.4659 49.7778 79.2558 50.1833C71.7212 48.3237 72.9677 38.7599 72.9677 38.7599L72.9537 38.7459Z" fill="#E8B5A7"/>
</g>
<path d="M91.4531 27.4476C91.4531 27.4476 91.7892 33.1523 91.4531 35.5852C91.117 38.0181 89.6605 41.5975 89.6185 42.758C89.5765 43.9186 89.2544 45.6523 88.162 46.0858C87.0556 46.5192 82.56 46.5472 79.2689 44.5897C75.9918 42.6322 72.9807 39.5002 72.1824 38.102C71.3842 36.7178 68.4851 32.9006 67.8549 30.0483C67.2247 27.1959 67.5188 21.0158 71.1881 19.4778C74.8574 17.9258 82.8401 17.2546 86.8035 21.0298C90.7669 24.805 90.8089 26.0494 91.4531 27.4476V27.4476Z" fill="#FFD8CC" stroke="#29256A" stroke-width="0.5" stroke-linecap="round" stroke-linejoin="round"/>
<path d="M82.0703 27.9232C82.0703 27.9232 88.7506 28.4405 90.2352 28.1469C92.8821 27.6016 94.1145 24.5674 93.7224 21.5613C93.3302 18.5551 90.4592 15.0736 88.8207 14.0249C87.1821 12.9763 82.3644 10.6972 78.9192 10.795C75.474 10.9069 70.0681 12.6127 67.7853 15.1435C65.3625 17.842 64.8443 19.9533 64.4802 22.8896C64.1161 25.8258 65.6706 32.1597 66.4409 33.0966C67.1971 34.0334 71.8467 37.5289 71.8467 37.5289L74.7878 38.9271C74.7878 38.9271 74.3536 34.0334 74.5357 31.8661C74.7178 29.6989 80.1516 31.6704 82.0843 27.9232H82.0703Z" fill="#29256A" stroke="#29256A" stroke-width="0.5" stroke-linecap="round" stroke-linejoin="round"/>
<path d="M72.4924 38.5913C72.4924 38.5913 72.0022 33.9911 69.6634 32.2853C68.2209 31.2227 67.7587 32.3133 67.5907 32.6768C67.4226 33.0404 67.0865 35.4593 68.9772 36.8016C70.8678 38.1438 72.5064 38.5913 72.5064 38.5913H72.4924Z" fill="#E8B5A7" stroke="#29256A" stroke-width="0.5" stroke-linecap="round" stroke-linejoin="round"/>
<path d="M63.502 40.3952L63.9501 45.7644C63.9501 45.7644 69.8322 52.4758 79.4395 52.322C96.7215 52.0563 95.4611 42.2549 95.8812 38.4377L94.3967 40.4931L91.7778 43.5133L88.5427 45.7364L83.739 46.9808L76.9746 47.1906L63.502 40.4092V40.3952Z" fill="url(#paint4_linear_340_2386)" stroke="#29256A" stroke-width="0.5" stroke-linecap="round" stroke-linejoin="round"/>
<path d="M63.6429 46.1278C63.7549 46.0019 63.895 45.1071 63.895 45.1071C63.951 45.177 70.0431 51.8605 79.1183 51.8605C79.2163 51.8605 79.3144 51.8605 79.4124 51.8605C93.0812 51.6507 94.6217 45.3867 95.7141 40.479C95.8121 40.8146 95.9241 41.4857 96.0222 42.031C95.434 46.5892 92.9971 52.5875 79.4264 52.7973C79.3144 52.7973 79.2163 52.7973 79.1043 52.7973C69.9451 52.7973 64.2591 46.8269 63.6289 46.1418L63.6429 46.1278Z" fill="#1C3B47" stroke="#29256A" stroke-width="0.5" stroke-linecap="round" stroke-linejoin="round"/>
<path d="M64.385 32.6769L63.5027 40.3951C63.5027 40.3951 66.8779 46.5752 77.2275 47.5679C87.5771 48.5467 94.4675 43.569 95.882 38.4376V22.2183C95.882 20.2888 95.2658 18.3872 94.0613 16.8631C91.6385 13.829 86.5827 8.36201 76.3872 9.06112C56.9624 10.4174 64.385 32.663 64.385 32.663V32.6769ZM71.1494 29.1674C71.9897 26.6227 79.8184 20.0651 87.6611 18.7787C94.6355 17.6461 94.3274 24.1199 94.3274 24.1199L94.3835 37.5148C94.3835 37.5148 94.3835 46.701 80.7847 46.701C71.4295 46.701 70.6732 41.1221 70.6732 41.1221C70.6732 41.1221 70.2951 31.6982 71.1494 29.1534V29.1674Z" fill="url(#paint5_linear_340_2386)" stroke="#29256A" stroke-width="0.5" stroke-linecap="round" stroke-linejoin="round"/>
<g opacity="0.3">
<path d="M87.0586 19.827C82.563 20.5541 78.0955 23.2666 75.3505 25.6715C73.4739 27.3214 73.4879 30.2297 75.2805 31.9635C76.765 33.4037 78.8798 34.5502 81.8068 34.3824C87.4087 34.0748 92.6746 32.6906 92.8846 27.8667V24.4831C92.8846 24.4831 93.1367 18.8343 87.0586 19.827V19.827Z" fill="#CADDFF"/>
</g>
<g opacity="0.15">
<path d="M76.3871 9.06105C77.8156 8.96318 79.132 8.99114 80.3645 9.11698C52.5928 10.1097 66.6537 35.711 66.6537 35.711L67.0879 44.5897C64.511 42.758 63.5026 40.395 63.5026 40.395L63.0825 32.2015C63.0825 32.2015 56.9623 10.4173 76.3871 9.06105Z" fill="#29256A"/>
</g>
<path d="M57.4941 49.9871C56.2617 50.1409 53.6848 52.1403 51.6261 58.4463C49.5674 64.7522 45.744 78.986 45.0298 86.3546C44.9738 86.8859 45.0018 87.3753 45.0718 87.8228C45.3799 94.0308 56.4158 117.87 57.7042 119.017C59.1187 120.289 65.5609 114.151 65.5609 112.599C65.5609 111.047 59.2307 91.3043 58.3204 88.0744C60.8413 82.5934 67.4796 71.3238 66.3872 63.1862C64.5246 49.1342 61.7516 49.4418 57.4941 49.9871V49.9871Z" fill="url(#paint6_linear_340_2386)" stroke="#29256A" stroke-width="0.5" stroke-linecap="round" stroke-linejoin="round"/>
<path d="M166.326 77.512L194.56 93.8095L211.217 76.0058L190.559 64.4177L166.326 77.512Z" fill="url(#paint7_linear_340_2386)" stroke="#29256A" stroke-width="0.5" stroke-linecap="round" stroke-linejoin="round"/>
<path d="M169.934 78.6584L194.38 64.5413L192.593 60.821L169.934 52.5486L166.359 64.0131L167.416 70.4646L169.934 78.6584Z" fill="url(#paint8_linear_340_2386)" stroke="#29256A" stroke-width="0.5" stroke-linecap="round" stroke-linejoin="round"/>
<path opacity="0.3" d="M169.934 78.6584L194.38 64.5413L192.593 60.821L169.934 52.5486L166.359 64.0131L167.416 70.4646L169.934 78.6584Z" fill="#29256A" stroke="#29256A" stroke-width="0.5" stroke-linecap="round" stroke-linejoin="round"/>
<path d="M160.48 59.7981V97.6309L202.697 121.999V84.1657L194.469 60.0903L168.719 45.2202L160.48 59.7869V59.7981ZM170.09 54.1895L193.098 67.4748V91.9436L170.09 78.6583V54.1782V54.1895Z" fill="#DAE5F8" stroke="#29256A" stroke-width="0.5" stroke-linecap="round" stroke-linejoin="round"/>
<path d="M194.469 60.0903L229.492 39.8701L203.73 25L168.719 45.2202L194.469 60.0903Z" fill="white" stroke="#29256A" stroke-width="0.5" stroke-linecap="round" stroke-linejoin="round"/>
<path d="M202.696 84.1657L237.73 63.9343L229.492 39.8701L194.469 60.0903L202.696 84.1657Z" fill="#D1DBED" stroke="#29256A" stroke-width="0.5" stroke-linecap="round" stroke-linejoin="round"/>
<path d="M202.695 121.998L237.729 101.767V63.9341L202.695 84.1655V121.998Z" fill="#B4CAED" stroke="#29256A" stroke-width="0.5" stroke-linecap="round" stroke-linejoin="round"/>
<path d="M8.02451 170.586L161.264 81.9219C162.823 81.0205 164.251 80.9877 165.335 81.6761L167.157 82.6266C166.123 82.1022 164.793 82.2005 163.349 83.02L10.1093 171.684C6.77693 173.601 4.06836 178.764 4.06836 183.205C4.06836 185.713 4.93839 184.451 6.30088 185.139V184.516L5.08613 186.123C3.72364 185.434 2 184.631 2 182.107C2 177.666 4.70857 172.503 8.04093 170.586H8.02451Z" fill="#29256A" stroke="#29256A" stroke-width="0.5" stroke-linecap="round" stroke-linejoin="round"/>
<path d="M10.1093 184.746L163.349 96.0824C166.681 94.1649 169.389 92.018 169.389 87.5602C169.389 83.1188 166.681 81.0702 163.349 83.0041L10.1093 171.684C6.77693 173.602 4.06836 178.764 4.06836 183.206C4.06836 187.647 6.77693 186.68 10.1093 184.746Z" fill="#B4CAED" stroke="#29256A" stroke-width="0.5" stroke-linecap="round" stroke-linejoin="round"/>
<path d="M160.428 89.7889C160.428 90.7067 160.74 91.3459 161.249 91.6573C161.249 91.6573 186.545 106.243 186.561 106.26C187.087 106.555 186.758 105.883 187.563 105.408C189.188 104.473 190.517 102.195 190.517 100.327C190.517 99.4092 191.371 99.3928 190.846 99.0814C190.846 99.0814 165.451 84.4789 165.434 84.4625C164.909 84.1675 164.17 84.2331 163.383 84.692C161.757 85.6261 160.428 87.9042 160.428 89.7725V89.7889Z" fill="url(#paint9_linear_340_2386)" stroke="#29256A" stroke-width="0.5" stroke-linecap="round" stroke-linejoin="round"/>
<path d="M151.875 94.755C151.875 95.6728 152.187 96.3119 152.696 96.6233C152.696 96.6233 177.992 111.209 178.009 111.226C178.534 111.521 178.206 110.849 179.01 110.374C180.635 109.439 181.965 107.161 181.965 105.293C181.965 104.375 182.818 104.359 182.293 104.047C182.293 104.047 156.898 89.445 156.882 89.4286C156.356 89.1336 155.618 89.1991 154.83 89.658C153.205 90.5922 151.875 92.8703 151.875 94.7386V94.755Z" fill="url(#paint10_linear_340_2386)" stroke="#29256A" stroke-width="0.5" stroke-linecap="round" stroke-linejoin="round"/>
<path d="M143.305 99.7045C143.305 100.622 143.617 101.261 144.125 101.573C144.125 101.573 169.422 116.159 169.438 116.175C169.964 116.47 169.635 115.798 170.44 115.323C172.065 114.389 173.394 112.111 173.394 110.243C173.394 109.325 174.248 109.308 173.723 108.997C173.723 108.997 148.328 94.3944 148.311 94.3781C147.786 94.0831 147.047 94.1486 146.259 94.6075C144.634 95.5417 143.305 97.8197 143.305 99.6881V99.7045Z" fill="url(#paint11_linear_340_2386)" stroke="#29256A" stroke-width="0.5" stroke-linecap="round" stroke-linejoin="round"/>
<path d="M134.754 104.654C134.754 105.571 135.066 106.211 135.575 106.522C135.575 106.522 160.871 121.108 160.887 121.125C161.413 121.42 161.084 120.748 161.889 120.272C163.514 119.338 164.844 117.06 164.844 115.192C164.844 114.274 165.697 114.258 165.172 113.946C165.172 113.946 139.777 99.3437 139.761 99.3273C139.235 99.0323 138.497 99.0978 137.709 99.5567C136.084 100.491 134.754 102.769 134.754 104.637V104.654Z" fill="url(#paint12_linear_340_2386)" stroke="#29256A" stroke-width="0.5" stroke-linecap="round" stroke-linejoin="round"/>
<path d="M126.186 109.62C126.186 110.538 126.497 111.177 127.006 111.488C127.006 111.488 152.303 126.074 152.319 126.091C152.844 126.386 152.516 125.714 153.32 125.238C154.946 124.304 156.275 122.026 156.275 120.158C156.275 119.24 157.129 119.224 156.604 118.912C156.604 118.912 131.209 104.31 131.192 104.293C130.667 103.998 129.928 104.064 129.14 104.523C127.515 105.457 126.186 107.735 126.186 109.603V109.62Z" fill="url(#paint13_linear_340_2386)" stroke="#29256A" stroke-width="0.5" stroke-linecap="round" stroke-linejoin="round"/>
<path d="M117.633 114.569C117.633 115.487 117.945 116.126 118.454 116.437C118.454 116.437 143.75 131.023 143.766 131.04C144.292 131.335 143.963 130.663 144.768 130.188C146.393 129.253 147.723 126.975 147.723 125.107C147.723 124.189 148.576 124.173 148.051 123.861C148.051 123.861 122.656 109.259 122.64 109.243C122.114 108.948 121.376 109.013 120.588 109.472C118.962 110.406 117.633 112.684 117.633 114.553V114.569Z" fill="url(#paint14_linear_340_2386)" stroke="#29256A" stroke-width="0.5" stroke-linecap="round" stroke-linejoin="round"/>
<path d="M109.078 119.535C109.078 120.453 109.39 121.092 109.899 121.403C109.899 121.403 135.195 135.989 135.212 136.006C135.737 136.301 135.409 135.629 136.213 135.154C137.838 134.219 139.168 131.941 139.168 130.073C139.168 129.155 140.021 129.139 139.496 128.828C139.496 128.828 114.101 114.225 114.085 114.209C113.56 113.914 112.821 113.979 112.033 114.438C110.408 115.372 109.078 117.65 109.078 119.519V119.535Z" fill="url(#paint15_linear_340_2386)" stroke="#29256A" stroke-width="0.5" stroke-linecap="round" stroke-linejoin="round"/>
<path d="M100.512 124.484C100.512 125.402 100.824 126.041 101.332 126.353C101.332 126.353 126.629 140.939 126.645 140.955C127.171 141.25 126.842 140.578 127.647 140.103C129.272 139.169 130.601 136.891 130.601 135.023C130.601 134.105 131.455 134.088 130.93 133.777C130.93 133.777 105.535 119.174 105.518 119.158C104.993 118.863 104.254 118.929 103.467 119.388C101.841 120.322 100.512 122.6 100.512 124.468V124.484Z" fill="url(#paint16_linear_340_2386)" stroke="#29256A" stroke-width="0.5" stroke-linecap="round" stroke-linejoin="round"/>
<path d="M91.959 129.434C91.959 130.352 92.2709 130.991 92.7798 131.302C92.7798 131.302 118.076 145.888 118.093 145.905C118.618 146.2 118.29 145.528 119.094 145.053C120.719 144.118 122.049 141.84 122.049 139.972C122.049 139.054 122.902 139.038 122.377 138.726C122.377 138.726 96.9821 124.124 96.9657 124.108C96.4404 123.813 95.7017 123.878 94.9138 124.337C93.2886 125.271 91.959 127.549 91.959 129.418V129.434Z" fill="url(#paint17_linear_340_2386)" stroke="#29256A" stroke-width="0.5" stroke-linecap="round" stroke-linejoin="round"/>
<path d="M83.4043 134.4C83.4043 135.317 83.7162 135.956 84.2251 136.268C84.2251 136.268 109.521 150.854 109.538 150.87C110.063 151.165 109.735 150.493 110.539 150.018C112.164 149.084 113.494 146.806 113.494 144.938C113.494 144.02 114.348 144.003 113.822 143.692C113.822 143.692 88.4275 129.09 88.411 129.073C87.8857 128.778 87.147 128.844 86.3591 129.303C84.7339 130.237 83.4043 132.515 83.4043 134.383V134.4Z" fill="url(#paint18_linear_340_2386)" stroke="#29256A" stroke-width="0.5" stroke-linecap="round" stroke-linejoin="round"/>
<path d="M74.8359 139.349C74.8359 140.267 75.1478 140.906 75.6567 141.217C75.6567 141.217 100.953 155.803 100.97 155.82C101.495 156.115 101.166 155.443 101.971 154.968C103.596 154.033 104.926 151.755 104.926 149.887C104.926 148.969 105.779 148.953 105.254 148.641C105.254 148.641 79.8591 134.039 79.8427 134.023C79.3174 133.728 78.5787 133.793 77.7907 134.252C76.1656 135.186 74.8359 137.464 74.8359 139.333V139.349Z" fill="url(#paint19_linear_340_2386)" stroke="#29256A" stroke-width="0.5" stroke-linecap="round" stroke-linejoin="round"/>
<path d="M66.2852 144.299C66.2852 145.216 66.5971 145.856 67.1059 146.167C67.1059 146.167 92.4023 160.753 92.4187 160.77C92.944 161.065 92.6157 160.393 93.4201 159.917C95.0452 158.983 96.3749 156.705 96.3749 154.837C96.3749 153.919 97.2285 153.903 96.7032 153.591C96.7032 153.591 71.3083 138.989 71.2919 138.972C70.7666 138.677 70.0279 138.743 69.2399 139.202C67.6148 140.136 66.2852 142.414 66.2852 144.282V144.299Z" fill="url(#paint20_linear_340_2386)" stroke="#29256A" stroke-width="0.5" stroke-linecap="round" stroke-linejoin="round"/>
<path d="M57.7305 149.264C57.7305 150.182 58.0424 150.821 58.5512 151.132C58.5512 151.132 83.8476 165.718 83.864 165.735C84.3893 166.03 84.061 165.358 84.8654 164.883C86.4905 163.948 87.8202 161.67 87.8202 159.802C87.8202 158.884 88.6738 158.868 88.1485 158.557C88.1485 158.557 62.7536 143.954 62.7372 143.938C62.2119 143.643 61.4732 143.708 60.6853 144.167C59.0601 145.101 57.7305 147.379 57.7305 149.248V149.264Z" fill="url(#paint21_linear_340_2386)" stroke="#29256A" stroke-width="0.5" stroke-linecap="round" stroke-linejoin="round"/>
<path d="M49.1621 154.214C49.1621 155.132 49.474 155.771 49.9829 156.082C49.9829 156.082 75.2793 170.668 75.2957 170.685C75.821 170.98 75.4927 170.308 76.297 169.833C77.9222 168.898 79.2518 166.62 79.2518 164.752C79.2518 163.834 80.1054 163.818 79.5801 163.506C79.5801 163.506 54.1853 148.904 54.1688 148.888C53.6435 148.593 52.9048 148.658 52.1169 149.117C50.4918 150.051 49.1621 152.329 49.1621 154.198V154.214Z" fill="url(#paint22_linear_340_2386)" stroke="#29256A" stroke-width="0.5" stroke-linecap="round" stroke-linejoin="round"/>
<path d="M40.6094 159.163C40.6094 160.081 40.9213 160.72 41.4302 161.032C41.4302 161.032 66.7265 175.618 66.7429 175.634C67.2682 175.929 66.9399 175.257 67.7443 174.782C69.3694 173.848 70.6991 171.57 70.6991 169.702C70.6991 168.784 71.5527 168.767 71.0274 168.456C71.0274 168.456 45.6325 153.853 45.6161 153.837C45.0908 153.542 44.3521 153.608 43.5642 154.066C41.939 155.001 40.6094 157.279 40.6094 159.147V159.163Z" fill="url(#paint23_linear_340_2386)" stroke="#29256A" stroke-width="0.5" stroke-linecap="round" stroke-linejoin="round"/>
<path d="M32.0566 164.129C32.0566 165.047 32.3685 165.686 32.8774 165.998C32.8774 165.998 58.1738 180.584 58.1902 180.6C58.7155 180.895 58.3872 180.223 59.1916 179.748C60.8167 178.814 62.1464 176.536 62.1464 174.667C62.1464 173.75 63 173.733 62.4747 173.422C62.4747 173.422 37.0798 158.819 37.0634 158.803C36.5381 158.508 35.7994 158.573 35.0114 159.032C33.3863 159.966 32.0566 162.245 32.0566 164.113V164.129Z" fill="url(#paint24_linear_340_2386)" stroke="#29256A" stroke-width="0.5" stroke-linecap="round" stroke-linejoin="round"/>
<path d="M23.4883 169.079C23.4883 169.996 23.8002 170.636 24.3091 170.947C24.3091 170.947 49.6054 185.533 49.6219 185.55C50.1472 185.845 49.8188 185.173 50.6232 184.697C52.2483 183.763 53.578 181.485 53.578 179.617C53.578 178.699 54.4316 178.683 53.9063 178.371C53.9063 178.371 28.5114 163.769 28.495 163.752C27.9697 163.457 27.231 163.523 26.4431 163.982C24.8179 164.916 23.4883 167.194 23.4883 169.062V169.079Z" fill="url(#paint25_linear_340_2386)" stroke="#29256A" stroke-width="0.5" stroke-linecap="round" stroke-linejoin="round"/>
<path d="M14.9375 174.045C14.9375 174.963 15.2494 175.602 15.7583 175.913C15.7583 175.913 41.0547 190.499 41.0711 190.516C41.5964 190.811 41.2681 190.139 42.0724 189.663C43.6976 188.729 45.0272 186.451 45.0272 184.583C45.0272 183.665 45.8808 183.649 45.3555 183.337C45.3555 183.337 19.9607 168.735 19.9442 168.718C19.4189 168.423 18.6802 168.489 17.8923 168.948C16.2672 169.882 14.9375 172.16 14.9375 174.028V174.045Z" fill="url(#paint26_linear_340_2386)" stroke="#29256A" stroke-width="0.5" stroke-linecap="round" stroke-linejoin="round"/>
<path d="M6.38281 178.994C6.38281 179.912 6.69471 180.551 7.20359 180.862C7.20359 180.862 32.5 195.448 32.5164 195.465C33.0417 195.76 32.7134 195.088 33.5177 194.612C35.1429 193.678 36.4725 191.4 36.4725 189.532C36.4725 188.614 37.3261 188.598 36.8008 188.286C36.8008 188.286 11.406 173.684 11.3896 173.667C10.8643 173.372 10.1256 173.438 9.33761 173.897C7.71247 174.831 6.38281 177.109 6.38281 178.977V178.994Z" fill="url(#paint27_linear_340_2386)" stroke="#29256A" stroke-width="0.5" stroke-linecap="round" stroke-linejoin="round"/>
<path d="M32.7784 185.254L186.018 96.5896C187.577 95.6882 189.005 95.6555 190.089 96.3438L191.911 97.2943C190.877 96.7699 189.547 96.8682 188.102 97.6877L34.8632 186.352C31.5308 188.269 28.8223 193.432 28.8223 197.873C28.8223 200.381 29.6923 199.119 31.0548 199.807V199.184L29.84 200.79C28.4775 200.102 26.7539 199.299 26.7539 196.775C26.7539 192.334 29.4625 187.171 32.7948 185.254H32.7784Z" fill="#29256A" stroke="#29256A" stroke-width="0.5" stroke-linecap="round" stroke-linejoin="round"/>
<path d="M34.6444 199.435L187.884 110.771C191.216 108.854 193.925 106.707 193.925 102.249C193.925 97.8075 191.216 95.7589 187.884 97.6928L34.6444 186.357C31.3121 188.274 28.6035 193.437 28.6035 197.878C28.6035 202.32 31.3121 201.353 34.6444 199.419V199.435Z" fill="#B4CAED" stroke="#29256A" stroke-width="0.5" stroke-linecap="round" stroke-linejoin="round"/>
<path d="M31.9629 164.525V181.519L47.8679 172.26V155.246L31.9629 164.525Z" fill="url(#paint28_linear_340_2386)" fill-opacity="0.9"/>
<path d="M31.9608 164.525V181.52L16 172.223V155.228L31.9608 164.525Z" fill="url(#paint29_linear_340_2386)" fill-opacity="0.9"/>
<path d="M16 155.228L31.9608 164.525L47.8658 155.247L31.8863 145.969L16 155.228Z" fill="url(#paint30_linear_340_2386)" fill-opacity="0.9"/>
<path d="M71.668 141.191V158.204L87.5729 148.926V131.931L71.668 141.191Z" fill="url(#paint31_linear_340_2386)" fill-opacity="0.9"/>
<path d="M71.6845 141.19V158.204L55.7051 148.907V131.912L71.6845 141.19Z" fill="url(#paint32_linear_340_2386)" fill-opacity="0.9"/>
<path d="M55.7051 131.912L71.6845 141.19L87.5709 131.931L71.5914 122.634L55.7051 131.912Z" fill="url(#paint33_linear_340_2386)" fill-opacity="0.9"/>
<path d="M111.377 117.873V134.886L127.301 125.608V108.613L111.377 117.873Z" fill="url(#paint34_linear_340_2386)" fill-opacity="0.9"/>
<path d="M111.394 117.873V134.886L95.4141 125.59V108.595L111.394 117.873Z" fill="url(#paint35_linear_340_2386)" fill-opacity="0.9"/>
<path d="M95.4141 108.595L111.394 117.873L127.299 108.613L111.3 99.3164L95.4141 108.595Z" fill="url(#paint36_linear_340_2386)" fill-opacity="0.9"/>
<path d="M150.689 94.5569V111.552L166.613 102.292V85.2971L150.689 94.5569Z" fill="url(#paint37_linear_340_2386)" fill-opacity="0.9"/>
<path d="M150.707 94.5564V111.551L134.746 102.273V85.2781L150.707 94.5564Z" fill="url(#paint38_linear_340_2386)" fill-opacity="0.9"/>
<path d="M134.746 85.2783L150.707 94.5567L166.612 85.2969L150.632 76L134.746 85.2783Z" fill="url(#paint39_linear_340_2386)" fill-opacity="0.9"/>
<path d="M152.432 94.9823C151.693 94.0038 150.842 92.4815 149.907 91.6796C149.907 91.6796 152.251 88.5128 151.442 86.977C151.442 86.977 148.889 84.0141 148.234 83.7422C147.369 83.3753 140.506 82.0705 137.522 81.187C132.57 79.7192 127.967 87.3168 130.938 89.138C132.486 89.804 133.03 90.171 134.035 91.068C134.732 91.6932 135.262 92.4679 135.931 93.1339C137.061 94.262 139.642 95.9609 141.246 96.2192C141.915 96.3279 142.668 96.124 142.864 95.4852C143.212 94.2892 139.293 92.5631 140.088 91.6524C141.636 91.0952 145.988 93.2019 145.988 93.2019C145.988 93.2019 148.513 94.9416 150.047 97.157C151.428 99.1549 154.176 97.2657 152.446 94.9823H152.432Z" fill="#29256A" stroke="#29256A" stroke-width="0.5" stroke-linecap="round" stroke-linejoin="round"/>
<path d="M59.7747 112.152C62.1555 110.991 62.2395 111.047 62.9118 110.963C63.584 110.879 69.298 113.466 69.7041 113.704C70.1103 113.941 73.0653 116.053 73.5135 116.36C73.9616 116.668 76.1044 118.024 75.5862 118.779C75.068 119.534 73.1633 120.024 71.4968 118.919C69.8302 117.814 68.8358 117.073 68.6258 116.975C68.4157 116.878 67.4914 118.29 67.7155 118.807C67.9395 119.324 70.2923 122.638 70.6425 122.918C70.9926 123.198 74.1017 126.204 74.3117 127.21C74.5218 128.217 73.8216 128.623 73.0653 128.595C72.3091 128.567 68.7378 125.519 68.7378 125.519C68.7378 125.519 73.1073 129.909 73.0653 130.594C73.0233 131.279 72.3791 132.006 71.6788 131.741C70.9786 131.475 70.6705 131.181 70.6705 131.181C70.6705 131.181 70.2503 131.769 69.4241 131.601C68.5978 131.433 67.5194 130.049 67.5194 130.049C67.5194 130.049 67.0292 130.356 65.7828 129.392C64.5364 128.427 62.6317 126.078 61.7354 124.582C60.8391 123.1 57.4219 118.15 57.4219 116.892C57.4219 115.633 58.3602 112.837 59.7747 112.138V112.152Z" fill="#29256A" stroke="#29256A" stroke-width="0.5" stroke-linecap="round" stroke-linejoin="round"/>
<path d="M224 42.5L199 28L204 25L229.5 40L238 64V101L233.5 104V66.5L224 42.5Z" fill="#29256A" fill-opacity="0.1"/>
<path d="M199 27.5L224 43L233.5 66V104" stroke="#29256A" stroke-width="0.5" stroke-linecap="round" stroke-linejoin="round"/>
<defs>
<linearGradient id="paint0_linear_340_2386" x1="85.8105" y1="61.4381" x2="135.402" y2="61.4381" gradientUnits="userSpaceOnUse">
<stop stop-color="#DDE7FF"/>
<stop offset="1" stop-color="#9FD0E3"/>
</linearGradient>
<linearGradient id="paint1_linear_340_2386" x1="57.4033" y1="61.2645" x2="104.61" y2="101.165" gradientUnits="userSpaceOnUse">
<stop stop-color="#DDE7FF"/>
<stop offset="1" stop-color="#9FD0E3"/>
</linearGradient>
<linearGradient id="paint2_linear_340_2386" x1="60.5876" y1="103.413" x2="103.919" y2="103.413" gradientUnits="userSpaceOnUse">
<stop stop-color="#A05AC1"/>
<stop offset="1" stop-color="#142387"/>
</linearGradient>
<linearGradient id="paint3_linear_340_2386" x1="91.2715" y1="106.154" x2="99.9265" y2="106.154" gradientUnits="userSpaceOnUse">
<stop stop-color="#A05AC1"/>
<stop offset="1" stop-color="#142387"/>
</linearGradient>
<linearGradient id="paint4_linear_340_2386" x1="63.502" y1="45.3729" x2="95.8812" y2="45.3729" gradientUnits="userSpaceOnUse">
<stop stop-color="#DDE7FF"/>
<stop offset="1" stop-color="#9FD0E3"/>
</linearGradient>
<linearGradient id="paint5_linear_340_2386" x1="62.9845" y1="28.3425" x2="92.2472" y2="40.4711" gradientUnits="userSpaceOnUse">
<stop stop-color="#DDE7FF"/>
<stop offset="1" stop-color="#9FD0E3"/>
</linearGradient>
<linearGradient id="paint6_linear_340_2386" x1="45.0406" y1="77.0003" x2="72.0159" y2="89.9259" gradientUnits="userSpaceOnUse">
<stop stop-color="#DDE7FF"/>
<stop offset="1" stop-color="#9FD0E3"/>
</linearGradient>
<linearGradient id="paint7_linear_340_2386" x1="166.326" y1="79.108" x2="211.217" y2="79.108" gradientUnits="userSpaceOnUse">
<stop stop-color="#5971FF"/>
<stop offset="1" stop-color="#15ABAB"/>
</linearGradient>
<linearGradient id="paint8_linear_340_2386" x1="166.359" y1="65.5979" x2="194.38" y2="65.5979" gradientUnits="userSpaceOnUse">
<stop stop-color="#5971FF"/>
<stop offset="1" stop-color="#15ABAB"/>
</linearGradient>
<linearGradient id="paint9_linear_340_2386" x1="190.598" y1="98.5292" x2="165.771" y2="79.5798" gradientUnits="userSpaceOnUse">
<stop stop-color="#5971FF"/>
<stop offset="1" stop-color="#15ABAB"/>
</linearGradient>
<linearGradient id="paint10_linear_340_2386" x1="182.045" y1="103.495" x2="157.218" y2="84.5458" gradientUnits="userSpaceOnUse">
<stop stop-color="#5971FF"/>
<stop offset="1" stop-color="#15ABAB"/>
</linearGradient>
<linearGradient id="paint11_linear_340_2386" x1="173.475" y1="108.445" x2="148.648" y2="89.4953" gradientUnits="userSpaceOnUse">
<stop stop-color="#5971FF"/>
<stop offset="1" stop-color="#15ABAB"/>
</linearGradient>
<linearGradient id="paint12_linear_340_2386" x1="164.924" y1="113.394" x2="140.097" y2="94.4445" gradientUnits="userSpaceOnUse">
<stop stop-color="#5971FF"/>
<stop offset="1" stop-color="#15ABAB"/>
</linearGradient>
<linearGradient id="paint13_linear_340_2386" x1="156.355" y1="118.36" x2="131.528" y2="99.4106" gradientUnits="userSpaceOnUse">
<stop stop-color="#5971FF"/>
<stop offset="1" stop-color="#15ABAB"/>
</linearGradient>
<linearGradient id="paint14_linear_340_2386" x1="147.803" y1="123.309" x2="122.976" y2="104.36" gradientUnits="userSpaceOnUse">
<stop stop-color="#5971FF"/>
<stop offset="1" stop-color="#15ABAB"/>
</linearGradient>
<linearGradient id="paint15_linear_340_2386" x1="139.248" y1="128.275" x2="114.421" y2="109.326" gradientUnits="userSpaceOnUse">
<stop stop-color="#5971FF"/>
<stop offset="1" stop-color="#15ABAB"/>
</linearGradient>
<linearGradient id="paint16_linear_340_2386" x1="130.682" y1="133.225" x2="105.855" y2="114.275" gradientUnits="userSpaceOnUse">
<stop stop-color="#5971FF"/>
<stop offset="1" stop-color="#15ABAB"/>
</linearGradient>
<linearGradient id="paint17_linear_340_2386" x1="122.129" y1="138.174" x2="97.3018" y2="119.225" gradientUnits="userSpaceOnUse">
<stop stop-color="#5971FF"/>
<stop offset="1" stop-color="#15ABAB"/>
</linearGradient>
<linearGradient id="paint18_linear_340_2386" x1="113.574" y1="143.14" x2="88.7471" y2="124.19" gradientUnits="userSpaceOnUse">
<stop stop-color="#5971FF"/>
<stop offset="1" stop-color="#15ABAB"/>
</linearGradient>
<linearGradient id="paint19_linear_340_2386" x1="105.006" y1="148.089" x2="80.1788" y2="129.14" gradientUnits="userSpaceOnUse">
<stop stop-color="#5971FF"/>
<stop offset="1" stop-color="#15ABAB"/>
</linearGradient>
<linearGradient id="paint20_linear_340_2386" x1="96.4551" y1="153.039" x2="71.628" y2="134.09" gradientUnits="userSpaceOnUse">
<stop stop-color="#5971FF"/>
<stop offset="1" stop-color="#15ABAB"/>
</linearGradient>
<linearGradient id="paint21_linear_340_2386" x1="87.9004" y1="158.004" x2="63.0733" y2="139.055" gradientUnits="userSpaceOnUse">
<stop stop-color="#5971FF"/>
<stop offset="1" stop-color="#15ABAB"/>
</linearGradient>
<linearGradient id="paint22_linear_340_2386" x1="79.332" y1="162.954" x2="54.505" y2="144.005" gradientUnits="userSpaceOnUse">
<stop stop-color="#5971FF"/>
<stop offset="1" stop-color="#15ABAB"/>
</linearGradient>
<linearGradient id="paint23_linear_340_2386" x1="70.7793" y1="167.904" x2="45.9522" y2="148.954" gradientUnits="userSpaceOnUse">
<stop stop-color="#5971FF"/>
<stop offset="1" stop-color="#15ABAB"/>
</linearGradient>
<linearGradient id="paint24_linear_340_2386" x1="62.2266" y1="172.869" x2="37.3995" y2="153.92" gradientUnits="userSpaceOnUse">
<stop stop-color="#5971FF"/>
<stop offset="1" stop-color="#15ABAB"/>
</linearGradient>
<linearGradient id="paint25_linear_340_2386" x1="53.6582" y1="177.819" x2="28.8311" y2="158.87" gradientUnits="userSpaceOnUse">
<stop stop-color="#5971FF"/>
<stop offset="1" stop-color="#15ABAB"/>
</linearGradient>
<linearGradient id="paint26_linear_340_2386" x1="45.1074" y1="182.785" x2="20.2803" y2="163.836" gradientUnits="userSpaceOnUse">
<stop stop-color="#5971FF"/>
<stop offset="1" stop-color="#15ABAB"/>
</linearGradient>
<linearGradient id="paint27_linear_340_2386" x1="36.5527" y1="187.734" x2="11.7257" y2="168.785" gradientUnits="userSpaceOnUse">
<stop stop-color="#5971FF"/>
<stop offset="1" stop-color="#15ABAB"/>
</linearGradient>
<linearGradient id="paint28_linear_340_2386" x1="32.449" y1="151.338" x2="50.1816" y2="158.869" gradientUnits="userSpaceOnUse">
<stop stop-color="#FF47A9"/>
<stop offset="1" stop-color="#703AC2"/>
</linearGradient>
<linearGradient id="paint29_linear_340_2386" x1="16.4878" y1="151.317" x2="34.2674" y2="158.889" gradientUnits="userSpaceOnUse">
<stop stop-color="#703AC2"/>
<stop offset="0.338542" stop-color="#0070EB"/>
<stop offset="0.661458" stop-color="#0297FB"/>
<stop offset="1" stop-color="#0AE2FF"/>
</linearGradient>
<linearGradient id="paint30_linear_340_2386" x1="16.974" y1="143.208" x2="34.0809" y2="163.818" gradientUnits="userSpaceOnUse">
<stop stop-color="#0AE2FF"/>
<stop offset="0.328125" stop-color="#0297FB"/>
<stop offset="0.645833" stop-color="#0070EB"/>
<stop offset="1" stop-color="#703AC2"/>
</linearGradient>
<linearGradient id="paint31_linear_340_2386" x1="72.1541" y1="128.023" x2="89.8867" y2="135.554" gradientUnits="userSpaceOnUse">
<stop stop-color="#FF47A9"/>
<stop offset="1" stop-color="#703AC2"/>
</linearGradient>
<linearGradient id="paint32_linear_340_2386" x1="56.1935" y1="128.001" x2="73.9875" y2="135.588" gradientUnits="userSpaceOnUse">
<stop stop-color="#703AC2"/>
<stop offset="0.338542" stop-color="#0070EB"/>
<stop offset="0.661458" stop-color="#0297FB"/>
<stop offset="1" stop-color="#0AE2FF"/>
</linearGradient>
<linearGradient id="paint33_linear_340_2386" x1="56.6791" y1="119.873" x2="73.786" y2="140.483" gradientUnits="userSpaceOnUse">
<stop stop-color="#0AE2FF"/>
<stop offset="0.328125" stop-color="#0297FB"/>
<stop offset="0.645833" stop-color="#0070EB"/>
<stop offset="1" stop-color="#703AC2"/>
</linearGradient>
<linearGradient id="paint34_linear_340_2386" x1="111.864" y1="104.705" x2="129.611" y2="112.251" gradientUnits="userSpaceOnUse">
<stop stop-color="#FF47A9"/>
<stop offset="1" stop-color="#703AC2"/>
</linearGradient>
<linearGradient id="paint35_linear_340_2386" x1="95.9025" y1="104.684" x2="113.696" y2="112.271" gradientUnits="userSpaceOnUse">
<stop stop-color="#703AC2"/>
<stop offset="0.338542" stop-color="#0070EB"/>
<stop offset="0.661458" stop-color="#0297FB"/>
<stop offset="1" stop-color="#0AE2FF"/>
</linearGradient>
<linearGradient id="paint36_linear_340_2386" x1="96.3886" y1="96.5559" x2="113.494" y2="117.175" gradientUnits="userSpaceOnUse">
<stop stop-color="#0AE2FF"/>
<stop offset="0.328125" stop-color="#0297FB"/>
<stop offset="0.645833" stop-color="#0070EB"/>
<stop offset="1" stop-color="#703AC2"/>
</linearGradient>
<linearGradient id="paint37_linear_340_2386" x1="151.176" y1="81.3915" x2="168.919" y2="88.9412" gradientUnits="userSpaceOnUse">
<stop stop-color="#FF47A9"/>
<stop offset="1" stop-color="#703AC2"/>
</linearGradient>
<linearGradient id="paint38_linear_340_2386" x1="135.234" y1="81.3697" x2="153.01" y2="88.9456" gradientUnits="userSpaceOnUse">
<stop stop-color="#703AC2"/>
<stop offset="0.338542" stop-color="#0070EB"/>
<stop offset="0.661458" stop-color="#0297FB"/>
<stop offset="1" stop-color="#0AE2FF"/>
</linearGradient>
<linearGradient id="paint39_linear_340_2386" x1="135.72" y1="73.2395" x2="152.827" y2="93.8488" gradientUnits="userSpaceOnUse">
<stop stop-color="#0AE2FF"/>
<stop offset="0.328125" stop-color="#0297FB"/>
<stop offset="0.645833" stop-color="#0070EB"/>
<stop offset="1" stop-color="#703AC2"/>
</linearGradient>
</defs>
</svg>
