<svg width="182" height="184" viewBox="0 0 182 184" fill="none" xmlns="http://www.w3.org/2000/svg">
<path d="M146.168 168.19L50.5824 112.974C46.8824 110.835 43.8828 105.103 43.8828 100.173V13.2177C43.8828 8.28257 46.8824 6.01551 50.5824 8.15424L146.168 63.371C149.868 65.5097 152.867 71.2415 152.867 76.1713V163.121C152.867 168.057 149.868 170.324 146.168 168.185V168.19Z" fill="url(#paint0_linear_353_8233)" stroke="#220E6E" stroke-width="0.75" stroke-linejoin="round"/>
<path d="M154.253 58.8314L58.6734 3.61464C57.2084 2.76984 55.8556 2.61478 54.7542 3.03718C54.6152 3.09065 46.5628 7.61407 46.4292 7.68893H46.4238C47.5627 7.13285 49.0117 7.23979 50.5944 8.14875L146.18 63.3655C149.88 65.5042 152.879 71.236 152.879 76.1658V163.116C152.879 166.196 151.708 168.233 149.933 168.816C150.077 168.821 150.259 168.768 150.521 168.618C150.607 168.57 158.82 163.897 158.9 163.838C160.172 162.945 160.964 161.116 160.964 158.576V71.6317C160.964 66.6966 157.964 60.9647 154.264 58.8314H154.253Z" fill="url(#paint1_linear_353_8233)" stroke="#220E6E" stroke-width="0.75" stroke-linejoin="round"/>
<path d="M127.187 95.8433C127.449 95.9938 127.631 96.3592 127.599 96.6709V96.7622C127.561 97.0739 127.337 97.2029 127.081 97.0524L121.11 93.5379C120.859 93.3874 120.678 93.022 120.699 92.6995V92.6136C120.736 92.3019 120.955 92.1836 121.212 92.3234L127.182 95.8379V95.8487L127.187 95.8433Z" fill="#C2A1D7"/>
<path d="M132.933 102.355C133.136 102.473 133.28 102.763 133.259 103L133.232 103.327C133.211 103.569 133.034 103.666 132.832 103.548L127.021 100.125C126.818 100.006 126.674 99.7161 126.695 99.4796L126.722 99.1518C126.744 98.91 126.92 98.8133 127.123 98.9315L132.933 102.355Z" fill="#BDC0FF"/>
<path d="M130.668 95.2254C130.877 95.3544 131.032 95.65 131.005 95.9079L130.978 96.182C130.957 96.4399 130.77 96.5367 130.562 96.4184L124.025 92.5653C123.817 92.4364 123.662 92.1408 123.689 91.8829L123.715 91.6088C123.737 91.3508 123.924 91.2541 124.132 91.3723L130.668 95.2254V95.2254Z" fill="#8AD4DE"/>
<path d="M130.029 91.5981C130.258 91.7271 130.429 92.0764 130.402 92.3504L130.386 92.5385C130.36 92.8126 130.157 92.9362 129.927 92.8072L125.041 89.9268C124.806 89.7871 124.64 89.4485 124.667 89.1745L124.683 88.9864C124.71 88.7015 124.913 88.5887 125.142 88.7177L130.029 91.5981Z" fill="#8AD4DE"/>
<path d="M128.09 84.8386C128.357 84.9945 128.555 85.3868 128.533 85.7253C128.507 86.0532 128.261 86.1982 127.994 86.037L125.479 84.5592C125.212 84.4034 125.009 83.9896 125.036 83.6618C125.062 83.334 125.308 83.1942 125.586 83.3608L128.101 84.8386H128.09V84.8386Z" fill="#BDC0FF"/>
<path d="M128.835 77.4573C129.102 77.6132 129.299 78.0162 129.278 78.344C129.251 78.6718 129.006 78.8169 128.739 78.6557L111.174 68.3163C110.907 68.1604 110.704 67.7466 110.731 67.4188C110.758 67.091 111.003 66.9513 111.281 67.1179L128.845 77.4573H128.835Z" fill="#8AD4DE"/>
<path d="M133.318 87.918C133.585 88.0738 133.782 88.4661 133.761 88.8047C133.734 89.1325 133.489 89.2776 133.222 89.1164L129.376 86.8539C129.109 86.6981 128.912 86.2951 128.933 85.9565C128.96 85.6287 129.206 85.489 129.473 85.6448L133.318 87.9072V87.918Z" fill="#8AD4DE"/>
<path d="M133.845 84.6773C134.112 84.8332 134.31 85.2255 134.288 85.564C134.261 85.8918 134.016 86.0316 133.749 85.8757L125.103 80.7866C124.836 80.6308 124.627 80.2277 124.66 79.8999C124.692 79.5721 124.932 79.4324 125.21 79.599L133.856 84.6881V84.6773H133.845Z" fill="#8AD4DE"/>
<path d="M131.505 123.109C131.772 123.265 131.97 123.668 131.948 124.006C131.922 124.334 131.676 124.474 131.409 124.318L127.564 122.055C127.297 121.9 127.099 121.507 127.121 121.169C127.147 120.841 127.393 120.696 127.66 120.857L131.505 123.119V123.109V123.109Z" fill="#BDC0FF"/>
<path d="M126.275 120.035C126.542 120.191 126.739 120.594 126.718 120.932C126.691 121.26 126.446 121.4 126.179 121.244L123.663 119.766C123.396 119.61 123.188 119.207 123.22 118.879C123.252 118.552 123.492 118.407 123.77 118.568L126.285 120.046V120.035H126.275Z" fill="#8AD4DE"/>
<path d="M132.02 119.868C132.287 120.024 132.484 120.416 132.463 120.755C132.436 121.083 132.191 121.228 131.924 121.067L123.278 115.977C123.011 115.822 122.808 115.408 122.834 115.08C122.861 114.752 123.107 114.612 123.384 114.779L132.03 119.868H132.02Z" fill="#8AD4DE"/>
<path d="M126.849 112.667C127.116 112.823 127.314 113.215 127.292 113.554C127.266 113.882 127.02 114.016 126.753 113.866L109.189 103.526C108.922 103.37 108.713 102.967 108.745 102.64C108.777 102.312 109.018 102.172 109.296 102.339L126.86 112.678V112.667H126.849Z" fill="#8AD4DE"/>
<path d="M114.146 109.341C114.381 109.48 114.552 109.83 114.531 110.104L114.515 110.27C114.488 110.56 114.285 110.679 114.039 110.539L102.632 103.822C102.397 103.682 102.227 103.333 102.248 103.053L102.264 102.887C102.291 102.602 102.504 102.489 102.739 102.629L114.146 109.346V109.341Z" fill="#8AD4DE"/>
<path d="M122.025 117.53C122.292 117.686 122.495 118.1 122.468 118.428C122.442 118.756 122.196 118.895 121.918 118.729L105.187 108.884C104.92 108.728 104.722 108.336 104.744 107.997C104.77 107.669 105.016 107.524 105.283 107.685L122.014 117.53H122.025V117.53Z" fill="#8AD4DE"/>
<path d="M121.668 113.774C121.903 113.914 122.069 114.253 122.042 114.527L122.026 114.704C121.999 114.989 121.796 115.112 121.561 114.973L115.404 111.34C115.169 111.2 115.003 110.862 115.03 110.577L115.046 110.399C115.073 110.125 115.276 110.002 115.505 110.131L121.663 113.763V113.774H121.668Z" fill="#BDC0FF"/>
<path d="M123.806 105.547C124.074 105.703 124.271 106.095 124.25 106.433C124.223 106.761 123.977 106.906 123.71 106.745L108.175 97.604C107.908 97.4482 107.711 97.0452 107.732 96.7066C107.759 96.3788 108.004 96.2444 108.271 96.3949L123.806 105.536V105.547V105.547Z" fill="#8AD4DE"/>
<path d="M132.478 110.657C132.745 110.819 132.943 111.206 132.921 111.544C132.895 111.872 132.649 112.017 132.382 111.856L125.386 107.734C125.119 107.578 124.922 107.175 124.943 106.837C124.97 106.509 125.215 106.369 125.482 106.525L132.478 110.647V110.657V110.657Z" fill="#C2A1D7"/>
<path d="M106.002 95.0567C106.269 95.2125 106.477 95.6156 106.445 95.9434C106.413 96.2712 106.173 96.4163 105.895 96.2551L96.3999 90.6662C96.1329 90.5104 95.9353 90.1073 95.9567 89.7688C95.9834 89.4409 96.229 89.3012 96.496 89.4571L106.002 95.0567V95.0567Z" fill="#C2A1D7"/>
<path d="M106.858 100.893C107.125 101.049 107.333 101.452 107.301 101.78C107.269 102.107 107.029 102.242 106.751 102.081L95.9585 95.7286C95.6915 95.5727 95.4939 95.1804 95.5153 94.8419C95.542 94.514 95.7876 94.3797 96.0546 94.5302L106.847 100.882V100.893H106.858Z" fill="#C2A1D7"/>
<path d="M126.631 99.0679C126.834 99.1861 126.978 99.4763 126.957 99.7127L126.93 100.041C126.908 100.282 126.732 100.379 126.529 100.261L120.724 96.8377C120.521 96.7195 120.377 96.4293 120.399 96.1928L120.425 95.865C120.447 95.6232 120.623 95.5265 120.826 95.6447L126.631 99.0679Z" fill="#8AD4DE"/>
<path d="M123.608 87.8147C123.838 87.9437 123.998 88.2823 123.977 88.5671L123.961 88.7552C123.934 89.0292 123.731 89.1528 123.507 89.0131L118.62 86.1381C118.391 86.0091 118.231 85.6598 118.252 85.3857L118.268 85.1976C118.295 84.9128 118.498 84.8 118.722 84.9397L123.608 87.8147Z" fill="#8AD4DE"/>
<path d="M119.533 94.8869C119.736 95.0052 119.881 95.2953 119.859 95.5318L119.832 95.8596C119.811 96.1014 119.635 96.1982 119.432 96.0799L106.636 88.5457C106.434 88.4275 106.289 88.1373 106.311 87.9008L106.337 87.573C106.359 87.3312 106.535 87.2345 106.738 87.3527L119.533 94.8869V94.8869Z" fill="#8AD4DE"/>
<path d="M119.754 91.5604C119.989 91.7002 120.16 92.0495 120.138 92.3289V92.3988C120.106 92.6836 119.893 92.8072 119.658 92.6621L106.996 85.2085C106.761 85.0688 106.59 84.7194 106.611 84.44V84.3701C106.643 84.0799 106.846 83.9617 107.092 84.1014L119.754 91.5551V91.5604Z" fill="#8AD4DE"/>
<path d="M123.479 78.5832C123.714 78.723 123.879 79.0508 123.853 79.3356L123.837 79.5129C123.81 79.7977 123.607 79.9106 123.372 79.7709L117.215 76.1381C116.98 75.9984 116.814 75.6598 116.841 75.3858L116.857 75.2084C116.883 74.9236 117.086 74.8107 117.316 74.9397L123.473 78.5725V78.5832H123.479Z" fill="#C2A1D7"/>
<path d="M121.717 89.5378C121.925 89.6668 122.08 89.9623 122.053 90.2203L122.026 90.4943C122.005 90.7523 121.818 90.849 121.61 90.7308L107.271 82.283C107.063 82.154 106.908 81.8585 106.935 81.6005L106.961 81.3264C106.983 81.0685 107.17 80.9718 107.378 81.09L121.717 89.5378V89.5378Z" fill="#BDC0FF"/>
<path d="M129.41 105.891C129.661 106.041 129.847 106.417 129.821 106.718C129.794 107.019 129.559 107.159 129.308 107.008L96.6092 87.7589C96.3475 87.6085 96.1713 87.2323 96.198 86.9206C96.2247 86.6089 96.449 86.48 96.7107 86.6304L129.415 105.885L129.41 105.891Z" fill="#C2A1D7"/>
<path d="M117.398 84.166C117.633 84.3057 117.799 84.6443 117.772 84.9184L117.756 85.1065C117.729 85.3805 117.526 85.5041 117.297 85.3751L106.285 78.8942C106.05 78.7545 105.884 78.4159 105.911 78.1419L105.927 77.9538C105.954 77.669 106.157 77.5561 106.386 77.6851L117.398 84.166Z" fill="#C2A1D7"/>
<path d="M123.842 82.3402C124.109 82.496 124.317 82.8991 124.285 83.2269C124.253 83.5547 124.012 83.6998 123.735 83.5386L107.003 73.6935C106.736 73.5377 106.539 73.1347 106.56 72.7961C106.587 72.4683 106.833 72.3286 107.1 72.4844L123.831 82.3294V82.3402H123.842Z" fill="#8AD4DE"/>
<path d="M105.183 82.9837C105.418 83.1234 105.589 83.4727 105.568 83.7522V83.822C105.536 84.1069 105.333 84.2305 105.087 84.0907L97.3648 79.5444C97.1298 79.4047 96.959 79.0554 96.9803 78.7759V78.7061C97.0124 78.4159 97.2153 78.2977 97.4609 78.4374L105.183 82.9837Z" fill="#8AD4DE"/>
<path d="M106.46 80.9792C106.668 81.1082 106.823 81.4037 106.796 81.6617L106.77 81.9357C106.748 82.1937 106.561 82.2904 106.353 82.1722L97.5308 76.9756C97.3226 76.8466 97.1677 76.5511 97.1944 76.2931L97.2211 76.0191C97.2425 75.7611 97.4294 75.6644 97.6377 75.7826L106.471 80.9846H106.46V80.9792Z" fill="#8AD4DE"/>
<path d="M115.965 74.1556C116.2 74.2953 116.37 74.6446 116.349 74.9187L116.333 75.0853C116.306 75.3701 116.103 75.4937 115.858 75.3432L104.451 68.6259C104.216 68.4861 104.045 68.1368 104.066 67.8628L104.082 67.6962C104.109 67.4113 104.323 67.2985 104.558 67.4382L115.965 74.1556Z" fill="#8AD4DE"/>
<path d="M104.629 76.6424C104.864 76.7821 105.029 77.1207 105.003 77.3948L104.986 77.5829C104.96 77.8569 104.757 77.9805 104.527 77.8516L97.8411 73.9125C97.6115 73.7835 97.4513 73.4342 97.4726 73.1601L97.4886 72.972C97.5153 72.6872 97.7183 72.5744 97.9426 72.7141L104.629 76.6532V76.6424V76.6424Z" fill="#8AD4DE"/>
<path d="M125.788 70.3315C126.055 70.4873 126.253 70.8796 126.232 71.2182C126.205 71.546 125.959 71.6857 125.692 71.5299L110.152 62.3888C109.885 62.233 109.687 61.8407 109.709 61.5022C109.735 61.1743 109.981 61.0346 110.248 61.1905L125.783 70.3315H125.788Z" fill="#BDC0FF"/>
<path d="M108.833 65.6777C109.1 65.8335 109.303 66.2473 109.276 66.5644C109.249 66.8815 109.004 67.0373 108.726 66.8761L97.9331 60.5134C97.6661 60.3575 97.4685 59.9545 97.4899 59.6159C97.5166 59.2881 97.7622 59.1484 98.0292 59.3042L108.822 65.6562V65.6777H108.833Z" fill="#C2A1D7"/>
<path d="M131.386 70.6646C131.637 70.8151 131.829 71.1805 131.797 71.4922C131.765 71.8039 131.535 71.9221 131.284 71.7824L98.5907 52.5384C98.329 52.3879 98.1474 52.0225 98.1794 51.7108C98.2115 51.3991 98.4304 51.2701 98.6921 51.4206L131.391 70.6646H131.386Z" fill="#C2A1D7"/>
<path d="M107.976 59.8471C108.243 60.0029 108.451 60.406 108.419 60.7338C108.387 61.0616 108.147 61.2013 107.869 61.0347L98.3687 55.4405C98.1016 55.2846 97.904 54.8923 97.9254 54.5538C97.9521 54.226 98.1978 54.0863 98.4648 54.2421L107.971 59.8417H107.981L107.976 59.8471Z" fill="#8AD4DE"/>
<path d="M134.461 75.442C134.728 75.6032 134.925 75.9902 134.904 76.3287C134.877 76.6565 134.632 76.7962 134.365 76.6404L127.369 72.5186C127.102 72.3628 126.904 71.9705 126.925 71.6319C126.952 71.3041 127.198 71.1644 127.465 71.3202L134.461 75.442V75.442Z" fill="#8AD4DE"/>
<path d="M143.402 80.7139C143.669 80.8697 143.867 81.262 143.845 81.6006C143.819 81.9284 143.573 82.0681 143.306 81.9123L136.31 77.7905C136.043 77.6346 135.845 77.2423 135.867 76.9038C135.894 76.576 136.139 76.4362 136.406 76.5921L143.402 80.7139Z" fill="#8AD4DE"/>
<path d="M138.85 100.046C139.058 100.175 139.213 100.471 139.186 100.729L139.16 101.003C139.138 101.261 138.951 101.357 138.743 101.239L132.207 97.3967C131.998 97.2677 131.843 96.9722 131.87 96.7142L131.897 96.4401C131.918 96.1822 132.105 96.0855 132.313 96.2037L138.85 100.057V100.046Z" fill="#8AD4DE"/>
<path d="M104.983 86.3211C105.186 86.4393 105.33 86.7295 105.308 86.966L105.282 87.2938C105.26 87.5356 105.084 87.6323 104.881 87.5141L97.0095 82.8764C96.8066 82.7582 96.6624 82.468 96.6837 82.2315L96.7104 81.9037C96.7318 81.6619 96.908 81.5652 97.111 81.678L104.977 86.305V86.3157L104.983 86.3211Z" fill="#C2A1D7"/>
<path d="M105.247 71.3931C105.482 71.5329 105.653 71.8822 105.632 72.1724L105.621 72.3228C105.594 72.613 105.391 72.742 105.146 72.5915L97.9628 68.3622C97.7278 68.2225 97.5462 67.8625 97.5729 67.583L97.5836 67.4326C97.6103 67.1424 97.8239 67.0241 98.0589 67.1585L105.242 71.3878V71.3985L105.247 71.3931Z" fill="#C2A1D7"/>
<path d="M103.13 66.5942C103.333 66.7125 103.478 67.0026 103.456 67.2391L103.429 67.5669C103.408 67.8087 103.232 67.9055 103.029 67.7872L98.1853 64.9391C97.9823 64.8208 97.8382 64.5306 97.8595 64.2942L97.8862 63.9664C97.9076 63.7246 98.0838 63.6278 98.2867 63.7514L103.13 66.5996V66.5889V66.5942Z" fill="#8AD4DE"/>
<path d="M141.431 115.918C141.698 116.074 141.896 116.467 141.875 116.805C141.848 117.133 141.602 117.278 141.335 117.117L134.339 112.995C134.072 112.839 133.875 112.436 133.896 112.098C133.923 111.77 134.168 111.63 134.435 111.786L141.431 115.908V115.918Z" fill="#8AD4DE"/>
<path d="M103.442 106.584C103.677 106.724 103.848 107.073 103.827 107.363L103.816 107.514C103.789 107.804 103.587 107.933 103.341 107.782L96.1581 103.553C95.9231 103.413 95.7415 103.059 95.7682 102.774L95.7789 102.623C95.8056 102.333 96.0192 102.215 96.2542 102.349L103.437 106.579V106.589L103.442 106.584Z" fill="#C2A1D7"/>
<path d="M101.32 101.785C101.523 101.903 101.667 102.193 101.646 102.43L101.619 102.757C101.598 102.999 101.421 103.096 101.218 102.983L96.3747 100.135C96.1718 100.017 96.0276 99.7265 96.049 99.4901L96.0757 99.1623C96.097 98.9204 96.2733 98.8237 96.4762 98.9419L101.32 101.79V101.785Z" fill="#C2A1D7"/>
<path d="M103.893 63.3003V132.868L108.138 130.382V60.7018L103.893 63.3003Z" fill="#6368D7" stroke="#220E6E" stroke-width="0.75" stroke-linecap="round" stroke-linejoin="round"/>
<path d="M103.911 63.3002V132.868L24.0449 87.5694V17.8895L103.911 63.3002Z" fill="url(#paint2_linear_353_8233)" stroke="#220E6E" stroke-width="0.75" stroke-linejoin="round"/>
<path d="M24.0449 17.8894L103.911 63.3L108.14 60.7015L28.2475 15.3336L24.0449 17.8894Z" fill="#67A3FD" stroke="#220E6E" stroke-width="0.75" stroke-linecap="round" stroke-linejoin="round"/>
<path d="M48.6373 40.0093L33.864 31.465C31.2815 29.9733 29.1855 31.5559 29.1855 34.9993V52.0984C29.1855 55.5418 31.2815 59.5412 33.864 61.033L48.6373 69.5772C51.2198 71.069 53.3158 69.4863 53.3158 66.043V48.9438C53.3158 45.5005 51.2198 41.501 48.6373 40.0093V40.0093Z" fill="#0977AB" stroke="#220E6E" stroke-width="0.75" stroke-linecap="round" stroke-linejoin="round"/>
<path d="M50.4601 68.1819L35.6868 59.6377C33.1043 58.1459 31.0083 54.1465 31.0083 50.7031V33.604C31.0083 32.5132 31.2168 31.615 31.5858 30.9359C30.1528 31.1712 29.1797 32.6522 29.1797 34.9942V52.0933C29.1797 55.5367 31.2756 59.5361 33.8582 61.0279L48.6315 69.5721C50.3959 70.5934 51.9358 70.171 52.7271 68.7059C52.0534 68.8182 51.2781 68.6578 50.4547 68.1819H50.4601Z" fill="#084C94" stroke="#220E6E" stroke-width="0.75" stroke-linecap="round" stroke-linejoin="round"/>
<path d="M34.7506 39.6566L19.9773 31.1124C17.3948 29.6206 15.2988 31.2033 15.2988 34.6466V51.7458C15.2988 55.1891 17.3948 59.1886 19.9773 60.6803L34.7506 69.2246C37.3331 70.7163 39.4291 69.1337 39.4291 65.6903V48.5912C39.4291 45.1478 37.3331 41.1484 34.7506 39.6566V39.6566Z" fill="url(#paint3_linear_353_8233)" stroke="#220E6E" stroke-width="0.75" stroke-linecap="round" stroke-linejoin="round"/>
<path d="M37.158 38.2451L22.3847 29.6955C21.2779 29.0592 20.262 28.9843 19.4653 29.38L19.4386 29.3533L16.8828 30.8557L16.8935 30.8878C17.7169 30.3959 18.7916 30.428 19.9786 31.1124L34.7519 39.6566C37.3344 41.1484 39.4304 45.1478 39.4304 48.5912V65.6903C39.4304 67.3639 38.9331 68.5937 38.1258 69.246L39.5534 68.3049C40.7511 67.6205 41.8418 66.5512 41.8418 64.2734V47.1743C41.8418 43.7309 39.7459 39.7315 37.1633 38.2397L37.158 38.2451Z" fill="#23A0DC" stroke="#220E6E" stroke-width="0.75" stroke-linecap="round" stroke-linejoin="round"/>
<path d="M31.7278 48.5593C31.7278 49.8426 30.8241 50.3559 29.7066 49.7142C28.5892 49.0673 27.6855 47.506 27.6855 46.2228C27.6855 44.9395 28.5892 44.4262 29.7066 45.0679C30.8241 45.7148 31.7278 47.2761 31.7278 48.5593Z" fill="white"/>
<path d="M19.7559 50.2009L23.9264 44.8113L28.1611 55.5263L31.2409 53.024L34.6414 62.2633L34.5773 63.199L19.82 55.3071L19.7559 50.2009Z" fill="white"/>
<path d="M64.5363 51.6989C64.7292 51.8091 64.889 52.1563 64.8835 52.4429V53.0656C64.8725 53.3522 64.7127 53.5065 64.5143 53.3797L60.4196 50.8943C60.2157 50.7675 60.0669 50.4369 60.0724 50.1503V49.5276C60.0834 49.241 60.2433 49.0867 60.4416 49.2135L64.5363 51.7044V51.6989Z" fill="white"/>
<path d="M76.9742 75.9968C77.1671 76.107 77.3269 76.4432 77.3214 76.7408V77.3525C77.3104 77.6501 77.1505 77.7934 76.9521 77.6666L75.4587 76.7683C75.2548 76.6416 75.106 76.3219 75.1115 76.0243V75.4126C75.1225 75.115 75.2823 74.9717 75.4807 75.0985L76.9742 75.9968Z" fill="white"/>
<path d="M77.1372 71.3126C77.3301 71.4228 77.4899 71.77 77.4844 72.0566V72.6793C77.4734 72.9659 77.3135 73.1202 77.1096 72.9935L73.4118 70.7505C73.2189 70.6403 73.0591 70.2931 73.0646 70.0065V69.3838C73.0756 69.0972 73.2354 68.9429 73.4393 69.0697L77.1372 71.3126Z" fill="white"/>
<path d="M74.2139 64.7599C74.4068 64.8701 74.5666 65.2173 74.5611 65.5039V66.1266C74.5501 66.4132 74.3903 66.5675 74.1864 66.4407L66.3883 61.7068C66.1955 61.5966 66.0356 61.2494 66.0412 60.9628V60.3401C66.0522 60.0535 66.212 59.8992 66.4104 60.026L74.2084 64.7599H74.2139Z" fill="white"/>
<path d="M72.686 56.6429C72.8899 56.7696 73.0497 57.1113 73.0442 57.4034V58.0261C73.0331 58.3127 72.8733 58.467 72.6694 58.3402L65.8083 54.174C65.6154 54.0637 65.4556 53.7165 65.4611 53.43V52.8072C65.4721 52.5207 65.6374 52.3829 65.8303 52.4931L72.6915 56.6594L72.6804 56.6484L72.686 56.6429Z" fill="#91E7FF"/>
<path d="M75.1992 54.1681C75.3811 54.2783 75.5354 54.598 75.5299 54.8735V55.4577C75.5189 55.7332 75.3701 55.871 75.1882 55.7608L60.4519 46.8275C60.27 46.7173 60.1157 46.3976 60.1212 46.1221V45.5434C60.1323 45.2569 60.2811 45.1136 60.4629 45.2238L75.1992 54.1681Z" fill="#D591FF"/>
<path d="M68.9543 66.3473C69.1251 66.4576 69.2574 66.7386 69.2574 66.9921L69.2463 67.7637C69.2463 68.0117 69.1031 68.1439 68.9322 68.0337L63.9283 65.0027C63.7629 64.9035 63.6196 64.6114 63.6252 64.3579L63.6362 63.5864C63.6362 63.3384 63.7795 63.2061 63.9503 63.3163L68.9543 66.3473Z" fill="white"/>
<path d="M74.6039 82.5495C74.7692 82.6487 74.9015 82.9298 74.896 83.1778L74.8849 83.9493C74.8849 84.1973 74.7417 84.3185 74.5818 84.2193L72.5648 83.0014C72.3995 82.9022 72.2617 82.6101 72.2617 82.3566L72.2727 81.5851C72.2727 81.3371 72.416 81.2214 72.5869 81.3316L74.6039 82.5495Z" fill="white"/>
<path d="M72.6352 73.3794C72.828 73.4896 72.9879 73.8258 72.9823 74.1234V74.7351C72.9713 75.0327 72.8115 75.176 72.6131 75.0492L65.2009 70.5522C64.9969 70.4255 64.8482 70.1059 64.8537 69.8083V69.1966C64.8647 68.899 65.0245 68.7557 65.2229 68.8824L72.6352 73.3794V73.3794Z" fill="white"/>
<path d="M65.0537 59.1942C65.2466 59.3044 65.4064 59.6516 65.4009 59.9381V60.5609C65.3899 60.8475 65.2301 61.0018 65.0262 60.875L60.3473 58.0424C60.1434 57.9156 59.9946 57.585 60.0001 57.2984V56.6756C60.0112 56.3891 60.171 56.2348 60.3749 56.3615L65.0592 59.1997L65.0537 59.1942Z" fill="#D591FF"/>
<path d="M76.672 59.0616C76.8648 59.1718 77.0247 59.519 77.0192 59.8056V60.4283C77.0081 60.7149 76.8483 60.8692 76.6499 60.7425L73.7126 58.9569C73.5087 58.8302 73.3599 58.4995 73.3654 58.2129V57.5902C73.3764 57.3036 73.5362 57.1493 73.7346 57.2761L76.672 59.0616Z" fill="white"/>
<path d="M80.7684 61.5419C80.9723 61.6687 81.1321 62.0104 81.1266 62.3024V62.9252C81.1155 63.2117 80.9557 63.3661 80.7573 63.2393L77.82 61.4537C77.6271 61.3435 77.4673 60.9963 77.4728 60.7098V60.087C77.4838 59.8005 77.6436 59.6461 77.8475 59.7729L80.7794 61.5474L80.7684 61.5419Z" fill="white"/>
<path d="M63.8854 80.428C64.0397 80.5272 64.1609 80.7972 64.1609 81.0177L64.1499 81.8774C64.1499 82.1033 64.0287 82.2191 63.8633 82.1088L60.0167 79.7722C59.8624 79.673 59.7466 79.4305 59.7521 79.2046L59.7632 78.3448C59.7632 78.1189 59.8844 77.9921 60.0387 78.0858L63.8854 80.4225V80.428Z" fill="white"/>
<path d="M62.9607 75.4791C63.126 75.5783 63.2583 75.8593 63.2528 76.1073L63.2417 76.8789C63.2417 77.1269 63.0985 77.2481 62.9386 77.1489L60.095 75.4295C59.9297 75.3303 59.7974 75.0492 59.8029 74.8012L59.8139 74.0297C59.8139 73.7817 59.9572 73.666 60.117 73.7597L62.9607 75.4791V75.4791Z" fill="white"/>
<path d="M73.431 89.8187C73.6129 89.9289 73.7561 90.2375 73.7506 90.5131L73.7396 91.213C73.7396 91.4885 73.5908 91.6263 73.4034 91.5161L70.907 90.0061C70.7251 89.8958 70.5708 89.5762 70.5763 89.3007L70.5873 88.6008C70.5873 88.3252 70.7361 88.1985 70.9235 88.3087L73.42 89.8187H73.431V89.8187Z" fill="#D591FF"/>
<path d="M73.2681 94.5028C73.4114 94.5855 73.5271 94.828 73.5216 95.0539L73.5106 95.9522C73.5106 96.1616 73.3893 96.2718 73.246 96.1837L70.7771 94.6902C70.6338 94.6075 70.5181 94.365 70.5236 94.1391L70.5346 93.2408C70.5346 93.0314 70.6559 92.9212 70.7992 93.0093L73.2681 94.5028Z" fill="white"/>
<path d="M71.3421 84.9522C71.4964 85.0514 71.6176 85.3159 71.6176 85.5419L71.6066 86.4016C71.6066 86.6275 71.4744 86.7322 71.3201 86.633L64.9494 82.7588C64.7951 82.6596 64.6738 82.4061 64.6738 82.1802L64.6848 81.3205C64.6848 81.0945 64.8061 80.9678 64.9714 81.078L71.3421 84.9522Z" fill="#91E7FF"/>
<path d="M68.809 79.0338C68.9743 79.133 69.1066 79.4141 69.1011 79.6621L69.0901 80.4336C69.0901 80.6816 68.9468 80.7974 68.787 80.7037L63.9594 77.7718C63.794 77.6726 63.6562 77.3806 63.6562 77.1271L63.6673 76.3555C63.6673 76.1075 63.8106 75.9863 63.9814 76.102L68.809 79.0338Z" fill="#D591FF"/>
<path d="M71.663 80.764C71.8283 80.8632 71.9606 81.1442 71.9551 81.3922L71.944 82.1638C71.944 82.4118 71.8008 82.533 71.6409 82.4338L69.6184 81.2049C69.4531 81.1057 69.3208 80.8246 69.3263 80.5766L69.3374 79.8051C69.3374 79.5571 69.4806 79.4414 69.6405 79.535L71.663 80.764Z" fill="white"/>
<path d="M70.0211 92.5413C70.1644 92.624 70.2801 92.8665 70.2746 93.0924L70.2636 93.9907C70.2636 94.2001 70.1423 94.3103 69.999 94.2222L64.3338 90.7888C64.1905 90.7062 64.0748 90.4582 64.0803 90.2377L64.0913 89.3394C64.0913 89.13 64.2125 89.0198 64.3558 89.108L70.0211 92.5413Z" fill="white"/>
<path d="M63.3448 83.8283C63.5211 83.9385 63.6479 84.2196 63.6479 84.4731V85.0958C63.6369 85.3603 63.4991 85.4871 63.3227 85.3769L60.0162 83.3709C59.8398 83.2607 59.7075 82.9796 59.7131 82.7151V82.0923C59.7241 81.8278 59.8619 81.7011 60.0382 81.8113L63.3448 83.8173V83.8283Z" fill="white"/>
<path d="M70.0217 87.879C70.1981 87.9892 70.3304 88.2702 70.3248 88.5348V89.1575C70.3138 89.422 70.176 89.5488 69.9997 89.4386L64.4281 86.0603C64.2518 85.9501 64.125 85.6691 64.125 85.4045V84.7818C64.136 84.5173 64.2738 84.3905 64.4501 84.5007L70.0217 87.879Z" fill="white"/>
<path d="M74.9832 87.1622C75.1375 87.2614 75.2587 87.5314 75.2587 87.7518L75.2477 88.6115C75.2477 88.8375 75.1265 88.9532 74.9611 88.843L72.1671 87.1401C72.0128 87.0409 71.897 86.7984 71.9025 86.5725L71.9136 85.7128C71.9136 85.4868 72.0348 85.3601 72.1891 85.4537L74.9832 87.1566V87.1622Z" fill="white"/>
<path d="M78.7284 89.433C78.8827 89.5267 78.9984 89.7857 78.9929 90.0116L78.9819 90.8713C78.9819 91.0973 78.8606 91.213 78.7063 91.1193L75.9123 89.4165C75.758 89.3228 75.6367 89.0638 75.6367 88.8378L75.6477 87.9781C75.6477 87.7521 75.769 87.6254 75.9343 87.7301L78.7284 89.433V89.433Z" fill="white"/>
<path d="M63.3452 88.4682C63.4885 88.5509 63.6042 88.7989 63.5987 89.0193L63.5877 89.9176C63.5877 90.127 63.4665 90.2372 63.3232 90.149L59.9119 88.0714C59.7686 87.9887 59.6529 87.7408 59.6584 87.5203L59.6694 86.622C59.6694 86.4126 59.7907 86.3024 59.9339 86.3906L63.3452 88.4682V88.4682Z" fill="#D591FF"/>
<path d="M76.6314 96.553C76.7747 96.6356 76.8904 96.8781 76.8849 97.1041L76.8739 98.0024C76.8739 98.2118 76.7526 98.322 76.6093 98.2338L74.1404 96.7404C73.9971 96.6577 73.8814 96.4097 73.8869 96.1893L73.8979 95.291C73.8979 95.0816 74.0192 94.9713 74.1625 95.0595L76.6314 96.553Z" fill="#91E7FF"/>
<path d="M63.0971 62.7874C63.2349 62.8701 63.3561 63.1291 63.3506 63.3385L63.3396 64.2368C63.3396 64.4463 63.2183 64.5565 63.0861 64.4848L61.0525 63.2504C60.9092 63.1677 60.7935 62.9197 60.799 62.6993L60.81 61.801C60.81 61.5916 60.9313 61.4813 61.0746 61.5695L63.1081 62.804L63.0971 62.793V62.7874Z" fill="white"/>
<path d="M72.4135 68.4472C72.5788 68.5464 72.7111 68.8384 72.7056 69.0864L72.6946 69.858C72.6946 70.1225 72.5513 70.2382 72.3915 70.139L69.7903 68.5629C69.625 68.4637 69.4927 68.1826 69.4982 67.9236L69.5092 67.1521C69.5092 66.9041 69.6525 66.7718 69.8123 66.871L72.4135 68.4472Z" fill="#D591FF"/>
<path d="M64.1295 68.2047C64.3058 68.3149 64.4436 68.6125 64.4436 68.8605L64.4326 69.61C64.4326 69.8746 64.2838 69.9903 64.1074 69.8801L61.0544 68.0284C60.878 67.9182 60.7402 67.6206 60.7402 67.3726L60.7513 66.6231C60.7513 66.3586 60.9001 66.2428 61.0764 66.353L64.1295 68.2047V68.2047Z" fill="#D591FF"/>
<path d="M74.5737 74.542C74.7776 74.6687 74.9375 74.9994 74.932 75.3025V75.9142C74.9209 76.2118 74.7611 76.3551 74.5627 76.2283L73.6755 75.6882C73.4826 75.578 73.3228 75.2418 73.3283 74.9443V74.3325C73.3393 74.0349 73.4991 73.8917 73.6975 74.0184L74.5848 74.5585L74.5737 74.5475V74.542Z" fill="#91E7FF"/>
<path d="M74.6527 103.723C74.8346 103.833 74.9889 104.152 74.9834 104.428V105.001C74.9724 105.288 74.8236 105.431 74.6417 105.321L59.9109 96.3819C59.729 96.2717 59.5747 95.9521 59.5802 95.6765V95.1034C59.5912 94.8278 59.74 94.69 59.9219 94.8003L74.6582 103.745V103.734L74.6527 103.723Z" fill="#D591FF"/>
<path d="M63.9933 101.243C64.1862 101.353 64.346 101.689 64.3405 101.987V102.598C64.3295 102.896 64.1697 103.039 63.9713 102.912L59.8766 100.422C59.6727 100.295 59.5239 99.9751 59.5294 99.6775V99.0658C59.5405 98.7682 59.7003 98.6249 59.8987 98.7517L63.9933 101.243Z" fill="#D591FF"/>
<path d="M72.1472 106.197C72.3511 106.324 72.511 106.654 72.5055 106.957V107.569C72.4944 107.867 72.3346 108.01 72.1362 107.883L65.2751 103.717C65.0822 103.607 64.9224 103.271 64.9279 102.973V102.361C64.9389 102.064 65.0987 101.92 65.2971 102.047L72.1583 106.214L72.1472 106.202V106.197Z" fill="#91E7FF"/>
<path d="M76.1192 108.605C76.3121 108.716 76.4719 109.052 76.4664 109.349V109.961C76.4554 110.259 76.2901 110.386 76.0972 110.275L73.1598 108.49C72.9559 108.363 72.8071 108.043 72.8126 107.746V107.134C72.8237 106.836 72.9835 106.693 73.1819 106.82L76.1192 108.605V108.605Z" fill="#D591FF"/>
<path d="M80.2215 111.096C80.4254 111.223 80.5852 111.554 80.5797 111.851V112.463C80.5687 112.761 80.4089 112.904 80.2105 112.777L77.2731 110.992C77.0802 110.881 76.9204 110.545 76.9259 110.248V109.636C76.9369 109.338 77.1023 109.212 77.2952 109.322L80.2325 111.107L80.2215 111.096V111.096Z" fill="white"/>
<path d="M133.777 113.791V183.001L138.006 180.527V111.205L133.777 113.791Z" fill="#6368D7" stroke="#220E6E" stroke-width="0.75" stroke-linecap="round" stroke-linejoin="round"/>
<path d="M133.793 113.79V183L69.2852 145.334V76.012L133.793 113.79Z" fill="url(#paint4_linear_353_8233)" stroke="#220E6E" stroke-width="0.75" stroke-linejoin="round"/>
<path d="M69.2852 76.0121L133.793 113.79L138.006 111.205L73.4662 73.4695L69.2852 76.0121Z" fill="#67A3FD" stroke="#220E6E" stroke-width="0.75" stroke-linecap="round" stroke-linejoin="round"/>
<path d="M106.605 132.869C106.867 133.02 107.049 133.385 107.017 133.697V133.788C106.979 134.1 106.755 134.229 106.499 134.078L100.528 130.564C100.277 130.413 100.096 130.048 100.117 129.726V129.64C100.154 129.328 100.373 129.21 100.63 129.349L106.6 132.864V132.875L106.605 132.869Z" fill="#D591FF"/>
<path d="M112.355 139.381C112.558 139.499 112.702 139.789 112.681 140.026L112.654 140.353C112.633 140.595 112.456 140.692 112.253 140.574L106.443 137.151C106.24 137.032 106.096 136.742 106.117 136.506L106.144 136.178C106.165 135.936 106.342 135.839 106.545 135.957L112.355 139.381Z" fill="#91E7FF"/>
<path d="M110.094 132.251C110.302 132.38 110.457 132.676 110.431 132.934L110.404 133.208C110.383 133.466 110.196 133.563 109.987 133.444L103.451 129.591C103.242 129.462 103.088 129.167 103.114 128.909L103.141 128.635C103.162 128.377 103.349 128.28 103.558 128.398L110.094 132.251V132.251Z" fill="white"/>
<path d="M109.454 128.624C109.684 128.753 109.855 129.102 109.828 129.376L109.812 129.565C109.785 129.839 109.583 129.962 109.353 129.833L104.466 126.953C104.232 126.813 104.066 126.475 104.093 126.2L104.109 126.012C104.135 125.728 104.338 125.615 104.568 125.744L109.454 128.624Z" fill="white"/>
<path d="M107.516 121.865C107.783 122.02 107.981 122.413 107.959 122.751C107.933 123.079 107.687 123.224 107.42 123.063L104.905 121.585C104.638 121.429 104.435 121.016 104.461 120.688C104.488 120.36 104.734 120.22 105.011 120.387L107.527 121.865H107.516V121.865Z" fill="#91E7FF"/>
<path d="M108.26 114.483C108.527 114.639 108.725 115.042 108.704 115.37C108.677 115.698 108.431 115.843 108.164 115.682L90.5999 105.342C90.3329 105.186 90.13 104.773 90.1567 104.445C90.1834 104.117 90.429 103.977 90.7067 104.144L108.271 114.483H108.26Z" fill="white"/>
<path d="M112.743 124.944C113.01 125.1 113.208 125.492 113.187 125.831C113.16 126.158 112.914 126.304 112.647 126.142L108.802 123.88C108.535 123.724 108.338 123.321 108.359 122.982C108.386 122.655 108.631 122.515 108.898 122.671L112.743 124.933V124.944Z" fill="white"/>
<path d="M113.271 121.703C113.538 121.859 113.735 122.252 113.714 122.59C113.687 122.918 113.442 123.058 113.175 122.902L104.529 117.813C104.262 117.657 104.053 117.254 104.085 116.926C104.117 116.598 104.358 116.458 104.635 116.625L113.281 121.714V121.703H113.271Z" fill="white"/>
<path d="M110.931 160.135C111.198 160.291 111.396 160.694 111.374 161.032C111.347 161.36 111.102 161.5 110.835 161.344L106.99 159.081C106.723 158.926 106.525 158.533 106.547 158.195C106.573 157.867 106.819 157.722 107.086 157.883L110.931 160.145V160.135V160.135Z" fill="#91E7FF"/>
<path d="M105.701 157.061C105.968 157.217 106.165 157.62 106.144 157.958C106.117 158.286 105.871 158.426 105.604 158.27L103.089 156.792C102.822 156.636 102.614 156.233 102.646 155.906C102.678 155.578 102.918 155.433 103.196 155.594L105.711 157.072V157.061H105.701Z" fill="white"/>
<path d="M111.446 156.894C111.713 157.05 111.91 157.442 111.889 157.781C111.862 158.109 111.616 158.254 111.349 158.093L102.703 153.003C102.436 152.848 102.233 152.434 102.26 152.106C102.287 151.778 102.533 151.638 102.81 151.805L111.456 156.894H111.446Z" fill="white"/>
<path d="M106.269 149.693C106.536 149.849 106.734 150.241 106.712 150.58C106.686 150.908 106.44 151.042 106.173 150.892L88.6086 140.552C88.3416 140.396 88.1333 139.993 88.1654 139.666C88.1974 139.338 88.4377 139.198 88.7154 139.365L106.28 149.704V149.693H106.269Z" fill="white"/>
<path d="M93.572 146.367C93.8069 146.506 93.9778 146.856 93.9565 147.13L93.9405 147.296C93.9137 147.587 93.7108 147.705 93.4652 147.565L82.0582 140.848C81.8232 140.708 81.6523 140.359 81.6737 140.079L81.6897 139.913C81.7164 139.628 81.93 139.515 82.165 139.655L93.572 146.372V146.367Z" fill="white"/>
<path d="M101.451 154.556C101.718 154.712 101.921 155.126 101.894 155.454C101.867 155.782 101.622 155.921 101.344 155.755L84.6128 145.91C84.3458 145.754 84.1482 145.362 84.1695 145.023C84.1963 144.695 84.4419 144.55 84.7089 144.711L101.44 154.556H101.451V154.556Z" fill="white"/>
<path d="M101.094 150.8C101.329 150.94 101.495 151.278 101.468 151.553L101.452 151.73C101.425 152.015 101.222 152.138 100.987 151.999L94.8298 148.366C94.5948 148.226 94.4292 147.887 94.4559 147.603L94.472 147.425C94.4987 147.151 94.7016 147.028 94.9312 147.157L101.089 150.789V150.8H101.094Z" fill="#91E7FF"/>
<path d="M103.232 142.573C103.499 142.728 103.697 143.121 103.676 143.459C103.649 143.787 103.403 143.932 103.136 143.771L87.6011 134.63C87.3341 134.474 87.1365 134.071 87.1578 133.733C87.1845 133.405 87.4302 133.27 87.6972 133.421L103.232 142.562V142.573V142.573Z" fill="white"/>
<path d="M111.904 147.683C112.171 147.845 112.369 148.231 112.347 148.57C112.321 148.898 112.075 149.043 111.808 148.882L104.812 144.76C104.545 144.604 104.347 144.201 104.369 143.863C104.395 143.535 104.641 143.395 104.908 143.551L111.904 147.673V147.683V147.683Z" fill="#D591FF"/>
<path d="M85.4276 132.083C85.6946 132.239 85.9029 132.642 85.8709 132.97C85.8388 133.297 85.5985 133.442 85.3208 133.281L75.8257 127.692C75.5587 127.536 75.3611 127.133 75.3824 126.795C75.4091 126.467 75.6548 126.327 75.9218 126.483L85.4276 132.083V132.083Z" fill="#D591FF"/>
<path d="M86.2839 137.919C86.5509 138.075 86.7592 138.478 86.7272 138.806C86.6951 139.133 86.4548 139.268 86.1771 139.107L75.3843 132.755C75.1173 132.599 74.9197 132.206 74.941 131.868C74.9677 131.54 75.2134 131.406 75.4804 131.556L86.2732 137.908V137.919H86.2839Z" fill="#D591FF"/>
<path d="M106.057 136.094C106.259 136.212 106.404 136.502 106.382 136.739L106.356 137.067C106.334 137.308 106.158 137.405 105.955 137.287L100.15 133.864C99.9472 133.745 99.803 133.455 99.8244 133.219L99.8511 132.891C99.8724 132.649 100.049 132.552 100.252 132.671L106.057 136.094Z" fill="white"/>
<path d="M103.034 124.841C103.264 124.97 103.424 125.308 103.403 125.593L103.387 125.781C103.36 126.055 103.157 126.179 102.933 126.039L98.0462 123.164C97.8165 123.035 97.6563 122.686 97.6777 122.412L97.6937 122.224C97.7204 121.939 97.9233 121.826 98.1476 121.966L103.034 124.841Z" fill="white"/>
<path d="M98.9592 131.913C99.1621 132.031 99.3063 132.321 99.2849 132.558L99.2582 132.886C99.2369 133.127 99.0606 133.224 98.8577 133.106L86.0622 125.572C85.8593 125.453 85.7151 125.163 85.7365 124.927L85.7632 124.599C85.7845 124.357 85.9608 124.26 86.1637 124.379L98.9592 131.913V131.913Z" fill="white"/>
<path d="M99.1717 128.586C99.4067 128.726 99.5776 129.075 99.5562 129.355V129.425C99.5242 129.71 99.3106 129.833 99.0756 129.688L86.4137 122.234C86.1787 122.095 86.0078 121.745 86.0291 121.466V121.396C86.0612 121.106 86.2641 120.988 86.5098 121.127L99.1717 128.581V128.586Z" fill="white"/>
<path d="M102.903 115.609C103.138 115.749 103.303 116.077 103.276 116.362L103.26 116.539C103.234 116.824 103.031 116.937 102.796 116.797L96.6384 113.164C96.4034 113.025 96.2378 112.686 96.2645 112.412L96.2806 112.235C96.3073 111.95 96.5102 111.837 96.7398 111.966L102.897 115.599V115.609H102.903Z" fill="#D591FF"/>
<path d="M101.142 126.564C101.351 126.693 101.506 126.988 101.479 127.246L101.452 127.52C101.431 127.778 101.244 127.875 101.036 127.757L86.6969 119.309C86.4886 119.18 86.3337 118.885 86.3604 118.627L86.3871 118.353C86.4085 118.095 86.5954 117.998 86.8037 118.116L101.142 126.564V126.564Z" fill="#91E7FF"/>
<path d="M108.835 142.917C109.086 143.067 109.273 143.443 109.247 143.744C109.22 144.045 108.985 144.185 108.734 144.034L76.035 124.785C75.7733 124.634 75.5971 124.258 75.6238 123.947C75.6505 123.635 75.8748 123.506 76.1364 123.656L108.841 142.911L108.835 142.917Z" fill="#D591FF"/>
<path d="M96.8161 121.192C97.0511 121.332 97.2166 121.67 97.1899 121.944L97.1739 122.133C97.1472 122.407 96.9442 122.53 96.7146 122.401L85.7028 115.92C85.4678 115.781 85.3023 115.442 85.329 115.168L85.345 114.98C85.3717 114.695 85.5747 114.582 85.8043 114.711L96.8161 121.192Z" fill="#D591FF"/>
<path d="M103.267 119.366C103.534 119.522 103.743 119.925 103.711 120.253C103.679 120.58 103.438 120.726 103.161 120.564L86.4292 110.719C86.1622 110.564 85.9646 110.16 85.986 109.822C86.0127 109.494 86.2583 109.354 86.5253 109.51L103.257 119.355V119.366H103.267Z" fill="white"/>
<path d="M84.6089 120.01C84.8438 120.149 85.0147 120.499 84.9934 120.778V120.848C84.9613 121.133 84.7584 121.257 84.5127 121.117L76.7906 116.57C76.5556 116.431 76.3847 116.081 76.4061 115.802V115.732C76.4381 115.442 76.6411 115.324 76.8867 115.463L84.6089 120.01Z" fill="white"/>
<path d="M85.8857 118.005C86.094 118.134 86.2488 118.43 86.2221 118.688L86.1954 118.962C86.1741 119.22 85.9872 119.317 85.7789 119.198L76.9566 114.002C76.7484 113.873 76.5935 113.577 76.6202 113.319L76.6469 113.045C76.6682 112.787 76.8552 112.691 77.0634 112.809L85.8964 118.011H85.8857V118.005Z" fill="white"/>
<path d="M95.3903 111.182C95.6253 111.321 95.7962 111.671 95.7748 111.945L95.7588 112.111C95.7321 112.396 95.5292 112.52 95.2835 112.369L83.8765 105.652C83.6416 105.512 83.4707 105.163 83.492 104.889L83.5081 104.722C83.5348 104.437 83.7484 104.324 83.9833 104.464L95.3903 111.182Z" fill="white"/>
<path d="M84.0466 113.668C84.2816 113.808 84.4472 114.147 84.4205 114.421L84.4044 114.609C84.3777 114.883 84.1748 115.007 83.9452 114.878L77.2591 110.938C77.0294 110.81 76.8692 110.46 76.8906 110.186L76.9066 109.998C76.9333 109.713 77.1362 109.6 77.3605 109.74L84.0466 113.679V113.668V113.668Z" fill="white"/>
<path d="M105.214 107.357C105.481 107.513 105.679 107.906 105.657 108.244C105.631 108.572 105.385 108.712 105.118 108.556L89.5776 99.4148C89.3106 99.259 89.113 98.8667 89.1344 98.5282C89.1611 98.2003 89.4068 98.0606 89.6738 98.2165L105.209 107.357H105.214Z" fill="#91E7FF"/>
<path d="M88.2585 102.704C88.5256 102.859 88.7285 103.273 88.7018 103.59C88.6751 103.907 88.4294 104.063 88.1517 103.902L77.3589 97.5393C77.0919 97.3835 76.8943 96.9804 76.9156 96.6419C76.9423 96.3141 77.188 96.1743 77.455 96.3302L88.2479 102.682V102.704H88.2585Z" fill="#D591FF"/>
<path d="M110.804 107.691C111.055 107.841 111.247 108.206 111.215 108.518C111.183 108.83 110.953 108.948 110.702 108.808L78.0086 89.5644C77.7469 89.4139 77.5654 89.0485 77.5974 88.7368C77.6295 88.4251 77.8484 88.2961 78.1101 88.4466L110.809 107.691H110.804Z" fill="#D591FF"/>
<path d="M87.4017 96.8731C87.6687 97.0289 87.877 97.432 87.845 97.7598C87.8129 98.0876 87.5726 98.2273 87.2949 98.0607L77.7944 92.4665C77.5274 92.3106 77.3298 91.9183 77.3512 91.5798C77.3779 91.252 77.6235 91.1123 77.8906 91.2681L87.3964 96.8677H87.4071L87.4017 96.8731Z" fill="white"/>
<path d="M113.886 112.468C114.153 112.629 114.351 113.016 114.33 113.355C114.303 113.682 114.057 113.822 113.79 113.666L106.794 109.545C106.527 109.389 106.33 108.996 106.351 108.658C106.378 108.33 106.624 108.19 106.891 108.346L113.886 112.468V112.468Z" fill="white"/>
<path d="M122.828 117.74C123.095 117.896 123.292 118.288 123.271 118.627C123.244 118.954 122.999 119.094 122.732 118.938L115.736 114.816C115.469 114.661 115.271 114.268 115.293 113.93C115.319 113.602 115.565 113.462 115.832 113.618L122.828 117.74Z" fill="white"/>
<path d="M118.276 137.072C118.484 137.201 118.639 137.497 118.612 137.755L118.586 138.029C118.564 138.287 118.377 138.383 118.169 138.265L111.632 134.423C111.424 134.294 111.269 133.998 111.296 133.74L111.323 133.466C111.344 133.208 111.531 133.111 111.739 133.23L118.276 137.083V137.072Z" fill="white"/>
<path d="M84.4084 123.347C84.6113 123.465 84.7555 123.755 84.7342 123.992L84.7075 124.32C84.6861 124.562 84.5099 124.658 84.3069 124.54L76.4353 119.902C76.2323 119.784 76.0882 119.494 76.1095 119.257L76.1362 118.93C76.1576 118.688 76.3338 118.591 76.5367 118.704L84.4031 123.331V123.342L84.4084 123.347Z" fill="#D591FF"/>
<path d="M84.6728 108.419C84.9078 108.559 85.0786 108.908 85.0573 109.198L85.0466 109.349C85.0199 109.639 84.817 109.768 84.5713 109.618L77.3885 105.388C77.1536 105.249 76.972 104.888 76.9987 104.609L77.0094 104.459C77.0361 104.168 77.2497 104.05 77.4847 104.184L84.6674 108.414V108.425L84.6728 108.419Z" fill="#D591FF"/>
<path d="M82.5562 103.62C82.7592 103.738 82.9033 104.029 82.882 104.265L82.8553 104.593C82.8339 104.835 82.6577 104.931 82.4548 104.813L77.6111 101.965C77.4081 101.847 77.2639 101.557 77.2853 101.32L77.312 100.992C77.3334 100.751 77.5096 100.654 77.7125 100.777L82.5562 103.626V103.615V103.62Z" fill="white"/>
<path d="M120.857 152.944C121.124 153.1 121.322 153.492 121.3 153.831C121.274 154.159 121.028 154.304 120.761 154.143L113.765 150.021C113.498 149.865 113.301 149.462 113.322 149.123C113.349 148.796 113.594 148.656 113.861 148.812L120.857 152.934V152.944Z" fill="white"/>
<path d="M82.8681 143.61C83.1031 143.749 83.274 144.099 83.2526 144.389L83.2419 144.539C83.2152 144.83 83.0123 144.959 82.7666 144.808L75.5839 140.579C75.3489 140.439 75.1673 140.084 75.194 139.8L75.2047 139.649C75.2314 139.359 75.445 139.241 75.68 139.375L82.8628 143.604V143.615L82.8681 143.61Z" fill="#D591FF"/>
<path d="M80.7398 138.811C80.9427 138.929 81.0869 139.219 81.0656 139.456L81.0389 139.783C81.0175 140.025 80.8413 140.122 80.6383 140.009L75.7947 137.161C75.5917 137.043 75.4475 136.753 75.4689 136.516L75.4956 136.188C75.517 135.946 75.6932 135.85 75.8961 135.968L80.7398 138.816V138.811Z" fill="#D591FF"/>
<path d="M128.862 62.3464C122.692 58.7854 117.693 50.161 117.693 43.0818C117.693 40.4565 118.388 38.4247 119.569 37.0773C116.185 37.3232 113.896 40.157 113.896 44.9371C113.896 52.0163 118.896 60.6408 125.066 64.2017C128.942 66.4367 132.343 66.1319 134.343 63.8435C132.723 63.9611 130.857 63.4906 128.862 62.341V62.3464Z" fill="#66BDFF" stroke="#220E6E" stroke-width="0.75" stroke-linecap="round" stroke-linejoin="round"/>
<path d="M139.718 60.01C139.718 59.1224 139.643 58.2188 139.526 57.3045L144.038 56.7324C143.579 54.46 142.884 52.1609 141.991 49.8992L136.847 48.3432C135.949 46.4184 134.869 44.5577 133.644 42.82L134.879 37.6282C133.355 35.7247 131.703 33.9709 129.955 32.4364L127.185 36.0188C126.447 35.4627 125.693 34.9387 124.924 34.4949C124.154 34.0512 123.4 33.7036 122.662 33.4095L119.892 26.6298C118.144 26.1485 116.492 25.9881 114.968 26.1325L116.203 32.7465C114.978 33.0673 113.898 33.6822 113 34.5698L107.856 30.1854C106.964 31.4205 106.268 32.9176 105.809 34.6553L110.321 40.4406C110.209 41.2212 110.129 42.0447 110.129 42.9269C110.129 43.8091 110.204 44.7181 110.321 45.6324L105.809 46.2045C106.268 48.4769 106.964 50.776 107.856 53.0377L113 54.5937C113.898 56.5185 114.978 58.3792 116.203 60.1169L114.968 65.3087C116.492 67.2122 118.144 68.966 119.892 70.5005L122.662 66.9181C123.4 67.4742 124.154 67.9982 124.924 68.442C125.693 68.8857 126.447 69.2333 127.185 69.5274L129.955 76.3071C131.703 76.7884 133.355 76.9488 134.879 76.8044L133.644 70.1904C134.869 69.8696 135.949 69.2547 136.847 68.3671L141.991 72.7515C142.884 71.5164 143.579 70.0193 144.038 68.2816L139.526 62.4963C139.638 61.7157 139.718 60.8922 139.718 60.01V60.01ZM125.068 64.2019C118.898 60.6409 113.898 52.0165 113.898 44.9373C113.898 37.8581 118.898 35.0082 125.068 38.5692C131.238 42.1302 136.237 50.7547 136.237 57.8339C136.237 64.9131 131.238 67.7629 125.068 64.2019Z" fill="#ABD9FF" stroke="#220E6E" stroke-width="0.75" stroke-linecap="round" stroke-linejoin="round"/>
<path d="M126.986 30.9176L124.216 24.1378L119.891 26.6241L122.655 33.4039L126.986 30.9176Z" fill="#66BDFF" stroke="#220E6E" stroke-width="0.75" stroke-linecap="round" stroke-linejoin="round"/>
<path d="M122.654 33.404C123.392 33.6981 124.146 34.0456 124.916 34.4894C125.686 34.9332 126.44 35.4572 127.178 36.0133L129.947 32.4309C129.947 32.4309 129.482 32.1368 129.242 32.0031C128.472 31.5593 127.718 31.2118 126.98 30.9177L122.654 33.404V33.404Z" fill="#D1EBFF" stroke="#220E6E" stroke-width="0.75" stroke-linecap="round" stroke-linejoin="round"/>
<path d="M124.215 24.1379C122.466 23.6567 120.814 23.4963 119.29 23.6407L114.965 26.127C116.489 25.9826 118.141 26.143 119.889 26.6242L124.215 24.1379V24.1379Z" fill="#D1EBFF" stroke="#220E6E" stroke-width="0.75" stroke-linecap="round" stroke-linejoin="round"/>
<path d="M139.205 35.1416C137.681 33.2381 136.029 31.4844 134.281 29.9498L129.955 32.4361C131.703 33.9706 133.356 35.7244 134.88 37.6279L139.205 35.1416Z" fill="#D1EBFF" stroke="#220E6E" stroke-width="0.75" stroke-linecap="round" stroke-linejoin="round"/>
<path d="M134.88 37.628L133.65 42.8198L137.976 40.3335L139.211 35.1417L134.88 37.628Z" fill="#66BDFF" stroke="#220E6E" stroke-width="0.75" stroke-linecap="round" stroke-linejoin="round"/>
<path d="M133.65 42.8198C134.875 44.5575 135.955 46.4182 136.853 48.343L141.179 45.8568C140.28 43.9319 139.2 42.0712 137.976 40.3335L133.65 42.8198Z" fill="#66BDFF" stroke="#220E6E" stroke-width="0.75" stroke-linecap="round" stroke-linejoin="round"/>
<path d="M136.854 48.3431L141.997 49.899L146.323 47.4127L141.179 45.8568L136.854 48.3431Z" fill="#D1EBFF" stroke="#220E6E" stroke-width="0.75" stroke-linecap="round" stroke-linejoin="round"/>
<path d="M141.994 49.8989C142.887 52.1606 143.582 54.4597 144.042 56.7321L148.368 54.2458C147.908 51.9734 147.213 49.6743 146.32 47.4126L141.994 49.8989Z" fill="#66BDFF" stroke="#220E6E" stroke-width="0.75" stroke-linecap="round" stroke-linejoin="round"/>
<path d="M116.196 32.7409L115.838 30.816L112.175 27.6935L107.85 30.1798L112.993 34.5642C113.892 33.6766 114.972 33.0617 116.196 32.7409Z" fill="#66BDFF" stroke="#220E6E" stroke-width="0.75" stroke-linecap="round" stroke-linejoin="round"/>
<path d="M144.036 68.2811C143.576 70.0241 142.881 71.5159 141.988 72.751L146.314 70.2648C147.207 69.0296 147.902 67.5325 148.362 65.7948L144.036 68.2811Z" fill="#66BDFF" stroke="#220E6E" stroke-width="0.75" stroke-linecap="round" stroke-linejoin="round"/>
<path d="M143.849 60.015C143.961 59.2344 144.042 58.411 144.042 57.5288C144.042 57.2668 144.025 57.0048 144.009 56.7374L139.523 57.3042C139.636 58.2185 139.716 59.1275 139.716 60.0097C139.716 60.8919 139.641 61.7153 139.523 62.496L143.849 60.0097V60.015Z" fill="#66BDFF" stroke="#220E6E" stroke-width="0.75" stroke-linecap="round" stroke-linejoin="round"/>
<path d="M139.523 62.4959L144.036 68.2812L148.367 65.7949L143.849 60.015L139.523 62.4959Z" fill="#D1EBFF" stroke="#220E6E" stroke-width="0.75" stroke-linecap="round" stroke-linejoin="round"/>
<path d="M136.853 68.3723C135.955 69.2599 134.875 69.8748 133.65 70.1956L134.886 76.8096L139.211 74.3233L138.34 69.6342L136.858 68.3723H136.853Z" fill="#66BDFF" stroke="#220E6E" stroke-width="0.75" stroke-linecap="round" stroke-linejoin="round"/>
<path d="M110.155 43.6537L105.803 46.2095L110.315 45.6374C110.23 44.969 110.182 44.3113 110.155 43.6537Z" fill="#D1EBFF" stroke="#220E6E" stroke-width="0.75" stroke-linecap="round" stroke-linejoin="round"/>
<path d="M122.654 66.9177L119.885 70.5001L124.242 68.0192C123.708 67.677 123.173 67.3134 122.654 66.9177V66.9177Z" fill="#66BDFF" stroke="#220E6E" stroke-width="0.75" stroke-linecap="round" stroke-linejoin="round"/>
<defs>
<linearGradient id="paint0_linear_353_8233" x1="52.3234" y1="26.6748" x2="129.458" y2="125.407" gradientUnits="userSpaceOnUse">
<stop stop-color="#F3E0FF"/>
<stop offset="0.40625" stop-color="#DBE3FF"/>
<stop offset="1" stop-color="#BFF2FD"/>
</linearGradient>
<linearGradient id="paint1_linear_353_8233" x1="72.5218" y1="37.3797" x2="171.064" y2="58.8968" gradientUnits="userSpaceOnUse">
<stop stop-color="#E6C1FF"/>
<stop offset="0.40625" stop-color="#B6C7FF"/>
<stop offset="1" stop-color="#AFF1FF"/>
</linearGradient>
<linearGradient id="paint2_linear_353_8233" x1="24.5551" y1="17.4181" x2="88.834" y2="111.008" gradientUnits="userSpaceOnUse">
<stop stop-color="#F45FAE"/>
<stop offset="0.21" stop-color="#874AE4"/>
<stop offset="0.46" stop-color="#1B87FF"/>
<stop offset="0.77" stop-color="#1DA4FF"/>
<stop offset="1" stop-color="#4AEAFF"/>
</linearGradient>
<linearGradient id="paint3_linear_353_8233" x1="27.364" y1="30.5508" x2="27.364" y2="69.7862" gradientUnits="userSpaceOnUse">
<stop stop-color="#43FFFD"/>
<stop offset="1" stop-color="#1E94D7"/>
</linearGradient>
<linearGradient id="paint4_linear_353_8233" x1="69.6973" y1="75.5733" x2="132.063" y2="154.394" gradientUnits="userSpaceOnUse">
<stop stop-color="#F45FAE"/>
<stop offset="0.21" stop-color="#874AE4"/>
<stop offset="0.46" stop-color="#1B87FF"/>
<stop offset="0.77" stop-color="#1DA4FF"/>
<stop offset="1" stop-color="#4AEAFF"/>
</linearGradient>
</defs>
</svg>
