<svg width="182" height="184" viewBox="0 0 182 184" fill="none" xmlns="http://www.w3.org/2000/svg">
<path d="M36.8945 160.272L125.151 109.359V71.855L36.8945 122.795V160.272Z" fill="#B4CAED" stroke="#220E6E" stroke-width="0.75" stroke-linejoin="round"/>
<path d="M36.8952 160.272V122.795L17.9297 111.843V149.32L36.8952 160.272Z" fill="#DAE5F8" stroke="#220E6E" stroke-width="0.75" stroke-linejoin="round"/>
<path d="M36.8952 122.795L125.152 71.855L106.186 60.9031L17.9297 111.843L36.8952 122.795Z" fill="white" stroke="#220E6E" stroke-width="0.75" stroke-linejoin="round"/>
<path d="M35.4824 121.967L123.739 71.0535V68.783L35.4824 119.723V121.967Z" fill="#295E87" stroke="#220E6E" stroke-width="0.75" stroke-linejoin="round"/>
<path d="M35.4849 121.967V119.723L19.4043 110.427V112.671L35.4849 121.967Z" fill="#536FF8" stroke="#220E6E" stroke-width="0.75" stroke-linejoin="round"/>
<path d="M35.4849 119.723L123.741 68.783L107.661 59.5139L19.4043 110.427L35.4849 119.723Z" fill="#BDC1EE" stroke="#220E6E" stroke-width="0.75" stroke-linejoin="round"/>
<path d="M29.9815 116.544L118.238 65.604L113.243 62.7191L24.9863 113.659L29.9815 116.544Z" fill="#220E6E"/>
<path d="M26.5098 113.632L27.418 114.167L113.11 64.7495L115.594 66.192L116.529 65.6577L113.11 63.681L26.5098 113.632Z" fill="#220E6E"/>
<path d="M27.418 114.167L29.9289 115.636L115.594 66.192L113.11 64.7495L27.418 114.167Z" fill="#536FF8" stroke="#220E6E" stroke-width="0.75" stroke-linejoin="round"/>
<path d="M64.8612 181.801L169.385 101.799L121.891 74.3657C119.728 73.1103 116.736 73.2705 113.45 75.1671L25.5678 125.92C18.9967 129.713 13.6543 138.982 13.6543 146.568C13.6543 150.361 14.9899 153.006 17.1269 154.261C17.1269 154.261 17.1269 154.261 17.1536 154.261L64.8612 181.801V181.801Z" fill="url(#paint0_linear_353_8231)" stroke="#220E6E" stroke-width="0.75"/>
<path d="M161.024 130.167L73.1421 180.92C66.5709 184.713 61.2285 181.615 61.2285 174.055C61.2285 166.496 66.5709 157.2 73.1421 153.407L161.024 102.654C167.596 98.8608 172.938 101.959 172.938 109.519C172.938 117.078 167.596 126.374 161.024 130.167Z" fill="#536FF8" stroke="#220E6E" stroke-width="0.75" stroke-linejoin="round"/>
<path d="M171.606 106.18L168.507 104.043C166.637 102.814 163.993 102.894 161.028 104.604L73.1454 155.356C67.5092 158.615 62.9414 166.549 62.9414 173.066C62.9414 176.138 63.9565 178.355 65.6393 179.477L68.818 181.694L69.1653 180.332C70.394 180.225 71.7296 179.771 73.1454 178.97L161.028 128.217C166.691 124.958 171.258 117.025 171.258 110.507C171.258 109.465 171.125 108.53 170.911 107.702L171.606 106.206V106.18Z" fill="white" stroke="#220E6E" stroke-width="0.75" stroke-linejoin="round"/>
<path d="M164.178 106.794L76.2951 157.52C70.6589 160.779 66.0645 168.713 66.0645 175.23C66.0645 181.748 70.6322 184.392 76.2951 181.134L164.178 130.408C169.814 127.149 174.408 119.215 174.408 112.698C174.408 106.18 169.84 103.535 164.178 106.794V106.794Z" fill="#BDC1EE" stroke="#220E6E" stroke-width="0.75" stroke-linejoin="round"/>
<path d="M170.379 112.484L168.429 111.362C167.361 110.694 165.838 110.774 164.182 111.736C160.896 113.632 158.252 118.227 158.252 122.02C158.252 123.81 158.84 125.092 159.828 125.733L162.232 127.149L162.846 126.027C163.274 125.893 163.728 125.706 164.182 125.439C167.468 123.543 170.112 118.948 170.112 115.155C170.112 114.487 170.032 113.873 169.872 113.365L170.379 112.457V112.484Z" fill="#7A8EF0" stroke="#220E6E" stroke-width="0.75" stroke-linejoin="round"/>
<path d="M172.22 116.357C172.22 120.15 169.548 124.745 166.289 126.641C163.004 128.538 160.359 126.988 160.359 123.222C160.359 119.456 163.004 114.834 166.289 112.938C169.575 111.041 172.22 112.564 172.22 116.357Z" fill="#536FF8" stroke="#220E6E" stroke-width="0.75" stroke-linejoin="round"/>
<path d="M82.4872 163.21L80.564 162.088C79.4688 161.42 77.9729 161.5 76.3168 162.462C73.0312 164.358 70.3867 168.953 70.3867 172.746C70.3867 174.536 71.0011 175.818 71.9627 176.459L74.3668 177.875L74.9812 176.753C75.4086 176.619 75.8627 176.432 76.3168 176.165C79.6023 174.268 82.2468 169.674 82.2468 165.881C82.2468 165.213 82.14 164.599 82.0064 164.091L82.514 163.183L82.4872 163.21Z" fill="#7A8EF0" stroke="#220E6E" stroke-width="0.75" stroke-linejoin="round"/>
<path d="M84.3289 167.11C84.3289 170.903 81.6844 175.497 78.3988 177.394C75.1132 179.29 72.4688 177.741 72.4688 173.975C72.4688 170.208 75.1399 165.587 78.3988 163.691C81.6844 161.794 84.3289 163.343 84.3289 167.11V167.11Z" fill="#536FF8" stroke="#220E6E" stroke-width="0.75" stroke-linejoin="round"/>
<path d="M70.3984 117.018V142.255L94.0184 128.492V103.283L70.3984 117.018Z" fill="url(#paint1_linear_353_8231)" fill-opacity="0.9" stroke="#220E6E" stroke-width="0.75" stroke-linejoin="round"/>
<path d="M70.4216 117.018V142.255L46.7188 128.464V103.255L70.4216 117.018Z" fill="url(#paint2_linear_353_8231)" fill-opacity="0.9" stroke="#220E6E" stroke-width="0.75" stroke-linejoin="round"/>
<path d="M46.7188 103.256L70.4216 117.018L94.014 103.283L70.2835 89.4927L46.7188 103.256Z" fill="url(#paint3_linear_353_8231)" fill-opacity="0.9" stroke="#220E6E" stroke-width="0.75" stroke-linejoin="round"/>
<path d="M128.707 82.4324V107.641L152.327 93.9061V68.6971L128.707 82.4324Z" fill="url(#paint4_linear_353_8231)" fill-opacity="0.9" stroke="#220E6E" stroke-width="0.75" stroke-linejoin="round"/>
<path d="M128.736 82.4322V107.641L105.061 93.8782V68.6693L128.736 82.4322Z" fill="url(#paint5_linear_353_8231)" fill-opacity="0.9" stroke="#220E6E" stroke-width="0.75" stroke-linejoin="round"/>
<path d="M105.061 68.6696L128.736 82.4324L152.328 68.6972L128.625 54.9067L105.061 68.6696Z" fill="url(#paint6_linear_353_8231)" fill-opacity="0.9" stroke="#220E6E" stroke-width="0.75" stroke-linejoin="round"/>
<path d="M84.678 28.8221C83.9034 28.368 83.1822 28.3413 82.7014 28.6619L79.7363 30.3714L83.6897 36.996L86.628 35.3132C87.1088 35.0193 87.4294 34.4049 87.4294 33.5502C87.4294 31.8139 86.2006 29.6769 84.7048 28.7954L84.678 28.8221Z" fill="#536FF8" stroke="#220E6E" stroke-width="0.75" stroke-linejoin="round"/>
<path d="M81.7129 30.5586C80.1903 29.6771 78.9883 30.3984 78.9883 32.1346C78.9883 33.8709 80.217 35.9812 81.7129 36.8627C83.2088 37.7442 84.4375 37.0229 84.4375 35.2867C84.4375 33.5504 83.2088 31.4134 81.7129 30.5586Z" fill="#7A8EF0" stroke="#220E6E" stroke-width="0.75" stroke-linejoin="round"/>
<path d="M91.3294 55.7209C90.341 55.1333 89.4595 55.1065 88.8451 55.5339L85.1055 57.6976L90.0739 66.005L93.7334 63.8948C94.3478 63.5208 94.7218 62.7729 94.7218 61.6777C94.7218 59.514 93.1992 56.8428 91.3026 55.7476L91.3294 55.7209Z" fill="#536FF8" stroke="#220E6E" stroke-width="0.75" stroke-linejoin="round"/>
<path d="M87.5637 57.8846C85.6671 56.7894 84.1445 57.6709 84.1445 59.8613C84.1445 62.0517 85.6671 64.6961 87.5637 65.7913C89.4602 66.8865 90.9828 66.005 90.9828 63.8146C90.9828 61.6243 89.4602 58.9798 87.5637 57.8846Z" fill="#7A8EF0" stroke="#220E6E" stroke-width="0.75" stroke-linejoin="round"/>
<path d="M86.2814 34.7253C85.4801 31.4398 82.8623 28.3946 80.4315 27.9138C79.6836 27.7802 79.0425 27.8871 78.535 28.2076L74.3145 30.6384L77.5466 37.1027L78.161 36.7554L82.4883 59.3805C83.076 61.7846 84.4116 64.0818 86.0143 65.7647L88.2047 70.5194L92.5053 68.0352C94.1347 67.1537 94.8025 64.7496 94.0546 61.6777L86.228 34.752L86.2814 34.7253Z" fill="#BDC1EE" stroke="#220E6E" stroke-width="0.75" stroke-linejoin="round"/>
<path d="M81.8739 37.263C81.0725 33.9774 78.4548 30.959 76.024 30.4514C73.5932 29.9706 72.2576 32.2144 73.0589 35.5L78.1075 61.8914C79.1493 66.1921 82.5951 70.1722 85.7738 70.8132C88.9793 71.4543 90.7156 68.4893 89.6738 64.1887L81.8472 37.263H81.8739Z" fill="white" stroke="#220E6E" stroke-width="0.75" stroke-linejoin="round"/>
<path d="M81.1024 60.3152C80.2744 61.7577 80.9155 64.4556 82.5983 66.4055C84.2545 68.3288 86.2846 68.7562 87.1394 67.3138C87.9674 65.8713 87.3263 63.1467 85.6435 61.2234C83.9873 59.3002 81.9572 58.8995 81.1024 60.3152Z" fill="#7A8EF0" stroke="#220E6E" stroke-width="0.75" stroke-linejoin="round"/>
<path d="M74.9545 33.3632C74.26 34.5386 74.7943 36.7557 76.1566 38.3317C77.5189 39.9077 79.175 40.2549 79.8428 39.0796C80.5373 37.9043 79.9764 35.6872 78.6408 34.1112C77.2785 32.5352 75.6223 32.2146 74.9545 33.3632Z" fill="#7A8EF0" stroke="#220E6E" stroke-width="0.75" stroke-linejoin="round"/>
<path d="M81.3098 7.21179L74.9257 10.8713L77.3297 23.8266L74.1777 47.4133L80.5619 43.7271L90.2583 15.8665L81.3365 7.21179H81.3098Z" fill="#BDC1EE" stroke="#220E6E" stroke-width="0.75" stroke-linejoin="round"/>
<path d="M80.5104 18.8582C77.8926 17.3357 75.6755 14.0768 74.9543 10.8981L65.2578 38.7854L74.2063 47.4134L83.9028 19.5528C82.9411 19.7932 81.7925 19.5795 80.5371 18.8582H80.5104Z" fill="white" stroke="#220E6E" stroke-width="0.75" stroke-linejoin="round"/>
<path d="M86.8663 1.78927C85.2102 0.82764 83.7143 0.774216 82.6458 1.46873L76.3418 5.12827L84.7561 19.2055L90.98 15.6261H91.0067C92.0484 15.0117 92.6895 13.7028 92.6895 11.8597C92.6895 8.17344 90.0985 3.65911 86.8663 1.81598V1.78927Z" fill="#536FF8" stroke="#220E6E" stroke-width="0.75" stroke-linejoin="round"/>
<path d="M80.5094 5.4489C77.304 3.60577 74.7129 5.10164 74.7129 8.7879C74.7129 12.4741 77.304 16.9885 80.5094 18.8316C83.7148 20.6747 86.3059 19.1789 86.3059 15.4926C86.3059 11.8063 83.7148 7.29202 80.5094 5.4489Z" fill="#7A8EF0" stroke="#220E6E" stroke-width="0.75" stroke-linejoin="round"/>
<path d="M85.0762 10.6842L100.489 24.8683L106.9 23.2923L113.284 19.6327L91.4603 7.02466L85.0762 10.6842Z" fill="#BDC1EE" stroke="#220E6E" stroke-width="0.75" stroke-linejoin="round"/>
<path d="M106.9 23.2924L85.0762 10.6843C85.8508 12.2603 86.3049 13.9432 86.3049 15.4925C86.3049 17.0418 85.8508 18.2171 85.0762 18.8849L106.927 31.493C105.618 29.9971 104.709 27.8868 104.709 26.0971C104.709 24.3074 105.618 23.2657 106.927 23.2657L106.9 23.2924Z" fill="white" stroke="#220E6E" stroke-width="0.75" stroke-linejoin="round"/>
<path d="M84.3883 55.534C82.1979 54.2519 80.2212 54.1984 78.8322 55.1334L72.3145 58.873L75.0925 63.4141L77.4699 62.3456L85.1362 90.5L91.9478 86.5734V68.6496C91.9478 63.8147 88.5553 57.9381 84.3616 55.534H84.3883Z" fill="#BDC1EE" stroke="#220E6E" stroke-width="0.75" stroke-linejoin="round"/>
<path d="M77.5764 59.4607C73.4094 57.0567 69.9902 59.0066 69.9902 63.8415V81.7652L85.1359 90.5268V72.603C85.1359 67.7682 81.7435 61.8915 77.5497 59.4874L77.5764 59.4607Z" fill="#7A8EF0" stroke="#220E6E" stroke-width="0.75" stroke-linejoin="round"/>
<path d="M75.2775 41.0562C74.4762 37.7706 71.8584 34.7255 69.4276 34.2447C68.6797 34.0844 68.0386 34.1912 67.531 34.5118L63.3105 36.9426L66.5427 43.4069L67.1571 43.0329L71.4844 65.6579C72.0721 68.062 73.4077 70.3593 75.0104 72.0421L77.2008 76.7968L81.5014 74.3126C83.1308 73.4311 83.7986 71.0538 83.0507 67.9819L75.2241 41.0562H75.2775Z" fill="#BDC1EE" stroke="#220E6E" stroke-width="0.75" stroke-linejoin="round"/>
<path d="M70.868 43.5937C70.0667 40.3348 67.4489 37.2897 65.0181 36.8089C62.5873 36.328 61.2517 38.5719 62.0531 41.8574L67.1016 68.2222C68.1434 72.5228 71.5893 76.5029 74.768 77.144C77.9734 77.785 79.7097 74.82 78.6679 70.5194L70.868 43.5937V43.5937Z" fill="white" stroke="#220E6E" stroke-width="0.75" stroke-linejoin="round"/>
<path d="M66.4352 39.3733C65.6339 38.9192 64.9394 38.8925 64.4318 39.213L61.4668 40.9226L65.4469 47.5472L68.3585 45.8643C68.8393 45.5705 69.1331 44.9561 69.1331 44.0746C69.1331 42.3383 67.9044 40.2281 66.4085 39.3466L66.4352 39.3733Z" fill="#536FF8" stroke="#220E6E" stroke-width="0.75" stroke-linejoin="round"/>
<path d="M63.4434 41.1097C61.9208 40.2282 60.7188 40.9494 60.7188 42.6857C60.7188 44.4219 61.9475 46.5589 63.4434 47.4137C64.9392 48.2685 66.168 47.574 66.168 45.8377C66.168 44.1014 64.9392 41.9912 63.4434 41.1097Z" fill="#7A8EF0" stroke="#220E6E" stroke-width="0.75" stroke-linejoin="round"/>
<path d="M73.0566 66.2458C72.0682 65.6849 71.1867 65.6581 70.5723 66.0588L66.8594 68.2225L71.8278 76.5299L75.4873 74.4197C76.1017 74.0457 76.4757 73.2711 76.4757 72.2026C76.4757 70.0122 74.9531 67.3677 73.0566 66.2725V66.2458Z" fill="#536FF8" stroke="#220E6E" stroke-width="0.75" stroke-linejoin="round"/>
<path d="M69.3176 68.4361C67.421 67.3409 65.8984 68.2224 65.8984 70.4128C65.8984 72.6032 67.421 75.2476 69.3176 76.3428C71.1874 77.438 72.7367 76.5565 72.7367 74.3662C72.7367 72.1758 71.1874 69.5313 69.3176 68.4361Z" fill="#7A8EF0" stroke="#220E6E" stroke-width="0.75" stroke-linejoin="round"/>
<path d="M142.003 40.7622C142.003 39.2396 140.962 37.4232 139.626 36.6485C138.958 36.2746 138.371 36.2479 137.916 36.4883L135.459 37.9307L138.905 43.7005L141.309 42.3115C141.736 42.0711 141.977 41.5368 141.977 40.7889L142.003 40.7622Z" fill="#220E6E" stroke="#220E6E" stroke-width="0.75" stroke-linejoin="round"/>
<path d="M139.598 42.1779C139.598 43.7005 138.53 44.3149 137.221 43.5402C135.912 42.7923 134.844 40.9492 134.844 39.4266C134.844 37.904 135.912 37.3163 137.221 38.0643C138.53 38.8389 139.598 40.6553 139.598 42.1779V42.1779Z" fill="#7A8EF0" stroke="#220E6E" stroke-width="0.75" stroke-linejoin="round"/>
<path d="M141.228 42.5519C141.228 40.2813 139.625 37.53 137.675 36.3814C136.687 35.7937 135.779 35.767 135.138 36.141L133.615 37.0225L134.149 37.9574C134.149 38.1177 134.123 38.2512 134.123 38.4382C134.123 40.7087 135.725 43.4601 137.675 44.6087C137.836 44.6888 137.969 44.7689 138.13 44.8224L138.664 45.7573L140.213 44.8758C140.854 44.5018 141.228 43.7005 141.228 42.5786V42.5519Z" fill="#536FF8" stroke="#220E6E" stroke-width="0.75" stroke-linejoin="round"/>
<path d="M139.65 43.4333C139.65 45.7038 138.048 46.6121 136.098 45.4902C134.148 44.3682 132.545 41.5902 132.545 39.3197C132.545 37.0492 134.148 36.141 136.098 37.2629C138.074 38.4115 139.65 41.1628 139.65 43.4333Z" fill="#7A8EF0" stroke="#220E6E" stroke-width="0.75" stroke-linejoin="round"/>
<path d="M129.335 54.4117V57.6706C129.335 58.098 129.629 58.5521 130.19 58.8726C131.339 59.5404 133.209 59.5404 134.384 58.8726C134.945 58.5521 135.239 58.098 135.239 57.6706V54.4117H129.309H129.335Z" fill="#536FF8" stroke="#220E6E" stroke-width="0.75" stroke-linejoin="round"/>
<path d="M134.383 55.6139C133.235 56.2817 131.365 56.2817 130.19 55.6139C129.041 54.9461 129.041 53.8776 130.19 53.1831C131.338 52.5153 133.208 52.5153 134.383 53.1831C135.532 53.8509 135.532 54.9194 134.383 55.6139Z" fill="#220E6E" stroke="#220E6E" stroke-width="0.75" stroke-linejoin="round"/>
<path d="M127.307 52.3817V53.8242H127.333C127.333 54.5454 127.814 55.2933 128.803 55.8543C130.726 56.9762 133.905 56.9762 135.828 55.8543C136.789 55.2933 137.297 54.5721 137.297 53.8242V52.3817H127.333H127.307Z" fill="#BDC1EE" stroke="#220E6E" stroke-width="0.75" stroke-linejoin="round"/>
<path d="M135.826 54.4119C133.902 55.5338 130.724 55.5338 128.8 54.4119C126.85 53.29 126.85 51.4736 128.8 50.3517C130.724 49.2298 133.902 49.2298 135.826 50.3517C137.776 51.4736 137.776 53.29 135.826 54.4119Z" fill="white" stroke="#220E6E" stroke-width="0.75" stroke-linejoin="round"/>
<path d="M128.434 49.3102V52.0348C128.434 52.5958 128.808 53.1834 129.556 53.6108C131.079 54.4656 133.51 54.4656 135.005 53.6108C135.753 53.1834 136.127 52.5958 136.127 52.0348V49.3102H128.381H128.434Z" fill="#BDC1EE" stroke="#220E6E" stroke-width="0.75" stroke-linejoin="round"/>
<path d="M135.028 50.8864C133.532 51.7411 131.102 51.7411 129.579 50.8864C128.083 50.0049 128.083 48.5891 129.579 47.7343C131.102 46.8796 133.532 46.8796 135.028 47.7343C136.551 48.5891 136.551 50.0049 135.028 50.8864Z" fill="#220E6E" stroke="#220E6E" stroke-width="0.75" stroke-linejoin="round"/>
<path d="M129.045 48.1615V49.0964C129.045 49.5772 129.365 50.0581 130.007 50.432C131.289 51.18 133.346 51.18 134.601 50.432C135.242 50.0581 135.563 49.5772 135.563 49.0964V48.1615H129.045Z" fill="#220E6E" stroke="#220E6E" stroke-width="0.75" stroke-linejoin="round"/>
<path d="M134.601 49.4972C133.319 50.2451 131.262 50.2451 130.007 49.4972C128.724 48.776 128.724 47.5739 130.007 46.8527C131.289 46.1048 133.346 46.1048 134.601 46.8527C135.883 47.5739 135.883 48.776 134.601 49.4972Z" fill="#220E6E" stroke="#220E6E" stroke-width="0.75" stroke-linejoin="round"/>
<path d="M132.303 52.8896L140.183 48.3486V39.2131L131.368 34.1378L123.461 38.6789L132.303 43.7808V52.8896Z" fill="white" stroke="#220E6E" stroke-width="0.75" stroke-linejoin="round"/>
<path d="M123.461 47.7874L132.303 52.8894V43.7806L123.461 38.6786V47.7874Z" fill="#BDC1EE" stroke="#220E6E" stroke-width="0.75" stroke-linejoin="round"/>
<path d="M127.287 35.9008V38.8391C127.287 39.587 127.768 40.3349 128.756 40.8959C130.706 42.0445 133.912 42.0445 135.862 40.8959C136.85 40.3349 137.331 39.587 137.331 38.8391V35.9008H127.287Z" fill="#536FF8" stroke="#220E6E" stroke-width="0.75" stroke-linejoin="round"/>
<path d="M135.861 37.9576C133.911 39.0795 130.705 39.0795 128.755 37.9576C126.805 36.8357 126.805 34.9926 128.755 33.844C130.705 32.7221 133.911 32.7221 135.861 33.844C137.811 34.9926 137.811 36.809 135.861 37.9576Z" fill="#7A8EF0" stroke="#220E6E" stroke-width="0.75" stroke-linejoin="round"/>
<path d="M127.814 25.9106V35.6338C127.814 36.3016 128.242 36.9694 129.123 37.4502C130.86 38.4653 133.718 38.4653 135.454 37.4502C136.336 36.9427 136.763 36.2749 136.763 35.6338V25.9106H127.814Z" fill="#536FF8" stroke="#220E6E" stroke-width="0.75" stroke-linejoin="round"/>
<path d="M135.453 27.7272C133.717 28.7423 130.886 28.7423 129.123 27.7272C127.386 26.7122 127.386 25.0827 129.123 24.0677C130.859 23.0526 133.717 23.0526 135.453 24.0677C137.19 25.0827 137.19 26.7122 135.453 27.7272V27.7272Z" fill="#7A8EF0" stroke="#220E6E" stroke-width="0.75" stroke-linejoin="round"/>
<path d="M115.031 20.1671C113.882 19.4993 112.84 19.4726 112.119 19.9534L105.842 23.5862L111.665 33.1491L117.755 29.6498C117.755 29.6498 117.862 29.5964 117.916 29.5697C118.583 29.1156 118.984 28.2608 118.984 27.0588C118.984 24.5211 117.221 21.4492 115.004 20.1938L115.031 20.1671Z" fill="#536FF8" stroke="#220E6E" stroke-width="0.75" stroke-linejoin="round"/>
<path d="M108.671 23.8263C106.481 22.5709 104.691 23.5859 104.691 26.1236C104.691 28.6612 106.454 31.7331 108.671 32.9885C110.862 34.244 112.652 33.229 112.652 30.6913C112.652 28.1537 110.862 25.0818 108.671 23.7996V23.8263Z" fill="#7A8EF0" stroke="#220E6E" stroke-width="0.75" stroke-linejoin="round"/>
<path d="M127.878 42.2579C127.023 41.7771 126.275 41.7237 125.714 42.0442L119.33 45.7305L123.818 53.1297L130.042 49.5503C130.042 49.5503 130.042 49.5503 130.068 49.5503C130.603 49.203 130.95 48.5352 130.95 47.5736C130.95 45.6236 129.587 43.2462 127.878 42.2579V42.2579Z" fill="#536FF8" stroke="#220E6E" stroke-width="0.75" stroke-linejoin="round"/>
<path d="M121.519 45.9174C119.836 44.929 118.447 45.7304 118.447 47.6804C118.447 49.6303 119.836 52.0077 121.519 52.996C123.229 53.9844 124.591 53.183 124.591 51.2331C124.591 49.2831 123.229 46.9057 121.519 45.9174Z" fill="#7A8EF0" stroke="#220E6E" stroke-width="0.75" stroke-linejoin="round"/>
<path d="M112.623 30.264L115.748 38.144L122.854 47.0658L129.238 43.3796L119.007 26.5778L112.623 30.264Z" fill="#BDC1EE" stroke="#220E6E" stroke-width="0.75" stroke-linejoin="round"/>
<path d="M119.383 31.9469L124.244 39.9071L124.805 39.5865L119.944 31.6263L119.383 31.9469Z" fill="white" stroke="#220E6E" stroke-width="0.75" stroke-linejoin="round"/>
<path d="M116.924 33.3892L121.785 41.3494L124.243 39.9069L119.381 31.9468L116.924 33.3892Z" fill="#98DAC6" stroke="#220E6E" stroke-width="0.75" stroke-linejoin="round"/>
<path d="M112.653 30.718C112.653 33.2557 110.863 34.2707 108.673 33.0153C108.673 33.0153 108.646 33.0153 108.619 32.9618L118.93 49.8972C118.609 49.176 118.449 48.4014 118.449 47.7069C118.449 45.7569 119.838 44.9555 121.521 45.9439C122.002 46.211 122.456 46.6117 122.857 47.0925L112.626 30.2906C112.626 30.4509 112.626 30.5845 112.626 30.7448L112.653 30.718Z" fill="white" stroke="#220E6E" stroke-width="0.75" stroke-linejoin="round"/>
<defs>
<linearGradient id="paint0_linear_353_8231" x1="18.9393" y1="144.751" x2="91.7462" y2="211.784" gradientUnits="userSpaceOnUse">
<stop stop-color="#E7E3FF"/>
<stop offset="1" stop-color="#8EB9D1"/>
</linearGradient>
<linearGradient id="paint1_linear_353_8231" x1="71.1204" y1="97.4854" x2="97.4451" y2="108.679" gradientUnits="userSpaceOnUse">
<stop stop-color="#FF47A9"/>
<stop offset="1" stop-color="#703AC2"/>
</linearGradient>
<linearGradient id="paint2_linear_353_8231" x1="47.4432" y1="97.4536" x2="73.8376" y2="108.708" gradientUnits="userSpaceOnUse">
<stop stop-color="#703AC2"/>
<stop offset="0.338542" stop-color="#0070EB"/>
<stop offset="0.661458" stop-color="#0297FB"/>
<stop offset="1" stop-color="#0AE2FF"/>
</linearGradient>
<linearGradient id="paint3_linear_353_8231" x1="48.1643" y1="85.3979" x2="73.5369" y2="115.983" gradientUnits="userSpaceOnUse">
<stop stop-color="#0AE2FF"/>
<stop offset="0.328125" stop-color="#0297FB"/>
<stop offset="0.645833" stop-color="#0070EB"/>
<stop offset="1" stop-color="#703AC2"/>
</linearGradient>
<linearGradient id="paint4_linear_353_8231" x1="129.429" y1="62.9038" x2="155.748" y2="74.1026" gradientUnits="userSpaceOnUse">
<stop stop-color="#FF47A9"/>
<stop offset="1" stop-color="#703AC2"/>
</linearGradient>
<linearGradient id="paint5_linear_353_8231" x1="105.784" y1="62.8719" x2="132.151" y2="74.1095" gradientUnits="userSpaceOnUse">
<stop stop-color="#703AC2"/>
<stop offset="0.338542" stop-color="#0070EB"/>
<stop offset="0.661458" stop-color="#0297FB"/>
<stop offset="1" stop-color="#0AE2FF"/>
</linearGradient>
<linearGradient id="paint6_linear_353_8231" x1="106.505" y1="50.812" x2="131.881" y2="81.3824" gradientUnits="userSpaceOnUse">
<stop stop-color="#0AE2FF"/>
<stop offset="0.328125" stop-color="#0297FB"/>
<stop offset="0.645833" stop-color="#0070EB"/>
<stop offset="1" stop-color="#703AC2"/>
</linearGradient>
</defs>
</svg>
