<svg width="614" height="382" viewBox="0 0 614 382" fill="none" xmlns="http://www.w3.org/2000/svg">
<path opacity="0.3" d="M174.257 375.821C128.523 375.821 81.2129 372.095 81.2129 365.865C81.2129 359.635 128.523 355.909 174.257 355.909C219.991 355.909 267.301 359.635 267.301 365.865C267.301 372.095 219.991 375.821 174.257 375.821Z" fill="url(#paint0_linear_335_382)"/>
<path d="M313.621 103.55H27L99.413 333.948H244.952L313.621 103.55Z" fill="url(#paint1_linear_335_382)"/>
<g style="mix-blend-mode:multiply" opacity="0.7">
<path d="M129.647 336.49L89.1406 195.004L148.313 185.075L155.669 333.953C155.669 333.953 138.128 338.229 129.654 336.48L129.647 336.49Z" fill="url(#paint2_linear_335_382)"/>
</g>
<g style="mix-blend-mode:multiply" opacity="0.7">
<path d="M188.636 331.599L199.002 184.794L257.999 195.718L213.954 338.121C213.954 338.121 196.009 336.136 188.646 331.592L188.636 331.599Z" fill="url(#paint3_linear_335_382)"/>
</g>
<path fill-rule="evenodd" clip-rule="evenodd" d="M261.081 364.17C261.081 368.318 222.545 371.681 175.009 371.681C127.473 371.681 88.9369 368.318 88.9369 364.17C88.9369 364.077 88.9563 363.984 88.9949 363.892H88.7676L88.4473 358.1H124.299C138.521 357.194 156.049 356.659 175.009 356.659C193.969 356.659 211.497 357.194 225.719 358.1H261.561L260.931 363.722C261.031 363.87 261.081 364.02 261.081 364.17Z" fill="url(#paint4_linear_335_382)"/>
<path d="M88.9949 363.892L89.4563 364.084C89.5207 363.93 89.5037 363.754 89.411 363.614C89.3183 363.475 89.1621 363.392 88.9949 363.392V363.892ZM88.7676 363.892L88.2684 363.919C88.283 364.184 88.5022 364.392 88.7676 364.392V363.892ZM88.4473 358.1V357.6C88.3099 357.6 88.1785 357.657 88.0841 357.756C87.9896 357.856 87.9404 357.99 87.948 358.128L88.4473 358.1ZM124.299 358.1V358.6C124.31 358.6 124.32 358.6 124.331 358.599L124.299 358.1ZM225.719 358.1L225.687 358.599C225.698 358.6 225.708 358.6 225.719 358.6V358.1ZM261.561 358.1L262.058 358.156C262.074 358.014 262.029 357.873 261.934 357.767C261.839 357.661 261.703 357.6 261.561 357.6V358.1ZM260.931 363.722L260.434 363.667C260.421 363.785 260.45 363.903 260.516 364.002L260.931 363.722ZM175.009 372.181C198.787 372.181 220.32 371.34 235.915 369.979C243.709 369.299 250.034 368.488 254.418 367.583C256.606 367.132 258.336 366.652 259.529 366.144C260.123 365.89 260.613 365.618 260.963 365.317C261.308 365.02 261.581 364.638 261.581 364.17H260.581C260.581 364.221 260.553 364.351 260.311 364.559C260.073 364.763 259.689 364.988 259.136 365.224C258.036 365.693 256.384 366.157 254.216 366.604C249.889 367.497 243.609 368.304 235.828 368.983C220.27 370.341 198.767 371.181 175.009 371.181V372.181ZM88.4369 364.17C88.4369 364.638 88.7097 365.02 89.0554 365.317C89.405 365.618 89.8951 365.89 90.4894 366.144C91.6822 366.652 93.4119 367.132 95.5998 367.583C99.9837 368.488 106.309 369.299 114.103 369.979C129.698 371.34 151.231 372.181 175.009 372.181V371.181C151.251 371.181 129.748 370.341 114.19 368.983C106.409 368.304 100.129 367.497 95.8019 366.604C93.6343 366.157 91.982 365.693 90.8817 365.224C90.3294 364.988 89.9452 364.763 89.7071 364.559C89.4651 364.351 89.4369 364.221 89.4369 364.17H88.4369ZM88.5335 363.699C88.4716 363.847 88.4369 364.005 88.4369 364.17H89.4369C89.4369 364.148 89.4411 364.121 89.4563 364.084L88.5335 363.699ZM88.7676 364.392H88.9949V363.392H88.7676V364.392ZM87.948 358.128L88.2684 363.919L89.2668 363.864L88.9465 358.072L87.948 358.128ZM124.299 357.6H88.4473V358.6H124.299V357.6ZM175.009 356.159C156.041 356.159 138.502 356.694 124.267 357.601L124.331 358.599C138.541 357.693 156.058 357.159 175.009 357.159V356.159ZM225.751 357.601C211.516 356.694 193.977 356.159 175.009 356.159V357.159C193.96 357.159 211.477 357.693 225.687 358.599L225.751 357.601ZM261.561 357.6H225.719V358.6H261.561V357.6ZM261.428 363.778L262.058 358.156L261.064 358.044L260.434 363.667L261.428 363.778ZM261.581 364.17C261.581 363.901 261.489 363.657 261.346 363.443L260.516 364.002C260.572 364.084 260.581 364.138 260.581 364.17H261.581Z" fill="#3442C0"/>
<path fill-rule="evenodd" clip-rule="evenodd" d="M88.4473 358.1L99.4149 333.948H244.954L260.907 357.149C261.394 357.471 261.645 357.8 261.645 358.134C261.645 362.283 222.89 365.645 175.084 365.645C127.278 365.645 88.5229 362.283 88.5229 358.134C88.5229 358.123 88.5231 358.112 88.5237 358.1H88.4473Z" fill="url(#paint5_linear_335_382)"/>
<path d="M99.4149 333.948V333.448C99.2188 333.448 99.0408 333.562 98.9597 333.741L99.4149 333.948ZM88.4473 358.1L87.992 357.893C87.9217 358.048 87.9349 358.228 88.0269 358.371C88.119 358.514 88.2773 358.6 88.4473 358.6V358.1ZM244.954 333.948L245.366 333.664C245.272 333.529 245.118 333.448 244.954 333.448V333.948ZM260.907 357.149L260.495 357.432C260.531 357.485 260.577 357.53 260.631 357.566L260.907 357.149ZM88.5237 358.1L89.0231 358.126C89.0301 357.989 88.9806 357.855 88.8862 357.756C88.7918 357.656 88.6607 357.6 88.5237 357.6V358.1ZM98.9597 333.741L87.992 357.893L88.9025 358.307L99.8702 334.154L98.9597 333.741ZM244.954 333.448H99.4149V334.448H244.954V333.448ZM261.319 356.865L245.366 333.664L244.542 334.231L260.495 357.432L261.319 356.865ZM262.145 358.134C262.145 357.534 261.7 357.075 261.183 356.732L260.631 357.566C261.087 357.868 261.145 358.066 261.145 358.134H262.145ZM175.084 366.145C198.997 366.145 220.652 365.304 236.335 363.944C244.174 363.263 250.535 362.452 254.943 361.548C257.143 361.096 258.883 360.617 260.082 360.108C260.679 359.855 261.172 359.582 261.523 359.282C261.87 358.986 262.145 358.603 262.145 358.134H261.145C261.145 358.184 261.117 358.314 260.873 358.522C260.634 358.727 260.247 358.952 259.691 359.188C258.584 359.657 256.922 360.121 254.742 360.568C250.39 361.461 244.074 362.268 236.249 362.947C220.603 364.305 198.977 365.145 175.084 365.145V366.145ZM88.0229 358.134C88.0229 358.603 88.2979 358.986 88.645 359.282C88.9962 359.582 89.4889 359.855 90.0863 360.108C91.2854 360.617 93.0245 361.096 95.2248 361.548C99.6333 362.452 105.994 363.263 113.833 363.944C129.516 365.304 151.171 366.145 175.084 366.145V365.145C151.19 365.145 129.565 364.305 113.919 362.947C106.094 362.268 99.7777 361.461 95.4257 360.568C93.2458 360.121 91.5837 359.657 90.4767 359.188C89.921 358.952 89.5343 358.727 89.2946 358.522C89.0506 358.314 89.0229 358.184 89.0229 358.134H88.0229ZM88.0244 358.075C88.0234 358.095 88.0229 358.114 88.0229 358.134H89.0229C89.0229 358.131 89.0229 358.129 89.0231 358.126L88.0244 358.075ZM88.4473 358.6H88.5237V357.6H88.4473V358.6Z" fill="#3442C0"/>
<path d="M172.135 342.033C212.412 342.033 245.064 338.67 245.064 334.522C245.064 330.373 212.412 327.01 172.135 327.01C131.857 327.01 99.2051 330.373 99.2051 334.522C99.2051 338.67 131.857 342.033 172.135 342.033Z" fill="url(#paint6_linear_335_382)" stroke="#3442C0" stroke-linejoin="round"/>
<path fill-rule="evenodd" clip-rule="evenodd" d="M98.374 348.099L103.523 337.042L104.119 337.319L99.0425 348.221C109.172 350.046 118.684 350.685 119.672 350.749L130.437 345.683H130.53C145.587 347.114 172.26 347.701 176.023 347.781L175.898 342.137L176.556 342.123L176.843 355.189C180.519 355.173 199.369 355.065 217.267 353.902L220.647 348.49L220.807 348.473L220.894 348.463C221.643 348.373 227.069 347.726 233.556 346.828L231.004 339.02L231.629 338.815L234.218 346.736C240.259 345.893 247.098 344.847 251.906 343.837L252.041 344.486C241.95 346.602 222.965 348.878 221.035 349.105L217.646 354.534H217.477C199.532 355.723 180.583 355.838 176.858 355.848L177.067 365.385L176.41 365.399L176.037 348.44C172.333 348.368 145.674 347.775 130.555 346.357L119.807 351.415H119.723C119.715 351.414 119.661 351.411 119.564 351.404H119.564C117.989 351.293 105.028 350.383 93.2266 347.714L93.3699 347.074C95.0265 347.45 96.7062 347.79 98.374 348.099ZM166.314 365.266H165.648V360.528L127.906 358.505L118.447 363.732L118.127 363.15L127.754 357.839H127.847L166.314 359.896V365.266ZM241.411 363.174L241.413 363.175L241.405 363.184L241.411 363.174ZM245.106 357.78L241.411 363.174L240.865 362.804L244.718 357.19L244.844 357.165L244.914 357.149L244.914 357.149C245.738 356.971 253.568 355.28 259.285 354.534L259.369 355.192C254.058 355.882 246.913 357.397 245.306 357.737L245.106 357.78Z" fill="url(#paint7_linear_335_382)"/>
<g style="mix-blend-mode:screen" opacity="0.5">
<path d="M129.146 293.838C129.146 296.552 126.946 298.752 124.231 298.752C121.517 298.752 119.316 296.552 119.316 293.838C119.316 291.123 121.517 288.923 124.231 288.923C126.946 288.923 129.146 291.123 129.146 293.838Z" fill="#28FFF2"/>
<path d="M127.847 291.334C128.303 292.21 128.244 293.138 127.721 293.416C127.19 293.694 126.397 293.214 125.934 292.337C125.479 291.46 125.538 290.533 126.06 290.255C126.591 289.976 127.384 290.457 127.847 291.334Z" fill="#28FFF2"/>
<path d="M121.525 295.97C121.711 296.324 121.685 296.704 121.475 296.822C121.255 296.931 120.935 296.738 120.75 296.384C120.564 296.029 120.589 295.65 120.8 295.532C121.019 295.422 121.34 295.616 121.525 295.97Z" fill="#28FFF2"/>
<path d="M228.177 196.325C229.187 196.325 230.006 195.506 230.006 194.496C230.006 193.486 229.187 192.667 228.177 192.667C227.167 192.667 226.348 193.486 226.348 194.496C226.348 195.506 227.167 196.325 228.177 196.325Z" fill="#28FFF2"/>
<path d="M229.525 193.56C229.693 193.889 229.677 194.235 229.474 194.336C229.28 194.437 228.977 194.26 228.808 193.931C228.64 193.603 228.657 193.257 228.859 193.156C229.053 193.055 229.356 193.232 229.525 193.56Z" fill="#28FFF2"/>
<path d="M227.172 195.289C227.24 195.423 227.231 195.558 227.155 195.6C227.071 195.643 226.953 195.567 226.886 195.44C226.818 195.305 226.827 195.171 226.902 195.128C226.987 195.086 227.105 195.162 227.172 195.289Z" fill="#28FFF2"/>
<path d="M227.543 291.081C227.543 292.092 226.726 292.91 225.714 292.91C224.702 292.91 223.885 292.092 223.885 291.081C223.885 290.069 224.702 289.251 225.714 289.251C226.726 289.251 227.543 290.069 227.543 291.081Z" fill="#28FFF2"/>
<path d="M227.054 290.145C227.223 290.474 227.206 290.819 227.004 290.921C226.81 291.022 226.506 290.845 226.338 290.516C226.169 290.187 226.186 289.841 226.388 289.74C226.582 289.639 226.886 289.816 227.054 290.145Z" fill="#28FFF2"/>
<path d="M224.703 291.874C224.771 292.008 224.762 292.143 224.687 292.185C224.602 292.228 224.484 292.152 224.417 292.025C224.349 291.89 224.358 291.756 224.434 291.713C224.518 291.671 224.636 291.747 224.703 291.874Z" fill="#28FFF2"/>
<path d="M237.254 314.256C237.254 315.267 236.437 316.085 235.425 316.085C234.413 316.085 233.596 315.267 233.596 314.256C233.596 313.244 234.413 312.426 235.425 312.426C236.437 312.426 237.254 313.244 237.254 314.256Z" fill="#28FFF2"/>
<path d="M236.775 313.319C236.943 313.648 236.927 313.994 236.724 314.095C236.522 314.196 236.227 314.019 236.058 313.69C235.89 313.361 235.907 313.016 236.109 312.915C236.311 312.813 236.606 312.991 236.775 313.319Z" fill="#28FFF2"/>
<path d="M234.424 315.048C234.492 315.183 234.483 315.318 234.407 315.36C234.323 315.402 234.205 315.326 234.138 315.2C234.07 315.073 234.079 314.93 234.154 314.888C234.23 314.846 234.357 314.921 234.424 315.048Z" fill="#28FFF2"/>
<path d="M153.206 327.196C153.206 328.207 152.388 329.025 151.376 329.025C150.365 329.025 149.547 328.207 149.547 327.196C149.547 326.184 150.365 325.366 151.376 325.366C152.388 325.366 153.206 326.184 153.206 327.196Z" fill="#28FFF2"/>
<path d="M152.726 326.26C152.895 326.588 152.878 326.934 152.675 327.035C152.482 327.136 152.178 326.959 152.009 326.631C151.841 326.302 151.858 325.956 152.06 325.855C152.254 325.754 152.557 325.931 152.726 326.26Z" fill="#28FFF2"/>
<path d="M150.375 327.988C150.443 328.123 150.434 328.258 150.358 328.3C150.274 328.342 150.156 328.266 150.089 328.14C150.021 328.005 150.03 327.87 150.106 327.828C150.19 327.786 150.308 327.862 150.375 327.988Z" fill="#28FFF2"/>
<path d="M203.635 311.592C203.635 312.603 202.818 313.421 201.806 313.421C200.794 313.421 199.977 312.603 199.977 311.592C199.977 310.58 200.794 309.762 201.806 309.762C202.818 309.762 203.635 310.58 203.635 311.592Z" fill="#28FFF2"/>
<path d="M203.156 310.664C203.324 310.993 203.307 311.338 203.105 311.44C202.911 311.541 202.608 311.364 202.439 311.035C202.271 310.706 202.287 310.361 202.49 310.259C202.684 310.158 202.987 310.335 203.156 310.664Z" fill="#28FFF2"/>
<path d="M200.795 312.384C200.863 312.519 200.854 312.654 200.778 312.696C200.694 312.738 200.576 312.662 200.509 312.536C200.441 312.401 200.45 312.266 200.525 312.224C200.61 312.181 200.728 312.257 200.795 312.384Z" fill="#28FFF2"/>
<path d="M198.147 300.944C198.147 301.955 197.329 302.773 196.318 302.773C195.306 302.773 194.488 301.955 194.488 300.944C194.488 299.932 195.306 299.114 196.318 299.114C197.329 299.114 198.147 299.932 198.147 300.944Z" fill="#28FFF2"/>
<path d="M197.666 300.008C197.834 300.337 197.817 300.683 197.615 300.784C197.421 300.885 197.118 300.708 196.949 300.379C196.78 300.05 196.797 299.705 197 299.604C197.193 299.502 197.497 299.679 197.666 300.008Z" fill="#28FFF2"/>
<path d="M195.315 301.737C195.382 301.872 195.374 302.007 195.298 302.049C195.222 302.091 195.096 302.015 195.028 301.889C194.961 301.754 194.969 301.619 195.045 301.577C195.129 301.534 195.247 301.61 195.315 301.737Z" fill="#28FFF2"/>
<path d="M152.069 171.044C152.069 172.055 151.251 172.873 150.24 172.873C149.228 172.873 148.41 172.055 148.41 171.044C148.41 170.032 149.228 169.214 150.24 169.214C151.251 169.214 152.069 170.032 152.069 171.044Z" fill="#28FFF2"/>
<path d="M151.589 170.108C151.758 170.437 151.741 170.782 151.539 170.883C151.345 170.985 151.041 170.808 150.873 170.479C150.704 170.15 150.721 169.804 150.923 169.703C151.126 169.602 151.421 169.779 151.589 170.108Z" fill="#28FFF2"/>
<path d="M149.237 171.836C149.304 171.971 149.296 172.106 149.22 172.148C149.135 172.19 149.017 172.114 148.95 171.988C148.883 171.861 148.891 171.718 148.967 171.676C149.051 171.634 149.169 171.709 149.237 171.836Z" fill="#28FFF2"/>
<path d="M186.008 268.681C186.008 269.693 185.191 270.511 184.179 270.511C183.167 270.511 182.35 269.693 182.35 268.681C182.35 267.67 183.167 266.852 184.179 266.852C185.191 266.852 186.008 267.67 186.008 268.681Z" fill="#28FFF2"/>
<path d="M185.529 267.746C185.697 268.075 185.681 268.42 185.478 268.522C185.284 268.623 184.981 268.446 184.812 268.117C184.644 267.788 184.66 267.443 184.863 267.341C185.065 267.24 185.36 267.417 185.529 267.746Z" fill="#28FFF2"/>
<path d="M183.176 269.475C183.244 269.609 183.235 269.744 183.159 269.787C183.075 269.829 182.957 269.753 182.889 269.626C182.822 269.491 182.83 269.357 182.906 269.314C182.982 269.272 183.109 269.348 183.176 269.475Z" fill="#28FFF2"/>
<path d="M153.983 321.101C153.983 322.112 153.165 322.93 152.154 322.93C151.142 322.93 150.324 322.112 150.324 321.101C150.324 320.089 151.142 319.271 152.154 319.271C153.165 319.271 153.983 320.089 153.983 321.101Z" fill="#28FFF2"/>
<path d="M153.501 320.165C153.67 320.494 153.653 320.839 153.451 320.941C153.257 321.042 152.953 320.865 152.785 320.536C152.616 320.207 152.633 319.861 152.835 319.76C153.029 319.659 153.333 319.836 153.501 320.165Z" fill="#28FFF2"/>
<path d="M151.141 321.893C151.208 322.028 151.2 322.163 151.124 322.205C151.04 322.247 150.922 322.171 150.854 322.045C150.787 321.918 150.795 321.775 150.871 321.733C150.955 321.691 151.074 321.767 151.141 321.893Z" fill="#28FFF2"/>
<path d="M155.028 181.227C155.028 182.239 154.21 183.057 153.198 183.057C152.187 183.057 151.369 182.239 151.369 181.227C151.369 180.216 152.187 179.398 153.198 179.398C154.21 179.398 155.028 180.216 155.028 181.227Z" fill="#28FFF2"/>
<path d="M154.539 180.291C154.707 180.62 154.69 180.966 154.488 181.067C154.294 181.168 153.991 180.991 153.822 180.662C153.653 180.334 153.67 179.988 153.873 179.887C154.066 179.786 154.37 179.963 154.539 180.291Z" fill="#28FFF2"/>
<path d="M152.188 182.02C152.255 182.154 152.247 182.289 152.171 182.331C152.087 182.374 151.969 182.298 151.901 182.171C151.834 182.036 151.842 181.902 151.918 181.859C151.994 181.817 152.12 181.893 152.188 182.02Z" fill="#28FFF2"/>
<path d="M160.643 169.425C160.643 170.437 159.825 171.254 158.814 171.254C157.802 171.254 156.984 170.437 156.984 169.425C156.984 168.413 157.802 167.596 158.814 167.596C159.825 167.596 160.643 168.413 160.643 169.425Z" fill="#28FFF2"/>
<path d="M160.154 168.489C160.322 168.818 160.306 169.164 160.103 169.265C159.909 169.366 159.606 169.189 159.437 168.86C159.269 168.531 159.285 168.186 159.488 168.085C159.69 167.983 159.985 168.16 160.154 168.489Z" fill="#28FFF2"/>
<path d="M157.801 170.217C157.869 170.352 157.86 170.487 157.784 170.529C157.7 170.571 157.582 170.495 157.514 170.369C157.447 170.234 157.455 170.099 157.531 170.057C157.607 170.015 157.734 170.091 157.801 170.217Z" fill="#28FFF2"/>
<path d="M198.147 292.717C198.147 293.728 197.329 294.546 196.318 294.546C195.306 294.546 194.488 293.728 194.488 292.717C194.488 291.705 195.306 290.887 196.318 290.887C197.329 290.887 198.147 291.705 198.147 292.717Z" fill="#28FFF2"/>
<path d="M197.666 291.789C197.834 292.118 197.817 292.463 197.615 292.565C197.421 292.666 197.118 292.489 196.949 292.16C196.78 291.831 196.797 291.486 197 291.384C197.193 291.283 197.497 291.46 197.666 291.789Z" fill="#28FFF2"/>
<path d="M195.315 293.517C195.382 293.652 195.374 293.787 195.298 293.829C195.214 293.871 195.096 293.795 195.028 293.669C194.961 293.534 194.969 293.399 195.045 293.357C195.129 293.315 195.247 293.391 195.315 293.517Z" fill="#28FFF2"/>
<path d="M176.693 270.317C177.703 270.317 178.522 269.498 178.522 268.488C178.522 267.477 177.703 266.658 176.693 266.658C175.682 266.658 174.863 267.477 174.863 268.488C174.863 269.498 175.682 270.317 176.693 270.317Z" fill="#28FFF2"/>
<path d="M178.042 267.56C178.211 267.889 178.194 268.235 177.992 268.336C177.79 268.437 177.494 268.26 177.326 267.931C177.157 267.603 177.174 267.257 177.376 267.156C177.57 267.055 177.874 267.232 178.042 267.56Z" fill="#28FFF2"/>
<path d="M175.69 269.28C175.757 269.415 175.749 269.55 175.673 269.592C175.589 269.634 175.471 269.558 175.403 269.432C175.336 269.297 175.344 269.162 175.42 269.12C175.504 269.078 175.622 269.154 175.69 269.28Z" fill="#28FFF2"/>
<path d="M147.297 245.229C147.297 246.241 146.48 247.059 145.468 247.059C144.456 247.059 143.639 246.241 143.639 245.229C143.639 244.218 144.456 243.4 145.468 243.4C146.48 243.4 147.297 244.218 147.297 245.229Z" fill="#28FFF2"/>
<path d="M146.818 244.293C146.986 244.622 146.97 244.968 146.767 245.069C146.573 245.17 146.27 244.993 146.101 244.664C145.933 244.336 145.95 243.99 146.152 243.889C146.346 243.788 146.649 243.965 146.818 244.293Z" fill="#28FFF2"/>
<path d="M144.465 246.021C144.533 246.156 144.524 246.291 144.448 246.333C144.364 246.376 144.246 246.3 144.179 246.173C144.111 246.047 144.12 245.903 144.195 245.861C144.28 245.819 144.398 245.895 144.465 246.021Z" fill="#28FFF2"/>
<path d="M231.204 223.184C231.204 224.196 230.386 225.014 229.374 225.014C228.363 225.014 227.545 224.196 227.545 223.184C227.545 222.173 228.363 221.355 229.374 221.355C230.386 221.355 231.204 222.173 231.204 223.184Z" fill="#28FFF2"/>
<path d="M230.722 222.257C230.891 222.586 230.874 222.931 230.672 223.032C230.478 223.134 230.174 222.956 230.006 222.628C229.837 222.299 229.854 221.953 230.056 221.852C230.25 221.751 230.554 221.928 230.722 222.257Z" fill="#28FFF2"/>
<path d="M228.369 223.985C228.437 224.12 228.428 224.255 228.353 224.297C228.268 224.339 228.15 224.263 228.083 224.137C228.015 224.002 228.024 223.867 228.1 223.825C228.176 223.783 228.302 223.858 228.369 223.985Z" fill="#28FFF2"/>
<path d="M126.069 210.817C126.069 211.828 125.251 212.646 124.24 212.646C123.228 212.646 122.41 211.828 122.41 210.817C122.41 209.805 123.228 208.987 124.24 208.987C125.251 208.987 126.069 209.805 126.069 210.817Z" fill="#28FFF2"/>
<path d="M125.587 209.89C125.756 210.218 125.739 210.564 125.537 210.665C125.343 210.766 125.039 210.589 124.871 210.261C124.702 209.932 124.719 209.586 124.921 209.485C125.115 209.384 125.419 209.561 125.587 209.89Z" fill="#28FFF2"/>
<path d="M123.229 211.609C123.296 211.744 123.288 211.879 123.212 211.921C123.128 211.963 123.01 211.888 122.942 211.761C122.875 211.626 122.883 211.491 122.959 211.449C123.035 211.407 123.161 211.483 123.229 211.609Z" fill="#28FFF2"/>
<path d="M230.679 176.464C230.679 179.179 228.479 181.379 225.764 181.379C223.05 181.379 220.85 179.179 220.85 176.464C220.85 173.75 223.05 171.549 225.764 171.549C228.479 171.549 230.679 173.75 230.679 176.464Z" fill="#28FFF2"/>
<path d="M229.375 173.952C229.83 174.82 229.771 175.756 229.248 176.034C228.717 176.312 227.925 175.832 227.461 174.955C227.006 174.078 227.065 173.151 227.588 172.873C228.119 172.595 228.911 173.075 229.375 173.952Z" fill="#28FFF2"/>
<path d="M223.053 178.589C223.238 178.943 223.213 179.322 223.002 179.44C222.783 179.55 222.462 179.356 222.277 179.002C222.092 178.648 222.117 178.268 222.328 178.15C222.547 178.041 222.867 178.235 223.053 178.589Z" fill="#28FFF2"/>
<path d="M204.732 297.749C206.552 297.749 208.028 296.273 208.028 294.453C208.028 292.633 206.552 291.157 204.732 291.157C202.911 291.157 201.436 292.633 201.436 294.453C201.436 296.273 202.911 297.749 204.732 297.749Z" fill="#28FFF2"/>
<path d="M207.152 292.775C207.455 293.357 207.422 293.981 207.068 294.166C206.713 294.352 206.174 294.031 205.87 293.441C205.567 292.851 205.601 292.236 205.955 292.05C206.309 291.865 206.848 292.185 207.152 292.775Z" fill="#28FFF2"/>
<path d="M202.92 295.886C203.047 296.122 203.03 296.375 202.887 296.451C202.743 296.527 202.524 296.392 202.398 296.156C202.271 295.92 202.288 295.667 202.431 295.591C202.575 295.515 202.794 295.65 202.92 295.886Z" fill="#28FFF2"/>
<path d="M208.214 305.918C210.035 305.918 211.51 304.442 211.51 302.622C211.51 300.801 210.035 299.326 208.214 299.326C206.394 299.326 204.918 300.801 204.918 302.622C204.918 304.442 206.394 305.918 208.214 305.918Z" fill="#28FFF2"/>
<path d="M210.634 300.936C210.938 301.517 210.904 302.141 210.55 302.327C210.196 302.512 209.656 302.192 209.353 301.602C209.049 301.02 209.083 300.396 209.437 300.211C209.791 300.025 210.331 300.346 210.634 300.936Z" fill="#28FFF2"/>
<path d="M206.393 304.046C206.519 304.282 206.503 304.535 206.359 304.611C206.216 304.687 205.997 304.552 205.87 304.316C205.744 304.08 205.761 303.827 205.904 303.751C206.047 303.675 206.267 303.81 206.393 304.046Z" fill="#28FFF2"/>
<path d="M171.046 257.292C172.867 257.292 174.342 255.816 174.342 253.996C174.342 252.175 172.867 250.7 171.046 250.7C169.226 250.7 167.75 252.175 167.75 253.996C167.75 255.816 169.226 257.292 171.046 257.292Z" fill="#28FFF2"/>
<path d="M173.472 252.319C173.776 252.9 173.742 253.524 173.388 253.71C173.034 253.895 172.494 253.575 172.191 252.985C171.887 252.403 171.921 251.779 172.275 251.594C172.629 251.408 173.169 251.728 173.472 252.319Z" fill="#28FFF2"/>
<path d="M169.233 255.421C169.359 255.657 169.342 255.91 169.199 255.986C169.056 256.062 168.837 255.927 168.71 255.691C168.584 255.455 168.601 255.202 168.744 255.126C168.887 255.05 169.106 255.185 169.233 255.421Z" fill="#28FFF2"/>
<path d="M156.948 156.063C156.948 157.884 155.473 159.359 153.652 159.359C151.831 159.359 150.355 157.884 150.355 156.063C150.355 154.242 151.831 152.767 153.652 152.767C155.473 152.767 156.948 154.242 156.948 156.063Z" fill="#28FFF2"/>
<path d="M156.082 154.385C156.385 154.967 156.351 155.591 155.997 155.776C155.643 155.961 155.104 155.641 154.8 155.051C154.497 154.469 154.53 153.845 154.884 153.66C155.239 153.475 155.778 153.795 156.082 154.385Z" fill="#28FFF2"/>
<path d="M151.84 157.496C151.967 157.732 151.95 157.985 151.807 158.061C151.663 158.137 151.444 158.002 151.318 157.766C151.191 157.53 151.208 157.277 151.351 157.201C151.495 157.125 151.714 157.26 151.84 157.496Z" fill="#28FFF2"/>
<path d="M157.167 304.358C158.988 304.358 160.463 302.882 160.463 301.062C160.463 299.241 158.988 297.766 157.167 297.766C155.347 297.766 153.871 299.241 153.871 301.062C153.871 302.882 155.347 304.358 157.167 304.358Z" fill="#28FFF2"/>
<path d="M159.597 299.376C159.901 299.957 159.867 300.581 159.513 300.767C159.159 300.952 158.619 300.632 158.316 300.042C158.012 299.46 158.046 298.836 158.4 298.651C158.754 298.465 159.294 298.786 159.597 299.376Z" fill="#28FFF2"/>
<path d="M155.356 302.487C155.482 302.723 155.466 302.976 155.322 303.051C155.179 303.127 154.96 302.992 154.833 302.756C154.707 302.52 154.724 302.267 154.867 302.192C155.01 302.116 155.229 302.251 155.356 302.487Z" fill="#28FFF2"/>
<path d="M167.351 287.692C168.026 287.692 168.574 287.145 168.574 286.469C168.574 285.794 168.026 285.247 167.351 285.247C166.676 285.247 166.129 285.794 166.129 286.469C166.129 287.145 166.676 287.692 167.351 287.692Z" fill="#28FFF2"/>
<path d="M168.253 285.846C168.371 286.065 168.354 286.293 168.219 286.369C168.084 286.436 167.89 286.318 167.772 286.099C167.654 285.88 167.671 285.652 167.806 285.576C167.941 285.509 168.135 285.627 168.253 285.846Z" fill="#28FFF2"/>
<path d="M166.679 287.001C166.721 287.093 166.721 287.186 166.662 287.211C166.603 287.237 166.527 287.195 166.477 287.102C166.426 287.009 166.434 286.916 166.493 286.891C166.544 286.866 166.628 286.908 166.679 287.001Z" fill="#28FFF2"/>
<path d="M203.636 320.763C203.636 321.438 203.088 321.986 202.414 321.986C201.739 321.986 201.191 321.438 201.191 320.763C201.191 320.089 201.739 319.541 202.414 319.541C203.088 319.541 203.636 320.089 203.636 320.763Z" fill="#28FFF2"/>
<path d="M203.315 320.131C203.433 320.35 203.416 320.578 203.282 320.653C203.147 320.729 202.953 320.603 202.835 320.384C202.717 320.164 202.734 319.937 202.869 319.861C203.003 319.785 203.197 319.912 203.315 320.131Z" fill="#28FFF2"/>
<path d="M201.739 321.295C201.79 321.387 201.782 321.48 201.723 321.505C201.672 321.531 201.588 321.488 201.537 321.396C201.487 321.303 201.495 321.21 201.554 321.185C201.613 321.16 201.689 321.202 201.739 321.295Z" fill="#28FFF2"/>
<path d="M175.875 251.644C176.55 251.644 177.097 251.097 177.097 250.422C177.097 249.747 176.55 249.2 175.875 249.2C175.2 249.2 174.652 249.747 174.652 250.422C174.652 251.097 175.2 251.644 175.875 251.644Z" fill="#28FFF2"/>
<path d="M176.776 249.798C176.894 250.018 176.877 250.245 176.743 250.321C176.608 250.389 176.414 250.271 176.296 250.051C176.178 249.832 176.195 249.605 176.329 249.529C176.464 249.461 176.658 249.579 176.776 249.798Z" fill="#28FFF2"/>
<path d="M175.2 250.953C175.251 251.045 175.243 251.138 175.184 251.164C175.133 251.189 175.049 251.147 174.998 251.054C174.947 250.961 174.956 250.868 175.015 250.843C175.065 250.818 175.15 250.86 175.2 250.953Z" fill="#28FFF2"/>
<path d="M155.709 309.585C156.384 309.585 156.931 309.038 156.931 308.363C156.931 307.687 156.384 307.14 155.709 307.14C155.034 307.14 154.486 307.687 154.486 308.363C154.486 309.038 155.034 309.585 155.709 309.585Z" fill="#28FFF2"/>
<path d="M156.61 307.739C156.728 307.958 156.711 308.186 156.577 308.262C156.442 308.329 156.248 308.211 156.13 307.992C156.012 307.773 156.029 307.545 156.163 307.469C156.298 307.402 156.492 307.52 156.61 307.739Z" fill="#28FFF2"/>
<path d="M155.036 308.894C155.078 308.986 155.078 309.079 155.019 309.104C154.96 309.13 154.885 309.088 154.834 308.995C154.783 308.902 154.792 308.809 154.851 308.784C154.901 308.759 154.986 308.801 155.036 308.894Z" fill="#28FFF2"/>
<path d="M224.163 300.877C225.984 300.877 227.46 299.401 227.46 297.58C227.46 295.76 225.984 294.284 224.163 294.284C222.343 294.284 220.867 295.76 220.867 297.58C220.867 299.401 222.343 300.877 224.163 300.877Z" fill="#28FFF2"/>
<path d="M226.582 295.895C226.885 296.476 226.851 297.1 226.497 297.286C226.143 297.471 225.604 297.151 225.3 296.561C224.997 295.971 225.03 295.355 225.384 295.17C225.739 294.984 226.278 295.305 226.582 295.895Z" fill="#28FFF2"/>
<path d="M222.344 299.005C222.471 299.241 222.454 299.494 222.31 299.57C222.167 299.646 221.948 299.511 221.822 299.275C221.695 299.039 221.712 298.786 221.855 298.71C221.999 298.634 222.218 298.769 222.344 299.005Z" fill="#28FFF2"/>
<path d="M127.038 317.661C127.038 318.774 126.136 319.668 125.032 319.668C123.927 319.668 123.025 318.766 123.025 317.661C123.025 316.557 123.927 315.655 125.032 315.655C126.136 315.655 127.038 316.557 127.038 317.661Z" fill="#28FFF2"/>
<path d="M126.517 316.632C126.703 316.986 126.678 317.365 126.467 317.483C126.248 317.593 125.927 317.399 125.742 317.045C125.556 316.691 125.582 316.312 125.792 316.194C126.012 316.084 126.332 316.278 126.517 316.632Z" fill="#28FFF2"/>
<path d="M123.926 318.529C124.002 318.672 123.994 318.832 123.901 318.875C123.817 318.917 123.682 318.841 123.606 318.698C123.53 318.554 123.538 318.394 123.631 318.352C123.724 318.31 123.85 318.386 123.926 318.529Z" fill="#28FFF2"/>
<path d="M123.567 282.92C123.567 284.033 122.665 284.927 121.561 284.927C120.457 284.927 119.555 284.025 119.555 282.92C119.555 281.816 120.457 280.914 121.561 280.914C122.665 280.914 123.567 281.816 123.567 282.92Z" fill="#28FFF2"/>
<path d="M123.035 281.901C123.22 282.255 123.195 282.634 122.984 282.752C122.765 282.862 122.445 282.668 122.259 282.314C122.074 281.96 122.099 281.58 122.31 281.462C122.529 281.353 122.85 281.547 123.035 281.901Z" fill="#28FFF2"/>
<path d="M120.456 283.797C120.531 283.94 120.523 284.101 120.43 284.143C120.346 284.185 120.211 284.109 120.135 283.966C120.059 283.822 120.068 283.662 120.16 283.62C120.245 283.578 120.38 283.654 120.456 283.797Z" fill="#28FFF2"/>
</g>
<path opacity="0.3" d="M447.257 375.821C401.523 375.821 354.213 372.095 354.213 365.865C354.213 359.635 401.523 355.909 447.257 355.909C492.991 355.909 540.301 359.635 540.301 365.865C540.301 372.095 492.991 375.821 447.257 375.821Z" fill="url(#paint8_linear_335_382)"/>
<path d="M586.621 103.55H300L372.413 333.948H517.952L586.621 103.55Z" fill="url(#paint9_linear_335_382)"/>
<g style="mix-blend-mode:multiply" opacity="0.7">
<path d="M402.647 336.49L362.141 195.004L421.313 185.075L428.669 333.953C428.669 333.953 411.128 338.229 402.654 336.48L402.647 336.49Z" fill="url(#paint10_linear_335_382)"/>
</g>
<g style="mix-blend-mode:multiply" opacity="0.7">
<path d="M461.636 331.599L472.002 184.794L530.999 195.718L486.954 338.121C486.954 338.121 469.009 336.136 461.646 331.592L461.636 331.599Z" fill="url(#paint11_linear_335_382)"/>
</g>
<path fill-rule="evenodd" clip-rule="evenodd" d="M534.081 364.17C534.081 368.318 495.545 371.681 448.009 371.681C400.473 371.681 361.937 368.318 361.937 364.17C361.937 364.077 361.956 363.984 361.995 363.892H361.768L361.447 358.1H397.299C411.521 357.194 429.049 356.659 448.009 356.659C466.969 356.659 484.497 357.194 498.719 358.1H534.561L533.931 363.722C534.031 363.87 534.081 364.02 534.081 364.17Z" fill="url(#paint12_linear_335_382)"/>
<path d="M361.995 363.892L362.456 364.084C362.521 363.93 362.504 363.754 362.411 363.614C362.318 363.475 362.162 363.392 361.995 363.392V363.892ZM361.768 363.892L361.268 363.919C361.283 364.184 361.502 364.392 361.768 364.392V363.892ZM361.447 358.1V357.6C361.31 357.6 361.179 357.657 361.084 357.756C360.99 357.856 360.94 357.99 360.948 358.128L361.447 358.1ZM397.299 358.1V358.6C397.31 358.6 397.32 358.6 397.331 358.599L397.299 358.1ZM498.719 358.1L498.687 358.599C498.698 358.6 498.708 358.6 498.719 358.6V358.1ZM534.561 358.1L535.058 358.156C535.074 358.014 535.029 357.873 534.934 357.767C534.839 357.661 534.703 357.6 534.561 357.6V358.1ZM533.931 363.722L533.434 363.667C533.421 363.785 533.45 363.903 533.516 364.002L533.931 363.722ZM448.009 372.181C471.787 372.181 493.32 371.34 508.915 369.979C516.709 369.299 523.034 368.488 527.418 367.583C529.606 367.132 531.336 366.652 532.529 366.144C533.123 365.89 533.613 365.618 533.963 365.317C534.308 365.02 534.581 364.638 534.581 364.17H533.581C533.581 364.221 533.553 364.351 533.311 364.559C533.073 364.763 532.689 364.988 532.136 365.224C531.036 365.693 529.384 366.157 527.216 366.604C522.889 367.497 516.609 368.304 508.828 368.983C493.27 370.341 471.767 371.181 448.009 371.181V372.181ZM361.437 364.17C361.437 364.638 361.71 365.02 362.055 365.317C362.405 365.618 362.895 365.89 363.489 366.144C364.682 366.652 366.412 367.132 368.6 367.583C372.984 368.488 379.309 369.299 387.103 369.979C402.698 371.34 424.231 372.181 448.009 372.181V371.181C424.251 371.181 402.748 370.341 387.19 368.983C379.409 368.304 373.129 367.497 368.802 366.604C366.634 366.157 364.982 365.693 363.882 365.224C363.329 364.988 362.945 364.763 362.707 364.559C362.465 364.351 362.437 364.221 362.437 364.17H361.437ZM361.533 363.699C361.472 363.847 361.437 364.005 361.437 364.17H362.437C362.437 364.148 362.441 364.121 362.456 364.084L361.533 363.699ZM361.768 364.392H361.995V363.392H361.768V364.392ZM360.948 358.128L361.268 363.919L362.267 363.864L361.947 358.072L360.948 358.128ZM397.299 357.6H361.447V358.6H397.299V357.6ZM448.009 356.159C429.041 356.159 411.502 356.694 397.267 357.601L397.331 358.599C411.541 357.693 429.058 357.159 448.009 357.159V356.159ZM498.751 357.601C484.516 356.694 466.977 356.159 448.009 356.159V357.159C466.96 357.159 484.477 357.693 498.687 358.599L498.751 357.601ZM534.561 357.6H498.719V358.6H534.561V357.6ZM534.428 363.778L535.058 358.156L534.064 358.044L533.434 363.667L534.428 363.778ZM534.581 364.17C534.581 363.901 534.489 363.657 534.346 363.443L533.516 364.002C533.572 364.084 533.581 364.138 533.581 364.17H534.581Z" fill="#3442C0"/>
<path fill-rule="evenodd" clip-rule="evenodd" d="M361.447 358.1L372.415 333.948H517.954L533.907 357.149C534.394 357.471 534.645 357.8 534.645 358.134C534.645 362.283 495.89 365.645 448.084 365.645C400.278 365.645 361.523 362.283 361.523 358.134C361.523 358.123 361.523 358.112 361.524 358.1H361.447Z" fill="url(#paint13_linear_335_382)"/>
<path d="M372.415 333.948V333.448C372.219 333.448 372.041 333.562 371.96 333.741L372.415 333.948ZM361.447 358.1L360.992 357.893C360.922 358.048 360.935 358.228 361.027 358.371C361.119 358.514 361.277 358.6 361.447 358.6V358.1ZM517.954 333.948L518.366 333.664C518.272 333.529 518.118 333.448 517.954 333.448V333.948ZM533.907 357.149L533.495 357.432C533.531 357.485 533.577 357.53 533.631 357.566L533.907 357.149ZM361.524 358.1L362.023 358.126C362.03 357.989 361.981 357.855 361.886 357.756C361.792 357.656 361.661 357.6 361.524 357.6V358.1ZM371.96 333.741L360.992 357.893L361.903 358.307L372.87 334.154L371.96 333.741ZM517.954 333.448H372.415V334.448H517.954V333.448ZM534.319 356.865L518.366 333.664L517.542 334.231L533.495 357.432L534.319 356.865ZM535.145 358.134C535.145 357.534 534.7 357.075 534.183 356.732L533.631 357.566C534.087 357.868 534.145 358.066 534.145 358.134H535.145ZM448.084 366.145C471.997 366.145 493.652 365.304 509.335 363.944C517.174 363.263 523.535 362.452 527.943 361.548C530.143 361.096 531.883 360.617 533.082 360.108C533.679 359.855 534.172 359.582 534.523 359.282C534.87 358.986 535.145 358.603 535.145 358.134H534.145C534.145 358.184 534.117 358.314 533.873 358.522C533.634 358.727 533.247 358.952 532.691 359.188C531.584 359.657 529.922 360.121 527.742 360.568C523.39 361.461 517.074 362.268 509.249 362.947C493.603 364.305 471.977 365.145 448.084 365.145V366.145ZM361.023 358.134C361.023 358.603 361.298 358.986 361.645 359.282C361.996 359.582 362.489 359.855 363.086 360.108C364.285 360.617 366.025 361.096 368.225 361.548C372.633 362.452 378.994 363.263 386.833 363.944C402.516 365.304 424.171 366.145 448.084 366.145V365.145C424.19 365.145 402.565 364.305 386.919 362.947C379.094 362.268 372.778 361.461 368.426 360.568C366.246 360.121 364.584 359.657 363.477 359.188C362.921 358.952 362.534 358.727 362.295 358.522C362.051 358.314 362.023 358.184 362.023 358.134H361.023ZM361.024 358.075C361.023 358.095 361.023 358.114 361.023 358.134H362.023C362.023 358.131 362.023 358.129 362.023 358.126L361.024 358.075ZM361.447 358.6H361.524V357.6H361.447V358.6Z" fill="#3442C0"/>
<path d="M445.135 342.033C485.412 342.033 518.064 338.67 518.064 334.522C518.064 330.373 485.412 327.01 445.135 327.01C404.857 327.01 372.205 330.373 372.205 334.522C372.205 338.67 404.857 342.033 445.135 342.033Z" fill="url(#paint14_linear_335_382)" stroke="#3442C0" stroke-linejoin="round"/>
<path fill-rule="evenodd" clip-rule="evenodd" d="M371.374 348.099L376.523 337.042L377.119 337.319L372.043 348.221C382.172 350.046 391.684 350.685 392.672 350.749L403.437 345.683H403.53C418.587 347.114 445.26 347.701 449.023 347.781L448.898 342.137L449.556 342.123L449.843 355.189C453.519 355.173 472.369 355.065 490.267 353.902L493.647 348.49L493.807 348.473L493.894 348.463C494.643 348.373 500.069 347.726 506.556 346.828L504.004 339.02L504.629 338.815L507.218 346.736C513.259 345.893 520.098 344.847 524.906 343.837L525.041 344.486C514.95 346.602 495.965 348.878 494.035 349.105L490.646 354.534H490.477C472.532 355.723 453.583 355.838 449.858 355.848L450.067 365.385L449.41 365.399L449.037 348.44C445.333 348.368 418.674 347.775 403.555 346.357L392.807 351.415H392.723C392.715 351.414 392.661 351.411 392.564 351.404H392.564C390.989 351.293 378.028 350.383 366.227 347.714L366.37 347.074C368.026 347.45 369.706 347.79 371.374 348.099ZM439.314 365.266H438.648V360.528L400.906 358.505L391.447 363.732L391.127 363.15L400.754 357.839H400.847L439.314 359.896V365.266ZM514.411 363.174L514.413 363.175L514.405 363.184L514.411 363.174ZM518.106 357.78L514.411 363.174L513.865 362.804L517.718 357.19L517.844 357.165L517.914 357.149L517.914 357.149C518.738 356.971 526.568 355.28 532.285 354.534L532.369 355.192C527.058 355.882 519.913 357.397 518.306 357.737L518.106 357.78Z" fill="url(#paint15_linear_335_382)"/>
<g style="mix-blend-mode:screen" opacity="0.5">
<path d="M402.146 293.838C402.146 296.552 399.946 298.752 397.231 298.752C394.517 298.752 392.316 296.552 392.316 293.838C392.316 291.123 394.517 288.923 397.231 288.923C399.946 288.923 402.146 291.123 402.146 293.838Z" fill="#28FFF2"/>
<path d="M400.847 291.334C401.303 292.21 401.244 293.138 400.721 293.416C400.19 293.694 399.397 293.214 398.934 292.337C398.479 291.46 398.538 290.533 399.06 290.255C399.591 289.976 400.384 290.457 400.847 291.334Z" fill="#28FFF2"/>
<path d="M394.525 295.97C394.711 296.324 394.685 296.704 394.475 296.822C394.255 296.931 393.935 296.738 393.75 296.384C393.564 296.029 393.589 295.65 393.8 295.532C394.019 295.422 394.34 295.616 394.525 295.97Z" fill="#28FFF2"/>
<path d="M501.177 196.325C502.187 196.325 503.006 195.506 503.006 194.496C503.006 193.486 502.187 192.667 501.177 192.667C500.167 192.667 499.348 193.486 499.348 194.496C499.348 195.506 500.167 196.325 501.177 196.325Z" fill="#28FFF2"/>
<path d="M502.525 193.56C502.693 193.889 502.677 194.235 502.474 194.336C502.28 194.437 501.977 194.26 501.808 193.931C501.64 193.603 501.657 193.257 501.859 193.156C502.053 193.055 502.356 193.232 502.525 193.56Z" fill="#28FFF2"/>
<path d="M500.172 195.289C500.24 195.423 500.231 195.558 500.155 195.6C500.071 195.643 499.953 195.567 499.886 195.44C499.818 195.305 499.827 195.171 499.902 195.128C499.987 195.086 500.105 195.162 500.172 195.289Z" fill="#28FFF2"/>
<path d="M500.543 291.081C500.543 292.092 499.726 292.91 498.714 292.91C497.702 292.91 496.885 292.092 496.885 291.081C496.885 290.069 497.702 289.251 498.714 289.251C499.726 289.251 500.543 290.069 500.543 291.081Z" fill="#28FFF2"/>
<path d="M500.054 290.145C500.223 290.474 500.206 290.819 500.004 290.921C499.81 291.022 499.506 290.845 499.338 290.516C499.169 290.187 499.186 289.841 499.388 289.74C499.582 289.639 499.886 289.816 500.054 290.145Z" fill="#28FFF2"/>
<path d="M497.703 291.874C497.771 292.008 497.762 292.143 497.687 292.185C497.602 292.228 497.484 292.152 497.417 292.025C497.349 291.89 497.358 291.756 497.434 291.713C497.518 291.671 497.636 291.747 497.703 291.874Z" fill="#28FFF2"/>
<path d="M510.254 314.256C510.254 315.267 509.437 316.085 508.425 316.085C507.413 316.085 506.596 315.267 506.596 314.256C506.596 313.244 507.413 312.426 508.425 312.426C509.437 312.426 510.254 313.244 510.254 314.256Z" fill="#28FFF2"/>
<path d="M509.775 313.319C509.943 313.648 509.927 313.994 509.724 314.095C509.522 314.196 509.227 314.019 509.058 313.69C508.89 313.361 508.907 313.016 509.109 312.915C509.311 312.813 509.606 312.991 509.775 313.319Z" fill="#28FFF2"/>
<path d="M507.424 315.048C507.492 315.183 507.483 315.318 507.407 315.36C507.323 315.402 507.205 315.326 507.138 315.2C507.07 315.073 507.079 314.93 507.154 314.888C507.23 314.846 507.357 314.921 507.424 315.048Z" fill="#28FFF2"/>
<path d="M426.206 327.196C426.206 328.207 425.388 329.025 424.376 329.025C423.365 329.025 422.547 328.207 422.547 327.196C422.547 326.184 423.365 325.366 424.376 325.366C425.388 325.366 426.206 326.184 426.206 327.196Z" fill="#28FFF2"/>
<path d="M425.726 326.26C425.895 326.588 425.878 326.934 425.675 327.035C425.482 327.136 425.178 326.959 425.009 326.631C424.841 326.302 424.858 325.956 425.06 325.855C425.254 325.754 425.557 325.931 425.726 326.26Z" fill="#28FFF2"/>
<path d="M423.375 327.988C423.443 328.123 423.434 328.258 423.358 328.3C423.274 328.342 423.156 328.266 423.089 328.14C423.021 328.005 423.03 327.87 423.106 327.828C423.19 327.786 423.308 327.862 423.375 327.988Z" fill="#28FFF2"/>
<path d="M476.635 311.592C476.635 312.603 475.818 313.421 474.806 313.421C473.794 313.421 472.977 312.603 472.977 311.592C472.977 310.58 473.794 309.762 474.806 309.762C475.818 309.762 476.635 310.58 476.635 311.592Z" fill="#28FFF2"/>
<path d="M476.156 310.664C476.324 310.993 476.307 311.338 476.105 311.44C475.911 311.541 475.608 311.364 475.439 311.035C475.271 310.706 475.287 310.361 475.49 310.259C475.684 310.158 475.987 310.335 476.156 310.664Z" fill="#28FFF2"/>
<path d="M473.795 312.384C473.863 312.519 473.854 312.654 473.778 312.696C473.694 312.738 473.576 312.662 473.509 312.536C473.441 312.401 473.45 312.266 473.525 312.224C473.61 312.181 473.728 312.257 473.795 312.384Z" fill="#28FFF2"/>
<path d="M471.147 300.944C471.147 301.955 470.329 302.773 469.318 302.773C468.306 302.773 467.488 301.955 467.488 300.944C467.488 299.932 468.306 299.114 469.318 299.114C470.329 299.114 471.147 299.932 471.147 300.944Z" fill="#28FFF2"/>
<path d="M470.666 300.008C470.834 300.337 470.817 300.683 470.615 300.784C470.421 300.885 470.118 300.708 469.949 300.379C469.78 300.05 469.797 299.705 470 299.604C470.193 299.502 470.497 299.679 470.666 300.008Z" fill="#28FFF2"/>
<path d="M468.315 301.737C468.382 301.872 468.374 302.007 468.298 302.049C468.222 302.091 468.096 302.015 468.028 301.889C467.961 301.754 467.969 301.619 468.045 301.577C468.129 301.534 468.247 301.61 468.315 301.737Z" fill="#28FFF2"/>
<path d="M425.069 171.044C425.069 172.055 424.251 172.873 423.24 172.873C422.228 172.873 421.41 172.055 421.41 171.044C421.41 170.032 422.228 169.214 423.24 169.214C424.251 169.214 425.069 170.032 425.069 171.044Z" fill="#28FFF2"/>
<path d="M424.589 170.108C424.758 170.437 424.741 170.782 424.539 170.883C424.345 170.985 424.041 170.808 423.873 170.479C423.704 170.15 423.721 169.804 423.923 169.703C424.126 169.602 424.421 169.779 424.589 170.108Z" fill="#28FFF2"/>
<path d="M422.237 171.836C422.304 171.971 422.296 172.106 422.22 172.148C422.135 172.19 422.017 172.114 421.95 171.988C421.883 171.861 421.891 171.718 421.967 171.676C422.051 171.634 422.169 171.709 422.237 171.836Z" fill="#28FFF2"/>
<path d="M459.008 268.681C459.008 269.693 458.191 270.511 457.179 270.511C456.167 270.511 455.35 269.693 455.35 268.681C455.35 267.67 456.167 266.852 457.179 266.852C458.191 266.852 459.008 267.67 459.008 268.681Z" fill="#28FFF2"/>
<path d="M458.529 267.746C458.697 268.075 458.681 268.42 458.478 268.522C458.284 268.623 457.981 268.446 457.812 268.117C457.644 267.788 457.66 267.443 457.863 267.341C458.065 267.24 458.36 267.417 458.529 267.746Z" fill="#28FFF2"/>
<path d="M456.176 269.475C456.244 269.609 456.235 269.744 456.159 269.787C456.075 269.829 455.957 269.753 455.889 269.626C455.822 269.491 455.83 269.357 455.906 269.314C455.982 269.272 456.109 269.348 456.176 269.475Z" fill="#28FFF2"/>
<path d="M426.983 321.101C426.983 322.112 426.165 322.93 425.154 322.93C424.142 322.93 423.324 322.112 423.324 321.101C423.324 320.089 424.142 319.271 425.154 319.271C426.165 319.271 426.983 320.089 426.983 321.101Z" fill="#28FFF2"/>
<path d="M426.501 320.165C426.67 320.494 426.653 320.839 426.451 320.941C426.257 321.042 425.953 320.865 425.785 320.536C425.616 320.207 425.633 319.861 425.835 319.76C426.029 319.659 426.333 319.836 426.501 320.165Z" fill="#28FFF2"/>
<path d="M424.141 321.893C424.208 322.028 424.2 322.163 424.124 322.205C424.04 322.247 423.922 322.171 423.854 322.045C423.787 321.918 423.795 321.775 423.871 321.733C423.955 321.691 424.074 321.767 424.141 321.893Z" fill="#28FFF2"/>
<path d="M428.028 181.227C428.028 182.239 427.21 183.057 426.198 183.057C425.187 183.057 424.369 182.239 424.369 181.227C424.369 180.216 425.187 179.398 426.198 179.398C427.21 179.398 428.028 180.216 428.028 181.227Z" fill="#28FFF2"/>
<path d="M427.539 180.291C427.707 180.62 427.69 180.966 427.488 181.067C427.294 181.168 426.991 180.991 426.822 180.662C426.653 180.334 426.67 179.988 426.873 179.887C427.066 179.786 427.37 179.963 427.539 180.291Z" fill="#28FFF2"/>
<path d="M425.188 182.02C425.255 182.154 425.247 182.289 425.171 182.331C425.087 182.374 424.969 182.298 424.901 182.171C424.834 182.036 424.842 181.902 424.918 181.859C424.994 181.817 425.12 181.893 425.188 182.02Z" fill="#28FFF2"/>
<path d="M433.643 169.425C433.643 170.437 432.825 171.254 431.814 171.254C430.802 171.254 429.984 170.437 429.984 169.425C429.984 168.413 430.802 167.596 431.814 167.596C432.825 167.596 433.643 168.413 433.643 169.425Z" fill="#28FFF2"/>
<path d="M433.154 168.489C433.322 168.818 433.306 169.164 433.103 169.265C432.909 169.366 432.606 169.189 432.437 168.86C432.269 168.531 432.285 168.186 432.488 168.085C432.69 167.983 432.985 168.16 433.154 168.489Z" fill="#28FFF2"/>
<path d="M430.801 170.217C430.869 170.352 430.86 170.487 430.784 170.529C430.7 170.571 430.582 170.495 430.514 170.369C430.447 170.234 430.455 170.099 430.531 170.057C430.607 170.015 430.734 170.091 430.801 170.217Z" fill="#28FFF2"/>
<path d="M471.147 292.717C471.147 293.728 470.329 294.546 469.318 294.546C468.306 294.546 467.488 293.728 467.488 292.717C467.488 291.705 468.306 290.887 469.318 290.887C470.329 290.887 471.147 291.705 471.147 292.717Z" fill="#28FFF2"/>
<path d="M470.666 291.789C470.834 292.118 470.817 292.463 470.615 292.565C470.421 292.666 470.118 292.489 469.949 292.16C469.78 291.831 469.797 291.486 470 291.384C470.193 291.283 470.497 291.46 470.666 291.789Z" fill="#28FFF2"/>
<path d="M468.315 293.517C468.382 293.652 468.374 293.787 468.298 293.829C468.214 293.871 468.096 293.795 468.028 293.669C467.961 293.534 467.969 293.399 468.045 293.357C468.129 293.315 468.247 293.391 468.315 293.517Z" fill="#28FFF2"/>
<path d="M449.693 270.317C450.703 270.317 451.522 269.498 451.522 268.488C451.522 267.477 450.703 266.658 449.693 266.658C448.682 266.658 447.863 267.477 447.863 268.488C447.863 269.498 448.682 270.317 449.693 270.317Z" fill="#28FFF2"/>
<path d="M451.042 267.56C451.211 267.889 451.194 268.235 450.992 268.336C450.79 268.437 450.494 268.26 450.326 267.931C450.157 267.603 450.174 267.257 450.376 267.156C450.57 267.055 450.874 267.232 451.042 267.56Z" fill="#28FFF2"/>
<path d="M448.69 269.28C448.757 269.415 448.749 269.55 448.673 269.592C448.589 269.634 448.471 269.558 448.403 269.432C448.336 269.297 448.344 269.162 448.42 269.12C448.504 269.078 448.622 269.154 448.69 269.28Z" fill="#28FFF2"/>
<path d="M420.297 245.229C420.297 246.241 419.48 247.059 418.468 247.059C417.456 247.059 416.639 246.241 416.639 245.229C416.639 244.218 417.456 243.4 418.468 243.4C419.48 243.4 420.297 244.218 420.297 245.229Z" fill="#28FFF2"/>
<path d="M419.818 244.293C419.986 244.622 419.97 244.968 419.767 245.069C419.573 245.17 419.27 244.993 419.101 244.664C418.933 244.336 418.95 243.99 419.152 243.889C419.346 243.788 419.649 243.965 419.818 244.293Z" fill="#28FFF2"/>
<path d="M417.465 246.021C417.533 246.156 417.524 246.291 417.448 246.333C417.364 246.376 417.246 246.3 417.179 246.173C417.111 246.047 417.12 245.903 417.195 245.861C417.28 245.819 417.398 245.895 417.465 246.021Z" fill="#28FFF2"/>
<path d="M504.204 223.184C504.204 224.196 503.386 225.014 502.374 225.014C501.363 225.014 500.545 224.196 500.545 223.184C500.545 222.173 501.363 221.355 502.374 221.355C503.386 221.355 504.204 222.173 504.204 223.184Z" fill="#28FFF2"/>
<path d="M503.722 222.257C503.891 222.586 503.874 222.931 503.672 223.032C503.478 223.134 503.174 222.956 503.006 222.628C502.837 222.299 502.854 221.953 503.056 221.852C503.25 221.751 503.554 221.928 503.722 222.257Z" fill="#28FFF2"/>
<path d="M501.369 223.985C501.437 224.12 501.428 224.255 501.353 224.297C501.268 224.339 501.15 224.263 501.083 224.137C501.015 224.002 501.024 223.867 501.1 223.825C501.176 223.783 501.302 223.858 501.369 223.985Z" fill="#28FFF2"/>
<path d="M399.069 210.817C399.069 211.828 398.251 212.646 397.24 212.646C396.228 212.646 395.41 211.828 395.41 210.817C395.41 209.805 396.228 208.987 397.24 208.987C398.251 208.987 399.069 209.805 399.069 210.817Z" fill="#28FFF2"/>
<path d="M398.587 209.89C398.756 210.218 398.739 210.564 398.537 210.665C398.343 210.766 398.039 210.589 397.871 210.261C397.702 209.932 397.719 209.586 397.921 209.485C398.115 209.384 398.419 209.561 398.587 209.89Z" fill="#28FFF2"/>
<path d="M396.229 211.609C396.296 211.744 396.288 211.879 396.212 211.921C396.128 211.963 396.01 211.888 395.942 211.761C395.875 211.626 395.883 211.491 395.959 211.449C396.035 211.407 396.161 211.483 396.229 211.609Z" fill="#28FFF2"/>
<path d="M503.679 176.464C503.679 179.179 501.479 181.379 498.764 181.379C496.05 181.379 493.85 179.179 493.85 176.464C493.85 173.75 496.05 171.549 498.764 171.549C501.479 171.549 503.679 173.75 503.679 176.464Z" fill="#28FFF2"/>
<path d="M502.375 173.952C502.83 174.82 502.771 175.756 502.248 176.034C501.717 176.312 500.925 175.832 500.461 174.955C500.006 174.078 500.065 173.151 500.588 172.873C501.119 172.595 501.911 173.075 502.375 173.952Z" fill="#28FFF2"/>
<path d="M496.053 178.589C496.238 178.943 496.213 179.322 496.002 179.44C495.783 179.55 495.462 179.356 495.277 179.002C495.092 178.648 495.117 178.268 495.328 178.15C495.547 178.041 495.867 178.235 496.053 178.589Z" fill="#28FFF2"/>
<path d="M477.732 297.749C479.552 297.749 481.028 296.273 481.028 294.453C481.028 292.633 479.552 291.157 477.732 291.157C475.911 291.157 474.436 292.633 474.436 294.453C474.436 296.273 475.911 297.749 477.732 297.749Z" fill="#28FFF2"/>
<path d="M480.152 292.775C480.455 293.357 480.422 293.981 480.068 294.166C479.713 294.352 479.174 294.031 478.87 293.441C478.567 292.851 478.601 292.236 478.955 292.05C479.309 291.865 479.848 292.185 480.152 292.775Z" fill="#28FFF2"/>
<path d="M475.92 295.886C476.047 296.122 476.03 296.375 475.887 296.451C475.743 296.527 475.524 296.392 475.398 296.156C475.271 295.92 475.288 295.667 475.431 295.591C475.575 295.515 475.794 295.65 475.92 295.886Z" fill="#28FFF2"/>
<path d="M481.214 305.918C483.035 305.918 484.51 304.442 484.51 302.622C484.51 300.801 483.035 299.326 481.214 299.326C479.394 299.326 477.918 300.801 477.918 302.622C477.918 304.442 479.394 305.918 481.214 305.918Z" fill="#28FFF2"/>
<path d="M483.634 300.936C483.938 301.517 483.904 302.141 483.55 302.327C483.196 302.512 482.656 302.192 482.353 301.602C482.049 301.02 482.083 300.396 482.437 300.211C482.791 300.025 483.331 300.346 483.634 300.936Z" fill="#28FFF2"/>
<path d="M479.393 304.046C479.519 304.282 479.503 304.535 479.359 304.611C479.216 304.687 478.997 304.552 478.87 304.316C478.744 304.08 478.761 303.827 478.904 303.751C479.047 303.675 479.267 303.81 479.393 304.046Z" fill="#28FFF2"/>
<path d="M444.046 257.292C445.867 257.292 447.342 255.816 447.342 253.996C447.342 252.175 445.867 250.7 444.046 250.7C442.226 250.7 440.75 252.175 440.75 253.996C440.75 255.816 442.226 257.292 444.046 257.292Z" fill="#28FFF2"/>
<path d="M446.472 252.319C446.776 252.9 446.742 253.524 446.388 253.71C446.034 253.895 445.494 253.575 445.191 252.985C444.887 252.403 444.921 251.779 445.275 251.594C445.629 251.408 446.169 251.728 446.472 252.319Z" fill="#28FFF2"/>
<path d="M442.233 255.421C442.359 255.657 442.342 255.91 442.199 255.986C442.056 256.062 441.837 255.927 441.71 255.691C441.584 255.455 441.601 255.202 441.744 255.126C441.887 255.05 442.106 255.185 442.233 255.421Z" fill="#28FFF2"/>
<path d="M429.948 156.063C429.948 157.884 428.473 159.359 426.652 159.359C424.831 159.359 423.355 157.884 423.355 156.063C423.355 154.242 424.831 152.767 426.652 152.767C428.473 152.767 429.948 154.242 429.948 156.063Z" fill="#28FFF2"/>
<path d="M429.082 154.385C429.385 154.967 429.351 155.591 428.997 155.776C428.643 155.961 428.104 155.641 427.8 155.051C427.497 154.469 427.53 153.845 427.884 153.66C428.239 153.475 428.778 153.795 429.082 154.385Z" fill="#28FFF2"/>
<path d="M424.84 157.496C424.967 157.732 424.95 157.985 424.807 158.061C424.663 158.137 424.444 158.002 424.318 157.766C424.191 157.53 424.208 157.277 424.351 157.201C424.495 157.125 424.714 157.26 424.84 157.496Z" fill="#28FFF2"/>
<path d="M430.167 304.358C431.988 304.358 433.463 302.882 433.463 301.062C433.463 299.241 431.988 297.766 430.167 297.766C428.347 297.766 426.871 299.241 426.871 301.062C426.871 302.882 428.347 304.358 430.167 304.358Z" fill="#28FFF2"/>
<path d="M432.597 299.376C432.901 299.957 432.867 300.581 432.513 300.767C432.159 300.952 431.619 300.632 431.316 300.042C431.012 299.46 431.046 298.836 431.4 298.651C431.754 298.465 432.294 298.786 432.597 299.376Z" fill="#28FFF2"/>
<path d="M428.356 302.487C428.482 302.723 428.466 302.976 428.322 303.051C428.179 303.127 427.96 302.992 427.833 302.756C427.707 302.52 427.724 302.267 427.867 302.192C428.01 302.116 428.229 302.251 428.356 302.487Z" fill="#28FFF2"/>
<path d="M440.351 287.692C441.026 287.692 441.574 287.145 441.574 286.469C441.574 285.794 441.026 285.247 440.351 285.247C439.676 285.247 439.129 285.794 439.129 286.469C439.129 287.145 439.676 287.692 440.351 287.692Z" fill="#28FFF2"/>
<path d="M441.253 285.846C441.371 286.065 441.354 286.293 441.219 286.369C441.084 286.436 440.89 286.318 440.772 286.099C440.654 285.88 440.671 285.652 440.806 285.576C440.941 285.509 441.135 285.627 441.253 285.846Z" fill="#28FFF2"/>
<path d="M439.679 287.001C439.721 287.093 439.721 287.186 439.662 287.211C439.603 287.237 439.527 287.195 439.477 287.102C439.426 287.009 439.434 286.916 439.493 286.891C439.544 286.866 439.628 286.908 439.679 287.001Z" fill="#28FFF2"/>
<path d="M476.636 320.763C476.636 321.438 476.088 321.986 475.414 321.986C474.739 321.986 474.191 321.438 474.191 320.763C474.191 320.089 474.739 319.541 475.414 319.541C476.088 319.541 476.636 320.089 476.636 320.763Z" fill="#28FFF2"/>
<path d="M476.315 320.131C476.433 320.35 476.416 320.578 476.282 320.653C476.147 320.729 475.953 320.603 475.835 320.384C475.717 320.164 475.734 319.937 475.869 319.861C476.003 319.785 476.197 319.912 476.315 320.131Z" fill="#28FFF2"/>
<path d="M474.739 321.295C474.79 321.387 474.782 321.48 474.723 321.505C474.672 321.531 474.588 321.488 474.537 321.396C474.487 321.303 474.495 321.21 474.554 321.185C474.613 321.16 474.689 321.202 474.739 321.295Z" fill="#28FFF2"/>
<path d="M448.875 251.644C449.55 251.644 450.097 251.097 450.097 250.422C450.097 249.747 449.55 249.2 448.875 249.2C448.2 249.2 447.652 249.747 447.652 250.422C447.652 251.097 448.2 251.644 448.875 251.644Z" fill="#28FFF2"/>
<path d="M449.776 249.798C449.894 250.018 449.877 250.245 449.743 250.321C449.608 250.389 449.414 250.271 449.296 250.051C449.178 249.832 449.195 249.605 449.329 249.529C449.464 249.461 449.658 249.579 449.776 249.798Z" fill="#28FFF2"/>
<path d="M448.2 250.953C448.251 251.045 448.243 251.138 448.184 251.164C448.133 251.189 448.049 251.147 447.998 251.054C447.947 250.961 447.956 250.868 448.015 250.843C448.065 250.818 448.15 250.86 448.2 250.953Z" fill="#28FFF2"/>
<path d="M428.709 309.585C429.384 309.585 429.931 309.038 429.931 308.363C429.931 307.687 429.384 307.14 428.709 307.14C428.034 307.14 427.486 307.687 427.486 308.363C427.486 309.038 428.034 309.585 428.709 309.585Z" fill="#28FFF2"/>
<path d="M429.61 307.739C429.728 307.958 429.711 308.186 429.577 308.262C429.442 308.329 429.248 308.211 429.13 307.992C429.012 307.773 429.029 307.545 429.163 307.469C429.298 307.402 429.492 307.52 429.61 307.739Z" fill="#28FFF2"/>
<path d="M428.036 308.894C428.078 308.986 428.078 309.079 428.019 309.104C427.96 309.13 427.885 309.088 427.834 308.995C427.783 308.902 427.792 308.809 427.851 308.784C427.901 308.759 427.986 308.801 428.036 308.894Z" fill="#28FFF2"/>
<path d="M497.163 300.877C498.984 300.877 500.46 299.401 500.46 297.58C500.46 295.76 498.984 294.284 497.163 294.284C495.343 294.284 493.867 295.76 493.867 297.58C493.867 299.401 495.343 300.877 497.163 300.877Z" fill="#28FFF2"/>
<path d="M499.582 295.895C499.885 296.476 499.851 297.1 499.497 297.286C499.143 297.471 498.604 297.151 498.3 296.561C497.997 295.971 498.03 295.355 498.384 295.17C498.739 294.984 499.278 295.305 499.582 295.895Z" fill="#28FFF2"/>
<path d="M495.344 299.005C495.471 299.241 495.454 299.494 495.31 299.57C495.167 299.646 494.948 299.511 494.822 299.275C494.695 299.039 494.712 298.786 494.855 298.71C494.999 298.634 495.218 298.769 495.344 299.005Z" fill="#28FFF2"/>
<path d="M400.038 317.661C400.038 318.774 399.136 319.668 398.032 319.668C396.927 319.668 396.025 318.766 396.025 317.661C396.025 316.557 396.927 315.655 398.032 315.655C399.136 315.655 400.038 316.557 400.038 317.661Z" fill="#28FFF2"/>
<path d="M399.517 316.632C399.703 316.986 399.678 317.365 399.467 317.483C399.248 317.593 398.927 317.399 398.742 317.045C398.556 316.691 398.582 316.312 398.792 316.194C399.012 316.084 399.332 316.278 399.517 316.632Z" fill="#28FFF2"/>
<path d="M396.926 318.529C397.002 318.672 396.994 318.832 396.901 318.875C396.817 318.917 396.682 318.841 396.606 318.698C396.53 318.554 396.538 318.394 396.631 318.352C396.724 318.31 396.85 318.386 396.926 318.529Z" fill="#28FFF2"/>
<path d="M396.567 282.92C396.567 284.033 395.665 284.927 394.561 284.927C393.457 284.927 392.555 284.025 392.555 282.92C392.555 281.816 393.457 280.914 394.561 280.914C395.665 280.914 396.567 281.816 396.567 282.92Z" fill="#28FFF2"/>
<path d="M396.035 281.901C396.22 282.255 396.195 282.634 395.984 282.752C395.765 282.862 395.445 282.668 395.259 282.314C395.074 281.96 395.099 281.58 395.31 281.462C395.529 281.353 395.85 281.547 396.035 281.901Z" fill="#28FFF2"/>
<path d="M393.456 283.797C393.531 283.94 393.523 284.101 393.43 284.143C393.346 284.185 393.211 284.109 393.135 283.966C393.059 283.822 393.068 283.662 393.16 283.62C393.245 283.578 393.38 283.654 393.456 283.797Z" fill="#28FFF2"/>
</g>
<path d="M223.4 105.881L151.484 103.095L94.7031 145.348L165.816 148.11L223.4 105.881Z" fill="url(#paint16_linear_335_382)" stroke="#3442C0" stroke-linecap="round" stroke-linejoin="round"/>
<path d="M165.814 148.11L191.57 232.535L223.398 105.881L165.814 148.11Z" fill="url(#paint17_linear_335_382)" stroke="#3442C0" stroke-miterlimit="10" stroke-linejoin="round"/>
<path d="M94.7031 145.348L191.572 232.535L165.816 148.11L94.7031 145.348Z" fill="url(#paint18_linear_335_382)" stroke="#3442C0" stroke-linecap="round" stroke-linejoin="round"/>
<path d="M91.4492 132.13L161.341 133.949L122.507 7L91.4492 132.13Z" fill="url(#paint19_linear_335_382)" stroke="#3442C0" stroke-linecap="round" stroke-linejoin="round"/>
<path d="M122.508 7L161.342 133.949L218.115 92.9822L122.508 7Z" fill="url(#paint20_linear_335_382)" stroke="#3442C0" stroke-linecap="round" stroke-linejoin="round"/>
<path d="M526.203 91.9043L442.721 135.009L484.465 215.491L495.817 239.43L533 123.225L526.203 91.9043Z" fill="url(#paint21_linear_335_382)" stroke="#3442C0" stroke-miterlimit="10" stroke-linejoin="round"/>
<path d="M442.721 135.009L365 175.143L373.026 197.353L495.817 239.43L484.465 215.491L442.721 135.009Z" fill="url(#paint22_linear_335_382)" stroke="#3442C0" stroke-miterlimit="10" stroke-linejoin="round"/>
<path d="M480.137 76.3398L479.911 77.0052C477.27 84.8318 468.991 89.1053 461.425 86.5467C453.86 83.9881 449.868 75.5716 452.515 67.7518L452.742 67.0865L406.738 51.5498L365 175.143L484.465 215.497L526.203 91.9039L480.137 76.3467V76.3398Z" fill="url(#paint23_linear_335_382)" stroke="#3442C0" stroke-linejoin="round"/>
<path d="M411.999 127.525L419.914 130.201L415.264 161.809L415.36 161.843L431.918 134.255L439.325 136.758L435.011 168.888L435.128 168.929L451.473 140.86L459.237 143.48L434.366 183.835L426.506 181.18L430.745 149.434L430.594 149.386L414.303 177.064L406.299 174.362L411.999 127.532V127.525ZM468.154 146.492L480.638 150.71L478.251 198.658L470.082 195.9L470.672 185.255L456.453 180.453L451.082 189.487L443.125 186.798L468.148 146.499L468.154 146.492ZM469.266 158.88L460.39 173.765L471.138 177.394L472.599 159.998L469.266 158.873V158.88Z" fill="white" stroke="#3442C0" stroke-linejoin="round"/>
<defs>
<linearGradient id="paint0_linear_335_382" x1="104.003" y1="361.616" x2="107.058" y2="387.474" gradientUnits="userSpaceOnUse">
<stop stop-color="#7041BF"/>
<stop offset="1" stop-color="#3255C7"/>
</linearGradient>
<linearGradient id="paint1_linear_335_382" x1="172.182" y1="113.688" x2="172.182" y2="333.948" gradientUnits="userSpaceOnUse">
<stop stop-color="#B8FAFB" stop-opacity="0"/>
<stop offset="0.510417" stop-color="#B8FBF8" stop-opacity="0.5"/>
<stop offset="1" stop-color="#E3D3FF"/>
</linearGradient>
<linearGradient id="paint2_linear_335_382" x1="118.503" y1="190.077" x2="143.048" y2="336.349" gradientUnits="userSpaceOnUse">
<stop stop-color="#B8FAFB" stop-opacity="0"/>
<stop offset="0.510417" stop-color="#B8FBF8" stop-opacity="0.5"/>
<stop offset="1" stop-color="#E3D3FF"/>
</linearGradient>
<linearGradient id="paint3_linear_335_382" x1="228.277" y1="190.215" x2="201.276" y2="336.053" gradientUnits="userSpaceOnUse">
<stop stop-color="#B8FAFB" stop-opacity="0"/>
<stop offset="0.510417" stop-color="#B8FBF8" stop-opacity="0.5"/>
<stop offset="1" stop-color="#E3D3FF"/>
</linearGradient>
<linearGradient id="paint4_linear_335_382" x1="127.891" y1="359.787" x2="138.803" y2="399.581" gradientUnits="userSpaceOnUse">
<stop stop-color="#E6C1FF"/>
<stop offset="0.40625" stop-color="#B6C7FF"/>
<stop offset="1" stop-color="#AFF1FF"/>
</linearGradient>
<linearGradient id="paint5_linear_335_382" x1="99.5" y1="339.5" x2="151.07" y2="420.156" gradientUnits="userSpaceOnUse">
<stop stop-color="#F2DEFF"/>
<stop offset="0.333333" stop-color="white"/>
<stop offset="0.625" stop-color="#DDE5FF"/>
<stop offset="1" stop-color="#D9F8FF"/>
</linearGradient>
<linearGradient id="paint6_linear_335_382" x1="132.439" y1="330.139" x2="145.03" y2="368.827" gradientUnits="userSpaceOnUse">
<stop stop-color="#F3E1FF"/>
<stop offset="0.40625" stop-color="#CED9FF"/>
<stop offset="1" stop-color="#CDF6FF"/>
</linearGradient>
<linearGradient id="paint7_linear_335_382" x1="105.533" y1="318.001" x2="183.935" y2="417.647" gradientUnits="userSpaceOnUse">
<stop stop-color="#E6007A"/>
<stop offset="0.21" stop-color="#703AC2"/>
<stop offset="0.46" stop-color="#0070EB"/>
<stop offset="0.77" stop-color="#0297FB"/>
<stop offset="1" stop-color="#0AE2FF"/>
</linearGradient>
<linearGradient id="paint8_linear_335_382" x1="377.003" y1="361.616" x2="380.058" y2="387.474" gradientUnits="userSpaceOnUse">
<stop stop-color="#7041BF"/>
<stop offset="1" stop-color="#3255C7"/>
</linearGradient>
<linearGradient id="paint9_linear_335_382" x1="445.182" y1="113.688" x2="445.182" y2="333.948" gradientUnits="userSpaceOnUse">
<stop stop-color="#B8FAFB" stop-opacity="0"/>
<stop offset="0.510417" stop-color="#B8FBF8" stop-opacity="0.5"/>
<stop offset="1" stop-color="#E3D3FF"/>
</linearGradient>
<linearGradient id="paint10_linear_335_382" x1="391.503" y1="190.077" x2="416.048" y2="336.349" gradientUnits="userSpaceOnUse">
<stop stop-color="#B8FAFB" stop-opacity="0"/>
<stop offset="0.510417" stop-color="#B8FBF8" stop-opacity="0.5"/>
<stop offset="1" stop-color="#E3D3FF"/>
</linearGradient>
<linearGradient id="paint11_linear_335_382" x1="501.277" y1="190.215" x2="474.276" y2="336.053" gradientUnits="userSpaceOnUse">
<stop stop-color="#B8FAFB" stop-opacity="0"/>
<stop offset="0.510417" stop-color="#B8FBF8" stop-opacity="0.5"/>
<stop offset="1" stop-color="#E3D3FF"/>
</linearGradient>
<linearGradient id="paint12_linear_335_382" x1="400.891" y1="359.787" x2="411.803" y2="399.581" gradientUnits="userSpaceOnUse">
<stop stop-color="#E6C1FF"/>
<stop offset="0.40625" stop-color="#B6C7FF"/>
<stop offset="1" stop-color="#AFF1FF"/>
</linearGradient>
<linearGradient id="paint13_linear_335_382" x1="372.5" y1="339.5" x2="424.07" y2="420.156" gradientUnits="userSpaceOnUse">
<stop stop-color="#F2DEFF"/>
<stop offset="0.333333" stop-color="white"/>
<stop offset="0.625" stop-color="#DDE5FF"/>
<stop offset="1" stop-color="#D9F8FF"/>
</linearGradient>
<linearGradient id="paint14_linear_335_382" x1="405.439" y1="330.139" x2="418.03" y2="368.827" gradientUnits="userSpaceOnUse">
<stop stop-color="#F3E1FF"/>
<stop offset="0.40625" stop-color="#CED9FF"/>
<stop offset="1" stop-color="#CDF6FF"/>
</linearGradient>
<linearGradient id="paint15_linear_335_382" x1="378.533" y1="318.001" x2="456.935" y2="417.647" gradientUnits="userSpaceOnUse">
<stop stop-color="#E6007A"/>
<stop offset="0.21" stop-color="#703AC2"/>
<stop offset="0.46" stop-color="#0070EB"/>
<stop offset="0.77" stop-color="#0297FB"/>
<stop offset="1" stop-color="#0AE2FF"/>
</linearGradient>
<linearGradient id="paint16_linear_335_382" x1="216" y1="103.55" x2="120" y2="141.55" gradientUnits="userSpaceOnUse">
<stop stop-color="#CAB3F5"/>
<stop offset="1" stop-color="#87A9F0"/>
</linearGradient>
<linearGradient id="paint17_linear_335_382" x1="195" y1="128.55" x2="194.606" y2="232.535" gradientUnits="userSpaceOnUse">
<stop stop-color="#C8B2F5"/>
<stop offset="1" stop-color="#EBE7FE"/>
</linearGradient>
<linearGradient id="paint18_linear_335_382" x1="143.137" y1="145.348" x2="143.137" y2="232.535" gradientUnits="userSpaceOnUse">
<stop stop-color="#EECBC0"/>
<stop offset="1" stop-color="#B8FBF6"/>
</linearGradient>
<linearGradient id="paint19_linear_335_382" x1="126" y1="58.5498" x2="126" y2="125.55" gradientUnits="userSpaceOnUse">
<stop stop-color="#EECBC0"/>
<stop offset="1" stop-color="#B7D0F8"/>
</linearGradient>
<linearGradient id="paint20_linear_335_382" x1="170" y1="53.5498" x2="170.311" y2="133.949" gradientUnits="userSpaceOnUse">
<stop stop-color="#B8FBF6"/>
<stop offset="1" stop-color="#CAB3F5"/>
</linearGradient>
<linearGradient id="paint21_linear_335_382" x1="487.861" y1="91.9043" x2="487.861" y2="239.43" gradientUnits="userSpaceOnUse">
<stop stop-color="#654FF0"/>
<stop offset="0.53125" stop-color="#9B8BFF"/>
<stop offset="1" stop-color="#8B9EFF"/>
</linearGradient>
<linearGradient id="paint22_linear_335_382" x1="375" y1="187.55" x2="485" y2="229.55" gradientUnits="userSpaceOnUse">
<stop stop-color="#7767DE"/>
<stop offset="0.541667" stop-color="#654FF0"/>
<stop offset="1" stop-color="#524FF0"/>
</linearGradient>
<linearGradient id="paint23_linear_335_382" x1="445.601" y1="51.5498" x2="446" y2="232.55" gradientUnits="userSpaceOnUse">
<stop stop-color="#8472F7"/>
<stop offset="0.526042" stop-color="#C0AAFF"/>
<stop offset="1" stop-color="#AAE0FF"/>
</linearGradient>
</defs>
</svg>
