<svg width="1728" height="218" viewBox="0 0 1728 218" fill="none" xmlns="http://www.w3.org/2000/svg">
<g clip-path="url(#clip0_346_4562)">
<g opacity="0.2">
<path d="M891.149 1.85938C889.019 8.99937 805.119 75.9493 805.089 83.1993C805.039 94.9193 777.339 100.779 765.339 109.249C753.909 117.319 744.479 124.649 734.979 130.429C725.889 135.959 718.999 141.059 706.029 141.519C694.429 141.929 682.529 138.429 671.079 140.949C668.989 143.239 666.479 145.299 663.609 147.169C648.639 156.899 624.949 154.549 606.429 150.789C588.759 147.199 564.679 145.759 546.849 150.139C527.979 154.769 513.269 163.449 491.759 163.499C472.659 163.539 464.759 151.329 444.589 153.099C427.139 154.629 407.029 164.969 390.079 159.729C379.389 156.429 372.659 155.879 361.649 153.109C349.629 150.089 339.219 144.639 327.959 147.409C308.669 152.149 287.689 159.229 269.279 154.159C248.479 148.429 228.039 145.809 205.419 146.279C196.029 146.479 186.699 153.649 177.379 154.589C166.889 155.649 156.399 156.639 145.839 156.429V156.449C145.839 156.449 108.629 156.599 85.7593 144.389C62.8893 132.179 43.4093 126.239 34.0893 126.669C26.6493 127.009 104.629 54.1293 136.289 24.8093V1.86938H891.149V1.85938Z" fill="url(#paint0_linear_346_4562)" stroke="#4D5AFF" stroke-miterlimit="10"/>
<path d="M831.72 1.85938C831.72 1.85938 730.88 90.6193 712.76 91.8293C676.17 94.2693 672.52 120.869 646.8 125.879C635.42 128.099 622.96 130.529 609.43 130.699C596.87 130.859 589.53 128.729 579.11 126.899C546.38 121.149 528.51 136.449 500.19 138.869C488.62 139.859 476.62 138.919 467.31 136.479C457.6 133.929 452.4 129.799 438.13 130.899C418.67 132.389 403.52 138.959 384.59 141.319C369.48 143.209 351.92 143.219 336.32 141.929C321.28 140.689 315.2 137.689 304.52 134.389C292.77 130.759 280.35 131.809 266.29 133.559C238.74 136.989 201.97 145.329 174.08 137.729C163.42 134.829 160.13 130.509 152.3 126.949C151.66 126.669 151.02 126.409 150.38 126.159C146.28 124.629 141.55 123.819 136.32 123.419V122.549C104.38 118.479 73.8302 141.709 47.6702 163.479C17.1802 188.859 -28.8298 195.699 -28.8298 195.699C-28.8298 195.699 -50.5898 29.6793 -50.5898 24.9493C-50.5898 21.4893 71.0801 23.0893 136.31 24.1993V1.85938H831.73H831.72Z" fill="url(#paint1_linear_346_4562)" stroke="#4D5AFF" stroke-miterlimit="10"/>
<path opacity="0.4" d="M908.46 82.4498C903.42 85.2098 901.3 88.5498 894.44 90.7998C876.49 96.6898 852.83 90.2298 835.09 87.5698C826.04 86.2098 818.05 85.3998 810.48 88.2098C803.61 90.7698 799.69 93.0898 790.01 94.0498C779.97 95.0498 768.67 95.0398 758.94 93.5698C746.76 91.7398 737.01 86.6498 724.48 85.4998C715.3 84.6498 711.95 87.8498 705.7 89.8198C699.7 91.7098 691.98 92.4398 684.54 91.6698C666.31 89.7998 654.81 77.9498 633.74 82.3998C627.03 83.8198 622.31 85.4698 614.22 85.3398C605.51 85.2098 597.49 83.3298 590.17 81.6098C573.61 77.7198 571.27 57.1198 547.71 55.2298C536.04 54.2898 526.49 10.7998 526.49 10.7998H918.73V79.7098C914.82 80.0698 911.35 80.8498 908.44 82.4498H908.46Z" fill="url(#paint2_linear_346_4562)" stroke="#4D5AFF" stroke-miterlimit="10"/>
<path opacity="0.6" d="M900.471 43.7195C888.841 46.4695 876.421 46.0996 865.051 43.6196C849.941 40.3196 842.211 40.6096 830.101 46.1196C821.091 50.2196 810.001 52.8395 797.771 50.4095C787.521 48.3695 778.621 42.4796 766.331 44.4296C754.031 46.3796 748.651 53.7796 734.281 54.2296C720.741 54.6596 705.731 48.3396 698.851 43.6696C684.811 34.1296 632.431 40.9195 617.101 30.8795C608.731 25.3895 608.871 17.1695 610.561 9.51953H918.741V33.6495C911.751 36.3895 909.521 41.5796 900.471 43.7296V43.7195Z" fill="url(#paint3_linear_346_4562)" stroke="#4D5AFF" stroke-miterlimit="10"/>
<path d="M892.05 55.4701C894.67 53.5501 895.69 50.17 895.62 47.06C895.42 28.36 895.19 30.3801 894.99 11.6801C896.49 11.6701 897.24 11.6901 898.74 11.6801C900.24 11.6701 900.99 11.6901 902.49 11.6801C902.62 30.3901 902.78 28.3 902.92 47.01C902.9 50.13 903.98 53.5 906.63 55.4C910.13 57.93 914.41 59.2301 918.75 59.2301V62.6201L604.75 62.7201L606.22 59.88L652.78 59.34C657.11 59.32 661.37 58.01 664.84 55.46C667.46 53.54 668.48 50.1601 668.41 47.0501C668.21 28.3501 667.98 30.3701 667.78 11.6701C669.28 11.6601 670.03 11.6801 671.53 11.6701C673.03 11.6601 673.78 11.6801 675.28 11.6701C675.41 30.3801 675.57 28.29 675.71 47C675.69 50.12 676.77 53.49 679.42 55.39L702.72 55.45C705.34 53.53 706.36 50.1501 706.29 47.0401C706.09 28.3401 705.86 30.3601 705.66 11.6601C707.16 11.6501 707.91 11.6701 709.41 11.6601C710.91 11.6501 711.66 11.6701 713.16 11.6601C713.29 30.3701 713.45 28.2801 713.59 46.9901C713.57 50.1101 714.65 53.48 717.3 55.38L740.6 55.44C743.22 53.52 744.24 50.14 744.17 47.03C743.97 28.33 743.74 30.35 743.54 11.65C745.04 11.64 745.79 11.66 747.29 11.65C748.79 11.64 749.54 11.66 751.04 11.65C751.17 30.36 751.33 28.2701 751.47 46.9801C751.45 50.1001 752.53 53.4701 755.17 55.3701L778.47 55.4301C781.09 53.5101 782.11 50.13 782.04 47.02C781.84 28.32 781.61 30.34 781.41 11.64C782.91 11.63 783.66 11.65 785.16 11.64C786.66 11.63 787.41 11.65 788.91 11.64C789.04 30.35 789.2 28.2601 789.34 46.9701C789.32 50.0901 790.4 53.4601 793.05 55.3601L816.35 55.4201C818.97 53.5001 819.99 50.12 819.92 47.01C819.72 28.31 819.49 30.33 819.29 11.63C820.79 11.62 821.54 11.64 823.04 11.63C824.54 11.62 825.29 11.64 826.79 11.63C826.92 30.34 827.08 28.25 827.22 46.96C827.2 50.08 828.28 53.4501 830.92 55.3501L854.22 55.4101C856.84 53.4901 857.86 50.11 857.79 47C857.59 28.3 857.36 30.3201 857.16 11.6201C858.66 11.6101 859.41 11.6301 860.91 11.6201C862.41 11.6101 863.16 11.6301 864.66 11.6201C864.79 30.3301 864.95 28.24 865.09 46.95C865.07 50.07 866.15 53.44 868.79 55.34L892.09 55.4L892.05 55.4701Z" fill="url(#paint4_linear_346_4562)" stroke="#4D5AFF" stroke-miterlimit="10"/>
<path d="M830.69 64.3906H788.61C787.72 64.3906 786.99 65.1206 786.99 66.0106V75.0806C786.99 75.9706 787.72 76.7006 788.61 76.7006H810.59C829.55 76.7006 835.17 64.3906 830.69 64.3906V64.3906Z" fill="url(#paint5_linear_346_4562)" stroke="#4D5AFF" stroke-miterlimit="10"/>
<path d="M794.019 64.4003C794.019 63.3903 793.199 62.5703 792.189 62.5703C791.179 62.5703 790.359 63.3903 790.359 64.4003C790.359 65.4103 791.179 66.2303 792.189 66.2303C793.199 66.2303 794.019 65.4103 794.019 64.4003Z" fill="url(#paint6_linear_346_4562)" stroke="#4D5AFF" stroke-miterlimit="10"/>
<path d="M800.09 64.4003C800.09 63.3903 799.27 62.5703 798.26 62.5703C797.25 62.5703 796.43 63.3903 796.43 64.4003C796.43 65.4103 797.25 66.2303 798.26 66.2303C799.27 66.2303 800.09 65.4103 800.09 64.4003Z" fill="url(#paint7_linear_346_4562)" stroke="#4D5AFF" stroke-miterlimit="10"/>
<path d="M796.991 63.5205H793.391V65.2305H796.991V63.5205Z" fill="url(#paint8_linear_346_4562)" stroke="#4D5AFF" stroke-miterlimit="10"/>
<path d="M799.689 63.5205V65.2305H803.28L799.689 63.5205Z" fill="url(#paint9_linear_346_4562)" stroke="#4D5AFF" stroke-miterlimit="10"/>
<path d="M790.92 63.5205V65.2305H787.33L790.92 63.5205Z" fill="url(#paint10_linear_346_4562)" stroke="#4D5AFF" stroke-miterlimit="10"/>
<path d="M822.699 64.4003C822.699 63.3903 821.879 62.5703 820.869 62.5703C819.859 62.5703 819.039 63.3903 819.039 64.4003C819.039 65.4103 819.859 66.2303 820.869 66.2303C821.879 66.2303 822.699 65.4103 822.699 64.4003Z" fill="url(#paint11_linear_346_4562)" stroke="#4D5AFF" stroke-miterlimit="10"/>
<path d="M828.769 64.4003C828.769 63.3903 827.949 62.5703 826.939 62.5703C825.929 62.5703 825.109 63.3903 825.109 64.4003C825.109 65.4103 825.929 66.2303 826.939 66.2303C827.949 66.2303 828.769 65.4103 828.769 64.4003Z" fill="url(#paint12_linear_346_4562)" stroke="#4D5AFF" stroke-miterlimit="10"/>
<path d="M825.67 63.5205H822.07V65.2305H825.67V63.5205Z" fill="url(#paint13_linear_346_4562)" stroke="#4D5AFF" stroke-miterlimit="10"/>
<path d="M828.369 63.5205V65.2305H831.959L828.369 63.5205Z" fill="url(#paint14_linear_346_4562)" stroke="#4D5AFF" stroke-miterlimit="10"/>
<path d="M819.61 63.5205V65.2305H816.01L819.61 63.5205Z" fill="url(#paint15_linear_346_4562)" stroke="#4D5AFF" stroke-miterlimit="10"/>
<path d="M815.77 64.04H804.28L803.82 64.6H816.23L815.77 64.04Z" fill="url(#paint16_linear_346_4562)" stroke="#4D5AFF" stroke-miterlimit="10"/>
<path d="M788.09 66.2207H784.16V74.8707H788.09V66.2207Z" fill="url(#paint17_linear_346_4562)" stroke="#4D5AFF" stroke-miterlimit="10"/>
<path d="M741.19 64.3906H783.27C784.16 64.3906 784.89 65.1206 784.89 66.0106V75.0806C784.89 75.9706 784.16 76.7006 783.27 76.7006H741.19C740.3 76.7006 739.57 75.9706 739.57 75.0806V66.0106C739.57 65.1206 740.3 64.3906 741.19 64.3906Z" fill="url(#paint18_linear_346_4562)" stroke="#4D5AFF" stroke-miterlimit="10"/>
<path d="M746.59 64.4003C746.59 63.3903 745.77 62.5703 744.76 62.5703C743.75 62.5703 742.93 63.3903 742.93 64.4003C742.93 65.4103 743.75 66.2303 744.76 66.2303C745.77 66.2303 746.59 65.4103 746.59 64.4003Z" fill="url(#paint19_linear_346_4562)" stroke="#4D5AFF" stroke-miterlimit="10"/>
<path d="M752.66 64.4003C752.66 63.3903 751.84 62.5703 750.83 62.5703C749.82 62.5703 749 63.3903 749 64.4003C749 65.4103 749.82 66.2303 750.83 66.2303C751.84 66.2303 752.66 65.4103 752.66 64.4003Z" fill="url(#paint20_linear_346_4562)" stroke="#4D5AFF" stroke-miterlimit="10"/>
<path d="M749.571 63.5205H745.971V65.2305H749.571V63.5205Z" fill="url(#paint21_linear_346_4562)" stroke="#4D5AFF" stroke-miterlimit="10"/>
<path d="M752.27 63.5205V65.2305H755.859L752.27 63.5205Z" fill="url(#paint22_linear_346_4562)" stroke="#4D5AFF" stroke-miterlimit="10"/>
<path d="M743.5 63.5205V65.2305H739.91L743.5 63.5205Z" fill="url(#paint23_linear_346_4562)" stroke="#4D5AFF" stroke-miterlimit="10"/>
<path d="M775.22 64.4003C775.22 63.3903 774.401 62.5703 773.391 62.5703C772.381 62.5703 771.561 63.3903 771.561 64.4003C771.561 65.4103 772.381 66.2303 773.391 66.2303C774.401 66.2303 775.22 65.4103 775.22 64.4003Z" fill="url(#paint24_linear_346_4562)" stroke="#4D5AFF" stroke-miterlimit="10"/>
<path d="M781.291 64.4003C781.291 63.3903 780.471 62.5703 779.461 62.5703C778.451 62.5703 777.631 63.3903 777.631 64.4003C777.631 65.4103 778.451 66.2303 779.461 66.2303C780.471 66.2303 781.291 65.4103 781.291 64.4003Z" fill="url(#paint25_linear_346_4562)" stroke="#4D5AFF" stroke-miterlimit="10"/>
<path d="M778.202 63.5205H774.602V65.2305H778.202V63.5205Z" fill="url(#paint26_linear_346_4562)" stroke="#4D5AFF" stroke-miterlimit="10"/>
<path d="M780.891 63.5205V65.2305H784.491L780.891 63.5205Z" fill="url(#paint27_linear_346_4562)" stroke="#4D5AFF" stroke-miterlimit="10"/>
<path d="M772.131 63.5205V65.2305H768.531L772.131 63.5205Z" fill="url(#paint28_linear_346_4562)" stroke="#4D5AFF" stroke-miterlimit="10"/>
<path d="M767.981 64.04H756.491L756.031 64.6H768.441L767.981 64.04Z" fill="url(#paint29_linear_346_4562)" stroke="#4D5AFF" stroke-miterlimit="10"/>
<path d="M742.111 69.9805H743.991C744.251 69.9805 744.461 70.1904 744.461 70.4504V72.3304C744.461 72.5904 744.251 72.8005 743.991 72.8005H742.111C741.851 72.8005 741.641 72.5904 741.641 72.3304V70.4504C741.641 70.1904 741.851 69.9805 742.111 69.9805Z" fill="url(#paint30_linear_346_4562)" stroke="#4D5AFF" stroke-miterlimit="10"/>
<path d="M746.39 69.9805H748.27C748.53 69.9805 748.74 70.1904 748.74 70.4504V72.3304C748.74 72.5904 748.53 72.8005 748.27 72.8005H746.39C746.13 72.8005 745.92 72.5904 745.92 72.3304V70.4504C745.92 70.1904 746.13 69.9805 746.39 69.9805Z" fill="url(#paint31_linear_346_4562)" stroke="#4D5AFF" stroke-miterlimit="10"/>
<path d="M752.52 69.9805H750.65C750.39 69.9805 750.18 70.1909 750.18 70.4504V72.3204C750.18 72.58 750.39 72.7905 750.65 72.7905H752.52C752.779 72.7905 752.99 72.58 752.99 72.3204V70.4504C752.99 70.1909 752.779 69.9805 752.52 69.9805Z" fill="url(#paint32_linear_346_4562)" stroke="#4D5AFF" stroke-miterlimit="10"/>
<path d="M754.911 69.9805H756.792C757.052 69.9805 757.261 70.1904 757.261 70.4504V72.3304C757.261 72.5904 757.052 72.8005 756.792 72.8005H754.911C754.651 72.8005 754.441 72.5904 754.441 72.3304V70.4504C754.441 70.1904 754.651 69.9805 754.911 69.9805Z" fill="url(#paint33_linear_346_4562)" stroke="#4D5AFF" stroke-miterlimit="10"/>
<path d="M761.041 69.9805H759.171C758.912 69.9805 758.701 70.1909 758.701 70.4504V72.3204C758.701 72.58 758.912 72.7905 759.171 72.7905H761.041C761.301 72.7905 761.511 72.58 761.511 72.3204V70.4504C761.511 70.1909 761.301 69.9805 761.041 69.9805Z" fill="url(#paint34_linear_346_4562)" stroke="#4D5AFF" stroke-miterlimit="10"/>
<path d="M765.301 69.9805H763.431C763.171 69.9805 762.961 70.1909 762.961 70.4504V72.3204C762.961 72.58 763.171 72.7905 763.431 72.7905H765.301C765.561 72.7905 765.771 72.58 765.771 72.3204V70.4504C765.771 70.1909 765.561 69.9805 765.301 69.9805Z" fill="url(#paint35_linear_346_4562)" stroke="#4D5AFF" stroke-miterlimit="10"/>
<path d="M767.691 69.9805H769.571C769.831 69.9805 770.041 70.1904 770.041 70.4504V72.3304C770.041 72.5904 769.831 72.8005 769.571 72.8005H767.691C767.431 72.8005 767.221 72.5904 767.221 72.3304V70.4504C767.221 70.1904 767.431 69.9805 767.691 69.9805Z" fill="url(#paint36_linear_346_4562)" stroke="#4D5AFF" stroke-miterlimit="10"/>
<path d="M773.82 69.9805H771.95C771.691 69.9805 771.48 70.1909 771.48 70.4504V72.3204C771.48 72.58 771.691 72.7905 771.95 72.7905H773.82C774.08 72.7905 774.291 72.58 774.291 72.3204V70.4504C774.291 70.1909 774.08 69.9805 773.82 69.9805Z" fill="url(#paint37_linear_346_4562)" stroke="#4D5AFF" stroke-miterlimit="10"/>
<path d="M778.08 69.9805H776.21C775.951 69.9805 775.74 70.1909 775.74 70.4504V72.3204C775.74 72.58 775.951 72.7905 776.21 72.7905H778.08C778.34 72.7905 778.55 72.58 778.55 72.3204V70.4504C778.55 70.1909 778.34 69.9805 778.08 69.9805Z" fill="url(#paint38_linear_346_4562)" stroke="#4D5AFF" stroke-miterlimit="10"/>
<path d="M782.34 69.9805H780.47C780.21 69.9805 780 70.1909 780 70.4504V72.3204C780 72.58 780.21 72.7905 780.47 72.7905H782.34C782.6 72.7905 782.81 72.58 782.81 72.3204V70.4504C782.81 70.1909 782.6 69.9805 782.34 69.9805Z" fill="url(#paint39_linear_346_4562)" stroke="#4D5AFF" stroke-miterlimit="10"/>
<path d="M793.01 69.9805H791.14C790.88 69.9805 790.67 70.1909 790.67 70.4504V72.3204C790.67 72.58 790.88 72.7905 791.14 72.7905H793.01C793.269 72.7905 793.48 72.58 793.48 72.3204V70.4504C793.48 70.1909 793.269 69.9805 793.01 69.9805Z" fill="url(#paint40_linear_346_4562)" stroke="#4D5AFF" stroke-miterlimit="10"/>
<path d="M795.421 69.9805H797.301C797.561 69.9805 797.771 70.1904 797.771 70.4504V72.3304C797.771 72.5904 797.561 72.8005 797.301 72.8005H795.421C795.161 72.8005 794.951 72.5904 794.951 72.3304V70.4504C794.951 70.1904 795.161 69.9805 795.421 69.9805Z" fill="url(#paint41_linear_346_4562)" stroke="#4D5AFF" stroke-miterlimit="10"/>
<path d="M799.671 69.9805H801.551C801.811 69.9805 802.021 70.1904 802.021 70.4504V72.3304C802.021 72.5904 801.811 72.8005 801.551 72.8005H799.671C799.411 72.8005 799.201 72.5904 799.201 72.3304V70.4504C799.201 70.1904 799.411 69.9805 799.671 69.9805Z" fill="url(#paint42_linear_346_4562)" stroke="#4D5AFF" stroke-miterlimit="10"/>
<path d="M805.811 69.9805H803.941C803.681 69.9805 803.471 70.1909 803.471 70.4504V72.3204C803.471 72.58 803.681 72.7905 803.941 72.7905H805.811C806.07 72.7905 806.281 72.58 806.281 72.3204V70.4504C806.281 70.1909 806.07 69.9805 805.811 69.9805Z" fill="url(#paint43_linear_346_4562)" stroke="#4D5AFF" stroke-miterlimit="10"/>
<path d="M810.07 69.9805H808.2C807.941 69.9805 807.73 70.1909 807.73 70.4504V72.3204C807.73 72.58 807.941 72.7905 808.2 72.7905H810.07C810.33 72.7905 810.541 72.58 810.541 72.3204V70.4504C810.541 70.1909 810.33 69.9805 810.07 69.9805Z" fill="url(#paint44_linear_346_4562)" stroke="#4D5AFF" stroke-miterlimit="10"/>
<path d="M814.33 69.9805H812.46C812.201 69.9805 811.99 70.1909 811.99 70.4504V72.3204C811.99 72.58 812.201 72.7905 812.46 72.7905H814.33C814.59 72.7905 814.8 72.58 814.8 72.3204V70.4504C814.8 70.1909 814.59 69.9805 814.33 69.9805Z" fill="url(#paint45_linear_346_4562)" stroke="#4D5AFF" stroke-miterlimit="10"/>
<path d="M818.04 69.9805H818.49C818.75 69.9805 818.96 70.1904 818.96 70.4504V72.3304C818.96 72.5904 818.75 72.8005 818.49 72.8005H818.04C817.78 72.8005 817.57 72.5904 817.57 72.3304V70.4504C817.57 70.1904 817.78 69.9805 818.04 69.9805Z" fill="url(#paint46_linear_346_4562)" stroke="#4D5AFF" stroke-miterlimit="10"/>
<path d="M824.85 69.9805H819.98C819.72 69.9805 819.51 70.1904 819.51 70.4504V72.3304C819.51 72.5904 819.72 72.8005 819.98 72.8005H821.86C823.69 72.8005 827.84 69.9905 824.85 69.9905V69.9805Z" fill="url(#paint47_linear_346_4562)" stroke="#4D5AFF" stroke-miterlimit="10"/>
<path d="M740.131 66.2207H736.201V74.8707H740.131V66.2207Z" fill="url(#paint48_linear_346_4562)" stroke="#4D5AFF" stroke-miterlimit="10"/>
<path d="M735.311 64.3906H693.231C692.337 64.3906 691.611 65.1159 691.611 66.0106V75.0806C691.611 75.9753 692.337 76.7006 693.231 76.7006H735.311C736.206 76.7006 736.931 75.9753 736.931 75.0806V66.0106C736.931 65.1159 736.206 64.3906 735.311 64.3906Z" fill="url(#paint49_linear_346_4562)" stroke="#4D5AFF" stroke-miterlimit="10"/>
<path d="M698.631 64.4003C698.631 63.3903 697.811 62.5703 696.801 62.5703C695.791 62.5703 694.971 63.3903 694.971 64.4003C694.971 65.4103 695.791 66.2303 696.801 66.2303C697.811 66.2303 698.631 65.4103 698.631 64.4003Z" fill="url(#paint50_linear_346_4562)" stroke="#4D5AFF" stroke-miterlimit="10"/>
<path d="M704.701 64.4003C704.701 63.3903 703.881 62.5703 702.871 62.5703C701.861 62.5703 701.041 63.3903 701.041 64.4003C701.041 65.4103 701.861 66.2303 702.871 66.2303C703.881 66.2303 704.701 65.4103 704.701 64.4003Z" fill="url(#paint51_linear_346_4562)" stroke="#4D5AFF" stroke-miterlimit="10"/>
<path d="M701.612 63.5205H698.012V65.2305H701.612V63.5205Z" fill="url(#paint52_linear_346_4562)" stroke="#4D5AFF" stroke-miterlimit="10"/>
<path d="M704.301 63.5205V65.2305H707.901L704.301 63.5205Z" fill="url(#paint53_linear_346_4562)" stroke="#4D5AFF" stroke-miterlimit="10"/>
<path d="M695.541 63.5205V65.2305H691.941L695.541 63.5205Z" fill="url(#paint54_linear_346_4562)" stroke="#4D5AFF" stroke-miterlimit="10"/>
<path d="M727.252 64.4003C727.252 63.3903 726.432 62.5703 725.422 62.5703C724.412 62.5703 723.592 63.3903 723.592 64.4003C723.592 65.4103 724.412 66.2303 725.422 66.2303C726.432 66.2303 727.252 65.4103 727.252 64.4003Z" fill="url(#paint55_linear_346_4562)" stroke="#4D5AFF" stroke-miterlimit="10"/>
<path d="M733.322 64.4003C733.322 63.3903 732.502 62.5703 731.492 62.5703C730.482 62.5703 729.662 63.3903 729.662 64.4003C729.662 65.4103 730.482 66.2303 731.492 66.2303C732.502 66.2303 733.322 65.4103 733.322 64.4003Z" fill="url(#paint56_linear_346_4562)" stroke="#4D5AFF" stroke-miterlimit="10"/>
<path d="M730.233 63.5205H726.633V65.2305H730.233V63.5205Z" fill="url(#paint57_linear_346_4562)" stroke="#4D5AFF" stroke-miterlimit="10"/>
<path d="M732.922 63.5205V65.2305H736.522L732.922 63.5205Z" fill="url(#paint58_linear_346_4562)" stroke="#4D5AFF" stroke-miterlimit="10"/>
<path d="M724.162 63.5205V65.2305H720.572L724.162 63.5205Z" fill="url(#paint59_linear_346_4562)" stroke="#4D5AFF" stroke-miterlimit="10"/>
<path d="M720.012 64.04H708.522L708.072 64.6H720.472L720.012 64.04Z" fill="url(#paint60_linear_346_4562)" stroke="#4D5AFF" stroke-miterlimit="10"/>
<path d="M696.022 69.9805H694.152C693.892 69.9805 693.682 70.1909 693.682 70.4504V72.3204C693.682 72.58 693.892 72.7905 694.152 72.7905H696.022C696.281 72.7905 696.492 72.58 696.492 72.3204V70.4504C696.492 70.1909 696.281 69.9805 696.022 69.9805Z" fill="url(#paint61_linear_346_4562)" stroke="#4D5AFF" stroke-miterlimit="10"/>
<path d="M700.301 69.9805H698.431C698.171 69.9805 697.961 70.1909 697.961 70.4504V72.3204C697.961 72.58 698.171 72.7905 698.431 72.7905H700.301C700.56 72.7905 700.771 72.58 700.771 72.3204V70.4504C700.771 70.1909 700.56 69.9805 700.301 69.9805Z" fill="url(#paint62_linear_346_4562)" stroke="#4D5AFF" stroke-miterlimit="10"/>
<path d="M704.561 69.9805H702.691C702.431 69.9805 702.221 70.1909 702.221 70.4504V72.3204C702.221 72.58 702.431 72.7905 702.691 72.7905H704.561C704.82 72.7905 705.031 72.58 705.031 72.3204V70.4504C705.031 70.1909 704.82 69.9805 704.561 69.9805Z" fill="url(#paint63_linear_346_4562)" stroke="#4D5AFF" stroke-miterlimit="10"/>
<path d="M706.941 69.9805H708.821C709.081 69.9805 709.291 70.1904 709.291 70.4504V72.3304C709.291 72.5904 709.081 72.8005 708.821 72.8005H706.941C706.681 72.8005 706.471 72.5904 706.471 72.3304V70.4504C706.471 70.1904 706.681 69.9805 706.941 69.9805Z" fill="url(#paint64_linear_346_4562)" stroke="#4D5AFF" stroke-miterlimit="10"/>
<path d="M711.202 69.9805H713.082C713.342 69.9805 713.552 70.1904 713.552 70.4504V72.3304C713.552 72.5904 713.342 72.8005 713.082 72.8005H711.202C710.942 72.8005 710.732 72.5904 710.732 72.3304V70.4504C710.732 70.1904 710.942 69.9805 711.202 69.9805Z" fill="url(#paint65_linear_346_4562)" stroke="#4D5AFF" stroke-miterlimit="10"/>
<path d="M717.342 69.9805H715.472C715.212 69.9805 715.002 70.1909 715.002 70.4504V72.3204C715.002 72.58 715.212 72.7905 715.472 72.7905H717.342C717.602 72.7905 717.812 72.58 717.812 72.3204V70.4504C717.812 70.1909 717.602 69.9805 717.342 69.9805Z" fill="url(#paint66_linear_346_4562)" stroke="#4D5AFF" stroke-miterlimit="10"/>
<path d="M719.732 69.9805H721.612C721.872 69.9805 722.082 70.1904 722.082 70.4504V72.3304C722.082 72.5904 721.872 72.8005 721.612 72.8005H719.732C719.472 72.8005 719.262 72.5904 719.262 72.3304V70.4504C719.262 70.1904 719.472 69.9805 719.732 69.9805Z" fill="url(#paint67_linear_346_4562)" stroke="#4D5AFF" stroke-miterlimit="10"/>
<path d="M723.991 69.9805H725.871C726.131 69.9805 726.341 70.1904 726.341 70.4504V72.3304C726.341 72.5904 726.131 72.8005 725.871 72.8005H723.991C723.731 72.8005 723.521 72.5904 723.521 72.3304V70.4504C723.521 70.1904 723.731 69.9805 723.991 69.9805Z" fill="url(#paint68_linear_346_4562)" stroke="#4D5AFF" stroke-miterlimit="10"/>
<path d="M730.121 69.9805H728.251C727.992 69.9805 727.781 70.1909 727.781 70.4504V72.3204C727.781 72.58 727.992 72.7905 728.251 72.7905H730.121C730.381 72.7905 730.591 72.58 730.591 72.3204V70.4504C730.591 70.1909 730.381 69.9805 730.121 69.9805Z" fill="url(#paint69_linear_346_4562)" stroke="#4D5AFF" stroke-miterlimit="10"/>
<path d="M734.381 69.9805H732.511C732.251 69.9805 732.041 70.1909 732.041 70.4504V72.3204C732.041 72.58 732.251 72.7905 732.511 72.7905H734.381C734.641 72.7905 734.851 72.58 734.851 72.3204V70.4504C734.851 70.1909 734.641 69.9805 734.381 69.9805Z" fill="url(#paint70_linear_346_4562)" stroke="#4D5AFF" stroke-miterlimit="10"/>
<path d="M692.16 66.2207H688.23V74.8707H692.16V66.2207Z" fill="url(#paint71_linear_346_4562)" stroke="#4D5AFF" stroke-miterlimit="10"/>
<path d="M687.341 64.3906H645.261C644.366 64.3906 643.641 65.1159 643.641 66.0106V75.0806C643.641 75.9753 644.366 76.7006 645.261 76.7006H687.341C688.235 76.7006 688.961 75.9753 688.961 75.0806V66.0106C688.961 65.1159 688.235 64.3906 687.341 64.3906Z" fill="url(#paint72_linear_346_4562)" stroke="#4D5AFF" stroke-miterlimit="10"/>
<path d="M650.66 64.4003C650.66 63.3903 649.84 62.5703 648.83 62.5703C647.82 62.5703 647 63.3903 647 64.4003C647 65.4103 647.82 66.2303 648.83 66.2303C649.84 66.2303 650.66 65.4103 650.66 64.4003Z" fill="url(#paint73_linear_346_4562)" stroke="#4D5AFF" stroke-miterlimit="10"/>
<path d="M656.74 64.4003C656.74 63.3903 655.92 62.5703 654.91 62.5703C653.9 62.5703 653.08 63.3903 653.08 64.4003C653.08 65.4103 653.9 66.2303 654.91 66.2303C655.92 66.2303 656.74 65.4103 656.74 64.4003Z" fill="url(#paint74_linear_346_4562)" stroke="#4D5AFF" stroke-miterlimit="10"/>
<path d="M653.641 63.5205H650.041V65.2305H653.641V63.5205Z" fill="url(#paint75_linear_346_4562)" stroke="#4D5AFF" stroke-miterlimit="10"/>
<path d="M656.34 63.5205V65.2305H659.93L656.34 63.5205Z" fill="url(#paint76_linear_346_4562)" stroke="#4D5AFF" stroke-miterlimit="10"/>
<path d="M647.581 63.5205V65.2305H643.98L647.581 63.5205Z" fill="url(#paint77_linear_346_4562)" stroke="#4D5AFF" stroke-miterlimit="10"/>
<path d="M679.291 64.4003C679.291 63.3903 678.471 62.5703 677.461 62.5703C676.451 62.5703 675.631 63.3903 675.631 64.4003C675.631 65.4103 676.451 66.2303 677.461 66.2303C678.471 66.2303 679.291 65.4103 679.291 64.4003Z" fill="url(#paint78_linear_346_4562)" stroke="#4D5AFF" stroke-miterlimit="10"/>
<path d="M685.361 64.4003C685.361 63.3903 684.541 62.5703 683.531 62.5703C682.521 62.5703 681.701 63.3903 681.701 64.4003C681.701 65.4103 682.521 66.2303 683.531 66.2303C684.541 66.2303 685.361 65.4103 685.361 64.4003Z" fill="url(#paint79_linear_346_4562)" stroke="#4D5AFF" stroke-miterlimit="10"/>
<path d="M682.272 63.5205H678.672V65.2305H682.272V63.5205Z" fill="url(#paint80_linear_346_4562)" stroke="#4D5AFF" stroke-miterlimit="10"/>
<path d="M684.961 63.5205V65.2305H688.561L684.961 63.5205Z" fill="url(#paint81_linear_346_4562)" stroke="#4D5AFF" stroke-miterlimit="10"/>
<path d="M676.202 63.5205V65.2305H672.602L676.202 63.5205Z" fill="url(#paint82_linear_346_4562)" stroke="#4D5AFF" stroke-miterlimit="10"/>
<path d="M672.052 64.04H660.562L660.102 64.6H672.512L672.052 64.04Z" fill="url(#paint83_linear_346_4562)" stroke="#4D5AFF" stroke-miterlimit="10"/>
<path d="M648.061 69.9805H646.191C645.931 69.9805 645.721 70.1909 645.721 70.4504V72.3204C645.721 72.58 645.931 72.7905 646.191 72.7905H648.061C648.32 72.7905 648.531 72.58 648.531 72.3204V70.4504C648.531 70.1909 648.32 69.9805 648.061 69.9805Z" fill="url(#paint84_linear_346_4562)" stroke="#4D5AFF" stroke-miterlimit="10"/>
<path d="M652.33 69.9805H650.46C650.201 69.9805 649.99 70.1909 649.99 70.4504V72.3204C649.99 72.58 650.201 72.7905 650.46 72.7905H652.33C652.59 72.7905 652.8 72.58 652.8 72.3204V70.4504C652.8 70.1909 652.59 69.9805 652.33 69.9805Z" fill="url(#paint85_linear_346_4562)" stroke="#4D5AFF" stroke-miterlimit="10"/>
<path d="M654.72 69.9805H656.6C656.86 69.9805 657.07 70.1904 657.07 70.4504V72.3304C657.07 72.5904 656.86 72.8005 656.6 72.8005H654.72C654.46 72.8005 654.25 72.5904 654.25 72.3304V70.4504C654.25 70.1904 654.46 69.9805 654.72 69.9805Z" fill="url(#paint86_linear_346_4562)" stroke="#4D5AFF" stroke-miterlimit="10"/>
<path d="M660.852 69.9805H658.982C658.722 69.9805 658.512 70.1909 658.512 70.4504V72.3204C658.512 72.58 658.722 72.7905 658.982 72.7905H660.852C661.111 72.7905 661.322 72.58 661.322 72.3204V70.4504C661.322 70.1909 661.111 69.9805 660.852 69.9805Z" fill="url(#paint87_linear_346_4562)" stroke="#4D5AFF" stroke-miterlimit="10"/>
<path d="M663.241 69.9805H665.121C665.381 69.9805 665.591 70.1904 665.591 70.4504V72.3304C665.591 72.5904 665.381 72.8005 665.121 72.8005H663.241C662.981 72.8005 662.771 72.5904 662.771 72.3304V70.4504C662.771 70.1904 662.981 69.9805 663.241 69.9805Z" fill="url(#paint88_linear_346_4562)" stroke="#4D5AFF" stroke-miterlimit="10"/>
<path d="M669.371 69.9805H667.501C667.242 69.9805 667.031 70.1909 667.031 70.4504V72.3204C667.031 72.58 667.242 72.7905 667.501 72.7905H669.371C669.631 72.7905 669.841 72.58 669.841 72.3204V70.4504C669.841 70.1909 669.631 69.9805 669.371 69.9805Z" fill="url(#paint89_linear_346_4562)" stroke="#4D5AFF" stroke-miterlimit="10"/>
<path d="M673.631 69.9805H671.761C671.501 69.9805 671.291 70.1909 671.291 70.4504V72.3204C671.291 72.58 671.501 72.7905 671.761 72.7905H673.631C673.891 72.7905 674.101 72.58 674.101 72.3204V70.4504C674.101 70.1909 673.891 69.9805 673.631 69.9805Z" fill="url(#paint90_linear_346_4562)" stroke="#4D5AFF" stroke-miterlimit="10"/>
<path d="M676.021 69.9805H677.901C678.161 69.9805 678.371 70.1904 678.371 70.4504V72.3304C678.371 72.5904 678.161 72.8005 677.901 72.8005H676.021C675.761 72.8005 675.551 72.5904 675.551 72.3304V70.4504C675.551 70.1904 675.761 69.9805 676.021 69.9805Z" fill="url(#paint91_linear_346_4562)" stroke="#4D5AFF" stroke-miterlimit="10"/>
<path d="M682.151 69.9805H680.281C680.021 69.9805 679.811 70.1909 679.811 70.4504V72.3204C679.811 72.58 680.021 72.7905 680.281 72.7905H682.151C682.41 72.7905 682.621 72.58 682.621 72.3204V70.4504C682.621 70.1909 682.41 69.9805 682.151 69.9805Z" fill="url(#paint92_linear_346_4562)" stroke="#4D5AFF" stroke-miterlimit="10"/>
<path d="M686.42 69.9805H684.55C684.29 69.9805 684.08 70.1909 684.08 70.4504V72.3204C684.08 72.58 684.29 72.7905 684.55 72.7905H686.42C686.68 72.7905 686.89 72.58 686.89 72.3204V70.4504C686.89 70.1909 686.68 69.9805 686.42 69.9805Z" fill="url(#paint93_linear_346_4562)" stroke="#4D5AFF" stroke-miterlimit="10"/>
<path d="M918.74 60.8896H544.5V62.5997H550.05L544.5 68.1197V70.5397L552.12 62.9496L567.47 78.2297H544.5V79.9396H918.74V76.2197L917.08 77.8796L901.73 62.5997H918.75V60.8896H918.74ZM584.85 62.5997L569.55 77.8796L554.2 62.5997H584.85ZM586.92 62.9597L602.14 78.2297H571.62L586.92 62.9597ZM619.55 62.5997L604.21 77.8697L588.98 62.5997H619.55ZM621.63 62.9496L636.98 78.2297H606.29L621.63 62.9496ZM654.36 62.5997L639.06 77.8796L623.71 62.5997H654.36ZM656.43 62.9597L671.66 78.2297H641.14L656.44 62.9597H656.43ZM689.06 62.5997L673.72 77.8697L658.49 62.5997H689.06ZM691.13 62.9496L706.48 78.2297H675.79L691.13 62.9496ZM723.86 62.5997L708.56 77.8796L693.21 62.5997H723.86ZM725.93 62.9597L741.15 78.2297H710.62L725.92 62.9597H725.93ZM758.56 62.5997L743.22 77.8697L727.99 62.5997H758.55H758.56ZM760.64 62.9496L775.99 78.2297H745.3L760.64 62.9496V62.9496ZM793.37 62.5997L778.07 77.8796L762.72 62.5997H793.37V62.5997ZM795.44 62.9597L810.66 78.2297H780.13L795.43 62.9597H795.44ZM828.07 62.5997L812.73 77.8697L797.5 62.5997H828.07ZM830.14 62.9496L845.49 78.2297H814.8L830.14 62.9496V62.9496ZM862.87 62.5997L847.57 77.8796L832.22 62.5997H862.87V62.5997ZM864.94 62.9597L880.16 78.2297H849.63L864.93 62.9597H864.94ZM897.57 62.5997L882.23 77.8697L867 62.5997H897.57ZM899.65 62.9496L915 78.2297H884.31L899.65 62.9496V62.9496Z" fill="url(#paint94_linear_346_4562)" stroke="#4D5AFF" stroke-miterlimit="10"/>
<path opacity="0.6" d="M527.379 120.05H546.579L548.259 128.08H559.259V12.7998H527.379V120.05Z" fill="url(#paint95_linear_346_4562)" stroke="#4D5AFF" stroke-miterlimit="10"/>
<path opacity="0.6" d="M456.879 163.87V130.93L474.659 113.149V24.9395H433.949V163.87H456.879Z" fill="url(#paint96_linear_346_4562)" stroke="#4D5AFF" stroke-miterlimit="10"/>
<path opacity="0.5" d="M276.349 143.069C278.979 143.519 282.389 143.769 285.969 143.769C289.549 143.769 292.959 143.519 295.589 143.069C299.439 142.399 299.489 141.669 299.489 141.669V114.389H312.679V24.9395H272.459V141.659C272.459 141.659 272.499 142.399 276.359 143.059L276.349 143.069Z" fill="url(#paint97_linear_346_4562)" stroke="#4D5AFF" stroke-miterlimit="10"/>
<path d="M207.9 129.539V140.74H224.14V24.9395H194.25V129.539H207.9Z" fill="url(#paint98_linear_346_4562)" stroke="#4D5AFF" stroke-miterlimit="10"/>
<path d="M342.399 121.13C350.259 117.06 359.639 108.42 359.639 90.3402V24.9502H325.299V125.68C326.539 125.64 334.519 125.22 342.409 121.14L342.399 121.13Z" fill="url(#paint99_linear_346_4562)" stroke="#4D5AFF" stroke-miterlimit="10"/>
<path d="M404.38 143.67C402.13 144.13 399.2 144.38 396.14 144.38C393.08 144.38 390.15 144.13 387.9 143.67C384.6 143 384.56 142.27 384.56 142.26V114.82H373.26V24.9502H407.72V142.26C407.72 142.26 407.68 143 404.38 143.67Z" fill="url(#paint100_linear_346_4562)" stroke="#4D5AFF" stroke-miterlimit="10"/>
<path d="M319.858 94.0895L332.738 106.969L345.518 94.1795V24.9395H279.398V94.0895H319.858Z" fill="url(#paint101_linear_346_4562)" stroke="#4D5AFF" stroke-miterlimit="10"/>
<path d="M198.32 142.919V24.9395H169.68V113.719L198.32 142.919Z" fill="url(#paint102_linear_346_4562)" stroke="#4D5AFF" stroke-miterlimit="10"/>
<path d="M515.199 142.68V16.1104H484.129V111.01L515.199 142.68Z" fill="url(#paint103_linear_346_4562)" stroke="#4D5AFF" stroke-miterlimit="10"/>
<path d="M224.548 107.439L225.738 114.609H243.658L245.128 121.949H259.728L261.208 114.609H279.118L280.318 107.439H293.958V24.9395H210.908V107.439H224.548Z" fill="url(#paint104_linear_346_4562)" stroke="#4D5AFF" stroke-miterlimit="10"/>
<path d="M526.018 107.88C533.878 103.81 543.258 95.1702 543.258 77.0902V11.7002H508.908V112.43C510.148 112.39 518.128 111.97 526.018 107.89V107.88Z" fill="url(#paint105_linear_346_4562)" stroke="#4D5AFF" stroke-miterlimit="10"/>
<path d="M315.369 135.59C310.269 131.52 304.189 122.88 304.189 104.8V24.9502H326.479V140.13C325.679 140.09 320.499 139.67 315.379 135.59H315.369Z" fill="url(#paint106_linear_346_4562)" stroke="#4D5AFF" stroke-miterlimit="10"/>
<path d="M442.93 123.549L444.82 116.209H467.66L469.18 109.049H486.58V24.9395H433.75V123.549H442.93Z" fill="url(#paint107_linear_346_4562)" stroke="#4D5AFF" stroke-miterlimit="10"/>
<path d="M380.67 109.049H398.07L399.59 116.209H422.43L424.32 123.549H433.75V24.9395H380.67V109.049Z" fill="url(#paint108_linear_346_4562)" stroke="#4D5AFF" stroke-miterlimit="10"/>
<path d="M376.229 126.659V93.7195L394.009 75.9395V24.9395H353.299V126.659H376.229Z" fill="url(#paint109_linear_346_4562)" stroke="#4D5AFF" stroke-miterlimit="10"/>
<path d="M422.669 132.839V154.019H445.149V24.9395H403.779V132.839H422.669Z" fill="url(#paint110_linear_346_4562)" stroke="#4D5AFF" stroke-miterlimit="10"/>
<path d="M465.39 116.12C468.02 116.45 471.43 116.639 475.01 116.639C478.59 116.639 482 116.46 484.63 116.12C488.48 115.63 488.53 115.099 488.53 115.089V95.0594H501.72V24.9395H461.5V115.089C461.5 115.089 461.54 115.63 465.4 116.12H465.39Z" fill="url(#paint111_linear_346_4562)" stroke="#4D5AFF" stroke-miterlimit="10"/>
<path d="M172.619 116.12C169.989 116.45 166.579 116.639 162.999 116.639C159.419 116.639 156.009 116.46 153.379 116.12C149.529 115.63 149.479 115.099 149.479 115.089V95.0594H136.289V24.9395H176.509V115.089C176.509 115.089 176.469 115.63 172.609 116.12H172.619Z" fill="url(#paint112_linear_346_4562)" stroke="#4D5AFF" stroke-miterlimit="10"/>
<path opacity="0.6" d="M95.0801 120.05H114.29L115.97 128.08H126.97V12.7998H95.0801V120.05Z" fill="url(#paint113_linear_346_4562)" stroke="#4D5AFF" stroke-miterlimit="10"/>
<path opacity="0.6" d="M24.5901 163.87V130.93L42.3701 113.149V24.9395H1.66016V163.87H24.5901Z" fill="url(#paint114_linear_346_4562)" stroke="#4D5AFF" stroke-miterlimit="10"/>
<path d="M82.9099 142.68V16.1104H51.8398V111.01L82.9099 142.68Z" fill="url(#paint115_linear_346_4562)" stroke="#4D5AFF" stroke-miterlimit="10"/>
<path d="M93.7194 107.88C101.579 103.81 110.959 95.1702 110.959 77.0902V11.7002H76.6094V112.43C77.8494 112.39 85.8294 111.97 93.7194 107.89V107.88Z" fill="url(#paint116_linear_346_4562)" stroke="#4D5AFF" stroke-miterlimit="10"/>
<path d="M10.641 123.549L12.5309 116.209H35.3709L36.891 109.049H54.291V24.9395H1.46094V123.549H10.641Z" fill="url(#paint117_linear_346_4562)" stroke="#4D5AFF" stroke-miterlimit="10"/>
<path d="M-51.6309 109.049H-34.2209L-32.7009 116.209H-9.86084L-7.98087 123.549H1.45914V24.9395H-51.6309V109.049Z" fill="url(#paint118_linear_346_4562)" stroke="#4D5AFF" stroke-miterlimit="10"/>
<path d="M-9.61975 132.839V154.019H12.8602V24.9395H-28.5098V132.839H-9.61975Z" fill="url(#paint119_linear_346_4562)" stroke="#4D5AFF" stroke-miterlimit="10"/>
<path d="M33.101 116.12C35.731 116.45 39.1409 116.639 42.7209 116.639C46.3009 116.639 49.7109 116.46 52.3409 116.12C56.1909 115.63 56.2409 115.099 56.2409 115.089V95.0594H69.4309V24.9395H29.2109V115.089C29.2109 115.089 29.2509 115.63 33.1109 116.12H33.101Z" fill="url(#paint120_linear_346_4562)" stroke="#4D5AFF" stroke-miterlimit="10"/>
<path d="M410.799 39.7703C428.899 54.7203 450.409 77.1104 478.449 71.8704C486.369 70.3904 494.519 67.9703 502.739 70.0603C509.789 71.8603 516.149 76.1203 521.729 79.9803C537.489 90.8903 569.419 97.2703 586.619 85.9703C588.699 84.6103 590.479 83.1204 591.929 81.4904C600.579 79.3804 609.989 81.3403 618.899 80.6603C628.859 79.9003 633.809 76.2003 640.409 72.1303C647.319 67.8803 654.069 62.5803 662.299 56.7103C670.939 50.5503 691.869 45.6103 691.079 37.6603C690.589 32.7503 706.129 19.9903 707.259 15.0703C707.039 16.0403 682.129 16.1804 680.459 16.2404C632.039 18.0504 583.619 20.4704 535.299 23.1104C519.519 23.9704 503.649 23.7103 487.889 24.6603C471.589 25.6403 455.579 27.4303 439.149 27.2503C433.099 27.1803 424.649 25.2403 419.029 26.9703C414.909 28.2403 408.299 33.5703 409.289 37.5303C409.509 38.4103 410.039 39.1503 410.799 39.7703V39.7703Z" fill="url(#paint121_linear_346_4562)" stroke="#4D5AFF" stroke-miterlimit="10"/>
<path d="M162.229 42.4603C178.749 45.9703 196.369 45.4903 212.519 42.3303C233.969 38.1203 244.959 38.4903 262.149 45.5203C274.949 50.7503 290.679 54.0903 308.049 50.9803C322.609 48.3803 335.249 40.8703 352.689 43.3503C370.159 45.8303 377.789 55.2703 398.189 55.8403C417.419 56.3803 438.719 48.3403 448.489 42.3803C468.429 30.2203 542.799 38.8703 564.559 26.0803C576.449 19.0903 576.239 8.61035 573.849 -1.13965H136.289V29.6204C146.209 33.1204 149.379 39.7303 162.229 42.4703V42.4603Z" fill="url(#paint122_linear_346_4562)" stroke="#4D5AFF" stroke-miterlimit="10"/>
<path d="M320.7 3.90985C324.02 9.44985 340.43 10.9898 347.02 13.9398C358.59 19.1198 367.32 25.9199 374.93 33.8699C385.62 45.0299 396.89 54.6498 412.59 62.6498C412.59 62.6498 412.6 62.6499 412.61 62.6599C437.47 75.3299 467.03 64.4899 487.19 54.1199C503.69 45.6399 519.45 41.7398 537.64 42.4698C545.56 42.7898 561.81 53.6599 568.5 58.6799C578.18 65.9399 599.43 68.5498 611.09 67.0298C625.71 65.1298 635.38 51.1098 647.99 48.7098C666.48 45.1898 680.15 50.5598 695.32 37.6398C699.78 33.8398 700.94 17.5398 705.35 13.5198C710.6 8.74984 718.32 5.48984 722.06 -1.16016H317.92C318.66 1.29984 319.28 1.55984 320.69 3.89984L320.7 3.90985Z" fill="url(#paint123_linear_346_4562)" stroke="#4D5AFF" stroke-miterlimit="10"/>
<path opacity="0.6" d="M1285.9 114.89L1271.71 -0.269653H1058.75L907.689 -1.13965C907.689 -1.13965 1071.61 142.26 1076.54 146.2C1082.53 150.99 1097.23 164.54 1104.69 163.85C1115.45 162.85 1131.1 142 1140.38 135.58C1149.43 129.32 1167.42 114.99 1177.83 113.2C1193.48 110.51 1224.26 126.78 1240.08 126.48C1251.8 126.26 1285.91 114.9 1285.91 114.9L1285.9 114.89Z" fill="url(#paint124_linear_346_4562)" stroke="#4D5AFF" stroke-miterlimit="10"/>
<path d="M1699.67 -0.270508C1699.67 -0.270508 1565.15 47.5195 1524.82 73.6495C1508.02 84.5295 1482.18 118.37 1465.11 128.74C1455.17 134.78 1431.47 137.399 1421.86 144.039C1410.9 151.609 1399.09 183.629 1386.23 185.259C1369.12 187.429 1344.63 150.849 1328.68 143.729C1314.89 137.579 1284.54 135.809 1270.23 131.329C1256.16 126.919 1229.79 112.209 1215.58 108.389C1210.33 106.979 1199.18 107.689 1194.1 105.649C1187.31 102.929 1176.68 91.1895 1170.02 88.1295C1157.46 82.3595 1129.49 81.0095 1116.73 75.7895C1101.2 69.4395 1058.74 40.5495 1058.74 40.5495V-0.270508H1699.66H1699.67Z" fill="url(#paint125_linear_346_4562)" stroke="#4D5AFF" stroke-miterlimit="10"/>
<path opacity="0.1" d="M1388.03 155.19C1381.19 144.08 1354.42 138.78 1342.65 135.14C1313.03 125.99 1231 81.3896 1218.38 109.22C1233.04 114 1257.04 127.19 1270.23 131.32C1284.54 135.81 1314.9 137.57 1328.68 143.72C1344.63 150.84 1369.12 187.42 1386.23 185.25C1388.01 185.02 1389.77 184.22 1391.51 182.97C1393.47 174.54 1391.27 160.43 1388.04 155.18L1388.03 155.19Z" fill="black" stroke="#4D5AFF" stroke-miterlimit="10"/>
<path d="M1634.76 -0.270508C1634.76 -0.270508 1651.13 105.409 1635.52 135.819C1624.97 156.369 1579.78 178.279 1559.78 190.389C1557.37 191.849 1552.52 195.689 1549.7 195.449C1532.36 193.979 1511.55 153.58 1494.17 154.43C1492.11 154.53 1490.13 159.499 1488.11 159.919C1471.44 163.399 1439.32 144.799 1423.51 138.559C1415.14 135.259 1398.94 127.449 1390.89 123.479C1382.06 119.129 1365.39 108.289 1356.01 105.219C1344.08 101.309 1318.51 100.569 1306.3 97.5995C1295.48 94.9695 1275.2 84.7395 1264.14 83.3895C1255.41 82.3195 1237.6 88.3395 1229.07 86.2395C1222.35 84.5795 1211.73 74.9895 1205.82 71.4495C1195.16 65.0695 1173.83 52.1795 1162.48 47.0695C1148.14 40.6095 1116.15 34.8995 1102.98 26.3895C1095.26 21.3995 1077.9 -0.250549 1077.9 -0.250549H1634.77L1634.76 -0.270508Z" fill="url(#paint126_linear_346_4562)" stroke="#4D5AFF" stroke-miterlimit="10"/>
<path opacity="0.1" d="M1550.05 161.519C1543.22 151.129 1516.21 144.459 1504.09 140.979C1476.74 133.129 1382.63 95.6895 1339.2 99.7995C1337.9 99.9195 1338.58 100.789 1340.7 102.189C1346.64 102.979 1352.07 103.929 1356.01 105.219C1365.39 108.299 1382.05 119.129 1390.89 123.479C1398.95 127.449 1415.15 135.259 1423.51 138.559C1439.32 144.799 1471.44 163.399 1488.11 159.919C1490.13 159.499 1492.11 154.529 1494.17 154.429C1511.55 153.579 1532.36 193.979 1549.7 195.449C1551.74 195.619 1554.84 193.659 1557.31 192.009C1558.28 182.509 1553.65 166.999 1550.05 161.509V161.519Z" fill="black" stroke="#4D5AFF" stroke-miterlimit="10"/>
<path d="M1407.76 96.2202C1439.66 98.3602 1504.37 107.26 1533.52 122.02C1562.1 136.49 1601.65 201.17 1632.17 209.11C1636.88 210.33 1646.74 206.96 1651.07 204.55C1659 200.12 1669.11 179.1 1677.95 178.58C1693.19 177.69 1728.15 217.73 1728.15 217.73V-0.259766H1136.63C1136.63 -0.259766 1206.74 31.8002 1230.99 39.4402C1245.37 43.9702 1275.69 46.0302 1289.65 51.9802C1308.93 60.2102 1340.48 94.0002 1360.52 99.4702C1372.02 102.61 1395.95 95.4302 1407.76 96.2202V96.2202Z" fill="url(#paint127_linear_346_4562)" stroke="#4D5AFF" stroke-miterlimit="10"/>
<path opacity="0.1" d="M1537.41 108.66C1499.25 89.53 1413.6 86.8 1372.63 77.66C1352.5 73.17 1302.4 37.75 1289.18 51.77C1289.34 51.84 1289.5 51.9 1289.66 51.97C1308.94 60.2 1340.49 93.99 1360.53 99.46C1372.03 102.6 1395.96 95.42 1407.77 96.21C1439.67 98.35 1504.38 107.25 1533.53 122.01C1562.11 136.48 1601.66 201.16 1632.18 209.1C1636.17 210.14 1643.85 207.88 1648.75 205.69C1652.91 167.4 1569.13 124.55 1537.41 108.65V108.66Z" fill="black" stroke="#4D5AFF" stroke-miterlimit="10"/>
<path d="M1507.71 109.499C1524.81 115.699 1562.51 113.219 1579.92 118.499C1619.6 130.539 1728.16 192.919 1728.16 192.919V-0.270508H1184.67C1184.67 -0.270508 1300.67 47.7295 1341.57 55.4495C1362.78 59.4495 1407.24 51.7895 1427.85 58.1995C1450.51 65.2495 1485.4 101.429 1507.71 109.509V109.499Z" fill="url(#paint128_linear_346_4562)" stroke="#4D5AFF" stroke-miterlimit="10"/>
<path opacity="0.1" d="M1450.67 62.1893C1479.1 67.2193 1534.19 87.4494 1559 102.229C1564.61 105.569 1579.62 112.809 1582.15 119.219C1581.38 118.969 1580.64 118.729 1579.92 118.509C1562.51 113.229 1524.81 115.699 1507.71 109.509C1486.98 101.999 1455.41 70.2493 1432.86 60.1293C1437.56 59.0093 1446.78 61.5094 1450.67 62.1994V62.1893Z" fill="black" stroke="#4D5AFF" stroke-miterlimit="10"/>
<path opacity="0.1" d="M1355.4 42.4695C1360.37 54.2295 1330.44 41.2195 1329.87 43.0995C1328.63 47.1695 1343.9 51.8795 1341.58 55.4495C1300.68 47.7295 1184.68 -0.270508 1184.68 -0.270508H1221.63C1221.63 -0.270508 1342.2 11.2595 1355.41 42.4695H1355.4Z" fill="black" stroke="#4D5AFF" stroke-miterlimit="10"/>
<path d="M1441.69 41.3895C1477.06 52.5595 1554.18 51.2795 1587.87 66.7895C1618.91 81.0795 1659.2 150.259 1693.18 153.919C1702.97 154.969 1728.17 135.849 1728.17 135.849V-0.270508H1353.09C1353.09 -0.270508 1418.35 34.0195 1441.69 41.3895V41.3895Z" fill="url(#paint129_linear_346_4562)" stroke="#4D5AFF" stroke-miterlimit="10"/>
<path opacity="0.1" d="M1593.22 49.4397C1612.29 58.8697 1653.52 107.08 1674.77 106.27C1677.12 106.18 1678.64 99.0197 1680.99 99.2097C1696.34 100.44 1704.75 143.75 1693.17 153.91C1659.2 150.25 1618.9 81.0797 1587.86 66.7797C1554.17 51.2597 1477.06 52.5397 1441.68 41.3797C1418.34 34.0097 1353.08 -0.280273 1353.08 -0.280273C1353.08 -0.280273 1440.83 25.2897 1470.64 31.4697C1500.96 37.7597 1565.45 35.7097 1593.22 49.4297V49.4397Z" fill="black" stroke="#4D5AFF" stroke-miterlimit="10"/>
<path d="M1207.27 -0.269653C1173.39 3.97035 1159.83 27.9803 1131.33 37.2103C1102.83 46.4403 1087.83 34.7603 1070.89 37.2103C1053.95 39.6603 1037.01 44.9303 1014.14 66.2303C991.27 87.5403 967.55 98.2903 947.22 96.3303C926.89 94.3703 876.04 45.3003 840.49 27.5903C833.96 24.9603 827.42 22.2103 820.83 20.4503C799.53 14.7503 784.02 33.3703 763.42 35.6603C736.98 38.6003 717.85 27.7704 693 25.8004C670.65 24.0304 652.1 42.5204 629.63 40.3604C607.44 38.2304 584.91 26.6703 562.55 27.8903C543.99 28.9003 459.68 19.8204 429.75 -1.13965H918.74V-0.819641C1036.59 -0.569641 1183.91 -0.269653 1207.26 -0.269653H1207.27Z" fill="url(#paint130_linear_346_4562)" stroke="#4D5AFF" stroke-miterlimit="10"/>
<path d="M259.211 13.6996C255.831 18.1496 249.041 22.6096 242.041 24.3996C233.981 26.4596 226.071 26.9696 217.871 29.7896C213.411 31.3296 208.871 32.5696 204.281 33.6196C204.281 33.6196 204.261 33.6296 204.231 33.6296C196.031 35.4996 187.661 36.7296 179.211 37.7396C164.961 39.4496 150.501 40.5596 136.291 43.2196V42.6596C119.101 44.8996 103.401 46.8896 95.9308 47.6996C74.7508 49.9996 60.3508 58.1296 47.6508 62.9596C34.9408 67.7896 7.84083 69.2396 -14.1892 60.8896C-36.2092 52.5396 -26.8992 -1.15039 -26.8992 -1.15039H261.141C265.361 -1.15039 260.341 12.1996 259.211 13.6896V13.6996Z" fill="url(#paint131_linear_346_4562)" stroke="#4D5AFF" stroke-miterlimit="10"/>
<path d="M260.63 28.7296C279.25 31.2696 303.23 32.0696 322.58 32.1896C337.19 32.2796 345.67 31.8696 359.55 35.1296C375.26 38.8196 392.88 42.1796 410.67 39.6996C422.27 38.0896 432.2 32.8696 441.5 27.6196C448.33 23.7696 459.74 16.7596 469.08 17.9796C473.95 18.6096 482.77 21.1696 487.59 21.9996C503.62 24.7796 552.66 10.3996 582.38 -1.15039H154.27C155.92 1.80961 156.11 3.54959 160.37 6.26959C181.81 19.9496 228.1 24.2796 260.63 28.7196V28.7296Z" fill="url(#paint132_linear_346_4562)" stroke="#4D5AFF" stroke-miterlimit="10"/>
</g>
</g>
<defs>
<linearGradient id="paint0_linear_346_4562" x1="911.679" y1="82.6694" x2="357.369" y2="82.6694" gradientUnits="userSpaceOnUse">
<stop stop-color="#F7E3F1"/>
<stop offset="1" stop-color="#80AFF5"/>
</linearGradient>
<linearGradient id="paint1_linear_346_4562" x1="960.54" y1="98.7794" x2="146.44" y2="98.7794" gradientUnits="userSpaceOnUse">
<stop stop-color="#EFDCE3"/>
<stop offset="1" stop-color="#919FF7"/>
</linearGradient>
<linearGradient id="paint2_linear_346_4562" x1="2286.25" y1="52.7798" x2="2287.25" y2="52.7798" gradientUnits="userSpaceOnUse">
<stop stop-color="#2CE6C4"/>
<stop offset="1" stop-color="#99F1FF"/>
</linearGradient>
<linearGradient id="paint3_linear_346_4562" x1="5961.64" y1="31.8695" x2="5960.64" y2="31.8695" gradientUnits="userSpaceOnUse">
<stop stop-color="#2CE6C4"/>
<stop offset="1" stop-color="#99B0FF"/>
</linearGradient>
<linearGradient id="paint4_linear_346_4562" x1="-296.5" y1="37.2101" x2="-295.5" y2="37.2101" gradientUnits="userSpaceOnUse">
<stop stop-color="#72CFED"/>
<stop offset="1" stop-color="#6366F3"/>
</linearGradient>
<linearGradient id="paint5_linear_346_4562" x1="-296.499" y1="70.5406" x2="-295.499" y2="70.5406" gradientUnits="userSpaceOnUse">
<stop stop-color="#59BBD5"/>
<stop offset="1" stop-color="#8DA7FF"/>
</linearGradient>
<linearGradient id="paint6_linear_346_4562" x1="646.548" y1="64.4003" x2="830.38" y2="64.4003" gradientUnits="userSpaceOnUse">
<stop stop-color="#59BBD5"/>
<stop offset="1" stop-color="#8DA7FF"/>
</linearGradient>
<linearGradient id="paint7_linear_346_4562" x1="646.543" y1="64.4003" x2="830.389" y2="64.4003" gradientUnits="userSpaceOnUse">
<stop stop-color="#59BBD5"/>
<stop offset="1" stop-color="#8DA7FF"/>
</linearGradient>
<linearGradient id="paint8_linear_346_4562" x1="646.552" y1="64.3805" x2="830.38" y2="64.3805" gradientUnits="userSpaceOnUse">
<stop stop-color="#59BBD5"/>
<stop offset="1" stop-color="#8DA7FF"/>
</linearGradient>
<linearGradient id="paint9_linear_346_4562" x1="646.586" y1="64.3805" x2="830.38" y2="64.3805" gradientUnits="userSpaceOnUse">
<stop stop-color="#59BBD5"/>
<stop offset="1" stop-color="#8DA7FF"/>
</linearGradient>
<linearGradient id="paint10_linear_346_4562" x1="646.537" y1="64.3805" x2="830.391" y2="64.3805" gradientUnits="userSpaceOnUse">
<stop stop-color="#59BBD5"/>
<stop offset="1" stop-color="#8DA7FF"/>
</linearGradient>
<linearGradient id="paint11_linear_346_4562" x1="646.553" y1="64.4003" x2="830.379" y2="64.4003" gradientUnits="userSpaceOnUse">
<stop stop-color="#59BBD5"/>
<stop offset="1" stop-color="#8DA7FF"/>
</linearGradient>
<linearGradient id="paint12_linear_346_4562" x1="646.588" y1="64.4003" x2="830.379" y2="64.4003" gradientUnits="userSpaceOnUse">
<stop stop-color="#59BBD5"/>
<stop offset="1" stop-color="#8DA7FF"/>
</linearGradient>
<linearGradient id="paint13_linear_346_4562" x1="646.536" y1="64.3805" x2="830.381" y2="64.3805" gradientUnits="userSpaceOnUse">
<stop stop-color="#59BBD5"/>
<stop offset="1" stop-color="#8DA7FF"/>
</linearGradient>
<linearGradient id="paint14_linear_346_4562" x1="646.541" y1="64.3805" x2="830.379" y2="64.3805" gradientUnits="userSpaceOnUse">
<stop stop-color="#59BBD5"/>
<stop offset="1" stop-color="#8DA7FF"/>
</linearGradient>
<linearGradient id="paint15_linear_346_4562" x1="646.541" y1="64.3805" x2="830.38" y2="64.3805" gradientUnits="userSpaceOnUse">
<stop stop-color="#59BBD5"/>
<stop offset="1" stop-color="#8DA7FF"/>
</linearGradient>
<linearGradient id="paint16_linear_346_4562" x1="646.54" y1="64.32" x2="830.39" y2="64.32" gradientUnits="userSpaceOnUse">
<stop stop-color="#59BBD5"/>
<stop offset="1" stop-color="#8DA7FF"/>
</linearGradient>
<linearGradient id="paint17_linear_346_4562" x1="646.543" y1="70.5407" x2="830.389" y2="70.5407" gradientUnits="userSpaceOnUse">
<stop stop-color="#59BBD5"/>
<stop offset="1" stop-color="#8DA7FF"/>
</linearGradient>
<linearGradient id="paint18_linear_346_4562" x1="646.55" y1="70.5406" x2="830.38" y2="70.5406" gradientUnits="userSpaceOnUse">
<stop stop-color="#59BBD5"/>
<stop offset="1" stop-color="#8DA7FF"/>
</linearGradient>
<linearGradient id="paint19_linear_346_4562" x1="646.562" y1="64.4003" x2="830.378" y2="64.4003" gradientUnits="userSpaceOnUse">
<stop stop-color="#59BBD5"/>
<stop offset="1" stop-color="#8DA7FF"/>
</linearGradient>
<linearGradient id="paint20_linear_346_4562" x1="646.569" y1="64.4003" x2="830.371" y2="64.4003" gradientUnits="userSpaceOnUse">
<stop stop-color="#59BBD5"/>
<stop offset="1" stop-color="#8DA7FF"/>
</linearGradient>
<linearGradient id="paint21_linear_346_4562" x1="646.541" y1="64.3805" x2="830.39" y2="64.3805" gradientUnits="userSpaceOnUse">
<stop stop-color="#59BBD5"/>
<stop offset="1" stop-color="#8DA7FF"/>
</linearGradient>
<linearGradient id="paint22_linear_346_4562" x1="646.541" y1="64.3805" x2="830.389" y2="64.3805" gradientUnits="userSpaceOnUse">
<stop stop-color="#59BBD5"/>
<stop offset="1" stop-color="#8DA7FF"/>
</linearGradient>
<linearGradient id="paint23_linear_346_4562" x1="646.541" y1="64.3805" x2="830.389" y2="64.3805" gradientUnits="userSpaceOnUse">
<stop stop-color="#59BBD5"/>
<stop offset="1" stop-color="#8DA7FF"/>
</linearGradient>
<linearGradient id="paint24_linear_346_4562" x1="646.594" y1="64.4003" x2="830.369" y2="64.4003" gradientUnits="userSpaceOnUse">
<stop stop-color="#59BBD5"/>
<stop offset="1" stop-color="#8DA7FF"/>
</linearGradient>
<linearGradient id="paint25_linear_346_4562" x1="646.54" y1="64.4003" x2="830.391" y2="64.4003" gradientUnits="userSpaceOnUse">
<stop stop-color="#59BBD5"/>
<stop offset="1" stop-color="#8DA7FF"/>
</linearGradient>
<linearGradient id="paint26_linear_346_4562" x1="646.552" y1="64.3805" x2="830.381" y2="64.3805" gradientUnits="userSpaceOnUse">
<stop stop-color="#59BBD5"/>
<stop offset="1" stop-color="#8DA7FF"/>
</linearGradient>
<linearGradient id="paint27_linear_346_4562" x1="646.542" y1="64.3805" x2="830.39" y2="64.3805" gradientUnits="userSpaceOnUse">
<stop stop-color="#59BBD5"/>
<stop offset="1" stop-color="#8DA7FF"/>
</linearGradient>
<linearGradient id="paint28_linear_346_4562" x1="646.542" y1="64.3805" x2="830.391" y2="64.3805" gradientUnits="userSpaceOnUse">
<stop stop-color="#59BBD5"/>
<stop offset="1" stop-color="#8DA7FF"/>
</linearGradient>
<linearGradient id="paint29_linear_346_4562" x1="646.552" y1="64.32" x2="830.381" y2="64.32" gradientUnits="userSpaceOnUse">
<stop stop-color="#59BBD5"/>
<stop offset="1" stop-color="#8DA7FF"/>
</linearGradient>
<linearGradient id="paint30_linear_346_4562" x1="826.479" y1="71.3905" x2="643.083" y2="71.3905" gradientUnits="userSpaceOnUse">
<stop stop-color="#FFFADF"/>
<stop offset="1" stop-color="#6BCBEE"/>
</linearGradient>
<linearGradient id="paint31_linear_346_4562" x1="826.468" y1="71.3905" x2="643.092" y2="71.3905" gradientUnits="userSpaceOnUse">
<stop stop-color="#FFFADF"/>
<stop offset="1" stop-color="#6BCBEE"/>
</linearGradient>
<linearGradient id="paint32_linear_346_4562" x1="826.478" y1="71.3905" x2="643.082" y2="71.3905" gradientUnits="userSpaceOnUse">
<stop stop-color="#FFFADF"/>
<stop offset="1" stop-color="#6BCBEE"/>
</linearGradient>
<linearGradient id="paint33_linear_346_4562" x1="826.473" y1="71.3905" x2="643.089" y2="71.3905" gradientUnits="userSpaceOnUse">
<stop stop-color="#FFFADF"/>
<stop offset="1" stop-color="#6BCBEE"/>
</linearGradient>
<linearGradient id="paint34_linear_346_4562" x1="826.463" y1="71.3905" x2="643.109" y2="71.3905" gradientUnits="userSpaceOnUse">
<stop stop-color="#FFFADF"/>
<stop offset="1" stop-color="#6BCBEE"/>
</linearGradient>
<linearGradient id="paint35_linear_346_4562" x1="826.472" y1="71.3905" x2="643.088" y2="71.3905" gradientUnits="userSpaceOnUse">
<stop stop-color="#FFFADF"/>
<stop offset="1" stop-color="#6BCBEE"/>
</linearGradient>
<linearGradient id="paint36_linear_346_4562" x1="826.482" y1="71.3905" x2="643.078" y2="71.3905" gradientUnits="userSpaceOnUse">
<stop stop-color="#FFFADF"/>
<stop offset="1" stop-color="#6BCBEE"/>
</linearGradient>
<linearGradient id="paint37_linear_346_4562" x1="826.452" y1="71.3905" x2="643.128" y2="71.3905" gradientUnits="userSpaceOnUse">
<stop stop-color="#FFFADF"/>
<stop offset="1" stop-color="#6BCBEE"/>
</linearGradient>
<linearGradient id="paint38_linear_346_4562" x1="826.471" y1="71.3905" x2="643.077" y2="71.3905" gradientUnits="userSpaceOnUse">
<stop stop-color="#FFFADF"/>
<stop offset="1" stop-color="#6BCBEE"/>
</linearGradient>
<linearGradient id="paint39_linear_346_4562" x1="826.471" y1="71.3905" x2="643.087" y2="71.3905" gradientUnits="userSpaceOnUse">
<stop stop-color="#FFFADF"/>
<stop offset="1" stop-color="#6BCBEE"/>
</linearGradient>
<linearGradient id="paint40_linear_346_4562" x1="826.469" y1="71.3905" x2="643.073" y2="71.3905" gradientUnits="userSpaceOnUse">
<stop stop-color="#FFFADF"/>
<stop offset="1" stop-color="#6BCBEE"/>
</linearGradient>
<linearGradient id="paint41_linear_346_4562" x1="826.472" y1="71.3905" x2="643.087" y2="71.3905" gradientUnits="userSpaceOnUse">
<stop stop-color="#FFFADF"/>
<stop offset="1" stop-color="#6BCBEE"/>
</linearGradient>
<linearGradient id="paint42_linear_346_4562" x1="826.482" y1="71.3905" x2="643.057" y2="71.3905" gradientUnits="userSpaceOnUse">
<stop stop-color="#FFFADF"/>
<stop offset="1" stop-color="#6BCBEE"/>
</linearGradient>
<linearGradient id="paint43_linear_346_4562" x1="826.471" y1="71.3905" x2="643.057" y2="71.3905" gradientUnits="userSpaceOnUse">
<stop stop-color="#FFFADF"/>
<stop offset="1" stop-color="#6BCBEE"/>
</linearGradient>
<linearGradient id="paint44_linear_346_4562" x1="826.471" y1="71.3905" x2="643.067" y2="71.3905" gradientUnits="userSpaceOnUse">
<stop stop-color="#FFFADF"/>
<stop offset="1" stop-color="#6BCBEE"/>
</linearGradient>
<linearGradient id="paint45_linear_346_4562" x1="826.471" y1="71.3905" x2="643.067" y2="71.3905" gradientUnits="userSpaceOnUse">
<stop stop-color="#FFFADF"/>
<stop offset="1" stop-color="#6BCBEE"/>
</linearGradient>
<linearGradient id="paint46_linear_346_4562" x1="826.47" y1="71.3905" x2="643.078" y2="71.3905" gradientUnits="userSpaceOnUse">
<stop stop-color="#FFFADF"/>
<stop offset="1" stop-color="#6BCBEE"/>
</linearGradient>
<linearGradient id="paint47_linear_346_4562" x1="826.47" y1="71.3905" x2="643.111" y2="71.3905" gradientUnits="userSpaceOnUse">
<stop stop-color="#FFFADF"/>
<stop offset="1" stop-color="#6BCBEE"/>
</linearGradient>
<linearGradient id="paint48_linear_346_4562" x1="646.55" y1="70.5407" x2="830.392" y2="70.5407" gradientUnits="userSpaceOnUse">
<stop stop-color="#59BBD5"/>
<stop offset="1" stop-color="#8DA7FF"/>
</linearGradient>
<linearGradient id="paint49_linear_346_4562" x1="646.551" y1="70.5406" x2="830.382" y2="70.5406" gradientUnits="userSpaceOnUse">
<stop stop-color="#59BBD5"/>
<stop offset="1" stop-color="#8DA7FF"/>
</linearGradient>
<linearGradient id="paint50_linear_346_4562" x1="646.55" y1="64.4003" x2="830.382" y2="64.4003" gradientUnits="userSpaceOnUse">
<stop stop-color="#59BBD5"/>
<stop offset="1" stop-color="#8DA7FF"/>
</linearGradient>
<linearGradient id="paint51_linear_346_4562" x1="646.541" y1="64.4003" x2="830.392" y2="64.4003" gradientUnits="userSpaceOnUse">
<stop stop-color="#59BBD5"/>
<stop offset="1" stop-color="#8DA7FF"/>
</linearGradient>
<linearGradient id="paint52_linear_346_4562" x1="646.552" y1="64.3805" x2="830.381" y2="64.3805" gradientUnits="userSpaceOnUse">
<stop stop-color="#59BBD5"/>
<stop offset="1" stop-color="#8DA7FF"/>
</linearGradient>
<linearGradient id="paint53_linear_346_4562" x1="646.55" y1="64.3805" x2="830.392" y2="64.3805" gradientUnits="userSpaceOnUse">
<stop stop-color="#59BBD5"/>
<stop offset="1" stop-color="#8DA7FF"/>
</linearGradient>
<linearGradient id="paint54_linear_346_4562" x1="646.562" y1="64.3805" x2="830.35" y2="64.3805" gradientUnits="userSpaceOnUse">
<stop stop-color="#59BBD5"/>
<stop offset="1" stop-color="#8DA7FF"/>
</linearGradient>
<linearGradient id="paint55_linear_346_4562" x1="646.542" y1="64.4003" x2="830.391" y2="64.4003" gradientUnits="userSpaceOnUse">
<stop stop-color="#59BBD5"/>
<stop offset="1" stop-color="#8DA7FF"/>
</linearGradient>
<linearGradient id="paint56_linear_346_4562" x1="646.544" y1="64.4003" x2="830.39" y2="64.4003" gradientUnits="userSpaceOnUse">
<stop stop-color="#59BBD5"/>
<stop offset="1" stop-color="#8DA7FF"/>
</linearGradient>
<linearGradient id="paint57_linear_346_4562" x1="646.553" y1="64.3805" x2="830.392" y2="64.3805" gradientUnits="userSpaceOnUse">
<stop stop-color="#59BBD5"/>
<stop offset="1" stop-color="#8DA7FF"/>
</linearGradient>
<linearGradient id="paint58_linear_346_4562" x1="646.552" y1="64.3805" x2="830.391" y2="64.3805" gradientUnits="userSpaceOnUse">
<stop stop-color="#59BBD5"/>
<stop offset="1" stop-color="#8DA7FF"/>
</linearGradient>
<linearGradient id="paint59_linear_346_4562" x1="646.553" y1="64.3805" x2="830.391" y2="64.3805" gradientUnits="userSpaceOnUse">
<stop stop-color="#59BBD5"/>
<stop offset="1" stop-color="#8DA7FF"/>
</linearGradient>
<linearGradient id="paint60_linear_346_4562" x1="646.552" y1="64.32" x2="830.382" y2="64.32" gradientUnits="userSpaceOnUse">
<stop stop-color="#59BBD5"/>
<stop offset="1" stop-color="#8DA7FF"/>
</linearGradient>
<linearGradient id="paint61_linear_346_4562" x1="826.482" y1="71.3905" x2="643.082" y2="71.3905" gradientUnits="userSpaceOnUse">
<stop stop-color="#FFFADF"/>
<stop offset="1" stop-color="#6BCBEE"/>
</linearGradient>
<linearGradient id="paint62_linear_346_4562" x1="826.431" y1="71.3905" x2="643.101" y2="71.3905" gradientUnits="userSpaceOnUse">
<stop stop-color="#FFFADF"/>
<stop offset="1" stop-color="#6BCBEE"/>
</linearGradient>
<linearGradient id="paint63_linear_346_4562" x1="826.483" y1="71.3905" x2="643.079" y2="71.3905" gradientUnits="userSpaceOnUse">
<stop stop-color="#FFFADF"/>
<stop offset="1" stop-color="#6BCBEE"/>
</linearGradient>
<linearGradient id="paint64_linear_346_4562" x1="826.471" y1="71.3905" x2="643.091" y2="71.3905" gradientUnits="userSpaceOnUse">
<stop stop-color="#FFFADF"/>
<stop offset="1" stop-color="#6BCBEE"/>
</linearGradient>
<linearGradient id="paint65_linear_346_4562" x1="826.483" y1="71.3905" x2="643.082" y2="71.3905" gradientUnits="userSpaceOnUse">
<stop stop-color="#FFFADF"/>
<stop offset="1" stop-color="#6BCBEE"/>
</linearGradient>
<linearGradient id="paint66_linear_346_4562" x1="826.482" y1="71.3905" x2="643.082" y2="71.3905" gradientUnits="userSpaceOnUse">
<stop stop-color="#FFFADF"/>
<stop offset="1" stop-color="#6BCBEE"/>
</linearGradient>
<linearGradient id="paint67_linear_346_4562" x1="826.482" y1="71.3905" x2="643.082" y2="71.3905" gradientUnits="userSpaceOnUse">
<stop stop-color="#FFFADF"/>
<stop offset="1" stop-color="#6BCBEE"/>
</linearGradient>
<linearGradient id="paint68_linear_346_4562" x1="826.482" y1="71.3905" x2="643.081" y2="71.3905" gradientUnits="userSpaceOnUse">
<stop stop-color="#FFFADF"/>
<stop offset="1" stop-color="#6BCBEE"/>
</linearGradient>
<linearGradient id="paint69_linear_346_4562" x1="826.439" y1="71.3905" x2="643.113" y2="71.3905" gradientUnits="userSpaceOnUse">
<stop stop-color="#FFFADF"/>
<stop offset="1" stop-color="#6BCBEE"/>
</linearGradient>
<linearGradient id="paint70_linear_346_4562" x1="826.479" y1="71.3905" x2="643.083" y2="71.3905" gradientUnits="userSpaceOnUse">
<stop stop-color="#FFFADF"/>
<stop offset="1" stop-color="#6BCBEE"/>
</linearGradient>
<linearGradient id="paint71_linear_346_4562" x1="646.551" y1="70.5407" x2="830.39" y2="70.5407" gradientUnits="userSpaceOnUse">
<stop stop-color="#59BBD5"/>
<stop offset="1" stop-color="#8DA7FF"/>
</linearGradient>
<linearGradient id="paint72_linear_346_4562" x1="646.551" y1="70.5406" x2="830.381" y2="70.5406" gradientUnits="userSpaceOnUse">
<stop stop-color="#59BBD5"/>
<stop offset="1" stop-color="#8DA7FF"/>
</linearGradient>
<linearGradient id="paint73_linear_346_4562" x1="646.55" y1="64.4003" x2="830.379" y2="64.4003" gradientUnits="userSpaceOnUse">
<stop stop-color="#59BBD5"/>
<stop offset="1" stop-color="#8DA7FF"/>
</linearGradient>
<linearGradient id="paint74_linear_346_4562" x1="646.55" y1="64.4003" x2="830.369" y2="64.4003" gradientUnits="userSpaceOnUse">
<stop stop-color="#59BBD5"/>
<stop offset="1" stop-color="#8DA7FF"/>
</linearGradient>
<linearGradient id="paint75_linear_346_4562" x1="646.551" y1="64.3805" x2="830.393" y2="64.3805" gradientUnits="userSpaceOnUse">
<stop stop-color="#59BBD5"/>
<stop offset="1" stop-color="#8DA7FF"/>
</linearGradient>
<linearGradient id="paint76_linear_346_4562" x1="646.55" y1="64.3805" x2="830.388" y2="64.3805" gradientUnits="userSpaceOnUse">
<stop stop-color="#59BBD5"/>
<stop offset="1" stop-color="#8DA7FF"/>
</linearGradient>
<linearGradient id="paint77_linear_346_4562" x1="646.55" y1="64.3805" x2="830.392" y2="64.3805" gradientUnits="userSpaceOnUse">
<stop stop-color="#59BBD5"/>
<stop offset="1" stop-color="#8DA7FF"/>
</linearGradient>
<linearGradient id="paint78_linear_346_4562" x1="646.551" y1="64.4003" x2="830.39" y2="64.4003" gradientUnits="userSpaceOnUse">
<stop stop-color="#59BBD5"/>
<stop offset="1" stop-color="#8DA7FF"/>
</linearGradient>
<linearGradient id="paint79_linear_346_4562" x1="646.551" y1="64.4003" x2="830.39" y2="64.4003" gradientUnits="userSpaceOnUse">
<stop stop-color="#59BBD5"/>
<stop offset="1" stop-color="#8DA7FF"/>
</linearGradient>
<linearGradient id="paint80_linear_346_4562" x1="646.552" y1="64.3805" x2="830.393" y2="64.3805" gradientUnits="userSpaceOnUse">
<stop stop-color="#59BBD5"/>
<stop offset="1" stop-color="#8DA7FF"/>
</linearGradient>
<linearGradient id="paint81_linear_346_4562" x1="646.551" y1="64.3805" x2="830.39" y2="64.3805" gradientUnits="userSpaceOnUse">
<stop stop-color="#59BBD5"/>
<stop offset="1" stop-color="#8DA7FF"/>
</linearGradient>
<linearGradient id="paint82_linear_346_4562" x1="646.541" y1="64.3805" x2="830.403" y2="64.3805" gradientUnits="userSpaceOnUse">
<stop stop-color="#59BBD5"/>
<stop offset="1" stop-color="#8DA7FF"/>
</linearGradient>
<linearGradient id="paint83_linear_346_4562" x1="646.552" y1="64.32" x2="830.382" y2="64.32" gradientUnits="userSpaceOnUse">
<stop stop-color="#59BBD5"/>
<stop offset="1" stop-color="#8DA7FF"/>
</linearGradient>
<linearGradient id="paint84_linear_346_4562" x1="826.474" y1="71.3905" x2="643.091" y2="71.3905" gradientUnits="userSpaceOnUse">
<stop stop-color="#FFFADF"/>
<stop offset="1" stop-color="#6BCBEE"/>
</linearGradient>
<linearGradient id="paint85_linear_346_4562" x1="826.45" y1="71.3905" x2="643.09" y2="71.3905" gradientUnits="userSpaceOnUse">
<stop stop-color="#FFFADF"/>
<stop offset="1" stop-color="#6BCBEE"/>
</linearGradient>
<linearGradient id="paint86_linear_346_4562" x1="826.5" y1="71.3905" x2="643.08" y2="71.3905" gradientUnits="userSpaceOnUse">
<stop stop-color="#FFFADF"/>
<stop offset="1" stop-color="#6BCBEE"/>
</linearGradient>
<linearGradient id="paint87_linear_346_4562" x1="826.482" y1="71.3905" x2="643.082" y2="71.3905" gradientUnits="userSpaceOnUse">
<stop stop-color="#FFFADF"/>
<stop offset="1" stop-color="#6BCBEE"/>
</linearGradient>
<linearGradient id="paint88_linear_346_4562" x1="826.502" y1="71.3905" x2="643.081" y2="71.3905" gradientUnits="userSpaceOnUse">
<stop stop-color="#FFFADF"/>
<stop offset="1" stop-color="#6BCBEE"/>
</linearGradient>
<linearGradient id="paint89_linear_346_4562" x1="826.471" y1="71.3905" x2="643.091" y2="71.3905" gradientUnits="userSpaceOnUse">
<stop stop-color="#FFFADF"/>
<stop offset="1" stop-color="#6BCBEE"/>
</linearGradient>
<linearGradient id="paint90_linear_346_4562" x1="826.451" y1="71.3905" x2="643.091" y2="71.3905" gradientUnits="userSpaceOnUse">
<stop stop-color="#FFFADF"/>
<stop offset="1" stop-color="#6BCBEE"/>
</linearGradient>
<linearGradient id="paint91_linear_346_4562" x1="826.471" y1="71.3905" x2="643.091" y2="71.3905" gradientUnits="userSpaceOnUse">
<stop stop-color="#FFFADF"/>
<stop offset="1" stop-color="#6BCBEE"/>
</linearGradient>
<linearGradient id="paint92_linear_346_4562" x1="826.49" y1="71.3905" x2="643.081" y2="71.3905" gradientUnits="userSpaceOnUse">
<stop stop-color="#FFFADF"/>
<stop offset="1" stop-color="#6BCBEE"/>
</linearGradient>
<linearGradient id="paint93_linear_346_4562" x1="826.48" y1="71.3905" x2="643.08" y2="71.3905" gradientUnits="userSpaceOnUse">
<stop stop-color="#FFFADF"/>
<stop offset="1" stop-color="#6BCBEE"/>
</linearGradient>
<linearGradient id="paint94_linear_346_4562" x1="586.84" y1="70.4196" x2="921.15" y2="70.4196" gradientUnits="userSpaceOnUse">
<stop stop-color="#72CFED"/>
<stop offset="1" stop-color="#6366F3"/>
</linearGradient>
<linearGradient id="paint95_linear_346_4562" x1="2025.48" y1="14.4198" x2="525.369" y2="119.75" gradientUnits="userSpaceOnUse">
<stop stop-color="#2CE6C4"/>
<stop offset="1" stop-color="#99DFFF"/>
</linearGradient>
<linearGradient id="paint96_linear_346_4562" x1="471.159" y1="23.6695" x2="421.749" y2="159.429" gradientUnits="userSpaceOnUse">
<stop stop-color="#2CE6C4"/>
<stop offset="1" stop-color="#99DFFF"/>
</linearGradient>
<linearGradient id="paint97_linear_346_4562" x1="309.289" y1="23.7095" x2="266.969" y2="139.989" gradientUnits="userSpaceOnUse">
<stop stop-color="#2CE6C4"/>
<stop offset="1" stop-color="#99DFFF"/>
</linearGradient>
<linearGradient id="paint98_linear_346_4562" x1="229.55" y1="26.9195" x2="190.44" y2="134.39" gradientUnits="userSpaceOnUse">
<stop stop-color="#2CE6C4"/>
<stop offset="1" stop-color="#99B0FF"/>
</linearGradient>
<linearGradient id="paint99_linear_346_4562" x1="356.229" y1="23.7002" x2="319.829" y2="123.69" gradientUnits="userSpaceOnUse">
<stop stop-color="#2CE6C4"/>
<stop offset="1" stop-color="#99B0FF"/>
</linearGradient>
<linearGradient id="paint100_linear_346_4562" x1="411.36" y1="26.2702" x2="370.82" y2="137.65" gradientUnits="userSpaceOnUse">
<stop stop-color="#59BBD5"/>
<stop offset="1" stop-color="#8DA7FF"/>
</linearGradient>
<linearGradient id="paint101_linear_346_4562" x1="2025.48" y1="18.3695" x2="297.498" y2="100.669" gradientUnits="userSpaceOnUse">
<stop stop-color="#99B0FF"/>
<stop offset="1" stop-color="#7A99FF"/>
</linearGradient>
<linearGradient id="paint102_linear_346_4562" x1="204.63" y1="27.2395" x2="166.71" y2="131.419" gradientUnits="userSpaceOnUse">
<stop stop-color="#72CFED"/>
<stop offset="1" stop-color="#6366F3"/>
</linearGradient>
<linearGradient id="paint103_linear_346_4562" x1="521.819" y1="18.5204" x2="481.139" y2="130.29" gradientUnits="userSpaceOnUse">
<stop stop-color="#2CE6C4"/>
<stop offset="1" stop-color="#99B0FF"/>
</linearGradient>
<linearGradient id="paint104_linear_346_4562" x1="270.548" y1="16.4295" x2="233.658" y2="117.769" gradientUnits="userSpaceOnUse">
<stop stop-color="#72CFED"/>
<stop offset="1" stop-color="#6366F3"/>
</linearGradient>
<linearGradient id="paint105_linear_346_4562" x1="539.838" y1="10.4502" x2="503.448" y2="110.44" gradientUnits="userSpaceOnUse">
<stop stop-color="#72CFED"/>
<stop offset="1" stop-color="#6366F3"/>
</linearGradient>
<linearGradient id="paint106_linear_346_4562" x1="335.139" y1="28.1002" x2="297.889" y2="130.44" gradientUnits="userSpaceOnUse">
<stop stop-color="#59BBD5"/>
<stop offset="1" stop-color="#8DA7FF"/>
</linearGradient>
<linearGradient id="paint107_linear_346_4562" x1="476.77" y1="21.3795" x2="437.26" y2="129.929" gradientUnits="userSpaceOnUse">
<stop stop-color="#59BBD5"/>
<stop offset="1" stop-color="#8DA7FF"/>
</linearGradient>
<linearGradient id="paint108_linear_346_4562" x1="432.34" y1="5.19944" x2="388.35" y2="126.079" gradientUnits="userSpaceOnUse">
<stop stop-color="#2CE6C4"/>
<stop offset="1" stop-color="#99B0FF"/>
</linearGradient>
<linearGradient id="paint109_linear_346_4562" x1="384.529" y1="21.4995" x2="347.079" y2="124.389" gradientUnits="userSpaceOnUse">
<stop stop-color="#99B0FF"/>
<stop offset="1" stop-color="#7A99FF"/>
</linearGradient>
<linearGradient id="paint110_linear_346_4562" x1="447.619" y1="25.8495" x2="403.509" y2="147.039" gradientUnits="userSpaceOnUse">
<stop stop-color="#72CFED"/>
<stop offset="1" stop-color="#6366F3"/>
</linearGradient>
<linearGradient id="paint111_linear_346_4562" x1="495.22" y1="22.5795" x2="461.49" y2="115.249" gradientUnits="userSpaceOnUse">
<stop stop-color="#99B0FF"/>
<stop offset="1" stop-color="#7A99FF"/>
</linearGradient>
<linearGradient id="paint112_linear_346_4562" x1="173.239" y1="23.7595" x2="141.059" y2="112.179" gradientUnits="userSpaceOnUse">
<stop stop-color="#99B0FF"/>
<stop offset="1" stop-color="#7A99FF"/>
</linearGradient>
<linearGradient id="paint113_linear_346_4562" x1="131.42" y1="14.4198" x2="93.0801" y2="119.75" gradientUnits="userSpaceOnUse">
<stop stop-color="#2CE6C4"/>
<stop offset="1" stop-color="#99DFFF"/>
</linearGradient>
<linearGradient id="paint114_linear_346_4562" x1="38.8701" y1="23.6695" x2="-10.5399" y2="159.429" gradientUnits="userSpaceOnUse">
<stop stop-color="#2CE6C4"/>
<stop offset="1" stop-color="#99DFFF"/>
</linearGradient>
<linearGradient id="paint115_linear_346_4562" x1="89.5299" y1="18.5204" x2="48.8499" y2="130.29" gradientUnits="userSpaceOnUse">
<stop stop-color="#2CE6C4"/>
<stop offset="1" stop-color="#99B0FF"/>
</linearGradient>
<linearGradient id="paint116_linear_346_4562" x1="107.549" y1="10.4502" x2="71.1494" y2="110.44" gradientUnits="userSpaceOnUse">
<stop stop-color="#72CFED"/>
<stop offset="1" stop-color="#6366F3"/>
</linearGradient>
<linearGradient id="paint117_linear_346_4562" x1="44.481" y1="21.3795" x2="4.97093" y2="129.929" gradientUnits="userSpaceOnUse">
<stop stop-color="#59BBD5"/>
<stop offset="1" stop-color="#8DA7FF"/>
</linearGradient>
<linearGradient id="paint118_linear_346_4562" x1="0.049138" y1="5.19945" x2="-43.9509" y2="126.079" gradientUnits="userSpaceOnUse">
<stop stop-color="#2CE6C4"/>
<stop offset="1" stop-color="#99B0FF"/>
</linearGradient>
<linearGradient id="paint119_linear_346_4562" x1="15.3302" y1="25.8495" x2="-28.7798" y2="147.039" gradientUnits="userSpaceOnUse">
<stop stop-color="#72CFED"/>
<stop offset="1" stop-color="#6366F3"/>
</linearGradient>
<linearGradient id="paint120_linear_346_4562" x1="62.9309" y1="22.5795" x2="29.2009" y2="115.249" gradientUnits="userSpaceOnUse">
<stop stop-color="#99B0FF"/>
<stop offset="1" stop-color="#7A99FF"/>
</linearGradient>
<linearGradient id="paint121_linear_346_4562" x1="741.602" y1="45.0878" x2="418.612" y2="59.6982" gradientUnits="userSpaceOnUse">
<stop stop-color="#99B0FF"/>
<stop offset="1" stop-color="#2CE6C4"/>
</linearGradient>
<linearGradient id="paint122_linear_346_4562" x1="92.5991" y1="27.3603" x2="575.149" y2="27.3603" gradientUnits="userSpaceOnUse">
<stop stop-color="#99B0FF"/>
<stop offset="1" stop-color="#2CE6C4"/>
</linearGradient>
<linearGradient id="paint123_linear_346_4562" x1="722.08" y1="33.6299" x2="317.93" y2="33.6299" gradientUnits="userSpaceOnUse">
<stop stop-color="#59BBD5"/>
<stop offset="1" stop-color="#8DA7FF"/>
</linearGradient>
<linearGradient id="paint124_linear_346_4562" x1="2025.48" y1="1.99035" x2="2024.48" y2="128.79" gradientUnits="userSpaceOnUse">
<stop stop-color="#99F1FF"/>
<stop offset="1" stop-color="#75FFF6"/>
</linearGradient>
<linearGradient id="paint125_linear_346_4562" x1="-296.5" y1="-13.2705" x2="1453.77" y2="57.9596" gradientUnits="userSpaceOnUse">
<stop stop-color="#99F1FF"/>
<stop offset="1" stop-color="#2CE6C4"/>
</linearGradient>
<linearGradient id="paint126_linear_346_4562" x1="1390.77" y1="24.9495" x2="1603.08" y2="118.53" gradientUnits="userSpaceOnUse">
<stop stop-color="#99B0FF"/>
<stop offset="1" stop-color="#2CE6C4"/>
</linearGradient>
<linearGradient id="paint127_linear_346_4562" x1="1636.4" y1="-95.2698" x2="1367.34" y2="173.79" gradientUnits="userSpaceOnUse">
<stop stop-color="#59BBD5"/>
<stop offset="1" stop-color="#8DA7FF"/>
</linearGradient>
<linearGradient id="paint128_linear_346_4562" x1="-979.47" y1="-136.141" x2="-978.47" y2="232.199" gradientUnits="userSpaceOnUse">
<stop stop-color="#6E8EFF"/>
<stop offset="1" stop-color="#49B5D1"/>
</linearGradient>
<linearGradient id="paint129_linear_346_4562" x1="1446.85" y1="-94.0405" x2="1702.45" y2="161.56" gradientUnits="userSpaceOnUse">
<stop stop-color="#6366F3"/>
<stop offset="1" stop-color="#72CFED"/>
</linearGradient>
<linearGradient id="paint130_linear_346_4562" x1="1170.05" y1="112.87" x2="502.35" y2="-99.2798" gradientUnits="userSpaceOnUse">
<stop stop-color="#6366F3"/>
<stop offset="1" stop-color="#72CFED"/>
</linearGradient>
<linearGradient id="paint131_linear_346_4562" x1="183.431" y1="32.8696" x2="17.1108" y2="32.8696" gradientUnits="userSpaceOnUse">
<stop stop-color="#3FE8C9"/>
<stop offset="1" stop-color="#59BBD5"/>
</linearGradient>
<linearGradient id="paint132_linear_346_4562" x1="2025.48" y1="19.6996" x2="2024.48" y2="19.6996" gradientUnits="userSpaceOnUse">
<stop stop-color="#49B5D1"/>
<stop offset="1" stop-color="#829FFF"/>
</linearGradient>
<clipPath id="clip0_346_4562">
<rect width="1728" height="218" fill="white"/>
</clipPath>
</defs>
</svg>
