<svg width="188" height="60" viewBox="0 0 188 60" fill="none" xmlns="http://www.w3.org/2000/svg">
<path d="M59.9235 27.9647C58.7991 11.433 44.4904 -1.05316 27.9638 0.0712107C19.7287 0.630827 12.4999 4.466 7.45304 10.211L7.43764 10.2008C7.4017 10.247 7.3709 10.2932 7.34009 10.3394C2.32922 16.1204 -0.4894 23.801 0.0702158 32.0361C0.121557 32.8216 0.21397 33.5917 0.326921 34.3567C0.326921 34.3926 0.337189 34.4234 0.342323 34.4594C0.419334 34.9625 0.506614 35.4657 0.604162 35.9585C0.604162 35.9688 0.604162 35.9791 0.609296 35.9842C0.701709 36.4309 0.799257 36.8775 0.912207 37.3191C4.37772 51.1349 17.3208 60.9205 32.0351 59.9193C48.5617 58.795 61.053 44.4863 59.9286 27.9545L59.9235 27.9647ZM53.3929 28.4114C53.5315 30.4445 53.4032 32.4365 53.0387 34.3567C53.0387 34.3464 53.0284 34.3362 53.0284 34.3259C50.8515 29.0121 46.5492 25.1718 42.7705 23.0514C43.5355 14.0462 40.4807 10.247 37.0203 9.63089C36.9279 9.61036 36.8303 9.59496 36.7379 9.58469C33.9912 9.23044 31.4806 11.1711 31.1315 13.9179C30.7772 16.6646 32.7179 19.1752 35.4647 19.5243C35.706 19.5551 35.9421 19.5654 36.1732 19.5602C36.1886 19.8631 36.1988 20.1866 36.1988 20.5254C33.0003 19.7348 30.0123 19.5756 27.2861 19.8221C26.2644 19.8888 25.2478 20.0172 24.2313 20.2071C24.5701 17.1677 25.715 13.7484 27.9278 11.2533C30.0687 8.83511 33.2519 7.45404 36.7225 7.80829C37.3797 7.87503 38.0831 8.03932 38.7145 8.24982C38.7453 8.26009 38.7762 8.27036 38.8018 8.27549C46.8418 11.551 52.7614 19.1854 53.3878 28.4114H53.3929ZM32.4818 32.991C32.4818 32.991 32.4818 32.9962 32.4766 33.0013C31.763 34.0332 30.9107 35.0498 29.9096 36.0355C28.4104 34.444 27.209 32.724 26.2952 30.9477C26.249 30.8501 26.1976 30.7628 26.1514 30.6653C26.1514 30.6653 26.1514 30.6601 26.1514 30.655C25.6175 29.5204 25.1605 28.2728 24.8063 26.9123C26.9369 26.4091 29.0265 26.2243 31.0237 26.3218C31.1315 26.327 31.2342 26.3321 31.342 26.3372H31.3523C32.605 26.4399 33.909 26.671 35.2593 27.0406C34.6278 29.1353 33.7447 31.0401 32.6614 32.7189C32.605 32.8062 32.5485 32.8935 32.4869 32.9859L32.4818 32.991ZM22.2341 7.8699C22.2341 7.8699 22.2238 7.8853 22.2187 7.89044C18.7018 12.429 17.5313 18.0713 17.5826 22.4045C9.39887 26.2448 7.643 30.7885 8.83411 34.0949C8.86492 34.1873 8.90086 34.2745 8.9368 34.3618C10.0047 36.9135 12.9414 38.12 15.493 37.0521C18.0447 35.9842 19.2512 33.0475 18.1833 30.4959C18.0909 30.2751 17.9779 30.0646 17.8599 29.8644C18.1166 29.6949 18.3938 29.5255 18.6916 29.3509C19.6054 32.5187 20.9557 35.1936 22.5319 37.432C23.1018 38.2791 23.7179 39.0955 24.3904 39.881C21.5872 41.108 18.0549 41.8268 14.7845 41.1594C11.6219 40.5125 8.83412 38.4486 7.4017 35.2654C7.1296 34.6596 6.9191 33.9716 6.78561 33.3196C6.70347 32.7497 6.63672 32.1747 6.59565 31.5894C5.86661 20.8438 12.5307 11.2789 22.2341 7.8699ZM31.5884 53.3939C25.2067 53.8303 19.2409 51.6535 14.7332 47.7824C20.4218 48.5576 25.8947 46.7504 29.6221 44.5376C37.0408 49.7076 41.8566 48.9581 44.1259 46.2729C44.1875 46.201 44.2491 46.124 44.3056 46.047C45.9844 43.8445 45.5583 40.7024 43.3558 39.0236C41.1532 37.3447 38.0112 37.7709 36.3323 39.9734C36.1886 40.1634 36.0602 40.3687 35.9473 40.5741C35.6752 40.4355 35.3877 40.2814 35.095 40.112C37.3848 37.7349 39.0123 35.2244 40.1624 32.7395C40.6142 31.8204 41.0095 30.8758 41.3535 29.9003C43.8178 31.7178 46.2103 34.4132 47.2679 37.5809C48.2896 40.6408 47.8994 44.0909 45.8561 46.9198C45.471 47.4538 44.9781 47.9826 44.4801 48.4241C44.475 48.4292 44.4647 48.4395 44.4596 48.4446C40.8863 51.253 36.4607 53.0602 31.5936 53.3888L31.5884 53.3939Z" fill="url(#paint0_linear_159_2029)"/>
<path style="mix-blend-mode:overlay" opacity="0.9" d="M37.0208 9.62576C36.9284 9.60522 36.8308 9.58982 36.7384 9.57955C36.2507 9.51794 35.7732 9.52821 35.3163 9.60522C38.1862 11.166 40.2758 15.5146 39.1771 24.0988C38.8126 26.9431 37.9655 29.6436 36.7487 32.1285C35.7578 34.2643 34.4127 36.4155 32.6055 38.4845C33.4731 39.1365 34.3203 39.6807 35.0955 40.1223C37.3853 37.7452 39.0128 35.2346 40.1629 32.7497C41.3848 30.27 42.2268 27.5643 42.5913 24.72C43.9005 14.5031 40.6865 10.2829 37.0208 9.63089V9.62576Z" fill="url(#paint1_radial_159_2029)"/>
<g style="mix-blend-mode:overlay" opacity="0.8">
<path d="M39.1758 24.0936C40.2745 15.5146 38.1849 11.1609 35.3149 9.60009C35.202 9.61549 35.0942 9.64116 34.9812 9.66683C37.7896 11.2841 39.8124 15.6275 38.7291 24.0936C38.3646 26.9379 37.5175 29.6385 36.3007 32.1234C35.3457 34.1873 34.052 36.2666 32.332 38.274C32.4244 38.3459 32.5117 38.4126 32.6041 38.4794C34.4113 36.4103 35.7565 34.254 36.7474 32.1234C37.9693 29.6436 38.8113 26.9379 39.1758 24.0936Z" fill="white"/>
</g>
<path style="mix-blend-mode:overlay" opacity="0.5" d="M28.2659 43.557C27.9938 43.3516 27.7371 43.136 27.4753 42.9204C23.2397 44.6865 17.3714 45.7954 11.5391 44.44C12.494 45.6568 13.5568 46.7812 14.7273 47.7823C20.4159 48.5576 25.8889 46.7504 29.6162 44.5376C29.1747 44.2296 28.7229 43.901 28.2608 43.5519L28.2659 43.557Z" fill="url(#paint2_radial_159_2029)"/>
<path style="mix-blend-mode:overlay" opacity="0.6" d="M27.4808 42.9204C27.3524 42.8125 27.2189 42.7047 27.0957 42.5969C22.8293 44.3014 16.9302 45.3231 11.1133 43.8702C11.257 44.0601 11.4008 44.2552 11.5445 44.4401C17.3717 45.7955 23.2451 44.6865 27.4808 42.9204Z" fill="url(#paint3_linear_159_2029)"/>
<path style="mix-blend-mode:overlay" opacity="0.9" d="M8.83894 34.1C8.86975 34.1924 8.90568 34.2797 8.94162 34.367C9.13159 34.8188 9.37802 35.2244 9.6758 35.5889C9.59365 32.3236 12.3147 28.3344 20.2931 24.9972C22.9372 23.8934 25.6993 23.2722 28.4614 23.0874C30.8026 22.8769 33.344 22.9641 36.0394 23.4981C36.1677 22.4199 36.2191 21.4136 36.2088 20.5254C33.0103 19.7297 30.0171 19.5756 27.2909 19.8221C24.5339 20.0069 21.7666 20.6281 19.1225 21.732C9.61932 25.7057 7.57082 30.5985 8.83894 34.1051V34.1Z" fill="url(#paint4_radial_159_2029)"/>
<g style="mix-blend-mode:overlay" opacity="0.8">
<path d="M20.2929 25.0024C12.3145 28.3395 9.59348 32.3287 9.67563 35.594C9.7475 35.6813 9.82451 35.7634 9.90153 35.8456C9.89639 32.606 12.6483 28.6835 20.5188 25.3874C23.1629 24.2836 25.925 23.6624 28.6872 23.4775C30.9513 23.2722 33.4003 23.3543 35.9981 23.8369C36.0135 23.724 36.0289 23.611 36.0392 23.4981C33.3438 22.9693 30.8024 22.8769 28.4613 23.0874C25.7043 23.2722 22.937 23.8934 20.2929 24.9972V25.0024Z" fill="white"/>
</g>
<path style="mix-blend-mode:overlay" opacity="0.4" d="M42.6013 24.7149C42.5602 25.0537 42.5037 25.3823 42.4473 25.716C46.0925 28.4987 49.9892 33.0321 51.7348 38.7566C52.3099 37.3191 52.7514 35.8353 53.0338 34.3208C50.862 29.007 46.5597 25.1718 42.781 23.0514C42.7348 23.5905 42.6783 24.1398 42.6064 24.7149H42.6013Z" fill="url(#paint5_radial_159_2029)"/>
<path style="mix-blend-mode:overlay" opacity="0.5" d="M42.4467 25.716C42.4158 25.8803 42.3902 26.0497 42.3594 26.214C45.9686 29.0583 49.8038 33.6533 51.4519 39.4189C51.5494 39.1981 51.6418 38.9774 51.7291 38.7566C49.9835 33.0321 46.0919 28.5038 42.4415 25.716H42.4467Z" fill="url(#paint6_linear_159_2029)"/>
<path style="mix-blend-mode:overlay" opacity="0.9" d="M44.1255 46.2678C44.1871 46.1959 44.2487 46.1189 44.3052 46.0419C44.603 45.6517 44.8289 45.2307 44.9983 44.7994C42.2105 46.504 37.3998 46.1394 30.515 40.8975C28.2355 39.1622 26.3153 37.0778 24.7751 34.7777C23.4197 32.8524 22.2286 30.6139 21.3404 28.011C20.3444 28.4371 19.4459 28.8992 18.6758 29.351C19.5896 32.5187 20.9502 35.1884 22.5264 37.4269C24.0666 39.727 25.9867 41.8063 28.2663 43.5467C36.4603 49.7898 41.7227 49.1172 44.1203 46.2678H44.1255Z" fill="url(#paint7_radial_159_2029)"/>
<g style="mix-blend-mode:overlay" opacity="0.8">
<path d="M30.5191 40.8975C37.3988 46.1394 42.2146 46.504 45.0024 44.7994C45.0435 44.6916 45.0794 44.5838 45.1102 44.4811C42.307 46.1086 37.5323 45.6825 30.745 40.5125C28.4655 38.7771 26.5453 36.6927 25.0051 34.3926C23.6959 32.5341 22.5407 30.3726 21.6628 27.8826C21.555 27.9288 21.4523 27.9699 21.3496 28.0161C22.2378 30.6191 23.4289 32.8575 24.7843 34.7828C26.3245 37.0829 28.2447 39.1622 30.5242 40.9027L30.5191 40.8975Z" fill="white"/>
</g>
<path style="mix-blend-mode:overlay" opacity="0.3" d="M19.1168 21.7217C19.43 21.5933 19.7431 21.4753 20.0615 21.3572C20.6467 16.8084 22.6234 11.166 26.7101 6.79688C25.1801 7.01764 23.6759 7.37703 22.2178 7.8853C18.7009 12.4238 17.5303 18.0662 17.5817 22.3994C18.0694 22.1684 18.5777 21.9425 19.1116 21.7217H19.1168Z" fill="url(#paint8_radial_159_2029)"/>
<path style="mix-blend-mode:overlay" opacity="0.4" d="M20.0605 21.3572C20.2197 21.3007 20.3737 21.2391 20.5329 21.1826C21.19 16.6338 23.254 11.0171 27.4177 6.70446C27.1815 6.73013 26.9454 6.76093 26.7092 6.79174C22.6225 11.166 20.6458 16.8032 20.0605 21.352V21.3572Z" fill="url(#paint9_linear_159_2029)"/>
<path style="mix-blend-mode:multiply" opacity="0.4" d="M27.9635 0.0712111C19.7284 0.630827 12.4996 4.466 7.45279 10.211C7.41686 10.2521 7.37578 10.2983 7.33984 10.3394C8.32046 11.3149 11.5344 13.235 12.8333 14.0359C15.3901 11.2892 18.5989 9.14316 22.239 7.8699C22.4906 7.54132 22.7575 7.21787 23.0348 6.90469C26.4233 3.07979 31.0491 1.06209 36.4194 1.06209C37.0149 1.06209 38.2317 1.15964 38.2574 1.15964C35.0023 0.225234 31.5368 -0.175225 27.9635 0.0712111Z" fill="url(#paint10_linear_159_2029)"/>
<path style="mix-blend-mode:multiply" opacity="0.4" d="M31.5883 53.399C25.2066 53.8354 19.2408 51.6586 14.7331 47.7875C14.3121 47.731 13.8911 47.6643 13.4701 47.577C8.46436 46.5553 4.39816 43.557 1.71816 38.9106C1.42038 38.3921 1.15341 37.8684 0.912109 37.3293C4.37762 51.1452 17.3207 60.9308 32.0299 59.9296C32.0966 58.4151 31.6499 54.8982 31.5832 53.399H31.5883Z" fill="url(#paint11_linear_159_2029)"/>
<path style="mix-blend-mode:multiply" opacity="0.4" d="M59.924 27.9647C58.9998 27.8723 54.5023 28.2266 53.3934 28.4114C53.532 30.4445 53.4037 32.4365 53.0391 34.3567C53.1932 34.7366 53.342 35.1268 53.4755 35.5221C55.0928 40.3687 54.528 45.3847 51.848 50.0362C51.5554 50.5445 51.2371 51.0322 50.9033 51.4994C50.8982 51.5097 50.8879 51.52 50.8828 51.5251C50.8828 51.5251 50.8982 51.5148 50.9033 51.5046C56.9975 45.5747 60.5452 37.1137 59.924 27.9699V27.9647Z" fill="url(#paint12_linear_159_2029)"/>
<path style="mix-blend-mode:multiply" opacity="0.5" d="M36.7279 7.80316C37.3851 7.8699 38.0884 8.03419 38.7199 8.24469C38.7507 8.25496 38.7815 8.26523 38.8072 8.27036C41.3948 9.32285 43.7616 10.8323 45.805 12.6959C45.805 12.6959 45.8152 12.7011 45.8204 12.7062C46.8061 11.5819 48.7006 10.3445 48.7006 10.3445C48.7006 10.3445 45.7998 7.37703 41.3588 6.45289C38.2527 5.80599 31.2447 5.18477 26.8242 12.7062C26.8242 12.7062 26.8396 12.6908 26.8653 12.6651C27.1939 12.1723 27.5379 11.6897 27.9332 11.2481C30.0741 8.82998 33.2572 7.44891 36.7279 7.80316Z" fill="url(#paint13_linear_159_2029)"/>
<path style="mix-blend-mode:multiply" opacity="0.5" d="M45.856 46.925C45.4709 47.4589 44.978 47.9877 44.48 48.4292C44.4595 48.4498 44.4338 48.4703 44.4133 48.4908C42.2056 50.2056 39.7156 51.4994 37.0818 52.3363C37.0767 52.3363 37.0715 52.3363 37.0664 52.3414C37.549 53.7584 37.6722 56.0174 37.6722 56.0174C37.6722 56.0174 41.6922 54.9906 44.7111 51.6072C46.8212 49.2404 50.8669 43.48 46.5645 35.8918C46.5645 35.8918 46.5696 35.9175 46.5799 35.9483C46.8469 36.4771 47.0882 37.0213 47.273 37.5809C48.2947 40.6408 47.9045 44.0909 45.8611 46.9198L45.856 46.925Z" fill="url(#paint14_linear_159_2029)"/>
<path style="mix-blend-mode:multiply" opacity="0.5" d="M7.41256 35.2757C7.14045 34.6699 6.92995 33.9819 6.79647 33.3299C6.79133 33.2991 6.78106 33.2683 6.77593 33.2375C6.39601 30.4702 6.51923 27.667 7.10965 24.9664C7.10965 24.9613 7.10965 24.9562 7.10965 24.951C5.6413 24.6635 3.6236 23.6367 3.6236 23.6367C3.6236 23.6367 2.50436 27.6362 3.92651 31.9385C4.92252 34.9522 7.88489 41.3339 16.6077 41.4007C16.6077 41.4007 16.5821 41.3955 16.5512 41.3853C15.9608 41.3493 15.3704 41.2877 14.7902 41.1696C11.6276 40.5227 8.83984 38.4588 7.40742 35.2757H7.41256Z" fill="url(#paint15_linear_159_2029)"/>
<path style="mix-blend-mode:multiply" opacity="0.6" d="M35.4647 19.5192C35.706 19.55 35.9422 19.5602 36.1732 19.5551C36.1732 19.5551 36.0141 16.4387 35.6342 14.8369C35.2491 13.2402 34.6844 12.1774 34.0683 11.5767C33.6216 11.1455 32.22 10.6115 31.1316 13.9076C30.7773 16.6543 32.718 19.1649 35.4647 19.514V19.5192Z" fill="url(#paint16_linear_159_2029)"/>
<path style="mix-blend-mode:multiply" opacity="0.5" d="M18.1892 30.5061C18.0968 30.2854 17.9839 30.0749 17.8658 29.8746C17.8658 29.8746 15.2423 31.5689 14.0512 32.6984C12.86 33.8279 12.2234 34.8496 12.0129 35.6864C11.864 36.2871 12.1002 37.7657 15.499 37.0624C18.0506 35.9945 19.2571 33.0578 18.1892 30.5061Z" fill="url(#paint17_linear_159_2029)"/>
<path style="mix-blend-mode:multiply" opacity="0.6" d="M36.3382 39.9683C36.1944 40.1582 36.0661 40.3636 35.9531 40.5689C35.9531 40.5689 38.7307 41.9911 40.3068 42.4583C41.883 42.9255 43.0844 42.9666 43.911 42.7304C44.5065 42.561 45.6668 41.6112 43.3616 39.0236C41.1591 37.3447 38.017 37.7709 36.3382 39.9734V39.9683Z" fill="url(#paint18_linear_159_2029)"/>
<path style="mix-blend-mode:multiply" opacity="0.3" d="M35.2606 27.0457C34.6291 29.1405 33.746 31.0452 32.6628 32.7241C32.6063 32.8113 32.5498 32.8986 32.4882 32.991C32.4882 32.991 32.4882 32.9962 32.4831 33.0013C31.7694 34.0332 30.9172 35.0498 29.916 36.0355C30.604 36.7646 31.3433 37.4731 32.1596 38.1457C33.1864 38.9517 34.1876 39.6037 35.0963 40.1171C37.3861 37.7401 39.0136 35.2295 40.1637 32.7446C40.6155 31.8256 41.0108 30.8809 41.3548 29.9054C40.2972 29.1302 39.2293 28.509 38.2435 28.088C37.227 27.6516 36.2309 27.3127 35.2555 27.0457H35.2606Z" fill="url(#paint19_linear_159_2029)"/>
<path style="mix-blend-mode:multiply" opacity="0.3" d="M14.734 47.7875C20.4225 48.5627 25.8955 46.7555 29.6228 44.5427C29.1813 44.2347 28.7295 43.9061 28.2674 43.557C26.8299 42.4583 25.5361 41.2261 24.3861 39.8861C21.5828 41.1132 18.0506 41.8319 14.7802 41.1645C11.6176 40.5176 8.82975 38.4537 7.39734 35.2706C7.12523 34.6647 6.91474 33.9768 6.78125 33.3247C7.60784 39.1263 10.5343 44.1885 14.7288 47.7875H14.734Z" fill="url(#paint20_linear_159_2029)"/>
<path style="mix-blend-mode:multiply" opacity="0.3" d="M29.9153 36.0355C28.4161 34.444 27.2147 32.724 26.3009 30.9477C26.2547 30.8501 26.2033 30.7628 26.1571 30.6653C26.1571 30.6653 26.1571 30.6601 26.1571 30.655C25.6232 29.5204 25.1662 28.2728 24.812 26.9123C23.8365 27.1433 22.8559 27.4308 21.8701 27.8005C20.6585 28.2831 19.5957 28.8273 18.6973 29.3509C19.6111 32.5187 20.9614 35.1936 22.5376 37.432C23.1075 38.2791 23.7235 39.0955 24.3961 39.881C25.5975 39.3573 26.6705 38.7361 27.5279 38.0943C28.411 37.432 29.2016 36.7389 29.9204 36.0304L29.9153 36.0355Z" fill="url(#paint21_linear_159_2029)"/>
<path style="mix-blend-mode:multiply" opacity="0.3" d="M22.2197 7.89044C18.7029 12.429 17.5323 18.0713 17.5836 22.4045C18.0714 22.1735 18.5848 21.9476 19.1187 21.7217C20.7873 21.0234 22.5021 20.5203 24.2323 20.1969C24.5711 17.1575 25.716 13.7382 27.9288 11.243C30.0698 8.82484 33.2529 7.44377 36.7235 7.79802C37.3807 7.86476 38.0841 8.02906 38.7156 8.23955C38.7464 8.24982 38.7772 8.26009 38.8028 8.26522C35.6043 6.96116 32.0721 6.34507 28.4012 6.59664C26.2449 6.74553 24.1809 7.18193 22.23 7.8699C22.2249 7.87503 22.2197 7.8853 22.2146 7.89044H22.2197Z" fill="url(#paint22_linear_159_2029)"/>
<path style="mix-blend-mode:multiply" opacity="0.3" d="M53.0343 34.3156C50.8575 29.0018 46.5551 25.1615 42.7764 23.0411C42.7302 23.5802 42.6737 24.1347 42.5967 24.7149C42.3657 26.5067 41.9447 28.242 41.3594 29.9054C43.8237 31.7229 46.2162 34.4183 47.2739 37.586C48.2955 40.646 47.9053 44.0961 45.862 46.925C45.4769 47.4589 44.984 47.9877 44.486 48.4292C44.4809 48.4344 44.4706 48.4446 44.4655 48.4498C48.8706 44.9894 51.9869 39.9991 53.0548 34.3516C53.0548 34.3413 53.0446 34.331 53.0446 34.3208L53.0343 34.3156Z" fill="url(#paint23_linear_159_2029)"/>
<path style="mix-blend-mode:multiply" opacity="0.3" d="M24.2163 23.8113C24.3498 24.91 24.55 25.9368 24.8067 26.9123C26.9373 26.4091 29.0269 26.2243 31.0241 26.3218C31.1319 26.327 31.2346 26.3321 31.3424 26.3372H31.3527C32.6054 26.4399 33.9094 26.671 35.2597 27.0406C35.5472 26.0805 35.7885 25.0845 35.9631 24.0474C36.153 22.7536 36.2095 21.5574 36.2044 20.5152C33.0058 19.7245 30.0178 19.5654 27.2916 19.8118C26.2699 19.8785 25.2534 20.0069 24.2368 20.1969C24.0931 21.5009 24.0879 22.7382 24.2214 23.8061L24.2163 23.8113Z" fill="url(#paint24_linear_159_2029)"/>
<path d="M150.427 22.2813L146.566 33.027H146.597L150.448 22.3429L150.427 22.2813Z" fill="white"/>
<path d="M81.8921 22.2813L78.0312 33.027H78.0467L81.9075 22.3172L81.8921 22.2813Z" fill="white"/>
<path d="M82.8567 24.9664L85.7523 33.027H79.9456L78.4824 37.0932H87.2309L89.7107 43.9883H95.2606L85.1465 18.6156L82.8567 24.9664Z" fill="white"/>
<path d="M78.0315 33.027L81.8924 22.2813L81.9078 22.3172L83.5353 17.7992H79.274L68.8672 43.9883H74.0937L78.047 33.027H78.0315Z" fill="white"/>
<path d="M112.077 30.4959C110.814 29.7514 109.135 29.0532 107.045 28.4114C105.849 28.0212 104.914 27.6618 104.237 27.3281C103.559 26.9944 103.087 26.6145 102.825 26.1935C102.563 25.7674 102.43 25.2693 102.43 24.6943C102.43 23.6829 102.82 22.9025 103.6 22.3532C104.381 21.8038 105.474 21.5266 106.876 21.5266C108.026 21.5266 109.222 21.7012 110.475 22.0451C111.727 22.3891 112.836 22.8615 113.802 23.457L114.526 19.2214C113.54 18.6258 112.338 18.1484 110.927 17.789C109.515 17.4347 108.108 17.255 106.706 17.255C104.802 17.255 103.143 17.5631 101.747 18.1843C100.345 18.8055 99.2618 19.6886 98.4917 20.8386C97.7216 21.9887 97.3366 23.3441 97.3366 24.9048C97.3366 26.2397 97.5933 27.3897 98.1118 28.3652C98.6304 29.3407 99.4723 30.1878 100.643 30.8963C101.813 31.61 103.354 32.2517 105.258 32.8267C106.634 33.2426 107.702 33.6328 108.462 33.9973C109.222 34.3618 109.751 34.7726 110.049 35.2192C110.346 35.6659 110.495 36.1998 110.495 36.8211C110.495 37.8992 110.054 38.7463 109.171 39.3522C108.288 39.958 107.061 40.266 105.5 40.266C104.144 40.266 102.727 40.0555 101.244 39.6294C99.7599 39.2033 98.4712 38.6591 97.3674 37.9916L96.8848 42.3659C97.5265 42.8023 98.3326 43.1822 99.2978 43.5005C100.263 43.824 101.3 44.0755 102.414 44.2604C103.528 44.4452 104.637 44.5376 105.741 44.5376C108.842 44.5376 111.276 43.8291 113.047 42.4172C114.813 41.0054 115.701 39.0493 115.701 36.5438C115.701 35.2141 115.414 34.0589 114.839 33.0834C114.264 32.108 113.345 31.2454 112.082 30.501L112.077 30.4959Z" fill="white"/>
<path d="M139.57 17.7992H117.416V22.0708H139.57V17.7992Z" fill="white"/>
<path d="M131.128 23.8575H125.855V43.9831H131.128V23.8575Z" fill="white"/>
<path d="M146.567 33.027L150.428 22.2813L150.448 22.3429L152.086 17.7992H147.804L137.402 43.9883H142.639L145.119 37.0932H145.129L146.598 33.027H146.567Z" fill="white"/>
<path d="M151.397 24.987L154.283 33.027H148.496L147.033 37.0932H155.766L158.246 43.9883H163.796L153.687 18.6361L151.397 24.987Z" fill="white"/>
<path d="M180.846 33.3761C182.109 32.6624 183.141 31.7075 183.947 30.501C184.753 29.2945 185.154 27.8877 185.154 26.2808C185.154 24.5352 184.764 23.0309 183.983 21.7679C183.203 20.5049 182.089 19.5294 180.641 18.8415C179.193 18.1535 177.473 17.8095 175.471 17.8095H173.638V21.773H174.778C178.269 21.773 180.014 23.2671 180.014 26.25C180.014 29.2329 178.212 30.7269 174.603 30.7269H173.633V34.6904H176.323L181.837 43.9934H187.731L180.841 33.3812L180.846 33.3761Z" fill="white"/>
<path d="M171.857 17.7992H166.861V43.9831H171.857V17.7992Z" fill="white"/>
<defs>
<linearGradient id="paint0_linear_159_2029" x1="9.52722" y1="50.4726" x2="47.7762" y2="12.2185" gradientUnits="userSpaceOnUse">
<stop stop-color="#E6007A"/>
<stop offset="0.21" stop-color="#703AC2"/>
<stop offset="0.46" stop-color="#0070EB"/>
<stop offset="0.77" stop-color="#0297FB"/>
<stop offset="1" stop-color="#0AE2FF"/>
</linearGradient>
<radialGradient id="paint1_radial_159_2029" cx="0" cy="0" r="1" gradientUnits="userSpaceOnUse" gradientTransform="translate(38.5508 23.9242) scale(11.408)">
<stop stop-color="white"/>
<stop offset="1" stop-color="white" stop-opacity="0"/>
</radialGradient>
<radialGradient id="paint2_radial_159_2029" cx="0" cy="0" r="1" gradientUnits="userSpaceOnUse" gradientTransform="translate(21.6892 45.0869) scale(6.63838 6.63839)">
<stop stop-color="white"/>
<stop offset="1" stop-color="white" stop-opacity="0"/>
</radialGradient>
<linearGradient id="paint3_linear_159_2029" x1="11.7294" y1="43.9626" x2="18.1265" y2="43.8753" gradientUnits="userSpaceOnUse">
<stop stop-color="white" stop-opacity="0"/>
<stop offset="1" stop-color="white"/>
</linearGradient>
<radialGradient id="paint4_radial_159_2029" cx="0" cy="0" r="1" gradientUnits="userSpaceOnUse" gradientTransform="translate(20.4652 25.6283) rotate(-120) scale(11.408)">
<stop stop-color="white"/>
<stop offset="1" stop-color="white" stop-opacity="0"/>
</radialGradient>
<radialGradient id="paint5_radial_159_2029" cx="0" cy="0" r="1" gradientUnits="userSpaceOnUse" gradientTransform="translate(47.2234 29.6484) rotate(-120) scale(6.63838 6.63838)">
<stop stop-color="white"/>
<stop offset="1" stop-color="white" stop-opacity="0"/>
</radialGradient>
<linearGradient id="paint6_linear_159_2029" x1="51.2266" y1="38.8319" x2="47.9524" y2="33.3355" gradientUnits="userSpaceOnUse">
<stop stop-color="white" stop-opacity="0"/>
<stop offset="1" stop-color="white"/>
</linearGradient>
<radialGradient id="paint7_radial_159_2029" cx="0" cy="0" r="1" gradientUnits="userSpaceOnUse" gradientTransform="translate(30.44 39.9107) rotate(120) scale(11.408)">
<stop stop-color="white"/>
<stop offset="1" stop-color="white" stop-opacity="0"/>
</radialGradient>
<radialGradient id="paint8_radial_159_2029" cx="0" cy="0" r="1" gradientUnits="userSpaceOnUse" gradientTransform="translate(21.083 15.2594) rotate(120) scale(6.63838)">
<stop stop-color="white"/>
<stop offset="1" stop-color="white" stop-opacity="0"/>
</radialGradient>
<linearGradient id="paint9_linear_159_2029" x1="27.0315" y1="7.19329" x2="23.913" y2="12.7795" gradientUnits="userSpaceOnUse">
<stop stop-color="white" stop-opacity="0"/>
<stop offset="1" stop-color="white"/>
</linearGradient>
<linearGradient id="paint10_linear_159_2029" x1="28.4256" y1="4.35305" x2="18.6503" y2="7.19733" gradientUnits="userSpaceOnUse">
<stop stop-color="#231F20"/>
<stop offset="1" stop-color="white"/>
</linearGradient>
<linearGradient id="paint11_linear_159_2029" x1="9.95838" y1="41.6266" x2="18.1319" y2="50.1594" gradientUnits="userSpaceOnUse">
<stop stop-color="#231F20"/>
<stop offset="1" stop-color="white"/>
</linearGradient>
<linearGradient id="paint12_linear_159_2029" x1="53.8246" y1="40.343" x2="56.6689" y2="31.6972" gradientUnits="userSpaceOnUse">
<stop stop-color="#231F20"/>
<stop offset="1" stop-color="white"/>
</linearGradient>
<linearGradient id="paint13_linear_159_2029" x1="32.8773" y1="9.30231" x2="45.9795" y2="12.3006" gradientUnits="userSpaceOnUse">
<stop stop-color="#231F20"/>
<stop offset="1" stop-color="white"/>
</linearGradient>
<linearGradient id="paint14_linear_159_2029" x1="46.4857" y1="42.8399" x2="37.331" y2="52.6895" gradientUnits="userSpaceOnUse">
<stop stop-color="#231F20"/>
<stop offset="1" stop-color="white"/>
</linearGradient>
<linearGradient id="paint15_linear_159_2029" x1="10.6326" y1="37.861" x2="6.68258" y2="25.0124" gradientUnits="userSpaceOnUse">
<stop stop-color="#231F20"/>
<stop offset="1" stop-color="white"/>
</linearGradient>
<linearGradient id="paint16_linear_159_2029" x1="35.742" y1="14.1335" x2="31.5988" y2="18.2818" gradientUnits="userSpaceOnUse">
<stop stop-color="#231F20"/>
<stop offset="1" stop-color="white"/>
</linearGradient>
<linearGradient id="paint17_linear_159_2029" x1="13.3889" y1="32.9513" x2="19.0512" y2="34.4723" gradientUnits="userSpaceOnUse">
<stop stop-color="#231F20"/>
<stop offset="1" stop-color="white"/>
</linearGradient>
<linearGradient id="paint18_linear_159_2029" x1="40.8607" y1="42.903" x2="39.3442" y2="37.2432" gradientUnits="userSpaceOnUse">
<stop stop-color="#231F20"/>
<stop offset="1" stop-color="white"/>
</linearGradient>
<linearGradient id="paint19_linear_159_2029" x1="32.2418" y1="37.8684" x2="34.7318" y2="34.4337" gradientUnits="userSpaceOnUse">
<stop stop-color="#231F20"/>
<stop offset="1" stop-color="white"/>
</linearGradient>
<linearGradient id="paint20_linear_159_2029" x1="23.6776" y1="36.3795" x2="18.7026" y2="38.7515" gradientUnits="userSpaceOnUse">
<stop stop-color="#231F20"/>
<stop offset="1" stop-color="white"/>
</linearGradient>
<linearGradient id="paint21_linear_159_2029" x1="21.8701" y1="28.0982" x2="23.4104" y2="31.2968" gradientUnits="userSpaceOnUse">
<stop stop-color="#231F20"/>
<stop offset="1" stop-color="white"/>
</linearGradient>
<linearGradient id="paint22_linear_159_2029" x1="29.0327" y1="18.2202" x2="27.9699" y2="14.5494" gradientUnits="userSpaceOnUse">
<stop stop-color="#231F20"/>
<stop offset="1" stop-color="white"/>
</linearGradient>
<linearGradient id="paint23_linear_159_2029" x1="40.5225" y1="35.0344" x2="43.603" y2="35.7429" gradientUnits="userSpaceOnUse">
<stop stop-color="#231F20"/>
<stop offset="1" stop-color="white"/>
</linearGradient>
<linearGradient id="paint24_linear_159_2029" x1="35.691" y1="24.6276" x2="31.7839" y2="23.9191" gradientUnits="userSpaceOnUse">
<stop stop-color="#231F20"/>
<stop offset="1" stop-color="white"/>
</linearGradient>
</defs>
</svg>
