<svg width="460" height="370" viewBox="0 0 460 370" fill="none" xmlns="http://www.w3.org/2000/svg">
<g clip-path="url(#clip0_344_3201)">
<path d="M394.989 109C394.989 112.038 394.726 115.019 394.223 117.908C393.949 119.462 393.618 120.992 393.218 122.5C391.003 130.769 386.8 138.215 381.158 144.314C379.113 146.53 376.875 148.562 374.465 150.39C372.249 152.08 369.885 153.599 367.407 154.924C364.049 156.717 360.474 158.145 356.728 159.173C352.354 160.372 347.751 161 343 161C340.819 161 338.671 160.863 336.57 160.6C318.959 158.43 304.066 147.443 296.459 132.196C293.49 126.257 291.628 119.679 291.137 112.723C291.057 111.49 291 110.245 291 109C291 101.154 292.736 93.7186 295.843 87.0488C298.618 81.087 302.501 75.7419 307.206 71.2763C311.558 67.1419 316.629 63.7498 322.214 61.3172C328.575 58.5418 335.611 57 342.989 57C365.408 57 384.515 71.1849 391.814 91.0804C393.629 96.0371 394.714 101.336 394.943 106.876C394.966 107.584 394.989 108.292 394.989 109Z" fill="url(#paint0_radial_344_3201)" stroke="#29256A" stroke-width="0.25"/>
<path d="M296.448 132.197C296.093 131.489 295.751 130.758 295.431 130.027C293.067 124.705 291.582 118.903 291.137 112.816C291.137 112.781 291.137 112.759 291.137 112.724C292.187 112.587 293.627 113.067 294.677 116.036C296.036 119.885 302.364 129.262 296.459 132.197H296.448Z" fill="#3ABFF0" stroke="#29256A" stroke-width="0.25"/>
<path d="M337.301 123.357C337.232 123.78 337.084 124.179 336.878 124.545C335.222 127.514 329.454 128.976 323.024 127.868C317.428 126.898 312.962 124.248 311.523 121.37C311.101 120.525 310.941 119.668 311.089 118.811C311.74 115.065 318.033 114.163 325.274 115.431C332.515 116.687 337.963 119.622 337.312 123.357H337.301Z" fill="#3ABFF0" stroke="#29256A" stroke-width="0.25"/>
<path d="M321.892 98.5967C321.892 98.5967 321.892 98.5967 321.892 98.6081C320.452 100.778 315.964 98.7909 310.745 95.376C306.485 92.5892 303.447 89.8139 303.241 87.701C303.195 87.2214 303.298 86.7645 303.561 86.3534C305 84.1605 310.71 84.012 315.941 87.4384C321.172 90.8647 323.342 96.4039 321.903 98.5967H321.892Z" fill="#3ABFF0" stroke="#29256A" stroke-width="0.25"/>
<path d="M379.501 130.621C375.287 134.138 370.239 135.041 368.24 132.631C368.137 132.505 368.046 132.38 367.966 132.243C366.435 129.741 368.263 125.253 372.26 121.929C376.326 118.537 381.157 117.578 383.293 119.668C383.373 119.748 383.453 119.828 383.521 119.908C385.52 122.306 383.727 127.103 379.501 130.621V130.621Z" fill="#3ABFF0" stroke="#29256A" stroke-width="0.25"/>
<path d="M349.098 101.782C344.838 105.152 340.509 107.013 338.031 103.884C337.791 103.587 337.597 103.267 337.426 102.925C335.849 99.7495 337.403 95.1468 341.263 92.0974C345.523 88.7282 351.336 87.1407 355.311 92.1545C355.334 92.1888 355.368 92.223 355.379 92.2573C357.687 95.3638 353.312 98.4475 349.098 101.782V101.782Z" fill="#3ABFF0" stroke="#29256A" stroke-width="0.25"/>
<path d="M332.069 148.838C331.452 149.432 330.23 149.763 328.311 149.672C321.276 149.363 313.635 140.797 315.771 138.045C315.805 137.999 315.84 137.965 315.874 137.931C318.09 135.43 323.64 139.929 326.473 141.414C331.132 143.858 333.702 147.273 332.069 148.838V148.838Z" fill="#3ABFF0" stroke="#29256A" stroke-width="0.25"/>
<path d="M359.675 142.521C359.675 144.143 357.482 145.856 354.01 146.004C347.66 146.278 344.039 145.056 343.183 142.795C343.091 142.555 343.034 142.304 343 142.03C342.692 139.277 348.505 139.746 351.566 139.586C357.311 139.277 359.663 140.853 359.675 142.532V142.521Z" fill="#3ABFF0" stroke="#29256A" stroke-width="0.25"/>
<path d="M378.906 106.031C378.209 107.071 376.862 107.779 375.114 107.779C369.609 107.779 362.266 103.804 363.191 100.127C363.294 99.7042 363.442 99.3387 363.636 99.0418C365.052 96.7576 368.627 97.8654 372.065 98.5963C378.952 100.058 380.425 103.804 378.918 106.031H378.906Z" fill="#3ABFF0" stroke="#29256A" stroke-width="0.25"/>
<path d="M361.044 79.0204C360.976 78.8605 360.941 78.6777 360.919 78.4836C360.782 76.9189 362.323 74.6347 365.327 73.8124C367.28 73.2756 369.918 73.3441 371.552 74.3492C372.271 74.7946 372.785 75.4113 372.979 76.2565C373.447 78.3465 362.015 81.4302 361.056 79.009L361.044 79.0204Z" fill="#3ABFF0" stroke="#29256A" stroke-width="0.25"/>
<path d="M329.647 74.1552C329.259 74.3836 328.802 74.3151 328.311 73.8239C324.942 70.4547 324.645 64.9498 326.472 64.0361C327.192 63.6706 327.82 63.5564 328.357 63.6135C332.011 64.0247 331.612 72.9674 329.647 74.1437V74.1552Z" fill="#3ABFF0" stroke="#29256A" stroke-width="0.25"/>
<path d="M387.347 93.3992C387.108 93.5134 386.822 93.5362 386.514 93.4563C385.235 93.1251 383.567 91.1606 383.065 88.2026C382.779 86.4666 383.647 84.7991 384.778 84.2738C386.034 83.6799 387.622 84.5022 388.261 88.2026C388.627 90.3155 388.57 92.7939 387.347 93.3992Z" fill="#3ABFF0" stroke="#29256A" stroke-width="0.25"/>
<path d="M381.156 144.314C377.216 148.574 372.567 152.172 367.405 154.913C366.823 154.627 366.297 154.205 366.092 153.6C365.909 153.063 365.989 152.377 366.549 151.509C368.684 148.14 370.831 142.944 375.72 142.635C377.147 142.544 378.278 142.715 379.18 143.035C380.048 143.343 380.699 143.8 381.156 144.303V144.314Z" fill="#3ABFF0" stroke="#29256A" stroke-width="0.25"/>
<path d="M356.726 159.162C352.352 160.361 347.75 160.989 342.998 160.989C340.817 160.989 338.67 160.852 336.568 160.59C336.568 159.973 336.683 159.31 337.059 158.751C337.425 158.214 338.03 157.78 339.024 157.62C342.69 157.003 344.529 154.559 349.725 154.868C352.421 155.027 354.305 156.341 355.482 157.563C356.064 158.157 356.464 158.739 356.726 159.15V159.162Z" fill="#3ABFF0" stroke="#29256A" stroke-width="0.25"/>
<path d="M350.069 64.413C349.817 65.715 347.602 66.1832 346.539 65.6921C346.311 65.5893 346.14 65.4409 346.048 65.2581C345.432 64.0361 349.463 61.7519 350.023 63.7277C350.091 63.979 350.103 64.2074 350.057 64.413H350.069Z" fill="#3ABFF0" stroke="#29256A" stroke-width="0.25"/>
<path d="M334.128 133.155C332.758 132.47 331.684 131.933 331.993 134.686C332.301 137.438 334.437 138.055 336.276 138.055C338.114 138.055 335.362 133.772 334.14 133.167L334.128 133.155Z" fill="#3AA3EF" stroke="#29256A" stroke-width="0.25"/>
<path d="M308.739 131.328C307.517 131.02 307.517 133.167 306.603 135.303C305.689 137.438 306.912 138.969 308.739 138.969C310.566 138.969 311.183 131.933 308.739 131.317V131.328Z" fill="#3AA3EF" stroke="#29256A" stroke-width="0.25"/>
<path d="M303.233 103.792C302.057 103.256 300.789 102.57 300.481 103.792C300.173 105.014 302.925 108.384 304.455 108.384C305.986 108.384 306.591 105.323 303.233 103.792Z" fill="#3AA3EF" stroke="#29256A" stroke-width="0.25"/>
<path d="M394.993 109C394.993 112.038 394.73 115.019 394.227 117.908C393.782 117.737 393.325 117.429 392.846 116.949C389.785 113.888 392.103 109.548 392.846 108.075C393.668 106.43 394.49 106.579 394.947 106.864C394.97 107.572 394.993 108.28 394.993 108.988V109Z" fill="#3AA3EF" stroke="#29256A" stroke-width="0.25"/>
<path d="M363.493 112.358C361.723 112.141 360.74 113.58 363.493 114.802C366.245 116.024 365.937 112.666 363.493 112.358Z" fill="#3AA3EF" stroke="#29256A" stroke-width="0.25"/>
<path d="M297.73 98.5954C296.907 99.0066 296.816 100.731 298.952 100.434C301.087 100.126 299.568 97.6817 297.73 98.5954Z" fill="#3AA3EF" stroke="#29256A" stroke-width="0.25"/>
<path d="M341.165 77.1925C340.251 77.5009 339.029 78.4146 341.165 78.7229C343.301 79.0313 342.078 76.8841 341.165 77.1925Z" fill="#3AA3EF" stroke="#29256A" stroke-width="0.25"/>
<path d="M346.362 77.1925C345.243 76.5415 345.14 79.6366 346.053 80.8586C346.967 82.0807 350.028 79.3282 346.362 77.1925Z" fill="#3AA3EF" stroke="#29256A" stroke-width="0.25"/>
<path d="M356.148 149.682C355.486 149.83 355.234 150.904 357.062 151.521C358.889 152.137 358.901 149.076 356.148 149.682Z" fill="#3AA3EF" stroke="#29256A" stroke-width="0.25"/>
<path d="M329.536 154.878C328.623 155.186 327.698 155.792 329.536 156.408C331.375 157.025 330.45 154.57 329.536 154.878Z" fill="#3AA3EF" stroke="#29256A" stroke-width="0.25"/>
<path d="M331.067 109.914C329.514 109.982 332.906 112.05 333.82 112.358C334.734 112.666 337.486 109.606 331.067 109.914Z" fill="#3AA3EF" stroke="#29256A" stroke-width="0.25"/>
<path d="M381.23 101.965C380.464 102.559 381.846 105.939 383.068 105.631C384.291 105.323 383.982 99.8178 381.23 101.965Z" fill="#3AA3EF" stroke="#29256A" stroke-width="0.25"/>
<path d="M356.624 123.403C356.487 123.928 356.316 124.442 356.145 124.899C355.254 127.286 349.989 128.222 348.595 127.126C348.561 127.103 348.527 127.069 348.492 127.034C347.27 125.812 348.458 122.74 349.109 121.221C350.023 119.085 354.614 117.555 356.145 118.16C357.378 118.651 357.218 121.153 356.624 123.391V123.403Z" fill="#3ABFF0" stroke="#29256A" stroke-width="0.25"/>
<path d="M303.219 87.7118C303.174 87.2321 303.277 86.7753 303.539 86.3641C304.978 84.1713 310.689 84.0228 315.92 87.4491C321.151 90.8754 323.321 96.4146 321.881 98.6075C321.881 98.6075 321.881 98.6075 321.881 98.6189C321.961 97.2826 321.402 95.4096 319.449 92.7941C314.355 85.9986 305.07 83.6573 303.231 87.7118H303.219Z" fill="#377BE2" stroke="#29256A" stroke-width="0.25"/>
<path d="M337.301 123.357C337.232 123.78 337.084 124.18 336.878 124.545C336.753 124.02 335.622 119.897 330.471 118.172C325.126 116.39 317.931 114.803 313.648 118.172C312.277 119.246 311.695 120.353 311.523 121.359C311.101 120.513 310.941 119.657 311.089 118.8C311.74 115.054 318.033 114.152 325.274 115.42C332.515 116.676 337.963 119.611 337.312 123.346L337.301 123.357Z" fill="#377BE2" stroke="#29256A" stroke-width="0.25"/>
<path d="M345.752 91.2522C340.064 93.2166 337.665 98.7901 337.426 102.925C335.849 99.7495 337.403 95.1468 341.263 92.0974C345.523 88.7282 351.336 87.1407 355.311 92.1545C355.334 92.1888 355.368 92.223 355.379 92.2573C353.643 90.9324 350.526 89.6076 345.752 91.2636V91.2522Z" fill="#377BE2" stroke="#29256A" stroke-width="0.25"/>
<path d="M356.625 123.403C356.567 121.187 356.019 118.686 353.701 119.394C351.325 120.125 348.63 124.43 348.607 127.126C348.573 127.103 348.538 127.069 348.504 127.034C347.282 125.812 348.47 122.74 349.121 121.221C350.035 119.085 354.626 117.555 356.156 118.16C357.39 118.651 357.23 121.153 356.636 123.391L356.625 123.403Z" fill="#377BE2" stroke="#29256A" stroke-width="0.25"/>
<path d="M378.908 106.031C379.605 102 373.141 100.698 369.909 99.5214C366.711 98.3565 364.518 98.7677 363.627 99.0418C365.043 96.7576 368.618 97.8654 372.056 98.5963C378.943 100.058 380.416 103.804 378.908 106.031V106.031Z" fill="#377BE2" stroke="#29256A" stroke-width="0.25"/>
<path d="M361.044 79.0206C360.975 78.8607 360.941 78.678 360.918 78.4838C362.848 79.763 367.793 78.7237 370.523 77.4902C372.476 76.5994 372.156 75.2974 371.551 74.3608C372.27 74.8063 372.784 75.423 372.979 76.2682C373.447 78.3582 362.014 81.4419 361.055 79.0206H361.044Z" fill="#377BE2" stroke="#29256A" stroke-width="0.25"/>
<path d="M329.647 74.1552C329.259 74.3836 328.802 74.3151 328.311 73.8239C324.942 70.4547 324.645 64.9498 326.472 64.0361C327.192 63.6706 327.82 63.5564 328.357 63.6135C327.614 63.7506 326.472 64.4016 326.472 67.097C326.472 70.2035 327.968 72.7504 329.636 74.1552H329.647Z" fill="#377BE2" stroke="#29256A" stroke-width="0.25"/>
<path d="M350.069 64.413C349.966 63.8876 349.555 63.3851 348.196 63.7277C347.088 64.0018 346.665 64.847 346.539 65.6921C346.311 65.5893 346.14 65.4409 346.048 65.2581C345.432 64.0361 349.463 61.7519 350.023 63.7277C350.091 63.979 350.103 64.2074 350.057 64.413H350.069Z" fill="#377BE2" stroke="#29256A" stroke-width="0.25"/>
<path d="M332.07 148.838C331.807 147.193 330.3 145.594 327.696 144.167C324.327 142.328 321.882 140.5 319.747 138.97C318.627 138.171 317.086 137.954 315.875 137.931C318.091 135.43 323.641 139.929 326.474 141.414C331.134 143.858 333.703 147.273 332.07 148.838Z" fill="#377BE2" stroke="#29256A" stroke-width="0.25"/>
<path d="M359.675 142.522C359.184 141.3 357.699 140.797 355.232 140.797H346.666C343.388 140.797 343.194 142.693 343.183 142.784C343.091 142.544 343.034 142.293 343 142.019C342.692 139.267 348.505 139.735 351.566 139.575C357.311 139.267 359.663 140.843 359.675 142.522V142.522Z" fill="#377BE2" stroke="#29256A" stroke-width="0.25"/>
<path d="M355.482 157.575C356.064 158.169 356.464 158.751 356.726 159.162C352.352 160.362 347.75 160.99 342.998 160.99C340.817 160.99 338.67 160.853 336.568 160.59C336.568 159.973 336.683 159.311 337.059 158.751C347.224 161.138 353.083 158.911 355.482 157.563V157.575Z" fill="#377BE2" stroke="#29256A" stroke-width="0.25"/>
<path d="M381.158 144.315C377.218 148.575 372.569 152.172 367.407 154.913C366.825 154.628 366.299 154.205 366.094 153.6C374.625 150.402 378.314 144.612 379.182 143.047C380.05 143.355 380.701 143.812 381.158 144.315V144.315Z" fill="#377BE2" stroke="#29256A" stroke-width="0.25"/>
<path d="M383.293 119.668C382.608 119.428 377.731 118.069 372.055 124.59C369.188 127.891 368.194 130.449 367.966 132.243C366.435 129.741 368.263 125.253 372.26 121.929C376.326 118.537 381.157 117.578 383.293 119.668Z" fill="#377BE2" stroke="#29256A" stroke-width="0.25"/>
<path d="M386.514 93.4452C385.235 93.114 383.567 91.1496 383.065 88.1915C382.779 86.4555 383.647 84.7881 384.778 84.2627C384.287 84.9137 383.83 85.9073 383.978 87.2778C384.23 89.4935 385.063 91.7092 386.502 93.4452H386.514Z" fill="#377BE2" stroke="#29256A" stroke-width="0.25"/>
<path d="M296.448 132.197C296.093 131.489 295.751 130.758 295.431 130.027C296.893 128.702 298.332 126.281 296.505 122.455C294.243 117.715 293.147 113.638 291.137 112.816C291.137 112.781 291.137 112.759 291.137 112.724C292.187 112.587 293.627 113.067 294.677 116.036C296.036 119.885 302.364 129.262 296.459 132.197H296.448Z" fill="#377BE2" stroke="#29256A" stroke-width="0.25"/>
<path style="mix-blend-mode:multiply" opacity="0.35" d="M394.989 109C394.989 112.038 394.726 115.019 394.223 117.908C392.476 128.005 387.816 137.107 381.146 144.314C377.206 148.574 372.558 152.172 367.395 154.913C364.038 156.706 360.463 158.133 356.717 159.161C352.342 160.361 347.74 160.989 342.989 160.989C340.807 160.989 338.66 160.852 336.559 160.589C318.947 158.419 304.054 147.432 296.448 132.185C293.49 126.257 291.628 119.679 291.137 112.723C291.057 111.49 291 110.245 291 109C291 101.154 292.736 93.7187 295.843 87.0488C296.345 132.082 389.335 143.4 391.825 91.069C393.641 96.0258 394.726 101.325 394.954 106.864C394.977 107.572 395 108.281 395 108.989L394.989 109Z" fill="url(#paint1_linear_344_3201)"/>
<path style="mix-blend-mode:multiply" opacity="0.45" d="M374.465 150.39C372.249 152.08 369.885 153.599 367.407 154.924C364.049 156.717 360.474 158.145 356.728 159.173C352.354 160.372 347.751 161 343 161C340.819 161 338.671 160.863 336.57 160.6C318.959 158.43 304.066 147.443 296.459 132.196C293.49 126.257 291.628 119.679 291.137 112.723C291.057 111.49 291 110.245 291 109C291 101.154 292.736 93.7187 295.843 87.0488C298.618 81.087 302.501 75.742 307.206 71.2764C292.702 140.454 346.049 150.036 374.465 150.39Z" fill="url(#paint2_linear_344_3201)"/>
<path style="mix-blend-mode:hard-light" opacity="0.2" d="M394.988 109C394.988 112.038 394.725 115.019 394.223 117.908C393.948 119.462 393.617 120.992 393.218 122.5C391.413 80.6758 363.089 56.8972 322.213 61.3172C328.574 58.5418 335.61 57 342.988 57C365.407 57 384.515 71.1849 391.813 91.0804C393.629 96.0371 394.714 101.336 394.942 106.876C394.965 107.584 394.988 108.292 394.988 109Z" fill="url(#paint3_linear_344_3201)"/>
<path d="M120.151 107.129L120.059 107.195C114.798 110.794 109.995 114.799 105.623 119.131C103.581 121.147 101.644 123.241 99.799 125.4C98.0975 127.39 96.4746 129.444 94.9433 131.539C93.7654 133.148 92.6529 134.784 91.5797 136.447C89.551 139.601 87.6925 142.847 86.0303 146.184C84.944 148.344 83.9493 150.542 83.02 152.754L82.7975 153.278C80.7165 158.369 79.0282 163.604 77.7848 168.931C76.4105 174.769 75.5467 180.724 75.1933 186.731C74.7745 193.943 75.1017 201.207 76.2011 208.418C78.4785 223.325 84.054 237.958 93.1371 251.229C124.784 297.456 187.228 310.034 234.162 280.259C235.195 279.604 236.216 278.937 237.237 278.23C238.481 277.379 239.698 276.515 240.889 275.626C242.224 274.631 243.533 273.597 244.815 272.537C247.145 270.626 249.357 268.623 251.464 266.542C253.375 264.658 255.207 262.708 256.948 260.705C257.445 260.142 257.93 259.566 258.414 258.991C260.953 255.941 263.296 252.774 265.442 249.489C266.725 247.512 267.942 245.51 269.094 243.468C275.232 232.539 279.289 220.616 281.161 208.34C281.776 204.348 282.156 200.317 282.3 196.272C282.483 191.22 282.3 186.155 281.724 181.103C281.318 177.412 280.703 173.721 279.878 170.07C277.091 157.558 271.921 145.36 264.238 134.143C263.937 133.698 263.623 133.253 263.309 132.821C262.314 131.408 261.293 130.033 260.22 128.672C260.024 128.424 259.814 128.162 259.618 127.913C259.121 127.298 258.623 126.683 258.126 126.081C257.89 125.793 257.655 125.518 257.406 125.23C257.197 124.981 256.974 124.733 256.765 124.484C256.581 124.275 256.398 124.065 256.215 123.856C255.993 123.62 255.77 123.372 255.561 123.123C255.351 122.887 255.142 122.665 254.932 122.429C254.723 122.194 254.514 121.971 254.291 121.736C254.082 121.513 253.859 121.277 253.65 121.055C253.44 120.832 253.218 120.597 252.995 120.374C252.668 120.034 252.328 119.681 251.988 119.34C251.752 119.105 251.516 118.869 251.281 118.634C251.228 118.581 251.163 118.516 251.111 118.463C250.901 118.254 250.679 118.045 250.469 117.835C249.92 117.299 249.357 116.775 248.794 116.265C248.454 115.964 248.127 115.65 247.773 115.349C247.446 115.061 247.119 114.76 246.792 114.485C245.404 113.268 243.978 112.09 242.525 110.964C241.805 110.401 241.085 109.852 240.352 109.315C239.933 109.014 239.515 108.7 239.096 108.399C238.769 108.176 238.454 107.941 238.127 107.718C237.748 107.456 237.381 107.195 237.002 106.946C236.622 106.684 236.243 106.436 235.863 106.187C235.483 105.938 235.104 105.689 234.711 105.441C233.952 104.943 233.167 104.459 232.395 104.001C232.002 103.766 231.609 103.53 231.217 103.307C230.824 103.072 230.431 102.849 230.039 102.627C229.646 102.404 229.24 102.182 228.848 101.959C228.049 101.514 227.238 101.082 226.44 100.664C225.628 100.245 224.817 99.8391 224.005 99.4465C223.678 99.2894 223.351 99.1323 223.01 98.9753C222.631 98.8051 222.251 98.6219 221.872 98.4518C221.584 98.3209 221.283 98.1769 220.982 98.046C220.524 97.8366 220.053 97.6272 219.581 97.4309C219.202 97.2607 218.809 97.1037 218.43 96.9466C217.998 96.7634 217.553 96.5802 217.121 96.41C216.597 96.2006 216.061 95.9912 215.537 95.7949C215.131 95.6509 214.739 95.4938 214.333 95.3499C213.94 95.2059 213.548 95.0619 213.142 94.918C212.749 94.7871 212.357 94.6431 211.964 94.5122C211.755 94.4337 211.558 94.3683 211.349 94.3028C211.14 94.2374 210.93 94.1589 210.708 94.0934C197.41 89.7743 183.353 88.1645 169.388 89.4079C169.388 89.4079 169.388 89.4079 169.362 89.4079C169.114 89.421 168.878 89.4471 168.629 89.4733C166.326 89.6958 164.022 89.9968 161.732 90.3764C159.258 90.7821 156.798 91.2795 154.35 91.8684C152.937 92.2087 151.523 92.5752 150.136 92.9809C143.33 94.9311 136.655 97.601 130.203 101.017C126.774 102.836 123.423 104.865 120.138 107.103L120.151 107.129Z" fill="url(#paint4_linear_344_3201)"/>
<g style="mix-blend-mode:screen">
<path d="M83.5311 215.303C89.1852 219.583 95.5722 223.718 98.216 230.289C99.6687 233.901 99.852 237.958 101.684 241.387C104.001 245.68 108.634 248.311 113.359 249.476C118.097 250.654 123.031 250.588 127.9 250.798C136.171 251.164 144.535 252.46 152.244 255.588C156.236 257.211 162.178 259.58 164.494 263.428C165.279 264.723 165.58 266.242 166.326 267.55C166.876 268.532 167.661 269.37 167.517 270.6C167.321 272.249 165.24 272.995 163.604 272.694C160.803 272.171 158.238 271.241 155.385 270.77C153.605 270.482 151.328 270.796 151.262 272.93C151.184 275.717 155.084 276.477 156.929 277.301C162.701 279.906 167.138 282.131 173.669 282.51C179.964 282.877 186.377 282.392 192.503 283.884C195.591 284.63 198.576 285.874 201.73 286.201C207.816 286.829 209.674 282.406 214.582 280.22C219.477 278.034 225.118 279.186 230.445 279.893C231.649 280.05 232.906 280.167 234.149 280.22C187.215 309.995 124.759 297.431 93.1247 251.19C84.0677 237.945 78.4791 223.313 76.2148 208.405C78.2828 211.01 80.9135 213.313 83.5442 215.303H83.5311ZM142.886 273.937C142.585 272.786 141.812 271.817 141.014 270.94C136.643 266.137 130.517 262.943 124.078 262.106C122.481 261.896 120.413 262.119 119.916 263.65C119.654 264.449 119.968 265.312 120.322 266.085C122.743 271.372 127.416 275.299 132.86 277.196C135.648 278.178 144.43 279.696 142.886 273.924V273.937ZM180.802 276.123C181.221 276.058 181.666 275.94 181.914 275.613C182.346 275.037 181.941 274.225 181.509 273.65C179.572 271.124 176.836 269.213 173.8 268.257C170.646 267.276 171.051 271.739 172.491 273.244C174.585 275.443 177.805 276.581 180.802 276.123V276.123ZM168.761 89.5391C170.083 91.2144 171.758 93.7666 173.682 94.8267C176.038 96.1224 179.467 96.1224 182.045 96.9732C187.817 98.884 193.196 102.038 197.633 106.2C199.125 107.601 200.552 109.132 202.423 109.943C204.295 110.755 206.769 110.598 208.012 108.975C209.151 107.483 208.902 105.284 210.028 103.792C211.703 101.58 215.171 102.221 217.737 103.295C227.343 107.273 236.034 114.393 241.832 123.045C245.915 129.131 248.245 136.251 252.158 142.454C258.428 151.917 267.354 158.684 275.73 166.157C277.17 167.44 278.544 168.735 279.879 170.083C277.091 157.571 271.921 145.373 264.239 134.156C263.938 133.711 263.623 133.266 263.309 132.835C262.315 131.421 261.294 130.047 260.221 128.686C260.024 128.437 259.815 128.175 259.619 127.927C259.121 127.311 258.624 126.696 258.126 126.094C257.891 125.806 257.655 125.531 257.407 125.243C257.197 124.995 256.975 124.746 256.765 124.497C256.582 124.288 256.399 124.079 256.216 123.869C255.993 123.634 255.771 123.385 255.561 123.136C255.352 122.901 255.142 122.678 254.933 122.443C254.724 122.207 254.514 121.985 254.292 121.749C254.082 121.526 253.86 121.291 253.65 121.068C253.441 120.846 253.218 120.61 252.996 120.388C252.669 120.047 252.328 119.694 251.988 119.354C251.753 119.118 251.517 118.883 251.281 118.647C251.229 118.595 251.164 118.529 251.111 118.477C250.902 118.268 250.679 118.058 250.47 117.849C249.92 117.312 249.357 116.789 248.795 116.278C248.454 115.977 248.127 115.663 247.774 115.362C247.447 115.074 247.119 114.773 246.792 114.498C245.405 113.281 243.978 112.103 242.525 110.977C241.806 110.415 241.073 109.865 240.353 109.328C239.934 109.027 239.515 108.713 239.096 108.412C238.769 108.19 238.455 107.954 238.128 107.732C237.748 107.47 237.382 107.208 237.002 106.959C236.623 106.698 236.243 106.449 235.864 106.2C235.484 105.952 235.105 105.703 234.712 105.454C233.94 104.957 233.167 104.486 232.395 104.015C232.003 103.779 231.61 103.543 231.217 103.321C230.825 103.085 230.432 102.863 230.039 102.64C229.647 102.418 229.241 102.195 228.848 101.973C228.05 101.528 227.239 101.096 226.44 100.677C225.629 100.258 224.817 99.8525 224.006 99.4599C223.679 99.3028 223.351 99.1458 223.011 98.9887C222.632 98.8186 222.252 98.6353 221.872 98.4652C221.584 98.3343 221.283 98.1904 220.982 98.0595C220.524 97.8501 220.053 97.6406 219.582 97.4443C219.202 97.2742 218.81 97.1171 218.43 96.9601C217.998 96.7768 217.553 96.5936 217.121 96.4235C216.598 96.214 216.061 96.0046 215.538 95.8083C215.132 95.6643 214.739 95.5073 214.334 95.3633C213.941 95.2194 213.548 95.0754 213.143 94.9314C212.75 94.8005 212.357 94.6566 211.965 94.5257C211.755 94.4472 211.559 94.3817 211.35 94.3163C211.14 94.2508 210.931 94.1723 210.708 94.1069C197.411 89.7747 183.354 88.1649 169.389 89.4082C169.389 89.4082 169.389 89.4082 169.363 89.4082C169.167 89.4475 168.957 89.4868 168.761 89.526V89.5391ZM222.789 114.564C220.825 113.752 212.567 111.344 212.776 114.236C212.829 114.904 213.156 115.519 213.509 116.082C216.781 121.54 221.702 125.989 227.461 128.686C228.534 129.183 229.869 129.615 230.838 128.934C231.859 128.228 231.872 126.722 231.623 125.505C230.563 120.833 227.304 116.422 222.789 114.564V114.564ZM158.827 236.82C157.413 234.686 155.49 232.867 153.173 231.807C150.856 230.747 148.121 230.485 145.713 231.336C144.43 231.794 143.161 232.671 142.781 233.979C142.31 235.602 143.318 237.252 144.312 238.613C145.988 240.916 147.898 243.246 150.542 244.293C155.293 246.165 162.322 242.081 158.827 236.82V236.82ZM114.341 242.762C117.953 244.044 121.683 243.691 125.23 245.196C126.918 245.916 129.078 246.348 130.4 245.078C131.407 244.11 131.46 242.447 130.884 241.178C130.308 239.908 129.209 238.953 128.109 238.089C123.044 234.123 117.128 231.414 111.278 228.744C109.472 227.92 107.312 227.108 105.598 228.116C104.38 228.836 103.778 230.341 103.844 231.755C103.909 233.168 104.538 234.49 105.31 235.681C107.417 238.966 110.676 241.466 114.354 242.775L114.341 242.762ZM192.856 272.917C192.751 273.82 193.275 274.67 193.838 275.403C195.971 278.217 198.942 280.586 202.437 281.162C207.816 282.039 210.944 277.576 215.237 275.364C218.954 273.453 223.312 272.746 227.422 273.532C231.911 274.382 236.322 275.076 240.889 275.626C242.224 274.631 243.533 273.597 244.816 272.537C242.879 272.419 240.955 272.21 239.07 271.765C234.201 270.613 230.903 266.202 225.694 266.621C221.139 267.001 217.527 270.888 213.025 271.621C209.91 272.131 206.782 271.084 203.719 270.325C200.657 269.566 197.214 269.173 194.505 270.796C193.707 271.281 192.961 272 192.856 272.93V272.917ZM83.0207 152.742L82.7982 153.265C80.7172 158.356 79.0288 163.592 77.7854 168.918C77.8378 169.01 77.8901 169.102 77.9294 169.18C80.1805 173.146 84.5389 176.078 85.1802 180.593C85.7953 184.899 82.772 188.76 81.3716 192.87C77.1834 205.186 88.2166 213.693 97.4307 219.282C98.2683 219.792 99.1452 220.276 100.127 220.394C101.095 220.512 102.182 220.185 102.705 219.36C103.386 218.274 102.888 216.873 102.326 215.722C99.106 209.086 92.1431 202.594 93.3079 194.519C93.91 190.344 97.0511 186.692 96.8286 182.491C96.6454 178.721 93.8314 175.711 91.685 172.596C87.6669 166.746 85.4158 159.94 83.1385 153.134C83.0861 153.003 83.0468 152.859 83.0076 152.728L83.0207 152.742ZM91.5672 136.434C89.5385 139.588 87.68 142.834 86.0178 146.171C87.5753 148.514 89.9966 150.294 92.732 150.988C93.5435 151.197 94.4466 151.302 95.1795 150.883C95.9125 150.464 96.3051 149.6 96.3574 148.75C96.4098 147.912 96.1611 147.074 95.8994 146.263C95.1272 143.881 93.8053 139.274 91.5672 136.434ZM154.364 91.8819C157.793 96.201 163.172 97.8893 167.465 101.24C169.991 103.216 170.79 105.821 172.936 108.006C175.082 110.192 178.027 111.527 180.894 112.456C185.108 113.831 189.597 114.603 193.327 117.011C196.194 118.87 198.392 121.579 200.486 124.275C204.23 129.104 207.816 134.078 211.206 139.169C213.339 142.376 215.433 145.648 218.221 148.318C220.996 150.975 224.608 152.99 228.456 153.056C232.107 153.121 235.798 151.433 239.319 152.414C241.583 153.043 243.402 154.679 245.117 156.275C253.48 164.037 262.603 171.667 269.958 180.318C274.303 185.436 278.701 190.619 282.313 196.246C282.497 191.194 282.313 186.129 281.737 181.077C277.981 175.685 273.269 170.908 268.623 166.222C263.885 161.445 259.147 156.655 254.409 151.878C245.418 142.795 235.785 133.345 223.391 130.191C221.519 129.72 219.595 129.392 217.815 128.646C213.993 127.05 211.245 123.712 208.339 120.741C200.238 112.43 190.029 106.357 179.179 102.235C175.933 100.991 172.583 99.918 169.651 98.0333C166.523 96.0308 164.075 93.2692 161.746 90.3767C159.272 90.7825 156.811 91.2798 154.364 91.8688V91.8819ZM255.247 217.698C256.085 217.488 256.922 217.057 257.407 216.337C258.414 214.805 257.433 212.777 256.399 211.259C253.559 207.057 250.077 203.065 245.68 200.435C243.703 199.257 242.172 198.943 239.999 198.642C237.984 198.354 235.628 196.953 233.652 197.071C233.102 197.11 232.578 197.372 232.12 197.673C230.236 198.877 228.704 201.076 229.215 203.262C229.398 204.008 229.791 204.688 230.262 205.303C231.558 206.992 233.403 208.248 235.445 208.837C236.989 209.282 238.625 209.361 240.13 209.884C245.169 211.638 249.2 219.268 255.247 217.711V217.698ZM180.828 118.241C178.773 117.692 176.588 117.338 174.52 117.849C172.452 118.359 170.541 119.943 170.187 122.05C169.795 124.38 171.339 126.618 173.158 128.11C174.794 129.458 176.705 130.453 178.59 131.421C185.029 134.759 191.469 138.109 197.921 141.447C198.89 141.957 200.251 142.389 200.945 141.538C201.376 141.002 201.285 140.229 201.128 139.562C198.994 130.269 189.951 120.676 180.841 118.228L180.828 118.241ZM222.095 164.272C223.665 164.626 225.341 164.495 226.833 163.88C227.998 163.395 228.914 163.264 230.131 162.99C231.401 162.702 232.421 162.139 232.906 160.869C232.984 160.66 233.037 160.424 232.958 160.228C232.866 160.005 232.657 159.875 232.461 159.744C230.354 158.461 228.194 157.178 225.773 156.668C223.364 156.171 220.616 156.589 218.888 158.343C218.064 159.181 217.514 160.424 217.894 161.537C218.443 163.12 220.616 163.932 222.108 164.272H222.095ZM130.203 101.03C134.836 105.755 141.93 107.679 147.205 111.867C152.61 116.187 156.393 123.084 163.081 124.838C163.486 124.942 163.944 125.021 164.285 124.798C164.573 124.615 164.704 124.262 164.834 123.935C166.039 120.61 167.256 117.116 166.745 113.634C166.012 108.635 162.073 105.127 158.539 101.907C155.49 99.1196 153.029 95.8868 150.15 92.9944C143.344 94.9445 136.669 97.6145 130.216 101.03H130.203ZM124.13 115.82C126.63 120.126 130.544 123.385 133.685 127.246C141.237 136.512 144.43 149.352 153.997 156.55C159.638 160.791 166.863 162.518 172.517 166.733C180.553 172.714 184.375 182.831 191.469 189.886C198.261 196.639 207.96 200.513 213.064 208.628C215.603 212.672 216.755 217.436 218.954 221.677C222.121 227.776 227.317 232.435 233.128 235.969C236.125 237.788 239.293 239.333 242.512 240.72C248.441 243.259 253.677 246.95 260.142 248.246C261.922 248.612 263.794 248.808 265.456 249.515C263.309 252.787 260.967 255.968 258.428 259.017C252.944 256.805 247.944 253.337 243.245 249.816C238.35 246.151 233.141 244.201 226.898 244.869C221.768 245.418 217.841 247.539 212.894 244.725C208.902 242.461 203.942 241.872 200.329 238.94C196.913 236.178 195.225 231.859 193.38 227.854C186.05 211.939 173.957 198.249 159.063 188.996C155.215 186.614 150.869 184.454 146.393 185.004C144.666 185.213 143.003 185.828 141.263 186.038C134.326 186.862 128.306 181.077 124.994 174.926C123.201 171.615 121.853 168.055 121.068 164.364C120.23 160.49 120.008 156.524 119.471 152.598C117.796 140.517 112.953 128.908 105.637 119.158C110.008 114.825 114.825 110.82 120.073 107.221C121.591 110.009 122.56 113.098 124.157 115.846L124.13 115.82ZM146.642 171.209C148.54 170.581 150.581 171.013 152.44 170.463C157.217 169.049 153.278 164.024 151.157 161.746C145.255 155.398 139.365 149.051 133.462 142.703C132.088 141.224 130.059 139.601 128.266 140.557C126.918 141.263 126.617 143.03 126.565 144.548C126.211 154.194 129.994 163.919 136.76 170.803C137.925 171.994 139.313 173.146 140.975 173.251C143.082 173.368 144.744 171.85 146.642 171.222V171.209ZM212.004 235.419C213.954 236.231 221.912 237.278 219.189 232.919C216.729 228.993 212.41 226.415 210.303 222.292C209.478 220.682 209.033 218.902 208.326 217.227C207.619 215.565 206.559 213.929 204.936 213.117C204.308 212.803 203.601 212.62 202.921 212.751C202.476 212.829 202.057 213.039 201.677 213.3C199.78 214.609 199.021 217.135 199.282 219.426C199.544 221.716 200.644 223.823 201.835 225.799C204.334 229.961 207.436 233.521 212.004 235.432V235.419ZM134.104 113.268C136.708 113.32 139.142 114.55 141.315 115.964C146.249 119.158 150.372 123.398 154.141 127.861C157.937 132.35 159.416 135.478 165.659 135.649C183.433 136.12 198.641 148.2 211.179 160.817C214.975 164.626 219.346 168.84 224.726 168.657C227.553 168.565 230.196 167.217 232.984 166.746C237.905 165.908 242.892 167.819 247.237 170.28C253.127 173.617 258.362 178.002 262.982 182.949C269.88 190.344 276.293 199.244 281.188 208.34C279.316 220.603 275.246 232.527 269.121 243.468C268.937 243.468 268.754 243.468 268.571 243.468C260.587 243.311 252.695 240.798 245.994 236.505C239.554 232.383 230.655 225.525 229.019 217.659C228.691 216.062 229.045 213.889 230.655 213.601C231.27 213.484 231.885 213.706 232.474 213.928C237.644 215.879 243.703 217.737 248.245 220.878C251.7 223.26 255.47 226.702 260.05 225.053C263.584 223.784 265.364 219.569 264.958 215.839C264.54 212.109 262.406 208.798 260.103 205.827C256.203 200.788 251.504 196.155 245.654 193.603C243.337 192.595 240.876 191.914 238.638 190.71C232.827 187.582 228.744 180.973 222.213 180.096C220.996 179.926 219.412 180.253 219.15 181.457C219.058 181.836 219.15 182.242 219.242 182.622C220.119 186.299 221.886 189.768 224.32 192.647C224.791 193.21 225.302 193.773 225.498 194.48C226.335 197.595 222.448 199.466 220.04 198.72C216.074 197.49 213.025 193.655 209.7 191.365C205.015 188.119 200.133 185.122 195.356 182.007C193.733 180.946 192.084 179.86 190.88 178.329C189.689 176.798 189.021 174.717 189.636 172.884C189.898 172.125 190.356 171.431 190.409 170.646C190.487 169.717 189.99 168.853 189.519 168.055C188.249 165.895 186.849 163.631 184.624 162.492C183.707 162.021 182.687 161.772 181.705 161.484C177.15 160.149 172.465 158.186 168.054 156.472C162.793 154.443 157.505 151.171 153.84 146.839C150.241 142.598 149.155 136.866 145.634 132.324C141.891 127.521 137.297 123.45 132.808 119.367C131.499 118.163 130.059 116.422 130.818 114.812C131.381 113.647 132.847 113.242 134.13 113.281L134.104 113.268ZM248.467 186.888C249.515 187.032 254.095 187.569 254.684 186.718C254.815 186.535 254.815 186.286 254.776 186.051C254.567 184.376 253.362 183.027 252.184 181.823C248.009 177.596 242.892 173.63 236.95 173.499C235.942 173.473 234.751 173.669 234.254 174.546C233.586 175.711 234.555 177.099 235.471 178.093C237.5 180.292 239.554 182.504 242.015 184.218C243.939 185.553 246.125 186.561 248.454 186.888H248.467ZM103.477 130.073C105.99 134.065 107.365 139.025 106.056 143.567C104.93 147.519 101.868 150.975 101.907 155.084C101.959 160.477 107.116 164.207 109.707 168.932C112.207 173.499 112.246 178.957 112.835 184.14C113.176 187.098 113.634 191.391 115.754 193.642C117.796 195.815 120.728 197.621 122.913 199.793C125.217 202.084 127.782 204.296 130.923 205.12C134.064 205.932 137.899 204.911 139.378 202.031C140.438 199.99 140.15 197.385 141.42 195.461C142.755 193.419 145.529 192.713 147.938 193.158C150.333 193.603 152.453 194.977 154.456 196.364C168.866 206.377 181.587 219.268 189.414 234.974C190.186 236.532 190.932 238.194 190.88 239.935C190.827 241.675 189.741 243.508 188.027 243.835C187.359 243.966 186.535 243.913 186.155 244.489C185.71 245.157 186.286 246.021 186.862 246.596C190.958 250.667 198.405 256.831 204.648 253.873C206.337 253.075 207.92 251.858 209.792 251.701C214.543 251.295 217.527 256.517 222.514 255.13C225.445 254.305 228.037 252.421 231.047 251.936C235.733 251.19 239.908 253.939 243.86 256.02C245.889 257.08 248.036 258.284 250.3 258.703C250.902 258.821 257.564 260.051 256.949 260.745C255.208 262.747 253.376 264.697 251.465 266.582C251.02 266.49 250.614 266.412 250.261 266.359C247.46 265.928 244.515 265.705 241.766 265.155C238.599 264.527 236.008 262.276 232.893 261.373C229.647 260.417 225.93 260.457 223.063 262.263C220.564 263.833 218.666 266.713 215.734 267.027C213.195 267.289 210.918 265.509 208.418 265.051C205.853 264.579 203.274 265.509 200.696 265.954C190.225 267.773 180.017 261.478 172.491 254.829C169.114 251.845 163.277 247.225 164.546 242.029C165.018 240.131 166.431 238.534 166.785 236.61C167.478 232.815 164.311 229.687 161.34 228.051C156.157 225.197 150.673 219.74 144.81 218.47C143.252 218.143 141.485 218.378 140.334 219.478C137.925 221.781 139.483 226.087 137.729 228.914C134.836 233.587 129.758 230.59 126.355 228.417C119.379 223.967 112.691 219.779 107.064 213.588C103.098 209.23 97.6793 203.209 98.4385 196.809C98.7918 193.904 100.925 191.548 101.933 188.799C104.053 183.054 101.004 176.784 97.771 171.575C95.6376 168.133 93.2817 164.338 93.91 160.333C94.6691 155.49 99.5248 152.218 100.834 147.493C102.234 142.441 99.263 137.271 96.1088 133.083C95.7292 132.573 95.3497 132.075 94.957 131.578C96.4883 129.471 98.1113 127.429 99.8127 125.44C101.135 126.906 102.417 128.411 103.49 130.112L103.477 130.073ZM151.89 200.579C150.66 200.147 148.972 199.414 147.807 200.186C146.825 200.827 146.04 203.065 146.118 204.178C146.197 205.238 146.838 206.167 147.506 207.005C150.673 211.01 154.639 214.387 159.102 216.873C160.254 217.515 161.693 218.104 162.845 217.436C163.709 216.939 164.102 215.839 164.036 214.845C163.971 213.85 163.526 212.908 163.081 212.018C161.968 209.78 160.764 207.568 159.154 205.644C157.283 203.432 154.665 201.534 151.903 200.579H151.89Z" fill="#302A46"/>
</g>
<path style="mix-blend-mode:screen" d="M222.746 180.625C226.987 143.459 200.297 109.892 163.131 105.651C125.965 101.41 92.3987 128.101 88.1576 165.266C83.9166 202.432 110.607 235.999 147.773 240.24C184.938 244.481 218.505 217.79 222.746 180.625Z" fill="url(#paint5_linear_344_3201)"/>
<path opacity="0.8" d="M83.5311 215.303C89.1852 219.583 95.5722 223.718 98.216 230.289C99.6687 233.901 99.852 237.958 101.684 241.387C104.001 245.68 108.634 248.311 113.359 249.476C118.097 250.654 123.031 250.588 127.9 250.798C136.171 251.164 144.535 252.46 152.244 255.588C156.236 257.211 162.178 259.58 164.494 263.428C165.279 264.723 165.58 266.242 166.326 267.55C166.876 268.532 167.661 269.37 167.517 270.6C167.321 272.249 165.24 272.995 163.604 272.694C160.803 272.171 158.238 271.241 155.385 270.77C153.605 270.482 151.328 270.796 151.262 272.93C151.184 275.717 155.084 276.477 156.929 277.301C162.701 279.906 167.138 282.131 173.669 282.51C179.964 282.877 186.377 282.392 192.503 283.884C195.591 284.63 198.576 285.874 201.73 286.201C207.816 286.829 209.674 282.406 214.582 280.22C219.477 278.034 225.118 279.186 230.445 279.893C231.649 280.05 232.906 280.167 234.149 280.22C187.215 309.995 124.759 297.431 93.1247 251.19C84.0677 237.945 78.4791 223.313 76.2148 208.405C78.2828 211.01 80.9135 213.313 83.5442 215.303H83.5311ZM142.886 273.937C142.585 272.786 141.812 271.817 141.014 270.94C136.643 266.137 130.517 262.943 124.078 262.106C122.481 261.896 120.413 262.119 119.916 263.65C119.654 264.449 119.968 265.312 120.322 266.085C122.743 271.372 127.416 275.299 132.86 277.196C135.648 278.178 144.43 279.696 142.886 273.924V273.937ZM180.802 276.123C181.221 276.058 181.666 275.94 181.914 275.613C182.346 275.037 181.941 274.225 181.509 273.65C179.572 271.124 176.836 269.213 173.8 268.257C170.646 267.276 171.051 271.739 172.491 273.244C174.585 275.443 177.805 276.581 180.802 276.123V276.123ZM168.761 89.5391C170.083 91.2144 171.758 93.7666 173.682 94.8267C176.038 96.1224 179.467 96.1224 182.045 96.9732C187.817 98.884 193.196 102.038 197.633 106.2C199.125 107.601 200.552 109.132 202.423 109.943C204.295 110.755 206.769 110.598 208.012 108.975C209.151 107.483 208.902 105.284 210.028 103.792C211.703 101.58 215.171 102.221 217.737 103.295C227.343 107.273 236.034 114.393 241.832 123.045C245.915 129.131 248.245 136.251 252.158 142.454C258.428 151.917 267.354 158.684 275.73 166.157C277.17 167.44 278.544 168.735 279.879 170.083C277.091 157.571 271.921 145.373 264.239 134.156C263.938 133.711 263.623 133.266 263.309 132.835C262.315 131.421 261.294 130.047 260.221 128.686C260.024 128.437 259.815 128.175 259.619 127.927C259.121 127.311 258.624 126.696 258.126 126.094C257.891 125.806 257.655 125.531 257.407 125.243C257.197 124.995 256.975 124.746 256.765 124.497C256.582 124.288 256.399 124.079 256.216 123.869C255.993 123.634 255.771 123.385 255.561 123.136C255.352 122.901 255.142 122.678 254.933 122.443C254.724 122.207 254.514 121.985 254.292 121.749C254.082 121.526 253.86 121.291 253.65 121.068C253.441 120.846 253.218 120.61 252.996 120.388C252.669 120.047 252.328 119.694 251.988 119.354C251.753 119.118 251.517 118.883 251.281 118.647C251.229 118.595 251.164 118.529 251.111 118.477C250.902 118.268 250.679 118.058 250.47 117.849C249.92 117.312 249.357 116.789 248.795 116.278C248.454 115.977 248.127 115.663 247.774 115.362C247.447 115.074 247.119 114.773 246.792 114.498C245.405 113.281 243.978 112.103 242.525 110.977C241.806 110.415 241.073 109.865 240.353 109.328C239.934 109.027 239.515 108.713 239.096 108.412C238.769 108.19 238.455 107.954 238.128 107.732C237.748 107.47 237.382 107.208 237.002 106.959C236.623 106.698 236.243 106.449 235.864 106.2C235.484 105.952 235.105 105.703 234.712 105.454C233.94 104.957 233.167 104.486 232.395 104.015C232.003 103.779 231.61 103.543 231.217 103.321C230.825 103.085 230.432 102.863 230.039 102.64C229.647 102.418 229.241 102.195 228.848 101.973C228.05 101.528 227.239 101.096 226.44 100.677C225.629 100.258 224.817 99.8525 224.006 99.4599C223.679 99.3028 223.351 99.1458 223.011 98.9887C222.632 98.8186 222.252 98.6353 221.872 98.4652C221.584 98.3343 221.283 98.1904 220.982 98.0595C220.524 97.8501 220.053 97.6406 219.582 97.4443C219.202 97.2742 218.81 97.1171 218.43 96.9601C217.998 96.7768 217.553 96.5936 217.121 96.4235C216.598 96.214 216.061 96.0046 215.538 95.8083C215.132 95.6643 214.739 95.5073 214.334 95.3633C213.941 95.2194 213.548 95.0754 213.143 94.9314C212.75 94.8005 212.357 94.6566 211.965 94.5257C211.755 94.4472 211.559 94.3817 211.35 94.3163C211.14 94.2508 210.931 94.1723 210.708 94.1069C197.411 89.7747 183.354 88.1649 169.389 89.4082C169.389 89.4082 169.389 89.4082 169.363 89.4082C169.167 89.4475 168.957 89.4868 168.761 89.526V89.5391ZM222.789 114.564C220.825 113.752 212.567 111.344 212.776 114.236C212.829 114.904 213.156 115.519 213.509 116.082C216.781 121.54 221.702 125.989 227.461 128.686C228.534 129.183 229.869 129.615 230.838 128.934C231.859 128.228 231.872 126.722 231.623 125.505C230.563 120.833 227.304 116.422 222.789 114.564V114.564ZM158.827 236.82C157.413 234.686 155.49 232.867 153.173 231.807C150.856 230.747 148.121 230.485 145.713 231.336C144.43 231.794 143.161 232.671 142.781 233.979C142.31 235.602 143.318 237.252 144.312 238.613C145.988 240.916 147.898 243.246 150.542 244.293C155.293 246.165 162.322 242.081 158.827 236.82V236.82ZM114.341 242.762C117.953 244.044 121.683 243.691 125.23 245.196C126.918 245.916 129.078 246.348 130.4 245.078C131.407 244.11 131.46 242.447 130.884 241.178C130.308 239.908 129.209 238.953 128.109 238.089C123.044 234.123 117.128 231.414 111.278 228.744C109.472 227.92 107.312 227.108 105.598 228.116C104.38 228.836 103.778 230.341 103.844 231.755C103.909 233.168 104.538 234.49 105.31 235.681C107.417 238.966 110.676 241.466 114.354 242.775L114.341 242.762ZM192.856 272.917C192.751 273.82 193.275 274.67 193.838 275.403C195.971 278.217 198.942 280.586 202.437 281.162C207.816 282.039 210.944 277.576 215.237 275.364C218.954 273.453 223.312 272.746 227.422 273.532C231.911 274.382 236.322 275.076 240.889 275.626C242.224 274.631 243.533 273.597 244.816 272.537C242.879 272.419 240.955 272.21 239.07 271.765C234.201 270.613 230.903 266.202 225.694 266.621C221.139 267.001 217.527 270.888 213.025 271.621C209.91 272.131 206.782 271.084 203.719 270.325C200.657 269.566 197.214 269.173 194.505 270.796C193.707 271.281 192.961 272 192.856 272.93V272.917ZM83.0207 152.742L82.7982 153.265C80.7172 158.356 79.0288 163.592 77.7854 168.918C77.8378 169.01 77.8901 169.102 77.9294 169.18C80.1805 173.146 84.5389 176.078 85.1802 180.593C85.7953 184.899 82.772 188.76 81.3716 192.87C77.1834 205.186 88.2166 213.693 97.4307 219.282C98.2683 219.792 99.1452 220.276 100.127 220.394C101.095 220.512 102.182 220.185 102.705 219.36C103.386 218.274 102.888 216.873 102.326 215.722C99.106 209.086 92.1431 202.594 93.3079 194.519C93.91 190.344 97.0511 186.692 96.8286 182.491C96.6454 178.721 93.8314 175.711 91.685 172.596C87.6669 166.746 85.4158 159.94 83.1385 153.134C83.0861 153.003 83.0468 152.859 83.0076 152.728L83.0207 152.742ZM91.5672 136.434C89.5385 139.588 87.68 142.834 86.0178 146.171C87.5753 148.514 89.9966 150.294 92.732 150.988C93.5435 151.197 94.4466 151.302 95.1795 150.883C95.9125 150.464 96.3051 149.6 96.3574 148.75C96.4098 147.912 96.1611 147.074 95.8994 146.263C95.1272 143.881 93.8053 139.274 91.5672 136.434ZM154.364 91.8819C157.793 96.201 163.172 97.8893 167.465 101.24C169.991 103.216 170.79 105.821 172.936 108.006C175.082 110.192 178.027 111.527 180.894 112.456C185.108 113.831 189.597 114.603 193.327 117.011C196.194 118.87 198.392 121.579 200.486 124.275C204.23 129.104 207.816 134.078 211.206 139.169C213.339 142.376 215.433 145.648 218.221 148.318C220.996 150.975 224.608 152.99 228.456 153.056C232.107 153.121 235.798 151.433 239.319 152.414C241.583 153.043 243.402 154.679 245.117 156.275C253.48 164.037 262.603 171.667 269.958 180.318C274.303 185.436 278.701 190.619 282.313 196.246C282.497 191.194 282.313 186.129 281.737 181.077C277.981 175.685 273.269 170.908 268.623 166.222C263.885 161.445 259.147 156.655 254.409 151.878C245.418 142.795 235.785 133.345 223.391 130.191C221.519 129.72 219.595 129.392 217.815 128.646C213.993 127.05 211.245 123.712 208.339 120.741C200.238 112.43 190.029 106.357 179.179 102.235C175.933 100.991 172.583 99.918 169.651 98.0333C166.523 96.0308 164.075 93.2692 161.746 90.3767C159.272 90.7825 156.811 91.2798 154.364 91.8688V91.8819ZM255.247 217.698C256.085 217.488 256.922 217.057 257.407 216.337C258.414 214.805 257.433 212.777 256.399 211.259C253.559 207.057 250.077 203.065 245.68 200.435C243.703 199.257 242.172 198.943 239.999 198.642C237.984 198.354 235.628 196.953 233.652 197.071C233.102 197.11 232.578 197.372 232.12 197.673C230.236 198.877 228.704 201.076 229.215 203.262C229.398 204.008 229.791 204.688 230.262 205.303C231.558 206.992 233.403 208.248 235.445 208.837C236.989 209.282 238.625 209.361 240.13 209.884C245.169 211.638 249.2 219.268 255.247 217.711V217.698ZM180.828 118.241C178.773 117.692 176.588 117.338 174.52 117.849C172.452 118.359 170.541 119.943 170.187 122.05C169.795 124.38 171.339 126.618 173.158 128.11C174.794 129.458 176.705 130.453 178.59 131.421C185.029 134.759 191.469 138.109 197.921 141.447C198.89 141.957 200.251 142.389 200.945 141.538C201.376 141.002 201.285 140.229 201.128 139.562C198.994 130.269 189.951 120.676 180.841 118.228L180.828 118.241ZM222.095 164.272C223.665 164.626 225.341 164.495 226.833 163.88C227.998 163.395 228.914 163.264 230.131 162.99C231.401 162.702 232.421 162.139 232.906 160.869C232.984 160.66 233.037 160.424 232.958 160.228C232.866 160.005 232.657 159.875 232.461 159.744C230.354 158.461 228.194 157.178 225.773 156.668C223.364 156.171 220.616 156.589 218.888 158.343C218.064 159.181 217.514 160.424 217.894 161.537C218.443 163.12 220.616 163.932 222.108 164.272H222.095ZM130.203 101.03C134.836 105.755 141.93 107.679 147.205 111.867C152.61 116.187 156.393 123.084 163.081 124.838C163.486 124.942 163.944 125.021 164.285 124.798C164.573 124.615 164.704 124.262 164.834 123.935C166.039 120.61 167.256 117.116 166.745 113.634C166.012 108.635 162.073 105.127 158.539 101.907C155.49 99.1196 153.029 95.8868 150.15 92.9944C143.344 94.9445 136.669 97.6145 130.216 101.03H130.203ZM124.13 115.82C126.63 120.126 130.544 123.385 133.685 127.246C141.237 136.512 144.43 149.352 153.997 156.55C159.638 160.791 166.863 162.518 172.517 166.733C180.553 172.714 184.375 182.831 191.469 189.886C198.261 196.639 207.96 200.513 213.064 208.628C215.603 212.672 216.755 217.436 218.954 221.677C222.121 227.776 227.317 232.435 233.128 235.969C236.125 237.788 239.293 239.333 242.512 240.72C248.441 243.259 253.677 246.95 260.142 248.246C261.922 248.612 263.794 248.808 265.456 249.515C263.309 252.787 260.967 255.968 258.428 259.017C252.944 256.805 247.944 253.337 243.245 249.816C238.35 246.151 233.141 244.201 226.898 244.869C221.768 245.418 217.841 247.539 212.894 244.725C208.902 242.461 203.942 241.872 200.329 238.94C196.913 236.178 195.225 231.859 193.38 227.854C186.05 211.939 173.957 198.249 159.063 188.996C155.215 186.614 150.869 184.454 146.393 185.004C144.666 185.213 143.003 185.828 141.263 186.038C134.326 186.862 128.306 181.077 124.994 174.926C123.201 171.615 121.853 168.055 121.068 164.364C120.23 160.49 120.008 156.524 119.471 152.598C117.796 140.517 112.953 128.908 105.637 119.158C110.008 114.825 114.825 110.82 120.073 107.221C121.591 110.009 122.56 113.098 124.157 115.846L124.13 115.82ZM146.642 171.209C148.54 170.581 150.581 171.013 152.44 170.463C157.217 169.049 153.278 164.024 151.157 161.746C145.255 155.398 139.365 149.051 133.462 142.703C132.088 141.224 130.059 139.601 128.266 140.557C126.918 141.263 126.617 143.03 126.565 144.548C126.211 154.194 129.994 163.919 136.76 170.803C137.925 171.994 139.313 173.146 140.975 173.251C143.082 173.368 144.744 171.85 146.642 171.222V171.209ZM212.004 235.419C213.954 236.231 221.912 237.278 219.189 232.919C216.729 228.993 212.41 226.415 210.303 222.292C209.478 220.682 209.033 218.902 208.326 217.227C207.619 215.565 206.559 213.929 204.936 213.117C204.308 212.803 203.601 212.62 202.921 212.751C202.476 212.829 202.057 213.039 201.677 213.3C199.78 214.609 199.021 217.135 199.282 219.426C199.544 221.716 200.644 223.823 201.835 225.799C204.334 229.961 207.436 233.521 212.004 235.432V235.419ZM134.104 113.268C136.708 113.32 139.142 114.55 141.315 115.964C146.249 119.158 150.372 123.398 154.141 127.861C157.937 132.35 159.416 135.478 165.659 135.649C183.433 136.12 198.641 148.2 211.179 160.817C214.975 164.626 219.346 168.84 224.726 168.657C227.553 168.565 230.196 167.217 232.984 166.746C237.905 165.908 242.892 167.819 247.237 170.28C253.127 173.617 258.362 178.002 262.982 182.949C269.88 190.344 276.293 199.244 281.188 208.34C279.316 220.603 275.246 232.527 269.121 243.468C268.937 243.468 268.754 243.468 268.571 243.468C260.587 243.311 252.695 240.798 245.994 236.505C239.554 232.383 230.655 225.525 229.019 217.659C228.691 216.062 229.045 213.889 230.655 213.601C231.27 213.484 231.885 213.706 232.474 213.928C237.644 215.879 243.703 217.737 248.245 220.878C251.7 223.26 255.47 226.702 260.05 225.053C263.584 223.784 265.364 219.569 264.958 215.839C264.54 212.109 262.406 208.798 260.103 205.827C256.203 200.788 251.504 196.155 245.654 193.603C243.337 192.595 240.876 191.914 238.638 190.71C232.827 187.582 228.744 180.973 222.213 180.096C220.996 179.926 219.412 180.253 219.15 181.457C219.058 181.836 219.15 182.242 219.242 182.622C220.119 186.299 221.886 189.768 224.32 192.647C224.791 193.21 225.302 193.773 225.498 194.48C226.335 197.595 222.448 199.466 220.04 198.72C216.074 197.49 213.025 193.655 209.7 191.365C205.015 188.119 200.133 185.122 195.356 182.007C193.733 180.946 192.084 179.86 190.88 178.329C189.689 176.798 189.021 174.717 189.636 172.884C189.898 172.125 190.356 171.431 190.409 170.646C190.487 169.717 189.99 168.853 189.519 168.055C188.249 165.895 186.849 163.631 184.624 162.492C183.707 162.021 182.687 161.772 181.705 161.484C177.15 160.149 172.465 158.186 168.054 156.472C162.793 154.443 157.505 151.171 153.84 146.839C150.241 142.598 149.155 136.866 145.634 132.324C141.891 127.521 137.297 123.45 132.808 119.367C131.499 118.163 130.059 116.422 130.818 114.812C131.381 113.647 132.847 113.242 134.13 113.281L134.104 113.268ZM248.467 186.888C249.515 187.032 254.095 187.569 254.684 186.718C254.815 186.535 254.815 186.286 254.776 186.051C254.567 184.376 253.362 183.027 252.184 181.823C248.009 177.596 242.892 173.63 236.95 173.499C235.942 173.473 234.751 173.669 234.254 174.546C233.586 175.711 234.555 177.099 235.471 178.093C237.5 180.292 239.554 182.504 242.015 184.218C243.939 185.553 246.125 186.561 248.454 186.888H248.467ZM103.477 130.073C105.99 134.065 107.365 139.025 106.056 143.567C104.93 147.519 101.868 150.975 101.907 155.084C101.959 160.477 107.116 164.207 109.707 168.932C112.207 173.499 112.246 178.957 112.835 184.14C113.176 187.098 113.634 191.391 115.754 193.642C117.796 195.815 120.728 197.621 122.913 199.793C125.217 202.084 127.782 204.296 130.923 205.12C134.064 205.932 137.899 204.911 139.378 202.031C140.438 199.99 140.15 197.385 141.42 195.461C142.755 193.419 145.529 192.713 147.938 193.158C150.333 193.603 152.453 194.977 154.456 196.364C168.866 206.377 181.587 219.268 189.414 234.974C190.186 236.532 190.932 238.194 190.88 239.935C190.827 241.675 189.741 243.508 188.027 243.835C187.359 243.966 186.535 243.913 186.155 244.489C185.71 245.157 186.286 246.021 186.862 246.596C190.958 250.667 198.405 256.831 204.648 253.873C206.337 253.075 207.92 251.858 209.792 251.701C214.543 251.295 217.527 256.517 222.514 255.13C225.445 254.305 228.037 252.421 231.047 251.936C235.733 251.19 239.908 253.939 243.86 256.02C245.889 257.08 248.036 258.284 250.3 258.703C250.902 258.821 257.564 260.051 256.949 260.745C255.208 262.747 253.376 264.697 251.465 266.582C251.02 266.49 250.614 266.412 250.261 266.359C247.46 265.928 244.515 265.705 241.766 265.155C238.599 264.527 236.008 262.276 232.893 261.373C229.647 260.417 225.93 260.457 223.063 262.263C220.564 263.833 218.666 266.713 215.734 267.027C213.195 267.289 210.918 265.509 208.418 265.051C205.853 264.579 203.274 265.509 200.696 265.954C190.225 267.773 180.017 261.478 172.491 254.829C169.114 251.845 163.277 247.225 164.546 242.029C165.018 240.131 166.431 238.534 166.785 236.61C167.478 232.815 164.311 229.687 161.34 228.051C156.157 225.197 150.673 219.74 144.81 218.47C143.252 218.143 141.485 218.378 140.334 219.478C137.925 221.781 139.483 226.087 137.729 228.914C134.836 233.587 129.758 230.59 126.355 228.417C119.379 223.967 112.691 219.779 107.064 213.588C103.098 209.23 97.6793 203.209 98.4385 196.809C98.7918 193.904 100.925 191.548 101.933 188.799C104.053 183.054 101.004 176.784 97.771 171.575C95.6376 168.133 93.2817 164.338 93.91 160.333C94.6691 155.49 99.5248 152.218 100.834 147.493C102.234 142.441 99.263 137.271 96.1088 133.083C95.7292 132.573 95.3497 132.075 94.957 131.578C96.4883 129.471 98.1113 127.429 99.8127 125.44C101.135 126.906 102.417 128.411 103.49 130.112L103.477 130.073ZM151.89 200.579C150.66 200.147 148.972 199.414 147.807 200.186C146.825 200.827 146.04 203.065 146.118 204.178C146.197 205.238 146.838 206.167 147.506 207.005C150.673 211.01 154.639 214.387 159.102 216.873C160.254 217.515 161.693 218.104 162.845 217.436C163.709 216.939 164.102 215.839 164.036 214.845C163.971 213.85 163.526 212.908 163.081 212.018C161.968 209.78 160.764 207.568 159.154 205.644C157.283 203.432 154.665 201.534 151.903 200.579H151.89Z" stroke="#3215AB" stroke-width="0.5"/>
<mask id="mask0_344_3201" style="mask-type:alpha" maskUnits="userSpaceOnUse" x="-18" y="105" width="393" height="199">
<path d="M-8.26022 184.819L-18 105.44L97.9033 126.38L85.7286 144.886L279.55 221.83L283.446 196.02L343.346 211.117L375 276.86L306.822 303.644L-8.26022 184.819Z" fill="#D9D9D9"/>
</mask>
<g mask="url(#mask0_344_3201)">
<path d="M116.326 134.287C57.5075 118.018 14.3261 116.55 7.78077 132.69C-1.27739 155.038 65.7946 203.318 157.598 240.514C249.401 277.71 331.163 289.748 340.221 267.4C346.27 252.472 318.38 225.993 271.838 198.978" stroke="url(#paint6_linear_344_3201)" stroke-width="0.75" stroke-miterlimit="10" stroke-linecap="round"/>
<path d="M115.153 135.264C64.042 121.677 26.9502 120.632 21.2889 134.577C13.1345 154.71 75.449 198.947 160.498 233.402C245.548 267.857 321.072 279.478 329.226 259.345C334.371 246.632 311.398 224.294 272.345 200.874" stroke="url(#paint7_linear_344_3201)" stroke-width="0.75" stroke-miterlimit="10" stroke-linecap="round"/>
<path d="M113.787 136.241C71.3965 125.535 41.3336 124.863 36.7251 136.245C29.6633 153.676 86.674 193.226 164.066 224.592C241.457 255.958 309.93 267.241 316.992 249.81C321.104 239.659 303.504 222.019 272.813 202.87" stroke="url(#paint8_linear_344_3201)" stroke-width="0.75" stroke-miterlimit="10" stroke-linecap="round"/>
<path d="M112.613 137.219C75.8842 127.883 50.1127 126.85 46.4378 135.947C40.5182 150.568 94.7579 186.333 167.611 215.842C240.453 245.36 304.297 257.438 310.217 242.818C313.435 234.872 298.855 220.669 273.18 204.609" stroke="url(#paint9_linear_344_3201)" stroke-width="0.75" stroke-miterlimit="10" stroke-linecap="round"/>
</g>
</g>
<defs>
<radialGradient id="paint0_radial_344_3201" cx="0" cy="0" r="1" gradientUnits="userSpaceOnUse" gradientTransform="translate(340.704 81.4753) scale(79.3991 79.3991)">
<stop stop-color="#26F2FF"/>
<stop offset="1" stop-color="#5C68D6"/>
</radialGradient>
<linearGradient id="paint1_linear_344_3201" x1="298.584" y1="136.479" x2="390.534" y2="93.4561" gradientUnits="userSpaceOnUse">
<stop stop-color="#37E2E2"/>
<stop offset="1" stop-color="#37E2E2" stop-opacity="0.2"/>
</linearGradient>
<linearGradient id="paint2_linear_344_3201" x1="332.949" y1="184.208" x2="332.447" y2="55.344" gradientUnits="userSpaceOnUse">
<stop stop-color="#2ECCC1"/>
<stop offset="1" stop-color="#2ECCC1" stop-opacity="0.2"/>
</linearGradient>
<linearGradient id="paint3_linear_344_3201" x1="389.243" y1="56.9772" x2="357.607" y2="92.0283" gradientUnits="userSpaceOnUse">
<stop stop-color="#FFF2B6"/>
<stop offset="1" stop-color="#FFF49A" stop-opacity="0.2"/>
</linearGradient>
<linearGradient id="paint4_linear_344_3201" x1="53.3598" y1="116.187" x2="294.821" y2="403.729" gradientUnits="userSpaceOnUse">
<stop stop-color="#E6007A"/>
<stop offset="0.21" stop-color="#703AC2"/>
<stop offset="0.46" stop-color="#0070EB"/>
<stop offset="0.77" stop-color="#0297FB"/>
<stop offset="1" stop-color="#0AE2FF"/>
</linearGradient>
<linearGradient id="paint5_linear_344_3201" x1="78.965" y1="157.339" x2="199.275" y2="182.052" gradientUnits="userSpaceOnUse">
<stop stop-color="#2C698B"/>
<stop offset="1"/>
</linearGradient>
<linearGradient id="paint6_linear_344_3201" x1="207.598" y1="-33.6242" x2="341.325" y2="315.939" gradientUnits="userSpaceOnUse">
<stop stop-color="#E6007A"/>
<stop offset="0.21" stop-color="#703AC2"/>
<stop offset="0.46" stop-color="#AAD3FF"/>
<stop offset="0.77" stop-color="#83CDFF"/>
<stop offset="1" stop-color="#48E9FF"/>
</linearGradient>
<linearGradient id="paint7_linear_344_3201" x1="205.563" y1="-18.6028" x2="328.47" y2="305.034" gradientUnits="userSpaceOnUse">
<stop stop-color="#E6007A"/>
<stop offset="0.21" stop-color="#703AC2"/>
<stop offset="0.46" stop-color="#AAD3FF"/>
<stop offset="0.77" stop-color="#83CDFF"/>
<stop offset="1" stop-color="#48E9FF"/>
</linearGradient>
<linearGradient id="paint8_linear_344_3201" x1="203.215" y1="-1.86546" x2="313.615" y2="292.465" gradientUnits="userSpaceOnUse">
<stop stop-color="#E6007A"/>
<stop offset="0.21" stop-color="#703AC2"/>
<stop offset="0.46" stop-color="#AAD3FF"/>
<stop offset="0.77" stop-color="#83CDFF"/>
<stop offset="1" stop-color="#48E9FF"/>
</linearGradient>
<linearGradient id="paint9_linear_344_3201" x1="200.821" y1="8.42886" x2="301.892" y2="284.961" gradientUnits="userSpaceOnUse">
<stop stop-color="#E6007A"/>
<stop offset="0.21" stop-color="#703AC2"/>
<stop offset="0.46" stop-color="#AAD3FF"/>
<stop offset="0.77" stop-color="#83CDFF"/>
<stop offset="1" stop-color="#48E9FF"/>
</linearGradient>
<clipPath id="clip0_344_3201">
<rect width="460" height="370" fill="white"/>
</clipPath>
</defs>
</svg>
