<svg width="556" height="294" viewBox="0 0 556 294" fill="none" xmlns="http://www.w3.org/2000/svg">
<g clip-path="url(#clip0_361_9587)">
<g opacity="0.5">
<path d="M197.379 143.545C197.379 143.545 71.9908 211.481 -28.7731 293.186C-28.7731 293.186 104.339 240.601 254.899 191.786L197.379 143.545V143.545Z" fill="url(#paint0_linear_361_9587)" style="mix-blend-mode:screen"/>
</g>
<g opacity="0.5">
<path d="M198.213 60.5092C198.213 60.5092 112.813 119.088 12.0489 200.793C12.0489 200.793 121.646 145.461 272.207 96.6467L198.213 60.5092Z" fill="url(#paint1_linear_361_9587)" style="mix-blend-mode:screen"/>
</g>
<path d="M453.69 171.717C453.69 171.717 438.87 154.036 411.984 146.755C385.098 139.474 286.162 160.93 263.133 170.438C240.089 179.947 227.974 208.498 227.974 208.498C227.974 208.498 404.066 183.572 453.688 171.701L453.69 171.717Z" fill="url(#paint2_linear_361_9587)" stroke="#220E6E" stroke-linejoin="round"/>
<path d="M462.57 62.4824C462.57 62.4824 417.748 52.7292 367.217 55.9425C316.685 59.1397 190.762 147.042 190.762 147.042C190.762 147.042 401.272 64.8165 462.571 62.4985L462.57 62.4824Z" fill="url(#paint3_linear_361_9587)" stroke="#220E6E" stroke-linejoin="round"/>
<path d="M131.027 187.509C131.027 187.509 207.977 126.199 308.227 83.805C416.173 38.1645 540.923 71.5694 552.112 84.7092L131.027 187.509Z" fill="url(#paint4_linear_361_9587)" stroke="#220E6E" stroke-linejoin="round"/>
<path d="M252.708 185.577C252.708 185.577 278.66 182.628 282.138 188.401C285.616 194.175 227.979 208.53 227.979 208.53C227.979 208.53 322.062 203.916 453.693 171.733C453.693 171.733 420.271 173.492 416.702 166.477C413.151 159.477 473.775 145.459 473.775 145.459L252.708 185.577V185.577Z" fill="url(#paint5_linear_361_9587)" stroke="#220E6E" stroke-linejoin="round"/>
<path d="M552.094 84.7103C541.47 67.4407 431.746 81.5924 431.746 81.5924C431.746 81.5924 333.731 98.1041 328.271 86.4245C322.81 74.745 334.916 46.0983 334.916 46.0983C237.565 76.0151 128.922 145.372 128.922 145.372C128.922 145.372 248.645 112.261 249.446 123.608C250.248 134.954 228.914 147.8 228.898 147.802C196.311 159.946 162.824 173.316 131.026 187.508L147.14 209.232C147.14 209.232 338.362 183.697 473.791 145.457C473.791 145.457 562.736 101.994 552.112 84.7248L552.094 84.7103Z" fill="url(#paint6_linear_361_9587)" stroke="#220E6E" stroke-linejoin="round"/>
<path d="M128.922 145.372C128.922 145.372 144.945 106.647 175.665 75.2119C175.665 75.2119 248.929 12.4172 331.995 11.1038C338.154 17.0658 337.772 31.3702 334.918 46.1146C334.918 46.1146 200.513 103.34 128.924 145.389L128.922 145.372Z" fill="url(#paint7_linear_361_9587)" stroke="#220E6E" stroke-linejoin="round"/>
<path d="M175.665 75.2119C175.665 75.2119 167.832 89.1683 171.722 93.3753C175.613 97.5824 215.397 65.3935 281.547 37.5506L292.811 15.9663C292.811 15.9663 231.267 28.404 175.665 75.2119V75.2119Z" fill="url(#paint8_linear_361_9587)" stroke="#220E6E" stroke-linejoin="round"/>
<path d="M196.477 50.0671C196.477 50.0671 179.208 73.1237 178.044 84.6167C178.044 84.6167 224.029 55.886 273.777 33.6637C273.777 33.6637 281.513 10.8715 290.303 5.08133C290.303 5.08133 242.075 20.0441 196.476 50.051L196.477 50.0671Z" fill="url(#paint9_linear_361_9587)" stroke="#220E6E" stroke-linejoin="round"/>
<path d="M305.614 13.4949C305.614 13.4949 299.126 2.07982 290.302 5.08166C281.48 8.09957 276.899 25.0604 273.776 33.664L276.461 34.8745C276.461 34.8745 280.836 21.0666 281.861 18.8062L305.614 13.4949V13.4949Z" fill="url(#paint10_linear_361_9587)" stroke="#220E6E" stroke-linejoin="round"/>
<path d="M129.444 187.406C129.444 187.406 118.684 195.761 117.158 210.471C117.158 210.471 159.524 214.122 190.618 194.79C190.618 194.79 192.923 181.706 188.166 171.061C161.461 160.694 129.444 187.406 129.444 187.406V187.406Z" fill="url(#paint11_linear_361_9587)" stroke="#220E6E" stroke-linejoin="round"/>
<path d="M182.149 203.648C182.149 203.648 176.69 207.355 175.817 213.771C175.817 213.771 197.062 215.071 212.808 206.432C212.808 206.432 214.059 200.724 211.752 196.117C198.419 191.792 182.149 203.648 182.149 203.648V203.648Z" fill="url(#paint12_linear_361_9587)" stroke="#220E6E" stroke-linejoin="round"/>
<path d="M213.151 205.311C213.785 207.601 206.028 211.374 195.827 213.749C185.627 216.125 176.836 216.186 176.187 213.897C175.554 211.606 183.311 207.834 193.511 205.458C203.712 203.083 212.502 203.022 213.151 205.311Z" fill="url(#paint13_linear_361_9587)" stroke="#220E6E" stroke-linejoin="round"/>
<path d="M209.626 206.115C210.15 207.962 203.864 211.02 195.599 212.944C187.334 214.868 180.215 214.925 179.705 213.061C179.181 211.214 185.467 208.155 193.732 206.231C201.997 204.307 209.116 204.25 209.626 206.115Z" fill="#95ECFF" stroke="#220E6E" stroke-linejoin="round"/>
<path d="M190.628 192.451C192.203 198.836 177.017 208.052 156.737 213.035C136.457 218.018 118.733 216.872 117.158 210.487C115.583 204.103 130.769 194.886 151.049 189.903C171.329 184.921 189.053 186.067 190.628 192.451Z" fill="url(#paint14_linear_361_9587)" stroke="#220E6E" stroke-linejoin="round"/>
<path d="M183.625 194.169C184.9 199.334 172.608 206.802 156.178 210.835C139.747 214.867 125.405 213.937 124.145 208.771C122.886 203.605 135.162 196.138 151.592 192.106C168.023 188.073 182.365 189.003 183.625 194.169Z" fill="#95ECFF" stroke="#220E6E" stroke-linejoin="round"/>
<path d="M171.477 166.939C171.477 166.939 165.212 171.197 164.222 178.55C164.222 178.55 188.584 180.027 206.64 170.136C206.64 170.136 208.067 163.584 205.417 158.296C190.122 153.338 171.475 166.923 171.475 166.923L171.477 166.939Z" fill="url(#paint15_linear_361_9587)" stroke="#220E6E" stroke-linejoin="round"/>
<path d="M206.669 168.965C207.723 172.885 199.067 178.224 187.351 180.864C175.637 183.519 165.275 182.47 164.22 178.55C163.166 174.629 171.822 169.291 183.538 166.651C195.253 163.995 205.614 165.044 206.669 168.965V168.965Z" fill="url(#paint16_linear_361_9587)" stroke="#220E6E" stroke-linejoin="round"/>
<path d="M202.624 169.886C203.475 173.064 196.47 177.378 186.977 179.522C177.484 181.665 169.107 180.824 168.256 177.647C167.405 174.469 174.41 170.154 183.903 168.011C193.396 165.868 201.773 166.708 202.624 169.886Z" fill="#95ECFF" stroke="#220E6E" stroke-linejoin="round"/>
<path d="M331.663 10.5364C331.663 10.5364 343.542 19.8422 344.198 71.5841C344.198 71.5841 343.283 89.8366 336.686 91.7248C336.686 91.7248 321.277 93.6273 322.698 69.3519C323.758 51.2473 331.679 10.5348 331.679 10.5348L331.663 10.5364Z" fill="url(#paint17_linear_361_9587)" stroke="#220E6E" stroke-linejoin="round"/>
<path d="M338.876 25.4664C338.876 25.4664 331.619 35.9086 330.731 50.8473C329.986 63.451 334.571 83.3164 341.818 85.697C341.818 85.697 351.208 85.95 357.571 83.8253C357.571 83.8253 363.592 58.4766 356.144 23.3307L338.86 25.468L338.876 25.4664Z" fill="url(#paint18_linear_361_9587)" stroke="#220E6E" stroke-linejoin="round"/>
<path d="M359.865 53.9615C360.13 70.8633 358.734 84.6028 356.756 84.6206C354.779 84.6545 352.967 70.9737 352.702 54.0718C352.436 37.17 353.832 23.4305 355.81 23.4127C357.789 23.3949 359.599 37.0597 359.865 53.9615V53.9615Z" fill="url(#paint19_linear_361_9587)" stroke="#220E6E" stroke-linejoin="round"/>
<path d="M357.029 53.9993C357.211 65.6508 356.59 75.0935 355.652 75.1217C354.712 75.1339 353.809 65.7125 353.627 54.0611C353.444 42.4096 354.065 32.9669 355.004 32.9387C355.944 32.9265 356.846 42.3479 357.029 53.9993Z" fill="#95ECFF" stroke="#220E6E" stroke-linejoin="round"/>
<path d="M536.825 91.4362L539.011 89.4178C539.011 89.4178 497.764 66.7962 365.139 98.9316C365.139 98.9316 328.147 116.723 285.556 155.618L190.601 194.792L187.033 199.885L312.957 156.81L442.719 118.386L536.808 91.4218L536.825 91.4362Z" fill="url(#paint20_linear_361_9587)" stroke="#220E6E" stroke-linejoin="round"/>
<path d="M365.586 104.925C355.587 108.027 317.765 133.805 291.045 155.998C280.489 164.771 199.346 192.982 199.346 192.982L199.328 195.256L307.131 170.08C361.859 167.132 415.765 158.52 415.765 158.52C514.406 132.776 536.822 91.4202 536.822 91.4202C516.992 78.0505 402.051 93.5964 365.586 104.925V104.925Z" fill="url(#paint21_linear_361_9587)" stroke="#220E6E" stroke-linejoin="round"/>
<path d="M331.994 11.0879C331.994 11.0879 271.28 64.9277 178.994 118.72L324.225 50.7142L331.996 11.1039L331.994 11.0879Z" fill="url(#paint22_linear_361_9587)" stroke="#220E6E" stroke-linejoin="round"/>
<path d="M312.886 56.8385C310.279 61.804 274.497 101.435 258.105 107.33C241.699 113.243 180.895 121.209 178.993 118.72C178.397 117.951 178.137 116.306 178.079 114.412C177.926 110.256 178.676 104.891 178.676 104.891C228.443 64.3912 289.487 48.3838 290.069 47.8716C290.502 47.4878 304.242 49.8734 310.279 53.1371C312.406 54.2893 313.57 55.5534 312.886 56.8385V56.8385Z" fill="url(#paint23_linear_361_9587)" stroke="#220E6E" stroke-linejoin="round"/>
<path d="M310.279 53.1371C304.803 60.9193 271.691 97.0393 256.114 102.643C240.757 108.176 186.514 115.523 178.061 114.398C177.908 110.242 178.657 104.876 178.657 104.876C228.425 64.3768 289.469 48.3694 290.051 47.8572C290.484 47.4734 304.224 49.8589 310.261 53.1226L310.279 53.1371Z" fill="url(#paint24_linear_361_9587)" stroke="#220E6E" stroke-linejoin="round"/>
<path d="M280.889 202.791C275.935 203.088 324.899 185.228 348.714 179.554C372.528 173.88 417.901 180.024 417.901 180.024C417.901 180.024 340.054 199.257 280.889 202.791Z" fill="url(#paint25_linear_361_9587)" stroke="#220E6E" stroke-linejoin="round"/>
<path d="M266.23 191.798C266.101 191.81 265.966 191.759 265.875 191.654L258.392 182.983L253.919 184.028L247.752 176.346L248.187 172.067L230.473 148.279C228.126 135.268 231.06 121.327 231.096 121.193C231.138 120.962 231.366 120.809 231.599 120.868C231.83 120.909 231.967 121.139 231.925 121.371C231.889 121.504 229.014 135.212 231.292 148.035L249.073 171.833L248.636 176.096L254.247 183.086L258.689 182.045L266.518 191.104C266.666 191.284 266.643 191.546 266.48 191.708C266.405 191.764 266.328 191.804 266.247 191.812L266.23 191.798Z" fill="url(#paint26_linear_361_9587)"/>
<path d="M266.127 190.753C265.998 190.766 265.863 190.714 265.771 190.61L258.289 181.939L253.816 182.983L247.649 175.302L248.084 171.022L230.37 147.234C228.023 134.223 231.059 121.311 231.096 121.193C231.154 120.96 231.384 120.824 231.601 120.884C231.834 120.942 231.97 121.171 231.911 121.388C231.875 121.522 228.896 134.185 231.173 146.992L248.954 170.79L248.517 175.053L254.128 182.043L258.569 181.002L266.399 190.06C266.546 190.241 266.524 190.503 266.361 190.665C266.286 190.721 266.208 190.761 266.128 190.769L266.127 190.753Z" fill="#220E6E"/>
<path d="M459.775 149.737C459.775 149.737 459.646 149.75 459.595 149.723C459.376 149.647 459.254 149.399 459.33 149.181L461.245 143.781L465.113 142.358C466.798 119.274 459.128 92.3626 458.489 90.1701L452.229 85.8086L447.532 80.9999C428.387 68.4713 402.556 62.1731 402.307 62.1166C402.074 62.0586 401.938 61.8287 401.997 61.6118C402.055 61.3788 402.269 61.244 402.502 61.302C402.767 61.3568 428.717 67.7081 448.069 80.3623L452.784 85.1855L459.233 89.658L459.28 89.7994C459.357 90.0839 467.779 118.527 465.958 142.697L465.937 142.975L461.944 144.442L460.154 149.472C460.106 149.64 459.953 149.736 459.793 149.752L459.775 149.737Z" fill="url(#paint27_linear_361_9587)"/>
<path d="M459.303 149.606C459.303 149.606 459.175 149.619 459.123 149.591C458.905 149.515 458.783 149.268 458.858 149.049L461.129 142.657L464.997 141.234C466.682 118.15 459.013 91.2381 458.373 89.0456L452.114 84.6841L447.416 79.8754C428.273 67.3628 403.37 62.0762 403.123 62.0358C402.891 61.9939 402.755 61.7639 402.797 61.5325C402.839 61.3012 403.069 61.1647 403.3 61.2067C403.549 61.2631 428.6 66.5676 447.952 79.2217L452.667 84.0449L459.116 88.5174L459.162 88.6588C459.239 88.9434 467.662 117.387 465.84 141.556L465.819 141.834L461.826 143.301L459.696 149.307C459.646 149.458 459.494 149.571 459.334 149.586L459.303 149.606Z" fill="#220E6E"/>
<path d="M306.767 121.425C305.305 121.57 304.041 121.436 303.02 120.953C297.066 118.201 302.086 106.309 308.432 91.2666C310.548 86.2525 312.742 81.052 314.66 75.8465C322.054 55.8311 328.863 27.1257 328.932 26.8429C328.99 26.6099 329.22 26.4735 329.437 26.5331C329.67 26.5912 329.806 26.8211 329.747 27.038C329.677 27.3208 322.858 56.0759 315.452 76.1412C313.519 81.3643 311.325 86.5648 309.195 91.5966C303.253 105.641 298.129 117.787 303.35 120.19C304.217 120.591 305.316 120.709 306.602 120.581C317.354 119.514 340.744 101.385 345.658 92.3439L343.921 87.1115C343.851 86.8913 343.973 86.6519 344.193 86.5814C344.429 86.5093 344.653 86.6332 344.723 86.8534L346.575 92.4313L346.493 92.5855C342.122 100.875 318.484 120.263 306.753 121.443L306.767 121.425Z" fill="url(#paint28_linear_361_9587)"/>
<path d="M306.671 120.461C305.209 120.606 303.946 120.472 302.924 119.989C296.97 117.236 301.99 105.344 308.336 90.302C310.452 85.2878 312.646 80.0874 314.564 74.8819C321.959 54.8665 328.767 26.1611 328.836 25.8783C328.894 25.6453 329.124 25.5089 329.341 25.5685C329.574 25.6266 329.711 25.8565 329.651 26.0734C329.582 26.3562 322.762 55.1113 315.356 75.1766C313.424 80.3997 311.229 85.6002 309.099 90.632C303.157 104.677 298.033 116.822 303.254 119.226C304.122 119.626 305.221 119.744 306.506 119.617C317.259 118.55 340.649 100.42 345.562 91.3793L343.825 86.1469C343.755 85.9267 343.877 85.6873 344.097 85.6168C344.334 85.5447 344.557 85.6686 344.627 85.8888L346.479 91.4667L346.397 91.621C342.026 99.9102 318.388 119.298 306.657 120.478L306.671 120.461Z" fill="#220E6E"/>
<path d="M416.104 174.181C404.565 175.326 388.942 175.562 386.037 173.432C385.494 173.031 385.386 172.603 385.406 172.309C385.576 168.138 419.017 161.005 425.711 159.61C425.965 159.552 426.16 159.711 426.214 159.933C426.269 160.155 426.112 160.382 425.891 160.436C406.743 164.398 386.354 169.927 386.253 172.339C386.249 172.469 386.344 172.606 386.537 172.749C390.507 175.633 420.619 173.716 427.166 171.492C427.487 170.47 428.937 165.457 429.032 159.053C429.042 158.825 429.219 158.645 429.461 158.637C429.689 158.647 429.887 158.838 429.877 159.067C429.774 166.364 427.92 171.888 427.91 171.954L427.847 172.139L427.659 172.206C425.624 172.96 421.278 173.651 416.103 174.164L416.104 174.181Z" fill="url(#paint29_linear_361_9587)"/>
<path d="M416.009 173.233C404.469 174.378 388.847 174.614 385.941 172.484C385.398 172.083 385.291 171.656 385.31 171.362C385.481 167.19 418.921 160.057 425.616 158.662C425.87 158.604 426.064 158.764 426.119 158.986C426.173 159.207 426.017 159.434 425.795 159.488C406.647 163.45 386.259 168.979 386.157 171.391C386.154 171.521 386.249 171.658 386.441 171.801C390.412 174.686 420.524 172.768 427.071 170.544C427.391 169.522 428.842 164.51 428.936 158.105C428.946 157.877 429.122 157.681 429.366 157.689C429.594 157.699 429.792 157.891 429.782 158.119C429.677 165.4 427.824 170.94 427.815 171.006L427.752 171.191L427.564 171.258C425.529 172.012 421.183 172.703 416.007 173.217L416.009 173.233Z" fill="#220E6E"/>
<path d="M185.892 131.312C166.693 132.633 155.496 131.017 155.38 130.996L155.035 130.949L155.032 130.593C154.482 107.552 164.223 87.4656 164.316 87.2615C164.426 87.0559 164.676 86.9661 164.882 87.0755C165.088 87.185 165.178 87.4357 165.068 87.6414C164.975 87.8454 155.42 107.523 155.855 130.219C157.893 130.471 168.625 131.662 185.841 130.473C186.066 130.45 186.28 130.64 186.286 130.867C186.308 131.092 186.133 131.288 185.908 131.31L185.892 131.312Z" fill="#220E6E"/>
<path d="M208.719 52.8773C199.558 53.7865 196.447 51.2225 196.271 51.0777C196.092 50.9169 196.083 50.6581 196.228 50.4814C196.373 50.3048 196.647 50.2937 196.822 50.4224C196.893 50.4803 203.432 55.6906 225.562 47.9273C247.945 40.0902 269.346 13.199 269.561 12.9179C269.704 12.7252 269.978 12.698 270.156 12.8589C270.332 13.0036 270.376 13.2753 270.215 13.4535C269.998 13.7185 248.454 40.8026 225.836 48.7278C218.606 51.2632 212.993 52.437 208.718 52.8612L208.719 52.8773Z" fill="url(#paint30_linear_361_9587)"/>
<path d="M208.65 52.1863C199.489 53.0955 196.378 50.5314 196.202 50.3867C196.023 50.2258 196.014 49.9671 196.159 49.7904C196.304 49.6138 196.578 49.6027 196.753 49.7314C196.824 49.7893 203.363 54.9995 225.493 47.2362C247.876 39.3992 269.277 12.508 269.492 12.2269C269.637 12.0502 269.909 12.007 270.087 12.1679C270.264 12.3126 270.307 12.5843 270.146 12.7625C269.929 13.0275 248.385 40.1115 225.767 48.0368C218.537 50.5722 212.924 51.7459 208.649 52.1702L208.65 52.1863Z" fill="#220E6E"/>
<path d="M139.911 139.672C139.911 139.672 138.102 142.708 137.958 146.164C137.958 146.164 149.489 145.75 157.538 140.341C157.538 140.341 158.135 136.046 156.655 133.726C149.241 132.125 139.895 139.674 139.895 139.674L139.911 139.672Z" fill="url(#paint31_linear_361_9587)" stroke="#220E6E" stroke-linejoin="round"/>
<path d="M157.674 139.76C158.242 141.229 154.332 143.857 148.942 145.642C143.55 147.41 138.722 147.662 138.155 146.193C137.587 144.724 141.497 142.096 146.887 140.311C152.279 138.542 157.106 138.291 157.674 139.76V139.76Z" fill="url(#paint32_linear_361_9587)" stroke="#220E6E" stroke-linejoin="round"/>
<path d="M155.82 140.382C156.279 141.57 153.115 143.702 148.745 145.142C144.376 146.582 140.468 146.775 140.009 145.587C139.55 144.399 142.715 142.267 147.084 140.827C151.453 139.387 155.361 139.194 155.82 140.382Z" fill="white" stroke="#220E6E" stroke-linejoin="round"/>
<path d="M234.113 206.395C234.113 206.395 232.401 208.285 231.814 210.713C231.814 210.713 240.03 212.056 246.501 209.386C246.501 209.386 247.538 206.426 246.818 204.566C241.796 202.37 234.113 206.395 234.113 206.395V206.395Z" fill="url(#paint33_linear_361_9587)" stroke="#220E6E" stroke-linejoin="round"/>
<path d="M246.673 208.995C246.865 210.112 243.717 211.431 239.659 211.915C235.601 212.398 232.141 211.882 231.949 210.765C231.757 209.648 234.905 208.329 238.963 207.845C243.037 207.359 246.481 207.878 246.673 208.995Z" fill="url(#paint34_linear_361_9587)" stroke="#220E6E" stroke-linejoin="round"/>
<path d="M245.276 209.15C245.432 210.06 242.89 211.107 239.587 211.516C236.299 211.907 233.498 211.487 233.343 210.578C233.187 209.668 235.729 208.62 239.032 208.211C242.32 207.82 245.121 208.24 245.276 209.15Z" fill="white" stroke="#220E6E" stroke-linejoin="round"/>
<path style="mix-blend-mode:screen" opacity="0.5" d="M365.589 104.924C365.589 104.924 355.309 148.695 344.765 168.861L365.421 164.23C365.421 164.23 447.221 129.397 480.861 86.4892C480.861 86.4892 406.327 91.5166 365.589 104.924V104.924Z" fill="url(#paint35_linear_361_9587)"/>
<path style="mix-blend-mode:screen" opacity="0.5" d="M495.323 86.3684C495.323 86.3684 463.266 120.03 416.242 144.514L420.823 145.374C420.823 145.374 491.401 120.273 525.95 87.8409C525.95 87.8409 514.878 84.7037 495.307 86.37L495.323 86.3684Z" fill="url(#paint36_linear_361_9587)"/>
<path style="mix-blend-mode:screen" d="M381.993 64.3277C381.993 64.3277 453.797 60.4152 491.026 76.4078C491.026 76.4078 530.684 75.8317 542.714 78.9713C542.714 78.9713 470.716 49.5335 381.993 64.3277Z" fill="url(#paint37_linear_361_9587)"/>
<path d="M286.618 125.616C266.882 127.575 249.686 124.883 249.455 124.841C249.224 124.799 249.073 124.587 249.099 124.357C249.141 124.125 249.351 123.958 249.583 124C249.912 124.049 283.099 129.244 310.145 119.824C310.364 119.737 310.603 119.86 310.69 120.078C310.76 120.299 310.654 120.536 310.435 120.623C302.702 123.322 294.461 124.838 286.618 125.616Z" fill="url(#paint38_linear_361_9587)"/>
<path d="M285.774 124.937C266.295 126.87 249.591 124.065 249.36 124.023C249.129 123.981 248.978 123.769 249.02 123.537C249.062 123.306 249.274 123.155 249.505 123.197C249.819 123.247 281.905 128.632 308.935 119.214C309.153 119.127 309.393 119.25 309.479 119.468C309.55 119.689 309.444 119.926 309.225 120.013C301.538 122.691 293.442 124.192 285.776 124.953L285.774 124.937Z" fill="#220E6E"/>
<path d="M448.875 126.587C450.142 132.321 436.082 140.289 417.499 144.39C398.901 148.491 382.799 147.168 381.532 141.435C380.265 135.701 394.325 127.733 412.908 123.632C431.506 119.531 447.608 120.854 448.875 126.587Z" fill="url(#paint39_linear_361_9587)" stroke="#220E6E" stroke-linejoin="round"/>
<path d="M443.284 126.201C444.346 131.013 432.559 137.685 416.963 141.132C401.367 144.579 387.867 143.468 386.805 138.655C385.743 133.843 397.53 127.171 413.126 123.724C428.722 120.278 442.222 121.389 443.284 126.201Z" fill="white" stroke="#220E6E" stroke-linejoin="round"/>
<path d="M284.55 81.058L286.142 86.1424L301.073 70.9297L298.584 66.7784L284.55 81.058Z" fill="#06FFE0" stroke="#220E6E" stroke-linejoin="round"/>
<path d="M282.667 82.852L282.98 89.1182L280.243 91.6296L279.65 85.6509L282.667 82.852Z" fill="#06FFE0" stroke="#220E6E" stroke-linejoin="round"/>
<path d="M178.043 84.6169L181.366 85.7154L202.131 72.8615L201.947 71.0132L178.043 84.6169Z" fill="#06FFE0" stroke="#220E6E" stroke-linejoin="round"/>
<path d="M204.166 70.8095L205.86 68.2555L217.552 61.7717L215.407 65.1819L204.166 70.8095Z" fill="#06FFE0" stroke="#220E6E" stroke-linejoin="round"/>
<path d="M416.241 144.498L416.962 141.132C416.962 141.132 427.244 138.927 434.405 135.197L436.006 138.414C436.006 138.414 427.754 142.593 416.257 144.497L416.241 144.498Z" fill="#FFC7FE" stroke="#220E6E" stroke-linejoin="round"/>
<path d="M437.082 134.201L440.047 136.601L444.212 133.916L440.305 131.512L437.082 134.201Z" fill="#FFC7FE" stroke="#220E6E" stroke-linejoin="round"/>
</g>
<defs>
<linearGradient id="paint0_linear_361_9587" x1="-35.0241" y1="230.2" x2="255.846" y2="201.333" gradientUnits="userSpaceOnUse">
<stop stop-color="#55D6FF" stop-opacity="0"/>
<stop offset="0.244792" stop-color="#55D6FF" stop-opacity="0.08"/>
<stop offset="0.5" stop-color="#55D6FF" stop-opacity="0.28"/>
<stop offset="1" stop-color="#55D6FF"/>
</linearGradient>
<linearGradient id="paint1_linear_361_9587" x1="6.06271" y1="140.475" x2="273.918" y2="113.892" gradientUnits="userSpaceOnUse">
<stop stop-color="#55D6FF" stop-opacity="0"/>
<stop offset="0.244792" stop-color="#55D6FF" stop-opacity="0.08"/>
<stop offset="0.5" stop-color="#55D6FF" stop-opacity="0.28"/>
<stop offset="1" stop-color="#55D6FF"/>
</linearGradient>
<linearGradient id="paint2_linear_361_9587" x1="225.592" y1="185.361" x2="452.697" y2="161.942" gradientUnits="userSpaceOnUse">
<stop stop-color="#2C71BB"/>
<stop offset="1" stop-color="#82B0DB"/>
</linearGradient>
<linearGradient id="paint3_linear_361_9587" x1="329.548" y1="132.702" x2="322.106" y2="60.535" gradientUnits="userSpaceOnUse">
<stop stop-color="#30409B"/>
<stop offset="1" stop-color="#85FFFA"/>
</linearGradient>
<linearGradient id="paint4_linear_361_9587" x1="126.027" y1="139.028" x2="553.15" y2="94.9821" gradientUnits="userSpaceOnUse">
<stop stop-color="#2868E4"/>
<stop offset="1" stop-color="#5CC3D1"/>
</linearGradient>
<linearGradient id="paint5_linear_361_9587" x1="226.087" y1="190.149" x2="475.733" y2="164.405" gradientUnits="userSpaceOnUse">
<stop stop-color="#3036AF"/>
<stop offset="1" stop-color="#3C70CC"/>
</linearGradient>
<linearGradient id="paint6_linear_361_9587" x1="347.261" y1="188.58" x2="332.59" y2="46.3177" gradientUnits="userSpaceOnUse">
<stop stop-color="#4330AF"/>
<stop offset="1" stop-color="#3C62CC"/>
</linearGradient>
<linearGradient id="paint7_linear_361_9587" x1="123.104" y1="88.9633" x2="341.132" y2="66.4797" gradientUnits="userSpaceOnUse">
<stop stop-color="#2868E4"/>
<stop offset="1" stop-color="#5CC3D1"/>
</linearGradient>
<linearGradient id="paint8_linear_361_9587" x1="167.657" y1="61.5565" x2="296.134" y2="48.3076" gradientUnits="userSpaceOnUse">
<stop stop-color="#59AEEB"/>
<stop offset="1" stop-color="#69FFF9"/>
</linearGradient>
<linearGradient id="paint9_linear_361_9587" x1="174.572" y1="50.9879" x2="293.763" y2="38.6965" gradientUnits="userSpaceOnUse">
<stop stop-color="#2868E4"/>
<stop offset="1" stop-color="#5CC3D1"/>
</linearGradient>
<linearGradient id="paint10_linear_361_9587" x1="272.467" y1="20.9706" x2="306.028" y2="17.5097" gradientUnits="userSpaceOnUse">
<stop stop-color="#30409B"/>
<stop offset="1" stop-color="#559DCC"/>
</linearGradient>
<linearGradient id="paint11_linear_361_9587" x1="155.309" y1="208.521" x2="151.424" y2="170.847" gradientUnits="userSpaceOnUse">
<stop stop-color="#5638CF"/>
<stop offset="1" stop-color="#341D97"/>
</linearGradient>
<linearGradient id="paint12_linear_361_9587" x1="194.994" y1="212.644" x2="193.306" y2="196.273" gradientUnits="userSpaceOnUse">
<stop stop-color="#5638CF"/>
<stop offset="1" stop-color="#341D97"/>
</linearGradient>
<linearGradient id="paint13_linear_361_9587" x1="199.26" y1="221.732" x2="197.195" y2="213.317" gradientUnits="userSpaceOnUse">
<stop stop-color="#3C23CC"/>
<stop offset="1" stop-color="#6843CE"/>
</linearGradient>
<linearGradient id="paint14_linear_361_9587" x1="157.789" y1="210.329" x2="152.126" y2="187.251" gradientUnits="userSpaceOnUse">
<stop stop-color="#3C23CC"/>
<stop offset="1" stop-color="#6843CE"/>
</linearGradient>
<linearGradient id="paint15_linear_361_9587" x1="186.197" y1="177.262" x2="184.261" y2="158.482" gradientUnits="userSpaceOnUse">
<stop stop-color="#5638CF"/>
<stop offset="1" stop-color="#341D97"/>
</linearGradient>
<linearGradient id="paint16_linear_361_9587" x1="188.747" y1="180.768" x2="185.233" y2="166.448" gradientUnits="userSpaceOnUse">
<stop stop-color="#3C23CC"/>
<stop offset="1" stop-color="#6843CE"/>
</linearGradient>
<linearGradient id="paint17_linear_361_9587" x1="320.392" y1="52.4903" x2="343.15" y2="50.2317" gradientUnits="userSpaceOnUse">
<stop stop-color="#3A16C1"/>
<stop offset="1" stop-color="#4927B8"/>
</linearGradient>
<linearGradient id="paint18_linear_361_9587" x1="330.665" y1="56.5508" x2="360.205" y2="53.6191" gradientUnits="userSpaceOnUse">
<stop stop-color="#391681"/>
<stop offset="1" stop-color="#33278D"/>
</linearGradient>
<linearGradient id="paint19_linear_361_9587" x1="351.911" y1="54.4425" x2="360.654" y2="53.5748" gradientUnits="userSpaceOnUse">
<stop stop-color="#3C23CC"/>
<stop offset="1" stop-color="#6843CE"/>
</linearGradient>
<linearGradient id="paint20_linear_361_9587" x1="366.735" y1="182.067" x2="357.881" y2="92.8514" gradientUnits="userSpaceOnUse">
<stop stop-color="#23247C"/>
<stop offset="1" stop-color="#2767BF"/>
</linearGradient>
<linearGradient id="paint21_linear_361_9587" x1="371.525" y1="178.183" x2="363.591" y2="98.241" gradientUnits="userSpaceOnUse">
<stop stop-color="#2C2EAF"/>
<stop offset="1" stop-color="#3C8FCC"/>
</linearGradient>
<linearGradient id="paint22_linear_361_9587" x1="174.435" y1="72.9484" x2="336.537" y2="56.8608" gradientUnits="userSpaceOnUse">
<stop stop-color="#2C8AE4"/>
<stop offset="1" stop-color="#46A4D1"/>
</linearGradient>
<linearGradient id="paint23_linear_361_9587" x1="248.32" y1="113.073" x2="242.316" y2="52.5783" gradientUnits="userSpaceOnUse">
<stop stop-color="#3093FB"/>
<stop offset="1" stop-color="#00D8F4"/>
</linearGradient>
<linearGradient id="paint24_linear_361_9587" x1="246.618" y1="108.357" x2="241.095" y2="52.6996" gradientUnits="userSpaceOnUse">
<stop stop-color="#5BAAE2"/>
<stop offset="1" stop-color="#55FFF8"/>
</linearGradient>
<linearGradient id="paint25_linear_361_9587" x1="349.707" y1="196.27" x2="347.992" y2="178.993" gradientUnits="userSpaceOnUse">
<stop stop-color="#7DFFFA"/>
<stop offset="1" stop-color="#30A7FB"/>
</linearGradient>
<linearGradient id="paint26_linear_361_9587" x1="231.282" y1="158.066" x2="263.008" y2="154.918" gradientUnits="userSpaceOnUse">
<stop stop-color="#2C8AE4"/>
<stop offset="1" stop-color="#46A4D1"/>
</linearGradient>
<linearGradient id="paint27_linear_361_9587" x1="406.564" y1="107.95" x2="463.507" y2="102.299" gradientUnits="userSpaceOnUse">
<stop stop-color="#2C8AE4"/>
<stop offset="1" stop-color="#46A4D1"/>
</linearGradient>
<linearGradient id="paint28_linear_361_9587" x1="296.347" y1="76.122" x2="344.499" y2="71.3433" gradientUnits="userSpaceOnUse">
<stop stop-color="#2C8AE4"/>
<stop offset="1" stop-color="#46A4D1"/>
</linearGradient>
<linearGradient id="paint29_linear_361_9587" x1="385.191" y1="170.14" x2="430.53" y2="165.64" gradientUnits="userSpaceOnUse">
<stop stop-color="#2C8AE4"/>
<stop offset="1" stop-color="#46A4D1"/>
</linearGradient>
<linearGradient id="paint30_linear_361_9587" x1="194.783" y1="37.2348" x2="271.929" y2="29.5786" gradientUnits="userSpaceOnUse">
<stop stop-color="#2C8AE4"/>
<stop offset="1" stop-color="#46E0D1"/>
</linearGradient>
<linearGradient id="paint31_linear_361_9587" x1="148.43" y1="144.543" x2="146.478" y2="134.853" gradientUnits="userSpaceOnUse">
<stop stop-color="#5638CF"/>
<stop offset="1" stop-color="#341D97"/>
</linearGradient>
<linearGradient id="paint32_linear_361_9587" x1="150.364" y1="142.612" x2="148.479" y2="137.227" gradientUnits="userSpaceOnUse">
<stop stop-color="#3C23CC"/>
<stop offset="1" stop-color="#6843CE"/>
</linearGradient>
<linearGradient id="paint33_linear_361_9587" x1="239.45" y1="211.018" x2="239.449" y2="203.879" gradientUnits="userSpaceOnUse">
<stop stop-color="#5638CF"/>
<stop offset="1" stop-color="#341D97"/>
</linearGradient>
<linearGradient id="paint34_linear_361_9587" x1="238.703" y1="210.073" x2="238.135" y2="205.989" gradientUnits="userSpaceOnUse">
<stop stop-color="#3C23CC"/>
<stop offset="1" stop-color="#6843CE"/>
</linearGradient>
<linearGradient id="paint35_linear_361_9587" x1="416.189" y1="161.773" x2="409.395" y2="93.322" gradientUnits="userSpaceOnUse">
<stop/>
<stop offset="0.15" stop-color="#030306"/>
<stop offset="0.35" stop-color="#0C0F17"/>
<stop offset="0.59" stop-color="#1B2135"/>
<stop offset="0.84" stop-color="#2F3A5D"/>
<stop offset="1" stop-color="#3E4C79"/>
</linearGradient>
<linearGradient id="paint36_linear_361_9587" x1="473.475" y1="140.149" x2="468.403" y2="89.0401" gradientUnits="userSpaceOnUse">
<stop/>
<stop offset="0.15" stop-color="#030306"/>
<stop offset="0.35" stop-color="#0C0F17"/>
<stop offset="0.59" stop-color="#1B2135"/>
<stop offset="0.84" stop-color="#2F3A5D"/>
<stop offset="1" stop-color="#3E4C79"/>
</linearGradient>
<linearGradient id="paint37_linear_361_9587" x1="463.849" y1="86.7981" x2="460.777" y2="55.8435" gradientUnits="userSpaceOnUse">
<stop/>
<stop offset="0.15" stop-color="#030306"/>
<stop offset="0.35" stop-color="#0C0F17"/>
<stop offset="0.59" stop-color="#1B2135"/>
<stop offset="0.84" stop-color="#2F3A5D"/>
<stop offset="1" stop-color="#3E4C79"/>
</linearGradient>
<linearGradient id="paint38_linear_361_9587" x1="249.328" y1="126.671" x2="310.755" y2="120.575" gradientUnits="userSpaceOnUse">
<stop stop-color="#2C8AE4"/>
<stop offset="1" stop-color="#46A4D1"/>
</linearGradient>
<linearGradient id="paint39_linear_361_9587" x1="381.098" y1="137.388" x2="449.291" y2="130.62" gradientUnits="userSpaceOnUse">
<stop stop-color="#D166FB"/>
<stop offset="1" stop-color="#FF98F4"/>
</linearGradient>
<clipPath id="clip0_361_9587">
<rect width="556" height="294" fill="white"/>
</clipPath>
</defs>
</svg>
