<svg width="670" height="564" viewBox="0 0 670 564" fill="none" xmlns="http://www.w3.org/2000/svg">
<path d="M619.11 159.903H614.405C613.819 159.903 613.342 159.427 613.342 158.84C613.342 158.254 613.819 157.778 614.405 157.778H619.11C622.298 157.778 624.889 155.187 624.889 151.999C624.889 148.811 622.298 146.22 619.11 146.22H538.725C535.537 146.22 532.946 148.811 532.946 151.999C532.946 155.187 535.537 157.778 538.725 157.778H578.915C579.501 157.778 579.977 158.254 579.977 158.84C579.977 159.427 579.501 159.903 578.915 159.903H538.725C534.37 159.903 530.82 156.359 530.82 151.999C530.82 147.639 534.364 144.094 538.725 144.094H619.11C623.465 144.094 627.014 147.639 627.014 151.999C627.014 156.359 623.47 159.903 619.11 159.903Z" fill="#EDEDED"/>
<path d="M614.404 159.903C613.817 159.903 613.341 159.427 613.341 158.84C613.341 158.254 613.817 157.778 614.404 157.778C617.592 157.778 620.183 155.187 620.183 151.999C620.183 148.811 617.592 146.22 614.404 146.22H543.429C540.241 146.22 537.65 148.811 537.65 151.999C537.65 155.187 540.241 157.778 543.429 157.778H578.919C579.505 157.778 579.982 158.254 579.982 158.84C579.982 159.427 579.505 159.903 578.919 159.903H543.429C539.074 159.903 535.524 156.359 535.524 151.999C535.524 147.639 539.068 144.094 543.429 144.094H614.404C618.758 144.094 622.308 147.639 622.308 151.999C622.308 156.359 618.764 159.903 614.404 159.903V159.903Z" fill="#EDEDED"/>
<path d="M661.868 187.27H656.084C655.497 187.27 655.021 186.793 655.021 186.207C655.021 185.621 655.497 185.145 656.084 185.145H661.868C665.056 185.145 667.647 182.554 667.647 179.366C667.647 176.177 665.056 173.587 661.868 173.587H610.131C609.545 173.587 609.068 173.11 609.068 172.524C609.068 171.938 609.545 171.461 610.131 171.461H661.868C666.223 171.461 669.772 175.005 669.772 179.366C669.772 183.726 666.228 187.27 661.868 187.27Z" fill="#EDEDED"/>
<path d="M657.162 173.587H607.72C603.365 173.587 599.815 170.042 599.815 165.682C599.815 161.322 603.36 157.778 607.72 157.778H614.403C614.989 157.778 615.465 158.254 615.465 158.841C615.465 159.427 614.989 159.903 614.403 159.903H607.72C604.532 159.903 601.941 162.494 601.941 165.682C601.941 168.87 604.532 171.461 607.72 171.461H657.162C657.748 171.461 658.224 171.938 658.224 172.524C658.224 173.11 657.748 173.587 657.162 173.587Z" fill="#EDEDED"/>
<path d="M659.267 173.587H612.427C608.072 173.587 604.522 170.042 604.522 165.682C604.522 161.322 608.067 157.778 612.427 157.778C613.013 157.778 613.489 158.254 613.489 158.841C613.489 159.427 613.013 159.903 612.427 159.903C609.239 159.903 606.648 162.494 606.648 165.682C606.648 168.87 609.239 171.461 612.427 171.461H659.267C659.853 171.461 660.329 171.938 660.329 172.524C660.329 173.11 659.853 173.587 659.267 173.587Z" fill="#EDEDED"/>
<path d="M482.544 200.953H477.159C472.804 200.953 469.255 197.409 469.255 193.049C469.255 188.689 472.799 185.145 477.159 185.145H657.168C660.356 185.145 662.947 182.554 662.947 179.366C662.947 176.177 660.356 173.587 657.168 173.587H610.136C609.55 173.587 609.074 173.11 609.074 172.524C609.074 171.938 609.55 171.461 610.136 171.461H657.168C661.523 171.461 665.072 175.005 665.072 179.366C665.072 183.726 661.528 187.27 657.168 187.27H477.159C473.971 187.27 471.38 189.861 471.38 193.049C471.38 196.237 473.971 198.828 477.159 198.828H482.544C483.13 198.828 483.607 199.304 483.607 199.891C483.607 200.477 483.13 200.953 482.544 200.953V200.953Z" fill="#EDEDED"/>
<path d="M603.289 228.386H562.272C557.917 228.386 554.367 224.842 554.367 220.481C554.367 216.121 557.911 212.577 562.272 212.577H567.015C570.203 212.577 572.794 209.986 572.794 206.798C572.794 203.61 570.203 201.019 567.015 201.019H486.635L481.848 200.948C477.504 200.948 473.96 197.404 473.96 193.044C473.96 188.683 477.504 185.139 481.864 185.139H552.839C553.425 185.139 553.902 185.616 553.902 186.202C553.902 186.788 553.425 187.265 552.839 187.265H481.864C478.676 187.265 476.085 189.855 476.085 193.044C476.085 196.232 478.676 198.823 481.864 198.823L486.652 198.894H567.021C571.376 198.894 574.925 202.438 574.925 206.798C574.925 211.158 571.381 214.702 567.021 214.702H562.277C559.089 214.702 556.498 217.293 556.498 220.481C556.498 223.669 559.089 226.26 562.277 226.26H603.294C603.88 226.26 604.357 226.737 604.357 227.323C604.357 227.909 603.88 228.386 603.294 228.386H603.289Z" fill="#EDEDED"/>
<path d="M562.31 214.702C561.724 214.702 561.247 214.226 561.247 213.64C561.247 213.053 561.724 212.577 562.31 212.577C565.498 212.577 568.089 209.986 568.089 206.798C568.089 203.61 565.498 201.019 562.31 201.019H491.335C490.749 201.019 490.272 200.542 490.272 199.956C490.272 199.37 490.749 198.894 491.335 198.894H562.31C566.665 198.894 570.214 202.438 570.214 206.798C570.214 211.158 566.67 214.702 562.31 214.702Z" fill="#EDEDED"/>
<path d="M603.289 228.386H557.566C553.212 228.386 549.662 224.842 549.662 220.481C549.662 216.121 553.206 212.577 557.566 212.577H562.31C562.896 212.577 563.373 213.053 563.373 213.64C563.373 214.226 562.896 214.702 562.31 214.702H557.566C554.378 214.702 551.787 217.293 551.787 220.481C551.787 223.669 554.378 226.26 557.566 226.26H603.289C603.875 226.26 604.352 226.737 604.352 227.323C604.352 227.909 603.875 228.386 603.289 228.386Z" fill="#EDEDED"/>
<path d="M607.994 242.064H539.583C538.997 242.064 538.521 241.587 538.521 241.001C538.521 240.415 538.997 239.938 539.583 239.938H607.994C611.182 239.938 613.773 237.347 613.773 234.159C613.773 230.971 611.182 228.38 607.994 228.38H562.272C561.686 228.38 561.209 227.904 561.209 227.318C561.209 226.731 561.686 226.255 562.272 226.255H607.994C612.349 226.255 615.899 229.799 615.899 234.159C615.899 238.519 612.355 242.064 607.994 242.064Z" fill="#EDEDED"/>
<path d="M603.289 242.064H539.583C538.997 242.064 538.521 241.587 538.521 241.001C538.521 240.415 538.997 239.938 539.583 239.938H603.289C606.477 239.938 609.068 237.347 609.068 234.159C609.068 230.971 606.477 228.38 603.289 228.38H559.955C559.369 228.38 558.892 227.904 558.892 227.318C558.892 226.731 559.369 226.255 559.955 226.255H603.289C607.644 226.255 611.193 229.799 611.193 234.159C611.193 238.519 607.649 242.064 603.289 242.064Z" fill="#EDEDED"/>
<path d="M603.289 255.747H534.878C530.523 255.747 526.974 252.203 526.974 247.842C526.974 243.482 530.518 239.938 534.878 239.938H603.289C603.875 239.938 604.352 240.415 604.352 241.001C604.352 241.587 603.875 242.063 603.289 242.063H534.878C531.69 242.063 529.099 244.654 529.099 247.842C529.099 251.03 531.69 253.621 534.878 253.621H603.289C603.875 253.621 604.352 254.098 604.352 254.684C604.352 255.27 603.875 255.747 603.289 255.747Z" fill="#EDEDED"/>
<path d="M605.584 255.747H539.583C535.223 255.747 531.679 252.203 531.679 247.842C531.679 243.482 535.223 239.938 539.583 239.938H605.584C606.17 239.938 606.647 240.415 606.647 241.001C606.647 241.587 606.17 242.063 605.584 242.063H539.583C536.395 242.063 533.804 244.654 533.804 247.842C533.804 251.03 536.395 253.621 539.583 253.621H605.584C606.17 253.621 606.647 254.098 606.647 254.684C606.647 255.27 606.17 255.747 605.584 255.747Z" fill="#EDEDED"/>
<path d="M255.119 177.322H206.504C202.369 177.322 199 173.953 199 169.818C199 165.682 202.369 162.313 206.504 162.313H211.944C212.535 162.313 213.017 162.795 213.017 163.387C213.017 163.978 212.535 164.461 211.944 164.461H206.504C203.552 164.461 201.153 166.86 201.153 169.812C201.153 172.765 203.552 175.164 206.504 175.164H255.119C255.711 175.164 256.193 175.646 256.193 176.238C256.193 176.829 255.711 177.311 255.119 177.311V177.322Z" fill="#EDEDED"/>
<path d="M234.173 177.322H208.948C208.356 177.322 207.874 176.84 207.874 176.249C207.874 175.657 208.356 175.175 208.948 175.175H234.173C234.764 175.175 235.246 175.657 235.246 176.249C235.246 176.84 234.764 177.322 234.173 177.322Z" fill="#EDEDED"/>
<path d="M234.172 177.322H210.924C206.789 177.322 203.42 173.954 203.42 169.818C203.42 165.682 206.789 162.313 210.924 162.313H380.082C383.034 162.313 385.433 159.914 385.433 156.962C385.433 154.009 383.034 151.61 380.082 151.61H375.02C374.429 151.61 373.947 151.128 373.947 150.536C373.947 149.945 374.429 149.463 375.02 149.463H380.082C384.217 149.463 387.586 152.831 387.586 156.967C387.586 161.103 384.217 164.472 380.082 164.472H210.924C207.972 164.472 205.573 166.871 205.573 169.823C205.573 172.776 207.972 175.175 210.924 175.175H234.172C234.763 175.175 235.245 175.657 235.245 176.249C235.245 176.84 234.763 177.322 234.172 177.322Z" fill="#EDEDED"/>
<path d="M375.661 164.466H308.965C308.373 164.466 307.891 163.984 307.891 163.392C307.891 162.801 308.373 162.319 308.965 162.319H375.661C378.614 162.319 381.013 159.92 381.013 156.967C381.013 154.015 378.614 151.615 375.661 151.615L371.164 151.55H295.643C291.507 151.55 288.138 148.181 288.138 144.045C288.138 139.909 291.507 136.541 295.643 136.541H300.102C303.054 136.541 305.453 134.141 305.453 131.189C305.453 128.236 303.054 125.837 300.102 125.837H261.555C260.963 125.837 260.481 125.355 260.481 124.764C260.481 124.172 260.963 123.69 261.555 123.69H300.102C304.237 123.69 307.606 127.053 307.606 131.194C307.606 135.336 304.237 138.699 300.102 138.699H295.643C292.69 138.699 290.291 141.098 290.291 144.051C290.291 147.003 292.69 149.402 295.643 149.402H371.181L375.678 149.468C379.803 149.468 383.166 152.837 383.166 156.973C383.166 161.108 379.797 164.477 375.661 164.477V164.466Z" fill="#EDEDED"/>
<path d="M366.755 151.544H300.058C295.923 151.544 292.554 148.175 292.554 144.04C292.554 139.904 295.923 136.535 300.058 136.535C300.65 136.535 301.132 137.017 301.132 137.609C301.132 138.2 300.65 138.682 300.058 138.682C297.106 138.682 294.706 141.082 294.706 144.034C294.706 146.987 297.106 149.386 300.058 149.386H366.755C367.346 149.386 367.828 149.868 367.828 150.46C367.828 151.051 367.346 151.533 366.755 151.533V151.544Z" fill="#EDEDED"/>
<path d="M304.517 138.688H300.059C299.467 138.688 298.985 138.206 298.985 137.614C298.985 137.023 299.467 136.541 300.059 136.541H304.517C307.47 136.541 309.869 134.141 309.869 131.189C309.869 128.236 307.47 125.837 304.517 125.837H261.55C260.959 125.837 260.477 125.355 260.477 124.764C260.477 124.172 260.959 123.69 261.55 123.69H304.517C308.653 123.69 312.022 127.053 312.022 131.194C312.022 135.336 308.653 138.699 304.517 138.699V138.688Z" fill="#EDEDED"/>
<path d="M270.955 125.826H227.988C223.852 125.826 220.483 122.458 220.483 118.322C220.483 114.186 223.852 110.817 227.988 110.817H292.274C292.866 110.817 293.348 111.299 293.348 111.891C293.348 112.483 292.866 112.965 292.274 112.965H227.988C225.035 112.965 222.636 115.364 222.636 118.316C222.636 121.269 225.035 123.668 227.988 123.668H270.955C271.547 123.668 272.029 124.15 272.029 124.742C272.029 125.333 271.547 125.815 270.955 125.815V125.826Z" fill="#EDEDED"/>
<path d="M273.129 125.826H232.408C228.272 125.826 224.903 122.458 224.903 118.322C224.903 114.186 228.272 110.817 232.408 110.817H292.274C292.865 110.817 293.347 111.299 293.347 111.891C293.347 112.483 292.865 112.965 292.274 112.965H232.408C229.455 112.965 227.056 115.364 227.056 118.316C227.056 121.269 229.455 123.668 232.408 123.668H273.129C273.721 123.668 274.203 124.15 274.203 124.742C274.203 125.333 273.721 125.815 273.129 125.815V125.826Z" fill="#EDEDED"/>
<path d="M488.668 1H480.528V32.6064H488.668V1Z" fill="#EDEDED"/>
<path d="M488.668 38.3524H480.528V70.4354H488.668V38.3524Z" fill="#EDEDED"/>
<path d="M488.668 78.5754H480.528V109.7H488.668V78.5754Z" fill="#EDEDED"/>
<path d="M488.668 117.127H480.528V166.213H488.668V117.127Z" fill="#EDEDED"/>
<path d="M503.995 13.2098H496.332V41.4639H503.995V13.2098Z" fill="#EDEDED"/>
<path d="M503.995 49.6038H496.332V94.1376H503.995V49.6038Z" fill="#EDEDED"/>
<path d="M503.995 100.125H496.332V124.309H503.995V100.125Z" fill="#EDEDED"/>
<path d="M503.995 130.772H496.332V166.208H503.995V130.772Z" fill="#EDEDED"/>
<path d="M518.357 52.4795H510.458V86.0031H518.357V52.4795Z" fill="#EDEDED"/>
<path d="M518.357 93.1846H510.458V131.731H518.357V93.1846Z" fill="#EDEDED"/>
<path d="M518.357 139.394H510.458V166.213H518.357V139.394Z" fill="#EDEDED"/>
<path d="M452.274 49.6036C452.274 49.6036 457.78 60.6193 476.459 62.2955C476.459 62.2955 466.401 48.886 452.274 49.6036Z" fill="#EDEDED"/>
<path d="M468.554 38.3524C468.554 38.3524 466.878 49.6036 476.453 57.267C476.453 57.267 479.329 46.9689 468.554 38.3524Z" fill="#EDEDED"/>
<path d="M464.369 85.9976C464.369 85.9976 461.592 101.083 476.809 114.011C476.809 114.011 475.982 94.614 464.369 85.9976V85.9976Z" fill="#EDEDED"/>
<path d="M446.77 112.461C446.77 112.461 464.249 108.511 476.459 118.086C476.459 118.086 458.503 122.156 446.77 112.461Z" fill="#EDEDED"/>
<path d="M458.979 129.578C458.979 129.578 464.248 119.28 476.458 120.956C476.458 120.956 474.305 127.902 458.979 129.578Z" fill="#EDEDED"/>
<path d="M506.63 27.3368C506.63 27.3368 516.928 7.22258 529.614 6.02844C529.614 6.02844 521.716 24.2254 506.63 27.3368Z" fill="#EDEDED"/>
<path d="M510.458 30.2127C510.458 30.2127 527.937 21.5907 540.865 27.3369C540.865 27.3369 529.132 34.2826 510.458 30.2127Z" fill="#EDEDED"/>
<path d="M508.307 34.0416C508.307 34.0416 521.716 30.9302 528.18 40.0287C528.18 40.0287 515.252 41.7049 508.307 34.0416Z" fill="#EDEDED"/>
<path d="M523.627 78.5754C523.627 78.5754 524.827 66.3656 536.078 62.2957C536.078 62.2957 533.684 73.3113 523.627 78.5754Z" fill="#EDEDED"/>
<path d="M523.627 80.0161C523.627 80.0161 535.36 67.8063 547.57 71.8763C547.57 71.8763 538.472 79.5396 523.627 80.0161Z" fill="#EDEDED"/>
<path d="M523.627 84.0862C523.627 84.0862 548.052 79.0577 554.034 88.3972C554.034 88.3972 536.795 91.7496 523.627 84.0862Z" fill="#EDEDED"/>
<path d="M184.822 563.76H80.7513C74.9723 563.76 70.2725 559.06 70.2725 553.281C70.2725 547.502 74.9723 542.802 80.7513 542.802H86.8426C87.7409 542.802 88.464 543.53 88.464 544.423C88.464 545.316 87.7354 546.045 86.8426 546.045H80.7513C76.7636 546.045 73.5153 549.287 73.5153 553.281C73.5153 557.274 76.7636 560.517 80.7513 560.517H184.822C188.81 560.517 192.059 557.268 192.059 553.281C192.059 549.293 188.816 546.045 184.822 546.045H132.79C131.891 546.045 131.168 545.316 131.168 544.423C131.168 543.53 131.897 542.802 132.79 542.802H184.822C190.601 542.802 195.301 547.502 195.301 553.281C195.301 559.06 190.601 563.76 184.822 563.76V563.76Z" fill="#EDEDED"/>
<path d="M178.731 563.76H86.8422C81.0632 563.76 76.3633 559.06 76.3633 553.281C76.3633 547.502 81.0632 542.802 86.8422 542.802C87.7405 542.802 88.4636 543.53 88.4636 544.423C88.4636 545.316 87.735 546.045 86.8422 546.045C82.8544 546.045 79.6061 549.287 79.6061 553.281C79.6061 557.274 82.8489 560.517 86.8422 560.517H178.731C182.719 560.517 185.967 557.268 185.967 553.281C185.967 549.293 182.719 546.045 178.731 546.045H132.784C131.885 546.045 131.162 545.316 131.162 544.423C131.162 543.53 131.891 542.802 132.784 542.802H178.731C184.51 542.802 189.21 547.502 189.21 553.281C189.21 559.06 184.51 563.76 178.731 563.76V563.76Z" fill="#EDEDED"/>
<path d="M115.55 421.958H109.459C108.56 421.958 107.837 421.229 107.837 420.336C107.837 419.443 108.566 418.715 109.459 418.715H115.55C119.538 418.715 122.786 415.472 122.786 411.479C122.786 407.486 119.538 404.243 115.55 404.243H11.4789C7.49109 404.243 4.24281 407.486 4.24281 411.479C4.24281 415.472 7.49109 418.715 11.4789 418.715H63.5117C64.41 418.715 65.1331 419.443 65.1331 420.336C65.1331 421.229 64.4046 421.958 63.5117 421.958H11.4789C5.69988 421.958 1 417.258 1 411.479C1 405.7 5.69988 401 11.4789 401H115.55C121.329 401 126.029 405.7 126.029 411.479C126.029 417.258 121.329 421.958 115.55 421.958Z" fill="#EDEDED"/>
<path d="M109.458 421.958C108.56 421.958 107.837 421.229 107.837 420.336C107.837 419.443 108.566 418.715 109.458 418.715C113.446 418.715 116.694 415.472 116.694 411.479C116.694 407.486 113.446 404.243 109.458 404.243H17.5697C13.5819 404.243 10.3336 407.486 10.3336 411.479C10.3336 415.472 13.5764 418.715 17.5697 418.715H63.5113C64.4096 418.715 65.1327 419.443 65.1327 420.336C65.1327 421.229 64.4042 421.958 63.5113 421.958H17.5697C11.7907 421.958 7.09082 417.258 7.09082 411.479C7.09082 405.7 11.7907 401 17.5697 401H109.458C115.237 401 119.937 405.7 119.937 411.479C119.937 417.258 115.237 421.958 109.458 421.958Z" fill="#EDEDED"/>
<path d="M92.3803 528.335H25.3988C19.6198 528.335 14.9199 523.635 14.9199 517.856C14.9199 512.077 19.6198 507.377 25.3988 507.377H32.8923C33.7907 507.377 34.5137 508.106 34.5137 508.999C34.5137 509.892 33.7852 510.62 32.8923 510.62H25.3988C21.411 510.62 18.1627 513.863 18.1627 517.856C18.1627 521.85 21.411 525.092 25.3988 525.092H92.3803C93.2787 525.092 94.0017 525.821 94.0017 526.714C94.0017 527.607 93.2732 528.335 92.3803 528.335Z" fill="#EDEDED"/>
<path d="M95.4967 546.044H86.8419C85.9436 546.044 85.2205 545.316 85.2205 544.423C85.2205 543.53 85.949 542.802 86.8419 542.802H95.4967C99.4845 542.802 102.733 539.559 102.733 535.566C102.733 531.572 99.4899 528.33 95.4967 528.33H31.4896C30.5912 528.33 29.8682 527.601 29.8682 526.708C29.8682 525.815 30.5967 525.087 31.4896 525.087H95.4967C101.276 525.087 105.976 529.787 105.976 535.566C105.976 541.345 101.276 546.044 95.4967 546.044Z" fill="#EDEDED"/>
<path d="M89.4048 546.044C88.5065 546.044 87.7834 545.316 87.7834 544.423C87.7834 543.53 88.512 542.802 89.4048 542.802C93.3926 542.802 96.6409 539.559 96.6409 535.566C96.6409 531.572 93.3926 528.33 89.4048 528.33H28.7611C27.8627 528.33 27.1396 527.601 27.1396 526.708C27.1396 525.815 27.8682 525.087 28.7611 525.087H89.4048C95.1838 525.087 99.8837 529.787 99.8837 535.566C99.8837 541.345 95.1838 546.044 89.4048 546.044Z" fill="#EDEDED"/>
<path d="M92.3786 528.335H31.4828C25.7038 528.335 21.0039 523.635 21.0039 517.856C21.0039 512.077 25.7038 507.377 31.4828 507.377H264.532C268.52 507.377 271.768 504.129 271.768 500.141C271.768 496.153 268.52 492.905 264.532 492.905H257.559C256.661 492.905 255.938 492.177 255.938 491.284C255.938 490.391 256.666 489.662 257.559 489.662H264.532C270.311 489.662 275.011 494.362 275.011 500.141C275.011 505.92 270.311 510.62 264.532 510.62H31.4828C27.495 510.62 24.2467 513.863 24.2467 517.856C24.2467 521.849 27.4895 525.092 31.4828 525.092H92.3731C93.2714 525.092 93.9945 525.821 93.9945 526.714C93.9945 527.606 93.2659 528.335 92.3731 528.335H92.3786Z" fill="#EDEDED"/>
<path d="M258.446 510.62H166.557C165.659 510.62 164.936 509.891 164.936 508.999C164.936 508.106 165.665 507.377 166.557 507.377H258.446C262.434 507.377 265.682 504.129 265.682 500.141C265.682 496.153 262.434 492.905 258.446 492.905L252.245 492.817H148.202C142.423 492.817 137.723 488.118 137.723 482.339C137.723 476.56 142.423 471.86 148.202 471.86H154.342C158.33 471.86 161.578 468.611 161.578 464.624C161.578 460.636 158.33 457.388 154.342 457.388H101.236C100.337 457.388 99.6143 456.659 99.6143 455.766C99.6143 454.873 100.343 454.145 101.236 454.145H154.342C160.121 454.145 164.821 458.845 164.821 464.624C164.821 470.403 160.121 475.103 154.342 475.103H148.202C144.214 475.103 140.966 478.345 140.966 482.339C140.966 486.332 144.208 489.575 148.202 489.575H252.273L258.474 489.662C264.231 489.662 268.93 494.362 268.93 500.141C268.93 505.92 264.231 510.62 258.452 510.62H258.446Z" fill="#EDEDED"/>
<path d="M246.177 492.818H154.288C148.509 492.818 143.81 488.118 143.81 482.339C143.81 476.56 148.509 471.86 154.288 471.86C155.187 471.86 155.91 472.588 155.91 473.481C155.91 474.374 155.181 475.103 154.288 475.103C150.301 475.103 147.052 478.345 147.052 482.339C147.052 486.332 150.301 489.575 154.288 489.575H246.177C247.075 489.575 247.799 490.303 247.799 491.196C247.799 492.089 247.07 492.818 246.177 492.818V492.818Z" fill="#EDEDED"/>
<path d="M160.428 475.103H154.287C153.389 475.103 152.666 474.374 152.666 473.481C152.666 472.588 153.394 471.86 154.287 471.86H160.428C164.416 471.86 167.664 468.611 167.664 464.624C167.664 460.636 164.421 457.388 160.428 457.388H101.236C100.337 457.388 99.6143 456.659 99.6143 455.766C99.6143 454.873 100.343 454.145 101.236 454.145H160.428C166.207 454.145 170.907 458.845 170.907 464.624C170.907 470.403 166.207 475.103 160.428 475.103V475.103Z" fill="#EDEDED"/>
<path d="M154.337 457.388H95.1449C89.3659 457.388 84.666 452.688 84.666 446.909C84.666 441.13 89.3659 436.43 95.1449 436.43H183.714C184.612 436.43 185.335 437.158 185.335 438.051C185.335 438.944 184.607 439.673 183.714 439.673H95.1449C91.1571 439.673 87.9088 442.921 87.9088 446.909C87.9088 450.897 91.1571 454.145 95.1449 454.145H154.337C155.235 454.145 155.958 454.873 155.958 455.766C155.958 456.659 155.23 457.388 154.337 457.388V457.388Z" fill="#EDEDED"/>
<path d="M157.334 457.388H101.231C95.4518 457.388 90.752 452.688 90.752 446.909C90.752 441.13 95.4518 436.43 101.231 436.43H183.714C184.613 436.43 185.336 437.158 185.336 438.051C185.336 438.944 184.607 439.673 183.714 439.673H101.236C97.2485 439.673 94.0002 442.921 94.0002 446.909C94.0002 450.897 97.2485 454.145 101.236 454.145H157.339C158.237 454.145 158.96 454.873 158.96 455.766C158.96 456.659 158.232 457.388 157.339 457.388H157.334Z" fill="#EDEDED"/>
<path d="M189.805 439.673H101.231C100.332 439.673 99.6094 438.944 99.6094 438.051C99.6094 437.158 100.338 436.43 101.231 436.43H189.8C193.788 436.43 197.036 433.187 197.036 429.194C197.036 425.2 193.788 421.958 189.8 421.958H101.231C100.332 421.958 99.6094 421.229 99.6094 420.336C99.6094 419.443 100.338 418.715 101.231 418.715H189.8C195.579 418.715 200.279 423.415 200.279 429.194C200.279 434.973 195.579 439.673 189.8 439.673H189.805Z" fill="#EDEDED"/>
<path d="M183.714 439.673H98.262C97.3637 439.673 96.6406 438.944 96.6406 438.051C96.6406 437.158 97.3692 436.43 98.262 436.43H183.714C187.702 436.43 190.95 433.187 190.95 429.194C190.95 425.2 187.702 421.958 183.714 421.958H98.262C97.3637 421.958 96.6406 421.229 96.6406 420.336C96.6406 419.443 97.3692 418.715 98.262 418.715H183.714C189.493 418.715 194.193 423.415 194.193 429.194C194.193 434.973 189.493 439.673 183.714 439.673V439.673Z" fill="#EDEDED"/>
<path d="M343.699 368.28L540.999 257.733L220.897 334.795L343.699 368.28Z" fill="url(#paint0_linear_2330_2006)" stroke="#220E6E"/>
<path d="M381.567 179.769L344.193 452.007L274.795 441.683L361.422 179.769H381.567Z" fill="url(#paint1_linear_2330_2006)" stroke="#220E6E"/>
<path d="M489.801 204.182L387.611 148.55L335.231 179.769L489.801 204.182Z" fill="url(#paint2_linear_2330_2006)" stroke="#220E6E"/>
<path d="M369.481 195.882L381.568 172.72L489.803 204.182L369.481 195.882Z" fill="url(#paint3_linear_2330_2006)" stroke="#220E6E"/>
<path d="M319.656 480.7L381.567 172.72L372.541 161.525L335.233 179.769L274.795 341.908L319.656 480.7Z" fill="url(#paint4_linear_2330_2006)" stroke="#220E6E"/>
<path d="M200.287 455.63L319.656 480.7L308.491 386.688L168.512 345.981L200.287 455.63Z" fill="url(#paint5_linear_2330_2006)" stroke="#220E6E"/>
<path d="M225.408 319.784C225.408 316.753 92.623 17 92.623 17L171.802 356.939L225.408 319.784Z" fill="url(#paint6_linear_2330_2006)" stroke="#220E6E"/>
<path d="M294.752 330.881L207.915 309.758L168.514 351.966L210.15 361.315L308.492 386.688L294.752 330.881Z" fill="url(#paint7_linear_2330_2006)" stroke="#220E6E"/>
<path d="M83 230.503L168.513 351.965L308.491 386.688L83 230.503Z" fill="url(#paint8_linear_2330_2006)" stroke="#220E6E"/>
<defs>
<linearGradient id="paint0_linear_2330_2006" x1="518.992" y1="34.5137" x2="447.994" y2="169.192" gradientUnits="userSpaceOnUse">
<stop stop-color="#E9A194"/>
<stop offset="1" stop-color="#EB867C"/>
</linearGradient>
<linearGradient id="paint1_linear_2330_2006" x1="559.703" y1="224.438" x2="443.383" y2="275.875" gradientUnits="userSpaceOnUse">
<stop stop-color="#CC564E"/>
<stop offset="1" stop-color="#DB746F"/>
</linearGradient>
<linearGradient id="paint2_linear_2330_2006" x1="469.811" y1="-131.671" x2="445.332" y2="6.67045" gradientUnits="userSpaceOnUse">
<stop stop-color="#FF928E"/>
<stop offset="1" stop-color="#F3BCBB"/>
</linearGradient>
<linearGradient id="paint3_linear_2330_2006" x1="469.43" y1="-3.53881" x2="448.621" y2="102.97" gradientUnits="userSpaceOnUse">
<stop stop-color="#F3ABA8"/>
<stop offset="1" stop-color="#ED897F"/>
</linearGradient>
<linearGradient id="paint4_linear_2330_2006" x1="328.018" y1="307.685" x2="277.833" y2="476.634" gradientUnits="userSpaceOnUse">
<stop stop-color="#FF928E"/>
<stop offset="1" stop-color="#FE7062"/>
</linearGradient>
<linearGradient id="paint5_linear_2330_2006" x1="244.084" y1="488.205" x2="244.084" y2="387.818" gradientUnits="userSpaceOnUse">
<stop stop-color="#BE4C44"/>
<stop offset="1" stop-color="#D76F6A"/>
</linearGradient>
<linearGradient id="paint6_linear_2330_2006" x1="84.4185" y1="2.47486" x2="189.684" y2="312.219" gradientUnits="userSpaceOnUse">
<stop stop-color="#F4AEAB"/>
<stop offset="1" stop-color="#F4C1BF"/>
</linearGradient>
<linearGradient id="paint7_linear_2330_2006" x1="316.325" y1="200.744" x2="294.292" y2="248.493" gradientUnits="userSpaceOnUse">
<stop stop-color="#AD5B56"/>
<stop offset="1" stop-color="#E25D57"/>
</linearGradient>
<linearGradient id="paint8_linear_2330_2006" x1="229.316" y1="102.886" x2="172.399" y2="451.81" gradientUnits="userSpaceOnUse">
<stop stop-color="#EBAFAD"/>
<stop offset="1" stop-color="#ED8F86"/>
</linearGradient>
</defs>
</svg>
