<svg width="912" height="114" viewBox="0 0 912 114" fill="none" xmlns="http://www.w3.org/2000/svg">
<g clip-path="url(#clip0_2340_2088)">
<path fill-rule="evenodd" clip-rule="evenodd" d="M0 89.0726L29.4 1H57.5L87 89.0726H64.3L58.5 70.6106H28.4L22.7 89.0726H0ZM43.1 23.2956L33.4 54.469H53.5L43.8 23.2956H43.1ZM378.6 61.9345C378.6 64.4566 378.2 66.5752 377.4 68.2903C376.7 70.0053 375.6 71.3168 374.2 72.2248C372.8 73.1328 371.1 73.5363 369.1 73.5363C367.2 73.5363 365.5 73.1328 364.1 72.3257C362.7 71.5186 361.6 70.308 360.8 68.7947C360 67.1805 359.6 65.2637 359.5 62.9434H338.5C338.5 69.1982 339.8 74.4443 342.4 78.4797C345 82.5151 348.6 85.5416 353 87.4584C357.5 89.3752 362.4 90.3841 367.9 90.3841C374.1 90.3841 379.5 89.1735 384.2 86.8531C388.9 84.5328 392.6 81.2035 395.3 76.9664C398 72.7292 399.3 67.685 399.3 62.0354V1H378.5V61.9345H378.6ZM307.8 22.1858C304.2 22.1858 301.1 23.2956 298.4 25.4142C295.7 27.5327 293.8 30.7611 292.6 35.0991H291.9V22.9929H271.7V89.0726H292.5V53.2584C292.5 50.6354 293.1 48.315 294.2 46.3982C295.3 44.3805 296.9 42.8673 298.8 41.7575C300.8 40.6478 303 40.0425 305.5 40.0425C306.7 40.0425 308.2 40.1434 309.8 40.3451C311.4 40.5469 312.7 40.8496 313.7 41.1522V22.892C313.025 22.665 312.35 22.5515 311.591 22.4239C311.338 22.3813 311.075 22.3372 310.8 22.2867C309.8 22.1858 308.8 22.1858 307.8 22.1858ZM253.1 27.9362C250.5 26.0194 247.4 24.607 243.9 23.5982C240.4 22.5893 236.5 22.0849 232.4 22.0849C226.5 22.0849 221.5 22.9929 217.4 24.8088C213.3 26.6247 210 29.1469 207.6 32.2743C205.2 35.4017 203.8 39.0336 203.2 43.069L222.4 43.7752C222.9 41.6566 223.9 39.9416 225.6 38.8318C227.3 37.6212 229.5 37.0159 232.2 37.0159C234.8 37.0159 236.8 37.6212 238.3 38.8318C239.8 40.0424 240.6 41.7575 240.6 43.977V44.1787C240.6 45.4902 240.1 46.6 239 47.3062C238 48.0123 236.3 48.6177 234.1 49.0212C232.087 49.3745 229.537 49.6504 226.45 49.9844L226.45 49.9845L226.447 49.9848C226.009 50.0322 225.56 50.0808 225.1 50.1309C221.8 50.4336 218.7 50.938 215.7 51.846C212.8 52.6531 210.2 53.8637 207.9 55.377C205.7 56.9911 203.9 59.0088 202.6 61.5309C201.3 64.0531 200.7 67.1805 200.7 70.8124C200.7 75.1504 201.6 78.7823 203.5 81.7079C205.4 84.5327 207.9 86.7522 211.1 88.1646C214.3 89.577 218 90.2831 222.2 90.2831C225.2 90.2831 228 89.8796 230.4 89.0725C232.8 88.2654 235 87.1557 236.7 85.5416C238.5 84.0283 240 82.1115 241.2 79.892H241.7V89.0725H261.3V44.1787C261.3 40.6478 260.6 37.6212 259.1 34.8973C257.7 32.1734 255.7 29.8531 253.1 27.9362ZM240.7 65.5663C240.7 67.6849 240.2 69.6017 239.1 71.2159C238 72.8301 236.6 74.0407 234.8 75.0495C233 75.9575 231 76.4619 228.7 76.4619C226.3 76.4619 224.3 75.8566 222.8 74.7469C221.3 73.6371 220.5 71.9221 220.5 69.8035C220.5 68.3911 220.9 67.1805 221.6 66.0708C222.3 64.961 223.4 64.1539 224.8 63.4478C226.2 62.7416 227.9 62.338 229.8 62.0354C230.8 61.9345 231.8 61.7327 232.8 61.5309C233.9 61.3292 234.9 61.1274 235.9 60.9256C236.541 60.7963 237.141 60.6255 237.7 60.4663C238.013 60.3773 238.313 60.2918 238.6 60.2194C238.66 60.1993 238.719 60.1796 238.777 60.1602L238.937 60.1072C239.678 59.8616 240.277 59.6632 240.8 59.3115V65.5663H240.7ZM118.7 47.6088L131.3 50.03C137.8 51.3416 142.7 53.3593 145.7 56.3858C149 59.3115 150.6 63.1451 150.6 67.9876C150.6 72.5274 149.2 76.4619 146.6 79.7911C144 83.2212 140.4 85.8442 135.9 87.6601C131.4 89.4761 126.2 90.384 120.3 90.384C111 90.384 103.6 88.3663 98.2 84.5327C92.8 80.5982 89.8 75.4531 89 68.8955L109.7 68.2902C110.1 70.7115 111.3 72.6283 113.2 73.8389C115.1 75.1504 117.5 75.7557 120.5 75.7557C123.2 75.7557 125.3 75.2513 127 74.2424C128.7 73.2336 129.6 71.8212 129.6 70.207C129.5 68.7947 128.9 67.584 127.6 66.6761C126.3 65.7681 124.3 65.0619 121.6 64.5575L110.2 62.338C103.6 61.1274 98.7 58.9079 95.5 55.6796C92.3 52.3504 90.7 48.2141 90.7 43.1699C90.7 38.7309 91.8 34.9982 94.2 31.8708C96.6 28.6424 100 26.2212 104.3 24.607C108.7 22.892 113.8 22.0849 119.7 22.0849C128.6 22.0849 135.6 24.0017 140.7 27.7345C145.8 31.4672 148.7 36.6124 149.2 43.1699L130.1 43.6743C129.9 42.3628 129.4 41.1522 128.5 40.0424C127.6 38.9327 126.4 38.1256 125 37.5203C123.6 36.915 121.9 36.6124 120.1 36.6124C117.7 36.6124 115.6 37.0159 113.9 38.0247C112.2 38.9327 111.4 40.3451 111.4 41.9593C111.3 43.2708 111.8 44.3805 112.9 45.2885C114 46.2973 115.9 47.0035 118.7 47.6088ZM191.5 73.3345L191.23 73.365C190.438 73.4547 189.719 73.5363 189 73.5363C187.9 73.5363 186.9 73.3345 186.1 73.0319C185.3 72.7292 184.7 72.1239 184.3 71.3168C183.9 70.5097 183.7 69.5009 183.7 68.1894V38.5292H195.5V22.9929H183.7V7.25488H162.9V23.0938H154.3V38.5292H162.9V70.6106C162.8 75.0496 163.7 78.7823 165.5 81.708C167.3 84.6336 170 86.8531 173.5 88.2655C177 89.6779 181.2 90.1823 186.1 89.9805C188.6 89.8797 190.7 89.577 192.5 89.1735C194.3 88.7699 195.7 88.3664 196.7 88.0637L193.5 72.931C193.448 72.9442 193.39 72.959 193.328 72.9752L193.328 72.9753C192.913 73.0829 192.282 73.2468 191.5 73.3345ZM818.7 23.5982C822.2 24.607 825.3 26.0194 827.9 27.9362C830.5 29.8531 832.6 32.1734 833.9 34.8973C835.4 37.6212 836.1 40.6478 836.1 44.1787V89.0725H816.5V79.892H816C814.8 82.1115 813.3 84.0283 811.5 85.5416C809.8 87.1557 807.6 88.2654 805.2 89.0725C802.8 89.8796 800 90.2831 797 90.2831C792.8 90.2831 789.1 89.577 785.9 88.1646C782.7 86.7522 780.2 84.5327 778.3 81.7079C776.4 78.7823 775.5 75.1504 775.5 70.8124C775.5 67.1805 776.1 64.0531 777.4 61.5309C778.7 59.0088 780.5 56.9911 782.7 55.377C785 53.8637 787.6 52.6531 790.5 51.846C793.5 50.938 796.6 50.4336 799.9 50.1309C800.361 50.0807 800.811 50.032 801.25 49.9845C804.336 49.6505 806.886 49.3745 808.9 49.0212C811.1 48.6177 812.8 48.0123 813.8 47.3062C814.9 46.6 815.4 45.4902 815.4 44.1787V43.977C815.4 41.7575 814.6 40.0424 813.1 38.8318C811.6 37.6212 809.6 37.0159 807 37.0159C804.3 37.0159 802.1 37.6212 800.4 38.8318C798.7 39.9416 797.7 41.6566 797.2 43.7752L778 43.069C778.6 39.0336 780 35.4017 782.4 32.2743C784.8 29.1469 788.1 26.6247 792.2 24.8088C796.3 22.9929 801.3 22.0849 807.2 22.0849C811.3 22.0849 815.2 22.5893 818.7 23.5982ZM813.9 71.2159C815 69.6017 815.5 67.6849 815.5 65.5663H815.6V59.3115C815.077 59.6632 814.478 59.8616 813.737 60.1072L813.732 60.1089C813.624 60.1445 813.514 60.1812 813.4 60.2194C813.113 60.2918 812.813 60.3773 812.5 60.4663C811.941 60.6255 811.341 60.7963 810.7 60.9256C809.7 61.1274 808.7 61.3292 807.6 61.5309C806.6 61.7327 805.6 61.9345 804.6 62.0354C802.7 62.338 801 62.7416 799.6 63.4478C798.2 64.1539 797.1 64.961 796.4 66.0708C795.7 67.1805 795.3 68.3911 795.3 69.8035C795.3 71.9221 796.1 73.6371 797.6 74.7469C799.1 75.8566 801.1 76.4619 803.5 76.4619C805.8 76.4619 807.8 75.9575 809.6 75.0495C811.4 74.0407 812.8 72.8301 813.9 71.2159ZM733.8 1H712.7V89.0726H770.1V71.8213H733.8V1ZM897.899 25.8177C901.799 28.138 905.099 31.8708 907.499 36.915C909.899 41.9593 911.099 48.315 911.299 56.1841C911.299 63.6495 910.199 69.9044 907.799 74.9486C905.399 79.9929 902.299 83.7256 898.299 86.2478C894.299 88.8708 889.899 90.0814 885.099 90.0814C881.799 90.0814 878.899 89.577 876.499 88.4672C874.099 87.3575 871.999 85.9451 870.399 84.1292C868.699 82.3132 867.499 80.3964 866.599 78.3787H865.999V89.0725H845.399V1.10086H866.199V34.3929H866.599C867.399 32.3752 868.599 30.3575 870.199 28.5416C871.799 26.7256 873.899 25.2124 876.299 24.0017C878.799 22.7911 881.799 22.1858 885.199 22.1858C889.699 22.1858 893.999 23.3964 897.899 25.8177ZM884.299 71.5186C885.999 70.0053 887.399 67.9876 888.299 65.3646C889.299 62.7416 889.699 59.6141 889.699 56.0832C889.699 52.4513 889.199 49.4248 888.299 46.8017C887.399 44.1787 886.099 42.161 884.299 40.7486C882.599 39.3363 880.399 38.6301 877.799 38.6301C875.299 38.6301 873.099 39.3363 871.299 40.7486C869.499 42.161 868.199 44.1787 867.199 46.8017C866.299 49.3239 865.799 52.4513 865.799 56.0832C865.799 59.6141 866.299 62.7416 867.199 65.3646C868.099 67.9876 869.499 70.1062 871.299 71.5186C873.099 72.9309 875.299 73.6371 877.799 73.6371C880.299 73.6371 882.499 72.9309 884.299 71.5186ZM668 25.3133C664.6 23.1947 660.6 22.1858 656 22.1858C651.2 22.1858 647 23.3965 643.5 25.7168C640 28.0372 637.5 31.1646 636.1 35.2H635.4V23.0938H615.6V89.0726H636.4V51.4425C636.4 48.9204 636.9 46.8018 637.8 44.9858C638.7 43.1699 640 41.8584 641.6 40.9504C643.3 39.9416 645.2 39.5381 647.4 39.5381C650.7 39.5381 653.3 40.5469 655.1 42.6655C657 44.6832 657.9 47.6088 657.9 51.2407V89.0726H678.8V47.0035C678.8 42.0602 677.9 37.7221 676 33.9894C674.1 30.2566 671.4 27.331 668 25.3133ZM449.2 23.5982C452.7 24.607 455.8 26.0194 458.4 27.9362C461 29.8531 463 32.1734 464.4 34.8973C465.9 37.6212 466.6 40.6478 466.6 44.1787V89.0725H447V79.892H446.5C445.3 82.1115 443.8 84.0283 442 85.5416C440.3 87.1557 438.1 88.2654 435.7 89.0725C433.3 89.8796 430.5 90.2831 427.5 90.2831C423.3 90.2831 419.6 89.577 416.4 88.1646C413.2 86.7522 410.7 84.5327 408.8 81.7079C406.9 78.7823 406 75.1504 406 70.8124C406 67.1805 406.6 64.0531 407.9 61.5309C409.2 59.0088 411 56.9911 413.2 55.377C415.5 53.8637 418.1 52.6531 421 51.846C424 50.938 427.1 50.4336 430.4 50.1309L430.893 50.0772L431.75 49.9845C434.836 49.6505 437.386 49.3745 439.4 49.0212C441.6 48.6177 443.3 48.0123 444.3 47.3062C445.4 46.6 445.9 45.4902 445.9 44.1787V43.977C445.9 41.7575 445.1 40.0424 443.6 38.8318C442.1 37.6212 440.1 37.0159 437.5 37.0159C434.8 37.0159 432.6 37.6212 430.9 38.8318C429.2 39.9416 428.2 41.6566 427.7 43.7752L408.5 43.069C409.1 39.0336 410.5 35.4017 412.9 32.2743C415.3 29.1469 418.6 26.6247 422.7 24.8088C426.8 22.9929 431.8 22.0849 437.7 22.0849C441.8 22.0849 445.7 22.5893 449.2 23.5982ZM444.3 71.2159C445.4 69.6017 445.9 67.6849 445.9 65.5663H446V59.3115C445.477 59.6632 444.878 59.8616 444.137 60.1072L444.007 60.1504C443.939 60.1729 443.87 60.1959 443.8 60.2194C443.513 60.2918 443.213 60.3772 442.9 60.4663C442.341 60.6254 441.741 60.7963 441.1 60.9256L441.1 60.9257L441.099 60.9258L441.099 60.9258C440.099 61.1275 439.1 61.3292 438 61.5309C437 61.7327 436 61.9345 435 62.0354C433.1 62.338 431.4 62.7416 430 63.4478C428.6 64.1539 427.5 64.961 426.8 66.0708C426.1 67.1805 425.7 68.3911 425.7 69.8035C425.7 71.9221 426.5 73.6371 428 74.7469C429.5 75.8566 431.5 76.4619 433.9 76.4619C436.2 76.4619 438.2 75.9575 440 75.0495C441.8 74.0407 443.2 72.8301 444.3 71.2159ZM528.3 25.8177C524.4 23.3965 520.1 22.1858 515.6 22.1858C512.2 22.1858 509.2 22.7911 506.7 24.0018C504.3 25.2124 502.2 26.7257 500.6 28.5416C499 30.3575 497.8 32.3752 497 34.3929H496.4V22.9929H475.8V113.789H496.6V78.3788H497C497.9 80.3965 499.1 82.3133 500.8 84.1292C502.4 85.9451 504.5 87.3575 506.9 88.4673C509.3 89.577 512.2 90.0814 515.5 90.0814C520.3 90.0814 524.7 88.8708 528.7 86.2478C532.7 83.7257 535.8 79.9929 538.2 74.9487C540.6 69.9044 541.7 63.6496 541.7 56.1841C541.7 48.4159 540.5 42.0602 538 37.0159C535.5 31.8708 532.3 28.2389 528.3 25.8177ZM518.8 65.3646C517.9 67.9876 516.5 70.0053 514.8 71.5186C513 72.931 510.8 73.6372 508.3 73.6372C505.8 73.6372 503.6 72.931 501.8 71.5186C500 70.1062 498.6 67.9876 497.7 65.3646C496.8 62.7416 496.3 59.6142 496.3 56.0832C496.3 52.4513 496.8 49.3239 497.7 46.8018C498.7 44.1788 500 42.1611 501.8 40.7487C503.6 39.3363 505.8 38.6301 508.3 38.6301C510.9 38.6301 513.1 39.3363 514.8 40.7487C516.6 42.1611 517.9 44.1788 518.8 46.8018C519.7 49.4248 520.2 52.4513 520.2 56.0832C520.2 59.6142 519.7 62.7416 518.8 65.3646ZM589.099 23.5982C592.599 24.607 595.699 26.0194 598.299 27.9362C600.899 29.8531 602.899 32.1734 604.299 34.8973C605.799 37.6212 606.499 40.6478 606.499 44.1787V89.0725H586.899V79.892H586.399C585.199 82.1115 583.699 84.0283 581.899 85.5416C580.199 87.1557 577.999 88.2654 575.599 89.0725C573.199 89.8796 570.399 90.2831 567.399 90.2831C563.199 90.2831 559.499 89.577 556.299 88.1646C553.099 86.7522 550.599 84.5327 548.699 81.7079C546.799 78.7823 545.899 75.1504 545.899 70.8124C545.899 67.1805 546.499 64.0531 547.799 61.5309C549.099 59.0088 550.799 56.8902 553.099 55.377C555.399 53.8637 557.999 52.6531 560.899 51.846C563.899 50.938 566.999 50.4336 570.299 50.1309C570.76 50.0807 571.21 50.032 571.649 49.9845C574.736 49.6505 577.286 49.3745 579.299 49.0212C581.499 48.6177 583.199 48.0123 584.199 47.3062C585.299 46.6 585.799 45.4902 585.799 44.1787V43.977C585.799 41.7575 584.999 40.0424 583.499 38.8318C581.999 37.6212 579.999 37.0159 577.399 37.0159C574.699 37.0159 572.499 37.6212 570.799 38.8318C569.099 39.9416 568.099 41.6566 567.599 43.7752L548.399 43.069C548.999 39.0336 550.399 35.4017 552.799 32.2743C555.199 29.1469 558.499 26.6247 562.599 24.8088C566.699 22.9929 571.699 22.0849 577.599 22.0849C581.699 22.0849 585.599 22.5893 589.099 23.5982ZM584.199 71.2159C585.299 69.6017 585.799 67.6849 585.799 65.5663H585.899V59.3115C585.376 59.6632 584.778 59.8617 584.036 60.1072C583.927 60.1434 583.815 60.1806 583.699 60.2194C583.412 60.2918 583.112 60.3772 582.799 60.4663C582.241 60.6254 581.641 60.7963 580.999 60.9256C579.999 61.1274 578.999 61.3292 577.899 61.5309C576.899 61.7327 575.899 61.9345 574.899 62.0354C572.999 62.338 571.299 62.7416 569.899 63.4478C568.499 64.1539 567.399 64.961 566.699 66.0708C565.999 67.1805 565.599 68.3911 565.599 69.8035C565.599 71.9221 566.399 73.6371 567.899 74.7469C569.399 75.8566 571.399 76.4619 573.799 76.4619C576.099 76.4619 578.099 75.9575 579.899 75.0495C581.699 74.0407 583.099 72.8301 584.199 71.2159Z" fill="url(#paint0_linear_2340_2088)"/>
<path d="M29.4 1V0.5H29.0398L28.9257 0.84168L29.4 1ZM0 89.0726L-0.474273 88.9143L-0.69403 89.5726H0V89.0726ZM57.5 1L57.9741 0.841196L57.8598 0.5H57.5V1ZM87 89.0726V89.5726H87.6948L87.4741 88.9138L87 89.0726ZM64.3 89.0726L63.823 89.2224L63.933 89.5726H64.3V89.0726ZM58.5 70.6106L58.977 70.4608L58.867 70.1106H58.5V70.6106ZM28.4 70.6106V70.1106H28.0311L27.9223 70.4631L28.4 70.6106ZM22.7 89.0726V89.5726H23.0689L23.1777 89.2201L22.7 89.0726ZM33.4 54.469L32.9226 54.3205L32.7208 54.969H33.4V54.469ZM43.1 23.2956V22.7956H42.7319L42.6226 23.147L43.1 23.2956ZM53.5 54.469V54.969H54.1792L53.9774 54.3205L53.5 54.469ZM43.8 23.2956L44.2774 23.147L44.1681 22.7956H43.8V23.2956ZM377.4 68.2903L376.947 68.0789L376.942 68.09L376.937 68.1013L377.4 68.2903ZM378.6 61.9345H379.1V61.4345H378.6V61.9345ZM374.2 72.2248L374.472 72.6443L374.472 72.6443L374.2 72.2248ZM364.1 72.3257L363.85 72.7589L363.85 72.7589L364.1 72.3257ZM360.8 68.7947L360.352 69.0168L360.358 69.0284L360.8 68.7947ZM359.5 62.9434L360 62.9218L359.979 62.4434H359.5V62.9434ZM338.5 62.9434V62.4434H338V62.9434H338.5ZM353 87.4584L352.8 87.9168L352.804 87.9184L353 87.4584ZM384.2 86.8531L384.421 87.3015L384.421 87.3015L384.2 86.8531ZM399.3 1H399.8V0.5H399.3V1ZM378.5 1V0.5H378V1H378.5ZM378.5 61.9345H378V62.4345H378.5V61.9345ZM292.6 35.0991V35.5991H292.981L293.082 35.2324L292.6 35.0991ZM291.9 35.0991H291.4V35.5991H291.9V35.0991ZM291.9 22.9929H292.4V22.4929H291.9V22.9929ZM271.7 22.9929V22.4929H271.2V22.9929H271.7ZM271.7 89.0726H271.2V89.5726H271.7V89.0726ZM292.5 89.0726V89.5726H293V89.0726H292.5ZM294.2 46.3982L294.634 46.6472L294.639 46.6376L294.2 46.3982ZM298.8 41.7575L298.558 41.3202L298.548 41.3258L298.8 41.7575ZM313.7 41.1522L313.555 41.6308L314.2 41.8259V41.1522H313.7ZM313.7 22.892H314.2V22.5327L313.86 22.4181L313.7 22.892ZM311.591 22.4239L311.508 22.9169L311.508 22.9169L311.591 22.4239ZM310.8 22.2867L310.89 21.7949L310.871 21.7913L310.85 21.7892L310.8 22.2867ZM243.9 23.5982L243.762 24.0786L243.762 24.0786L243.9 23.5982ZM253.1 27.9362L253.397 27.5338L253.397 27.5338L253.1 27.9362ZM203.2 43.069L202.706 42.9955L202.623 43.5481L203.182 43.5687L203.2 43.069ZM222.4 43.7752L222.382 44.2748L222.792 44.2899L222.887 43.89L222.4 43.7752ZM225.6 38.8318L225.874 39.2505L225.882 39.245L225.89 39.2391L225.6 38.8318ZM239 47.3062L238.73 46.8854L238.721 46.8914L238.712 46.8977L239 47.3062ZM234.1 49.0212L234.187 49.5137L234.19 49.513L234.1 49.0212ZM226.45 49.9844L226.397 49.4873L226.388 49.4883L226.45 49.9844ZM226.45 49.9845L226.504 50.4817L226.512 50.4806L226.45 49.9845ZM226.447 49.9848L226.394 49.4876L226.394 49.4877L226.447 49.9848ZM225.1 50.1309L225.146 50.6289L225.154 50.628L225.1 50.1309ZM215.7 51.846L215.834 52.3278L215.845 52.3245L215.7 51.846ZM207.9 55.377L207.625 54.9593L207.615 54.9663L207.604 54.9738L207.9 55.377ZM202.6 61.5309L203.045 61.76L203.045 61.76L202.6 61.5309ZM203.5 81.7079L203.081 81.9803L203.085 81.987L203.5 81.7079ZM211.1 88.1646L211.302 87.7071L211.302 87.7071L211.1 88.1646ZM230.4 89.0725L230.241 88.5986L230.241 88.5986L230.4 89.0725ZM236.7 85.5416L236.378 85.1588L236.367 85.1686L236.356 85.179L236.7 85.5416ZM241.2 79.892V79.392H240.902L240.76 79.6542L241.2 79.892ZM241.7 79.892H242.2V79.392H241.7V79.892ZM241.7 89.0725H241.2V89.5725H241.7V89.0725ZM261.3 89.0725V89.5725H261.8V89.0725H261.3ZM259.1 34.8973L258.655 35.1259L258.659 35.1322L258.662 35.1385L259.1 34.8973ZM240.7 65.5663V65.0663H240.2V65.5663H240.7ZM234.8 75.0495L235.025 75.4959L235.035 75.491L235.045 75.4857L234.8 75.0495ZM222.8 74.7469L223.098 74.3449L223.098 74.3449L222.8 74.7469ZM224.8 63.4478L225.025 63.8942L225.025 63.8942L224.8 63.4478ZM229.8 62.0354L229.75 61.5379L229.736 61.5393L229.722 61.5416L229.8 62.0354ZM232.8 61.5309L232.71 61.0391L232.701 61.0408L232.8 61.5309ZM235.9 60.9256L235.999 61.4157L235.999 61.4157L235.9 60.9256ZM237.7 60.4663L237.563 59.9854L237.563 59.9854L237.7 60.4663ZM238.6 60.2194L238.722 60.7043L238.741 60.6995L238.76 60.6933L238.6 60.2194ZM238.777 60.1602L238.62 59.6856L238.62 59.6857L238.777 60.1602ZM238.937 60.1072L238.78 59.6325L238.78 59.6326L238.937 60.1072ZM240.8 59.3115H241.3V58.3726L240.521 58.8966L240.8 59.3115ZM240.8 65.5663V66.0663H241.3V65.5663H240.8ZM131.3 50.03L131.399 49.5399L131.394 49.539L131.3 50.03ZM118.7 47.6088L118.594 48.0977L118.606 48.0998L118.7 47.6088ZM145.7 56.3858L145.345 56.7378L145.356 56.7492L145.368 56.7599L145.7 56.3858ZM146.6 79.7911L146.206 79.4833L146.202 79.4891L146.6 79.7911ZM135.9 87.6601L135.713 87.1965L135.713 87.1965L135.9 87.6601ZM98.2 84.5327L97.9055 84.9368L97.9106 84.9404L98.2 84.5327ZM89 68.8955L88.9854 68.3958L88.4373 68.4118L88.5037 68.9561L89 68.8955ZM109.7 68.2902L110.193 68.2087L110.122 67.7777L109.685 67.7904L109.7 68.2902ZM113.2 73.8389L113.484 73.4274L113.476 73.4222L113.469 73.4172L113.2 73.8389ZM127 74.2424L126.745 73.8125L126.745 73.8125L127 74.2424ZM129.6 70.207H130.1V70.1894L130.099 70.1717L129.6 70.207ZM121.6 64.5575L121.504 65.0483L121.508 65.049L121.6 64.5575ZM110.2 62.338L110.296 61.8472L110.29 61.8462L110.2 62.338ZM95.5 55.6796L95.1395 56.0261L95.1449 56.0316L95.5 55.6796ZM94.2 31.8708L94.5967 32.1752L94.6013 32.1691L94.2 31.8708ZM104.3 24.607L104.476 25.0752L104.482 25.0729L104.3 24.607ZM140.7 27.7345L140.995 27.331L140.995 27.331L140.7 27.7345ZM149.2 43.1699L149.213 43.6697L149.739 43.6558L149.699 43.1319L149.2 43.1699ZM130.1 43.6743L129.606 43.7497L129.672 44.1858L130.113 44.1741L130.1 43.6743ZM128.5 40.0424L128.888 39.7275L128.888 39.7275L128.5 40.0424ZM113.9 38.0247L114.136 38.4658L114.145 38.4605L114.155 38.4547L113.9 38.0247ZM111.4 41.9593L111.899 41.9973L111.9 41.9783V41.9593H111.4ZM112.9 45.2885L113.238 44.92L113.228 44.9112L113.218 44.9029L112.9 45.2885ZM191.23 73.365L191.174 72.8681L191.174 72.8681L191.23 73.365ZM191.5 73.3345L191.444 72.8376L191.444 72.8377L191.5 73.3345ZM186.1 73.0319L186.277 72.5642L186.277 72.5642L186.1 73.0319ZM184.3 71.3168L183.852 71.5389L183.852 71.5389L184.3 71.3168ZM183.7 38.5292V38.0292H183.2V38.5292H183.7ZM195.5 38.5292V39.0292H196V38.5292H195.5ZM195.5 22.9929H196V22.4929H195.5V22.9929ZM183.7 22.9929H183.2V23.4929H183.7V22.9929ZM183.7 7.25488H184.2V6.75488H183.7V7.25488ZM162.9 7.25488V6.75488H162.4V7.25488H162.9ZM162.9 23.0938V23.5938H163.4V23.0938H162.9ZM154.3 23.0938V22.5938H153.8V23.0938H154.3ZM154.3 38.5292H153.8V39.0292H154.3V38.5292ZM162.9 38.5292H163.4V38.0292H162.9V38.5292ZM162.9 70.6106L163.4 70.6219V70.6106H162.9ZM165.5 81.708L165.074 81.97L165.074 81.97L165.5 81.708ZM173.5 88.2655L173.687 87.8018L173.687 87.8018L173.5 88.2655ZM186.1 89.9805L186.08 89.4809L186.079 89.481L186.1 89.9805ZM196.7 88.0637L196.845 88.5423L197.284 88.4093L197.189 87.9603L196.7 88.0637ZM193.5 72.931L193.989 72.8275L193.881 72.319L193.378 72.4462L193.5 72.931ZM193.328 72.9752L193.202 72.4913L193.186 72.4955L193.17 72.5009L193.328 72.9752ZM193.328 72.9753L193.454 73.4592L193.47 73.455L193.486 73.4496L193.328 72.9753ZM827.9 27.9362L828.197 27.5338L828.197 27.5338L827.9 27.9362ZM818.7 23.5982L818.562 24.0786L818.562 24.0786L818.7 23.5982ZM833.9 34.8973L833.449 35.1127L833.455 35.1258L833.462 35.1385L833.9 34.8973ZM836.1 89.0725V89.5725H836.6V89.0725H836.1ZM816.5 89.0725H816V89.5725H816.5V89.0725ZM816.5 79.892H817V79.392H816.5V79.892ZM816 79.892V79.392H815.702L815.56 79.6542L816 79.892ZM811.5 85.5416L811.178 85.1588L811.167 85.1686L811.156 85.179L811.5 85.5416ZM805.2 89.0725L805.041 88.5986L805.041 88.5986L805.2 89.0725ZM785.9 88.1646L786.102 87.7071L786.102 87.7071L785.9 88.1646ZM778.3 81.7079L777.881 81.9803L777.885 81.987L778.3 81.7079ZM777.4 61.5309L777.844 61.76L777.844 61.76L777.4 61.5309ZM782.7 55.377L782.425 54.9593L782.415 54.9663L782.404 54.9738L782.7 55.377ZM790.5 51.846L790.634 52.3278L790.645 52.3245L790.5 51.846ZM799.9 50.1309L799.946 50.6289L799.954 50.628L799.9 50.1309ZM801.25 49.9845L801.196 49.4874L801.196 49.4874L801.25 49.9845ZM808.9 49.0212L808.986 49.5137L808.99 49.513L808.9 49.0212ZM813.8 47.3062L813.53 46.8854L813.521 46.8914L813.512 46.8977L813.8 47.3062ZM800.4 38.8318L800.673 39.2505L800.682 39.245L800.69 39.2391L800.4 38.8318ZM797.2 43.7752L797.182 44.2748L797.592 44.2899L797.687 43.89L797.2 43.7752ZM778 43.069L777.505 42.9955L777.423 43.5481L777.982 43.5687L778 43.069ZM815.5 65.5663V65.0663H815V65.5663H815.5ZM815.6 65.5663V66.0663H816.1V65.5663H815.6ZM815.6 59.3115H816.1V58.3726L815.321 58.8966L815.6 59.3115ZM813.737 60.1072L813.893 60.5824L813.894 60.5818L813.737 60.1072ZM813.732 60.1089L813.576 59.6337L813.575 59.6343L813.732 60.1089ZM813.4 60.2194L813.522 60.7043L813.541 60.6995L813.559 60.6934L813.4 60.2194ZM812.5 60.4663L812.637 60.9472L812.637 60.9472L812.5 60.4663ZM810.7 60.9256L810.601 60.4355L810.601 60.4355L810.7 60.9256ZM807.6 61.5309L807.51 61.0391L807.501 61.0408L807.6 61.5309ZM804.6 62.0354L804.55 61.5379L804.536 61.5393L804.521 61.5416L804.6 62.0354ZM799.6 63.4478L799.825 63.8942L799.825 63.8942L799.6 63.4478ZM797.6 74.7469L797.897 74.3449L797.897 74.3449L797.6 74.7469ZM809.6 75.0495L809.825 75.4959L809.835 75.491L809.844 75.4857L809.6 75.0495ZM712.7 1V0.5H712.2V1H712.7ZM733.8 1H734.3V0.5H733.8V1ZM712.7 89.0726H712.2V89.5726H712.7V89.0726ZM770.1 89.0726V89.5726H770.6V89.0726H770.1ZM770.1 71.8213H770.6V71.3213H770.1V71.8213ZM733.8 71.8213H733.3V72.3213H733.8V71.8213ZM907.499 36.915L907.951 36.7002L907.951 36.7002L907.499 36.915ZM897.899 25.8177L897.636 26.2425L897.644 26.2474L897.899 25.8177ZM911.299 56.1841H911.8L911.799 56.1713L911.299 56.1841ZM907.799 74.9486L907.348 74.7338L907.348 74.7338L907.799 74.9486ZM898.299 86.2478L898.033 85.8248L898.025 85.8296L898.299 86.2478ZM876.499 88.4672L876.29 88.9211L876.29 88.9211L876.499 88.4672ZM870.399 84.1292L870.775 83.7986L870.77 83.793L870.764 83.7875L870.399 84.1292ZM866.599 78.3787L867.056 78.1751L866.924 77.8787H866.599V78.3787ZM865.999 78.3787V77.8787H865.499V78.3787H865.999ZM865.999 89.0725V89.5725H866.499V89.0725H865.999ZM845.399 89.0725H844.899V89.5725H845.399V89.0725ZM845.399 1.10086V0.60086H844.899V1.10086H845.399ZM866.199 1.10086H866.699V0.60086H866.199V1.10086ZM866.199 34.3929H865.699V34.8929H866.199V34.3929ZM866.599 34.3929V34.8929H866.939L867.064 34.5772L866.599 34.3929ZM876.299 24.0017L876.081 23.5517L876.074 23.5553L876.299 24.0017ZM888.299 65.3646L887.832 65.1865L887.829 65.1943L887.827 65.2023L888.299 65.3646ZM884.299 71.5186L884.608 71.9119L884.62 71.9023L884.632 71.892L884.299 71.5186ZM884.299 40.7486L883.98 41.1334L883.991 41.142L884.299 40.7486ZM867.199 46.8017L866.732 46.6236L866.729 46.6337L867.199 46.8017ZM867.199 65.3646L867.672 65.2023L867.672 65.2023L867.199 65.3646ZM871.299 71.5186L870.991 71.9119L870.991 71.9119L871.299 71.5186ZM668 25.3133L667.735 25.7377L667.744 25.7433L668 25.3133ZM636.1 35.2V35.7H636.455L636.572 35.3639L636.1 35.2ZM635.4 35.2H634.9V35.7H635.4V35.2ZM635.4 23.0938H635.9V22.5938H635.4V23.0938ZM615.6 23.0938V22.5938H615.1V23.0938H615.6ZM615.6 89.0726H615.1V89.5726H615.6V89.0726ZM636.4 89.0726V89.5726H636.9V89.0726H636.4ZM637.8 44.9858L637.352 44.7638L637.352 44.7638L637.8 44.9858ZM641.6 40.9504L641.846 41.3854L641.855 41.3804L641.6 40.9504ZM655.1 42.6655L654.719 42.9892L654.727 42.999L654.736 43.0083L655.1 42.6655ZM657.9 89.0726H657.4V89.5726H657.9V89.0726ZM678.8 89.0726V89.5726H679.3V89.0726H678.8ZM458.4 27.9362L458.697 27.5338L458.697 27.5338L458.4 27.9362ZM449.2 23.5982L449.061 24.0786L449.061 24.0786L449.2 23.5982ZM464.4 34.8973L463.955 35.1259L463.959 35.1322L463.962 35.1385L464.4 34.8973ZM466.6 89.0725V89.5725H467.1V89.0725H466.6ZM447 89.0725H446.5V89.5725H447V89.0725ZM447 79.892H447.5V79.392H447V79.892ZM446.5 79.892V79.392H446.202L446.06 79.6542L446.5 79.892ZM442 85.5416L441.678 85.1588L441.667 85.1686L441.656 85.179L442 85.5416ZM435.7 89.0725L435.541 88.5986L435.541 88.5986L435.7 89.0725ZM416.4 88.1646L416.602 87.7071L416.602 87.7071L416.4 88.1646ZM408.8 81.7079L408.381 81.9803L408.385 81.987L408.8 81.7079ZM407.9 61.5309L408.344 61.76L408.344 61.76L407.9 61.5309ZM413.2 55.377L412.925 54.9593L412.914 54.9663L412.904 54.9738L413.2 55.377ZM421 51.846L421.134 52.3278L421.145 52.3245L421 51.846ZM430.4 50.1309L430.446 50.6289L430.454 50.628L430.4 50.1309ZM430.893 50.0772L430.84 49.5802L430.839 49.5802L430.893 50.0772ZM431.75 49.9845L431.696 49.4874L431.696 49.4874L431.75 49.9845ZM439.4 49.0212L439.486 49.5137L439.49 49.513L439.4 49.0212ZM444.3 47.3062L444.03 46.8854L444.021 46.8914L444.012 46.8977L444.3 47.3062ZM430.9 38.8318L431.173 39.2505L431.182 39.245L431.19 39.2391L430.9 38.8318ZM427.7 43.7752L427.682 44.2748L428.092 44.2899L428.187 43.89L427.7 43.7752ZM408.5 43.069L408.005 42.9955L407.923 43.5481L408.482 43.5687L408.5 43.069ZM445.9 65.5663V65.0663H445.4V65.5663H445.9ZM446 65.5663V66.0663H446.5V65.5663H446ZM446 59.3115H446.5V58.3726L445.721 58.8966L446 59.3115ZM444.137 60.1072L443.98 59.6325L443.98 59.6326L444.137 60.1072ZM444.007 60.1504L443.849 59.6758L443.849 59.6759L444.007 60.1504ZM443.8 60.2194L443.922 60.7042L443.941 60.6995L443.959 60.6934L443.8 60.2194ZM442.9 60.4663L442.763 59.9854L442.763 59.9854L442.9 60.4663ZM441.1 60.9256L441.192 61.4171L441.199 61.4157L441.1 60.9256ZM441.099 60.9258L441.007 60.4343L441 60.4357L441.099 60.9258ZM438 61.5309L437.91 61.0391L437.901 61.0408L438 61.5309ZM435 62.0354L434.95 61.5379L434.936 61.5393L434.921 61.5416L435 62.0354ZM430 63.4478L430.225 63.8942L430.225 63.8942L430 63.4478ZM428 74.7469L428.297 74.3449L428.297 74.3449L428 74.7469ZM440 75.0495L440.225 75.4959L440.235 75.491L440.244 75.4857L440 75.0495ZM528.3 25.8177L528.036 26.2425L528.041 26.2454L528.3 25.8177ZM506.7 24.0018L506.482 23.5517L506.475 23.5553L506.7 24.0018ZM497 34.3929V34.8929H497.339L497.465 34.5772L497 34.3929ZM496.4 34.3929H495.9V34.8929H496.4V34.3929ZM496.4 22.9929H496.9V22.4929H496.4V22.9929ZM475.8 22.9929V22.4929H475.3V22.9929H475.8ZM475.8 113.789H475.3V114.289H475.8V113.789ZM496.6 113.789V114.289H497.1V113.789H496.6ZM496.6 78.3788V77.8788H496.1V78.3788H496.6ZM497 78.3788L497.456 78.1751L497.324 77.8788H497V78.3788ZM500.8 84.1292L501.175 83.7987L501.17 83.793L501.165 83.7875L500.8 84.1292ZM506.9 88.4673L507.11 88.0134L507.11 88.0134L506.9 88.4673ZM528.7 86.2478L528.433 85.8248L528.426 85.8297L528.7 86.2478ZM538.2 74.9487L538.651 75.1635L538.651 75.1635L538.2 74.9487ZM538 37.0159L537.55 37.2345L537.552 37.238L538 37.0159ZM514.8 71.5186L515.108 71.9119L515.121 71.9024L515.132 71.8921L514.8 71.5186ZM518.8 65.3646L518.327 65.2023L518.327 65.2023L518.8 65.3646ZM497.7 65.3646L498.173 65.2023L498.173 65.2023L497.7 65.3646ZM497.7 46.8018L497.232 46.6236L497.229 46.6337L497.7 46.8018ZM501.8 40.7487L502.108 41.142L502.108 41.142L501.8 40.7487ZM514.8 40.7487L514.48 41.1334L514.491 41.142L514.8 40.7487ZM598.299 27.9362L598.596 27.5338L598.596 27.5338L598.299 27.9362ZM589.099 23.5982L588.961 24.0786L588.961 24.0786L589.099 23.5982ZM604.299 34.8973L603.855 35.1259L603.858 35.1322L603.861 35.1385L604.299 34.8973ZM606.499 89.0725V89.5725H606.999V89.0725H606.499ZM586.899 89.0725H586.399V89.5725H586.899V89.0725ZM586.899 79.892H587.399V79.392H586.899V79.892ZM586.399 79.892V79.392H586.101L585.96 79.6542L586.399 79.892ZM581.899 85.5416L581.578 85.1588L581.566 85.1686L581.555 85.179L581.899 85.5416ZM575.599 89.0725L575.44 88.5986L575.44 88.5986L575.599 89.0725ZM556.299 88.1646L556.501 87.7071L556.501 87.7071L556.299 88.1646ZM548.699 81.7079L548.28 81.9803L548.285 81.987L548.699 81.7079ZM547.799 61.5309L548.244 61.76L548.244 61.76L547.799 61.5309ZM560.899 51.846L561.034 52.3278L561.044 52.3245L560.899 51.846ZM570.299 50.1309L570.345 50.6289L570.354 50.628L570.299 50.1309ZM571.649 49.9845L571.595 49.4874L571.595 49.4874L571.649 49.9845ZM579.299 49.0212L579.386 49.5137L579.39 49.513L579.299 49.0212ZM584.199 47.3062L583.929 46.8854L583.92 46.8914L583.911 46.8977L584.199 47.3062ZM570.799 38.8318L571.073 39.2505L571.081 39.245L571.089 39.2391L570.799 38.8318ZM567.599 43.7752L567.581 44.2748L567.992 44.2899L568.086 43.89L567.599 43.7752ZM548.399 43.069L547.905 42.9955L547.823 43.5481L548.381 43.5687L548.399 43.069ZM585.799 65.5663V65.0663H585.299V65.5663H585.799ZM585.899 65.5663V66.0663H586.399V65.5663H585.899ZM585.899 59.3115H586.399V58.3726L585.62 58.8966L585.899 59.3115ZM584.036 60.1072L583.879 59.6326L583.879 59.6326L584.036 60.1072ZM583.699 60.2194L583.822 60.7043L583.84 60.6995L583.859 60.6934L583.699 60.2194ZM582.799 60.4663L582.663 59.9854L582.663 59.9854L582.799 60.4663ZM580.999 60.9256L581.098 61.4157L581.098 61.4157L580.999 60.9256ZM577.899 61.5309L577.809 61.0391L577.801 61.0408L577.899 61.5309ZM574.899 62.0354L574.849 61.5379L574.835 61.5393L574.821 61.5416L574.899 62.0354ZM569.899 63.4478L570.125 63.8942L570.125 63.8942L569.899 63.4478ZM567.899 74.7469L568.197 74.3449L568.197 74.3449L567.899 74.7469ZM579.899 75.0495L580.125 75.4959L580.134 75.491L580.144 75.4857L579.899 75.0495ZM28.9257 0.84168L-0.474273 88.9143L0.474273 89.2309L29.8743 1.15832L28.9257 0.84168ZM57.5 0.5H29.4V1.5H57.5V0.5ZM87.4741 88.9138L57.9741 0.841196L57.0259 1.1588L86.5259 89.2314L87.4741 88.9138ZM64.3 89.5726H87V88.5726H64.3V89.5726ZM58.023 70.7605L63.823 89.2224L64.777 88.9227L58.977 70.4608L58.023 70.7605ZM28.4 71.1106H58.5V70.1106H28.4V71.1106ZM23.1777 89.2201L28.8777 70.7581L27.9223 70.4631L22.2223 88.9251L23.1777 89.2201ZM0 89.5726H22.7V88.5726H0V89.5726ZM33.8774 54.6176L43.5774 23.4441L42.6226 23.147L32.9226 54.3205L33.8774 54.6176ZM53.5 53.969H33.4V54.969H53.5V53.969ZM43.3226 23.4441L53.0226 54.6176L53.9774 54.3205L44.2774 23.147L43.3226 23.4441ZM43.1 23.7956H43.8V22.7956H43.1V23.7956ZM377.853 68.5016C378.692 66.7022 379.1 64.5065 379.1 61.9345H378.1C378.1 64.4067 377.708 66.4482 376.947 68.0789L377.853 68.5016ZM374.472 72.6443C375.961 71.6789 377.126 70.2856 377.863 68.4792L376.937 68.1013C376.274 69.725 375.239 70.9547 373.928 71.8053L374.472 72.6443ZM369.1 74.0363C371.166 74.0363 372.969 73.6191 374.472 72.6443L373.928 71.8053C372.631 72.6464 371.034 73.0363 369.1 73.0363V74.0363ZM363.85 72.7589C365.34 73.6179 367.13 74.0363 369.1 74.0363V73.0363C367.27 73.0363 365.659 72.6476 364.35 71.8925L363.85 72.7589ZM360.358 69.0284C361.196 70.6129 362.358 71.8983 363.85 72.7589L364.35 71.8925C363.042 71.1388 362.004 70.0031 361.242 68.561L360.358 69.0284ZM359 62.9649C359.102 65.3282 359.511 67.3199 360.352 69.0167L361.248 68.5727C360.489 67.0412 360.098 65.1992 360 62.9218L359 62.9649ZM338.5 63.4434H359.5V62.4434H338.5V63.4434ZM342.82 78.2088C340.287 74.2765 339 69.1327 339 62.9434H338C338 69.2638 339.313 74.612 341.98 78.7505L342.82 78.2088ZM353.2 87C348.888 85.1218 345.366 82.1597 342.82 78.2088L341.98 78.7505C344.634 82.8704 348.312 85.9614 352.8 87.9168L353.2 87ZM367.9 89.8841C362.464 89.8841 357.631 88.8875 353.196 86.9984L352.804 87.9184C357.369 89.863 362.336 90.8841 367.9 90.8841V89.8841ZM383.979 86.4048C379.356 88.687 374.033 89.8841 367.9 89.8841V90.8841C374.167 90.8841 379.644 89.6599 384.421 87.3015L383.979 86.4048ZM394.878 76.6977C392.228 80.8566 388.598 84.1242 383.979 86.4048L384.421 87.3015C389.202 84.9413 392.972 81.5505 395.722 77.2351L394.878 76.6977ZM398.8 62.0354C398.8 67.6074 397.518 72.5544 394.878 76.6977L395.722 77.2351C398.482 72.904 399.8 67.7626 399.8 62.0354H398.8ZM398.8 1V62.0354H399.8V1H398.8ZM378.5 1.5H399.3V0.5H378.5V1.5ZM379 61.9345V1H378V61.9345H379ZM378.6 61.4345H378.5V62.4345H378.6V61.4345ZM298.709 25.8075C301.322 23.7574 304.313 22.6858 307.8 22.6858V21.6858C304.087 21.6858 300.879 22.8337 298.092 25.0208L298.709 25.8075ZM293.082 35.2324C294.264 30.961 296.118 27.8401 298.709 25.8075L298.092 25.0208C295.282 27.2253 293.337 30.5612 292.118 34.9658L293.082 35.2324ZM291.9 35.5991H292.6V34.5991H291.9V35.5991ZM291.4 22.9929V35.0991H292.4V22.9929H291.4ZM271.7 23.4929H291.9V22.4929H271.7V23.4929ZM272.2 89.0726V22.9929H271.2V89.0726H272.2ZM292.5 88.5726H271.7V89.5726H292.5V88.5726ZM292 53.2584V89.0726H293V53.2584H292ZM293.767 46.1494C292.618 48.1507 292 50.5587 292 53.2584H293C293 50.7121 293.582 48.4794 294.634 46.6471L293.767 46.1494ZM298.548 41.3258C296.581 42.4748 294.911 44.0504 293.761 46.1589L294.639 46.6376C295.69 44.7107 297.22 43.2597 299.052 42.1893L298.548 41.3258ZM305.5 39.5425C302.914 39.5425 300.631 40.17 298.558 41.3203L299.043 42.1947C300.97 41.1256 303.086 40.5425 305.5 40.5425V39.5425ZM309.863 39.8491C308.247 39.6453 306.725 39.5425 305.5 39.5425V40.5425C306.675 40.5425 308.154 40.6415 309.738 40.8412L309.863 39.8491ZM313.845 40.6736C312.819 40.363 311.491 40.0544 309.863 39.8491L309.738 40.8412C311.309 41.0394 312.582 41.3361 313.555 41.6308L313.845 40.6736ZM313.2 22.892V41.1522H314.2V22.892H313.2ZM311.508 22.9169C312.274 23.0457 312.91 23.1537 313.541 23.366L313.86 22.4181C313.141 22.1764 312.426 22.0574 311.674 21.9308L311.508 22.9169ZM310.71 22.7785C310.989 22.8297 311.255 22.8745 311.508 22.9169L311.674 21.9308C311.42 21.8882 311.161 21.8446 310.89 21.7949L310.71 22.7785ZM307.8 22.6858C308.804 22.6858 309.779 22.6863 310.75 22.7842L310.85 21.7892C309.821 21.6854 308.796 21.6858 307.8 21.6858V22.6858ZM243.762 24.0786C247.219 25.0752 250.262 26.4649 252.804 28.3387L253.397 27.5338C250.739 25.574 247.581 24.1389 244.039 23.1178L243.762 24.0786ZM232.4 22.5849C236.46 22.5849 240.313 23.0846 243.762 24.0786L244.039 23.1178C240.487 22.0941 236.54 21.5849 232.4 21.5849V22.5849ZM217.603 25.266C221.622 23.4857 226.549 22.5849 232.4 22.5849V21.5849C226.451 21.5849 221.378 22.5001 217.198 24.3516L217.603 25.266ZM207.997 32.5787C210.34 29.5257 213.569 27.0524 217.603 25.266L217.198 24.3516C213.031 26.1971 209.661 28.7681 207.204 31.9699L207.997 32.5787ZM203.695 43.1425C204.284 39.1779 205.656 35.6288 207.997 32.5787L207.204 31.9699C204.744 35.1746 203.316 38.8893 202.706 42.9955L203.695 43.1425ZM222.419 43.2755L203.219 42.5693L203.182 43.5687L222.382 44.2748L222.419 43.2755ZM225.327 38.4131C223.492 39.6112 222.434 41.4535 221.914 43.6603L222.887 43.89C223.366 41.8597 224.309 40.2719 225.874 39.2505L225.327 38.4131ZM232.2 36.5159C229.427 36.5159 227.117 37.1381 225.31 38.4245L225.89 39.2391C227.484 38.1043 229.574 37.5159 232.2 37.5159V36.5159ZM238.614 38.4427C237 37.1401 234.877 36.5159 232.2 36.5159V37.5159C234.723 37.5159 236.6 38.1023 237.986 39.2209L238.614 38.4427ZM241.1 43.977C241.1 41.6226 240.244 39.758 238.614 38.4427L237.986 39.2209C239.357 40.3269 240.1 41.8924 240.1 43.977H241.1ZM241.1 44.1787V43.977H240.1V44.1787H241.1ZM239.27 47.7269C240.538 46.913 241.1 45.6291 241.1 44.1787H240.1C240.1 45.3514 239.662 46.287 238.73 46.8854L239.27 47.7269ZM234.19 49.513C236.416 49.1048 238.2 48.483 239.289 47.7146L238.712 46.8977C237.8 47.5417 236.184 48.1305 234.01 48.5294L234.19 49.513ZM226.504 50.4815C229.584 50.1482 232.153 49.8704 234.187 49.5137L234.014 48.5287C232.02 48.8785 229.489 49.1527 226.397 49.4873L226.504 50.4815ZM226.512 50.4806L226.512 50.4806L226.388 49.4883L226.388 49.4883L226.512 50.4806ZM226.501 50.4819L226.504 50.4816L226.396 49.4874L226.394 49.4876L226.501 50.4819ZM225.154 50.628C225.614 50.5779 226.063 50.5293 226.501 50.4819L226.394 49.4877C225.955 49.5351 225.506 49.5837 225.046 49.6339L225.154 50.628ZM215.845 52.3245C218.803 51.4294 221.867 50.9295 225.146 50.6288L225.055 49.633C221.733 49.9376 218.598 50.4467 215.555 51.3674L215.845 52.3245ZM208.175 55.7947C210.432 54.3095 212.985 53.1207 215.834 52.3277L215.566 51.3643C212.615 52.1855 209.968 53.4179 207.625 54.9593L208.175 55.7947ZM203.045 61.76C204.307 59.3117 206.054 57.352 208.196 55.7801L207.604 54.9738C205.347 56.6302 203.494 58.7059 202.156 61.3019L203.045 61.76ZM201.2 70.8124C201.2 67.2312 201.792 64.1894 203.045 61.76L202.156 61.3019C200.808 63.9168 200.2 67.1298 200.2 70.8124H201.2ZM203.92 81.4356C202.086 78.612 201.2 75.0823 201.2 70.8124H200.2C200.2 75.2185 201.115 78.9525 203.081 81.9802L203.92 81.4356ZM211.302 87.7071C208.196 86.3363 205.767 84.1826 203.915 81.4289L203.085 81.987C205.033 84.8828 207.604 87.168 210.898 88.622L211.302 87.7071ZM222.2 89.7831C218.056 89.7831 214.427 89.0864 211.302 87.7071L210.898 88.622C214.173 90.0675 217.944 90.7831 222.2 90.7831V89.7831ZM230.241 88.5986C227.902 89.385 225.158 89.7831 222.2 89.7831V90.7831C225.243 90.7831 228.098 90.3742 230.56 89.5464L230.241 88.5986ZM236.356 85.179C234.728 86.7251 232.602 87.8047 230.241 88.5986L230.56 89.5464C232.999 88.7262 235.273 87.5864 237.044 85.9041L236.356 85.179ZM240.76 79.6542C239.586 81.8265 238.124 83.6916 236.378 85.1588L237.022 85.9243C238.877 84.365 240.415 82.3964 241.64 80.1298L240.76 79.6542ZM241.7 79.392H241.2V80.392H241.7V79.392ZM242.2 89.0725V79.892H241.2V89.0725H242.2ZM261.3 88.5725H241.7V89.5725H261.3V88.5725ZM260.8 44.1787V89.0725H261.8V44.1787H260.8ZM258.662 35.1385C260.115 37.7768 260.8 40.7176 260.8 44.1787H261.8C261.8 40.5779 261.085 37.4656 259.538 34.6561L258.662 35.1385ZM252.804 28.3387C255.345 30.2123 257.293 32.4743 258.655 35.1259L259.545 34.6687C258.108 31.8725 256.056 29.4938 253.397 27.5338L252.804 28.3387ZM239.513 71.4975C240.681 69.7847 241.2 67.7647 241.2 65.5663H240.2C240.2 67.6052 239.72 69.4188 238.687 70.9343L239.513 71.4975ZM235.045 75.4857C236.901 74.445 238.363 73.1849 239.513 71.4975L238.687 70.9343C237.637 72.4752 236.299 73.6363 234.556 74.6133L235.045 75.4857ZM228.7 76.9619C231.078 76.9619 233.155 76.4395 235.025 75.4959L234.575 74.6031C232.846 75.4755 230.923 75.9619 228.7 75.9619V76.9619ZM222.503 75.1488C224.106 76.3352 226.217 76.9619 228.7 76.9619V75.9619C226.383 75.9619 224.494 75.378 223.098 74.3449L222.503 75.1488ZM220 69.8035C220 72.0566 220.857 73.9314 222.503 75.1488L223.098 74.3449C221.743 73.3429 221 71.7876 221 69.8035H220ZM221.177 65.804C220.432 66.9856 220 68.2877 220 69.8035H221C221 68.4945 221.368 67.3753 222.023 66.3375L221.177 65.804ZM224.575 63.0013C223.138 63.726 221.947 64.5843 221.177 65.804L222.023 66.3375C222.654 65.3377 223.662 64.5819 225.025 63.8942L224.575 63.0013ZM229.722 61.5416C227.807 61.8465 226.046 62.2596 224.575 63.0013L225.025 63.8942C226.355 63.2235 227.993 62.8295 229.879 62.5291L229.722 61.5416ZM232.701 61.0408C231.697 61.2435 230.721 61.4399 229.75 61.5379L229.85 62.5328C230.879 62.429 231.903 62.222 232.899 62.0211L232.701 61.0408ZM235.801 60.4355C234.801 60.6374 233.805 60.8383 232.71 61.0391L232.89 62.0227C233.995 61.82 235 61.6174 235.999 61.4157L235.801 60.4355ZM237.563 59.9854C237.002 60.1452 236.42 60.3106 235.801 60.4355L235.999 61.4157C236.662 61.2819 237.28 61.1057 237.837 60.9472L237.563 59.9854ZM238.478 59.7346C238.182 59.8092 237.875 59.8968 237.563 59.9854L237.837 60.9472C238.152 60.8577 238.444 60.7745 238.722 60.7043L238.478 59.7346ZM238.62 59.6857C238.561 59.7052 238.501 59.7251 238.441 59.7455L238.76 60.6933C238.819 60.6734 238.877 60.6539 238.935 60.6347L238.62 59.6857ZM238.78 59.6326L238.62 59.6856L238.935 60.6348L239.095 60.5817L238.78 59.6326ZM240.521 58.8966C240.066 59.203 239.536 59.382 238.78 59.6325L239.095 60.5818C239.82 60.3413 240.489 60.1234 241.079 59.7264L240.521 58.8966ZM241.3 65.5663V59.3115H240.3V65.5663H241.3ZM240.7 66.0663H240.8V65.0663H240.7V66.0663ZM131.394 49.539L118.794 47.1178L118.606 48.0998L131.206 50.5211L131.394 49.539ZM146.055 56.0338C142.949 52.9006 137.93 50.8577 131.399 49.5399L131.201 50.5202C137.67 51.8254 142.451 53.8179 145.345 56.7378L146.055 56.0338ZM151.1 67.9876C151.1 63.0202 149.452 59.0436 146.032 56.0117L145.368 56.7599C148.548 59.5793 150.1 63.27 150.1 67.9876H151.1ZM146.994 80.0989C149.663 76.6812 151.1 72.6382 151.1 67.9876H150.1C150.1 72.4166 148.737 76.2426 146.206 79.4834L146.994 80.0989ZM136.087 88.1238C140.658 86.2794 144.336 83.6058 146.998 80.0932L146.202 79.4891C143.664 82.8366 140.142 85.409 135.713 87.1965L136.087 88.1238ZM120.3 90.884C126.251 90.884 131.516 89.9683 136.087 88.1238L135.713 87.1965C131.284 88.9838 126.149 89.884 120.3 89.884V90.884ZM97.9106 84.9404C103.42 88.8521 110.932 90.884 120.3 90.884V89.884C111.068 89.884 103.78 87.8806 98.4894 84.125L97.9106 84.9404ZM88.5037 68.9561C89.3204 75.6508 92.3933 80.9205 97.9056 84.9368L98.4944 84.1286C93.2067 80.2759 90.2796 75.2553 89.4963 68.835L88.5037 68.9561ZM109.685 67.7904L88.9854 68.3958L89.0146 69.3953L109.715 68.79L109.685 67.7904ZM113.469 73.4172C111.702 72.2913 110.573 70.5059 110.193 68.2087L109.207 68.3717C109.627 70.9171 110.898 72.9653 112.931 74.2606L113.469 73.4172ZM120.5 75.2557C117.566 75.2557 115.275 74.6638 113.484 73.4274L112.916 74.2504C114.925 75.637 117.434 76.2557 120.5 76.2557V75.2557ZM126.745 73.8125C125.143 74.7632 123.138 75.2557 120.5 75.2557V76.2557C123.262 76.2557 125.457 75.7394 127.255 74.6724L126.745 73.8125ZM129.1 70.207C129.1 71.6056 128.33 72.8718 126.745 73.8125L127.255 74.6724C129.07 73.5954 130.1 72.0368 130.1 70.207H129.1ZM127.314 67.086C128.481 67.9016 129.011 68.9698 129.101 70.2424L130.099 70.1717C129.989 68.6195 129.319 67.2665 127.886 66.2662L127.314 67.086ZM121.508 65.049C124.182 65.5485 126.1 66.2383 127.314 67.086L127.886 66.2662C126.5 65.298 124.418 64.5753 121.692 64.066L121.508 65.049ZM110.104 62.8288L121.504 65.0483L121.696 64.0667L110.296 61.8472L110.104 62.8288ZM95.1449 56.0316C98.4436 59.3595 103.455 61.6091 110.11 62.8298L110.29 61.8462C103.745 60.6457 98.9564 58.4563 95.8551 55.3276L95.1449 56.0316ZM90.2 43.1699C90.2 48.3318 91.8423 52.5958 95.1395 56.0261L95.8605 55.3331C92.7577 52.1051 91.2 48.0965 91.2 43.1699H90.2ZM93.8033 31.5664C91.3239 34.7973 90.2 38.6431 90.2 43.1699H91.2C91.2 38.8187 92.2761 35.1991 94.5967 32.1752L93.8033 31.5664ZM104.124 24.1389C99.7499 25.781 96.2652 28.2547 93.7987 31.5725L94.6013 32.1691C96.9348 29.0302 100.25 26.6614 104.476 25.0751L104.124 24.1389ZM119.7 21.5849C113.756 21.5849 108.591 22.3979 104.118 24.1412L104.482 25.0729C108.809 23.3861 113.844 22.5849 119.7 22.5849V21.5849ZM140.995 27.331C135.783 23.5157 128.667 21.5849 119.7 21.5849V22.5849C128.533 22.5849 135.417 24.4877 140.405 28.138L140.995 27.331ZM149.699 43.1319C149.188 36.4299 146.214 31.1508 140.995 27.331L140.405 28.138C145.386 31.7837 148.212 36.7948 148.701 43.2079L149.699 43.1319ZM130.113 44.1741L149.213 43.6697L149.187 42.67L130.087 43.1745L130.113 44.1741ZM128.112 40.3574C128.953 41.3943 129.418 42.5211 129.606 43.7497L130.594 43.5989C130.382 42.2045 129.847 40.9101 128.888 39.7275L128.112 40.3574ZM124.802 37.9793C126.149 38.562 127.276 39.3264 128.112 40.3574L128.888 39.7275C127.924 38.539 126.651 37.6893 125.198 37.0614L124.802 37.9793ZM120.1 37.1124C121.848 37.1124 123.478 37.4068 124.802 37.9793L125.198 37.0614C123.722 36.4232 121.952 36.1124 120.1 36.1124V37.1124ZM114.155 38.4547C115.75 37.5084 117.75 37.1124 120.1 37.1124V36.1124C117.65 36.1124 115.45 36.5234 113.645 37.5948L114.155 38.4547ZM111.9 41.9593C111.9 40.5395 112.589 39.2915 114.136 38.4658L113.664 37.5837C111.811 38.5739 110.9 40.1507 110.9 41.9593H111.9ZM113.218 44.9029C112.231 44.0881 111.812 43.1312 111.899 41.9973L110.901 41.9212C110.788 43.4103 111.369 44.6728 112.582 45.6741L113.218 44.9029ZM118.806 47.1201C116.01 46.5157 114.23 45.83 113.238 44.92L112.562 45.6569C113.77 46.7647 115.79 47.4913 118.594 48.0975L118.806 47.1201ZM191.286 73.8618L191.556 73.8314L191.444 72.8377L191.174 72.8681L191.286 73.8618ZM189 74.0363C189.752 74.0363 190.5 73.9509 191.287 73.8618L191.174 72.8681C190.376 72.9586 189.686 73.0363 189 73.0363V74.0363ZM185.923 73.4995C186.78 73.824 187.841 74.0363 189 74.0363V73.0363C187.959 73.0363 187.019 72.8451 186.277 72.5642L185.923 73.4995ZM183.852 71.5389C184.297 72.4375 184.984 73.1443 185.923 73.4995L186.277 72.5642C185.616 72.3141 185.102 71.8103 184.748 71.0948L183.852 71.5389ZM183.2 68.1894C183.2 69.549 183.407 70.6408 183.852 71.5389L184.748 71.0948C184.393 70.3787 184.2 69.4528 184.2 68.1894H183.2ZM183.2 38.5292V68.1894H184.2V38.5292H183.2ZM195.5 38.0292H183.7V39.0292H195.5V38.0292ZM195 22.9929V38.5292H196V22.9929H195ZM183.7 23.4929H195.5V22.4929H183.7V23.4929ZM183.2 7.25488V22.9929H184.2V7.25488H183.2ZM162.9 7.75488H183.7V6.75488H162.9V7.75488ZM163.4 23.0938V7.25488H162.4V23.0938H163.4ZM154.3 23.5938H162.9V22.5938H154.3V23.5938ZM154.8 38.5292V23.0938H153.8V38.5292H154.8ZM162.9 38.0292H154.3V39.0292H162.9V38.0292ZM163.4 70.6106V38.5292H162.4V70.6106H163.4ZM165.926 81.446C164.187 78.6207 163.301 74.9885 163.4 70.6219L162.4 70.5994C162.298 75.1106 163.212 78.9439 165.074 81.97L165.926 81.446ZM173.687 87.8018C170.276 86.4256 167.664 84.2722 165.926 81.446L165.074 81.97C166.935 84.9951 169.723 87.2807 173.313 88.7292L173.687 87.8018ZM186.079 89.481C181.221 89.681 177.098 89.1784 173.687 87.8018L173.313 88.7292C176.901 90.1774 181.179 90.6836 186.12 90.4801L186.079 89.481ZM192.39 88.6856C190.62 89.0824 188.55 89.3813 186.08 89.4809L186.12 90.4801C188.65 90.3781 190.779 90.0715 192.609 89.6613L192.39 88.6856ZM196.555 87.5852C195.562 87.8857 194.175 88.2856 192.39 88.6856L192.609 89.6613C194.425 89.2542 195.838 88.8471 196.845 88.5423L196.555 87.5852ZM193.011 73.0344L196.211 88.1672L197.189 87.9603L193.989 72.8275L193.011 73.0344ZM193.454 73.4592C193.516 73.4429 193.572 73.4285 193.622 73.4158L193.378 72.4462C193.323 72.4599 193.264 72.4752 193.202 72.4913L193.454 73.4592ZM193.486 73.4496L193.486 73.4496L193.17 72.5009L193.17 72.5009L193.486 73.4496ZM191.556 73.8314C192.376 73.7394 193.037 73.5675 193.454 73.4592L193.202 72.4913C192.79 72.5983 192.188 72.7542 191.444 72.8376L191.556 73.8314ZM828.197 27.5338C825.538 25.574 822.381 24.1389 818.838 23.1178L818.562 24.0786C822.019 25.0752 825.062 26.4649 827.603 28.3387L828.197 27.5338ZM834.351 34.682C833.008 31.868 830.847 29.4877 828.197 27.5338L827.603 28.3387C830.153 30.2184 832.192 32.4788 833.449 35.1127L834.351 34.682ZM836.6 44.1787C836.6 40.5779 835.885 37.4656 834.338 34.6561L833.462 35.1385C834.915 37.7768 835.6 40.7176 835.6 44.1787H836.6ZM836.6 89.0725V44.1787H835.6V89.0725H836.6ZM816.5 89.5725H836.1V88.5725H816.5V89.5725ZM816 79.892V89.0725H817V79.892H816ZM816 80.392H816.5V79.392H816V80.392ZM811.822 85.9243C813.676 84.365 815.214 82.3964 816.44 80.1298L815.56 79.6542C814.386 81.8265 812.923 83.6916 811.178 85.1588L811.822 85.9243ZM805.359 89.5464C807.799 88.7262 810.073 87.5864 811.844 85.9041L811.156 85.179C809.527 86.7251 807.402 87.8047 805.041 88.5986L805.359 89.5464ZM797 90.7831C800.042 90.7831 802.898 90.3742 805.359 89.5464L805.041 88.5986C802.702 89.385 799.958 89.7831 797 89.7831V90.7831ZM785.698 88.622C788.973 90.0675 792.744 90.7831 797 90.7831V89.7831C792.856 89.7831 789.227 89.0864 786.102 87.7071L785.698 88.622ZM777.885 81.987C779.833 84.8828 782.404 87.168 785.698 88.622L786.102 87.7071C782.996 86.3363 780.567 84.1826 778.715 81.4289L777.885 81.987ZM775 70.8124C775 75.2185 775.914 78.9525 777.881 81.9803L778.719 81.4356C776.886 78.612 776 75.0823 776 70.8124H775ZM776.956 61.3019C775.608 63.9168 775 67.1298 775 70.8124H776C776 67.2312 776.592 64.1893 777.844 61.76L776.956 61.3019ZM782.404 54.9738C780.147 56.6302 778.294 58.7059 776.956 61.3019L777.844 61.76C779.106 59.3117 780.853 57.352 782.996 55.7801L782.404 54.9738ZM790.366 51.3643C787.415 52.1855 784.768 53.4179 782.425 54.9593L782.975 55.7947C785.232 54.3095 787.785 53.1207 790.634 52.3277L790.366 51.3643ZM799.854 49.633C796.533 49.9376 793.397 50.4467 790.355 51.3674L790.645 52.3245C793.603 51.4294 796.667 50.9295 799.946 50.6288L799.854 49.633ZM801.196 49.4874C800.757 49.5349 800.307 49.5836 799.846 49.6339L799.954 50.628C800.415 50.5778 800.864 50.5291 801.303 50.4816L801.196 49.4874ZM808.814 48.5287C806.82 48.8785 804.289 49.1527 801.196 49.4874L801.303 50.4816C804.384 50.1482 806.953 49.8705 808.986 49.5137L808.814 48.5287ZM813.512 46.8977C812.6 47.5417 810.984 48.1305 808.81 48.5294L808.99 49.513C811.216 49.1048 813 48.483 814.088 47.7146L813.512 46.8977ZM814.9 44.1787C814.9 45.3514 814.462 46.287 813.53 46.8854L814.07 47.7269C815.338 46.913 815.9 45.6291 815.9 44.1787H814.9ZM814.9 43.977V44.1787H815.9V43.977H814.9ZM812.786 39.2209C814.156 40.3269 814.9 41.8924 814.9 43.977H815.9C815.9 41.6226 815.044 39.758 813.414 38.4427L812.786 39.2209ZM807 37.5159C809.523 37.5159 811.4 38.1023 812.786 39.2209L813.414 38.4427C811.8 37.1401 809.677 36.5159 807 36.5159V37.5159ZM800.69 39.2391C802.283 38.1043 804.373 37.5159 807 37.5159V36.5159C804.226 36.5159 801.916 37.1381 800.11 38.4245L800.69 39.2391ZM797.687 43.89C798.166 41.8597 799.109 40.2719 800.673 39.2505L800.127 38.4131C798.291 39.6112 797.234 41.4535 796.713 43.6603L797.687 43.89ZM777.982 43.5687L797.182 44.2748L797.218 43.2755L778.018 42.5693L777.982 43.5687ZM782.003 31.9699C779.544 35.1746 778.116 38.8893 777.505 42.9955L778.495 43.1425C779.084 39.1779 780.456 35.6288 782.797 32.5787L782.003 31.9699ZM791.998 24.3516C787.831 26.1971 784.46 28.7681 782.003 31.9699L782.797 32.5787C785.14 29.5257 788.369 27.0524 792.402 25.266L791.998 24.3516ZM807.2 21.5849C801.251 21.5849 796.178 22.5001 791.998 24.3516L792.402 25.266C796.422 23.4857 801.349 22.5849 807.2 22.5849V21.5849ZM818.838 23.1178C815.287 22.0941 811.34 21.5849 807.2 21.5849V22.5849C811.26 22.5849 815.113 23.0846 818.562 24.0786L818.838 23.1178ZM815 65.5663C815 67.6051 814.52 69.4188 813.487 70.9343L814.313 71.4975C815.48 69.7847 816 67.7647 816 65.5663H815ZM815.6 65.0663H815.5V66.0663H815.6V65.0663ZM815.1 59.3115V65.5663H816.1V59.3115H815.1ZM813.894 60.5818C814.62 60.3413 815.289 60.1234 815.879 59.7264L815.321 58.8966C814.865 59.203 814.336 59.382 813.58 59.6326L813.894 60.5818ZM813.887 60.584L813.893 60.5824L813.581 59.632L813.576 59.6337L813.887 60.584ZM813.559 60.6934C813.672 60.6555 813.782 60.6192 813.889 60.5834L813.575 59.6343C813.467 59.6698 813.356 59.7068 813.241 59.7455L813.559 60.6934ZM812.637 60.9472C812.951 60.8577 813.244 60.7745 813.522 60.7043L813.278 59.7346C812.982 59.8092 812.674 59.8968 812.363 59.9854L812.637 60.9472ZM810.799 61.4157C811.462 61.2819 812.08 61.1057 812.637 60.9472L812.363 59.9854C811.802 60.1452 811.22 60.3106 810.601 60.4355L810.799 61.4157ZM807.69 62.0227C808.795 61.82 809.799 61.6174 810.799 61.4157L810.601 60.4355C809.601 60.6374 808.605 60.8383 807.51 61.0391L807.69 62.0227ZM804.65 62.5328C805.679 62.429 806.703 62.222 807.699 62.0211L807.501 61.0408C806.497 61.2435 805.521 61.4399 804.55 61.5379L804.65 62.5328ZM799.825 63.8942C801.155 63.2235 802.793 62.8295 804.679 62.5291L804.521 61.5416C802.607 61.8465 800.845 62.2596 799.375 63.0013L799.825 63.8942ZM796.823 66.3375C797.454 65.3377 798.462 64.5818 799.825 63.8942L799.375 63.0013C797.938 63.726 796.746 64.5843 795.977 65.804L796.823 66.3375ZM795.8 69.8035C795.8 68.4945 796.168 67.3753 796.823 66.3375L795.977 65.804C795.232 66.9857 794.8 68.2877 794.8 69.8035H795.8ZM797.897 74.3449C796.543 73.3429 795.8 71.7876 795.8 69.8035H794.8C794.8 72.0566 795.657 73.9314 797.303 75.1488L797.897 74.3449ZM803.5 75.9619C801.183 75.9619 799.294 75.378 797.897 74.3449L797.303 75.1488C798.906 76.3352 801.017 76.9619 803.5 76.9619V75.9619ZM809.375 74.6031C807.645 75.4755 805.723 75.9619 803.5 75.9619V76.9619C805.877 76.9619 807.955 76.4395 809.825 75.4959L809.375 74.6031ZM813.487 70.9343C812.437 72.4752 811.099 73.6363 809.356 74.6134L809.844 75.4857C811.701 74.445 813.163 73.1849 814.313 71.4975L813.487 70.9343ZM712.7 1.5H733.8V0.5H712.7V1.5ZM713.2 89.0726V1H712.2V89.0726H713.2ZM770.1 88.5726H712.7V89.5726H770.1V88.5726ZM769.6 71.8213V89.0726H770.6V71.8213H769.6ZM733.8 72.3213H770.1V71.3213H733.8V72.3213ZM733.3 1V71.8213H734.3V1H733.3ZM907.951 36.7002C905.516 31.5817 902.154 27.7669 898.155 25.388L897.644 26.2474C901.445 28.5091 904.683 32.1599 907.048 37.1298L907.951 36.7002ZM911.799 56.1713C911.598 48.2638 910.392 41.831 907.951 36.7002L907.048 37.1298C909.407 42.0875 910.601 48.3663 910.8 56.1968L911.799 56.1713ZM908.251 75.1635C910.694 70.0295 911.799 63.6939 911.799 56.1841H910.799C910.799 63.6051 909.705 69.7793 907.348 74.7338L908.251 75.1635ZM898.566 86.6707C902.662 84.0881 905.819 80.2744 908.251 75.1635L907.348 74.7338C904.98 79.7114 901.937 83.3632 898.033 85.8248L898.566 86.6707ZM885.099 90.5814C889.989 90.5814 894.486 89.3465 898.574 86.6659L898.025 85.8296C894.113 88.3951 889.81 89.5814 885.099 89.5814V90.5814ZM876.29 88.9211C878.775 90.0703 881.752 90.5814 885.099 90.5814V89.5814C881.847 89.5814 879.024 89.0837 876.709 88.0134L876.29 88.9211ZM870.024 84.4597C871.682 86.3417 873.846 87.7911 876.29 88.9211L876.709 88.0134C874.353 86.9239 872.316 85.5485 870.775 83.7986L870.024 84.4597ZM866.143 78.5824C867.063 80.6458 868.293 82.6104 870.034 84.4709L870.764 83.7875C869.106 82.0161 867.936 80.1471 867.056 78.1751L866.143 78.5824ZM865.999 78.8787H866.599V77.8787H865.999V78.8787ZM866.499 89.0725V78.3787H865.499V89.0725H866.499ZM845.399 89.5725H865.999V88.5725H845.399V89.5725ZM844.899 1.10086V89.0725H845.899V1.10086H844.899ZM866.199 0.60086H845.399V1.60086H866.199V0.60086ZM866.699 34.3929V1.10086H865.699V34.3929H866.699ZM866.599 33.8929H866.199V34.8929H866.599V33.8929ZM869.824 28.211C868.185 30.0713 866.955 32.1387 866.135 34.2086L867.064 34.5772C867.844 32.6117 869.014 30.6437 870.575 28.8721L869.824 28.211ZM876.074 23.5553C873.631 24.7876 871.476 26.3367 869.824 28.211L870.575 28.8721C872.123 27.1146 874.167 25.6372 876.525 24.4482L876.074 23.5553ZM885.199 21.6858C881.742 21.6858 878.664 22.3012 876.082 23.5517L876.517 24.4518C878.935 23.281 881.857 22.6858 885.199 22.6858V21.6858ZM898.163 25.3929C894.184 22.9224 889.792 21.6858 885.199 21.6858V22.6858C889.606 22.6858 893.815 23.8705 897.636 26.2425L898.163 25.3929ZM887.827 65.2023C886.954 67.746 885.601 69.6904 883.967 71.1451L884.632 71.892C886.398 70.3202 887.845 68.2292 888.772 65.5269L887.827 65.2023ZM889.199 56.0832C889.199 59.5817 888.802 62.6419 887.832 65.1865L888.767 65.5427C889.797 62.8412 890.199 59.6466 890.199 56.0832H889.199ZM887.827 46.964C888.706 49.5273 889.199 52.498 889.199 56.0832H890.199C890.199 52.4046 889.693 49.3222 888.772 46.6395L887.827 46.964ZM883.991 41.142C885.696 42.48 886.949 44.4065 887.827 46.964L888.772 46.6395C887.85 43.951 886.503 41.8421 884.608 40.3553L883.991 41.142ZM877.799 39.1301C880.307 39.1301 882.387 39.8096 883.98 41.1332L884.619 40.3641C882.812 38.863 880.492 38.1301 877.799 38.1301V39.1301ZM871.608 41.142C873.31 39.8066 875.398 39.1301 877.799 39.1301V38.1301C875.201 38.1301 872.889 38.8659 870.991 40.3553L871.608 41.142ZM867.667 46.9799C868.646 44.4101 869.902 42.4806 871.608 41.142L870.991 40.3553C869.097 41.8414 867.753 43.9474 866.732 46.6236L867.667 46.9799ZM866.299 56.0832C866.299 52.4947 866.794 49.4263 867.67 46.9698L866.729 46.6337C865.805 49.2215 865.299 52.4079 865.299 56.0832H866.299ZM867.672 65.2023C866.793 62.6397 866.299 59.5683 866.299 56.0832H865.299C865.299 59.66 865.806 62.8434 866.727 65.5269L867.672 65.2023ZM871.608 71.1252C869.9 69.7851 868.549 67.7557 867.672 65.2023L866.727 65.5269C867.65 68.2195 869.099 70.4273 870.991 71.9119L871.608 71.1252ZM877.799 73.1371C875.398 73.1371 873.31 72.4606 871.608 71.1252L870.991 71.9119C872.889 73.4013 875.201 74.1371 877.799 74.1371V73.1371ZM883.991 71.1252C882.289 72.4606 880.201 73.1371 877.799 73.1371V74.1371C880.398 74.1371 882.71 73.4013 884.608 71.9119L883.991 71.1252ZM656 22.6858C660.525 22.6858 664.429 23.6775 667.735 25.7376L668.264 24.8889C664.77 22.7119 660.675 21.6858 656 21.6858V22.6858ZM643.776 26.1336C647.185 23.8735 651.286 22.6858 656 22.6858V21.6858C651.113 21.6858 646.814 22.9194 643.223 25.3001L643.776 26.1336ZM636.572 35.3639C637.935 31.4359 640.364 28.3957 643.776 26.1336L643.223 25.3001C639.636 27.6786 637.065 30.8933 635.627 35.0361L636.572 35.3639ZM635.4 35.7H636.1V34.7H635.4V35.7ZM634.9 23.0938V35.2H635.9V23.0938H634.9ZM615.6 23.5938H635.4V22.5938H615.6V23.5938ZM616.1 89.0726V23.0938H615.1V89.0726H616.1ZM636.4 88.5726H615.6V89.5726H636.4V88.5726ZM635.9 51.4425V89.0726H636.9V51.4425H635.9ZM637.352 44.7638C636.414 46.6559 635.9 48.8518 635.9 51.4425H636.9C636.9 48.9889 637.385 46.9476 638.248 45.2079L637.352 44.7638ZM641.353 40.5156C639.669 41.4713 638.297 42.8557 637.352 44.7638L638.248 45.2079C639.102 43.4841 640.331 42.2455 641.846 41.3853L641.353 40.5156ZM647.4 39.0381C645.136 39.0381 643.142 39.4539 641.344 40.5205L641.855 41.3804C643.457 40.4293 645.263 40.0381 647.4 40.0381V39.0381ZM655.481 42.3417C653.563 40.0842 650.806 39.0381 647.4 39.0381V40.0381C650.593 40.0381 653.037 41.0096 654.719 42.9892L655.481 42.3417ZM658.4 51.2407C658.4 47.533 657.481 44.4649 655.464 42.3227L654.736 43.0083C656.518 44.9014 657.4 47.6847 657.4 51.2407H658.4ZM658.4 89.0726V51.2407H657.4V89.0726H658.4ZM678.8 88.5726H657.9V89.5726H678.8V88.5726ZM678.3 47.0035V89.0726H679.3V47.0035H678.3ZM675.554 34.2162C677.411 37.864 678.3 42.1207 678.3 47.0035H679.3C679.3 41.9996 678.388 37.5802 676.445 33.7626L675.554 34.2162ZM667.744 25.7433C671.058 27.7098 673.694 30.5628 675.554 34.2162L676.445 33.7626C674.505 29.9505 671.741 26.9521 668.255 24.8833L667.744 25.7433ZM458.697 27.5338C456.038 25.574 452.881 24.1389 449.338 23.1178L449.061 24.0786C452.519 25.0752 455.562 26.4649 458.103 28.3387L458.697 27.5338ZM464.845 34.6687C463.408 31.8725 461.355 29.4938 458.697 27.5338L458.103 28.3387C460.645 30.2123 462.592 32.4743 463.955 35.1259L464.845 34.6687ZM467.1 44.1787C467.1 40.5779 466.385 37.4656 464.838 34.6561L463.962 35.1385C465.415 37.7768 466.1 40.7176 466.1 44.1787H467.1ZM467.1 89.0725V44.1787H466.1V89.0725H467.1ZM447 89.5725H466.6V88.5725H447V89.5725ZM446.5 79.892V89.0725H447.5V79.892H446.5ZM446.5 80.392H447V79.392H446.5V80.392ZM442.322 85.9243C444.176 84.365 445.714 82.3964 446.94 80.1298L446.06 79.6542C444.886 81.8265 443.423 83.6916 441.678 85.1588L442.322 85.9243ZM435.859 89.5464C438.298 88.7262 440.573 87.5864 442.344 85.9041L441.656 85.179C440.027 86.7251 437.902 87.8047 435.541 88.5986L435.859 89.5464ZM427.5 90.7831C430.542 90.7831 433.398 90.3742 435.859 89.5464L435.541 88.5986C433.202 89.385 430.458 89.7831 427.5 89.7831V90.7831ZM416.198 88.622C419.473 90.0675 423.244 90.7831 427.5 90.7831V89.7831C423.356 89.7831 419.727 89.0864 416.602 87.7071L416.198 88.622ZM408.385 81.987C410.333 84.8828 412.904 87.168 416.198 88.622L416.602 87.7071C413.496 86.3363 411.067 84.1826 409.215 81.4289L408.385 81.987ZM405.5 70.8124C405.5 75.2185 406.414 78.9525 408.381 81.9802L409.219 81.4356C407.386 78.612 406.5 75.0823 406.5 70.8124H405.5ZM407.456 61.3019C406.108 63.9168 405.5 67.1298 405.5 70.8124H406.5C406.5 67.2312 407.092 64.1894 408.344 61.76L407.456 61.3019ZM412.904 54.9738C410.647 56.6302 408.794 58.7059 407.456 61.3019L408.344 61.76C409.606 59.3117 411.353 57.352 413.496 55.7801L412.904 54.9738ZM420.866 51.3643C417.915 52.1855 415.268 53.4179 412.925 54.9593L413.475 55.7947C415.732 54.3095 418.285 53.1207 421.134 52.3277L420.866 51.3643ZM430.354 49.633C427.033 49.9376 423.897 50.4467 420.855 51.3674L421.145 52.3245C424.103 51.4294 427.167 50.9295 430.446 50.6288L430.354 49.633ZM430.839 49.5802L430.346 49.6339L430.454 50.628L430.948 50.5743L430.839 49.5802ZM431.696 49.4874L430.84 49.5802L430.947 50.5743L431.804 50.4816L431.696 49.4874ZM439.314 48.5287C437.32 48.8785 434.789 49.1527 431.696 49.4874L431.804 50.4816C434.884 50.1482 437.453 49.8705 439.486 49.5137L439.314 48.5287ZM444.012 46.8977C443.1 47.5417 441.484 48.1305 439.31 48.5294L439.49 49.513C441.716 49.1048 443.5 48.483 444.588 47.7146L444.012 46.8977ZM445.4 44.1787C445.4 45.3514 444.962 46.287 444.03 46.8854L444.57 47.7269C445.838 46.913 446.4 45.6291 446.4 44.1787H445.4ZM445.4 43.977V44.1787H446.4V43.977H445.4ZM443.286 39.2209C444.656 40.3269 445.4 41.8924 445.4 43.977H446.4C446.4 41.6226 445.544 39.758 443.914 38.4427L443.286 39.2209ZM437.5 37.5159C440.023 37.5159 441.9 38.1023 443.286 39.2209L443.914 38.4427C442.3 37.1401 440.177 36.5159 437.5 36.5159V37.5159ZM431.19 39.2391C432.784 38.1043 434.873 37.5159 437.5 37.5159V36.5159C434.726 36.5159 432.416 37.1381 430.61 38.4245L431.19 39.2391ZM428.187 43.89C428.666 41.8597 429.609 40.2719 431.173 39.2505L430.627 38.4131C428.791 39.6112 427.734 41.4535 427.213 43.6603L428.187 43.89ZM408.482 43.5687L427.682 44.2748L427.718 43.2755L408.518 42.5693L408.482 43.5687ZM412.503 31.9699C410.044 35.1746 408.616 38.8893 408.005 42.9955L408.995 43.1425C409.584 39.1779 410.956 35.6288 413.297 32.5787L412.503 31.9699ZM422.497 24.3516C418.331 26.1971 414.96 28.7681 412.503 31.9699L413.297 32.5787C415.64 29.5257 418.869 27.0524 422.902 25.266L422.497 24.3516ZM437.7 21.5849C431.751 21.5849 426.678 22.5001 422.497 24.3516L422.902 25.266C426.922 23.4857 431.849 22.5849 437.7 22.5849V21.5849ZM449.338 23.1178C445.787 22.0941 441.84 21.5849 437.7 21.5849V22.5849C441.76 22.5849 445.613 23.0846 449.061 24.0786L449.338 23.1178ZM445.4 65.5663C445.4 67.6052 444.92 69.4188 443.887 70.9343L444.713 71.4975C445.88 69.7847 446.4 67.7647 446.4 65.5663H445.4ZM446 65.0663H445.9V66.0663H446V65.0663ZM445.5 59.3115V65.5663H446.5V59.3115H445.5ZM444.294 60.5818C445.02 60.3413 445.689 60.1234 446.279 59.7264L445.721 58.8966C445.265 59.203 444.736 59.382 443.98 59.6325L444.294 60.5818ZM444.164 60.625L444.294 60.5817L443.98 59.6326L443.849 59.6758L444.164 60.625ZM443.959 60.6934C444.029 60.67 444.097 60.6473 444.164 60.6249L443.849 59.6759C443.781 59.6985 443.712 59.7217 443.641 59.7455L443.959 60.6934ZM443.037 60.9472C443.351 60.8577 443.644 60.7745 443.922 60.7042L443.678 59.7346C443.382 59.8092 443.074 59.8968 442.763 59.9854L443.037 60.9472ZM441.199 61.4157C441.862 61.2819 442.48 61.1057 443.037 60.9472L442.763 59.9854C442.202 60.1452 441.62 60.3106 441.001 60.4355L441.199 61.4157ZM441.192 61.4171L441.192 61.4171L441.008 60.4342L441.007 60.4343L441.192 61.4171ZM441.191 61.4172L441.192 61.4171L441.007 60.4343L441.007 60.4343L441.191 61.4172ZM441.191 61.4173L441.191 61.4172L441.007 60.4343L441.007 60.4344L441.191 61.4173ZM438.09 62.0227C439.195 61.8201 440.199 61.6176 441.198 61.416L441 60.4357C440 60.6375 439.004 60.8383 437.91 61.0391L438.09 62.0227ZM435.05 62.5328C436.079 62.429 437.103 62.222 438.099 62.0211L437.901 61.0408C436.897 61.2435 435.921 61.4399 434.95 61.5379L435.05 62.5328ZM430.225 63.8942C431.555 63.2235 433.193 62.8295 435.079 62.5291L434.921 61.5416C433.007 61.8465 431.245 62.2596 429.775 63.0013L430.225 63.8942ZM427.223 66.3375C427.854 65.3377 428.862 64.5819 430.225 63.8942L429.775 63.0013C428.338 63.726 427.146 64.5843 426.377 65.804L427.223 66.3375ZM426.2 69.8035C426.2 68.4945 426.568 67.3753 427.223 66.3375L426.377 65.804C425.632 66.9856 425.2 68.2877 425.2 69.8035H426.2ZM428.297 74.3449C426.943 73.3429 426.2 71.7876 426.2 69.8035H425.2C425.2 72.0566 426.057 73.9314 427.703 75.1488L428.297 74.3449ZM433.9 75.9619C431.583 75.9619 429.694 75.378 428.297 74.3449L427.703 75.1488C429.306 76.3352 431.417 76.9619 433.9 76.9619V75.9619ZM439.775 74.6031C438.045 75.4755 436.123 75.9619 433.9 75.9619V76.9619C436.277 76.9619 438.355 76.4395 440.225 75.4959L439.775 74.6031ZM443.887 70.9343C442.837 72.4752 441.499 73.6363 439.756 74.6134L440.244 75.4857C442.101 74.445 443.563 73.1849 444.713 71.4975L443.887 70.9343ZM515.6 22.6858C520.007 22.6858 524.215 23.8705 528.036 26.2425L528.564 25.3929C524.584 22.9224 520.193 21.6858 515.6 21.6858V22.6858ZM506.918 24.4518C509.335 23.281 512.257 22.6858 515.6 22.6858V21.6858C512.142 21.6858 509.064 22.3013 506.482 23.5518L506.918 24.4518ZM500.975 28.8721C502.524 27.1146 504.568 25.6372 506.925 24.4482L506.475 23.5553C504.032 24.7876 501.876 26.3367 500.225 28.211L500.975 28.8721ZM497.465 34.5772C498.244 32.6117 499.414 30.6438 500.975 28.8721L500.225 28.211C498.586 30.0713 497.356 32.1387 496.535 34.2086L497.465 34.5772ZM496.4 34.8929H497V33.8929H496.4V34.8929ZM495.9 22.9929V34.3929H496.9V22.9929H495.9ZM475.8 23.4929H496.4V22.4929H475.8V23.4929ZM476.3 113.789V22.9929H475.3V113.789H476.3ZM496.6 113.289H475.8V114.289H496.6V113.289ZM496.1 78.3788V113.789H497.1V78.3788H496.1ZM497 77.8788H496.6V78.8788H497V77.8788ZM501.165 83.7875C499.506 82.0161 498.336 80.1471 497.456 78.1751L496.543 78.5825C497.464 80.6458 498.693 82.6105 500.435 84.4709L501.165 83.7875ZM507.11 88.0134C504.753 86.9239 502.717 85.5485 501.175 83.7987L500.425 84.4597C502.083 86.3417 504.246 87.7911 506.69 88.9211L507.11 88.0134ZM515.5 89.5814C512.247 89.5814 509.424 89.0837 507.11 88.0134L506.69 88.9211C509.175 90.0703 512.153 90.5814 515.5 90.5814V89.5814ZM528.426 85.8297C524.513 88.3951 520.21 89.5814 515.5 89.5814V90.5814C520.389 90.5814 524.886 89.3465 528.974 86.6659L528.426 85.8297ZM537.748 74.7339C535.38 79.7114 532.337 83.3632 528.433 85.8248L528.967 86.6707C533.063 84.0881 536.22 80.2744 538.651 75.1635L537.748 74.7339ZM541.2 56.1841C541.2 63.6052 540.106 69.7793 537.748 74.7339L538.651 75.1635C541.094 70.0295 542.2 63.6939 542.2 56.1841H541.2ZM537.552 37.238C540.006 42.1906 541.2 48.4629 541.2 56.1841H542.2C542.2 48.3689 540.993 41.9298 538.448 36.7939L537.552 37.238ZM528.041 26.2454C531.945 28.6087 535.085 32.1607 537.55 37.2344L538.45 36.7974C535.915 31.5809 532.655 27.8692 528.559 25.39L528.041 26.2454ZM515.132 71.8921C516.898 70.3202 518.346 68.2292 519.273 65.5269L518.327 65.2023C517.454 67.746 516.102 69.6904 514.467 71.1451L515.132 71.8921ZM508.3 74.1372C510.898 74.1372 513.21 73.4014 515.108 71.9119L514.491 71.1252C512.789 72.4606 510.701 73.1372 508.3 73.1372V74.1372ZM501.491 71.9119C503.389 73.4014 505.701 74.1372 508.3 74.1372V73.1372C505.898 73.1372 503.81 72.4606 502.108 71.1252L501.491 71.9119ZM497.227 65.5269C498.151 68.2195 499.599 70.4273 501.491 71.9119L502.108 71.1252C500.401 69.7851 499.049 67.7557 498.173 65.2023L497.227 65.5269ZM495.8 56.0832C495.8 59.66 496.306 62.8435 497.227 65.5269L498.173 65.2023C497.293 62.6397 496.8 59.5683 496.8 56.0832H495.8ZM497.229 46.6337C496.305 49.2215 495.8 52.408 495.8 56.0832H496.8C496.8 52.4947 497.294 49.4263 498.171 46.9698L497.229 46.6337ZM501.491 40.3553C499.597 41.8414 498.253 43.9474 497.233 46.6237L498.167 46.9799C499.147 44.4101 500.402 42.4807 502.108 41.142L501.491 40.3553ZM508.3 38.1301C505.701 38.1301 503.389 38.8659 501.491 40.3553L502.108 41.142C503.81 39.8067 505.898 39.1301 508.3 39.1301V38.1301ZM515.119 40.3641C513.313 38.863 510.992 38.1301 508.3 38.1301V39.1301C510.807 39.1301 512.887 39.8096 514.48 41.1333L515.119 40.3641ZM519.273 46.6395C518.35 43.951 517.003 41.8421 515.108 40.3553L514.491 41.142C516.196 42.48 517.449 44.4065 518.327 46.964L519.273 46.6395ZM520.7 56.0832C520.7 52.4046 520.193 49.3222 519.273 46.6395L518.327 46.964C519.206 49.5274 519.7 52.4981 519.7 56.0832H520.7ZM519.273 65.5269C520.193 62.8435 520.7 59.66 520.7 56.0832H519.7C519.7 59.5683 519.206 62.6397 518.327 65.2023L519.273 65.5269ZM598.596 27.5338C595.938 25.574 592.781 24.1389 589.238 23.1178L588.961 24.0786C592.418 25.0752 595.461 26.4649 598.003 28.3387L598.596 27.5338ZM604.744 34.6687C603.307 31.8725 601.255 29.4938 598.596 27.5338L598.003 28.3387C600.544 30.2123 602.492 32.4743 603.855 35.1259L604.744 34.6687ZM606.999 44.1787C606.999 40.5779 606.285 37.4656 604.737 34.6561L603.861 35.1385C605.314 37.7768 605.999 40.7176 605.999 44.1787H606.999ZM606.999 89.0725V44.1787H605.999V89.0725H606.999ZM586.899 89.5725H606.499V88.5725H586.899V89.5725ZM586.399 79.892V89.0725H587.399V79.892H586.399ZM586.399 80.392H586.899V79.392H586.399V80.392ZM582.221 85.9243C584.076 84.365 585.614 82.3964 586.839 80.1298L585.96 79.6542C584.785 81.8265 583.323 83.6916 581.578 85.1588L582.221 85.9243ZM575.759 89.5464C578.198 88.7262 580.472 87.5864 582.244 85.9041L581.555 85.179C579.927 86.7251 577.801 87.8047 575.44 88.5986L575.759 89.5464ZM567.399 90.7831C570.442 90.7831 573.297 90.3742 575.759 89.5464L575.44 88.5986C573.101 89.385 570.357 89.7831 567.399 89.7831V90.7831ZM556.098 88.622C559.373 90.0675 563.144 90.7831 567.399 90.7831V89.7831C563.255 89.7831 559.626 89.0864 556.501 87.7071L556.098 88.622ZM548.285 81.987C550.232 84.8828 552.803 87.168 556.098 88.622L556.501 87.7071C553.396 86.3363 550.967 84.1826 549.114 81.4289L548.285 81.987ZM545.399 70.8124C545.399 75.2185 546.314 78.9525 548.28 81.9803L549.119 81.4356C547.285 78.612 546.399 75.0823 546.399 70.8124H545.399ZM547.355 61.3019C546.007 63.9168 545.399 67.1298 545.399 70.8124H546.399C546.399 67.2312 546.992 64.1894 548.244 61.76L547.355 61.3019ZM552.825 54.9593C550.436 56.5305 548.684 58.7228 547.355 61.3019L548.244 61.76C549.515 59.2948 551.162 57.2499 553.374 55.7947L552.825 54.9593ZM560.765 51.3643C557.815 52.1855 555.167 53.4179 552.825 54.9593L553.374 55.7947C555.632 54.3095 558.184 53.1207 561.033 52.3277L560.765 51.3643ZM570.254 49.633C566.932 49.9376 563.797 50.4467 560.755 51.3674L561.044 52.3245C564.002 51.4294 567.066 50.9295 570.345 50.6288L570.254 49.633ZM571.595 49.4874C571.156 49.5349 570.706 49.5836 570.245 49.6339L570.354 50.628C570.814 50.5778 571.264 50.5291 571.703 50.4816L571.595 49.4874ZM579.213 48.5287C577.219 48.8785 574.688 49.1527 571.595 49.4874L571.703 50.4816C574.783 50.1482 577.352 49.8705 579.386 49.5137L579.213 48.5287ZM583.911 46.8977C582.999 47.5417 581.384 48.1305 579.209 48.5294L579.39 49.513C581.615 49.1048 583.4 48.483 584.488 47.7146L583.911 46.8977ZM585.299 44.1787C585.299 45.3514 584.861 46.287 583.929 46.8854L584.47 47.7269C585.737 46.913 586.299 45.6291 586.299 44.1787H585.299ZM585.299 43.977V44.1787H586.299V43.977H585.299ZM583.185 39.2209C584.556 40.3269 585.299 41.8924 585.299 43.977H586.299C586.299 41.6226 585.443 39.758 583.813 38.4427L583.185 39.2209ZM577.399 37.5159C579.922 37.5159 581.799 38.1023 583.185 39.2209L583.813 38.4427C582.199 37.1401 580.077 36.5159 577.399 36.5159V37.5159ZM571.089 39.2391C572.683 38.1043 574.773 37.5159 577.399 37.5159V36.5159C574.626 36.5159 572.316 37.1381 570.509 38.4245L571.089 39.2391ZM568.086 43.89C568.565 41.8597 569.508 40.2719 571.073 39.2505L570.526 38.4131C568.691 39.6112 567.634 41.4535 567.113 43.6603L568.086 43.89ZM548.381 43.5687L567.581 44.2748L567.618 43.2755L548.418 42.5693L548.381 43.5687ZM552.403 31.9699C549.943 35.1746 548.515 38.8893 547.905 42.9955L548.894 43.1425C549.483 39.1779 550.855 35.6288 553.196 32.5787L552.403 31.9699ZM562.397 24.3516C558.23 26.1971 554.86 28.7681 552.403 31.9699L553.196 32.5787C555.539 29.5257 558.769 27.0524 562.802 25.266L562.397 24.3516ZM577.599 21.5849C571.651 21.5849 566.577 22.5001 562.397 24.3516L562.802 25.266C566.821 23.4857 571.748 22.5849 577.599 22.5849V21.5849ZM589.238 23.1178C585.687 22.0941 581.739 21.5849 577.599 21.5849V22.5849C581.66 22.5849 585.512 23.0846 588.961 24.0786L589.238 23.1178ZM585.299 65.5663C585.299 67.6052 584.819 69.4188 583.786 70.9343L584.613 71.4975C585.78 69.7847 586.299 67.7647 586.299 65.5663H585.299ZM585.899 65.0663H585.799V66.0663H585.899V65.0663ZM585.399 59.3115V65.5663H586.399V59.3115H585.399ZM584.194 60.5819C584.92 60.3413 585.588 60.1234 586.178 59.7263L585.62 58.8966C585.165 59.203 584.635 59.382 583.879 59.6326L584.194 60.5819ZM583.859 60.6934C583.973 60.6549 584.084 60.6181 584.194 60.5819L583.879 59.6326C583.77 59.6687 583.657 59.7063 583.54 59.7455L583.859 60.6934ZM582.936 60.9472C583.251 60.8577 583.543 60.7745 583.822 60.7043L583.577 59.7346C583.281 59.8092 582.974 59.8968 582.663 59.9854L582.936 60.9472ZM581.098 61.4157C581.761 61.2819 582.38 61.1057 582.936 60.9472L582.663 59.9854C582.102 60.1452 581.52 60.3106 580.901 60.4355L581.098 61.4157ZM577.99 62.0227C579.095 61.82 580.099 61.6174 581.098 61.4157L580.901 60.4355C579.9 60.6374 578.904 60.8383 577.809 61.0391L577.99 62.0227ZM574.95 62.5328C575.978 62.429 577.003 62.222 577.998 62.0211L577.801 61.0408C576.796 61.2435 575.821 61.4399 574.849 61.5379L574.95 62.5328ZM570.125 63.8942C571.454 63.2235 573.092 62.8295 574.978 62.5291L574.821 61.5416C572.907 61.8465 571.145 62.2596 569.674 63.0013L570.125 63.8942ZM567.122 66.3375C567.753 65.3377 568.761 64.5818 570.125 63.8942L569.674 63.0013C568.237 63.726 567.046 64.5843 566.277 65.804L567.122 66.3375ZM566.099 69.8035C566.099 68.4945 566.468 67.3753 567.122 66.3375L566.277 65.804C565.531 66.9856 565.099 68.2877 565.099 69.8035H566.099ZM568.197 74.3449C566.842 73.3429 566.099 71.7876 566.099 69.8035H565.099C565.099 72.0566 565.956 73.9314 567.602 75.1488L568.197 74.3449ZM573.799 75.9619C571.482 75.9619 569.593 75.378 568.197 74.3449L567.602 75.1488C569.206 76.3352 571.317 76.9619 573.799 76.9619V75.9619ZM579.674 74.6031C577.945 75.4755 576.022 75.9619 573.799 75.9619V76.9619C576.177 76.9619 578.254 76.4395 580.125 75.4959L579.674 74.6031ZM583.786 70.9343C582.736 72.4752 581.398 73.6363 579.655 74.6134L580.144 75.4857C582.001 74.445 583.463 73.1849 584.613 71.4975L583.786 70.9343Z" fill="#220E6E"/>
</g>
<defs>
<linearGradient id="paint0_linear_2340_2088" x1="36.69" y1="35.5888" x2="875.486" y2="102.502" gradientUnits="userSpaceOnUse">
<stop stop-color="white"/>
<stop offset="0.546875" stop-color="#EC9691"/>
<stop offset="1" stop-color="white"/>
</linearGradient>
<clipPath id="clip0_2340_2088">
<rect width="912" height="114" fill="white"/>
</clipPath>
</defs>
</svg>
