<svg width="150" height="130" viewBox="0 0 150 130" fill="none" xmlns="http://www.w3.org/2000/svg">
<g clip-path="url(#clip0_353_9231)">
<path d="M55.2339 31.194L55.2058 31.2141C53.5906 32.319 52.1161 33.5484 50.7742 34.8783C50.1474 35.497 49.5528 36.1399 48.9863 36.8028C48.464 37.4135 47.9657 38.0443 47.4957 38.6871C47.1341 39.1813 46.7926 39.6835 46.4631 40.1938C45.8404 41.1621 45.2698 42.1585 44.7596 43.183C44.4261 43.8459 44.1207 44.5209 43.8355 45.1999L43.7672 45.3606C43.1284 46.9235 42.6101 48.5306 42.2284 50.1659C41.8065 51.9578 41.5413 53.7859 41.4329 55.63C41.3043 57.8438 41.4047 60.0737 41.7422 62.2875C42.4413 66.8637 44.1529 71.3556 46.9412 75.4296C56.6562 89.6203 75.8249 93.4814 90.2326 84.341C90.55 84.1401 90.8634 83.9352 91.1768 83.7182C91.5585 83.4571 91.9321 83.1919 92.2978 82.9187C92.7076 82.6133 93.1093 82.2959 93.5031 81.9705C94.2182 81.3839 94.8972 80.7692 95.5441 80.1304C96.1307 79.5518 96.6932 78.9532 97.2276 78.3384C97.3802 78.1657 97.5289 77.9889 97.6775 77.8121C98.457 76.876 99.1762 75.9037 99.8351 74.8952C100.229 74.2885 100.602 73.6738 100.956 73.047C102.84 69.6922 104.086 66.032 104.66 62.2634C104.849 61.0379 104.966 59.8005 105.01 58.559C105.066 57.0081 105.01 55.4532 104.833 53.9024C104.709 52.7694 104.52 51.6364 104.267 50.5154C103.411 46.6744 101.824 42.9299 99.4654 39.4867C99.373 39.35 99.2766 39.2134 99.1802 39.0809C98.8748 38.6469 98.5614 38.2251 98.232 37.8072C98.1717 37.7309 98.1074 37.6505 98.0472 37.5742C97.8945 37.3854 97.7418 37.1965 97.5891 37.0117C97.5168 36.9233 97.4445 36.8389 97.3682 36.7506C97.3039 36.6742 97.2356 36.5979 97.1713 36.5215C97.1151 36.4573 97.0588 36.393 97.0026 36.3287C96.9343 36.2564 96.866 36.18 96.8017 36.1037C96.7374 36.0314 96.6731 35.9631 96.6088 35.8908C96.5445 35.8184 96.4802 35.7501 96.4119 35.6778C96.3477 35.6095 96.2794 35.5372 96.2151 35.4689C96.1508 35.4006 96.0825 35.3283 96.0142 35.26C95.9137 35.1555 95.8093 35.047 95.7048 34.9426C95.6325 34.8702 95.5602 34.7979 95.4879 34.7256C95.4718 34.7095 95.4517 34.6894 95.4356 34.6734C95.3713 34.6091 95.303 34.5448 95.2388 34.4805C95.07 34.3158 94.8972 34.1551 94.7245 33.9984C94.62 33.906 94.5196 33.8096 94.4111 33.7171C94.3107 33.6288 94.2102 33.5363 94.1098 33.452C93.6839 33.0783 93.2459 32.7167 92.8 32.3712C92.579 32.1984 92.358 32.0297 92.133 31.865C92.0045 31.7725 91.8759 31.6761 91.7473 31.5837C91.6469 31.5154 91.5504 31.4431 91.45 31.3748C91.3335 31.2944 91.221 31.2141 91.1045 31.1377C90.988 31.0574 90.8714 30.981 90.7549 30.9047C90.6384 30.8284 90.5219 30.752 90.4014 30.6757C90.1683 30.523 89.9273 30.3744 89.6902 30.2337C89.5697 30.1614 89.4492 30.0891 89.3286 30.0208C89.2081 29.9485 89.0876 29.8802 88.967 29.8119C88.8465 29.7436 88.7219 29.6753 88.6014 29.607C88.3563 29.4704 88.1072 29.3378 87.8621 29.2092C87.613 29.0806 87.3639 28.9561 87.1148 28.8356C87.0144 28.7873 86.9139 28.7391 86.8095 28.6909C86.693 28.6387 86.5765 28.5824 86.4599 28.5302C86.3715 28.49 86.2791 28.4458 86.1867 28.4057C86.0461 28.3414 85.9015 28.2771 85.7568 28.2168C85.6403 28.1646 85.5198 28.1164 85.4033 28.0682C85.2707 28.0119 85.1341 27.9557 85.0015 27.9034C84.8408 27.8392 84.6761 27.7749 84.5153 27.7146C84.3908 27.6704 84.2703 27.6222 84.1457 27.578C84.0252 27.5338 83.9046 27.4896 83.7801 27.4454C83.6596 27.4052 83.539 27.361 83.4185 27.3209C83.3542 27.2968 83.2939 27.2767 83.2297 27.2566C83.1654 27.2365 83.1011 27.2124 83.0328 27.1923C78.9507 25.8664 74.6357 25.3722 70.3487 25.7539C70.3487 25.7539 70.3487 25.7539 70.3407 25.7539C70.2643 25.758 70.192 25.766 70.1157 25.774C69.4086 25.8423 68.7014 25.9347 67.9983 26.0512C67.239 26.1758 66.4836 26.3285 65.7323 26.5093C65.2984 26.6137 64.8645 26.7262 64.4386 26.8508C62.3493 27.4494 60.3003 28.2691 58.3195 29.3177C57.2669 29.8762 56.2383 30.4989 55.2299 31.186L55.2339 31.194Z" fill="url(#paint0_linear_353_9231)"/>
<g style="mix-blend-mode:screen">
<path d="M43.992 64.4008C45.7277 65.7146 47.6884 66.9842 48.5 69.0011C48.9459 70.11 49.0022 71.3555 49.5647 72.4082C50.2758 73.726 51.6981 74.5336 53.1485 74.8911C54.6029 75.2527 56.1176 75.2327 57.6122 75.2969C60.1515 75.4094 62.7188 75.8072 65.0853 76.7674C66.3107 77.2656 68.1348 77.9929 68.8459 79.1741C69.087 79.5718 69.1794 80.0379 69.4084 80.4397C69.5771 80.741 69.8182 80.9982 69.774 81.3758C69.7137 81.8821 69.0749 82.1111 68.5727 82.0187C67.7129 81.858 66.9254 81.5727 66.0496 81.4281C65.5031 81.3397 64.804 81.4361 64.784 82.091C64.7598 82.9468 65.9571 83.1798 66.5236 83.4329C68.2955 84.2325 69.6575 84.9155 71.6624 85.032C73.5949 85.1445 75.5636 84.9958 77.4439 85.4539C78.3921 85.6829 79.3082 86.0646 80.2765 86.165C82.1447 86.3578 82.7152 84.9998 84.2219 84.3289C85.7245 83.6579 87.4562 84.0115 89.0914 84.2284C89.4611 84.2767 89.8468 84.3128 90.2285 84.3289C75.8208 93.4693 56.648 89.6122 46.937 75.4175C44.1568 71.3515 42.4412 66.8596 41.7461 62.2834C42.3809 63.0829 43.1885 63.7901 43.996 64.4008H43.992ZM62.2126 82.4004C62.1202 82.0468 61.8831 81.7495 61.638 81.4803C60.2961 80.0058 58.4158 79.0254 56.4391 78.7683C55.9489 78.704 55.3141 78.7723 55.1614 79.2424C55.0811 79.4875 55.1775 79.7526 55.286 79.9897C56.0292 81.6129 57.4636 82.8182 59.135 83.4008C59.9908 83.7021 62.6867 84.1682 62.2126 82.3963V82.4004ZM73.852 83.0713C73.9806 83.0512 74.1172 83.0151 74.1936 82.9146C74.3261 82.7378 74.2016 82.4887 74.069 82.312C73.4744 81.5365 72.6347 80.9499 71.7025 80.6566C70.7343 80.3553 70.8588 81.7254 71.3008 82.1874C71.9436 82.8624 72.932 83.2119 73.852 83.0713V83.0713ZM70.1557 25.7941C70.5615 26.3083 71.0758 27.0918 71.6664 27.4172C72.3896 27.815 73.4422 27.815 74.2337 28.0762C76.0056 28.6628 77.6569 29.631 79.0189 30.9087C79.4769 31.3386 79.9149 31.8087 80.4894 32.0578C81.0639 32.3069 81.8233 32.2587 82.205 31.7604C82.5545 31.3024 82.4782 30.6274 82.8237 30.1694C83.338 29.4904 84.4027 29.6873 85.1902 30.0167C88.1392 31.2381 90.807 33.4238 92.5869 36.0795C93.8404 37.9478 94.5556 40.1335 95.7569 42.0379C97.6814 44.9427 100.422 47.0199 102.993 49.3141C103.435 49.7078 103.857 50.1056 104.267 50.5194C103.411 46.6784 101.824 42.9339 99.4653 39.4906C99.3729 39.354 99.2765 39.2174 99.18 39.0848C98.8747 38.6509 98.5613 38.229 98.2318 37.8112C98.1716 37.7349 98.1073 37.6545 98.047 37.5782C97.8943 37.3893 97.7417 37.2005 97.589 37.0157C97.5167 36.9273 97.4444 36.8429 97.368 36.7545C97.3037 36.6782 97.2354 36.6019 97.1712 36.5255C97.1149 36.4612 97.0587 36.3969 97.0024 36.3327C96.9341 36.2603 96.8658 36.184 96.8015 36.1077C96.7372 36.0353 96.673 35.967 96.6087 35.8947C96.5444 35.8224 96.4801 35.7541 96.4118 35.6818C96.3475 35.6135 96.2792 35.5412 96.2149 35.4729C96.1506 35.4046 96.0823 35.3322 96.014 35.2639C95.9136 35.1595 95.8091 35.051 95.7047 34.9465C95.6324 34.8742 95.56 34.8019 95.4877 34.7296C95.4716 34.7135 95.4515 34.6934 95.4355 34.6773C95.3712 34.6131 95.3029 34.5488 95.2386 34.4845C95.0699 34.3198 94.8971 34.1591 94.7243 34.0024C94.6199 33.91 94.5194 33.8135 94.4109 33.7211C94.3105 33.6327 94.2101 33.5403 94.1096 33.4559C93.6837 33.0823 93.2458 32.7207 92.7998 32.3752C92.5788 32.2024 92.3539 32.0337 92.1329 31.8689C92.0043 31.7765 91.8757 31.6801 91.7472 31.5877C91.6467 31.5194 91.5503 31.4471 91.4499 31.3788C91.3333 31.2984 91.2208 31.2181 91.1043 31.1417C90.9878 31.0614 90.8713 30.985 90.7548 30.9087C90.6383 30.8323 90.5218 30.756 90.4012 30.6797C90.1642 30.527 89.9271 30.3824 89.6901 30.2377C89.5695 30.1654 89.449 30.0931 89.3285 30.0248C89.2079 29.9525 89.0874 29.8842 88.9669 29.8159C88.8463 29.7475 88.7218 29.6792 88.6013 29.6109C88.3562 29.4743 88.1071 29.3418 87.862 29.2132C87.6129 29.0846 87.3638 28.9601 87.1147 28.8395C87.0142 28.7913 86.9138 28.7431 86.8093 28.6949C86.6928 28.6427 86.5763 28.5864 86.4598 28.5342C86.3714 28.494 86.279 28.4498 86.1866 28.4096C86.046 28.3453 85.9013 28.2811 85.7567 28.2208C85.6402 28.1686 85.5196 28.1204 85.4031 28.0721C85.2705 28.0159 85.1339 27.9596 85.0013 27.9074C84.8406 27.8431 84.6759 27.7788 84.5152 27.7186C84.3906 27.6744 84.2701 27.6262 84.1456 27.582C84.025 27.5378 83.9045 27.4936 83.7799 27.4494C83.6594 27.4092 83.5389 27.365 83.4183 27.3248C83.3541 27.3007 83.2938 27.2806 83.2295 27.2606C83.1652 27.2405 83.1009 27.2164 83.0326 27.1963C78.9506 25.8664 74.6355 25.3722 70.3486 25.7539C70.3486 25.7539 70.3486 25.7539 70.3405 25.7539C70.2803 25.7659 70.216 25.778 70.1557 25.7901V25.7941ZM86.741 33.476C86.1384 33.2269 83.6032 32.4877 83.6674 33.3756C83.6835 33.5805 83.784 33.7693 83.8924 33.9421C84.8969 35.6175 86.4076 36.9835 88.1754 37.8112C88.5048 37.9639 88.9146 38.0965 89.212 37.8875C89.5253 37.6706 89.5294 37.2085 89.453 36.8349C89.1276 35.4005 88.1272 34.0466 86.741 33.476V33.476ZM67.1062 71.006C66.6723 70.3511 66.0817 69.7926 65.3705 69.4672C64.6594 69.1417 63.8197 69.0614 63.0804 69.3225C62.6867 69.4631 62.297 69.7323 62.1804 70.1341C62.0358 70.6323 62.3452 71.1386 62.6505 71.5564C63.1648 72.2635 63.7514 72.9787 64.563 73.3001C66.0214 73.8747 68.179 72.6211 67.1062 71.006V71.006ZM53.4498 72.83C54.5587 73.2238 55.7038 73.1153 56.7926 73.5773C57.3109 73.7983 57.9738 73.9309 58.3796 73.5412C58.689 73.2439 58.7051 72.7336 58.5283 72.3439C58.3515 71.9542 58.014 71.6609 57.6765 71.3957C56.1217 70.1783 54.3056 69.3466 52.5097 68.527C51.9552 68.2739 51.2923 68.0248 50.766 68.3342C50.3923 68.5551 50.2075 69.0172 50.2276 69.4511C50.2477 69.885 50.4405 70.2908 50.6776 70.6564C51.3244 71.6649 52.3249 72.4323 53.4539 72.8341L53.4498 72.83ZM77.5524 82.087C77.5203 82.3642 77.681 82.6253 77.8537 82.8503C78.5086 83.7142 79.4207 84.4414 80.4934 84.6182C82.1447 84.8874 83.105 83.5173 84.4228 82.8383C85.5638 82.2517 86.9017 82.0347 88.1633 82.2758C89.5414 82.537 90.8954 82.7499 92.2976 82.9186C92.7074 82.6133 93.1092 82.2959 93.5029 81.9704C92.9083 81.9343 92.3177 81.87 91.7391 81.7334C90.2445 81.3798 89.2321 80.0259 87.633 80.1544C86.2348 80.2709 85.1259 81.4642 83.7438 81.6892C82.7876 81.8459 81.8273 81.5245 80.8872 81.2914C79.947 81.0584 78.8903 80.9379 78.0586 81.4361C77.8136 81.5847 77.5845 81.8057 77.5524 82.091V82.087ZM43.8353 45.1959L43.767 45.3566C43.1282 46.9195 42.6099 48.5266 42.2282 50.1618C42.2443 50.1899 42.2604 50.2181 42.2724 50.2422C42.9635 51.4595 44.3014 52.3595 44.4983 53.7457C44.6871 55.0675 43.759 56.2527 43.3291 57.5143C42.0434 61.295 45.4304 63.9066 48.2589 65.6222C48.516 65.7789 48.7852 65.9275 49.0865 65.9637C49.3839 65.9998 49.7173 65.8994 49.878 65.6463C50.087 65.3128 49.9343 64.8829 49.7615 64.5293C48.7732 62.4923 46.6357 60.4995 46.9933 58.0206C47.1781 56.7389 48.1424 55.6179 48.0741 54.3282C48.0178 53.1711 47.154 52.247 46.4951 51.2908C45.2616 49.4949 44.5706 47.4056 43.8715 45.3164C43.8554 45.2762 43.8434 45.232 43.8313 45.1918L43.8353 45.1959ZM46.4589 40.1897C45.8362 41.158 45.2657 42.1544 44.7554 43.1789C45.2335 43.8981 45.9768 44.4445 46.8165 44.6575C47.0656 44.7218 47.3428 44.7539 47.5678 44.6253C47.7928 44.4968 47.9134 44.2316 47.9294 43.9704C47.9455 43.7133 47.8692 43.4562 47.7888 43.2071C47.5518 42.4758 47.146 41.0616 46.4589 40.1897ZM65.7362 26.5132C66.7888 27.8391 68.4401 28.3574 69.7579 29.3859C70.5334 29.9926 70.7785 30.7922 71.4374 31.4631C72.0963 32.1341 73.0003 32.5439 73.8802 32.8292C75.1739 33.251 76.552 33.4881 77.697 34.2274C78.5769 34.7979 79.2519 35.6296 79.8948 36.4572C81.0438 37.9398 82.1447 39.4665 83.1853 41.0294C83.8402 42.0138 84.4831 43.0182 85.3388 43.8378C86.1906 44.6535 87.2995 45.2722 88.4807 45.2923C89.6017 45.3124 90.7347 44.7941 91.8155 45.0954C92.5105 45.2883 93.069 45.7905 93.5953 46.2806C96.1627 48.6632 98.9631 51.0055 101.221 53.6613C102.555 55.2322 103.905 56.8233 105.014 58.5509C105.07 57 105.014 55.4452 104.837 53.8943C103.684 52.239 102.238 50.7725 100.811 49.3341C99.3568 47.8677 97.9024 46.3972 96.448 44.9307C93.6877 42.1424 90.7307 39.2415 86.9259 38.2732C86.3513 38.1286 85.7607 38.0282 85.2143 37.7991C84.0411 37.309 83.1974 36.2845 82.3054 35.3724C79.8184 32.8211 76.6846 30.9569 73.3538 29.6913C72.3574 29.3096 71.3289 28.9802 70.4289 28.4016C69.4687 27.7869 68.7173 26.9391 68.0022 26.0512C67.2428 26.1758 66.4875 26.3284 65.7362 26.5092V26.5132ZM96.7051 65.136C96.9622 65.0717 97.2194 64.9391 97.368 64.7182C97.6774 64.2481 97.3761 63.6253 97.0587 63.1593C96.1868 61.8696 95.1181 60.6442 93.7681 59.8366C93.1614 59.475 92.6913 59.3786 92.0244 59.2861C91.4057 59.1978 90.6825 58.7679 90.0758 58.804C89.907 58.8161 89.7463 58.8964 89.6057 58.9888C89.0271 59.3585 88.5571 60.0335 88.7138 60.7044C88.77 60.9334 88.8905 61.1424 89.0352 61.3312C89.4329 61.8495 89.9994 62.2352 90.6262 62.416C91.1003 62.5526 91.6025 62.5767 92.0646 62.7374C93.6114 63.2758 94.8489 65.6181 96.7051 65.14V65.136ZM73.8601 34.605C73.2293 34.4363 72.5583 34.3278 71.9235 34.4845C71.2887 34.6412 70.7021 35.1273 70.5936 35.7742C70.4731 36.4894 70.9472 37.1764 71.5057 37.6344C72.0079 38.0482 72.5945 38.3536 73.173 38.6509C75.1498 39.6754 77.1265 40.704 79.1073 41.7285C79.4046 41.8852 79.8224 42.0178 80.0354 41.7566C80.168 41.5919 80.1398 41.3549 80.0916 41.15C79.4367 38.2974 76.6605 35.3523 73.8641 34.601L73.8601 34.605ZM86.5281 48.7355C87.0102 48.844 87.5245 48.8038 87.9825 48.615C88.3401 48.4663 88.6213 48.4261 88.995 48.3418C89.3847 48.2534 89.6981 48.0806 89.8468 47.6909C89.8709 47.6266 89.8869 47.5543 89.8628 47.494C89.8347 47.4257 89.7704 47.3855 89.7102 47.3454C89.0633 46.9516 88.4004 46.5579 87.6571 46.4012C86.9178 46.2485 86.0741 46.3771 85.5437 46.9155C85.2906 47.1726 85.1219 47.5543 85.2384 47.8958C85.4071 48.3819 86.0741 48.631 86.5321 48.7355H86.5281ZM58.3194 29.3217C59.7417 30.7721 61.9193 31.3627 63.5384 32.6484C65.1978 33.9742 66.3589 36.0916 68.412 36.63C68.5365 36.6621 68.6772 36.6862 68.7816 36.6179C68.87 36.5617 68.9102 36.4532 68.9504 36.3528C69.32 35.3322 69.6937 34.2595 69.537 33.1908C69.312 31.656 68.1026 30.5792 67.0178 29.5909C66.0817 28.7351 65.3264 27.7427 64.4424 26.8548C62.3532 27.4534 60.3041 28.273 58.3234 29.3217H58.3194ZM56.4551 33.8617C57.2225 35.1836 58.4238 36.184 59.3881 37.3692C61.7063 40.2138 62.6867 44.1553 65.6237 46.365C67.3553 47.6668 69.5731 48.1971 71.3088 49.4908C73.7757 51.327 74.9489 54.4327 77.1265 56.5983C79.2117 58.6714 82.1889 59.8607 83.7558 62.3517C84.5353 63.5932 84.8888 65.0557 85.5638 66.3574C86.5361 68.2297 88.1312 69.66 89.9151 70.7448C90.8351 71.3033 91.8074 71.7774 92.7958 72.2033C94.6159 72.9827 96.223 74.1157 98.2077 74.5135C98.7542 74.626 99.3287 74.6862 99.8389 74.9032C99.18 75.9076 98.4609 76.884 97.6814 77.8201C95.998 77.1411 94.4632 76.0764 93.0208 74.9956C91.5182 73.8706 89.9191 73.272 88.0026 73.4769C86.4276 73.6456 85.2223 74.2965 83.7036 73.4327C82.4782 72.7376 80.9555 72.5568 79.8466 71.6568C78.7979 70.8091 78.2796 69.4832 77.7131 68.2538C75.4632 63.3682 71.7508 59.1656 67.1785 56.3251C65.9973 55.5938 64.6634 54.9309 63.2893 55.0996C62.759 55.1639 62.2487 55.3528 61.7144 55.417C59.585 55.6702 57.7368 53.8943 56.7203 52.006C56.1699 50.9895 55.756 49.8966 55.515 48.7636C55.2578 47.5744 55.1895 46.357 55.0248 45.1517C54.5105 41.4433 53.024 37.8795 50.778 34.8863C52.12 33.5564 53.5985 32.327 55.2096 31.2221C55.6757 32.0779 55.973 33.026 56.4632 33.8698L56.4551 33.8617ZM63.3657 50.8649C63.9483 50.6721 64.575 50.8047 65.1456 50.6359C66.612 50.202 65.4027 48.6592 64.7518 47.9601C62.9398 46.0115 61.1318 44.0628 59.3198 42.1142C58.8979 41.6602 58.2752 41.162 57.7247 41.4553C57.3109 41.6723 57.2185 42.2147 57.2024 42.6807C57.094 45.6418 58.2551 48.627 60.3323 50.7404C60.6899 51.106 61.1157 51.4595 61.626 51.4917C62.2729 51.5278 62.7831 51.0618 63.3657 50.8689V50.8649ZM83.4304 70.5761C84.029 70.8252 86.4718 71.1466 85.6362 69.8087C84.8808 68.6033 83.5549 67.8118 82.9081 66.5462C82.655 66.0521 82.5184 65.5057 82.3014 64.9914C82.0844 64.4811 81.759 63.9789 81.2608 63.7298C81.068 63.6334 80.851 63.5771 80.6421 63.6173C80.5055 63.6414 80.3769 63.7057 80.2604 63.786C79.6778 64.1878 79.4448 64.9633 79.5251 65.6664C79.6055 66.3695 79.943 67.0163 80.3086 67.623C81.076 68.9007 82.0282 69.9935 83.4304 70.5801V70.5761ZM59.5167 33.0783C60.3162 33.0943 61.0635 33.472 61.7305 33.9059C63.2452 34.8863 64.5107 36.188 65.6679 37.5581C66.833 38.9362 67.287 39.8964 69.2035 39.9487C74.6596 40.0933 79.3283 43.8017 83.1773 47.6748C84.3424 48.844 85.6844 50.1377 87.3357 50.0815C88.2035 50.0533 89.0151 49.6395 89.8709 49.4949C91.3816 49.2377 92.9123 49.8243 94.2462 50.5797C96.0542 51.6042 97.6613 52.9501 99.0796 54.4689C101.197 56.7389 103.166 59.471 104.668 62.2633C104.094 66.028 102.844 69.6881 100.964 73.047C100.908 73.047 100.851 73.047 100.795 73.047C98.3443 72.9988 95.9216 72.2274 93.8645 70.9095C91.8878 69.6439 89.1557 67.5386 88.6535 65.124C88.553 64.6338 88.6615 63.9668 89.1557 63.8785C89.3445 63.8423 89.5334 63.9106 89.7142 63.9789C91.3012 64.5775 93.1614 65.1481 94.5556 66.1123C95.6163 66.8436 96.7734 67.9002 98.1796 67.394C99.2644 67.0043 99.8108 65.7106 99.6863 64.5655C99.5577 63.4204 98.9028 62.4039 98.1957 61.4919C96.9984 59.9451 95.556 58.5228 93.7601 57.7393C93.0489 57.4299 92.2936 57.221 91.6065 56.8514C89.8227 55.8911 88.5691 53.8622 86.5643 53.593C86.1906 53.5407 85.7045 53.6412 85.6241 54.0108C85.596 54.1273 85.6241 54.2519 85.6522 54.3684C85.9214 55.4974 86.4638 56.5621 87.2111 57.446C87.3558 57.6188 87.5124 57.7915 87.5727 58.0085C87.8298 58.9647 86.6366 59.5393 85.8973 59.3103C84.6799 58.9326 83.7438 57.7554 82.7233 57.0523C81.2849 56.0559 79.7863 55.1358 78.3198 54.1796C77.8216 53.8541 77.3154 53.5207 76.9457 53.0506C76.5801 52.5805 76.3752 51.9417 76.564 51.3792C76.6444 51.1462 76.785 50.9332 76.8011 50.6922C76.8252 50.4069 76.6725 50.1417 76.5279 49.8966C76.1382 49.2337 75.7083 48.5386 75.0252 48.1891C74.744 48.0444 74.4306 47.9681 74.1293 47.8797C72.7311 47.4699 71.2927 46.8672 69.9387 46.3409C68.3236 45.7182 66.7004 44.7137 65.5755 43.3838C64.4706 42.0821 64.1371 40.3223 63.0563 38.9281C61.9072 37.4536 60.497 36.2041 59.1189 34.9506C58.7171 34.5809 58.2752 34.0466 58.5082 33.5524C58.681 33.1948 59.131 33.0702 59.5247 33.0823L59.5167 33.0783ZM94.6239 55.6782C94.9453 55.7224 96.3515 55.8871 96.5323 55.626C96.5725 55.5697 96.5725 55.4934 96.5604 55.4211C96.4962 54.9068 96.1265 54.493 95.7649 54.1233C94.4833 52.8256 92.9123 51.6082 91.0883 51.568C90.7789 51.56 90.4133 51.6203 90.2606 51.8894C90.0557 52.247 90.353 52.6729 90.6342 52.9783C91.257 53.6532 91.8878 54.3322 92.6431 54.8586C93.2337 55.2684 93.9047 55.5778 94.6199 55.6782H94.6239ZM50.1151 38.2371C50.8865 39.4625 51.3084 40.9852 50.9066 42.3794C50.5611 43.5928 49.6209 44.6535 49.633 45.915C49.649 47.5704 51.232 48.7154 52.0276 50.1658C52.7949 51.568 52.807 53.2434 52.9878 54.8345C53.0923 55.7425 53.2329 57.0603 53.8838 57.7514C54.5105 58.4183 55.4105 58.9728 56.0815 59.6397C56.7886 60.3428 57.5761 61.0218 58.5403 61.2749C59.5046 61.524 60.6818 61.2107 61.1358 60.3268C61.4613 59.7 61.3729 58.9004 61.7626 58.3098C62.1724 57.6831 63.0242 57.4661 63.7634 57.6027C64.4987 57.7393 65.1496 58.1612 65.7643 58.5871C70.1878 61.6606 74.0931 65.6181 76.4957 70.4395C76.7328 70.9176 76.9618 71.4278 76.9457 71.9622C76.9297 72.4966 76.5962 73.059 76.0699 73.1595C75.8649 73.1997 75.6118 73.1836 75.4953 73.3604C75.3587 73.5653 75.5355 73.8305 75.7123 74.0072C76.9698 75.2568 79.2559 77.1491 81.1724 76.2411C81.6907 75.996 82.1769 75.6224 82.7514 75.5742C84.2098 75.4496 85.1259 77.0527 86.6567 76.6268C87.5566 76.3737 88.3522 75.7951 89.2762 75.6465C90.7146 75.4175 91.9963 76.2612 93.2096 76.9C93.8324 77.2255 94.4913 77.5951 95.1864 77.7237C95.3712 77.7598 97.4162 78.1375 97.2274 78.3504C96.693 78.9652 96.1305 79.5638 95.544 80.1424C95.4074 80.1142 95.2828 80.0901 95.1743 80.0741C94.3145 79.9415 93.4105 79.8732 92.5668 79.7044C91.5945 79.5116 90.799 78.8205 89.8428 78.5433C88.8463 78.25 87.7053 78.2621 86.8254 78.8165C86.058 79.2986 85.4754 80.1825 84.5755 80.279C83.796 80.3593 83.0969 79.8129 82.3295 79.6723C81.542 79.5276 80.7505 79.8129 79.959 79.9495C76.7448 80.508 73.611 78.5754 71.3008 76.5344C70.2642 75.6184 68.4723 74.2001 68.862 72.605C69.0066 72.0225 69.4405 71.5323 69.549 70.9417C69.762 69.7765 68.7897 68.8163 67.8776 68.3141C66.2866 67.4382 64.6032 65.7628 62.8032 65.3731C62.3251 65.2726 61.7827 65.3449 61.4291 65.6824C60.6899 66.3896 61.168 67.7114 60.6296 68.5792C59.7417 70.0136 58.1828 69.0935 57.1381 68.4266C54.9967 67.0605 52.9436 65.7748 51.216 63.8744C49.9986 62.5365 48.3352 60.6884 48.5683 58.7237C48.6767 57.8317 49.3316 57.1085 49.641 56.2648C50.2919 54.501 49.3557 52.5765 48.3634 50.9774C47.7085 49.9207 46.9853 48.7556 47.1781 47.5262C47.4111 46.0396 48.9017 45.0351 49.3035 43.5847C49.7334 42.0339 48.8214 40.4469 47.8531 39.1612C47.7366 39.0045 47.6201 38.8518 47.4995 38.6991C47.9696 38.0523 48.4678 37.4255 48.9901 36.8148C49.3959 37.2648 49.7897 37.7268 50.1191 38.2491L50.1151 38.2371ZM64.9768 59.8808C64.5991 59.7482 64.0808 59.5232 63.7233 59.7602C63.4219 59.9571 63.1809 60.6442 63.205 60.9857C63.2291 61.3111 63.426 61.5964 63.6309 61.8535C64.6032 63.0829 65.8205 64.1195 67.1906 64.8829C67.5442 65.0798 67.9861 65.2606 68.3397 65.0557C68.6048 64.903 68.7254 64.5655 68.7053 64.2601C68.6852 63.9548 68.5486 63.6655 68.412 63.3923C68.0705 62.7053 67.7009 62.0263 67.2067 61.4357C66.6321 60.7567 65.8286 60.1741 64.9808 59.8808H64.9768Z" fill="#302A46"/>
</g>
<path opacity="0.8" d="M43.992 64.4008C45.7277 65.7146 47.6884 66.9842 48.5 69.0011C48.9459 70.11 49.0022 71.3555 49.5647 72.4082C50.2758 73.726 51.6981 74.5336 53.1485 74.8911C54.6029 75.2527 56.1176 75.2327 57.6122 75.2969C60.1515 75.4094 62.7188 75.8072 65.0853 76.7674C66.3107 77.2656 68.1348 77.9929 68.8459 79.1741C69.087 79.5718 69.1794 80.0379 69.4084 80.4397C69.5771 80.741 69.8182 80.9982 69.774 81.3758C69.7137 81.8821 69.0749 82.1111 68.5727 82.0187C67.7129 81.858 66.9254 81.5727 66.0496 81.4281C65.5031 81.3397 64.804 81.4361 64.784 82.091C64.7598 82.9468 65.9571 83.1798 66.5236 83.4329C68.2955 84.2325 69.6575 84.9155 71.6624 85.032C73.5949 85.1445 75.5636 84.9958 77.4439 85.4539C78.3921 85.6829 79.3082 86.0646 80.2765 86.165C82.1447 86.3578 82.7152 84.9998 84.2219 84.3289C85.7245 83.6579 87.4562 84.0115 89.0914 84.2284C89.4611 84.2767 89.8468 84.3128 90.2285 84.3289C75.8208 93.4693 56.648 89.6122 46.937 75.4175C44.1568 71.3515 42.4412 66.8596 41.7461 62.2834C42.3809 63.0829 43.1885 63.7901 43.996 64.4008H43.992ZM62.2126 82.4004C62.1202 82.0468 61.8831 81.7495 61.638 81.4803C60.2961 80.0058 58.4158 79.0254 56.4391 78.7683C55.9489 78.704 55.3141 78.7723 55.1614 79.2424C55.0811 79.4875 55.1775 79.7526 55.286 79.9897C56.0292 81.6129 57.4636 82.8182 59.135 83.4008C59.9908 83.7021 62.6867 84.1682 62.2126 82.3963V82.4004ZM73.852 83.0713C73.9806 83.0512 74.1172 83.0151 74.1936 82.9146C74.3261 82.7378 74.2016 82.4887 74.069 82.312C73.4744 81.5365 72.6347 80.9499 71.7025 80.6566C70.7343 80.3553 70.8588 81.7254 71.3008 82.1874C71.9436 82.8624 72.932 83.2119 73.852 83.0713V83.0713ZM70.1557 25.7941C70.5615 26.3083 71.0758 27.0918 71.6664 27.4172C72.3896 27.815 73.4422 27.815 74.2337 28.0762C76.0056 28.6628 77.6569 29.631 79.0189 30.9087C79.4769 31.3386 79.9149 31.8087 80.4894 32.0578C81.0639 32.3069 81.8233 32.2587 82.205 31.7604C82.5545 31.3024 82.4782 30.6274 82.8237 30.1694C83.338 29.4904 84.4027 29.6873 85.1902 30.0167C88.1392 31.2381 90.807 33.4238 92.5869 36.0795C93.8404 37.9478 94.5556 40.1335 95.7569 42.0379C97.6814 44.9427 100.422 47.0199 102.993 49.3141C103.435 49.7078 103.857 50.1056 104.267 50.5194C103.411 46.6784 101.824 42.9339 99.4653 39.4906C99.3729 39.354 99.2765 39.2174 99.18 39.0848C98.8747 38.6509 98.5613 38.229 98.2318 37.8112C98.1716 37.7349 98.1073 37.6545 98.047 37.5782C97.8943 37.3893 97.7417 37.2005 97.589 37.0157C97.5167 36.9273 97.4444 36.8429 97.368 36.7545C97.3037 36.6782 97.2354 36.6019 97.1712 36.5255C97.1149 36.4612 97.0587 36.3969 97.0024 36.3327C96.9341 36.2603 96.8658 36.184 96.8015 36.1077C96.7372 36.0353 96.673 35.967 96.6087 35.8947C96.5444 35.8224 96.4801 35.7541 96.4118 35.6818C96.3475 35.6135 96.2792 35.5412 96.2149 35.4729C96.1506 35.4046 96.0823 35.3322 96.014 35.2639C95.9136 35.1595 95.8091 35.051 95.7047 34.9465C95.6324 34.8742 95.56 34.8019 95.4877 34.7296C95.4716 34.7135 95.4515 34.6934 95.4355 34.6773C95.3712 34.6131 95.3029 34.5488 95.2386 34.4845C95.0699 34.3198 94.8971 34.1591 94.7243 34.0024C94.6199 33.91 94.5194 33.8135 94.4109 33.7211C94.3105 33.6327 94.2101 33.5403 94.1096 33.4559C93.6837 33.0823 93.2458 32.7207 92.7998 32.3752C92.5788 32.2024 92.3539 32.0337 92.1329 31.8689C92.0043 31.7765 91.8757 31.6801 91.7472 31.5877C91.6467 31.5194 91.5503 31.4471 91.4499 31.3788C91.3333 31.2984 91.2208 31.2181 91.1043 31.1417C90.9878 31.0614 90.8713 30.985 90.7548 30.9087C90.6383 30.8323 90.5218 30.756 90.4012 30.6797C90.1642 30.527 89.9271 30.3824 89.6901 30.2377C89.5695 30.1654 89.449 30.0931 89.3285 30.0248C89.2079 29.9525 89.0874 29.8842 88.9669 29.8159C88.8463 29.7475 88.7218 29.6792 88.6013 29.6109C88.3562 29.4743 88.1071 29.3418 87.862 29.2132C87.6129 29.0846 87.3638 28.9601 87.1147 28.8395C87.0142 28.7913 86.9138 28.7431 86.8093 28.6949C86.6928 28.6427 86.5763 28.5864 86.4598 28.5342C86.3714 28.494 86.279 28.4498 86.1866 28.4096C86.046 28.3453 85.9013 28.2811 85.7567 28.2208C85.6402 28.1686 85.5196 28.1204 85.4031 28.0721C85.2705 28.0159 85.1339 27.9596 85.0013 27.9074C84.8406 27.8431 84.6759 27.7788 84.5152 27.7186C84.3906 27.6744 84.2701 27.6262 84.1456 27.582C84.025 27.5378 83.9045 27.4936 83.7799 27.4494C83.6594 27.4092 83.5389 27.365 83.4183 27.3248C83.3541 27.3007 83.2938 27.2806 83.2295 27.2606C83.1652 27.2405 83.1009 27.2164 83.0326 27.1963C78.9506 25.8664 74.6355 25.3722 70.3486 25.7539C70.3486 25.7539 70.3486 25.7539 70.3405 25.7539C70.2803 25.7659 70.216 25.778 70.1557 25.7901V25.7941ZM86.741 33.476C86.1384 33.2269 83.6032 32.4877 83.6674 33.3756C83.6835 33.5805 83.784 33.7693 83.8924 33.9421C84.8969 35.6175 86.4076 36.9835 88.1754 37.8112C88.5048 37.9639 88.9146 38.0965 89.212 37.8875C89.5253 37.6706 89.5294 37.2085 89.453 36.8349C89.1276 35.4005 88.1272 34.0466 86.741 33.476V33.476ZM67.1062 71.006C66.6723 70.3511 66.0817 69.7926 65.3705 69.4672C64.6594 69.1417 63.8197 69.0614 63.0804 69.3225C62.6867 69.4631 62.297 69.7323 62.1804 70.1341C62.0358 70.6323 62.3452 71.1386 62.6505 71.5564C63.1648 72.2635 63.7514 72.9787 64.563 73.3001C66.0214 73.8747 68.179 72.6211 67.1062 71.006V71.006ZM53.4498 72.83C54.5587 73.2238 55.7038 73.1153 56.7926 73.5773C57.3109 73.7983 57.9738 73.9309 58.3796 73.5412C58.689 73.2439 58.7051 72.7336 58.5283 72.3439C58.3515 71.9542 58.014 71.6609 57.6765 71.3957C56.1217 70.1783 54.3056 69.3466 52.5097 68.527C51.9552 68.2739 51.2923 68.0248 50.766 68.3342C50.3923 68.5551 50.2075 69.0172 50.2276 69.4511C50.2477 69.885 50.4405 70.2908 50.6776 70.6564C51.3244 71.6649 52.3249 72.4323 53.4539 72.8341L53.4498 72.83ZM77.5524 82.087C77.5203 82.3642 77.681 82.6253 77.8537 82.8503C78.5086 83.7142 79.4207 84.4414 80.4934 84.6182C82.1447 84.8874 83.105 83.5173 84.4228 82.8383C85.5638 82.2517 86.9017 82.0347 88.1633 82.2758C89.5414 82.537 90.8954 82.7499 92.2976 82.9186C92.7074 82.6133 93.1092 82.2959 93.5029 81.9704C92.9083 81.9343 92.3177 81.87 91.7391 81.7334C90.2445 81.3798 89.2321 80.0259 87.633 80.1544C86.2348 80.2709 85.1259 81.4642 83.7438 81.6892C82.7876 81.8459 81.8273 81.5245 80.8872 81.2914C79.947 81.0584 78.8903 80.9379 78.0586 81.4361C77.8136 81.5847 77.5845 81.8057 77.5524 82.091V82.087ZM43.8353 45.1959L43.767 45.3566C43.1282 46.9195 42.6099 48.5266 42.2282 50.1618C42.2443 50.1899 42.2604 50.2181 42.2724 50.2422C42.9635 51.4595 44.3014 52.3595 44.4983 53.7457C44.6871 55.0675 43.759 56.2527 43.3291 57.5143C42.0434 61.295 45.4304 63.9066 48.2589 65.6222C48.516 65.7789 48.7852 65.9275 49.0865 65.9637C49.3839 65.9998 49.7173 65.8994 49.878 65.6463C50.087 65.3128 49.9343 64.8829 49.7615 64.5293C48.7732 62.4923 46.6357 60.4995 46.9933 58.0206C47.1781 56.7389 48.1424 55.6179 48.0741 54.3282C48.0178 53.1711 47.154 52.247 46.4951 51.2908C45.2616 49.4949 44.5706 47.4056 43.8715 45.3164C43.8554 45.2762 43.8434 45.232 43.8313 45.1918L43.8353 45.1959ZM46.4589 40.1897C45.8362 41.158 45.2657 42.1544 44.7554 43.1789C45.2335 43.8981 45.9768 44.4445 46.8165 44.6575C47.0656 44.7218 47.3428 44.7539 47.5678 44.6253C47.7928 44.4968 47.9134 44.2316 47.9294 43.9704C47.9455 43.7133 47.8692 43.4562 47.7888 43.2071C47.5518 42.4758 47.146 41.0616 46.4589 40.1897ZM65.7362 26.5132C66.7888 27.8391 68.4401 28.3574 69.7579 29.3859C70.5334 29.9926 70.7785 30.7922 71.4374 31.4631C72.0963 32.1341 73.0003 32.5439 73.8802 32.8292C75.1739 33.251 76.552 33.4881 77.697 34.2274C78.5769 34.7979 79.2519 35.6296 79.8948 36.4572C81.0438 37.9398 82.1447 39.4665 83.1853 41.0294C83.8402 42.0138 84.4831 43.0182 85.3388 43.8378C86.1906 44.6535 87.2995 45.2722 88.4807 45.2923C89.6017 45.3124 90.7347 44.7941 91.8155 45.0954C92.5105 45.2883 93.069 45.7905 93.5953 46.2806C96.1627 48.6632 98.9631 51.0055 101.221 53.6613C102.555 55.2322 103.905 56.8233 105.014 58.5509C105.07 57 105.014 55.4452 104.837 53.8943C103.684 52.239 102.238 50.7725 100.811 49.3341C99.3568 47.8677 97.9024 46.3972 96.448 44.9307C93.6877 42.1424 90.7307 39.2415 86.9259 38.2732C86.3513 38.1286 85.7607 38.0282 85.2143 37.7991C84.0411 37.309 83.1974 36.2845 82.3054 35.3724C79.8184 32.8211 76.6846 30.9569 73.3538 29.6913C72.3574 29.3096 71.3289 28.9802 70.4289 28.4016C69.4687 27.7869 68.7173 26.9391 68.0022 26.0512C67.2428 26.1758 66.4875 26.3284 65.7362 26.5092V26.5132ZM96.7051 65.136C96.9622 65.0717 97.2194 64.9391 97.368 64.7182C97.6774 64.2481 97.3761 63.6253 97.0587 63.1593C96.1868 61.8696 95.1181 60.6442 93.7681 59.8366C93.1614 59.475 92.6913 59.3786 92.0244 59.2861C91.4057 59.1978 90.6825 58.7679 90.0758 58.804C89.907 58.8161 89.7463 58.8964 89.6057 58.9888C89.0271 59.3585 88.5571 60.0335 88.7138 60.7044C88.77 60.9334 88.8905 61.1424 89.0352 61.3312C89.4329 61.8495 89.9994 62.2352 90.6262 62.416C91.1003 62.5526 91.6025 62.5767 92.0646 62.7374C93.6114 63.2758 94.8489 65.6181 96.7051 65.14V65.136ZM73.8601 34.605C73.2293 34.4363 72.5583 34.3278 71.9235 34.4845C71.2887 34.6412 70.7021 35.1273 70.5936 35.7742C70.4731 36.4894 70.9472 37.1764 71.5057 37.6344C72.0079 38.0482 72.5945 38.3536 73.173 38.6509C75.1498 39.6754 77.1265 40.704 79.1073 41.7285C79.4046 41.8852 79.8224 42.0178 80.0354 41.7566C80.168 41.5919 80.1398 41.3549 80.0916 41.15C79.4367 38.2974 76.6605 35.3523 73.8641 34.601L73.8601 34.605ZM86.5281 48.7355C87.0102 48.844 87.5245 48.8038 87.9825 48.615C88.3401 48.4663 88.6213 48.4261 88.995 48.3418C89.3847 48.2534 89.6981 48.0806 89.8468 47.6909C89.8709 47.6266 89.8869 47.5543 89.8628 47.494C89.8347 47.4257 89.7704 47.3855 89.7102 47.3454C89.0633 46.9516 88.4004 46.5579 87.6571 46.4012C86.9178 46.2485 86.0741 46.3771 85.5437 46.9155C85.2906 47.1726 85.1219 47.5543 85.2384 47.8958C85.4071 48.3819 86.0741 48.631 86.5321 48.7355H86.5281ZM58.3194 29.3217C59.7417 30.7721 61.9193 31.3627 63.5384 32.6484C65.1978 33.9742 66.3589 36.0916 68.412 36.63C68.5365 36.6621 68.6772 36.6862 68.7816 36.6179C68.87 36.5617 68.9102 36.4532 68.9504 36.3528C69.32 35.3322 69.6937 34.2595 69.537 33.1908C69.312 31.656 68.1026 30.5792 67.0178 29.5909C66.0817 28.7351 65.3264 27.7427 64.4424 26.8548C62.3532 27.4534 60.3041 28.273 58.3234 29.3217H58.3194ZM56.4551 33.8617C57.2225 35.1836 58.4238 36.184 59.3881 37.3692C61.7063 40.2138 62.6867 44.1553 65.6237 46.365C67.3553 47.6668 69.5731 48.1971 71.3088 49.4908C73.7757 51.327 74.9489 54.4327 77.1265 56.5983C79.2117 58.6714 82.1889 59.8607 83.7558 62.3517C84.5353 63.5932 84.8888 65.0557 85.5638 66.3574C86.5361 68.2297 88.1312 69.66 89.9151 70.7448C90.8351 71.3033 91.8074 71.7774 92.7958 72.2033C94.6159 72.9827 96.223 74.1157 98.2077 74.5135C98.7542 74.626 99.3287 74.6862 99.8389 74.9032C99.18 75.9076 98.4609 76.884 97.6814 77.8201C95.998 77.1411 94.4632 76.0764 93.0208 74.9956C91.5182 73.8706 89.9191 73.272 88.0026 73.4769C86.4276 73.6456 85.2223 74.2965 83.7036 73.4327C82.4782 72.7376 80.9555 72.5568 79.8466 71.6568C78.7979 70.8091 78.2796 69.4832 77.7131 68.2538C75.4632 63.3682 71.7508 59.1656 67.1785 56.3251C65.9973 55.5938 64.6634 54.9309 63.2893 55.0996C62.759 55.1639 62.2487 55.3528 61.7144 55.417C59.585 55.6702 57.7368 53.8943 56.7203 52.006C56.1699 50.9895 55.756 49.8966 55.515 48.7636C55.2578 47.5744 55.1895 46.357 55.0248 45.1517C54.5105 41.4433 53.024 37.8795 50.778 34.8863C52.12 33.5564 53.5985 32.327 55.2096 31.2221C55.6757 32.0779 55.973 33.026 56.4632 33.8698L56.4551 33.8617ZM63.3657 50.8649C63.9483 50.6721 64.575 50.8047 65.1456 50.6359C66.612 50.202 65.4027 48.6592 64.7518 47.9601C62.9398 46.0115 61.1318 44.0628 59.3198 42.1142C58.8979 41.6602 58.2752 41.162 57.7247 41.4553C57.3109 41.6723 57.2185 42.2147 57.2024 42.6807C57.094 45.6418 58.2551 48.627 60.3323 50.7404C60.6899 51.106 61.1157 51.4595 61.626 51.4917C62.2729 51.5278 62.7831 51.0618 63.3657 50.8689V50.8649ZM83.4304 70.5761C84.029 70.8252 86.4718 71.1466 85.6362 69.8087C84.8808 68.6033 83.5549 67.8118 82.9081 66.5462C82.655 66.0521 82.5184 65.5057 82.3014 64.9914C82.0844 64.4811 81.759 63.9789 81.2608 63.7298C81.068 63.6334 80.851 63.5771 80.6421 63.6173C80.5055 63.6414 80.3769 63.7057 80.2604 63.786C79.6778 64.1878 79.4448 64.9633 79.5251 65.6664C79.6055 66.3695 79.943 67.0163 80.3086 67.623C81.076 68.9007 82.0282 69.9935 83.4304 70.5801V70.5761ZM59.5167 33.0783C60.3162 33.0943 61.0635 33.472 61.7305 33.9059C63.2452 34.8863 64.5107 36.188 65.6679 37.5581C66.833 38.9362 67.287 39.8964 69.2035 39.9487C74.6596 40.0933 79.3283 43.8017 83.1773 47.6748C84.3424 48.844 85.6844 50.1377 87.3357 50.0815C88.2035 50.0533 89.0151 49.6395 89.8709 49.4949C91.3816 49.2377 92.9123 49.8243 94.2462 50.5797C96.0542 51.6042 97.6613 52.9501 99.0796 54.4689C101.197 56.7389 103.166 59.471 104.668 62.2633C104.094 66.028 102.844 69.6881 100.964 73.047C100.908 73.047 100.851 73.047 100.795 73.047C98.3443 72.9988 95.9216 72.2274 93.8645 70.9095C91.8878 69.6439 89.1557 67.5386 88.6535 65.124C88.553 64.6338 88.6615 63.9668 89.1557 63.8785C89.3445 63.8423 89.5334 63.9106 89.7142 63.9789C91.3012 64.5775 93.1614 65.1481 94.5556 66.1123C95.6163 66.8436 96.7734 67.9002 98.1796 67.394C99.2644 67.0043 99.8108 65.7106 99.6863 64.5655C99.5577 63.4204 98.9028 62.4039 98.1957 61.4919C96.9984 59.9451 95.556 58.5228 93.7601 57.7393C93.0489 57.4299 92.2936 57.221 91.6065 56.8514C89.8227 55.8911 88.5691 53.8622 86.5643 53.593C86.1906 53.5407 85.7045 53.6412 85.6241 54.0108C85.596 54.1273 85.6241 54.2519 85.6522 54.3684C85.9214 55.4974 86.4638 56.5621 87.2111 57.446C87.3558 57.6188 87.5124 57.7915 87.5727 58.0085C87.8298 58.9647 86.6366 59.5393 85.8973 59.3103C84.6799 58.9326 83.7438 57.7554 82.7233 57.0523C81.2849 56.0559 79.7863 55.1358 78.3198 54.1796C77.8216 53.8541 77.3154 53.5207 76.9457 53.0506C76.5801 52.5805 76.3752 51.9417 76.564 51.3792C76.6444 51.1462 76.785 50.9332 76.8011 50.6922C76.8252 50.4069 76.6725 50.1417 76.5279 49.8966C76.1382 49.2337 75.7083 48.5386 75.0252 48.1891C74.744 48.0444 74.4306 47.9681 74.1293 47.8797C72.7311 47.4699 71.2927 46.8672 69.9387 46.3409C68.3236 45.7182 66.7004 44.7137 65.5755 43.3838C64.4706 42.0821 64.1371 40.3223 63.0563 38.9281C61.9072 37.4536 60.497 36.2041 59.1189 34.9506C58.7171 34.5809 58.2752 34.0466 58.5082 33.5524C58.681 33.1948 59.131 33.0702 59.5247 33.0823L59.5167 33.0783ZM94.6239 55.6782C94.9453 55.7224 96.3515 55.8871 96.5323 55.626C96.5725 55.5697 96.5725 55.4934 96.5604 55.4211C96.4962 54.9068 96.1265 54.493 95.7649 54.1233C94.4833 52.8256 92.9123 51.6082 91.0883 51.568C90.7789 51.56 90.4133 51.6203 90.2606 51.8894C90.0557 52.247 90.353 52.6729 90.6342 52.9783C91.257 53.6532 91.8878 54.3322 92.6431 54.8586C93.2337 55.2684 93.9047 55.5778 94.6199 55.6782H94.6239ZM50.1151 38.2371C50.8865 39.4625 51.3084 40.9852 50.9066 42.3794C50.5611 43.5928 49.6209 44.6535 49.633 45.915C49.649 47.5704 51.232 48.7154 52.0276 50.1658C52.7949 51.568 52.807 53.2434 52.9878 54.8345C53.0923 55.7425 53.2329 57.0603 53.8838 57.7514C54.5105 58.4183 55.4105 58.9728 56.0815 59.6397C56.7886 60.3428 57.5761 61.0218 58.5403 61.2749C59.5046 61.524 60.6818 61.2107 61.1358 60.3268C61.4613 59.7 61.3729 58.9004 61.7626 58.3098C62.1724 57.6831 63.0242 57.4661 63.7634 57.6027C64.4987 57.7393 65.1496 58.1612 65.7643 58.5871C70.1878 61.6606 74.0931 65.6181 76.4957 70.4395C76.7328 70.9176 76.9618 71.4278 76.9457 71.9622C76.9297 72.4966 76.5962 73.059 76.0699 73.1595C75.8649 73.1997 75.6118 73.1836 75.4953 73.3604C75.3587 73.5653 75.5355 73.8305 75.7123 74.0072C76.9698 75.2568 79.2559 77.1491 81.1724 76.2411C81.6907 75.996 82.1769 75.6224 82.7514 75.5742C84.2098 75.4496 85.1259 77.0527 86.6567 76.6268C87.5566 76.3737 88.3522 75.7951 89.2762 75.6465C90.7146 75.4175 91.9963 76.2612 93.2096 76.9C93.8324 77.2255 94.4913 77.5951 95.1864 77.7237C95.3712 77.7598 97.4162 78.1375 97.2274 78.3504C96.693 78.9652 96.1305 79.5638 95.544 80.1424C95.4074 80.1142 95.2828 80.0901 95.1743 80.0741C94.3145 79.9415 93.4105 79.8732 92.5668 79.7044C91.5945 79.5116 90.799 78.8205 89.8428 78.5433C88.8463 78.25 87.7053 78.2621 86.8254 78.8165C86.058 79.2986 85.4754 80.1825 84.5755 80.279C83.796 80.3593 83.0969 79.8129 82.3295 79.6723C81.542 79.5276 80.7505 79.8129 79.959 79.9495C76.7448 80.508 73.611 78.5754 71.3008 76.5344C70.2642 75.6184 68.4723 74.2001 68.862 72.605C69.0066 72.0225 69.4405 71.5323 69.549 70.9417C69.762 69.7765 68.7897 68.8163 67.8776 68.3141C66.2866 67.4382 64.6032 65.7628 62.8032 65.3731C62.3251 65.2726 61.7827 65.3449 61.4291 65.6824C60.6899 66.3896 61.168 67.7114 60.6296 68.5792C59.7417 70.0136 58.1828 69.0935 57.1381 68.4266C54.9967 67.0605 52.9436 65.7748 51.216 63.8744C49.9986 62.5365 48.3352 60.6884 48.5683 58.7237C48.6767 57.8317 49.3316 57.1085 49.641 56.2648C50.2919 54.501 49.3557 52.5765 48.3634 50.9774C47.7085 49.9207 46.9853 48.7556 47.1781 47.5262C47.4111 46.0396 48.9017 45.0351 49.3035 43.5847C49.7334 42.0339 48.8214 40.4469 47.8531 39.1612C47.7366 39.0045 47.6201 38.8518 47.4995 38.6991C47.9696 38.0523 48.4678 37.4255 48.9901 36.8148C49.3959 37.2648 49.7897 37.7268 50.1191 38.2491L50.1151 38.2371ZM64.9768 59.8808C64.5991 59.7482 64.0808 59.5232 63.7233 59.7602C63.4219 59.9571 63.1809 60.6442 63.205 60.9857C63.2291 61.3111 63.426 61.5964 63.6309 61.8535C64.6032 63.0829 65.8205 64.1195 67.1906 64.8829C67.5442 65.0798 67.9861 65.2606 68.3397 65.0557C68.6048 64.903 68.7254 64.5655 68.7053 64.2601C68.6852 63.9548 68.5486 63.6655 68.412 63.3923C68.0705 62.7053 67.7009 62.0263 67.2067 61.4357C66.6321 60.7567 65.8286 60.1741 64.9808 59.8808H64.9768Z" stroke="#29256A" stroke-width="0.5"/>
<path style="mix-blend-mode:screen" d="M86.7297 53.7556C88.0316 42.3466 79.8382 32.0423 68.4291 30.7404C57.0201 29.4385 46.7159 37.6319 45.414 49.041C44.112 60.45 52.3055 70.7542 63.7145 72.0561C75.1235 73.3581 85.4278 65.1646 86.7297 53.7556Z" fill="url(#paint1_linear_353_9231)"/>
<path d="M55.2339 31.194L55.2058 31.2141C53.5906 32.319 52.1161 33.5484 50.7742 34.8783C50.1474 35.497 49.5528 36.1399 48.9863 36.8028C48.464 37.4135 47.9657 38.0443 47.4957 38.6871C47.1341 39.1813 46.7926 39.6835 46.4631 40.1938C45.8404 41.1621 45.2698 42.1585 44.7596 43.183C44.4261 43.8459 44.1207 44.5209 43.8355 45.1999L43.7672 45.3606C43.1284 46.9235 42.6101 48.5306 42.2284 50.1659C41.8065 51.9578 41.5413 53.7859 41.4329 55.63C41.3043 57.8438 41.4047 60.0737 41.7422 62.2875C42.4413 66.8637 44.1529 71.3556 46.9412 75.4296C56.6562 89.6203 75.8249 93.4814 90.2326 84.341C90.55 84.1401 90.8634 83.9352 91.1768 83.7182C91.5585 83.4571 91.9321 83.1919 92.2978 82.9187C92.7076 82.6133 93.1093 82.2959 93.5031 81.9705C94.2182 81.3839 94.8972 80.7692 95.5441 80.1304C96.1307 79.5518 96.6932 78.9532 97.2276 78.3384C97.3802 78.1657 97.5289 77.9889 97.6775 77.8121C98.457 76.876 99.1762 75.9037 99.8351 74.8952C100.229 74.2885 100.602 73.6738 100.956 73.047C102.84 69.6922 104.086 66.032 104.66 62.2634C104.849 61.0379 104.966 59.8005 105.01 58.559C105.066 57.0081 105.01 55.4532 104.833 53.9024C104.709 52.7694 104.52 51.6364 104.267 50.5154C103.411 46.6744 101.824 42.9299 99.4654 39.4867C99.373 39.35 99.2766 39.2134 99.1802 39.0809C98.8748 38.6469 98.5614 38.2251 98.232 37.8072C98.1717 37.7309 98.1074 37.6505 98.0472 37.5742C97.8945 37.3854 97.7418 37.1965 97.5891 37.0117C97.5168 36.9233 97.4445 36.8389 97.3682 36.7506C97.3039 36.6742 97.2356 36.5979 97.1713 36.5215C97.1151 36.4573 97.0588 36.393 97.0026 36.3287C96.9343 36.2564 96.866 36.18 96.8017 36.1037C96.7374 36.0314 96.6731 35.9631 96.6088 35.8908C96.5445 35.8184 96.4802 35.7501 96.4119 35.6778C96.3477 35.6095 96.2794 35.5372 96.2151 35.4689C96.1508 35.4006 96.0825 35.3283 96.0142 35.26C95.9137 35.1555 95.8093 35.047 95.7048 34.9426C95.6325 34.8702 95.5602 34.7979 95.4879 34.7256C95.4718 34.7095 95.4517 34.6894 95.4356 34.6734C95.3713 34.6091 95.303 34.5448 95.2388 34.4805C95.07 34.3158 94.8972 34.1551 94.7245 33.9984C94.62 33.906 94.5196 33.8096 94.4111 33.7171C94.3107 33.6288 94.2102 33.5363 94.1098 33.452C93.6839 33.0783 93.2459 32.7167 92.8 32.3712C92.579 32.1984 92.358 32.0297 92.133 31.865C92.0045 31.7725 91.8759 31.6761 91.7473 31.5837C91.6469 31.5154 91.5504 31.4431 91.45 31.3748C91.3335 31.2944 91.221 31.2141 91.1045 31.1377C90.988 31.0574 90.8714 30.981 90.7549 30.9047C90.6384 30.8284 90.5219 30.752 90.4014 30.6757C90.1683 30.523 89.9273 30.3744 89.6902 30.2337C89.5697 30.1614 89.4492 30.0891 89.3286 30.0208C89.2081 29.9485 89.0876 29.8802 88.967 29.8119C88.8465 29.7436 88.7219 29.6753 88.6014 29.607C88.3563 29.4704 88.1072 29.3378 87.8621 29.2092C87.613 29.0806 87.3639 28.9561 87.1148 28.8356C87.0144 28.7873 86.9139 28.7391 86.8095 28.6909C86.693 28.6387 86.5765 28.5824 86.4599 28.5302C86.3715 28.49 86.2791 28.4458 86.1867 28.4057C86.0461 28.3414 85.9015 28.2771 85.7568 28.2168C85.6403 28.1646 85.5198 28.1164 85.4033 28.0682C85.2707 28.0119 85.1341 27.9557 85.0015 27.9034C84.8408 27.8392 84.6761 27.7749 84.5153 27.7146C84.3908 27.6704 84.2703 27.6222 84.1457 27.578C84.0252 27.5338 83.9046 27.4896 83.7801 27.4454C83.6596 27.4052 83.539 27.361 83.4185 27.3209C83.3542 27.2968 83.2939 27.2767 83.2297 27.2566C83.1654 27.2365 83.1011 27.2124 83.0328 27.1923C78.9507 25.8664 74.6357 25.3722 70.3487 25.7539C70.3487 25.7539 70.3487 25.7539 70.3407 25.7539C70.2643 25.758 70.192 25.766 70.1157 25.774C69.4086 25.8423 68.7014 25.9347 67.9983 26.0512C67.239 26.1758 66.4836 26.3285 65.7323 26.5093C65.2984 26.6137 64.8645 26.7262 64.4386 26.8508C62.3493 27.4494 60.3003 28.2691 58.3195 29.3177C57.2669 29.8762 56.2383 30.4989 55.2299 31.186L55.2339 31.194Z" stroke="#29256A"/>
<mask id="mask0_353_9231" style="mask-type:alpha" maskUnits="userSpaceOnUse" x="-10" y="23" width="170" height="83">
<path d="M-10 80.0272C-5.29478 87.932 4.45442 104.193 5.80952 106L147.531 74.381L159.388 41.6327L145.272 23L97.2789 35.4218L104.054 46.7143L42.5102 69.2993L40.8163 59.1361L12.0204 65.9116L-10 80.0272Z" fill="#D9D9D9"/>
</mask>
<g mask="url(#mask0_353_9231)">
<path d="M145.628 36.5632C145.982 37.4608 145.92 38.55 145.385 39.8484C144.85 41.1494 143.855 42.6184 142.417 44.2277C139.541 47.4451 134.966 51.1399 129.021 55.077C117.138 62.9467 99.8712 71.725 80.0398 79.5374C60.2083 87.3498 41.5939 92.7064 27.5361 95.0559C20.5031 96.2314 14.6374 96.6495 10.3399 96.258C8.19022 96.0621 6.46117 95.666 5.18212 95.0799C3.90565 94.495 3.11725 93.7408 2.76369 92.8433C2.41012 91.9458 2.47231 90.8565 3.00688 89.5581C3.54253 88.2571 4.53683 86.7882 5.97535 85.1788C8.85118 81.9614 13.426 78.2666 19.3711 74.3295C31.2544 66.4598 48.5208 57.6816 68.3523 49.8692C88.1838 42.0568 106.798 36.7002 120.856 34.3506C127.889 33.1751 133.755 32.757 138.052 33.1485C140.202 33.3444 141.931 33.7405 143.21 34.3266C144.486 34.9115 145.275 35.6657 145.628 36.5632Z" stroke="url(#paint2_linear_353_9231)"/>
<path d="M131.23 39.3099C131.476 39.9347 131.421 40.7227 130.977 41.7047C130.533 42.6876 129.721 43.8125 128.547 45.058C126.2 47.5468 122.488 50.432 117.673 53.5287C108.051 59.7175 94.1147 66.6947 78.1468 72.9851C62.1789 79.2755 47.2284 83.6779 35.9704 85.7146C30.3374 86.7336 25.6548 87.1555 22.2411 86.9359C20.5329 86.8261 19.1718 86.5572 18.1766 86.1413C17.1823 85.7258 16.6046 85.187 16.3585 84.5622C16.1124 83.9375 16.1674 83.1495 16.6112 82.1675C17.0553 81.1846 17.8673 80.0596 19.0417 78.8142C21.3884 76.3254 25.1006 73.4402 29.9152 70.3435C39.5374 64.1547 53.4736 57.1775 69.4415 50.8871C85.4094 44.5967 100.36 40.1943 111.618 38.1576C117.251 37.1386 121.934 36.7167 125.347 36.9363C127.055 37.0461 128.417 37.315 129.412 37.7309C130.406 38.1464 130.984 38.6852 131.23 39.3099Z" stroke="url(#paint3_linear_353_9231)"/>
</g>
<path d="M70.075 91.9006C73.748 88.2276 73.748 82.2724 70.075 78.5993C66.4019 74.9263 60.4467 74.9263 56.7737 78.5993C53.1006 82.2724 53.1006 88.2276 56.7737 91.9006C60.4467 95.5737 66.4019 95.5737 70.075 91.9006Z" fill="url(#paint4_linear_353_9231)"/>
<g style="mix-blend-mode:multiply" opacity="0.1">
<path d="M54.9642 84.6682C54.9262 84.7429 54.8922 84.8202 54.862 84.8988C54.7638 85.1503 54.9537 85.4752 55.2485 85.4319C55.3755 85.4136 55.4764 85.3206 55.5864 85.2551C55.6965 85.1896 55.8511 85.1556 55.9428 85.2433C56.02 85.318 56.0161 85.4411 56.0109 85.5485C55.9938 85.9454 56.0659 86.3699 56.3331 86.6633C56.6003 86.9567 57.106 87.0524 57.3981 86.7825C57.4977 86.6908 57.5658 86.5506 57.5291 86.421C57.4767 86.2349 57.237 86.1393 57.2121 85.9481C57.1924 85.7974 57.3221 85.6677 57.4571 85.597C57.592 85.5276 57.7465 85.4896 57.8605 85.3887C58.0334 85.2368 58.0701 84.9813 58.0544 84.7508C58.0492 84.6656 58.0361 84.5752 57.9797 84.5111C57.8435 84.3539 57.5907 84.4547 57.4086 84.553C57.2252 84.6512 56.9449 84.7089 56.8558 84.5202C56.806 84.4154 56.8558 84.2949 56.882 84.1823C56.9095 84.0696 56.8964 83.9216 56.789 83.8797C56.734 83.8587 56.6711 83.8744 56.6174 83.8993C56.3515 84.0238 56.2283 84.3526 55.965 84.4849C55.9401 84.498 55.9113 84.5084 55.8838 84.5058C55.8327 84.5019 55.7947 84.456 55.7777 84.4076C55.7305 84.2726 55.8131 84.1325 55.7882 83.9923C55.7843 83.9674 55.7764 83.9412 55.7554 83.9268C55.741 83.9163 55.7227 83.9137 55.7043 83.9137C55.5183 83.9072 55.3664 84.0552 55.2537 84.2019C55.1424 84.3473 55.0454 84.5019 54.9629 84.6656L54.9642 84.6682Z" fill="#29256A" style="mix-blend-mode:multiply"/>
<path d="M58.431 85.6969C58.5843 85.4821 58.6157 85.203 58.6 84.9397C58.5843 84.6764 58.528 84.4158 58.528 84.1525C58.528 83.5735 58.8201 83.001 59.289 82.6617C59.4515 82.5438 59.6624 82.4521 59.8471 82.5307C60.2021 82.6827 60.1038 83.2748 60.4156 83.5027C60.5479 83.5983 60.7274 83.6049 60.8846 83.5591C61.0418 83.5145 61.1806 83.4241 61.3181 83.3377C62.0203 82.9015 62.7814 82.5399 63.5935 82.388C63.8555 82.3382 64.1306 82.312 64.3861 82.3893C64.6415 82.4666 64.8733 82.667 64.9205 82.9303C64.9572 83.1386 64.876 83.3495 64.7764 83.5355C64.6284 83.8093 64.4319 84.0621 64.1778 84.2428C63.9236 84.4236 63.6093 84.5284 63.2988 84.4996C62.9949 84.4708 62.7185 84.3214 62.4264 84.2363C62.1552 84.1577 61.8565 84.1354 61.5946 84.2415C61.3326 84.3476 61.119 84.6018 61.1204 84.8834C61.1204 85.1257 61.2697 85.3471 61.2841 85.5895C61.2972 85.8069 61.1872 86.0309 61.0025 86.1462C60.8178 86.2615 60.5623 86.2589 60.3855 86.1305C60.223 86.0126 60.1392 85.8122 60.1091 85.6131C60.0789 85.4139 60.096 85.2122 60.0894 85.0118C60.0816 84.7708 60.0003 84.4813 59.7672 84.4184C59.5458 84.3581 59.3323 84.5468 59.2196 84.7472C59.0952 84.9712 59.0336 85.2292 59.0454 85.4847C59.0559 85.7244 59.1279 85.9576 59.1436 86.1973C59.1594 86.437 59.1057 86.7016 58.917 86.851C58.7048 87.0186 58.3865 86.9806 58.1586 86.8365C57.9306 86.6924 57.7734 86.4619 57.6228 86.2379C57.5809 86.1763 57.4997 86.0296 57.6031 85.9798C57.6568 85.9536 57.7983 86.0139 57.8651 86.0087C58.0865 85.9929 58.3013 85.879 58.431 85.6982V85.6969Z" fill="#29256A" style="mix-blend-mode:multiply"/>
<path d="M65.5297 83.0885C65.6607 83.5994 65.5939 84.1706 65.2887 84.6002C64.9835 85.0299 64.4267 85.2866 63.9119 85.1779C63.7796 85.1491 63.6499 85.0993 63.515 85.0915C63.1456 85.0718 62.8365 85.3796 62.6622 85.7071C62.3544 86.2874 62.3243 87.0289 62.6622 87.5935C62.9989 88.158 63.7207 88.4908 64.3508 88.3021C64.8865 88.1423 65.2651 87.6668 65.5376 87.1795C65.81 86.6909 66.0144 86.1591 66.3746 85.732C66.5921 85.474 66.9169 85.2473 67.2457 85.3259C67.4579 85.377 67.6191 85.5421 67.7737 85.6953C68.0527 85.9717 68.354 86.235 68.7063 86.4093C69.0587 86.5835 69.4713 86.6621 69.8512 86.5586C70.239 86.4525 70.5586 86.1669 70.7721 85.8276C70.9856 85.4884 71.1048 85.098 71.1952 84.7063C71.3891 83.868 71.4507 82.9418 71.0393 82.186C70.9398 82.0039 70.7826 81.8166 70.5743 81.8205C70.4538 81.8218 70.3451 81.8886 70.2481 81.962C69.8486 82.2633 69.5683 82.6929 69.2251 83.0558C69.0915 83.1973 68.9434 83.3322 68.764 83.4069C68.5845 83.4815 68.3657 83.4881 68.2033 83.382C67.995 83.2457 67.9282 82.9615 67.9715 82.7165C68.0147 82.4716 68.1457 82.2528 68.2596 82.0314C68.6356 81.3057 68.8557 80.466 68.6854 79.667C68.6408 79.46 68.5662 79.2491 68.4155 79.1011C68.2636 78.9517 68.0212 78.881 67.8326 78.9792C67.6322 79.084 67.5588 79.3316 67.5182 79.5543C67.4042 80.1739 67.3754 80.8354 67.0414 81.3686C66.9602 81.4983 66.8449 81.628 66.6929 81.6463C66.5305 81.6659 66.3838 81.5572 66.2528 81.4577C66.0511 81.3044 65.8336 81.1616 65.5873 81.1027C65.1865 81.0057 64.521 81.2834 64.7411 81.7851C64.8171 81.9594 65.0162 82.1008 65.1276 82.2528C65.3109 82.503 65.4537 82.7886 65.531 83.0899L65.5297 83.0885Z" fill="#29256A" style="mix-blend-mode:multiply"/>
<path d="M60.3692 82.3267C60.3902 82.2062 60.5094 82.0686 60.6116 82.1367C60.6548 82.1656 60.6718 82.2193 60.6902 82.2677C60.7662 82.4655 60.9535 82.6424 61.1631 82.6201C61.2797 82.6083 61.3805 82.5389 61.4775 82.4734C61.9805 82.1367 62.5228 81.859 63.0887 81.6442C63.2289 81.5918 63.4175 81.5564 63.5013 81.6809C63.5629 81.7713 63.521 81.9023 63.4398 81.9769C63.3585 82.0503 63.2485 82.0817 63.1437 82.1145C62.6328 82.2704 62.1429 82.4917 61.6897 82.7721C61.4421 82.9253 61.1041 83.1546 60.8002 83.0642C60.5094 82.9777 60.3195 82.6149 60.3692 82.328V82.3267Z" fill="#29256A" style="mix-blend-mode:multiply"/>
<path d="M65.9841 80.5945C66.119 80.6705 66.2434 80.7805 66.398 80.7936C66.6404 80.8145 66.8382 80.5814 66.8906 80.3443C66.943 80.1072 66.8971 79.8609 66.8997 79.6173C66.9036 79.3264 66.9796 79.0383 67.1198 78.7828C67.2508 78.5457 67.4761 78.3217 67.7473 78.3361C67.9071 78.3453 68.0813 78.4344 68.2162 78.3492C68.321 78.2837 68.3472 78.1305 68.2948 78.0178C68.2437 77.9052 68.1324 77.8292 68.0171 77.7833C67.8088 77.7034 67.5678 77.71 67.3648 77.803C67.0739 77.9353 66.8814 78.2261 66.7805 78.5287C66.6797 78.8326 66.6574 79.1548 66.6142 79.4718C66.5893 79.6579 66.5434 79.8635 66.3902 79.9709C66.1819 80.1163 65.878 80.0115 65.6513 80.1255C65.5269 80.1884 65.2859 80.5146 65.5151 80.5814C65.5714 80.5984 65.6553 80.5277 65.7155 80.5224C65.8085 80.5146 65.9068 80.5486 65.9854 80.5932L65.9841 80.5945Z" fill="#29256A" style="mix-blend-mode:multiply"/>
<path d="M68.8815 81.8994C68.871 82.0448 68.9627 82.2111 69.1081 82.2229C69.2182 82.2321 69.3151 82.1535 69.3976 82.0801C69.6374 81.8666 69.8784 81.6531 70.1181 81.4396C70.2635 81.3099 70.4508 81.171 70.6355 81.2326C70.722 81.2614 70.7875 81.3295 70.8661 81.3741C70.9447 81.4186 71.0574 81.4343 71.1163 81.3662C71.1504 81.3282 71.1569 81.2732 71.1595 81.2234C71.1752 80.9064 71.0495 80.596 70.8661 80.3379C70.6827 80.0798 70.4443 79.8663 70.2059 79.6567C70.1286 79.5886 70.0474 79.5192 69.9491 79.4851C69.8509 79.4511 69.7317 79.4602 69.6596 79.5349C69.5273 79.6711 69.6334 79.8938 69.7199 80.0628C69.8116 80.2423 69.8732 80.4558 69.7985 80.6418C69.6884 80.9169 69.3701 80.7938 69.2391 81.0309C69.116 81.2562 68.8972 81.6413 68.8789 81.8994H68.8815Z" fill="#29256A" style="mix-blend-mode:multiply"/>
<path d="M55.9125 87.468C56.0435 87.6842 56.2073 87.8859 56.4221 88.0195C56.6369 88.1518 56.9094 88.2068 57.1465 88.1191C57.3404 88.047 57.5028 87.8872 57.7085 87.8702C57.9155 87.8518 58.1054 87.9868 58.2469 88.1387C58.3883 88.2907 58.5062 88.4701 58.6778 88.588C58.856 88.7112 59.0879 88.757 59.2961 88.7007C59.5044 88.6444 59.6852 88.4832 59.7546 88.2789C59.8594 87.971 59.7153 87.6213 59.8175 87.3121C59.9079 87.0423 60.2066 86.8537 60.4882 86.9047C60.8642 86.9716 61.0672 87.3711 61.2427 87.7117C61.5191 88.2448 61.8977 88.7688 62.4557 88.9902C62.6417 89.0635 62.8631 89.1186 62.9574 89.2954C63.074 89.5181 62.9129 89.7827 62.7413 89.9661C62.3405 90.3931 61.806 90.7324 61.2218 90.7547C60.4253 90.7848 59.7153 90.2294 59.2503 89.5823C59.1101 89.3884 58.9818 89.1788 58.7892 89.0373C58.6006 88.8972 58.3687 88.8343 58.1421 88.774C57.939 88.7203 57.7268 88.6653 57.5212 88.7099C57.2998 88.7583 57.1177 88.9155 56.9094 89.0033C56.5976 89.1343 56.2204 89.0989 55.9387 88.9116C55.7907 88.8133 55.6702 88.6771 55.5589 88.5383C55.3689 88.3012 55.1973 88.0496 55.0467 87.785C54.9026 87.5309 54.7768 87.2584 54.7415 86.9689C54.7061 86.6781 54.7729 86.365 54.972 86.1502C55.0598 86.0559 55.1855 85.9799 55.3126 85.9983C55.5628 86.0336 55.513 86.4266 55.5562 86.6087C55.6296 86.9126 55.7501 87.2034 55.9125 87.4706V87.468Z" fill="#29256A" style="mix-blend-mode:multiply"/>
<path d="M56.8386 82.4128C56.9027 82.3801 56.9735 82.3552 57.0455 82.3631C57.2171 82.3801 57.3167 82.5674 57.3507 82.7364C57.3848 82.9054 57.3927 83.0927 57.5053 83.2237C57.6638 83.4084 57.969 83.3927 58.1734 83.2591C58.3778 83.1254 58.5074 82.9093 58.645 82.7076C58.8873 82.35 59.169 82.0198 59.482 81.7225C59.706 81.5116 59.9995 81.3046 60.2968 81.3819C60.4711 81.4277 60.606 81.5627 60.771 81.6321C61.1784 81.805 61.6382 81.5522 61.9722 81.2627C62.3063 80.9719 62.6312 80.6182 63.0687 80.5488C63.5075 80.478 63.9712 80.7151 64.3904 80.5684C64.6603 80.4741 64.8672 80.2174 64.8987 79.9331C64.9288 79.6646 64.8227 79.3633 64.9733 79.1393C65.1253 78.9113 65.4462 78.8982 65.7121 78.8262C66.1968 78.6965 66.6003 78.2537 66.616 77.752C66.6317 77.2516 66.1981 76.7591 65.6964 76.7735C65.5222 76.7787 65.3532 76.839 65.1973 76.9202C64.6354 77.2136 64.2385 77.8044 64.1782 78.4358C64.1376 78.8563 64.2319 79.3083 64.038 79.6829C63.9359 79.8807 63.7577 80.0366 63.5481 80.1112C63.2429 80.2213 62.8971 80.1571 62.5879 80.258C62.1386 80.4047 61.8727 80.8514 61.5413 81.1893C61.4548 81.2784 61.354 81.3649 61.2308 81.3871C61.1339 81.4055 61.0343 81.3806 60.9426 81.3413C60.4986 81.1527 60.1816 80.6326 59.6995 80.6575C59.2764 80.6798 59.0065 81.1212 58.8926 81.5299C58.7786 81.9386 58.7262 82.3945 58.4288 82.6971C58.3437 82.7835 58.2219 82.8569 58.1066 82.8202C57.9546 82.7718 57.9153 82.5779 57.9035 82.4181C57.8891 82.2307 57.8747 82.0421 57.8603 81.8548C57.8446 81.6413 57.8197 81.4068 57.6678 81.2561C57.5263 81.116 57.3049 81.0832 57.111 81.1278C56.9172 81.1723 56.7456 81.281 56.5818 81.3937C56.2399 81.6295 55.4749 82.1862 55.5194 82.6866C55.5443 82.9578 55.8273 83.0744 56.0565 82.9787C56.3578 82.8543 56.5478 82.5543 56.8372 82.4089L56.8386 82.4128Z" fill="#29256A" style="mix-blend-mode:multiply"/>
<path d="M58.0851 77.507C57.0306 78.234 56.1699 79.1392 55.5176 80.1531C55.5516 80.1937 55.6014 80.2225 55.6512 80.2422C55.8503 80.3156 56.0769 80.2684 56.2669 80.1728C56.4568 80.0771 56.6192 79.9357 56.7895 79.8099C57.0253 79.6344 57.2808 79.4837 57.548 79.3606C57.7733 79.2571 58.089 79.1982 58.2252 79.4051C58.2947 79.5112 58.2842 79.6475 58.2724 79.7732C58.2344 80.157 58.1964 80.5409 58.1584 80.9247C58.1453 81.0622 58.1388 81.222 58.2383 81.319C58.3942 81.4709 58.6588 81.3399 58.8003 81.1749C59.1737 80.7413 59.2784 80.1047 59.7173 79.7379C59.8326 79.6409 59.9884 79.5636 60.1325 79.6095C60.2937 79.6606 60.3736 79.8361 60.4482 79.9881C60.5412 80.178 60.6552 80.3575 60.7875 80.5225C61.1032 80.9181 61.3822 80.7387 61.5171 80.3313C61.6468 79.9383 61.9979 79.6933 62.3974 79.6383C62.6935 79.5977 62.9921 79.4981 63.2083 79.282C63.4231 79.0685 63.4546 78.7541 63.4506 78.4659C63.4454 78.0952 63.4755 77.7559 63.7126 77.4533C63.9419 77.1599 64.2798 76.9136 64.6322 76.7905C64.83 76.7211 65.0475 76.708 65.2335 76.611C65.426 76.5102 65.5479 76.3124 65.5872 76.0988C63.0904 75.5107 60.3644 75.939 58.0864 77.5083L58.0851 77.507Z" fill="#29256A" style="mix-blend-mode:multiply"/>
<path d="M57.0677 80.7611C56.4468 80.9523 55.9634 81.4593 55.6595 82.0331C55.5233 82.2911 55.408 82.5754 55.1748 82.7522C55.125 82.7902 55.0635 82.823 55.0032 82.8085C54.9377 82.7941 54.8958 82.7286 54.8735 82.6658C54.8198 82.5164 54.8342 82.3501 54.8892 82.202C54.9443 82.054 55.0373 81.923 55.1395 81.8025C55.4538 81.4331 55.8599 81.158 56.2333 80.8475C56.5018 80.6249 56.7533 80.3825 56.9865 80.1231C57.1109 79.9843 57.2354 79.8363 57.403 79.7511C57.5694 79.666 57.7947 79.662 57.9257 79.7957C58.0449 79.9162 58.0528 80.1061 58.041 80.2751C58.0279 80.448 58.0017 80.6196 57.9624 80.7886C57.9336 80.9117 57.8786 81.0755 57.7593 80.9117C57.6821 80.8043 57.669 80.7467 57.5196 80.7205C57.3703 80.6943 57.2118 80.7192 57.0677 80.7637V80.7611Z" fill="#29256A" style="mix-blend-mode:multiply"/>
</g>
<path style="mix-blend-mode:screen" opacity="0.5" d="M70.075 91.9006C73.748 88.2276 73.748 82.2724 70.075 78.5993C66.4019 74.9263 60.4467 74.9263 56.7737 78.5993C53.1006 82.2724 53.1006 88.2276 56.7737 91.9006C60.4467 95.5737 66.4019 95.5737 70.075 91.9006Z" fill="url(#paint5_radial_353_9231)"/>
<path d="M70.075 91.9006C73.748 88.2276 73.748 82.2724 70.075 78.5993C66.4019 74.9263 60.4467 74.9263 56.7737 78.5993C53.1006 82.2724 53.1006 88.2276 56.7737 91.9006C60.4467 95.5737 66.4019 95.5737 70.075 91.9006Z" stroke="#29256A"/>
<path d="M126.473 53.593C129.558 50.5076 129.558 45.5053 126.473 42.4199C123.387 39.3346 118.385 39.3346 115.299 42.4199C112.214 45.5053 112.214 50.5076 115.299 53.593C118.385 56.6784 123.387 56.6784 126.473 53.593Z" fill="url(#paint6_linear_353_9231)"/>
<path d="M126.473 53.593C129.558 50.5076 129.558 45.5053 126.473 42.4199C123.387 39.3346 118.385 39.3346 115.299 42.4199C112.214 45.5053 112.214 50.5076 115.299 53.593C118.385 56.6784 123.387 56.6784 126.473 53.593Z" fill="url(#paint7_linear_353_9231)" fill-opacity="0.5"/>
<g style="mix-blend-mode:multiply" opacity="0.1">
<path d="M113.78 47.5182C113.748 47.581 113.719 47.6459 113.694 47.7119C113.611 47.9232 113.771 48.1961 114.018 48.1597C114.125 48.1443 114.21 48.0662 114.302 48.0112C114.395 47.9562 114.525 47.9276 114.602 48.0013C114.667 48.064 114.663 48.1674 114.659 48.2577C114.645 48.5911 114.705 48.9476 114.93 49.1941C115.154 49.4406 115.579 49.5209 115.824 49.2942C115.908 49.2172 115.965 49.0994 115.934 48.9905C115.89 48.8343 115.689 48.7539 115.668 48.5933C115.651 48.4667 115.76 48.3578 115.874 48.2984C115.987 48.2401 116.117 48.2082 116.213 48.1234C116.358 47.9958 116.389 47.7812 116.375 47.5876C116.371 47.516 116.36 47.4401 116.313 47.3862C116.198 47.2542 115.986 47.3389 115.833 47.4214C115.679 47.5039 115.443 47.5523 115.369 47.3939C115.327 47.3059 115.369 47.2046 115.391 47.11C115.414 47.0154 115.403 46.891 115.312 46.8558C115.266 46.8382 115.213 46.8514 115.168 46.8723C114.945 46.9769 114.841 47.2531 114.62 47.3642C114.599 47.3752 114.575 47.384 114.552 47.3818C114.509 47.3785 114.477 47.34 114.463 47.2993C114.423 47.1859 114.493 47.0682 114.472 46.9505C114.468 46.9295 114.462 46.9075 114.444 46.8954C114.432 46.8866 114.417 46.8844 114.401 46.8844C114.245 46.8789 114.117 47.0033 114.023 47.1265C113.929 47.2486 113.848 47.3785 113.779 47.516L113.78 47.5182Z" fill="#29256A" style="mix-blend-mode:multiply"/>
<path d="M116.691 48.3821C116.82 48.2016 116.846 47.9672 116.833 47.7461C116.82 47.5249 116.772 47.3059 116.772 47.0847C116.772 46.5984 117.018 46.1175 117.412 45.8325C117.548 45.7335 117.725 45.6565 117.88 45.7225C118.179 45.8501 118.096 46.3475 118.358 46.539C118.469 46.6193 118.62 46.6248 118.752 46.5863C118.884 46.5489 119.001 46.4729 119.116 46.4003C119.706 46.0339 120.345 45.7302 121.027 45.6026C121.247 45.5608 121.479 45.5387 121.693 45.6037C121.908 45.6686 122.102 45.8369 122.142 46.0581C122.173 46.2331 122.105 46.4102 122.021 46.5665C121.897 46.7965 121.732 47.0088 121.518 47.1607C121.305 47.3125 121.041 47.4005 120.78 47.3763C120.525 47.3521 120.292 47.2267 120.047 47.1552C119.819 47.0891 119.568 47.0704 119.348 47.1596C119.128 47.2487 118.949 47.4622 118.95 47.6987C118.95 47.9023 119.075 48.0883 119.087 48.2918C119.098 48.4745 119.006 48.6627 118.851 48.7595C118.696 48.8563 118.481 48.8541 118.333 48.7463C118.196 48.6473 118.126 48.4789 118.1 48.3116C118.075 48.1444 118.089 47.9749 118.084 47.8066C118.077 47.6041 118.009 47.3609 117.813 47.3081C117.627 47.2575 117.448 47.416 117.353 47.5843C117.249 47.7725 117.197 47.9892 117.207 48.2038C117.216 48.4052 117.276 48.601 117.289 48.8024C117.303 49.0038 117.258 49.226 117.099 49.3515C116.921 49.4923 116.653 49.4604 116.462 49.3394C116.271 49.2183 116.139 49.0247 116.012 48.8365C115.977 48.7848 115.909 48.6616 115.995 48.6197C116.041 48.5977 116.159 48.6484 116.216 48.644C116.401 48.6307 116.582 48.535 116.691 48.3832V48.3821Z" fill="#29256A" style="mix-blend-mode:multiply"/>
<path d="M122.653 46.1913C122.763 46.6204 122.707 47.1002 122.451 47.4611C122.194 47.822 121.727 48.0377 121.294 47.9464C121.183 47.9221 121.074 47.8803 120.961 47.8737C120.651 47.8572 120.391 48.1158 120.245 48.3909C119.986 48.8784 119.961 49.5012 120.245 49.9754C120.527 50.4497 121.134 50.7292 121.663 50.5707C122.113 50.4365 122.431 50.037 122.66 49.6277C122.889 49.2173 123.06 48.7705 123.363 48.4118C123.546 48.195 123.819 48.0047 124.095 48.0707C124.273 48.1136 124.408 48.2522 124.538 48.381C124.773 48.6132 125.026 48.8343 125.322 48.9807C125.618 49.127 125.964 49.1931 126.283 49.1061C126.609 49.017 126.878 48.7771 127.057 48.4921C127.236 48.2071 127.336 47.8792 127.412 47.5502C127.575 46.846 127.627 46.068 127.281 45.4331C127.198 45.2802 127.066 45.1228 126.891 45.1261C126.789 45.1272 126.698 45.1834 126.617 45.245C126.281 45.4981 126.046 45.859 125.757 46.1638C125.645 46.2826 125.521 46.3959 125.37 46.4587C125.219 46.5214 125.036 46.5269 124.899 46.4378C124.724 46.3233 124.668 46.0845 124.704 45.8788C124.741 45.673 124.851 45.4893 124.946 45.3033C125.262 44.6937 125.447 43.9884 125.304 43.3172C125.267 43.1433 125.204 42.9661 125.077 42.8418C124.95 42.7164 124.746 42.6569 124.588 42.7395C124.419 42.8275 124.358 43.0355 124.324 43.2225C124.228 43.743 124.204 44.2987 123.923 44.7465C123.855 44.8554 123.758 44.9644 123.63 44.9798C123.494 44.9963 123.371 44.905 123.261 44.8213C123.091 44.6926 122.909 44.5727 122.702 44.5231C122.365 44.4417 121.806 44.675 121.991 45.0964C122.055 45.2428 122.222 45.3616 122.315 45.4893C122.469 45.6994 122.589 45.9393 122.654 46.1924L122.653 46.1913Z" fill="#29256A" style="mix-blend-mode:multiply"/>
<path d="M118.319 45.5512C118.337 45.45 118.437 45.3345 118.523 45.3917C118.559 45.4159 118.573 45.461 118.589 45.5017C118.653 45.6679 118.81 45.8164 118.986 45.7977C119.084 45.7878 119.169 45.7295 119.25 45.6745C119.673 45.3917 120.128 45.1584 120.603 44.978C120.721 44.9339 120.88 44.9042 120.95 45.0088C121.002 45.0847 120.967 45.1947 120.898 45.2574C120.83 45.3191 120.738 45.3455 120.65 45.373C120.221 45.5039 119.809 45.6899 119.428 45.9254C119.22 46.0541 118.936 46.2467 118.681 46.1707C118.437 46.0981 118.277 45.7933 118.319 45.5523V45.5512Z" fill="#29256A" style="mix-blend-mode:multiply"/>
<path d="M123.034 44.0961C123.148 44.1599 123.252 44.2523 123.382 44.2633C123.586 44.2809 123.752 44.0851 123.796 43.8859C123.84 43.6867 123.801 43.4799 123.804 43.2752C123.807 43.0309 123.871 42.7888 123.988 42.5743C124.098 42.3751 124.288 42.1869 124.516 42.199C124.65 42.2068 124.796 42.2816 124.909 42.2101C124.997 42.155 125.019 42.0263 124.975 41.9317C124.933 41.837 124.839 41.7732 124.742 41.7347C124.567 41.6676 124.365 41.6731 124.194 41.7512C123.95 41.8623 123.788 42.1066 123.703 42.3608C123.619 42.6161 123.6 42.8868 123.564 43.1531C123.543 43.3093 123.504 43.4821 123.376 43.5723C123.201 43.6944 122.945 43.6064 122.755 43.7021C122.65 43.755 122.448 44.0289 122.641 44.0851C122.688 44.0994 122.758 44.0399 122.809 44.0355C122.887 44.0289 122.97 44.0576 123.036 44.095L123.034 44.0961Z" fill="#29256A" style="mix-blend-mode:multiply"/>
<path d="M125.471 45.1923C125.462 45.3145 125.539 45.4542 125.661 45.4641C125.754 45.4718 125.835 45.4058 125.904 45.3442C126.106 45.1648 126.308 44.9855 126.51 44.8061C126.632 44.6972 126.789 44.5805 126.944 44.6323C127.017 44.6565 127.072 44.7137 127.138 44.7511C127.204 44.7885 127.299 44.8017 127.348 44.7445C127.377 44.7126 127.382 44.6664 127.384 44.6245C127.398 44.3583 127.292 44.0975 127.138 43.8807C126.984 43.6639 126.784 43.4846 126.583 43.3085C126.518 43.2513 126.45 43.193 126.368 43.1644C126.285 43.1358 126.185 43.1435 126.125 43.2062C126.013 43.3206 126.103 43.5077 126.175 43.6496C126.252 43.8004 126.304 43.9797 126.241 44.136C126.149 44.3671 125.881 44.2636 125.771 44.4628C125.668 44.6521 125.484 44.9756 125.469 45.1923H125.471Z" fill="#29256A" style="mix-blend-mode:multiply"/>
<path d="M114.575 49.8698C114.685 50.0514 114.823 50.2208 115.003 50.3331C115.184 50.4442 115.413 50.4904 115.612 50.4167C115.775 50.3562 115.911 50.2219 116.084 50.2076C116.258 50.1922 116.417 50.3056 116.536 50.4332C116.655 50.5608 116.754 50.7116 116.898 50.8106C117.048 50.9141 117.243 50.9526 117.418 50.9052C117.592 50.8579 117.744 50.7226 117.803 50.5509C117.891 50.2923 117.77 49.9986 117.855 49.7389C117.931 49.5122 118.182 49.3537 118.419 49.3967C118.735 49.4528 118.905 49.7884 119.053 50.0745C119.285 50.5223 119.603 50.9625 120.072 51.1484C120.228 51.21 120.414 51.2563 120.493 51.4048C120.591 51.5919 120.456 51.8141 120.311 51.9682C119.975 52.3269 119.526 52.6119 119.035 52.6306C118.366 52.6559 117.77 52.1894 117.379 51.6458C117.261 51.4829 117.153 51.3069 116.992 51.188C116.833 51.0703 116.638 51.0175 116.448 50.9669C116.278 50.9218 116.099 50.8755 115.927 50.913C115.741 50.9537 115.588 51.0857 115.413 51.1594C115.151 51.2695 114.834 51.2398 114.597 51.0824C114.473 50.9999 114.372 50.8854 114.278 50.7688C114.119 50.5696 113.974 50.3584 113.848 50.1361C113.727 49.9226 113.621 49.6938 113.592 49.4506C113.562 49.2063 113.618 48.9433 113.785 48.7629C113.859 48.6836 113.965 48.6198 114.071 48.6352C114.281 48.6649 114.24 48.995 114.276 49.148C114.338 49.4033 114.439 49.6475 114.575 49.872V49.8698Z" fill="#29256A" style="mix-blend-mode:multiply"/>
<path d="M115.354 45.6235C115.408 45.596 115.467 45.5751 115.528 45.5817C115.672 45.596 115.755 45.7533 115.784 45.8953C115.813 46.0372 115.819 46.1946 115.914 46.3046C116.047 46.4598 116.303 46.4466 116.475 46.3343C116.647 46.2221 116.756 46.0405 116.871 45.8711C117.075 45.5707 117.311 45.2934 117.574 45.0436C117.762 44.8664 118.009 44.6926 118.259 44.7575C118.405 44.796 118.518 44.9094 118.657 44.9677C118.999 45.1129 119.385 44.9006 119.666 44.6574C119.947 44.4131 120.22 44.116 120.587 44.0577C120.956 43.9983 121.345 44.1974 121.697 44.0742C121.924 43.995 122.098 43.7793 122.124 43.5405C122.15 43.3149 122.06 43.0619 122.187 42.8737C122.315 42.6822 122.584 42.6712 122.808 42.6107C123.215 42.5018 123.554 42.1299 123.567 41.7084C123.58 41.2881 123.216 40.8744 122.794 40.8865C122.648 40.8909 122.506 40.9415 122.375 41.0097C121.903 41.2562 121.57 41.7524 121.519 42.2828C121.485 42.636 121.564 43.0156 121.401 43.3304C121.315 43.4965 121.166 43.6274 120.99 43.6902C120.733 43.7826 120.443 43.7287 120.183 43.8134C119.806 43.9366 119.582 44.3119 119.304 44.5958C119.231 44.6706 119.147 44.7432 119.043 44.7619C118.962 44.7773 118.878 44.7564 118.801 44.7234C118.428 44.565 118.162 44.1281 117.757 44.149C117.402 44.1677 117.175 44.5385 117.079 44.8819C116.983 45.2252 116.939 45.6081 116.69 45.8623C116.618 45.9349 116.516 45.9965 116.419 45.9657C116.291 45.925 116.258 45.7621 116.248 45.6279C116.236 45.4705 116.224 45.3121 116.212 45.1547C116.199 44.9754 116.178 44.7784 116.05 44.6519C115.931 44.5341 115.745 44.5066 115.583 44.544C115.42 44.5815 115.276 44.6728 115.138 44.7674C114.851 44.9655 114.208 45.4331 114.246 45.8535C114.267 46.0812 114.504 46.1792 114.697 46.0988C114.95 45.9943 115.109 45.7423 115.353 45.6202L115.354 45.6235Z" fill="#29256A" style="mix-blend-mode:multiply"/>
<path d="M116.401 41.5027C115.515 42.1134 114.792 42.8737 114.244 43.7254C114.273 43.7595 114.315 43.7837 114.356 43.8002C114.524 43.8619 114.714 43.8222 114.874 43.7419C115.033 43.6616 115.17 43.5428 115.313 43.4371C115.511 43.2897 115.725 43.1631 115.95 43.0597C116.139 42.9728 116.404 42.9233 116.519 43.0971C116.577 43.1862 116.568 43.3007 116.558 43.4063C116.526 43.7287 116.494 44.0511 116.462 44.3735C116.451 44.4891 116.446 44.6233 116.53 44.7047C116.661 44.8324 116.883 44.7223 117.002 44.5837C117.315 44.2195 117.403 43.6847 117.772 43.3766C117.869 43.2952 118 43.2303 118.121 43.2688C118.256 43.3117 118.323 43.4591 118.386 43.5868C118.464 43.7463 118.56 43.8971 118.671 44.0357C118.936 44.368 119.17 44.2173 119.284 43.8751C119.393 43.545 119.688 43.3392 120.023 43.293C120.272 43.2589 120.523 43.1752 120.704 42.9937C120.885 42.8143 120.911 42.5502 120.908 42.3082C120.904 41.9968 120.929 41.7118 121.128 41.4576C121.321 41.2111 121.604 41.0042 121.9 40.9008C122.067 40.8425 122.249 40.8315 122.405 40.7501C122.567 40.6653 122.67 40.4992 122.703 40.3198C120.605 39.8258 118.315 40.1856 116.402 41.5038L116.401 41.5027Z" fill="#29256A" style="mix-blend-mode:multiply"/>
<path d="M115.547 44.236C115.026 44.3967 114.62 44.8225 114.364 45.3044C114.25 45.5212 114.153 45.76 113.957 45.9085C113.915 45.9405 113.864 45.968 113.813 45.9559C113.758 45.9438 113.723 45.8887 113.704 45.8359C113.659 45.7105 113.671 45.5707 113.717 45.4464C113.763 45.3221 113.842 45.212 113.927 45.1108C114.192 44.8005 114.533 44.5694 114.846 44.3086C115.072 44.1216 115.283 43.918 115.479 43.7001C115.583 43.5835 115.688 43.4591 115.829 43.3876C115.969 43.3161 116.158 43.3128 116.268 43.425C116.368 43.5263 116.375 43.6858 116.365 43.8278C116.354 43.973 116.332 44.1172 116.299 44.2591C116.275 44.3625 116.228 44.5001 116.128 44.3625C116.063 44.2723 116.052 44.2239 115.927 44.2019C115.801 44.1799 115.668 44.2008 115.547 44.2382V44.236Z" fill="#29256A" style="mix-blend-mode:multiply"/>
</g>
<path style="mix-blend-mode:screen" opacity="0.5" d="M126.473 53.593C129.558 50.5076 129.558 45.5053 126.473 42.4199C123.387 39.3346 118.385 39.3346 115.299 42.4199C112.214 45.5053 112.214 50.5076 115.299 53.593C118.385 56.6784 123.387 56.6784 126.473 53.593Z" fill="url(#paint8_radial_353_9231)"/>
<path d="M126.473 53.593C129.558 50.5076 129.558 45.5053 126.473 42.4199C123.387 39.3346 118.385 39.3346 115.299 42.4199C112.214 45.5053 112.214 50.5076 115.299 53.593C118.385 56.6784 123.387 56.6784 126.473 53.593Z" stroke="#29256A"/>
<path d="M36.8205 73.5449C39.4651 70.9003 39.4651 66.6126 36.8205 63.968C34.1759 61.3234 29.8881 61.3234 27.2435 63.968C24.5989 66.6126 24.5989 70.9003 27.2435 73.5449C29.8881 76.1895 34.1759 76.1895 36.8205 73.5449Z" fill="url(#paint9_linear_353_9231)"/>
<path d="M36.8205 73.5449C39.4651 70.9003 39.4651 66.6126 36.8205 63.968C34.1759 61.3234 29.8881 61.3234 27.2435 63.968C24.5989 66.6126 24.5989 70.9003 27.2435 73.5449C29.8881 76.1895 34.1759 76.1895 36.8205 73.5449Z" fill="url(#paint10_linear_353_9231)" fill-opacity="0.5"/>
<g style="mix-blend-mode:multiply" opacity="0.1">
<path d="M25.942 68.338C25.9146 68.3918 25.8901 68.4474 25.8684 68.504C25.7977 68.6851 25.9344 68.919 26.1466 68.8879C26.2381 68.8747 26.3108 68.8077 26.39 68.7606C26.4692 68.7134 26.5805 68.6889 26.6465 68.7521C26.7022 68.8058 26.6993 68.8945 26.6956 68.9718C26.6833 69.2576 26.7352 69.5632 26.9276 69.7745C27.12 69.9857 27.484 70.0546 27.6944 69.8603C27.7661 69.7943 27.8151 69.6933 27.7887 69.6C27.751 69.466 27.5784 69.3972 27.5604 69.2595C27.5463 69.151 27.6397 69.0577 27.7368 69.0067C27.834 68.9567 27.9452 68.9294 28.0273 68.8568C28.1518 68.7474 28.1782 68.5634 28.1669 68.3974C28.1631 68.3361 28.1537 68.2711 28.1131 68.2248C28.015 68.1117 27.833 68.1843 27.7019 68.255C27.5699 68.3258 27.368 68.3673 27.3039 68.2314C27.2681 68.156 27.3039 68.0692 27.3228 67.9881C27.3426 67.907 27.3331 67.8004 27.2558 67.7702C27.2162 67.7551 27.1709 67.7665 27.1322 67.7844C26.9408 67.874 26.8521 68.1107 26.6626 68.206C26.6446 68.2154 26.6239 68.223 26.6041 68.2211C26.5673 68.2182 26.5399 68.1852 26.5277 68.1503C26.4937 68.0532 26.5531 67.9523 26.5352 67.8514C26.5324 67.8334 26.5267 67.8146 26.5116 67.8042C26.5013 67.7966 26.4881 67.7948 26.4749 67.7948C26.3409 67.79 26.2315 67.8966 26.1504 68.0023C26.0702 68.1069 26.0004 68.2182 25.941 68.3361L25.942 68.338Z" fill="#29256A" style="mix-blend-mode:multiply"/>
<path d="M28.441 69.0785C28.5513 68.9239 28.5739 68.723 28.5626 68.5334C28.5513 68.3438 28.5108 68.1561 28.5108 67.9666C28.5108 67.5497 28.7211 67.1375 29.0587 66.8932C29.1757 66.8084 29.3275 66.7423 29.4605 66.7989C29.7161 66.9083 29.6454 67.3346 29.8699 67.4987C29.9651 67.5676 30.0943 67.5723 30.2075 67.5393C30.3207 67.5072 30.4207 67.4422 30.5197 67.3799C31.0252 67.0658 31.5732 66.8055 32.158 66.6961C32.3466 66.6603 32.5447 66.6414 32.7286 66.6971C32.9125 66.7527 33.0794 66.897 33.1134 67.0866C33.1398 67.2365 33.0813 67.3884 33.0096 67.5223C32.9031 67.7194 32.7616 67.9015 32.5786 68.0316C32.3956 68.1618 32.1693 68.2372 31.9458 68.2165C31.7269 68.1957 31.5279 68.0882 31.3176 68.0269C31.1224 67.9703 30.9073 67.9543 30.7187 68.0307C30.5301 68.1071 30.3763 68.2901 30.3773 68.4928C30.3773 68.6673 30.4848 68.8267 30.4952 69.0012C30.5046 69.1578 30.4254 69.3191 30.2924 69.402C30.1594 69.485 29.9755 69.4832 29.8482 69.3907C29.7312 69.3058 29.6708 69.1615 29.6492 69.0182C29.6275 68.8748 29.6397 68.7296 29.635 68.5853C29.6294 68.4117 29.5709 68.2033 29.403 68.158C29.2436 68.1146 29.0899 68.2504 29.0087 68.3948C28.9191 68.556 28.8748 68.7418 28.8833 68.9258C28.8909 69.0984 28.9427 69.2662 28.954 69.4388C28.9654 69.6114 28.9267 69.802 28.7909 69.9095C28.6381 70.0302 28.4089 70.0028 28.2448 69.8991C28.0807 69.7953 27.9675 69.6294 27.859 69.4681C27.8289 69.4237 27.7704 69.3181 27.8449 69.2823C27.8836 69.2634 27.9854 69.3068 28.0335 69.303C28.1929 69.2917 28.3476 69.2096 28.441 69.0795V69.0785Z" fill="#29256A" style="mix-blend-mode:multiply"/>
<path d="M33.5496 67.2006C33.6439 67.5685 33.5958 67.9797 33.376 68.289C33.1563 68.5984 32.7555 68.7833 32.3848 68.705C32.2895 68.6842 32.1962 68.6484 32.099 68.6427C31.833 68.6286 31.6104 68.8502 31.485 69.086C31.2634 69.5038 31.2417 70.0377 31.485 70.4442C31.7274 70.8507 32.2471 71.0902 32.7007 70.9544C33.0865 70.8393 33.3591 70.497 33.5553 70.1461C33.7514 69.7943 33.8986 69.4114 34.1579 69.1039C34.3145 68.9181 34.5484 68.755 34.7851 68.8115C34.9379 68.8483 35.0539 68.9672 35.1652 69.0775C35.3661 69.2765 35.5831 69.4661 35.8368 69.5915C36.0905 69.717 36.3876 69.7736 36.6611 69.6991C36.9403 69.6227 37.1704 69.4171 37.3241 69.1728C37.4779 68.9285 37.5637 68.6474 37.6288 68.3654C37.7684 67.7618 37.8127 67.095 37.5165 66.5508C37.4449 66.4197 37.3317 66.2848 37.1817 66.2876C37.0949 66.2886 37.0167 66.3367 36.9469 66.3895C36.6592 66.6064 36.4574 66.9158 36.2103 67.177C36.1141 67.2789 36.0075 67.3761 35.8783 67.4298C35.749 67.4836 35.5915 67.4883 35.4746 67.4119C35.3246 67.3138 35.2765 67.1091 35.3076 66.9328C35.3388 66.7564 35.4331 66.5989 35.5151 66.4395C35.7858 65.917 35.9443 65.3124 35.8217 64.7371C35.7896 64.5881 35.7358 64.4362 35.6274 64.3296C35.518 64.2221 35.3435 64.1712 35.2077 64.2419C35.0634 64.3174 35.0106 64.4956 34.9813 64.656C34.8993 65.1021 34.8785 65.5784 34.638 65.9623C34.5795 66.0556 34.4965 66.149 34.3871 66.1622C34.2702 66.1764 34.1645 66.0981 34.0702 66.0264C33.925 65.916 33.7684 65.8132 33.5911 65.7708C33.3025 65.701 32.8234 65.9009 32.9818 66.2622C33.0365 66.3876 33.1799 66.4895 33.26 66.5989C33.3921 66.779 33.4949 66.9846 33.5505 67.2016L33.5496 67.2006Z" fill="#29256A" style="mix-blend-mode:multiply"/>
<path d="M29.8338 66.6522C29.8489 66.5654 29.9347 66.4664 30.0083 66.5154C30.0394 66.5362 30.0517 66.5748 30.0649 66.6097C30.1196 66.7522 30.2545 66.8795 30.4054 66.8635C30.4893 66.855 30.5619 66.805 30.6317 66.7578C30.9939 66.5154 31.3844 66.3155 31.7918 66.1608C31.8927 66.1231 32.0286 66.0976 32.0889 66.1872C32.1333 66.2523 32.1031 66.3466 32.0446 66.4004C31.9861 66.4532 31.9069 66.4758 31.8314 66.4994C31.4636 66.6116 31.1109 66.771 30.7845 66.9729C30.6063 67.0832 30.3629 67.2483 30.1441 67.1832C29.9347 67.1209 29.798 66.8597 29.8338 66.6531V66.6522Z" fill="#29256A" style="mix-blend-mode:multiply"/>
<path d="M33.8749 65.4047C33.9721 65.4594 34.0617 65.5386 34.173 65.5481C34.3475 65.5631 34.4899 65.3953 34.5276 65.2246C34.5653 65.0538 34.5323 64.8765 34.5342 64.7011C34.537 64.4917 34.5917 64.2842 34.6927 64.1003C34.787 63.9296 34.9492 63.7683 35.1444 63.7787C35.2595 63.7853 35.3849 63.8494 35.4821 63.7881C35.5575 63.741 35.5764 63.6306 35.5387 63.5495C35.5019 63.4684 35.4217 63.4137 35.3387 63.3807C35.1888 63.3231 35.0152 63.3279 34.869 63.3948C34.6596 63.4901 34.521 63.6995 34.4484 63.9173C34.3758 64.1361 34.3597 64.3682 34.3286 64.5964C34.3107 64.7303 34.2777 64.8784 34.1673 64.9558C34.0174 65.0604 33.7985 64.985 33.6354 65.067C33.5458 65.1123 33.3722 65.3472 33.5373 65.3953C33.5778 65.4075 33.6382 65.3566 33.6816 65.3528C33.7486 65.3472 33.8193 65.3717 33.8759 65.4038L33.8749 65.4047Z" fill="#29256A" style="mix-blend-mode:multiply"/>
<path d="M35.9648 66.3444C35.9572 66.449 36.0233 66.5688 36.1279 66.5773C36.2072 66.5839 36.277 66.5273 36.3364 66.4745C36.509 66.3208 36.6825 66.167 36.8551 66.0133C36.9598 65.9199 37.0947 65.82 37.2277 65.8643C37.2899 65.885 37.3371 65.9341 37.3937 65.9661C37.4503 65.9982 37.5314 66.0095 37.5738 65.9605C37.5983 65.9331 37.603 65.8935 37.6049 65.8577C37.6163 65.6294 37.5257 65.4059 37.3937 65.2201C37.2616 65.0343 37.09 64.8806 36.9183 64.7297C36.8627 64.6806 36.8042 64.6306 36.7335 64.6061C36.6627 64.5816 36.5769 64.5882 36.525 64.6419C36.4298 64.74 36.5062 64.9004 36.5684 65.022C36.6344 65.1513 36.6787 65.305 36.625 65.4389C36.5458 65.637 36.3166 65.5483 36.2223 65.719C36.1336 65.8813 35.9761 66.1585 35.9629 66.3444H35.9648Z" fill="#29256A" style="mix-blend-mode:multiply"/>
<path d="M26.6251 70.3536C26.7194 70.5092 26.8373 70.6544 26.992 70.7506C27.1466 70.8459 27.3428 70.8855 27.5135 70.8223C27.6531 70.7705 27.7701 70.6554 27.9182 70.6431C28.0672 70.6299 28.2039 70.7271 28.3058 70.8365C28.4077 70.9459 28.4925 71.0751 28.6161 71.16C28.7444 71.2486 28.9113 71.2816 29.0613 71.2411C29.2112 71.2005 29.3414 71.0845 29.3914 70.9374C29.4668 70.7157 29.3631 70.4639 29.4366 70.2413C29.5017 70.047 29.7168 69.9112 29.9195 69.948C30.1902 69.9961 30.3364 70.2838 30.4628 70.529C30.6618 70.9129 30.9344 71.2901 31.3362 71.4495C31.4701 71.5023 31.6295 71.542 31.6974 71.6693C31.7813 71.8296 31.6653 72.0201 31.5418 72.1522C31.2532 72.4597 30.8684 72.7039 30.4477 72.72C29.8743 72.7417 29.3631 72.3418 29.0283 71.8758C28.9273 71.7362 28.8349 71.5853 28.6963 71.4835C28.5604 71.3826 28.3935 71.3373 28.2303 71.2939C28.0841 71.2552 27.9314 71.2156 27.7833 71.2477C27.6239 71.2826 27.4928 71.3958 27.3428 71.459C27.1184 71.5533 26.8467 71.5278 26.6439 71.3929C26.5374 71.3222 26.4506 71.2241 26.3704 71.1241C26.2337 70.9534 26.1101 70.7723 26.0016 70.5818C25.8979 70.3988 25.8074 70.2027 25.7819 69.9942C25.7564 69.7848 25.8045 69.5594 25.9479 69.4048C26.0111 69.3368 26.1016 69.2821 26.1931 69.2953C26.3733 69.3208 26.3374 69.6038 26.3685 69.7349C26.4214 69.9537 26.5081 70.1631 26.6251 70.3555V70.3536Z" fill="#29256A" style="mix-blend-mode:multiply"/>
<path d="M27.291 66.7139C27.3372 66.6903 27.3881 66.6724 27.44 66.6781C27.5635 66.6903 27.6352 66.8252 27.6597 66.9469C27.6842 67.0685 27.6899 67.2034 27.771 67.2977C27.8851 67.4307 28.1049 67.4194 28.252 67.3232C28.3992 67.227 28.4925 67.0714 28.5916 66.9261C28.7661 66.6686 28.9688 66.431 29.1943 66.2169C29.3555 66.065 29.5668 65.916 29.7809 65.9716C29.9063 66.0047 30.0035 66.1018 30.1223 66.1518C30.4157 66.2763 30.7467 66.0943 30.9872 65.8858C31.2277 65.6764 31.4616 65.4218 31.7766 65.3718C32.0926 65.3209 32.4265 65.4916 32.7283 65.3859C32.9226 65.318 33.0716 65.1332 33.0942 64.9285C33.1159 64.7352 33.0395 64.5182 33.148 64.357C33.2574 64.1928 33.4885 64.1834 33.6799 64.1315C34.0289 64.0382 34.3194 63.7194 34.3307 63.3581C34.342 62.9979 34.0298 62.6432 33.6686 62.6536C33.5432 62.6574 33.4215 62.7008 33.3093 62.7592C32.9047 62.9705 32.6189 63.3959 32.5755 63.8505C32.5463 64.1532 32.6142 64.4786 32.4746 64.7484C32.401 64.8908 32.2727 65.003 32.1218 65.0568C31.9021 65.136 31.6531 65.0898 31.4305 65.1624C31.107 65.2681 30.9155 65.5897 30.6769 65.833C30.6147 65.8971 30.542 65.9594 30.4534 65.9754C30.3836 65.9886 30.3119 65.9707 30.2459 65.9424C29.9261 65.8066 29.6979 65.4322 29.3508 65.4501C29.0462 65.4661 28.8519 65.784 28.7698 66.0782C28.6878 66.3725 28.6501 66.7007 28.436 66.9186C28.3746 66.9808 28.2869 67.0337 28.2039 67.0072C28.0945 66.9723 28.0662 66.8328 28.0577 66.7177C28.0474 66.5828 28.037 66.447 28.0266 66.3121C28.0153 66.1584 27.9974 65.9896 27.888 65.8811C27.7861 65.7802 27.6267 65.7566 27.4871 65.7887C27.3475 65.8207 27.224 65.899 27.1061 65.9801C26.8599 66.1499 26.3091 66.5508 26.3412 66.911C26.3591 67.1063 26.5628 67.1902 26.7279 67.1214C26.9448 67.0318 27.0816 66.8158 27.29 66.7111L27.291 66.7139Z" fill="#29256A" style="mix-blend-mode:multiply"/>
<path d="M28.1884 63.1818C27.4292 63.7052 26.8095 64.357 26.3398 65.087C26.3644 65.1162 26.4002 65.137 26.436 65.1511C26.5794 65.2039 26.7426 65.17 26.8793 65.1011C27.0161 65.0323 27.133 64.9304 27.2557 64.8399C27.4254 64.7135 27.6093 64.605 27.8017 64.5164C27.964 64.4419 28.1913 64.3994 28.2894 64.5484C28.3394 64.6248 28.3318 64.7229 28.3233 64.8135C28.296 65.0898 28.2686 65.3662 28.2413 65.6425C28.2318 65.7415 28.2271 65.8566 28.2988 65.9264C28.411 66.0358 28.6016 65.9415 28.7034 65.8226C28.9722 65.5105 29.0477 65.0521 29.3636 64.788C29.4466 64.7182 29.5589 64.6626 29.6626 64.6956C29.7786 64.7324 29.8361 64.8587 29.8899 64.9681C29.9569 65.1049 30.0389 65.2341 30.1342 65.353C30.3615 65.6378 30.5624 65.5086 30.6595 65.2153C30.7529 64.9323 31.0057 64.7559 31.2933 64.7163C31.5065 64.6871 31.7215 64.6154 31.8772 64.4598C32.0318 64.306 32.0545 64.0797 32.0516 63.8722C32.0479 63.6053 32.0696 63.361 32.2403 63.1431C32.4053 62.9319 32.6487 62.7545 32.9024 62.6659C33.0448 62.6159 33.2014 62.6065 33.3353 62.5367C33.4739 62.464 33.5616 62.3216 33.5899 62.1679C31.7923 61.7444 29.8295 62.0528 28.1894 63.1827L28.1884 63.1818Z" fill="#29256A" style="mix-blend-mode:multiply"/>
<path d="M27.4576 65.5248C27.0105 65.6625 26.6625 66.0275 26.4437 66.4406C26.3456 66.6264 26.2626 66.8311 26.0947 66.9584C26.0589 66.9857 26.0145 67.0093 25.9711 66.9989C25.924 66.9886 25.8938 66.9414 25.8778 66.8961C25.8391 66.7886 25.8495 66.6688 25.8891 66.5623C25.9287 66.4557 25.9957 66.3614 26.0692 66.2746C26.2956 66.0086 26.588 65.8106 26.8568 65.587C27.0501 65.4267 27.2312 65.2522 27.3991 65.0655C27.4887 64.9655 27.5783 64.8589 27.699 64.7976C27.8188 64.7363 27.981 64.7335 28.0753 64.8297C28.1612 64.9164 28.1668 65.0532 28.1583 65.1749C28.1489 65.2994 28.13 65.4229 28.1017 65.5446C28.081 65.6332 28.0414 65.7511 27.9556 65.6332C27.8999 65.5559 27.8905 65.5144 27.783 65.4955C27.6754 65.4767 27.5613 65.4946 27.4576 65.5267V65.5248Z" fill="#29256A" style="mix-blend-mode:multiply"/>
</g>
<path style="mix-blend-mode:screen" opacity="0.5" d="M36.8205 73.5449C39.4651 70.9003 39.4651 66.6126 36.8205 63.968C34.1759 61.3234 29.8881 61.3234 27.2435 63.968C24.5989 66.6126 24.5989 70.9003 27.2435 73.5449C29.8881 76.1895 34.1759 76.1895 36.8205 73.5449Z" fill="url(#paint11_radial_353_9231)"/>
<path d="M36.8205 73.5449C39.4651 70.9003 39.4651 66.6126 36.8205 63.968C34.1759 61.3234 29.8881 61.3234 27.2435 63.968C24.5989 66.6126 24.5989 70.9003 27.2435 73.5449C29.8881 76.1895 34.1759 76.1895 36.8205 73.5449Z" stroke="#29256A"/>
</g>
<defs>
<linearGradient id="paint0_linear_353_9231" x1="34.7304" y1="33.9747" x2="108.854" y2="122.244" gradientUnits="userSpaceOnUse">
<stop stop-color="#E6007A"/>
<stop offset="0.21" stop-color="#703AC2"/>
<stop offset="0.46" stop-color="#0070EB"/>
<stop offset="0.77" stop-color="#0297FB"/>
<stop offset="1" stop-color="#0AE2FF"/>
</linearGradient>
<linearGradient id="paint1_linear_353_9231" x1="42.592" y1="46.6074" x2="79.5247" y2="54.1939" gradientUnits="userSpaceOnUse">
<stop stop-color="#2C698B"/>
<stop offset="1"/>
</linearGradient>
<linearGradient id="paint2_linear_353_9231" x1="-1.17042" y1="52.9864" x2="120.803" y2="107.421" gradientUnits="userSpaceOnUse">
<stop stop-color="#FFA0D3"/>
<stop offset="0.197917" stop-color="#A474EC"/>
<stop offset="0.583333" stop-color="#9FD9FF"/>
<stop offset="0.822917" stop-color="#72B5FF"/>
<stop offset="1" stop-color="#4CEAFF"/>
</linearGradient>
<linearGradient id="paint3_linear_353_9231" x1="13.8443" y1="54.3902" x2="107.148" y2="99.8715" gradientUnits="userSpaceOnUse">
<stop stop-color="#FFA0D3"/>
<stop offset="0.197917" stop-color="#A474EC"/>
<stop offset="0.583333" stop-color="#9FD9FF"/>
<stop offset="0.822917" stop-color="#72B5FF"/>
<stop offset="1" stop-color="#4CEAFF"/>
</linearGradient>
<linearGradient id="paint4_linear_353_9231" x1="48.2229" y1="88.4169" x2="81.1594" y2="96.0177" gradientUnits="userSpaceOnUse">
<stop stop-color="#CB2E81"/>
<stop offset="0.463542" stop-color="#703AC2"/>
<stop offset="0.947917" stop-color="#0070EB"/>
</linearGradient>
<radialGradient id="paint5_radial_353_9231" cx="0" cy="0" r="1" gradientUnits="userSpaceOnUse" gradientTransform="translate(59.3587 77.3108) rotate(-29.56) scale(9.41984 4.14473)">
<stop stop-color="white"/>
<stop offset="0.12" stop-color="#DEFFFC" stop-opacity="0.85"/>
<stop offset="0.36" stop-color="#9DFFF7" stop-opacity="0.55"/>
<stop offset="0.58" stop-color="#6AFFF4" stop-opacity="0.32"/>
<stop offset="0.77" stop-color="#45FFF1" stop-opacity="0.14"/>
<stop offset="0.91" stop-color="#2EFFEF" stop-opacity="0.04"/>
<stop offset="1" stop-color="#26FFEF" stop-opacity="0"/>
</radialGradient>
<linearGradient id="paint6_linear_353_9231" x1="128.654" y1="38.44" x2="110.47" y2="55.8933" gradientUnits="userSpaceOnUse">
<stop stop-color="#8247E5"/>
<stop offset="1" stop-color="#5447E5"/>
</linearGradient>
<linearGradient id="paint7_linear_353_9231" x1="115.299" y1="42.4199" x2="126.473" y2="53.593" gradientUnits="userSpaceOnUse">
<stop stop-color="#081029" stop-opacity="0"/>
<stop offset="1" stop-color="#081029"/>
</linearGradient>
<radialGradient id="paint8_radial_353_9231" cx="0" cy="0" r="1" gradientUnits="userSpaceOnUse" gradientTransform="translate(117.471 41.3376) rotate(-29.56) scale(7.91266 3.48157)">
<stop stop-color="white"/>
<stop offset="0.12" stop-color="#DEFFFC" stop-opacity="0.85"/>
<stop offset="0.36" stop-color="#9DFFF7" stop-opacity="0.55"/>
<stop offset="0.58" stop-color="#6AFFF4" stop-opacity="0.32"/>
<stop offset="0.77" stop-color="#45FFF1" stop-opacity="0.14"/>
<stop offset="0.91" stop-color="#2EFFEF" stop-opacity="0.04"/>
<stop offset="1" stop-color="#26FFEF" stop-opacity="0"/>
</radialGradient>
<linearGradient id="paint9_linear_353_9231" x1="38.6902" y1="60.5566" x2="23.1042" y2="75.5166" gradientUnits="userSpaceOnUse">
<stop stop-color="#00FFA3"/>
<stop offset="1" stop-color="#DC1FFF"/>
</linearGradient>
<linearGradient id="paint10_linear_353_9231" x1="27.2435" y1="63.968" x2="36.8205" y2="73.5449" gradientUnits="userSpaceOnUse">
<stop stop-color="#081029" stop-opacity="0"/>
<stop offset="1" stop-color="#081029"/>
</linearGradient>
<radialGradient id="paint11_radial_353_9231" cx="0" cy="0" r="1" gradientUnits="userSpaceOnUse" gradientTransform="translate(29.1047 63.0403) rotate(-29.56) scale(6.78228 2.9842)">
<stop stop-color="white"/>
<stop offset="0.12" stop-color="#DEFFFC" stop-opacity="0.85"/>
<stop offset="0.36" stop-color="#9DFFF7" stop-opacity="0.55"/>
<stop offset="0.58" stop-color="#6AFFF4" stop-opacity="0.32"/>
<stop offset="0.77" stop-color="#45FFF1" stop-opacity="0.14"/>
<stop offset="0.91" stop-color="#2EFFEF" stop-opacity="0.04"/>
<stop offset="1" stop-color="#26FFEF" stop-opacity="0"/>
</radialGradient>
<clipPath id="clip0_353_9231">
<rect width="150" height="130" fill="white"/>
</clipPath>
</defs>
</svg>
