<svg width="150" height="130" viewBox="0 0 150 130" fill="none" xmlns="http://www.w3.org/2000/svg">
<g clip-path="url(#clip0_353_9230)">
<path d="M133.567 38.8824C130.42 31.3325 109.917 32.6864 87.7795 41.9195C65.642 51.1526 50.2616 64.7644 53.4084 72.3144C53.9329 73.5829 55.9332 78.3641 56.4576 79.6326C59.6044 87.1947 80.1076 85.8286 102.245 76.5955C124.383 67.3624 139.763 53.7506 136.616 46.2006C136.092 44.9321 134.091 40.1509 133.567 38.8824V38.8824Z" fill="url(#paint0_linear_353_9230)" stroke="#29256A" stroke-linejoin="round"/>
<g style="mix-blend-mode:multiply" opacity="0.3">
<path d="M133.567 38.8824C130.42 31.3325 109.917 32.6864 87.7795 41.9195C65.642 51.1526 50.2616 64.7644 53.4084 72.3144C53.9329 73.5829 55.9332 78.3641 56.4576 79.6326C59.6044 87.1947 80.1076 85.8286 102.245 76.5955C124.383 67.3624 139.763 53.7506 136.616 46.2006C136.092 44.9321 134.091 40.1509 133.567 38.8824V38.8824Z" fill="url(#paint1_linear_353_9230)"/>
<path d="M133.567 38.8824C130.42 31.3325 109.917 32.6864 87.7795 41.9195C65.642 51.1526 50.2616 64.7644 53.4084 72.3144C53.9329 73.5829 55.9332 78.3641 56.4576 79.6326C59.6044 87.1947 80.1076 85.8286 102.245 76.5955C124.383 67.3624 139.763 53.7506 136.616 46.2006C136.092 44.9321 134.091 40.1509 133.567 38.8824V38.8824Z" stroke="#29256A" stroke-linejoin="round"/>
</g>
<path d="M133.567 38.8824C130.42 31.3325 109.917 32.6864 87.7795 41.9195C65.642 51.1526 50.2616 64.7644 53.4084 72.3144C53.9329 73.5829 55.9332 78.3641 56.4576 79.6326C59.6044 87.1947 80.1076 85.8286 102.245 76.5955C124.383 67.3624 139.763 53.7506 136.616 46.2006C136.092 44.9321 134.091 40.1509 133.567 38.8824V38.8824Z" stroke="#29256A" stroke-linejoin="round"/>
<mask id="mask0_353_9230" style="mask-type:alpha" maskUnits="userSpaceOnUse" x="53" y="34" width="85" height="51">
<path d="M133.567 38.8824C130.42 31.3325 109.917 32.6864 87.7795 41.9195C65.642 51.1526 50.2616 64.7644 53.4084 72.3144C53.9329 73.5829 55.9332 78.3641 56.4576 79.6326C59.6044 87.1947 80.1076 85.8286 102.245 76.5955C124.383 67.3624 139.763 53.7506 136.616 46.2006C136.092 44.9321 134.091 40.1509 133.567 38.8824V38.8824Z" fill="url(#paint2_linear_353_9230)"/>
</mask>
<g mask="url(#mask0_353_9230)">
<path d="M42.4109 30.0021L71.4844 110.266" stroke="#29256A"/>
<path d="M48.0339 28.6772L77.1075 108.941" stroke="#29256A"/>
<path d="M53.655 27.3537L82.7286 107.618" stroke="#29256A"/>
<path d="M59.2761 26.0303L88.3497 106.295" stroke="#29256A"/>
<path d="M70.5203 23.3834L99.5938 103.648" stroke="#29256A"/>
<path d="M76.1433 22.0599L105.217 102.324" stroke="#29256A"/>
<path d="M64.8992 24.707L93.9727 104.971" stroke="#29256A"/>
<path d="M81.7664 20.7365L110.84 101.001" stroke="#29256A"/>
<path d="M87.3894 19.413L116.463 99.6773" stroke="#29256A"/>
<path d="M93.0105 18.0893L122.084 98.3536" stroke="#29256A"/>
<path d="M98.6336 16.7661L127.707 97.0304" stroke="#29256A"/>
<path d="M104.255 15.4425L133.328 95.7068" stroke="#29256A"/>
<path d="M109.876 14.1189L138.949 94.3832" stroke="#29256A"/>
<path d="M115.497 12.7945L144.57 93.0588" stroke="#29256A"/>
<path d="M121.121 11.4711L149.494 91.8928" stroke="#29256A"/>
</g>
<path d="M53.4084 72.3144C56.5552 79.8765 77.0583 78.5105 99.1959 69.2773C121.333 60.0442 136.714 46.4324 133.567 38.8824C130.42 31.3325 109.917 32.6864 87.7795 41.9195C65.642 51.1526 50.2616 64.7644 53.4084 72.3144Z" fill="url(#paint3_linear_353_9230)" stroke="#29256A" stroke-linejoin="round"/>
<path opacity="0.2" d="M75.6196 76.3277C82.6816 75.1446 90.817 72.7783 99.1964 69.29C121.078 60.1667 136.348 46.7622 133.653 39.1635C87.6702 46.9695 64.9838 58.7884 75.6196 76.3277Z" fill="white"/>
<g style="mix-blend-mode:multiply" opacity="0.5">
<path d="M88.5504 43.7493C69.8647 51.5432 56.8993 63.0937 59.5948 69.5581C60.6072 71.9975 63.7296 73.3636 68.2059 73.6929C64.7785 73.2172 62.4001 71.9975 61.5707 69.985C59.0337 63.8987 71.4381 52.9214 89.2701 45.4813C107.114 38.0411 123.629 36.9434 126.166 43.0419C127.008 45.0544 126.203 47.6036 124.129 50.3723C127.044 46.9571 128.276 43.7737 127.251 41.3343C124.556 34.8699 107.224 35.9554 88.5383 43.7371L88.5504 43.7493Z" fill="url(#paint4_linear_353_9230)"/>
</g>
<path d="M88.5504 43.7493C69.8647 51.5432 56.8993 63.0937 59.5948 69.5581C60.6072 71.9975 63.7296 73.3636 68.2059 73.6929C64.7785 73.2172 62.4001 71.9975 61.5707 69.985C59.0337 63.8987 71.4381 52.9214 89.2701 45.4813C107.114 38.0411 123.629 36.9434 126.166 43.0419C127.008 45.0544 126.203 47.6036 124.129 50.3723C127.044 46.9571 128.276 43.7737 127.251 41.3343C124.556 34.8699 107.224 35.9554 88.5383 43.7371L88.5504 43.7493Z" stroke="#29256A" stroke-linejoin="round"/>
<path d="M113.221 55.6542C123.253 48.08 122.964 42.0734 112.581 42.2113C107.415 42.2866 100.706 43.8791 94.0471 46.3871C93.9969 46.4122 93.9468 46.4247 93.8966 46.4498C87.2379 48.9704 80.6293 52.4189 75.6259 56.1934C75.1493 56.557 74.7104 56.9082 74.2715 57.2593C74.2465 57.2718 74.2339 57.2969 74.2088 57.3094C73.9204 57.5477 73.6571 57.7734 73.3937 57.9991C73.3937 57.9991 73.3937 57.9991 73.3812 57.9991C73.1429 58.2123 72.9172 58.413 72.6915 58.6136C65.782 64.9964 67.0234 69.7491 76.2654 69.6237C86.6485 69.4732 103.189 63.2158 113.208 55.6542H113.221ZM109.12 55.7169C107.891 56.6448 106.524 57.5602 105.07 58.4255C105.07 58.4255 105.07 58.4255 105.082 58.413C107.252 55.9426 107.214 54.0867 106.374 53.0333C112.644 48.9327 113.308 47.1395 111.691 46.7759C111.653 46.7759 111.603 46.7508 111.553 46.7508C110.173 46.5251 107.452 47.3652 105.484 48.6067C103.502 49.8482 103.013 51.0395 104.393 51.2652C104.518 51.2903 104.643 51.2903 104.781 51.3028C104.593 51.4407 104.393 51.5912 104.179 51.7417C102.825 51.3028 101.182 51.1774 99.4267 51.2276C98.7872 51.2276 98.11 51.2777 97.3952 51.3404C99.5647 49.961 102.436 48.4311 105.346 47.3402C108.155 46.2868 110.913 45.7225 112.707 45.9608C113.045 46.0109 113.359 46.0987 113.584 46.2116C113.584 46.2116 113.609 46.2116 113.622 46.2241C116.205 47.8919 114.725 51.516 109.12 55.7419V55.7169ZM93.9468 57.3471C92.8558 57.7985 91.7021 58.2499 90.4857 58.6763C90.6362 57.9114 91.05 57.1088 91.6645 56.2686C91.7021 56.2185 91.7272 56.1808 91.7648 56.1307C92.1912 55.604 92.7304 55.0146 93.395 54.3876C94.9625 54.2121 96.3043 54.1619 97.4078 54.2622C97.4705 54.2622 97.5206 54.2622 97.5833 54.2748C98.248 54.35 98.8624 54.4879 99.4142 54.6886C97.6962 55.6291 95.9406 56.4818 94.2226 57.2217C94.1349 57.2593 94.0471 57.2969 93.9468 57.3345V57.3471ZM104.192 45.6473C104.192 45.6473 104.179 45.6473 104.167 45.6473C99.1759 47.6411 94.8496 50.1867 92.0783 52.1681C84.8177 53.7355 80.855 55.7796 79.4129 57.3094C79.3753 57.3471 79.3377 57.3972 79.3001 57.4348C78.2718 58.6261 79.2123 59.2406 81.3942 58.8017C83.5762 58.3753 86.172 57.0586 87.2002 55.8673C87.288 55.767 87.3633 55.6667 87.4134 55.5664C87.6768 55.4911 87.9401 55.4284 88.2285 55.3532C86.7112 56.8204 85.7707 58.0744 85.244 59.1277C85.0308 59.529 84.8678 59.9178 84.7424 60.2814C82.3097 60.783 79.7891 61.0338 78.3094 60.6576C76.8798 60.294 76.5789 59.2908 77.8078 57.7985C78.0335 57.5226 78.3596 57.1966 78.7107 56.8956C79.0367 56.6323 79.3628 56.3689 79.7139 56.1056C86.2472 51.2025 96.3293 46.989 104.192 45.6473ZM80.2406 66.6392C76.2278 66.7019 74.1587 65.5733 74.0207 63.7048C76.8422 64.1813 81.2061 63.4791 84.8177 62.5512C85.8083 65.0717 89.1063 64.846 92.1661 63.6672C92.2539 63.6296 92.3291 63.6045 92.4169 63.5669C94.8246 62.6013 96.6052 61.1592 96.4046 60.3441C96.2039 59.529 94.0972 59.6544 91.6896 60.62C91.4764 60.7078 91.2757 60.7956 91.0751 60.8833C91.0124 60.8081 90.9372 60.7329 90.8745 60.6576C93.7461 59.6293 96.3168 58.5133 98.5991 57.4098C99.4518 56.9959 100.305 56.5821 101.132 56.1432C101.395 57.021 101.057 58.3126 99.6148 59.7798C98.2354 61.1968 95.7776 62.7643 92.7555 64.0058C92.1786 64.244 91.5516 64.4698 90.9748 64.6579C90.9748 64.6579 90.9622 64.6579 90.9497 64.6579C87.0498 65.8617 83.3003 66.589 80.2406 66.6266V66.6392Z" fill="url(#paint5_linear_353_9230)" stroke="#3442C0" stroke-linejoin="round"/>
<path style="mix-blend-mode:overlay" opacity="0.9" d="M111.7 46.7762C111.7 46.7762 111.612 46.7511 111.562 46.7511C111.324 46.7135 111.035 46.7009 110.709 46.726C111.374 47.5035 109.781 49.535 103.599 53.4223C101.555 54.714 99.3103 55.9303 96.9904 57.0339C95.0341 57.9869 92.8522 58.9399 90.457 59.8428C90.5448 60.1563 90.6828 60.4322 90.8583 60.6454C93.73 59.6171 96.3007 58.501 98.5829 57.3975C100.903 56.294 103.135 55.0776 105.192 53.786C112.565 49.1462 113.405 47.1524 111.687 46.7762H111.7Z" fill="url(#paint6_radial_353_9230)"/>
<g style="mix-blend-mode:overlay" opacity="0.8">
<path d="M103.603 53.435C109.785 49.5476 111.377 47.5161 110.713 46.7386C110.637 46.7386 110.562 46.7512 110.474 46.7637C111.076 47.5663 109.446 49.5978 103.339 53.435C101.295 54.7266 99.0505 55.943 96.7306 57.0465C94.8371 57.9619 92.7429 58.8899 90.4355 59.7677C90.4355 59.8053 90.4481 59.8304 90.4606 59.868C92.8558 58.9651 95.0377 58.0121 96.994 57.059C99.3138 55.9555 101.546 54.7392 103.603 53.4475V53.435Z" fill="white"/>
</g>
<path style="mix-blend-mode:overlay" opacity="0.5" d="M84.6536 62.075C84.6285 61.9747 84.6159 61.8744 84.6034 61.7615C80.9919 62.4763 76.8412 62.8525 74.3081 62.1001C74.0824 62.677 73.9695 63.2162 74.0071 63.6927C76.8286 64.1692 81.1925 63.467 84.804 62.539C84.7413 62.3885 84.6912 62.2255 84.6536 62.0625V62.075Z" fill="url(#paint7_radial_353_9230)"/>
<path style="mix-blend-mode:overlay" opacity="0.6" d="M84.6031 61.7615C84.6031 61.7615 84.5905 61.6612 84.5905 61.6111C80.9916 62.3008 76.891 62.6268 74.4332 61.8368C74.3956 61.9246 74.3579 62.0123 74.3203 62.1127C76.8534 62.8651 80.9916 62.4889 84.6156 61.7741L84.6031 61.7615Z" fill="url(#paint8_linear_353_9230)"/>
<path style="mix-blend-mode:overlay" opacity="0.9" d="M79.4296 57.3223C79.4296 57.3223 79.3544 57.41 79.3168 57.4477C79.1412 57.6608 79.0158 57.8489 78.9531 58.0245C81.0097 56.5322 85.1855 54.7766 91.9947 53.4223C94.2519 52.9709 96.2708 52.7577 98.0013 52.7326C99.5061 52.6825 100.936 52.7828 102.165 53.0837C102.942 52.5947 103.619 52.1307 104.184 51.7294C102.829 51.2905 101.186 51.1526 99.4309 51.2153C97.7004 51.2404 95.6815 51.4661 93.4243 51.905C85.3109 53.5101 80.947 55.6921 79.4171 57.3223H79.4296Z" fill="url(#paint9_radial_353_9230)"/>
<g style="mix-blend-mode:overlay" opacity="0.8">
<path d="M91.9933 53.422C85.1715 54.7638 81.0082 56.532 78.9517 58.0242C78.9391 58.0618 78.9266 58.112 78.9141 58.1496C81.0082 56.6699 85.1464 54.9394 91.8679 53.6102C94.1251 53.1587 96.144 52.9455 97.8745 52.9205C99.3291 52.8828 100.709 52.9706 101.912 53.2465C102 53.1963 102.075 53.1462 102.151 53.096C100.922 52.7951 99.4922 52.6947 97.9874 52.7449C96.2568 52.77 94.2379 52.9957 91.9807 53.4346L91.9933 53.422Z" fill="white"/>
</g>
<path style="mix-blend-mode:overlay" opacity="0.4" d="M105.21 53.7865C104.972 53.9369 104.721 54.0874 104.471 54.2379C104.797 55.5922 104.144 57.7491 101.461 60.395C102.727 59.7555 103.944 59.0909 105.085 58.4012C107.254 55.9308 107.217 54.0749 106.377 53.0341C106 53.2723 105.612 53.5357 105.198 53.7865H105.21Z" fill="url(#paint10_radial_353_9230)"/>
<path style="mix-blend-mode:overlay" opacity="0.5" d="M104.47 54.2379C104.345 54.3131 104.219 54.3883 104.094 54.4636C104.37 55.843 103.63 58.0249 100.871 60.6959C101.072 60.5956 101.26 60.4953 101.46 60.395C104.144 57.749 104.796 55.5922 104.47 54.2379V54.2379Z" fill="url(#paint11_linear_353_9230)"/>
<path style="mix-blend-mode:overlay" opacity="0.9" d="M92.1656 63.6677C92.2533 63.6301 92.3286 63.605 92.4164 63.5674C92.8427 63.3918 93.244 63.2037 93.6202 63.0156C90.8865 63.7304 88.3158 63.4545 87.6888 60.9089C87.4756 60.0687 87.7013 59.0655 88.2907 57.9871C88.7422 57.0842 89.4946 56.0308 90.6608 54.827C89.8081 55.0026 88.9804 55.1907 88.2406 55.3788C86.7232 56.8459 85.7953 58.0999 85.2686 59.1533C84.6792 60.2317 84.4535 61.2349 84.6667 62.0751C85.4191 65.1098 88.9303 64.9217 92.1656 63.6677Z" fill="url(#paint12_radial_353_9230)"/>
<g style="mix-blend-mode:overlay" opacity="0.8">
<path d="M87.687 60.9085C88.314 63.4541 90.8972 63.73 93.6184 63.0153C93.7062 62.9651 93.794 62.9149 93.8943 62.8773C91.2107 63.5545 88.6902 63.2535 88.0632 60.7455C87.85 59.9053 88.0758 58.9021 88.6651 57.8237C89.104 56.9459 89.8188 55.9302 90.9223 54.7765C90.8345 54.789 90.7468 54.8141 90.6464 54.8266C89.4802 56.0305 88.7278 57.0838 88.2764 57.9867C87.687 59.0652 87.4613 60.0684 87.6745 60.9085H87.687Z" fill="white"/>
</g>
<path style="mix-blend-mode:overlay" opacity="0.3" d="M93.4171 51.9057C93.6805 51.8555 93.9438 51.8054 94.2071 51.7552C97.4926 49.6861 102.295 47.1656 107.5 45.2595C106.459 45.3222 105.355 45.4602 104.176 45.6608C99.1855 47.6547 94.8592 50.2003 92.0879 52.1816C92.5268 52.0938 92.9657 51.9935 93.4171 51.9057V51.9057Z" fill="url(#paint13_radial_353_9230)"/>
<path style="mix-blend-mode:overlay" opacity="0.4" d="M94.2109 51.7549C94.3363 51.7298 94.4743 51.7047 94.5997 51.6922C97.9228 49.6356 102.763 47.1151 107.98 45.2341C107.829 45.2341 107.666 45.2466 107.503 45.2591C102.287 47.1652 97.4964 49.6983 94.2109 51.7549V51.7549Z" fill="url(#paint14_linear_353_9230)"/>
<path d="M113.221 55.6542C123.253 48.08 122.964 42.0734 112.581 42.2113C107.415 42.2866 100.706 43.8791 94.0471 46.3871C93.9969 46.4122 93.9468 46.4247 93.8966 46.4498C87.2379 48.9704 80.6293 52.4189 75.6259 56.1934C75.1493 56.557 74.7104 56.9082 74.2715 57.2593C74.2465 57.2718 74.2339 57.2969 74.2088 57.3094C73.9204 57.5477 73.6571 57.7734 73.3937 57.9991C73.3937 57.9991 73.3937 57.9991 73.3812 57.9991C73.1429 58.2123 72.9172 58.413 72.6915 58.6136C65.782 64.9964 67.0234 69.7491 76.2654 69.6237C86.6485 69.4732 103.189 63.2158 113.208 55.6542H113.221ZM109.12 55.7169C107.891 56.6448 106.524 57.5602 105.07 58.4255C105.07 58.4255 105.07 58.4255 105.082 58.413C107.252 55.9426 107.214 54.0867 106.374 53.0333C112.644 48.9327 113.308 47.1395 111.691 46.7759C111.653 46.7759 111.603 46.7508 111.553 46.7508C110.173 46.5251 107.452 47.3652 105.484 48.6067C103.502 49.8482 103.013 51.0395 104.393 51.2652C104.518 51.2903 104.643 51.2903 104.781 51.3028C104.593 51.4407 104.393 51.5912 104.179 51.7417C102.825 51.3028 101.182 51.1774 99.4267 51.2276C98.7872 51.2276 98.11 51.2777 97.3952 51.3404C99.5647 49.961 102.436 48.4311 105.346 47.3402C108.155 46.2868 110.913 45.7225 112.707 45.9608C113.045 46.0109 113.359 46.0987 113.584 46.2116C113.584 46.2116 113.609 46.2116 113.622 46.2241C116.205 47.8919 114.725 51.516 109.12 55.7419V55.7169ZM93.9468 57.3471C92.8558 57.7985 91.7021 58.2499 90.4857 58.6763C90.6362 57.9114 91.05 57.1088 91.6645 56.2686C91.7021 56.2185 91.7272 56.1808 91.7648 56.1307C92.1912 55.604 92.7304 55.0146 93.395 54.3876C94.9625 54.2121 96.3043 54.1619 97.4078 54.2622C97.4705 54.2622 97.5206 54.2622 97.5833 54.2748C98.248 54.35 98.8624 54.4879 99.4142 54.6886C97.6962 55.6291 95.9406 56.4818 94.2226 57.2217C94.1349 57.2593 94.0471 57.2969 93.9468 57.3345V57.3471ZM104.192 45.6473C104.192 45.6473 104.179 45.6473 104.167 45.6473C99.1759 47.6411 94.8496 50.1867 92.0783 52.1681C84.8177 53.7355 80.855 55.7796 79.4129 57.3094C79.3753 57.3471 79.3377 57.3972 79.3001 57.4348C78.2718 58.6261 79.2123 59.2406 81.3942 58.8017C83.5762 58.3753 86.172 57.0586 87.2002 55.8673C87.288 55.767 87.3633 55.6667 87.4134 55.5664C87.6768 55.4911 87.9401 55.4284 88.2285 55.3532C86.7112 56.8204 85.7707 58.0744 85.244 59.1277C85.0308 59.529 84.8678 59.9178 84.7424 60.2814C82.3097 60.783 79.7891 61.0338 78.3094 60.6576C76.8798 60.294 76.5789 59.2908 77.8078 57.7985C78.0335 57.5226 78.3596 57.1966 78.7107 56.8956C79.0367 56.6323 79.3628 56.3689 79.7139 56.1056C86.2472 51.2025 96.3293 46.989 104.192 45.6473ZM80.2406 66.6392C76.2278 66.7019 74.1587 65.5733 74.0207 63.7048C76.8422 64.1813 81.2061 63.4791 84.8177 62.5512C85.8083 65.0717 89.1063 64.846 92.1661 63.6672C92.2539 63.6296 92.3291 63.6045 92.4169 63.5669C94.8246 62.6013 96.6052 61.1592 96.4046 60.3441C96.2039 59.529 94.0972 59.6544 91.6896 60.62C91.4764 60.7078 91.2757 60.7956 91.0751 60.8833C91.0124 60.8081 90.9372 60.7329 90.8745 60.6576C93.7461 59.6293 96.3168 58.5133 98.5991 57.4098C99.4518 56.9959 100.305 56.5821 101.132 56.1432C101.395 57.021 101.057 58.3126 99.6148 59.7798C98.2354 61.1968 95.7776 62.7643 92.7555 64.0058C92.1786 64.244 91.5516 64.4698 90.9748 64.6579C90.9748 64.6579 90.9622 64.6579 90.9497 64.6579C87.0498 65.8617 83.3003 66.589 80.2406 66.6266V66.6392Z" stroke="#3442C0" stroke-linejoin="round"/>
<path d="M18.5587 49.1329C7.39296 62.1396 12.4574 84.8234 29.8609 99.7953C47.2643 114.767 70.4173 116.354 81.5767 103.337C83.4457 101.157 85.2793 99.0283 87.1419 96.8386C98.3013 83.8221 93.2369 61.1383 75.8334 46.1665C58.4363 31.2043 35.2834 29.6178 24.124 42.6342C22.255 44.8143 20.4214 46.9431 18.5587 49.1329V49.1329Z" fill="url(#paint15_linear_353_9230)"/>
<g style="mix-blend-mode:multiply" opacity="0.3">
<path d="M18.5587 49.1329C7.39296 62.1396 12.4574 84.8234 29.8609 99.7953C47.2643 114.767 70.4173 116.354 81.5767 103.337C83.4457 101.157 85.2793 99.0283 87.1419 96.8386C98.3013 83.8221 93.2369 61.1383 75.8334 46.1665C58.4363 31.2043 35.2834 29.6178 24.124 42.6342C22.255 44.8143 20.4214 46.9431 18.5587 49.1329V49.1329Z" fill="url(#paint16_linear_353_9230)"/>
</g>
<mask id="mask1_353_9230" style="mask-type:alpha" maskUnits="userSpaceOnUse" x="12" y="33" width="82" height="80">
<path d="M18.5587 49.1325C7.39296 62.1393 12.4574 84.8231 29.8609 99.7949C47.2643 114.767 70.4173 116.353 81.5767 103.337C83.4457 101.157 85.2793 99.0279 87.1419 96.8382C98.3013 83.8218 93.2369 61.138 75.8334 46.1661C58.4363 31.2039 35.2834 29.6174 24.124 42.6339C22.255 44.8139 20.4214 46.9428 18.5587 49.1325V49.1325Z" fill="url(#paint17_linear_353_9230)"/>
</mask>
<g mask="url(#mask1_353_9230)">
<path d="M67.1841 4.91436L6.87455 61.8043" stroke="#29256A"/>
<path d="M70.5337 9.41326L10.2242 66.3032" stroke="#29256A"/>
<path d="M73.8833 13.9118L13.5738 70.8018" stroke="#29256A"/>
<path d="M77.2329 18.4113L16.9234 75.3012" stroke="#29256A"/>
<path d="M83.9321 27.4106L23.6226 84.3005" stroke="#29256A"/>
<path d="M87.2817 31.9105L26.9722 88.8004" stroke="#29256A"/>
<path d="M80.5825 22.9112L20.273 79.8011" stroke="#29256A"/>
<path d="M90.6333 36.4107L30.3238 93.3006" stroke="#29256A"/>
<path d="M93.981 40.9106L33.6714 97.8005" stroke="#29256A"/>
<path d="M97.3306 45.41L37.021 102.3" stroke="#29256A"/>
<path d="M100.68 49.9096L40.3706 106.8" stroke="#29256A"/>
<path d="M104.03 54.4091L43.7202 111.299" stroke="#29256A"/>
<path d="M107.379 58.9076L47.0699 115.798" stroke="#29256A"/>
<path d="M110.729 63.4068L50.4195 120.297" stroke="#29256A"/>
<path d="M114.079 67.9071L53.3589 124.234" stroke="#29256A"/>
</g>
<path d="M18.5587 49.1329C7.39296 62.1396 12.4574 84.8234 29.8609 99.7953C47.2643 114.767 70.4173 116.354 81.5767 103.337C83.4457 101.157 85.2793 99.0283 87.1419 96.8386C98.3013 83.8221 93.2369 61.1383 75.8334 46.1665C58.4363 31.2043 35.2834 29.6178 24.124 42.6342C22.255 44.8143 20.4214 46.9431 18.5587 49.1329V49.1329Z" stroke="#29256A" stroke-linejoin="round"/>
<path d="M81.5818 103.345C92.7401 90.3306 87.6759 67.6446 70.2706 52.6743C52.8653 37.7041 29.7099 36.1185 18.5516 49.1329C7.39325 62.1473 12.4575 84.8333 29.8628 99.8035C47.2681 114.774 70.4235 116.359 81.5818 103.345Z" fill="url(#paint18_linear_353_9230)" stroke="#29256A" stroke-linejoin="round"/>
<path opacity="0.1" d="M16.7306 51.5643C8.04983 64.8314 13.4941 85.7223 29.8606 99.796C46.2272 113.87 67.669 116.115 79.4476 105.523L16.7306 51.5643Z" fill="white"/>
<g style="mix-blend-mode:multiply" opacity="0.5">
<path d="M32.5602 96.6499C47.2561 109.286 66.9012 110.51 76.4425 99.3831C80.0486 95.1796 81.6948 89.813 81.5555 84.0709C81.3223 88.7257 79.7878 93.0461 76.8154 96.5112C67.821 106.999 49.164 105.719 35.1369 93.6548C21.1098 81.5907 17.0252 63.3016 26.0196 52.8136C28.992 49.3486 33.0228 47.1703 37.5924 46.2472C31.9103 46.975 26.859 49.4112 23.2432 53.621C13.7019 64.7483 17.8738 84.0076 32.5602 96.6499Z" fill="url(#paint19_linear_353_9230)"/>
</g>
<path d="M32.5602 96.6499C47.2561 109.286 66.9012 110.51 76.4425 99.3831C80.0486 95.1796 81.6948 89.813 81.5555 84.0709C81.3223 88.7257 79.7878 93.0461 76.8154 96.5112C67.821 106.999 49.164 105.719 35.1369 93.6548C21.1098 81.5907 17.0252 63.3016 26.0196 52.8136C28.992 49.3486 33.0228 47.1703 37.5924 46.2472C31.9103 46.975 26.859 49.4112 23.2432 53.621C13.7019 64.7483 17.8738 84.0076 32.5602 96.6499Z" stroke="#29256A" stroke-linejoin="round"/>
<path d="M76.505 98.9802C76.505 98.9802 76.7239 98.6827 77.1327 98.1069C77.3323 97.8222 77.5962 97.4672 77.8891 97.0513C78.198 96.6387 78.4239 96.1004 78.7493 95.5242C78.9072 95.2392 79.062 94.9285 79.2424 94.6148C79.4068 94.2978 79.5071 93.9258 79.6556 93.5638C79.9237 92.817 80.2817 92.0386 80.454 91.1469C80.6743 90.265 80.93 89.3319 81.0032 88.3112C81.0718 87.8074 81.1277 87.2843 81.1932 86.7549C81.201 86.2219 81.212 85.6728 81.2166 85.1141C81.2932 83.9939 81.1101 82.837 81.0266 81.642C80.9896 81.0414 80.8276 80.44 80.7265 79.8262C80.5998 79.2154 80.5436 78.5858 80.3431 77.9682C79.9839 76.7333 79.6824 75.4601 79.1596 74.2082C78.911 73.5808 78.717 72.9311 78.4171 72.3098C78.1268 71.6821 77.8269 71.0608 77.5366 70.4331C77.2656 69.7927 76.8791 69.187 76.5279 68.5718C76.167 67.963 75.8479 67.3127 75.4421 66.7197C74.6208 65.5402 73.8542 64.2966 72.8948 63.1806C71.1239 60.8368 68.9418 58.7509 66.7562 56.7646C64.4133 54.8545 62.067 53.0439 59.479 51.6431C58.2333 50.8691 56.8973 50.2937 55.5903 49.6574C54.9368 49.3393 54.2542 49.1238 53.607 48.857C52.9469 48.6127 52.2966 48.3203 51.6138 48.1465C50.944 47.9503 50.2838 47.7477 49.6204 47.5612C48.9602 47.3586 48.2869 47.262 47.633 47.1108C46.322 46.7828 45.0169 46.6731 43.7472 46.5123C43.1156 46.4158 42.474 46.451 41.8551 46.4156C41.2297 46.4123 40.6269 46.3385 40.0238 46.3899C38.8272 46.4863 37.6501 46.4865 36.5654 46.7312C36.0199 46.8279 35.4744 46.9246 34.9482 47.0085C34.4346 47.1535 33.9307 47.2921 33.4428 47.434C32.4448 47.6632 31.565 48.0503 30.7174 48.4022C29.8538 48.7091 29.1406 49.1806 28.4468 49.5558C28.1063 49.7531 27.7627 49.9247 27.4703 50.1319C27.1843 50.3487 26.908 50.5592 26.6445 50.7472C26.1367 51.1524 25.6227 51.4643 25.2658 51.8253C24.9025 52.1766 24.597 52.4897 24.3462 52.7388C23.8445 53.2371 23.5745 53.499 23.5745 53.499C23.5745 53.499 23.8382 53.2274 24.3174 52.7162C24.5618 52.4574 24.8576 52.1507 25.2082 51.78C25.5523 51.3997 26.0439 51.0748 26.5549 50.6537C26.8056 50.4463 27.082 50.2358 27.3712 50.0029C27.6572 49.7861 28.0009 49.6145 28.3382 49.3915C29.0224 48.9809 29.7325 48.4837 30.5929 48.1511C31.4374 47.7734 32.3173 47.3446 33.3155 47.0737C33.813 46.9254 34.3201 46.7708 34.8369 46.6097C35.3664 46.5098 35.9215 46.4067 36.4767 46.3037C37.5903 46.0399 38.7803 46.0173 39.9897 45.8984C40.5961 45.831 41.2182 45.892 41.8532 45.889C42.4818 45.918 43.1266 45.8668 43.7775 45.9505C45.0761 46.0922 46.4101 46.1828 47.75 46.4917C49.1094 46.7044 50.4458 47.1128 51.8079 47.5182C52.5002 47.6856 53.157 47.9877 53.8331 48.2353C54.506 48.4989 55.2046 48.7178 55.8581 49.0359C57.1747 49.6658 58.5428 50.2478 59.8205 51.0284C62.4566 52.4391 64.9087 54.3048 67.226 56.1763C69.4787 58.2432 71.6576 60.3451 73.4572 62.7533C74.4197 63.895 75.1991 65.1579 76.0203 66.3792C76.4228 66.9882 76.7579 67.6418 77.1156 68.2667C77.4636 68.8979 77.8501 69.5036 78.1243 70.1697C78.724 71.4541 79.3269 72.7224 79.747 74.0283C80.2569 75.3026 80.5422 76.6142 80.879 77.8779C81.0699 78.5018 81.1131 79.1539 81.2302 79.7711C81.312 80.3976 81.474 80.999 81.4981 81.622C81.5591 82.8458 81.7197 84.0315 81.6238 85.1645C81.5999 85.7359 81.5793 86.2913 81.5618 86.8307C81.4867 87.3665 81.4052 87.8927 81.3333 88.4125C81.2248 89.4427 80.9338 90.3852 80.6878 91.2701C80.4802 92.1713 80.1062 92.9464 79.806 93.6866C79.6479 94.055 79.5251 94.414 79.3511 94.7374C79.1707 95.0511 78.9999 95.3585 78.826 95.6401C78.4782 96.2035 78.2363 96.7384 77.9209 97.1413C77.6056 97.5443 77.3449 97.8833 77.1293 98.1647C76.6981 98.7276 76.4729 99.0154 76.4729 99.0154L76.505 98.9802Z" fill="#29256A"/>
<path d="M58.8729 55.8066C46.1027 48.1075 32.1136 50.4374 27.5977 61.0082C25.3518 66.2772 25.8832 72.593 28.5662 78.5641L28.5586 78.5704C28.5909 78.6095 28.608 78.6612 28.6327 78.7065C31.345 84.6665 36.1884 90.2723 42.5471 94.0977C43.1567 94.4625 43.761 94.8053 44.3675 95.1199C44.3946 95.137 44.4216 95.1542 44.4497 95.1572C44.852 95.3643 45.2542 95.5714 45.6652 95.7581C45.6652 95.7581 45.6717 95.766 45.6857 95.7675C46.048 95.9418 46.4179 96.1098 46.7889 96.2637C58.2732 101.168 69.7992 98.2953 73.8158 88.8882C78.3251 78.3096 71.6366 63.4979 58.8729 55.8066V55.8066ZM57.0924 59.9793C58.6628 60.9318 60.1156 62.0211 61.4401 63.2034C61.4401 63.2034 61.4196 63.1941 61.4055 63.1926C56.7158 61.8185 52.4442 62.4688 49.6255 63.6816C43.1161 58.6509 39.2866 58.5799 37.7009 60.3528C37.6476 60.3969 37.6148 60.4503 37.5756 60.4959C36.4182 61.9803 37.0671 64.4853 39.0107 66.0904C40.9544 67.6954 43.4682 67.7884 44.618 66.3103C44.714 66.1782 44.8034 66.0383 44.8788 65.8969C45.1155 66.0435 45.3587 66.1979 45.6148 66.3679C43.9846 67.901 42.8998 69.6282 42.2016 71.4042C41.9213 72.0575 41.6886 72.7373 41.5034 73.4436C39.3296 71.6998 37.1403 69.2709 35.9879 66.6688C34.8643 64.1482 34.8575 61.5202 36.2563 59.599C36.5202 59.2358 36.8674 58.8959 37.2306 58.6217C37.2458 58.6091 37.261 58.5965 37.2763 58.5839C42.3372 55.3842 49.9784 55.6596 57.1076 59.9667L57.0924 59.9793ZM53.7601 74.9569C53.7601 74.9569 53.7601 74.9569 53.7666 74.9648C54.314 75.9209 54.7981 76.9557 55.2127 78.0612C53.5357 78.1582 51.8566 78.0199 50.2304 77.6666C50.1471 77.6434 50.0626 77.6343 49.9728 77.6033C48.9422 77.3498 47.8633 76.9914 46.7296 76.5203C47.0399 74.9731 47.5834 73.6148 48.3027 72.4534C48.343 72.3937 48.3769 72.3261 48.4173 72.2664C48.9005 71.5637 49.4952 70.8873 50.2067 70.2591C51.5734 71.7094 52.7166 73.1997 53.6235 74.7144C53.6665 74.7973 53.7171 74.874 53.7677 74.9506L53.7601 74.9569ZM31.5975 68.4313L31.6105 68.447C33.8787 72.8781 37.7297 76.4474 40.9919 78.6075C41.2205 85.5031 44.058 88.8706 46.9278 89.8279C47.0036 89.8574 47.0869 89.8806 47.1638 89.896C49.4194 90.545 51.2755 89.378 51.3032 87.2876C51.3308 85.1973 49.5145 82.9865 47.2589 82.3376C47.0575 82.2803 46.8692 82.2386 46.6796 82.211C46.6352 81.9713 46.5995 81.7111 46.5638 81.4509C49.2337 82.5077 51.6762 83.0415 53.8699 83.2281C54.6867 83.3162 55.5004 83.354 56.3034 83.348C56.3138 85.6703 55.7133 88.1688 54.1455 89.8084C52.6386 91.3975 50.179 92.0367 47.3354 91.2816C46.7931 91.1377 46.2143 90.9187 45.6735 90.6681C45.2173 90.4267 44.7686 90.179 44.3146 89.9093C36.0202 84.907 31.0027 76.0214 31.5911 68.4235L31.5975 68.4313ZM68.7638 85.8517C67.026 89.9364 63.456 92.4424 59.0972 93.2044C61.5252 90.1552 61.9393 85.9278 61.4893 82.547C67.7701 80.6821 68.7697 77.3793 67.4856 74.6492C67.4491 74.5741 67.4126 74.4989 67.3761 74.4238C66.2703 72.2967 63.7729 70.9524 61.8016 71.4377C59.8303 71.923 59.1329 74.0408 60.2386 76.1679C60.3375 76.3494 60.4505 76.5325 60.5646 76.7014C60.3724 76.7946 60.1661 76.8863 59.9381 76.9828C58.8983 74.3929 57.5406 72.1319 56.0515 70.1771C55.5075 69.442 54.9341 68.7181 54.3163 68.0178C56.4721 67.4456 59.2695 67.3697 61.9898 68.3322C64.6202 69.2637 67.0725 71.2511 68.539 73.9226C68.8174 74.4296 69.0555 74.9964 69.219 75.5196C69.219 75.5196 69.2255 75.5274 69.2319 75.5352C70.1839 79.1196 70.1052 82.7139 68.7726 85.8312L68.7638 85.8517Z" fill="url(#paint20_linear_353_9230)" stroke="#3442C0" stroke-linejoin="round"/>
<g style="mix-blend-mode:overlay" opacity="0.8">
<path d="M49.247 66.402C43.17 61.3824 39.2261 60.4446 37.1249 61.393C37.0975 61.4684 37.0842 61.5452 37.0632 61.6284C39.1803 60.7459 43.0991 61.7307 49.0974 66.6707C51.1144 68.3335 52.865 70.2168 54.3366 72.2124C55.5757 73.8341 56.712 75.6725 57.6598 77.7327C57.7466 77.7136 57.8193 77.6929 57.9061 77.6738C56.937 75.5259 55.763 73.6264 54.4786 71.95C53.0146 69.9481 51.2641 68.0648 49.2394 66.4083L49.247 66.402Z" fill="white"/>
</g>
<path style="mix-blend-mode:overlay" opacity="0.6" d="M59.5742 83.0245C59.4517 83.0469 59.3291 83.0693 59.2066 83.0917C59.1047 86.5339 57.9629 90.626 54.9812 93.409C55.1719 93.4224 55.3561 93.428 55.5544 93.4352C58.4626 90.5944 59.5287 86.4728 59.5742 83.0245V83.0245Z" fill="url(#paint21_linear_353_9230)"/>
<path style="mix-blend-mode:overlay" opacity="0.9" d="M46.9341 89.8344C47.0099 89.8639 47.0932 89.8871 47.1701 89.9025C47.5727 90.0171 47.9518 90.0722 48.3278 90.0772C45.8521 88.4646 43.742 84.7981 43.8238 78.2778C43.8496 76.1232 44.281 74.1333 45.0355 72.3634C45.635 70.8402 46.5302 69.3489 47.7987 67.9833C47.0332 67.3525 46.2953 66.8173 45.6211 66.3744C43.9909 67.9075 42.8985 69.641 42.2003 71.417C41.4394 73.1791 41.0156 75.1626 40.9887 77.3314C40.8905 85.1031 43.8988 88.8166 46.9417 89.8281L46.9341 89.8344Z" fill="url(#paint22_radial_353_9230)"/>
<g style="mix-blend-mode:overlay" opacity="0.8">
<path d="M43.8078 78.2904C43.726 84.8108 45.8361 88.4772 48.3118 90.0898C48.4039 90.0926 48.4895 90.0876 48.5752 90.0826C46.144 88.4463 44.0902 84.7859 44.1717 78.3581C44.1974 76.2035 44.6288 74.2136 45.3833 72.4437C45.9641 70.9755 46.8202 69.5298 48.0213 68.2067C47.9414 68.1412 47.8615 68.0756 47.7816 68.01C46.5131 69.3756 45.6178 70.8669 45.0183 72.3901C44.2574 74.1522 43.8336 76.1358 43.8067 78.3045L43.8078 78.2904Z" fill="white"/>
</g>
<path style="mix-blend-mode:overlay" opacity="0.4" d="M50.8247 64.6501C51.0644 64.8468 51.2965 65.0498 51.5286 65.2529C54.7963 64.4587 59.4533 64.3982 64.3175 66.2468C63.4249 65.168 62.4562 64.1523 61.4102 63.2136C56.7206 61.8394 52.4489 62.4898 49.6367 63.7104C50.0245 64.0085 50.4175 64.3285 50.8311 64.6579L50.8247 64.6501Z" fill="url(#paint23_radial_353_9230)"/>
<path style="mix-blend-mode:overlay" opacity="0.5" d="M51.5219 65.2449C51.6341 65.3496 51.754 65.4479 51.8662 65.5526C55.1651 64.8117 59.8521 64.8185 64.7107 66.7377C64.5748 66.5735 64.439 66.4094 64.2967 66.2374C59.4325 64.3887 54.7755 64.4493 51.5078 65.2434L51.5219 65.2449Z" fill="url(#paint24_linear_353_9230)"/>
<path style="mix-blend-mode:overlay" opacity="0.9" d="M67.4865 74.6493C67.45 74.5742 67.4135 74.499 67.3769 74.4239C67.1803 74.0467 66.9391 73.6932 66.6663 73.379C67.042 75.9257 65.2147 78.6623 59.0482 80.1693C57.0119 80.6689 54.8234 80.7677 52.5973 80.542C50.7134 80.3888 48.6519 79.9743 46.4142 79.192C46.4117 80.0105 46.4624 80.785 46.5547 81.4856C49.2247 82.5423 51.6748 83.0699 53.862 83.2487C56.0805 83.4807 58.2689 83.3819 60.3129 82.876C67.6532 81.0825 68.8489 77.5517 67.4853 74.6634L67.4865 74.6493Z" fill="url(#paint25_radial_353_9230)"/>
<g style="mix-blend-mode:overlay" opacity="0.8">
<path d="M59.0485 80.1558C65.2074 78.6551 67.0347 75.9186 66.6666 73.3655C66.6019 73.2873 66.5373 73.2091 66.465 73.1373C66.779 75.656 64.914 78.3316 58.8343 79.8194C56.798 80.3191 54.6095 80.4178 52.3835 80.1921C50.5635 80.0387 48.5712 79.646 46.4146 78.9151C46.4077 78.9998 46.4149 79.086 46.408 79.1707C48.6457 79.953 50.7149 80.3612 52.5912 80.5207C54.8096 80.7527 56.9981 80.6539 59.0421 80.148L59.0485 80.1558Z" fill="white"/>
</g>
<path style="mix-blend-mode:overlay" opacity="0.3" d="M40.9661 77.3375C40.9726 77.0818 40.9856 76.834 40.9987 76.5862C37.7701 73.9242 34.1856 69.871 32.2296 65.1816C31.8967 66.2208 31.6805 67.3083 31.5877 68.4517C33.8559 72.8829 37.7069 76.4522 40.9691 78.6123C40.9525 78.2047 40.9446 77.7766 40.9585 77.3438L40.9661 77.3375Z" fill="url(#paint26_radial_353_9230)"/>
<path style="mix-blend-mode:overlay" opacity="0.4" d="M41.0066 76.5798C41.0169 76.4528 41.0196 76.332 41.03 76.205C37.833 73.5036 34.2878 69.4048 32.4044 64.6947C32.342 64.8518 32.2936 65.0103 32.2452 65.1688C34.2012 69.8582 37.7857 73.9115 41.0142 76.5735L41.0066 76.5798Z" fill="url(#paint27_linear_353_9230)"/>
<path d="M58.8729 55.8066C46.1027 48.1075 32.1136 50.4374 27.5977 61.0082C25.3518 66.2772 25.8832 72.593 28.5662 78.5641L28.5586 78.5704C28.5909 78.6095 28.608 78.6612 28.6327 78.7065C31.345 84.6665 36.1884 90.2723 42.5471 94.0977C43.1567 94.4625 43.761 94.8053 44.3675 95.1199C44.3946 95.137 44.4216 95.1542 44.4497 95.1572C44.852 95.3643 45.2542 95.5714 45.6652 95.7581C45.6652 95.7581 45.6717 95.766 45.6857 95.7675C46.048 95.9418 46.4179 96.1098 46.7889 96.2637C58.2732 101.168 69.7992 98.2953 73.8158 88.8882C78.3251 78.3096 71.6366 63.4979 58.8729 55.8066V55.8066ZM57.0924 59.9793C58.6628 60.9318 60.1156 62.0211 61.4401 63.2034C61.4401 63.2034 61.4196 63.1941 61.4055 63.1926C56.7158 61.8185 52.4442 62.4688 49.6255 63.6816C43.1161 58.6509 39.2866 58.5799 37.7009 60.3528C37.6476 60.3969 37.6148 60.4503 37.5756 60.4959C36.4182 61.9803 37.0671 64.4853 39.0107 66.0904C40.9544 67.6954 43.4682 67.7884 44.618 66.3103C44.714 66.1782 44.8034 66.0383 44.8788 65.8969C45.1155 66.0435 45.3587 66.1979 45.6148 66.3679C43.9846 67.901 42.8998 69.6282 42.2016 71.4042C41.9213 72.0575 41.6886 72.7373 41.5034 73.4436C39.3296 71.6998 37.1403 69.2709 35.9879 66.6688C34.8643 64.1482 34.8575 61.5202 36.2563 59.599C36.5202 59.2358 36.8674 58.8959 37.2306 58.6217C37.2458 58.6091 37.261 58.5965 37.2763 58.5839C42.3372 55.3842 49.9784 55.6596 57.1076 59.9667L57.0924 59.9793ZM53.7601 74.9569C53.7601 74.9569 53.7601 74.9569 53.7666 74.9648C54.314 75.9209 54.7981 76.9557 55.2127 78.0612C53.5357 78.1582 51.8566 78.0199 50.2304 77.6666C50.1471 77.6434 50.0626 77.6343 49.9728 77.6033C48.9422 77.3498 47.8633 76.9914 46.7296 76.5203C47.0399 74.9731 47.5834 73.6148 48.3027 72.4534C48.343 72.3937 48.3769 72.3261 48.4173 72.2664C48.9005 71.5637 49.4952 70.8873 50.2067 70.2591C51.5734 71.7094 52.7166 73.1997 53.6235 74.7144C53.6665 74.7973 53.7171 74.874 53.7677 74.9506L53.7601 74.9569ZM31.5975 68.4313L31.6105 68.447C33.8787 72.8781 37.7297 76.4474 40.9919 78.6075C41.2205 85.5031 44.058 88.8706 46.9278 89.8279C47.0036 89.8574 47.0869 89.8806 47.1638 89.896C49.4194 90.545 51.2755 89.378 51.3032 87.2876C51.3308 85.1973 49.5145 82.9865 47.2589 82.3376C47.0575 82.2803 46.8692 82.2386 46.6796 82.211C46.6352 81.9713 46.5995 81.7111 46.5638 81.4509C49.2337 82.5077 51.6762 83.0415 53.8699 83.2281C54.6867 83.3162 55.5004 83.354 56.3034 83.348C56.3138 85.6703 55.7133 88.1688 54.1455 89.8084C52.6386 91.3975 50.179 92.0367 47.3354 91.2816C46.7931 91.1377 46.2143 90.9187 45.6735 90.6681C45.2173 90.4267 44.7686 90.179 44.3146 89.9093C36.0202 84.907 31.0027 76.0214 31.5911 68.4235L31.5975 68.4313ZM68.7638 85.8517C67.026 89.9364 63.456 92.4424 59.0972 93.2044C61.5252 90.1552 61.9393 85.9278 61.4893 82.547C67.7701 80.6821 68.7697 77.3793 67.4856 74.6492C67.4491 74.5741 67.4126 74.4989 67.3761 74.4238C66.2703 72.2967 63.7729 70.9524 61.8016 71.4377C59.8303 71.923 59.1329 74.0408 60.2386 76.1679C60.3375 76.3494 60.4505 76.5325 60.5646 76.7014C60.3724 76.7946 60.1661 76.8863 59.9381 76.9828C58.8983 74.3929 57.5406 72.1319 56.0515 70.1771C55.5075 69.442 54.9341 68.7181 54.3163 68.0178C56.4721 67.4456 59.2695 67.3697 61.9898 68.3322C64.6202 69.2637 67.0725 71.2511 68.539 73.9226C68.8174 74.4296 69.0555 74.9964 69.219 75.5196C69.219 75.5196 69.2255 75.5274 69.2319 75.5352C70.1839 79.1196 70.1052 82.7139 68.7726 85.8312L68.7638 85.8517Z" stroke="#3442C0" stroke-linejoin="round"/>
</g>
<defs>
<linearGradient id="paint0_linear_353_9230" x1="46.8844" y1="80" x2="133.567" y2="62.9826" gradientUnits="userSpaceOnUse">
<stop stop-color="#E6007A"/>
<stop offset="0.21" stop-color="#703AC2"/>
<stop offset="0.46" stop-color="#0070EB"/>
<stop offset="0.77" stop-color="#0297FB"/>
<stop offset="1" stop-color="#0AE2FF"/>
</linearGradient>
<linearGradient id="paint1_linear_353_9230" x1="46.8844" y1="80" x2="133.567" y2="62.9826" gradientUnits="userSpaceOnUse">
<stop stop-color="#E6007A"/>
<stop offset="0.21" stop-color="#703AC2"/>
<stop offset="0.46" stop-color="#0070EB"/>
<stop offset="0.77" stop-color="#0297FB"/>
<stop offset="1" stop-color="#0AE2FF"/>
</linearGradient>
<linearGradient id="paint2_linear_353_9230" x1="72.1451" y1="44.5203" x2="131.45" y2="75.7354" gradientUnits="userSpaceOnUse">
<stop stop-color="#E6C1FF"/>
<stop offset="0.40625" stop-color="#B6C7FF"/>
<stop offset="1" stop-color="#AFF1FF"/>
</linearGradient>
<linearGradient id="paint3_linear_353_9230" x1="43.1618" y1="71.7572" x2="122.665" y2="53.9421" gradientUnits="userSpaceOnUse">
<stop stop-color="#E60068"/>
<stop offset="0.21" stop-color="#703AC2"/>
<stop offset="0.46" stop-color="#0070EB"/>
<stop offset="0.77" stop-color="#0297FB"/>
<stop offset="1" stop-color="#0AE2FF"/>
</linearGradient>
<linearGradient id="paint4_linear_353_9230" x1="67.1652" y1="33.6611" x2="72.9479" y2="78.2185" gradientUnits="userSpaceOnUse">
<stop stop-color="#E6007A"/>
<stop offset="0.21" stop-color="#703AC2"/>
<stop offset="0.46" stop-color="#0070EB"/>
<stop offset="0.77" stop-color="#0297FB"/>
<stop offset="1" stop-color="#0AE2FF"/>
</linearGradient>
<linearGradient id="paint5_linear_353_9230" x1="80.1976" y1="47.9183" x2="114.739" y2="68.7598" gradientUnits="userSpaceOnUse">
<stop stop-color="#E6C1FF"/>
<stop offset="0.40625" stop-color="#B6C7FF"/>
<stop offset="1" stop-color="#AFF1FF"/>
</linearGradient>
<radialGradient id="paint6_radial_353_9230" cx="0" cy="0" r="1" gradientUnits="userSpaceOnUse" gradientTransform="translate(116.396 53.8663) rotate(2.18) scale(6.64869 5.50028)">
<stop stop-color="white"/>
<stop offset="1" stop-color="white" stop-opacity="0"/>
</radialGradient>
<radialGradient id="paint7_radial_353_9230" cx="0" cy="0" r="1" gradientUnits="userSpaceOnUse" gradientTransform="translate(106.182 63.6867) rotate(2.18) scale(3.86231 3.19518)">
<stop stop-color="white"/>
<stop offset="1" stop-color="white" stop-opacity="0"/>
</radialGradient>
<linearGradient id="paint8_linear_353_9230" x1="100.399" y1="62.9299" x2="104.137" y2="63.0054" gradientUnits="userSpaceOnUse">
<stop stop-color="white" stop-opacity="0"/>
<stop offset="1" stop-color="white"/>
</linearGradient>
<radialGradient id="paint9_radial_353_9230" cx="0" cy="0" r="1" gradientUnits="userSpaceOnUse" gradientTransform="translate(68.0292 89.6594) rotate(-56.63) scale(5.56073 6.58825)">
<stop stop-color="white"/>
<stop offset="1" stop-color="white" stop-opacity="0"/>
</radialGradient>
<radialGradient id="paint10_radial_353_9230" cx="0" cy="0" r="1" gradientUnits="userSpaceOnUse" gradientTransform="translate(73.7261 103.249) rotate(-56.63) scale(3.2303 3.8272)">
<stop stop-color="white"/>
<stop offset="1" stop-color="white" stop-opacity="0"/>
</radialGradient>
<linearGradient id="paint11_linear_353_9230" x1="70.5062" y1="106.944" x2="72.1871" y2="104.321" gradientUnits="userSpaceOnUse">
<stop stop-color="white" stop-opacity="0"/>
<stop offset="1" stop-color="white"/>
</linearGradient>
<radialGradient id="paint12_radial_353_9230" cx="0" cy="0" r="1" gradientUnits="userSpaceOnUse" gradientTransform="translate(199.267 7.36411) rotate(155.72) scale(10.6379 3.44523)">
<stop stop-color="white"/>
<stop offset="1" stop-color="white" stop-opacity="0"/>
</radialGradient>
<radialGradient id="paint13_radial_353_9230" cx="0" cy="0" r="1" gradientUnits="userSpaceOnUse" gradientTransform="translate(210.891 -4.64724) rotate(155.72) scale(6.1797 2.00138)">
<stop stop-color="white"/>
<stop offset="1" stop-color="white" stop-opacity="0"/>
</radialGradient>
<linearGradient id="paint14_linear_353_9230" x1="219.502" y1="-8.16207" x2="214.193" y2="-5.46832" gradientUnits="userSpaceOnUse">
<stop stop-color="white" stop-opacity="0"/>
<stop offset="1" stop-color="white"/>
</linearGradient>
<linearGradient id="paint15_linear_353_9230" x1="13.337" y1="44.8043" x2="84.9265" y2="103.546" gradientUnits="userSpaceOnUse">
<stop stop-color="#E6007A"/>
<stop offset="0.21" stop-color="#703AC2"/>
<stop offset="0.46" stop-color="#0070EB"/>
<stop offset="0.77" stop-color="#0297FB"/>
<stop offset="1" stop-color="#0AE2FF"/>
</linearGradient>
<linearGradient id="paint16_linear_353_9230" x1="13.337" y1="44.8043" x2="84.9265" y2="103.546" gradientUnits="userSpaceOnUse">
<stop stop-color="#E6007A"/>
<stop offset="0.21" stop-color="#703AC2"/>
<stop offset="0.46" stop-color="#0070EB"/>
<stop offset="0.77" stop-color="#0297FB"/>
<stop offset="1" stop-color="#0AE2FF"/>
</linearGradient>
<linearGradient id="paint17_linear_353_9230" x1="13.337" y1="44.8039" x2="84.9265" y2="103.545" gradientUnits="userSpaceOnUse">
<stop stop-color="#E6007A"/>
<stop offset="0.21" stop-color="#703AC2"/>
<stop offset="0.46" stop-color="#0070EB"/>
<stop offset="0.77" stop-color="#0297FB"/>
<stop offset="1" stop-color="#0AE2FF"/>
</linearGradient>
<linearGradient id="paint18_linear_353_9230" x1="0.637325" y1="63.5976" x2="87.4435" y2="99.7725" gradientUnits="userSpaceOnUse">
<stop stop-color="#E6007A"/>
<stop offset="0.21" stop-color="#703AC2"/>
<stop offset="0.46" stop-color="#0070EB"/>
<stop offset="0.77" stop-color="#0297FB"/>
<stop offset="1" stop-color="#0AE2FF"/>
</linearGradient>
<linearGradient id="paint19_linear_353_9230" x1="9.24704" y1="54.1219" x2="73.2447" y2="103.855" gradientUnits="userSpaceOnUse">
<stop stop-color="#E6007A"/>
<stop offset="0.21" stop-color="#703AC2"/>
<stop offset="0.46" stop-color="#0070EB"/>
<stop offset="0.77" stop-color="#0297FB"/>
<stop offset="1" stop-color="#0AE2FF"/>
</linearGradient>
<linearGradient id="paint20_linear_353_9230" x1="31.9736" y1="69.8424" x2="64.2951" y2="53.9615" gradientUnits="userSpaceOnUse">
<stop stop-color="#E6C1FF"/>
<stop offset="0.40625" stop-color="#B6C7FF"/>
<stop offset="1" stop-color="#AFF1FF"/>
</linearGradient>
<linearGradient id="paint21_linear_353_9230" x1="54.9483" y1="92.8874" x2="57.2221" y2="89.1194" gradientUnits="userSpaceOnUse">
<stop stop-color="white" stop-opacity="0"/>
<stop offset="1" stop-color="white"/>
</linearGradient>
<radialGradient id="paint22_radial_353_9230" cx="0" cy="0" r="1" gradientUnits="userSpaceOnUse" gradientTransform="translate(125.094 93.0467) rotate(-170.455) scale(9.3671 8.54213)">
<stop stop-color="white"/>
<stop offset="1" stop-color="white" stop-opacity="0"/>
</radialGradient>
<radialGradient id="paint23_radial_353_9230" cx="0" cy="0" r="1" gradientUnits="userSpaceOnUse" gradientTransform="translate(140.964 79.6501) rotate(-170.455) scale(5.44376 4.96432)">
<stop stop-color="white"/>
<stop offset="1" stop-color="white" stop-opacity="0"/>
</radialGradient>
<linearGradient id="paint24_linear_353_9230" x1="64.186" y1="65.8534" x2="59.041" y2="65.8737" gradientUnits="userSpaceOnUse">
<stop stop-color="white" stop-opacity="0"/>
<stop offset="1" stop-color="white"/>
</linearGradient>
<radialGradient id="paint25_radial_353_9230" cx="0" cy="0" r="1" gradientUnits="userSpaceOnUse" gradientTransform="translate(110.586 157.077) rotate(56.6798) scale(10.0975 7.92503)">
<stop stop-color="white"/>
<stop offset="1" stop-color="white" stop-opacity="0"/>
</radialGradient>
<radialGradient id="paint26_radial_353_9230" cx="0" cy="0" r="1" gradientUnits="userSpaceOnUse" gradientTransform="translate(90.5737 152.479) rotate(56.6798) scale(5.86822 4.6057)">
<stop stop-color="white"/>
<stop offset="1" stop-color="white" stop-opacity="0"/>
</radialGradient>
<linearGradient id="paint27_linear_353_9230" x1="33.2452" y1="64.9078" x2="36.006" y2="69.8803" gradientUnits="userSpaceOnUse">
<stop stop-color="white" stop-opacity="0"/>
<stop offset="1" stop-color="white"/>
</linearGradient>
<clipPath id="clip0_353_9230">
<rect width="150" height="130" fill="white"/>
</clipPath>
</defs>
</svg>
