<svg width="150" height="130" viewBox="0 0 150 130" fill="none" xmlns="http://www.w3.org/2000/svg">
<path d="M75.5 11.1V67.2" stroke="#3159A7" stroke-linejoin="round" stroke-dasharray="2 2"/>
<line x1="123.677" y1="91.8472" x2="75.2768" y2="67.6472" stroke="#3159A7" stroke-linejoin="round" stroke-dasharray="2 2"/>
<line x1="25.7886" y1="89.847" x2="75.2886" y2="66.7469" stroke="#3159A7" stroke-linejoin="round" stroke-dasharray="2 2"/>
<path d="M75.3672 67.386V120L124.611 91.3067V38.7502L75.3672 67.386Z" stroke="url(#paint0_linear_353_9228)" stroke-linejoin="round"/>
<path d="M75.4166 67.3858V120L26 91.249V38.6925L75.4166 67.3858Z" stroke="url(#paint1_linear_353_9228)" stroke-linejoin="round"/>
<path d="M26 38.6933L75.4166 67.3866L124.603 38.7508L75.1286 10L26 38.6933Z" stroke="url(#paint2_linear_353_9228)" stroke-linejoin="round"/>
<path d="M43.0723 83.7448V101.939L60.1013 92.0168V73.8422L43.0723 83.7448Z" fill="url(#paint3_linear_353_9228)" fill-opacity="0.9" stroke="#220E6E" stroke-linejoin="round"/>
<path d="M43.0888 83.7447V101.939L26 91.9968V73.8222L43.0888 83.7447Z" fill="url(#paint4_linear_353_9228)" fill-opacity="0.9" stroke="#220E6E" stroke-linejoin="round"/>
<path d="M26 73.8225L43.0888 83.7449L60.0979 73.8423L42.9892 63.9L26 73.8225Z" fill="url(#paint5_linear_353_9228)" fill-opacity="0.9" stroke="#220E6E" stroke-linejoin="round"/>
<defs>
<linearGradient id="paint0_linear_353_9228" x1="79.0149" y1="-15.8031" x2="138.757" y2="-7.94838" gradientUnits="userSpaceOnUse">
<stop stop-color="#E6007A"/>
<stop offset="0.21" stop-color="#703AC2"/>
<stop offset="0.46" stop-color="#0070EB"/>
<stop offset="0.77" stop-color="#0297FB"/>
<stop offset="1" stop-color="#0AE2FF"/>
</linearGradient>
<linearGradient id="paint1_linear_353_9228" x1="29.6605" y1="-15.8995" x2="89.6066" y2="-7.99588" gradientUnits="userSpaceOnUse">
<stop stop-color="#E6007A"/>
<stop offset="0.21" stop-color="#703AC2"/>
<stop offset="0.46" stop-color="#0070EB"/>
<stop offset="0.77" stop-color="#0297FB"/>
<stop offset="1" stop-color="#0AE2FF"/>
</linearGradient>
<linearGradient id="paint2_linear_353_9228" x1="33.3039" y1="-28.531" x2="140.151" y2="11.2949" gradientUnits="userSpaceOnUse">
<stop stop-color="#E6007A"/>
<stop offset="0.21" stop-color="#703AC2"/>
<stop offset="0.46" stop-color="#0070EB"/>
<stop offset="0.77" stop-color="#0297FB"/>
<stop offset="1" stop-color="#0AE2FF"/>
</linearGradient>
<linearGradient id="paint3_linear_353_9228" x1="43.5928" y1="69.6625" x2="62.5717" y2="77.7324" gradientUnits="userSpaceOnUse">
<stop stop-color="#FF47A9"/>
<stop offset="1" stop-color="#703AC2"/>
</linearGradient>
<linearGradient id="paint4_linear_353_9228" x1="26.5223" y1="69.6395" x2="45.5515" y2="77.7534" gradientUnits="userSpaceOnUse">
<stop stop-color="#703AC2"/>
<stop offset="0.338542" stop-color="#0070EB"/>
<stop offset="0.661458" stop-color="#0297FB"/>
<stop offset="1" stop-color="#0AE2FF"/>
</linearGradient>
<linearGradient id="paint5_linear_353_9228" x1="27.0422" y1="60.9479" x2="45.3347" y2="82.9984" gradientUnits="userSpaceOnUse">
<stop stop-color="#0AE2FF"/>
<stop offset="0.328125" stop-color="#0297FB"/>
<stop offset="0.645833" stop-color="#0070EB"/>
<stop offset="1" stop-color="#703AC2"/>
</linearGradient>
</defs>
</svg>
