<svg width="814" height="498" viewBox="0 0 814 498" fill="none" xmlns="http://www.w3.org/2000/svg">
<g clip-path="url(#clip0_358_9515)">
<path d="M216.259 344.209C294.554 265.914 294.554 138.974 216.259 60.679C137.965 -17.6155 11.0242 -17.6155 -67.2703 60.679C-145.565 138.974 -145.565 265.914 -67.2703 344.209C11.0242 422.503 137.965 422.503 216.259 344.209Z" fill="url(#paint0_radial_358_9515)"/>
<path style="mix-blend-mode:multiply" opacity="0.1" d="M-32.1492 210.637C-28.8165 206.11 -28.0934 200.167 -28.3554 194.54C-28.6174 188.933 -29.7493 183.357 -29.6864 177.74C-29.5397 165.394 -23.1573 153.29 -13.0754 146.163C-9.59597 143.711 -5.05807 141.793 -1.15946 143.512C6.37576 146.855 4.10158 159.442 10.7145 164.378C13.5023 166.453 17.338 166.641 20.6916 165.719C24.0453 164.797 27.0321 162.921 30.0085 161.118C45.0999 152.022 61.3965 144.507 78.7516 141.468C84.348 140.483 90.2169 140.001 95.6351 141.709C101.053 143.418 105.958 147.756 106.88 153.374C107.614 157.817 105.832 162.303 103.642 166.233C100.414 172.039 96.1486 177.373 90.6885 181.156C85.2283 184.94 78.5001 187.099 71.8871 186.397C65.4209 185.715 59.5625 182.435 53.3582 180.549C47.5941 178.788 41.2327 178.253 35.6154 180.454C30.0085 182.645 25.3867 188 25.3238 194.016C25.2714 199.182 28.3945 203.94 28.6356 209.107C28.8557 213.75 26.4557 218.476 22.4942 220.887C18.5327 223.297 13.0935 223.161 9.35213 220.405C5.90416 217.858 4.18541 213.54 3.609 209.296C3.03259 205.051 3.42036 200.744 3.33652 196.468C3.23172 191.312 1.58633 185.139 -3.37078 183.724C-8.07636 182.372 -12.6876 186.334 -15.1085 190.578C-17.8229 195.305 -19.2063 200.796 -19.0386 206.246C-18.8709 211.36 -17.4037 216.349 -17.1207 221.453C-16.8377 226.556 -18.0744 232.195 -22.1197 235.318C-26.6786 238.829 -33.4697 237.948 -38.2801 234.815C-43.101 231.671 -46.3813 226.714 -49.5358 221.924C-50.4056 220.593 -52.1139 217.46 -49.8711 216.412C-48.7288 215.877 -45.721 217.187 -44.2957 217.103C-39.5901 216.82 -34.9579 214.452 -32.1492 210.637V210.637Z" fill="url(#paint1_linear_358_9515)"/>
<path style="mix-blend-mode:multiply" opacity="0.1" d="M119.884 156.926C122.546 167.847 120.964 180.014 114.34 189.09C107.717 198.166 95.8009 203.5 84.8387 201.027C82.0195 200.387 79.2947 199.277 76.4022 199.088C68.5316 198.574 61.8558 205.041 58.0725 211.968C51.3547 224.261 50.5268 240.055 57.5484 252.191C64.5597 264.316 79.8711 271.6 93.3486 267.743C104.793 264.473 113.02 254.465 118.952 244.132C124.883 233.798 129.39 222.501 137.187 213.509C141.893 208.069 148.883 203.322 155.863 205.083C160.369 206.214 163.765 209.799 167.024 213.1C172.903 219.084 179.254 224.764 186.727 228.569C194.199 232.373 202.971 234.165 211.082 232.069C219.372 229.92 226.258 223.894 230.921 216.715C235.585 209.537 238.216 201.247 240.238 192.936C244.587 175.109 246.149 155.396 237.587 139.162C235.522 135.253 232.2 131.239 227.777 131.239C225.21 131.25 222.862 132.633 220.798 134.153C212.214 140.472 206.115 149.548 198.705 157.209C195.823 160.196 192.637 163.026 188.781 164.577C184.924 166.128 180.281 166.201 176.833 163.885C172.432 160.93 171.09 154.851 172.075 149.632C173.061 144.413 175.911 139.781 178.405 135.107C186.601 119.743 191.516 101.895 188.1 84.8125C187.209 80.3794 185.668 75.8834 182.493 72.666C179.307 69.4591 174.14 67.8766 170.105 69.9202C165.808 72.1001 164.173 77.3401 163.23 82.0771C160.621 95.2507 159.856 109.346 152.582 120.623C150.811 123.379 148.327 126.094 145.079 126.45C141.61 126.838 138.497 124.459 135.741 122.31C131.465 118.999 126.875 115.897 121.634 114.555C113.114 112.386 98.8507 118.118 103.41 128.881C104.992 132.602 109.195 135.673 111.532 138.953C115.378 144.35 118.333 150.45 119.916 156.895L119.884 156.926Z" fill="url(#paint2_linear_358_9515)"/>
<path style="mix-blend-mode:multiply" opacity="0.1" d="M10.1175 139.319C10.5891 136.752 13.1777 133.87 15.3471 135.327C16.2589 135.945 16.5942 137.098 16.982 138.135C18.5435 142.359 22.4841 146.194 26.9696 145.775C29.4429 145.545 31.6227 144.098 33.7083 142.747C44.5343 135.714 56.1463 129.929 68.2823 125.507C71.2796 124.417 75.3249 123.725 77.0646 126.387C78.3537 128.347 77.4209 131.124 75.6708 132.665C73.9101 134.216 71.573 134.855 69.3303 135.505C58.3995 138.68 47.8984 143.271 38.1519 149.139C32.8279 152.346 25.5862 157.136 19.1095 155.124C12.9471 153.216 8.98564 145.419 10.1175 139.319V139.319Z" fill="url(#paint3_linear_358_9515)"/>
<path style="mix-blend-mode:multiply" opacity="0.1" d="M130.281 103.898C133.121 105.564 135.762 107.933 139.043 108.258C144.199 108.782 148.485 103.866 149.67 98.8255C150.854 93.7846 149.932 88.5236 150.057 83.3464C150.215 77.1526 151.912 71.0112 154.973 65.6244C157.823 60.594 162.696 55.8884 168.46 56.2657C171.877 56.4963 175.545 58.4456 178.459 56.664C180.722 55.2806 181.309 52.0317 180.23 49.6108C179.15 47.1899 176.824 45.534 174.371 44.5489C169.938 42.7778 164.813 42.8721 160.454 44.8004C154.218 47.5567 150.026 53.6771 147.804 60.1119C145.572 66.5572 144.995 73.4217 144 80.1604C143.413 84.1219 142.407 88.4816 139.085 90.7349C134.589 93.7846 128.164 91.4475 123.281 93.837C120.608 95.147 115.368 102.022 120.262 103.521C121.457 103.877 123.27 102.399 124.549 102.315C126.519 102.169 128.605 102.913 130.281 103.898V103.898Z" fill="url(#paint4_linear_358_9515)"/>
<path style="mix-blend-mode:multiply" opacity="0.1" d="M191.653 132.487C191.401 135.589 193.288 139.153 196.39 139.446C198.748 139.666 200.813 138.021 202.605 136.48C207.782 131.995 212.959 127.509 218.136 123.024C221.28 120.299 225.294 117.396 229.224 118.748C231.048 119.377 232.442 120.854 234.118 121.819C235.785 122.793 238.164 123.139 239.463 121.714C240.186 120.907 240.365 119.743 240.428 118.674C240.836 111.936 238.248 105.281 234.412 99.7264C230.576 94.1719 225.556 89.5502 220.526 85.0437C218.88 83.566 217.183 82.0778 215.108 81.3233C213.032 80.5687 210.475 80.7364 208.914 82.2979C206.042 85.1695 208.254 89.9379 210.056 93.585C211.953 97.4312 213.221 101.99 211.586 105.952C209.176 111.8 202.406 109.075 199.555 114.084C196.851 118.842 192.104 127.006 191.643 132.498L191.653 132.487Z" fill="url(#paint5_linear_358_9515)"/>
<path style="mix-blend-mode:multiply" opacity="0.1" d="M-86.2597 247.705C-83.5139 252.338 -80.0974 256.697 -75.5595 259.579C-71.0216 262.461 -65.2156 263.698 -60.1432 261.895C-55.9931 260.428 -52.4927 257.054 -48.1015 256.729C-43.6789 256.414 -39.665 259.317 -36.6887 262.608C-33.7123 265.899 -31.239 269.735 -27.6338 272.292C-23.8714 274.964 -18.9353 276.002 -14.4708 274.849C-9.99573 273.707 -6.11809 270.311 -4.58799 265.972C-2.28236 259.433 -5.25872 251.929 -2.97405 245.389C-0.972345 239.657 5.45199 235.726 11.4152 236.869C19.422 238.399 23.635 246.972 27.2821 254.266C33.0252 265.71 40.9587 276.976 52.7908 281.85C56.7418 283.474 61.4578 284.69 63.3862 288.504C65.8176 293.283 62.3172 298.88 58.6072 302.736C49.9611 311.739 38.4749 318.824 25.9931 319.148C9.01524 319.589 -5.98185 307.547 -15.7284 293.629C-18.6523 289.448 -21.3562 284.962 -25.4015 281.881C-29.3735 278.852 -34.3097 277.437 -39.1305 276.096C-43.4483 274.88 -47.9548 273.665 -52.346 274.555C-57.083 275.52 -60.9921 278.821 -65.4776 280.644C-72.1639 283.348 -80.1812 282.499 -86.1444 278.423C-89.278 276.274 -91.8142 273.361 -94.1512 270.374C-98.1442 265.27 -101.739 259.852 -104.851 254.161C-107.859 248.701 -110.458 242.874 -111.14 236.68C-111.81 230.476 -110.322 223.811 -106.015 219.294C-104.107 217.302 -101.435 215.72 -98.7101 216.139C-93.3757 216.967 -94.56 225.32 -93.6692 229.208C-92.181 235.685 -89.6867 241.952 -86.2911 247.674L-86.2597 247.705Z" fill="url(#paint6_linear_358_9515)"/>
<path style="mix-blend-mode:multiply" opacity="0.1" d="M-65.1109 140.201C-63.7275 139.53 -62.2184 139.006 -60.6987 139.184C-57.0412 139.593 -54.9871 143.617 -54.2849 147.233C-53.5827 150.849 -53.4884 154.841 -51.1304 157.661C-47.8082 161.654 -41.3 161.371 -36.9088 158.593C-32.5177 155.816 -29.688 151.226 -26.7221 146.96C-21.4716 139.404 -15.3826 132.435 -8.60197 126.199C-3.77063 121.766 2.52793 117.438 8.84745 119.167C12.5365 120.173 15.3975 123.097 18.8979 124.627C27.5335 128.442 37.4058 123.16 44.6162 117.061C51.816 110.972 58.8377 103.51 68.165 102.126C77.5343 100.743 87.3542 105.91 96.3461 102.912C102.131 100.984 106.596 95.5554 107.361 89.5083C108.084 83.7967 105.904 77.3409 109.163 72.5934C112.465 67.762 119.319 67.5734 124.999 66.1271C135.353 63.4861 144.083 54.1483 144.544 43.4796C144.995 32.8003 135.898 22.1944 125.208 22.383C121.477 22.4459 117.862 23.6931 114.55 25.3699C102.477 31.4903 93.8623 43.9617 92.4161 57.4182C91.4519 66.3682 93.3383 76.0309 89.1043 83.9748C86.8721 88.1564 83.0259 91.4367 78.5404 92.9877C71.9903 95.241 64.6437 93.7842 58.0307 95.8488C48.41 98.8461 42.6145 108.31 35.488 115.436C33.612 117.312 31.4531 119.136 28.8331 119.576C26.758 119.932 24.6305 119.377 22.7127 118.528C13.3015 114.399 6.67806 103.227 -3.59248 103.625C-12.6264 103.981 -18.4848 113.34 -21.0314 122.007C-23.5781 130.674 -24.8252 140.389 -31.2391 146.761C-33.0626 148.585 -35.6826 150.094 -38.135 149.298C-41.3734 148.239 -42.1384 144.078 -42.348 140.683C-42.5996 136.679 -42.8616 132.666 -43.1131 128.662C-43.4065 124.093 -43.8676 119.104 -47.0641 115.845C-50.03 112.816 -54.7565 112.072 -58.8962 112.963C-63.0358 113.854 -66.7353 116.128 -70.2566 118.496C-77.5927 123.422 -94.057 135.107 -93.2396 145.755C-92.7889 151.551 -86.7943 154.108 -81.8686 152.138C-75.4233 149.57 -71.2942 143.24 -65.0899 140.201L-65.1109 140.201Z" fill="url(#paint7_linear_358_9515)"/>
<path style="mix-blend-mode:multiply" opacity="0.1" d="M-37.2323 35.9842C-59.9113 51.2013 -78.4821 70.2542 -92.6722 91.6966C-91.9491 92.5874 -90.9116 93.2057 -89.8321 93.6144C-85.6086 95.2389 -80.7668 94.2956 -76.7005 92.3044C-72.6342 90.3132 -69.1338 87.3578 -65.4658 84.6958C-60.3829 81.0173 -54.9123 77.8733 -49.1796 75.3266C-44.3588 73.1887 -37.5886 72.0149 -34.7485 76.4689C-33.3022 78.7326 -33.5538 81.6461 -33.8472 84.329C-34.759 92.4931 -35.6603 100.668 -36.572 108.832C-36.8969 111.777 -37.0751 115.162 -34.9895 117.247C-31.7092 120.527 -26.0395 117.792 -22.9688 114.323C-14.9096 105.174 -12.4782 91.6546 -3.05655 83.9308C-0.551794 81.8872 2.77042 80.3047 5.8411 81.3003C9.2681 82.4217 10.9135 86.184 12.4541 89.4434C14.3929 93.5201 16.7719 97.3873 19.5491 100.94C26.183 109.439 32.1672 105.698 35.1645 97.0624C38.0466 88.7307 45.5922 83.5954 54.1126 82.516C60.4216 81.7195 66.8355 79.6863 71.4782 75.1484C76.1104 70.642 76.8755 63.9661 76.865 57.8143C76.8545 49.9018 77.5776 42.681 82.7234 36.2986C87.7015 30.1048 94.9642 24.9381 102.489 22.4019C106.723 20.9766 111.366 20.7565 115.359 18.7338C119.488 16.6378 122.15 12.4458 123.02 7.92882C69.9795 -5.28664 11.7519 3.11844 -37.2218 35.9737L-37.2323 35.9842Z" fill="url(#paint8_linear_358_9515)"/>
<path style="mix-blend-mode:screen" opacity="0.5" d="M216.259 344.209C294.554 265.914 294.554 138.974 216.259 60.679C137.965 -17.6155 11.0242 -17.6155 -67.2703 60.679C-145.565 138.974 -145.565 265.914 -67.2703 344.209C11.0242 422.503 137.965 422.503 216.259 344.209Z" fill="url(#paint9_radial_358_9515)"/>
<g opacity="0.2">
<path d="M-32.1512 210.638C-28.8185 206.11 -28.0954 200.168 -28.3574 194.54C-28.6194 188.933 -29.7512 183.358 -29.6884 177.74C-29.5416 165.395 -23.1592 153.29 -13.0773 146.164C-9.59792 143.711 -5.06003 141.794 -1.16141 143.512C6.37381 146.855 4.09963 159.442 10.7126 164.378C13.5003 166.453 17.336 166.642 20.6897 165.72C24.0433 164.797 27.0302 162.922 30.0065 161.119C45.0979 152.022 61.3945 144.508 78.7497 141.469C84.3461 140.484 90.2149 140.001 95.6331 141.71C101.051 143.418 105.956 147.757 106.878 153.374C107.612 157.818 105.83 162.303 103.64 166.233C100.412 172.039 96.1467 177.374 90.6865 181.157C85.2264 184.94 78.4981 187.099 71.8852 186.397C65.4189 185.716 59.5605 182.436 53.3563 180.549C47.5922 178.788 41.2308 178.254 35.6134 180.455C30.0065 182.645 25.3848 188.001 25.3219 194.016C25.2695 199.183 28.3926 203.941 28.6336 209.108C28.8537 213.75 26.4538 218.477 22.4923 220.887C18.5308 223.298 13.0916 223.161 9.35018 220.405C5.90221 217.858 4.18346 213.541 3.60705 209.296C3.03064 205.052 3.41841 200.744 3.33457 196.468C3.22977 191.312 1.58438 185.139 -3.37273 183.725C-8.07831 182.373 -12.6896 186.334 -15.1105 190.579C-17.8248 195.305 -19.2082 200.797 -19.0405 206.246C-18.8729 211.361 -17.4056 216.349 -17.1227 221.453C-16.8397 226.557 -18.0764 232.195 -22.1217 235.318C-26.6806 238.829 -33.4717 237.949 -38.2821 234.815C-43.1029 231.671 -46.3832 226.714 -49.5377 221.925C-50.4076 220.594 -52.1158 217.46 -49.8731 216.412C-48.7308 215.878 -45.723 217.188 -44.2977 217.104C-39.5921 216.821 -34.9599 214.452 -32.1512 210.638V210.638Z" stroke="#220E6E"/>
<path d="M119.882 156.927C122.544 167.847 120.962 180.015 114.338 189.09C107.715 198.166 95.799 203.501 84.8368 201.027C82.0176 200.388 79.2928 199.277 76.4003 199.088C68.5297 198.575 61.8538 205.041 58.0705 211.968C51.3527 224.262 50.5248 240.055 57.5465 252.191C64.5577 264.317 79.8692 271.6 93.3466 267.744C104.791 264.474 113.018 254.465 118.95 244.132C124.881 233.799 129.388 222.501 137.185 213.509C141.891 208.07 148.881 203.322 155.861 205.083C160.367 206.215 163.763 209.799 167.022 213.1C172.901 219.084 179.252 224.765 186.725 228.569C194.197 232.373 202.969 234.165 211.081 232.069C219.37 229.921 226.256 223.895 230.919 216.716C235.583 209.537 238.214 201.247 240.236 192.937C244.586 175.11 246.147 155.397 237.585 139.163C235.52 135.254 232.198 131.24 227.775 131.24C225.208 131.25 222.86 132.634 220.796 134.153C212.212 140.473 206.113 149.549 198.703 157.21C195.821 160.197 192.635 163.026 188.779 164.577C184.922 166.128 180.279 166.202 176.831 163.886C172.43 160.93 171.088 154.852 172.073 149.633C173.059 144.414 175.909 139.781 178.403 135.107C186.599 119.743 191.514 101.896 188.098 84.8129C187.207 80.3799 185.666 75.8839 182.491 72.6665C179.305 69.4596 174.138 67.8771 170.103 69.9207C165.806 72.1006 164.171 77.3406 163.228 82.0776C160.619 95.2512 159.854 109.347 152.58 120.624C150.809 123.38 148.325 126.094 145.077 126.451C141.608 126.838 138.495 124.459 135.739 122.311C131.463 118.999 126.873 115.897 121.633 114.556C113.112 112.386 98.8487 118.119 103.408 128.882C104.99 132.602 109.193 135.673 111.53 138.953C115.376 144.351 118.331 150.45 119.914 156.895L119.882 156.927Z" stroke="#220E6E"/>
<path d="M10.1155 139.32C10.5872 136.752 13.1757 133.87 15.3451 135.327C16.2569 135.945 16.5923 137.098 16.98 138.136C18.5416 142.359 22.4821 146.195 26.9676 145.776C29.4409 145.545 31.6208 144.099 33.7063 142.747C44.5323 135.715 56.1443 129.93 68.2803 125.507C71.2776 124.417 75.323 123.726 77.0627 126.387C78.3517 128.347 77.419 131.125 75.6688 132.665C73.9081 134.216 71.5711 134.855 69.3283 135.505C58.3975 138.681 47.8964 143.271 38.1499 149.14C32.826 152.347 25.5842 157.136 19.1075 155.124C12.9452 153.217 8.98369 145.419 10.1155 139.32V139.32Z" stroke="#220E6E"/>
<path d="M130.279 103.898C133.119 105.565 135.76 107.933 139.041 108.258C144.197 108.782 148.483 103.867 149.668 98.826C150.852 93.7851 149.93 88.5241 150.055 83.3469C150.213 77.1531 151.91 71.0117 154.971 65.6249C157.821 60.5945 162.694 55.8889 168.459 56.2662C171.875 56.4967 175.543 58.4461 178.457 56.6644C180.72 55.2811 181.307 52.0322 180.228 49.6113C179.148 47.1904 176.822 45.5345 174.369 44.5494C169.936 42.7782 164.811 42.8726 160.452 44.8009C154.216 47.5572 150.024 53.6776 147.802 60.1124C145.57 66.5577 144.993 73.4222 143.998 80.1609C143.411 84.1224 142.405 88.4821 139.083 90.7354C134.587 93.7851 128.162 91.448 123.279 93.8375C120.606 95.1475 115.366 102.022 120.26 103.521C121.455 103.877 123.268 102.4 124.547 102.316C126.517 102.169 128.603 102.913 130.279 103.898V103.898Z" stroke="#220E6E"/>
<path d="M191.651 132.488C191.399 135.59 193.286 139.153 196.388 139.447C198.746 139.667 200.811 138.021 202.603 136.481C207.78 131.995 212.957 127.51 218.134 123.024C221.278 120.299 225.292 117.396 229.222 118.748C231.046 119.377 232.44 120.855 234.117 121.819C235.783 122.794 238.162 123.14 239.461 121.714C240.185 120.907 240.363 119.744 240.426 118.675C240.834 111.936 238.246 105.281 234.41 99.7269C230.574 94.1724 225.554 89.5507 220.524 85.0442C218.878 83.5665 217.181 82.0783 215.106 81.3238C213.03 80.5692 210.473 80.7369 208.912 82.2984C206.04 85.1699 208.252 89.9384 210.054 93.5855C211.951 97.4317 213.219 101.991 211.584 105.952C209.174 111.8 202.404 109.075 199.553 114.085C196.849 118.843 192.102 127.007 191.641 132.498L191.651 132.488Z" stroke="#220E6E"/>
<path d="M-86.2617 247.706C-83.5159 252.338 -80.0993 256.698 -75.5614 259.58C-71.0235 262.462 -65.2175 263.698 -60.1451 261.896C-55.995 260.429 -52.4947 257.054 -48.1035 256.729C-43.6809 256.415 -39.667 259.318 -36.6906 262.609C-33.7142 265.899 -31.2409 269.735 -27.6358 272.292C-23.8734 274.965 -18.9372 276.002 -14.4727 274.849C-9.99769 273.707 -6.12004 270.311 -4.58994 265.973C-2.28431 259.433 -5.26067 251.929 -2.976 245.39C-0.974298 239.657 5.45003 235.727 11.4132 236.869C19.4201 238.399 23.6331 246.972 27.2801 254.266C33.0233 265.711 40.9567 276.977 52.7888 281.85C56.7398 283.474 61.4559 284.69 63.3842 288.505C65.8156 293.284 62.3153 298.88 58.6053 302.737C49.9592 311.739 38.473 318.824 25.9911 319.149C9.01329 319.589 -5.98381 307.547 -15.7303 293.63C-18.6543 289.448 -21.3582 284.963 -25.4035 281.882C-29.3755 278.853 -34.3116 277.438 -39.1325 276.096C-43.4503 274.881 -47.9568 273.665 -52.3479 274.556C-57.085 275.52 -60.994 278.821 -65.4795 280.645C-72.1659 283.349 -80.1832 282.5 -86.1464 278.423C-89.2799 276.275 -91.8161 273.361 -94.1532 270.374C-98.1461 265.27 -101.741 259.852 -104.853 254.162C-107.861 248.701 -110.46 242.874 -111.142 236.681C-111.812 230.476 -110.324 223.811 -106.017 219.294C-104.109 217.303 -101.437 215.72 -98.7121 216.14C-93.3777 216.968 -94.5619 225.32 -93.6711 229.208C-92.1829 235.685 -89.6887 241.952 -86.2931 247.674L-86.2617 247.706Z" stroke="#220E6E"/>
<path d="M-65.1128 140.201C-63.7295 139.531 -62.2203 139.006 -60.7007 139.185C-57.0431 139.593 -54.989 143.618 -54.2869 147.233C-53.5847 150.849 -53.4904 154.842 -51.1323 157.661C-47.8101 161.654 -41.302 161.371 -36.9108 158.594C-32.5196 155.817 -29.69 151.226 -26.7241 146.961C-21.4735 139.405 -15.3846 132.435 -8.60392 126.2C-3.77258 121.767 2.52598 117.438 8.8455 119.168C12.5345 120.174 15.3956 123.098 18.896 124.628C27.5316 128.443 37.4039 123.161 44.6142 117.061C51.8141 110.972 58.8358 103.51 68.1631 102.127C77.5323 100.744 87.3522 105.91 96.3442 102.913C102.129 100.985 106.594 95.5559 107.359 89.5088C108.082 83.7971 105.902 77.3414 109.161 72.5939C112.463 67.7625 119.317 67.5739 124.997 66.1276C135.351 63.4866 144.081 54.1488 144.542 43.48C144.993 32.8008 135.896 22.1949 125.206 22.3835C121.476 22.4464 117.86 23.6936 114.548 25.3704C102.475 31.4908 93.8604 43.9621 92.4141 57.4186C91.4499 66.3687 93.3364 76.0314 89.1024 83.9753C86.8701 88.1569 83.0239 91.4372 78.5384 92.9882C71.9883 95.2414 64.6418 93.7847 58.0288 95.8493C48.408 98.8466 42.6125 108.31 35.486 115.437C33.6101 117.313 31.4512 119.136 28.8311 119.576C26.7561 119.933 24.6286 119.377 22.7107 118.528C13.2996 114.399 6.6761 103.227 -3.59443 103.626C-12.6283 103.982 -18.4867 113.341 -21.0334 122.008C-23.5801 130.675 -24.8272 140.39 -31.241 146.762C-33.0646 148.585 -35.6846 150.094 -38.137 149.298C-41.3753 148.239 -42.1404 144.079 -42.35 140.683C-42.6015 136.68 -42.8635 132.666 -43.115 128.663C-43.4085 124.093 -43.8696 119.105 -47.066 115.845C-50.0319 112.817 -54.7585 112.073 -58.8981 112.963C-63.0378 113.854 -66.7373 116.128 -70.2586 118.497C-77.5947 123.423 -94.059 135.108 -93.2415 145.756C-92.7909 151.551 -86.7962 154.108 -81.8706 152.138C-75.4253 149.57 -71.2961 143.24 -65.0919 140.201L-65.1128 140.201Z" stroke="#220E6E"/>
<path d="M-37.2342 35.9846C-59.9133 51.2018 -78.4841 70.2547 -92.6742 91.6971C-91.951 92.5879 -90.9135 93.2062 -89.834 93.6149C-85.6106 95.2393 -80.7687 94.2961 -76.7024 92.3049C-72.6361 90.3137 -69.1358 87.3583 -65.4677 84.6963C-60.3849 81.0178 -54.9142 77.8738 -49.1816 75.3271C-44.3607 73.1891 -37.5906 72.0154 -34.7504 76.4694C-33.3042 78.7331 -33.5557 81.6466 -33.8492 84.3295C-34.7609 92.4935 -35.6622 100.668 -36.574 108.832C-36.8989 111.777 -37.077 115.162 -34.9915 117.248C-31.7112 120.528 -26.0414 117.793 -22.9708 114.324C-14.9115 105.175 -12.4801 91.6551 -3.0585 83.9313C-0.553747 81.8876 2.76846 80.3052 5.83914 81.3008C9.26615 82.4221 10.9115 86.1845 12.4521 89.4438C14.3909 93.5206 16.7699 97.3878 19.5472 100.941C26.1811 109.44 32.1652 105.699 35.1626 97.0629C38.0446 88.7312 45.5903 83.5959 54.1106 82.5165C60.4197 81.72 66.8335 79.6868 71.4762 75.1489C76.1085 70.6425 76.8735 63.9666 76.863 57.8148C76.8526 49.9023 77.5757 42.6815 82.7214 36.2991C87.6995 30.1053 94.9622 24.9386 102.487 22.4024C106.721 20.9771 111.364 20.757 115.357 18.7343C119.486 16.6383 122.148 12.4462 123.018 7.9293C69.9776 -5.28615 11.7499 3.11892 -37.2237 35.9742L-37.2342 35.9846Z" stroke="#220E6E"/>
</g>
<g opacity="0.5">
<path d="M-121.223 158.941C-227.502 217.41 -293.328 276.612 -280.228 308.681C-262.087 353.065 -99.6234 328.667 82.6576 254.185C264.939 179.702 398.015 83.3479 379.874 38.9646C367.759 9.32672 291.307 10.3643 187.564 36.4912" stroke="url(#paint10_linear_358_9515)" stroke-miterlimit="10"/>
<path d="M-122.188 162.379C-213.784 214.004 -269.706 264.917 -258.377 292.616C-242.059 332.577 -91.942 309.038 76.9035 240.048C245.749 171.057 369.383 82.7406 353.066 42.7799C342.753 17.5437 279.055 17.6276 190.959 38.525" stroke="url(#paint11_linear_358_9515)" stroke-miterlimit="10"/>
<path d="M-123.111 165.86C-198.306 209.447 -243.36 250.98 -234.127 273.585C-219.989 308.201 -83.936 285.355 69.7447 222.558C223.425 159.761 336.548 80.8033 322.4 46.1978C314.162 26.055 264.633 25.3633 194.364 40.6958" stroke="url(#paint12_linear_358_9515)" stroke-miterlimit="10"/>
<path d="M-123.967 169.442C-189.206 207.139 -228.066 241.597 -220.699 259.655C-208.846 288.674 -81.9837 264.287 62.6527 205.189C207.289 146.092 314.92 74.6593 303.067 45.6608C296.622 29.8882 256.158 29.8986 197.333 42.6949" stroke="url(#paint13_linear_358_9515)" stroke-miterlimit="10"/>
</g>
<path d="M502.781 437.137C555.444 437.137 598.136 394.445 598.136 341.782C598.136 289.119 555.444 246.427 502.781 246.427C450.118 246.427 407.426 289.119 407.426 341.782C407.426 394.445 450.118 437.137 502.781 437.137Z" fill="url(#paint14_radial_358_9515)"/>
<path style="mix-blend-mode:multiply" opacity="0.1" d="M446.296 276.951C445.488 277.214 444.69 277.524 443.911 277.871C441.403 278.97 440.436 282.661 442.859 284.464C443.901 285.243 445.291 285.299 446.55 285.619C447.808 285.938 449.16 286.802 449.188 288.089C449.207 289.178 448.296 290.032 447.489 290.765C444.521 293.488 441.995 297.047 441.807 301.067C441.619 305.086 444.559 309.396 448.587 309.556C449.958 309.612 451.452 309.096 452.118 307.903C453.076 306.194 452.043 303.79 453.236 302.24C454.175 301.02 456.034 301.02 457.509 301.48C458.974 301.949 460.354 302.785 461.894 302.879C464.223 303.029 466.317 301.461 467.857 299.696C468.43 299.048 468.984 298.306 469.041 297.442C469.191 295.338 466.655 294.249 464.646 293.648C462.627 293.037 460.204 291.441 460.918 289.45C461.312 288.342 462.533 287.835 463.528 287.215C464.533 286.605 465.5 285.45 465.031 284.379C464.787 283.834 464.223 283.496 463.66 283.29C460.861 282.276 457.621 283.75 454.785 282.811C454.513 282.726 454.231 282.595 454.053 282.379C453.715 281.984 453.771 281.383 453.997 280.914C454.626 279.609 456.222 279.195 457.049 278.012C457.199 277.806 457.33 277.561 457.283 277.308C457.255 277.129 457.142 276.979 457.011 276.848C455.724 275.467 453.574 275.439 451.715 275.683C449.874 275.927 448.071 276.341 446.305 276.923L446.296 276.951Z" fill="url(#paint15_linear_358_9515)"/>
<path style="mix-blend-mode:multiply" opacity="0.1" d="M463.753 309.152C466.391 308.711 468.617 306.936 470.392 304.936C472.167 302.936 473.632 300.663 475.519 298.775C479.67 294.625 485.868 292.615 491.662 293.545C493.672 293.864 495.841 294.719 496.602 296.606C498.057 300.24 493.108 303.781 493.709 307.65C493.972 309.284 495.212 310.617 496.667 311.416C498.114 312.223 499.757 312.571 501.363 312.937C509.523 314.843 517.571 317.707 524.483 322.44C526.718 323.962 528.878 325.746 530.155 328.131C531.432 330.516 531.658 333.615 530.108 335.841C528.878 337.597 526.784 338.527 524.737 339.147C521.713 340.048 518.492 340.452 515.374 339.926C512.256 339.4 509.251 337.898 507.232 335.465C505.26 333.08 504.349 330.028 502.865 327.324C501.485 324.816 499.503 322.515 496.865 321.398C494.226 320.28 490.873 320.572 488.864 322.6C487.126 324.337 486.61 326.995 484.976 328.835C483.511 330.488 481.116 331.305 478.966 330.808C476.815 330.31 475.003 328.46 474.655 326.272C474.336 324.262 475.172 322.224 476.383 320.581C477.595 318.938 479.163 317.613 480.553 316.13C482.224 314.345 483.717 311.688 482.497 309.566C481.342 307.547 478.459 307.368 476.214 307.997C473.716 308.711 471.425 310.12 469.678 312.035C468.035 313.829 466.88 316.017 465.274 317.848C463.668 319.679 461.386 321.191 458.963 320.91C456.24 320.59 454.23 318.036 453.629 315.369C453.028 312.702 453.554 309.922 454.08 307.237C454.221 306.495 454.69 304.861 455.789 305.246C456.362 305.443 456.944 306.889 457.461 307.331C459.16 308.805 461.518 309.528 463.743 309.162L463.753 309.152Z" fill="url(#paint16_linear_358_9515)"/>
<path style="mix-blend-mode:multiply" opacity="0.1" d="M533.349 341.355C530.626 345.956 526.053 349.572 520.784 350.464C515.516 351.356 509.684 349.206 506.773 344.735C506.031 343.58 505.458 342.294 504.548 341.27C502.04 338.481 497.617 338.472 494.02 339.571C487.653 341.524 482.122 346.623 480.498 353.093C478.864 359.554 481.653 367.114 487.522 370.279C492.509 372.974 498.631 372.279 504.078 370.739C509.534 369.189 514.812 366.841 520.456 366.363C523.864 366.071 527.818 366.776 529.612 369.696C530.767 371.584 530.739 373.922 530.748 376.129C530.767 380.111 531.039 384.158 532.316 387.933C533.593 391.708 535.988 395.23 539.453 397.211C542.994 399.23 547.332 399.475 551.295 398.573C555.258 397.672 558.911 395.728 562.367 393.568C569.767 388.947 576.847 382.75 579.317 374.382C579.909 372.363 580.125 369.893 578.604 368.429C577.73 367.574 576.472 367.273 575.251 367.104C570.227 366.4 565.137 367.471 560.075 367.612C558.103 367.668 556.075 367.574 554.253 366.823C552.431 366.071 550.816 364.55 550.412 362.625C549.896 360.155 551.455 357.638 553.521 356.192C555.587 354.746 558.094 354.117 560.498 353.347C568.396 350.84 575.993 346.398 580.5 339.448C581.665 337.645 582.642 335.598 582.623 333.457C582.604 331.297 581.374 329.053 579.317 328.405C577.129 327.719 574.828 328.968 572.941 330.274C567.682 333.898 562.733 338.434 556.516 339.862C555.004 340.209 553.248 340.312 552.028 339.355C550.722 338.331 550.45 336.5 550.224 334.847C549.877 332.302 549.342 329.72 547.999 327.531C545.82 323.963 539.059 321.183 537.04 326.358C536.335 328.151 536.749 330.593 536.458 332.48C535.979 335.589 534.955 338.66 533.349 341.374L533.349 341.355Z" fill="url(#paint17_linear_358_9515)"/>
<path style="mix-blend-mode:multiply" opacity="0.1" d="M501.824 298.898C502.838 298.184 504.679 298.053 504.923 299.274C505.026 299.79 504.763 300.297 504.547 300.776C503.674 302.739 503.749 305.349 505.411 306.692C506.332 307.444 507.552 307.669 508.717 307.894C514.736 309.087 520.615 310.984 526.212 313.501C527.593 314.13 529.198 315.229 528.907 316.722C528.701 317.811 527.461 318.45 526.344 318.403C525.235 318.346 524.221 317.783 523.235 317.266C518.455 314.721 513.356 312.796 508.097 311.557C505.224 310.881 501.157 310.101 499.627 307.275C498.162 304.57 499.401 300.607 501.815 298.907L501.824 298.898Z" fill="url(#paint18_linear_358_9515)"/>
<path style="mix-blend-mode:multiply" opacity="0.1" d="M554.506 326.751C554.929 328.263 555.032 329.944 556.046 331.146C557.633 333.033 560.723 332.78 562.798 331.456C564.874 330.131 566.311 328.037 568.076 326.309C570.189 324.253 572.8 322.731 575.636 321.905C578.274 321.144 581.495 321.154 583.336 323.201C584.416 324.412 585.026 326.3 586.604 326.657C587.825 326.939 589.111 326.028 589.543 324.844C589.985 323.671 589.731 322.328 589.234 321.173C588.313 319.107 586.538 317.426 584.416 316.637C581.383 315.501 577.918 316.205 575.025 317.651C572.123 319.107 569.654 321.257 567.071 323.22C565.559 324.375 563.756 325.521 561.887 325.192C559.352 324.741 557.925 321.811 555.483 321.004C554.14 320.562 550.074 321.173 551.238 323.295C551.52 323.821 552.628 323.915 553.098 324.309C553.821 324.919 554.281 325.868 554.525 326.751L554.506 326.751Z" fill="url(#paint19_linear_358_9515)"/>
<path style="mix-blend-mode:multiply" opacity="0.1" d="M565.906 356.856C564.788 357.823 564.253 359.673 565.211 360.8C565.934 361.655 567.192 361.786 568.31 361.852C571.559 362.04 574.818 362.237 578.067 362.425C580.039 362.537 582.377 362.885 583.26 364.65C583.673 365.477 583.654 366.434 583.899 367.317C584.143 368.2 584.838 369.12 585.749 369.055C586.265 369.026 586.706 368.679 587.082 368.341C589.467 366.181 590.791 363.054 591.327 359.889C591.862 356.724 591.684 353.485 591.477 350.273C591.411 349.231 591.327 348.151 590.867 347.202C590.406 346.254 589.486 345.465 588.434 345.484C586.509 345.512 585.673 347.869 585.082 349.7C584.453 351.644 583.363 353.616 581.495 354.414C578.734 355.597 577.334 352.433 574.696 353.193C572.198 353.926 567.869 355.119 565.887 356.837L565.906 356.856Z" fill="url(#paint20_linear_358_9515)"/>
<path style="mix-blend-mode:multiply" opacity="0.1" d="M433.017 303.809C432.407 306.298 432.134 308.918 432.717 311.416C433.308 313.904 434.867 316.252 437.196 317.323C439.102 318.196 441.413 318.215 443.009 319.567C444.624 320.919 445.019 323.248 444.944 325.352C444.868 327.455 444.427 329.587 444.812 331.662C445.207 333.822 446.54 335.813 448.437 336.902C450.334 337.992 452.785 338.133 454.748 337.165C457.706 335.71 459.18 332.169 462.129 330.686C464.711 329.399 468.205 330.188 469.857 332.573C472.074 335.747 470.665 340.067 469.482 343.767C467.641 349.571 466.599 356.041 469.012 361.628C469.82 363.488 471.012 365.469 470.421 367.413C469.66 369.845 466.608 370.587 464.063 370.672C458.128 370.86 451.865 369.46 447.517 365.432C441.591 359.938 440.483 350.867 441.788 342.894C442.173 340.499 442.755 338.076 442.389 335.682C442.042 333.325 440.83 331.212 439.638 329.155C438.567 327.314 437.44 325.399 435.647 324.244C433.712 323.004 431.28 322.826 429.158 321.962C425.983 320.666 423.532 317.708 422.856 314.346C422.499 312.58 422.612 310.74 422.809 308.946C423.147 305.885 423.72 302.851 424.537 299.874C425.326 297.02 426.378 294.165 428.2 291.836C430.031 289.498 432.754 287.732 435.722 287.619C437.027 287.572 438.473 287.929 439.253 288.972C440.793 291.019 437.619 293.479 436.623 295.095C434.971 297.799 433.75 300.748 432.998 303.828L433.017 303.809Z" fill="url(#paint21_linear_358_9515)"/>
<path style="mix-blend-mode:multiply" opacity="0.1" d="M475.915 274.229C476.61 274.454 477.296 274.783 477.756 275.356C478.864 276.708 478.235 278.765 477.268 280.22C476.3 281.676 475.014 283.075 474.882 284.822C474.694 287.282 476.995 289.358 479.418 289.865C481.841 290.372 484.32 289.752 486.752 289.292C491.053 288.465 495.439 288.118 499.815 288.231C502.933 288.325 506.52 288.944 508.098 291.63C509.018 293.208 509.018 295.142 509.703 296.823C511.384 300.983 516.493 302.467 520.963 302.786C525.442 303.096 530.307 302.89 533.941 305.529C537.594 308.167 539.219 313.191 543.276 315.145C545.886 316.403 549.211 316.046 551.474 314.234C553.615 312.525 555.014 309.604 557.7 309.078C560.423 308.534 562.818 310.74 565.241 312.13C569.645 314.675 575.711 314.393 579.421 310.909C583.121 307.435 583.543 300.796 579.843 297.302C578.557 296.091 576.913 295.311 575.214 294.776C569.082 292.851 562.001 294.241 557.043 298.335C553.737 301.059 551.173 304.975 547.098 306.27C544.947 306.956 542.552 306.796 540.515 305.829C537.538 304.43 535.519 301.491 532.579 299.997C528.307 297.828 523.198 299.124 518.399 299.171C517.141 299.19 515.798 299.086 514.756 298.363C513.929 297.8 513.394 296.908 513.018 295.969C511.187 291.433 512.643 285.432 509.008 282.155C505.816 279.281 500.716 280.511 496.969 282.624C493.223 284.737 489.579 287.63 485.278 287.667C484.048 287.677 482.648 287.329 482.085 286.24C481.343 284.803 482.451 283.131 483.512 281.901C484.752 280.455 486.001 278.999 487.241 277.553C488.659 275.91 490.161 274.051 490.152 271.881C490.142 269.862 488.79 268.04 487.081 266.97C485.372 265.899 483.362 265.449 481.381 265.082C477.239 264.322 467.764 262.829 464.496 266.735C462.731 268.857 463.923 271.722 466.252 272.679C469.304 273.947 472.816 273.158 475.934 274.191L475.915 274.229Z" fill="url(#paint22_linear_358_9515)"/>
<path style="mix-blend-mode:multiply" opacity="0.1" d="M520.024 248C507.252 245.652 494.593 245.972 482.648 248.563C482.601 249.099 482.751 249.662 482.967 250.16C483.869 252.113 485.832 253.4 487.879 254.076C489.926 254.752 492.105 254.902 494.227 255.222C497.176 255.654 500.087 256.405 502.885 257.438C505.242 258.311 507.928 260.152 507.421 262.612C507.158 263.871 506.106 264.772 505.12 265.589C502.097 268.068 499.073 270.547 496.049 273.027C494.969 273.919 493.776 275.017 493.795 276.426C493.823 278.633 496.659 279.591 498.857 279.422C504.641 278.99 509.957 275.177 515.732 275.694C517.253 275.825 518.925 276.388 519.629 277.75C520.418 279.271 519.733 281.103 519.178 282.727C518.484 284.756 518.014 286.859 517.779 288.991C517.206 294.09 520.493 294.804 524.381 292.851C528.128 290.963 532.401 291.724 535.659 294.193C538.073 296.025 540.928 297.452 544.027 297.452C547.097 297.461 549.577 295.433 551.614 293.339C554.234 290.644 556.883 288.428 560.752 287.958C564.499 287.498 568.687 288.155 572.096 289.799C574.011 290.719 575.664 292.184 577.693 292.822C579.796 293.48 582.088 292.935 583.9 291.686C570.218 269.571 547.604 253.099 520.024 248.019L520.024 248Z" fill="url(#paint23_linear_358_9515)"/>
<path style="mix-blend-mode:multiply" opacity="0.1" d="M489.391 264.021C483.569 260.941 476.469 261.11 470.177 263.044C467.351 263.918 464.487 265.129 461.547 264.725C460.918 264.641 460.242 264.434 459.913 263.899C459.547 263.326 459.716 262.556 460.007 261.946C460.693 260.49 461.989 259.401 463.444 258.734C464.9 258.067 466.506 257.795 468.102 257.663C473.004 257.269 477.887 258.208 482.789 258.659C486.311 258.988 489.851 259.053 493.382 258.865C495.27 258.762 497.223 258.593 499.035 259.185C500.838 259.767 502.482 261.354 502.463 263.251C502.454 264.969 501.148 266.387 499.852 267.514C498.519 268.66 497.101 269.702 495.608 270.632C494.518 271.308 492.95 272.088 493.269 270.059C493.485 268.735 493.805 268.228 492.922 266.97C492.039 265.711 490.724 264.753 489.372 264.04L489.391 264.021Z" fill="url(#paint24_linear_358_9515)"/>
<path style="mix-blend-mode:screen" opacity="0.5" d="M502.781 437.137C555.444 437.137 598.136 394.445 598.136 341.782C598.136 289.119 555.444 246.427 502.781 246.427C450.118 246.427 407.426 289.119 407.426 341.782C407.426 394.445 450.118 437.137 502.781 437.137Z" fill="url(#paint25_radial_358_9515)"/>
<g opacity="0.3">
<path d="M446.296 276.951C445.488 277.214 444.69 277.524 443.911 277.871C441.403 278.97 440.436 282.661 442.859 284.464C443.901 285.243 445.291 285.299 446.55 285.619C447.808 285.938 449.16 286.802 449.188 288.089C449.207 289.178 448.296 290.032 447.489 290.765C444.521 293.488 441.995 297.047 441.807 301.067C441.619 305.086 444.559 309.396 448.587 309.556C449.958 309.612 451.452 309.096 452.118 307.903C453.076 306.194 452.043 303.79 453.236 302.24C454.175 301.02 456.034 301.02 457.509 301.48C458.974 301.949 460.354 302.785 461.894 302.879C464.223 303.029 466.317 301.461 467.857 299.696C468.43 299.048 468.984 298.306 469.041 297.442C469.191 295.338 466.655 294.249 464.646 293.648C462.627 293.037 460.204 291.441 460.918 289.45C461.312 288.342 462.533 287.835 463.528 287.215C464.533 286.605 465.5 285.45 465.031 284.379C464.787 283.834 464.223 283.496 463.66 283.29C460.861 282.276 457.621 283.75 454.785 282.811C454.513 282.726 454.231 282.595 454.053 282.379C453.715 281.984 453.771 281.383 453.997 280.914C454.626 279.609 456.222 279.195 457.049 278.012C457.199 277.806 457.33 277.561 457.283 277.308C457.255 277.129 457.142 276.979 457.011 276.848C455.724 275.467 453.574 275.439 451.715 275.683C449.874 275.927 448.071 276.341 446.305 276.923L446.296 276.951Z" stroke="#220E6E" stroke-width="0.5"/>
<path d="M463.753 309.152C466.391 308.711 468.617 306.936 470.392 304.936C472.167 302.936 473.632 300.663 475.519 298.775C479.67 294.625 485.868 292.615 491.662 293.545C493.672 293.864 495.841 294.719 496.602 296.606C498.057 300.24 493.108 303.781 493.709 307.65C493.972 309.284 495.212 310.617 496.667 311.416C498.114 312.223 499.757 312.571 501.363 312.937C509.523 314.843 517.571 317.707 524.483 322.44C526.718 323.962 528.878 325.746 530.155 328.131C531.432 330.516 531.658 333.615 530.108 335.841C528.878 337.597 526.784 338.527 524.737 339.147C521.713 340.048 518.492 340.452 515.374 339.926C512.256 339.4 509.251 337.898 507.232 335.465C505.26 333.08 504.349 330.028 502.865 327.324C501.485 324.816 499.503 322.515 496.865 321.398C494.226 320.28 490.873 320.572 488.864 322.6C487.126 324.337 486.61 326.995 484.976 328.835C483.511 330.488 481.116 331.305 478.966 330.808C476.815 330.31 475.003 328.46 474.655 326.272C474.336 324.262 475.172 322.224 476.383 320.581C477.595 318.938 479.163 317.613 480.553 316.13C482.224 314.345 483.717 311.688 482.497 309.566C481.342 307.547 478.459 307.368 476.214 307.997C473.716 308.711 471.425 310.12 469.678 312.035C468.035 313.829 466.88 316.017 465.274 317.848C463.668 319.679 461.386 321.191 458.963 320.91C456.24 320.59 454.23 318.036 453.629 315.369C453.028 312.702 453.554 309.922 454.08 307.237C454.221 306.495 454.69 304.861 455.789 305.246C456.362 305.443 456.944 306.889 457.461 307.331C459.16 308.805 461.518 309.528 463.743 309.162L463.753 309.152Z" stroke="#220E6E" stroke-width="0.5"/>
<path d="M533.349 341.355C530.626 345.956 526.053 349.572 520.784 350.464C515.516 351.356 509.684 349.206 506.773 344.735C506.031 343.58 505.458 342.294 504.548 341.27C502.04 338.481 497.617 338.472 494.02 339.571C487.653 341.524 482.122 346.623 480.498 353.093C478.864 359.554 481.653 367.114 487.522 370.279C492.509 372.974 498.631 372.279 504.078 370.739C509.534 369.189 514.812 366.841 520.456 366.363C523.864 366.071 527.818 366.776 529.612 369.696C530.767 371.584 530.739 373.922 530.748 376.129C530.767 380.111 531.039 384.158 532.316 387.933C533.593 391.708 535.988 395.23 539.453 397.211C542.994 399.23 547.332 399.475 551.295 398.573C555.258 397.672 558.911 395.728 562.367 393.568C569.767 388.947 576.847 382.75 579.317 374.382C579.909 372.363 580.125 369.893 578.604 368.429C577.73 367.574 576.472 367.273 575.251 367.104C570.227 366.4 565.137 367.471 560.075 367.612C558.103 367.668 556.075 367.574 554.253 366.823C552.431 366.071 550.816 364.55 550.412 362.625C549.896 360.155 551.455 357.638 553.521 356.192C555.587 354.746 558.094 354.117 560.498 353.347C568.396 350.84 575.993 346.398 580.5 339.448C581.665 337.645 582.642 335.598 582.623 333.457C582.604 331.297 581.374 329.053 579.317 328.405C577.129 327.719 574.828 328.968 572.941 330.274C567.682 333.898 562.733 338.434 556.516 339.862C555.004 340.209 553.248 340.312 552.028 339.355C550.722 338.331 550.45 336.5 550.224 334.847C549.877 332.302 549.342 329.72 547.999 327.531C545.82 323.963 539.059 321.183 537.04 326.358C536.335 328.151 536.749 330.593 536.458 332.48C535.979 335.589 534.955 338.66 533.349 341.374L533.349 341.355Z" stroke="#220E6E" stroke-width="0.5"/>
<path d="M501.824 298.898C502.838 298.184 504.679 298.053 504.923 299.274C505.026 299.79 504.763 300.297 504.547 300.776C503.674 302.739 503.749 305.349 505.411 306.692C506.332 307.444 507.552 307.669 508.717 307.894C514.736 309.087 520.615 310.984 526.212 313.501C527.593 314.13 529.198 315.229 528.907 316.722C528.701 317.811 527.461 318.45 526.344 318.403C525.235 318.346 524.221 317.783 523.235 317.266C518.455 314.721 513.356 312.796 508.097 311.557C505.224 310.881 501.157 310.101 499.627 307.275C498.162 304.57 499.401 300.607 501.815 298.907L501.824 298.898Z" stroke="#220E6E" stroke-width="0.5"/>
<path d="M554.506 326.751C554.929 328.263 555.032 329.944 556.046 331.146C557.633 333.033 560.723 332.78 562.798 331.456C564.874 330.131 566.311 328.037 568.076 326.309C570.189 324.253 572.8 322.731 575.636 321.905C578.274 321.144 581.495 321.154 583.336 323.201C584.416 324.412 585.026 326.3 586.604 326.657C587.825 326.939 589.111 326.028 589.543 324.844C589.985 323.671 589.731 322.328 589.234 321.173C588.313 319.107 586.538 317.426 584.416 316.637C581.383 315.501 577.918 316.205 575.025 317.651C572.123 319.107 569.654 321.257 567.071 323.22C565.559 324.375 563.756 325.521 561.887 325.192C559.352 324.741 557.925 321.811 555.483 321.004C554.14 320.562 550.074 321.173 551.238 323.295C551.52 323.821 552.628 323.915 553.098 324.309C553.821 324.919 554.281 325.868 554.525 326.751L554.506 326.751Z" stroke="#220E6E" stroke-width="0.5"/>
<path d="M565.906 356.856C564.788 357.823 564.253 359.673 565.211 360.8C565.934 361.655 567.192 361.786 568.31 361.852C571.559 362.04 574.818 362.237 578.067 362.425C580.039 362.537 582.377 362.885 583.26 364.65C583.673 365.477 583.654 366.434 583.899 367.317C584.143 368.2 584.838 369.12 585.749 369.055C586.265 369.026 586.706 368.679 587.082 368.341C589.467 366.181 590.791 363.054 591.327 359.889C591.862 356.724 591.684 353.485 591.477 350.273C591.411 349.231 591.327 348.151 590.867 347.202C590.406 346.254 589.486 345.465 588.434 345.484C586.509 345.512 585.673 347.869 585.082 349.7C584.453 351.644 583.363 353.616 581.495 354.414C578.734 355.597 577.334 352.433 574.696 353.193C572.198 353.926 567.869 355.119 565.887 356.837L565.906 356.856Z" stroke="#220E6E" stroke-width="0.5"/>
<path d="M433.017 303.809C432.407 306.298 432.134 308.918 432.717 311.416C433.308 313.904 434.867 316.252 437.196 317.323C439.102 318.196 441.413 318.215 443.009 319.567C444.624 320.919 445.019 323.248 444.944 325.352C444.868 327.455 444.427 329.587 444.812 331.662C445.207 333.822 446.54 335.813 448.437 336.902C450.334 337.992 452.785 338.133 454.748 337.165C457.706 335.71 459.18 332.169 462.129 330.686C464.711 329.399 468.205 330.188 469.857 332.573C472.074 335.747 470.665 340.067 469.482 343.767C467.641 349.571 466.599 356.041 469.012 361.628C469.82 363.488 471.012 365.469 470.421 367.413C469.66 369.845 466.608 370.587 464.063 370.672C458.128 370.86 451.865 369.46 447.517 365.432C441.591 359.938 440.483 350.867 441.788 342.894C442.173 340.499 442.755 338.076 442.389 335.682C442.042 333.325 440.83 331.212 439.638 329.155C438.567 327.314 437.44 325.399 435.647 324.244C433.712 323.004 431.28 322.826 429.158 321.962C425.983 320.666 423.532 317.708 422.856 314.346C422.499 312.58 422.612 310.74 422.809 308.946C423.147 305.885 423.72 302.851 424.537 299.874C425.326 297.02 426.378 294.165 428.2 291.836C430.031 289.498 432.754 287.732 435.722 287.619C437.027 287.572 438.473 287.929 439.253 288.972C440.793 291.019 437.619 293.479 436.623 295.095C434.971 297.799 433.75 300.748 432.998 303.828L433.017 303.809Z" stroke="#220E6E" stroke-width="0.5"/>
<path d="M475.915 274.229C476.61 274.454 477.296 274.783 477.756 275.356C478.864 276.708 478.235 278.765 477.268 280.22C476.3 281.676 475.014 283.075 474.882 284.822C474.694 287.282 476.995 289.358 479.418 289.865C481.841 290.372 484.32 289.752 486.752 289.292C491.053 288.465 495.439 288.118 499.815 288.231C502.933 288.325 506.52 288.944 508.098 291.63C509.018 293.208 509.018 295.142 509.703 296.823C511.384 300.983 516.493 302.467 520.963 302.786C525.442 303.096 530.307 302.89 533.941 305.529C537.594 308.167 539.219 313.191 543.276 315.145C545.886 316.403 549.211 316.046 551.474 314.234C553.615 312.525 555.014 309.604 557.7 309.078C560.423 308.534 562.818 310.74 565.241 312.13C569.645 314.675 575.711 314.393 579.421 310.909C583.121 307.435 583.543 300.796 579.843 297.302C578.557 296.091 576.913 295.311 575.214 294.776C569.082 292.851 562.001 294.241 557.043 298.335C553.737 301.059 551.173 304.975 547.098 306.27C544.947 306.956 542.552 306.796 540.515 305.829C537.538 304.43 535.519 301.491 532.579 299.997C528.307 297.828 523.198 299.124 518.399 299.171C517.141 299.19 515.798 299.086 514.756 298.363C513.929 297.8 513.394 296.908 513.018 295.969C511.187 291.433 512.643 285.432 509.008 282.155C505.816 279.281 500.716 280.511 496.969 282.624C493.223 284.737 489.579 287.63 485.278 287.667C484.048 287.677 482.648 287.329 482.085 286.24C481.343 284.803 482.451 283.131 483.512 281.901C484.752 280.455 486.001 278.999 487.241 277.553C488.659 275.91 490.161 274.051 490.152 271.881C490.142 269.862 488.79 268.04 487.081 266.97C485.372 265.899 483.362 265.449 481.381 265.082C477.239 264.322 467.764 262.829 464.496 266.735C462.731 268.857 463.923 271.722 466.252 272.679C469.304 273.947 472.816 273.158 475.934 274.191L475.915 274.229Z" stroke="#220E6E" stroke-width="0.5"/>
<path d="M520.024 248C507.252 245.652 494.593 245.972 482.648 248.563C482.601 249.099 482.751 249.662 482.967 250.16C483.869 252.113 485.832 253.4 487.879 254.076C489.926 254.752 492.105 254.902 494.227 255.222C497.176 255.654 500.087 256.405 502.885 257.438C505.242 258.311 507.928 260.152 507.421 262.612C507.158 263.871 506.106 264.772 505.12 265.589C502.097 268.068 499.073 270.547 496.049 273.027C494.969 273.919 493.776 275.017 493.795 276.426C493.823 278.633 496.659 279.591 498.857 279.422C504.641 278.99 509.957 275.177 515.732 275.694C517.253 275.825 518.925 276.388 519.629 277.75C520.418 279.271 519.733 281.103 519.178 282.727C518.484 284.756 518.014 286.859 517.779 288.991C517.206 294.09 520.493 294.804 524.381 292.851C528.128 290.963 532.401 291.724 535.659 294.193C538.073 296.025 540.928 297.452 544.027 297.452C547.097 297.461 549.577 295.433 551.614 293.339C554.234 290.644 556.883 288.428 560.752 287.958C564.499 287.498 568.687 288.155 572.096 289.799C574.011 290.719 575.664 292.184 577.693 292.822C579.796 293.48 582.088 292.935 583.9 291.686C570.218 269.571 547.604 253.099 520.024 248.019L520.024 248Z" stroke="#220E6E" stroke-width="0.5"/>
<path d="M489.391 264.021C483.569 260.941 476.469 261.11 470.177 263.044C467.351 263.918 464.487 265.129 461.547 264.725C460.918 264.641 460.242 264.434 459.913 263.899C459.547 263.326 459.716 262.556 460.007 261.946C460.693 260.49 461.989 259.401 463.444 258.734C464.9 258.067 466.506 257.795 468.102 257.663C473.004 257.269 477.887 258.208 482.789 258.659C486.311 258.988 489.851 259.053 493.382 258.865C495.27 258.762 497.223 258.593 499.035 259.185C500.838 259.767 502.482 261.354 502.463 263.251C502.454 264.969 501.148 266.387 499.852 267.514C498.519 268.66 497.101 269.702 495.608 270.632C494.518 271.308 492.95 272.088 493.269 270.059C493.485 268.735 493.805 268.228 492.922 266.97C492.039 265.711 490.724 264.753 489.372 264.04L489.391 264.021Z" stroke="#220E6E" stroke-width="0.5"/>
</g>
<g opacity="0.5">
<path d="M450.588 261.975C394.994 246.593 352.914 244.893 346.735 260.163C338.171 281.292 401.587 326.941 488.386 362.109C575.185 397.278 652.491 408.66 661.055 387.53C666.774 373.416 640.405 348.38 596.399 322.837" stroke="url(#paint26_linear_358_9515)" stroke-miterlimit="10"/>
<path d="M449.122 262.82C400.788 249.983 364.849 248.752 359.496 261.937C351.786 280.972 410.704 322.799 491.118 355.376C571.531 387.953 642.939 398.94 650.649 379.905C655.514 367.884 633.793 346.764 596.868 324.621" stroke="url(#paint27_linear_358_9515)" stroke-miterlimit="10"/>
<path d="M447.659 263.702C407.579 253.579 378.449 252.753 374.091 263.514C367.414 279.995 421.318 317.39 494.491 347.046C567.664 376.702 632.404 387.37 639.081 370.889C642.969 361.292 626.329 344.614 597.311 326.508" stroke="url(#paint28_linear_358_9515)" stroke-miterlimit="10"/>
<path d="M446.176 264.643C411.449 255.815 386.76 254.641 383.285 263.243C377.689 277.067 428.972 310.883 497.854 338.783C566.726 366.693 627.09 378.112 632.687 364.288C635.73 356.776 621.944 343.347 597.669 328.162" stroke="url(#paint29_linear_358_9515)" stroke-miterlimit="10"/>
</g>
<path style="mix-blend-mode:lighten" d="M75.9586 497.563L140.207 471.344C140.928 471.048 141.276 470.224 140.98 469.489C140.684 468.768 139.859 468.42 139.124 468.716L74.8889 494.922C74.1671 495.218 73.8192 496.042 74.1156 496.777H74.1027C74.3991 497.498 75.224 497.846 75.9586 497.55V497.563Z" fill="url(#paint30_linear_358_9515)"/>
<path d="M-13.714 437.884L50.534 411.666C51.2557 411.369 51.6037 410.545 51.3073 409.81C51.0108 409.089 50.186 408.741 49.4514 409.037L-14.7967 435.256C-15.5184 435.552 -15.8664 436.377 -15.57 437.111C-15.2735 437.832 -14.4487 438.18 -13.714 437.884Z" fill="url(#paint31_linear_358_9515)"/>
<path style="mix-blend-mode:screen" d="M114.481 428.648L178.729 402.43C179.451 402.133 179.799 401.309 179.503 400.574C179.206 399.853 178.381 399.505 177.647 399.801L113.399 426.02C112.677 426.316 112.329 427.14 112.625 427.875C112.922 428.596 113.747 428.944 114.481 428.648Z" fill="url(#paint32_linear_358_9515)"/>
<path style="mix-blend-mode:screen" d="M742.862 294.962L807.11 268.744C807.832 268.448 808.18 267.623 807.883 266.889C807.587 266.167 806.762 265.819 806.027 266.116L741.779 292.334C741.058 292.63 740.71 293.455 741.006 294.189C741.303 294.911 742.127 295.259 742.862 294.962V294.962Z" fill="url(#paint33_linear_358_9515)"/>
<path d="M393.485 180.855L421.955 169.234C422.677 168.937 423.025 168.113 422.729 167.378C422.432 166.657 421.607 166.309 420.873 166.605L392.403 178.226C391.681 178.523 391.333 179.347 391.629 180.082C391.926 180.803 392.751 181.151 393.485 180.855Z" fill="url(#paint34_linear_358_9515)"/>
<path style="mix-blend-mode:lighten" opacity="0.4" d="M384.907 100.211L449.155 73.9924C449.877 73.696 450.225 72.8715 449.928 72.1371C449.632 71.4156 448.807 71.0678 448.072 71.3641L383.824 97.5824C383.103 97.8787 382.755 98.7032 383.051 99.4376C383.348 100.159 384.172 100.507 384.907 100.211V100.211Z" fill="url(#paint35_linear_358_9515)"/>
<path style="mix-blend-mode:lighten" opacity="0.4" d="M490.436 107.938L554.684 81.7194C555.406 81.4231 555.754 80.5985 555.458 79.8642C555.161 79.1427 554.336 78.7948 553.602 79.0911L489.354 105.309C488.632 105.606 488.284 106.43 488.58 107.165C488.877 107.886 489.702 108.234 490.436 107.938Z" fill="url(#paint36_linear_358_9515)"/>
</g>
<defs>
<radialGradient id="paint0_radial_358_9515" cx="0" cy="0" r="1" gradientUnits="userSpaceOnUse" gradientTransform="translate(41.0445 -0.72728) rotate(-33.87) scale(368.083 368.083)">
<stop stop-color="#FC49EF"/>
<stop offset="0.09" stop-color="#F446E9" stop-opacity="0.96"/>
<stop offset="0.23" stop-color="#DE3FDA" stop-opacity="0.86"/>
<stop offset="0.42" stop-color="#BC34C2" stop-opacity="0.68"/>
<stop offset="0.64" stop-color="#8C25A0" stop-opacity="0.45"/>
<stop offset="0.89" stop-color="#4F1276" stop-opacity="0.15"/>
<stop offset="1" stop-color="#320962" stop-opacity="0"/>
</radialGradient>
<linearGradient id="paint1_linear_358_9515" x1="-35.6496" y1="238.137" x2="79.6634" y2="122.824" gradientUnits="userSpaceOnUse">
<stop stop-color="#FC49EF"/>
<stop offset="0.1" stop-color="#F54EEF"/>
<stop offset="0.24" stop-color="#E25EEF"/>
<stop offset="0.41" stop-color="#C478EF"/>
<stop offset="0.6" stop-color="#999CEF"/>
<stop offset="0.8" stop-color="#63CAEF"/>
<stop offset="1" stop-color="#26FFEF"/>
</linearGradient>
<linearGradient id="paint2_linear_358_9515" x1="70.1351" y1="266.308" x2="223.124" y2="113.318" gradientUnits="userSpaceOnUse">
<stop stop-color="#FC49EF"/>
<stop offset="0.1" stop-color="#F54EEF"/>
<stop offset="0.24" stop-color="#E25EEF"/>
<stop offset="0.41" stop-color="#C478EF"/>
<stop offset="0.6" stop-color="#999CEF"/>
<stop offset="0.8" stop-color="#63CAEF"/>
<stop offset="1" stop-color="#26FFEF"/>
</linearGradient>
<linearGradient id="paint3_linear_358_9515" x1="20.168" y1="157.943" x2="64.457" y2="113.654" gradientUnits="userSpaceOnUse">
<stop stop-color="#FC49EF"/>
<stop offset="0.1" stop-color="#F54EEF"/>
<stop offset="0.24" stop-color="#E25EEF"/>
<stop offset="0.41" stop-color="#C478EF"/>
<stop offset="0.6" stop-color="#999CEF"/>
<stop offset="0.8" stop-color="#63CAEF"/>
<stop offset="1" stop-color="#26FFEF"/>
</linearGradient>
<linearGradient id="paint4_linear_358_9515" x1="121.803" y1="105.648" x2="179.412" y2="48.0388" gradientUnits="userSpaceOnUse">
<stop stop-color="#FC49EF"/>
<stop offset="0.1" stop-color="#F54EEF"/>
<stop offset="0.24" stop-color="#E25EEF"/>
<stop offset="0.41" stop-color="#C478EF"/>
<stop offset="0.6" stop-color="#999CEF"/>
<stop offset="0.8" stop-color="#63CAEF"/>
<stop offset="1" stop-color="#26FFEF"/>
</linearGradient>
<linearGradient id="paint5_linear_358_9515" x1="190.856" y1="135.338" x2="231.058" y2="95.1361" gradientUnits="userSpaceOnUse">
<stop stop-color="#FC49EF"/>
<stop offset="0.1" stop-color="#F54EEF"/>
<stop offset="0.24" stop-color="#E25EEF"/>
<stop offset="0.41" stop-color="#C478EF"/>
<stop offset="0.6" stop-color="#999CEF"/>
<stop offset="0.8" stop-color="#63CAEF"/>
<stop offset="1" stop-color="#26FFEF"/>
</linearGradient>
<linearGradient id="paint6_linear_358_9515" x1="-63.8951" y1="301.259" x2="7.60041" y2="229.763" gradientUnits="userSpaceOnUse">
<stop stop-color="#FC49EF"/>
<stop offset="0.1" stop-color="#F54EEF"/>
<stop offset="0.24" stop-color="#E25EEF"/>
<stop offset="0.41" stop-color="#C478EF"/>
<stop offset="0.6" stop-color="#999CEF"/>
<stop offset="0.8" stop-color="#63CAEF"/>
<stop offset="1" stop-color="#26FFEF"/>
</linearGradient>
<linearGradient id="paint7_linear_358_9515" x1="-59.1267" y1="182.509" x2="116.793" y2="6.58945" gradientUnits="userSpaceOnUse">
<stop stop-color="#FC49EF"/>
<stop offset="0.1" stop-color="#F54EEF"/>
<stop offset="0.24" stop-color="#E25EEF"/>
<stop offset="0.41" stop-color="#C478EF"/>
<stop offset="0.6" stop-color="#999CEF"/>
<stop offset="0.8" stop-color="#63CAEF"/>
<stop offset="1" stop-color="#26FFEF"/>
</linearGradient>
<linearGradient id="paint8_linear_358_9515" x1="-57.2074" y1="127.203" x2="92.5433" y2="-22.5474" gradientUnits="userSpaceOnUse">
<stop stop-color="#FC49EF"/>
<stop offset="0.1" stop-color="#F54EEF"/>
<stop offset="0.24" stop-color="#E25EEF"/>
<stop offset="0.41" stop-color="#C478EF"/>
<stop offset="0.6" stop-color="#999CEF"/>
<stop offset="0.8" stop-color="#63CAEF"/>
<stop offset="1" stop-color="#26FFEF"/>
</linearGradient>
<radialGradient id="paint9_radial_358_9515" cx="0" cy="0" r="1" gradientUnits="userSpaceOnUse" gradientTransform="translate(-10.0884 32.1189) rotate(-28.85) scale(200.812 88.3572)">
<stop stop-color="white"/>
<stop offset="0.12" stop-color="#FEE3FC" stop-opacity="0.85"/>
<stop offset="0.36" stop-color="#FDADF7" stop-opacity="0.55"/>
<stop offset="0.58" stop-color="#FC82F4" stop-opacity="0.32"/>
<stop offset="0.77" stop-color="#FC63F1" stop-opacity="0.14"/>
<stop offset="0.91" stop-color="#FC50EF" stop-opacity="0.04"/>
<stop offset="1" stop-color="#FC49EF" stop-opacity="0"/>
</radialGradient>
<linearGradient id="paint10_linear_358_9515" x1="-413.61" y1="108.518" x2="281.949" y2="-155.813" gradientUnits="userSpaceOnUse">
<stop stop-color="#E6007A"/>
<stop offset="0.21" stop-color="#703AC2"/>
<stop offset="0.46" stop-color="#0070EB"/>
<stop offset="0.77" stop-color="#0297FB"/>
<stop offset="1" stop-color="#0AE2FF"/>
</linearGradient>
<linearGradient id="paint11_linear_358_9515" x1="-380.171" y1="108.859" x2="263.814" y2="-134.021" gradientUnits="userSpaceOnUse">
<stop stop-color="#E6007A"/>
<stop offset="0.21" stop-color="#703AC2"/>
<stop offset="0.46" stop-color="#0070EB"/>
<stop offset="0.77" stop-color="#0297FB"/>
<stop offset="1" stop-color="#0AE2FF"/>
</linearGradient>
<linearGradient id="paint12_linear_358_9515" x1="-342.371" y1="108.788" x2="243.299" y2="-109.329" gradientUnits="userSpaceOnUse">
<stop stop-color="#E6007A"/>
<stop offset="0.21" stop-color="#703AC2"/>
<stop offset="0.46" stop-color="#0070EB"/>
<stop offset="0.77" stop-color="#0297FB"/>
<stop offset="1" stop-color="#0AE2FF"/>
</linearGradient>
<linearGradient id="paint13_linear_358_9515" x1="-317.627" y1="109.209" x2="232.599" y2="-90.3193" gradientUnits="userSpaceOnUse">
<stop stop-color="#E6007A"/>
<stop offset="0.21" stop-color="#703AC2"/>
<stop offset="0.46" stop-color="#0070EB"/>
<stop offset="0.77" stop-color="#0297FB"/>
<stop offset="1" stop-color="#0AE2FF"/>
</linearGradient>
<radialGradient id="paint14_radial_358_9515" cx="0" cy="0" r="1" gradientUnits="userSpaceOnUse" gradientTransform="translate(558.857 261.529) rotate(10.42) scale(198.572)">
<stop stop-color="#26FFEF"/>
<stop offset="0.09" stop-color="#26F5E9" stop-opacity="0.96"/>
<stop offset="0.23" stop-color="#27DBDA" stop-opacity="0.86"/>
<stop offset="0.41" stop-color="#29B2C2" stop-opacity="0.69"/>
<stop offset="0.63" stop-color="#2C78A1" stop-opacity="0.45"/>
<stop offset="0.88" stop-color="#302F78" stop-opacity="0.16"/>
<stop offset="1" stop-color="#320962" stop-opacity="0"/>
</radialGradient>
<linearGradient id="paint15_linear_358_9515" x1="441.619" y1="292.69" x2="469.001" y2="292.346" gradientUnits="userSpaceOnUse">
<stop stop-color="#FC49EF"/>
<stop offset="0.1" stop-color="#F54EEF"/>
<stop offset="0.24" stop-color="#E25EEF"/>
<stop offset="0.41" stop-color="#C478EF"/>
<stop offset="0.6" stop-color="#999CEF"/>
<stop offset="0.8" stop-color="#63CAEF"/>
<stop offset="1" stop-color="#26FFEF"/>
</linearGradient>
<linearGradient id="paint16_linear_358_9515" x1="453.443" y1="317.352" x2="530.996" y2="316.377" gradientUnits="userSpaceOnUse">
<stop stop-color="#FC49EF"/>
<stop offset="0.1" stop-color="#F54EEF"/>
<stop offset="0.24" stop-color="#E25EEF"/>
<stop offset="0.41" stop-color="#C478EF"/>
<stop offset="0.6" stop-color="#999CEF"/>
<stop offset="0.8" stop-color="#63CAEF"/>
<stop offset="1" stop-color="#26FFEF"/>
</linearGradient>
<linearGradient id="paint17_linear_358_9515" x1="480.105" y1="362.069" x2="583.008" y2="360.776" gradientUnits="userSpaceOnUse">
<stop stop-color="#FC49EF"/>
<stop offset="0.1" stop-color="#F54EEF"/>
<stop offset="0.24" stop-color="#E25EEF"/>
<stop offset="0.41" stop-color="#C478EF"/>
<stop offset="0.6" stop-color="#999CEF"/>
<stop offset="0.8" stop-color="#63CAEF"/>
<stop offset="1" stop-color="#26FFEF"/>
</linearGradient>
<linearGradient id="paint18_linear_358_9515" x1="499.076" y1="308.584" x2="528.875" y2="308.209" gradientUnits="userSpaceOnUse">
<stop stop-color="#FC49EF"/>
<stop offset="0.1" stop-color="#F54EEF"/>
<stop offset="0.24" stop-color="#E25EEF"/>
<stop offset="0.41" stop-color="#C478EF"/>
<stop offset="0.6" stop-color="#999CEF"/>
<stop offset="0.8" stop-color="#63CAEF"/>
<stop offset="1" stop-color="#26FFEF"/>
</linearGradient>
<linearGradient id="paint19_linear_358_9515" x1="551.048" y1="324.519" x2="589.798" y2="324.032" gradientUnits="userSpaceOnUse">
<stop stop-color="#FC49EF"/>
<stop offset="0.1" stop-color="#F54EEF"/>
<stop offset="0.24" stop-color="#E25EEF"/>
<stop offset="0.41" stop-color="#C478EF"/>
<stop offset="0.6" stop-color="#999CEF"/>
<stop offset="0.8" stop-color="#63CAEF"/>
<stop offset="1" stop-color="#26FFEF"/>
</linearGradient>
<linearGradient id="paint20_linear_358_9515" x1="564.704" y1="357.55" x2="591.741" y2="357.21" gradientUnits="userSpaceOnUse">
<stop stop-color="#FC49EF"/>
<stop offset="0.1" stop-color="#F54EEF"/>
<stop offset="0.24" stop-color="#E25EEF"/>
<stop offset="0.41" stop-color="#C478EF"/>
<stop offset="0.6" stop-color="#999CEF"/>
<stop offset="0.8" stop-color="#63CAEF"/>
<stop offset="1" stop-color="#26FFEF"/>
</linearGradient>
<linearGradient id="paint21_linear_358_9515" x1="422.862" y1="329.464" x2="470.961" y2="328.859" gradientUnits="userSpaceOnUse">
<stop stop-color="#FC49EF"/>
<stop offset="0.1" stop-color="#F54EEF"/>
<stop offset="0.24" stop-color="#E25EEF"/>
<stop offset="0.41" stop-color="#C478EF"/>
<stop offset="0.6" stop-color="#999CEF"/>
<stop offset="0.8" stop-color="#63CAEF"/>
<stop offset="1" stop-color="#26FFEF"/>
</linearGradient>
<linearGradient id="paint22_linear_358_9515" x1="463.92" y1="290.618" x2="582.241" y2="289.131" gradientUnits="userSpaceOnUse">
<stop stop-color="#FC49EF"/>
<stop offset="0.1" stop-color="#F54EEF"/>
<stop offset="0.24" stop-color="#E25EEF"/>
<stop offset="0.41" stop-color="#C478EF"/>
<stop offset="0.6" stop-color="#999CEF"/>
<stop offset="0.8" stop-color="#63CAEF"/>
<stop offset="1" stop-color="#26FFEF"/>
</linearGradient>
<linearGradient id="paint23_linear_358_9515" x1="482.936" y1="272.422" x2="583.648" y2="271.156" gradientUnits="userSpaceOnUse">
<stop stop-color="#FC49EF"/>
<stop offset="0.1" stop-color="#F54EEF"/>
<stop offset="0.24" stop-color="#E25EEF"/>
<stop offset="0.41" stop-color="#C478EF"/>
<stop offset="0.6" stop-color="#999CEF"/>
<stop offset="0.8" stop-color="#63CAEF"/>
<stop offset="1" stop-color="#26FFEF"/>
</linearGradient>
<linearGradient id="paint24_linear_358_9515" x1="459.743" y1="264.718" x2="502.503" y2="264.18" gradientUnits="userSpaceOnUse">
<stop stop-color="#FC49EF"/>
<stop offset="0.1" stop-color="#F54EEF"/>
<stop offset="0.24" stop-color="#E25EEF"/>
<stop offset="0.41" stop-color="#C478EF"/>
<stop offset="0.6" stop-color="#999CEF"/>
<stop offset="0.8" stop-color="#63CAEF"/>
<stop offset="1" stop-color="#26FFEF"/>
</linearGradient>
<radialGradient id="paint25_radial_358_9515" cx="0" cy="0" r="1" gradientUnits="userSpaceOnUse" gradientTransform="translate(530.555 255.682) rotate(15.44) scale(95.501 42.0204)">
<stop stop-color="white"/>
<stop offset="0.12" stop-color="#DEFFFC" stop-opacity="0.85"/>
<stop offset="0.36" stop-color="#9DFFF7" stop-opacity="0.55"/>
<stop offset="0.58" stop-color="#6AFFF4" stop-opacity="0.32"/>
<stop offset="0.77" stop-color="#45FFF1" stop-opacity="0.14"/>
<stop offset="0.91" stop-color="#2EFFEF" stop-opacity="0.04"/>
<stop offset="1" stop-color="#26FFEF" stop-opacity="0"/>
</radialGradient>
<linearGradient id="paint26_linear_358_9515" x1="535.675" y1="102.928" x2="662.115" y2="433.415" gradientUnits="userSpaceOnUse">
<stop stop-color="#E6007A"/>
<stop offset="0.21" stop-color="#703AC2"/>
<stop offset="0.46" stop-color="#0070EB"/>
<stop offset="0.77" stop-color="#0297FB"/>
<stop offset="1" stop-color="#0AE2FF"/>
</linearGradient>
<linearGradient id="paint27_linear_358_9515" x1="533.737" y1="117.118" x2="649.947" y2="423.096" gradientUnits="userSpaceOnUse">
<stop stop-color="#E6007A"/>
<stop offset="0.21" stop-color="#703AC2"/>
<stop offset="0.46" stop-color="#0070EB"/>
<stop offset="0.77" stop-color="#0297FB"/>
<stop offset="1" stop-color="#0AE2FF"/>
</linearGradient>
<linearGradient id="paint28_linear_358_9515" x1="531.516" y1="132.942" x2="635.9" y2="411.214" gradientUnits="userSpaceOnUse">
<stop stop-color="#E6007A"/>
<stop offset="0.21" stop-color="#703AC2"/>
<stop offset="0.46" stop-color="#0070EB"/>
<stop offset="0.77" stop-color="#0297FB"/>
<stop offset="1" stop-color="#0AE2FF"/>
</linearGradient>
<linearGradient id="paint29_linear_358_9515" x1="529.259" y1="142.68" x2="624.822" y2="404.132" gradientUnits="userSpaceOnUse">
<stop stop-color="#E6007A"/>
<stop offset="0.21" stop-color="#703AC2"/>
<stop offset="0.46" stop-color="#0070EB"/>
<stop offset="0.77" stop-color="#0297FB"/>
<stop offset="1" stop-color="#0AE2FF"/>
</linearGradient>
<linearGradient id="paint30_linear_358_9515" x1="140.724" y1="468.783" x2="100.058" y2="485.392" gradientUnits="userSpaceOnUse">
<stop stop-color="#FFFFE4"/>
<stop offset="0.03" stop-color="#F5F4DE" stop-opacity="0.96"/>
<stop offset="0.31" stop-color="#B1A1B2" stop-opacity="0.62"/>
<stop offset="0.56" stop-color="#7A6090" stop-opacity="0.35"/>
<stop offset="0.76" stop-color="#533177" stop-opacity="0.16"/>
<stop offset="0.91" stop-color="#3B1367" stop-opacity="0.04"/>
<stop offset="1" stop-color="#320962" stop-opacity="0"/>
</linearGradient>
<linearGradient id="paint31_linear_358_9515" x1="57.1101" y1="415.693" x2="-10.2655" y2="443.212" gradientUnits="userSpaceOnUse">
<stop stop-color="#FC49EF"/>
<stop offset="0.09" stop-color="#F446E9" stop-opacity="0.96"/>
<stop offset="0.23" stop-color="#DE3FDA" stop-opacity="0.86"/>
<stop offset="0.42" stop-color="#BC34C2" stop-opacity="0.68"/>
<stop offset="0.64" stop-color="#8C25A0" stop-opacity="0.45"/>
<stop offset="0.89" stop-color="#4F1276" stop-opacity="0.15"/>
<stop offset="1" stop-color="#320962" stop-opacity="0"/>
</linearGradient>
<linearGradient id="paint32_linear_358_9515" x1="179.303" y1="398.785" x2="111.927" y2="426.304" gradientUnits="userSpaceOnUse">
<stop stop-color="#26FFEF"/>
<stop offset="0.1" stop-color="#27DBDA" stop-opacity="0.86"/>
<stop offset="0.29" stop-color="#2A9CB6" stop-opacity="0.6"/>
<stop offset="0.47" stop-color="#2D6798" stop-opacity="0.39"/>
<stop offset="0.63" stop-color="#2F3E80" stop-opacity="0.22"/>
<stop offset="0.78" stop-color="#30216F" stop-opacity="0.1"/>
<stop offset="0.91" stop-color="#310F65" stop-opacity="0.03"/>
<stop offset="1" stop-color="#320962" stop-opacity="0"/>
</linearGradient>
<linearGradient id="paint33_linear_358_9515" x1="813.007" y1="265.789" x2="745.631" y2="293.308" gradientUnits="userSpaceOnUse">
<stop stop-color="#26FFEF"/>
<stop offset="0.1" stop-color="#27DBDA" stop-opacity="0.86"/>
<stop offset="0.29" stop-color="#2A9CB6" stop-opacity="0.6"/>
<stop offset="0.47" stop-color="#2D6798" stop-opacity="0.39"/>
<stop offset="0.63" stop-color="#2F3E80" stop-opacity="0.22"/>
<stop offset="0.78" stop-color="#30216F" stop-opacity="0.1"/>
<stop offset="0.91" stop-color="#310F65" stop-opacity="0.03"/>
<stop offset="1" stop-color="#320962" stop-opacity="0"/>
</linearGradient>
<linearGradient id="paint34_linear_358_9515" x1="420.91" y1="166.732" x2="390.019" y2="179.342" gradientUnits="userSpaceOnUse">
<stop stop-color="#FC49EF"/>
<stop offset="0.09" stop-color="#F446E9" stop-opacity="0.96"/>
<stop offset="0.23" stop-color="#DE3FDA" stop-opacity="0.86"/>
<stop offset="0.42" stop-color="#BC34C2" stop-opacity="0.68"/>
<stop offset="0.64" stop-color="#8C25A0" stop-opacity="0.45"/>
<stop offset="0.89" stop-color="#4F1276" stop-opacity="0.15"/>
<stop offset="1" stop-color="#320962" stop-opacity="0"/>
</linearGradient>
<linearGradient id="paint35_linear_358_9515" x1="454.392" y1="75.9728" x2="413.726" y2="92.5825" gradientUnits="userSpaceOnUse">
<stop stop-color="#FFFFE4"/>
<stop offset="0.03" stop-color="#F5F4DE" stop-opacity="0.96"/>
<stop offset="0.31" stop-color="#B1A1B2" stop-opacity="0.62"/>
<stop offset="0.56" stop-color="#7A6090" stop-opacity="0.35"/>
<stop offset="0.76" stop-color="#533177" stop-opacity="0.16"/>
<stop offset="0.91" stop-color="#3B1367" stop-opacity="0.04"/>
<stop offset="1" stop-color="#320962" stop-opacity="0"/>
</linearGradient>
<linearGradient id="paint36_linear_358_9515" x1="560.486" y1="82.4782" x2="519.82" y2="99.0879" gradientUnits="userSpaceOnUse">
<stop stop-color="#FFFFE4"/>
<stop offset="0.03" stop-color="#F5F4DE" stop-opacity="0.96"/>
<stop offset="0.31" stop-color="#B1A1B2" stop-opacity="0.62"/>
<stop offset="0.56" stop-color="#7A6090" stop-opacity="0.35"/>
<stop offset="0.76" stop-color="#533177" stop-opacity="0.16"/>
<stop offset="0.91" stop-color="#3B1367" stop-opacity="0.04"/>
<stop offset="1" stop-color="#320962" stop-opacity="0"/>
</linearGradient>
<clipPath id="clip0_358_9515">
<rect width="814" height="498" fill="white"/>
</clipPath>
</defs>
</svg>
