<svg width="240" height="210" viewBox="0 0 240 210" fill="none" xmlns="http://www.w3.org/2000/svg">
<g clip-path="url(#clip0_340_2388)">
<path d="M59.2323 50.3433C59.2323 50.3433 66.9119 54.5732 73.2749 54.9023C79.638 55.2437 81.4665 56.7796 84.6481 55.8897C87.8296 54.9999 97.7521 52.0133 97.7521 52.0133L94.4243 44.2606L88.3538 43.7974L80.3572 43.4439L77.0782 43.0538L67.5701 39.921C67.5701 39.921 59.1469 33.497 54.2832 34.972C49.4195 36.4469 50.3946 45.9306 59.2323 50.3433V50.3433Z" fill="url(#paint0_linear_340_2388)" stroke="#29256A" stroke-width="0.5" stroke-linecap="round" stroke-linejoin="round"/>
<g opacity="0.15">
<path d="M59.2337 47.5398C59.2337 47.5398 66.9133 51.7697 73.2764 52.0988C79.6394 52.4401 81.4679 53.976 84.6495 53.0862C87.1971 52.367 94.06 50.3191 96.693 49.5267L97.7535 52.0013C97.7535 52.0013 87.831 54.9878 84.6495 55.8776C81.4679 56.7675 79.6394 55.2316 73.2764 54.8902C66.9133 54.5489 59.2337 50.3313 59.2337 50.3313C53.1022 47.2594 50.7617 41.774 51.5297 38.1902C52.0904 41.4327 54.5528 45.1871 59.2337 47.5276V47.5398Z" fill="#29256A"/>
</g>
<path d="M94.2418 53.915C94.4612 54.232 95.6315 54.171 95.6315 54.171C95.6315 54.171 94.6075 55.7557 95.5583 56.8284C96.5091 57.9011 97.655 57.2794 97.655 57.2794C97.9719 58.4984 99.0324 58.5228 99.4591 58.3765C99.8857 58.2302 101.507 57.511 101.507 57.511C104.457 58.9007 106.188 53.3177 106.188 53.3177L105.944 50.0874C105.591 48.8806 97.6915 45.0286 96.5335 44.5532C94.6807 43.7853 93.291 44.5532 93.291 44.5532L94.4612 47.7713C94.1931 48.6368 94.4978 49.8314 94.6807 50.4287C94.3515 50.3312 93.5714 50.7457 93.5714 50.7457C92.8888 51.5258 94.0224 53.6225 94.2418 53.9272V53.915Z" fill="#29256A" stroke="#29256A" stroke-width="0.5" stroke-linecap="round" stroke-linejoin="round"/>
<path d="M70.8001 40.9817C69.4592 42.8833 67.5454 46.9181 67.9964 53.9273C67.6307 53.8176 67.2772 53.72 66.9237 53.5982C66.558 46.8084 68.3255 42.737 69.7517 40.6282L70.8001 40.9695V40.9817Z" fill="url(#paint1_linear_340_2388)" stroke="#29256A" stroke-width="0.5" stroke-linecap="round" stroke-linejoin="round"/>
<path d="M98.5809 49.8432C98.5809 49.8432 100.251 51.245 100.995 50.7574C101.738 50.282 102.128 49.38 101.177 48.5145C95.3506 43.1388 93.3027 44.5528 93.3027 44.5528L94.473 47.7709L98.5931 49.8432H98.5809Z" fill="#29256A" stroke="#29256A" stroke-width="0.5" stroke-linecap="round" stroke-linejoin="round"/>
<path d="M18.1875 102.516L46.151 86.3765V42.8101L18.1875 58.9494V102.516Z" fill="url(#paint2_linear_340_2388)" stroke="#29256A" stroke-width="0.5" stroke-linecap="round" stroke-linejoin="round"/>
<path d="M34.0099 35.8135L46.1509 42.8104L18.1875 58.9498L6.05859 51.9528L34.0099 35.8135Z" fill="#F5F5F5" stroke="#29256A" stroke-width="0.5" stroke-linecap="round" stroke-linejoin="round"/>
<path d="M18.1875 58.9496V102.516L6.05859 95.5191V51.9526L18.1875 58.9496Z" fill="url(#paint3_linear_340_2388)" stroke="#29256A" stroke-width="0.5" stroke-linecap="round" stroke-linejoin="round"/>
<path d="M18.1875 58.9496L46.151 42.8103L41.7017 26.866L22.2345 38.3366L18.1875 58.9496Z" fill="url(#paint4_linear_340_2388)" stroke="#29256A" stroke-width="0.5" stroke-linecap="round" stroke-linejoin="round"/>
<path opacity="0.5" d="M18.1875 102.516L46.151 86.3765V42.8101L18.1875 58.9494V102.516Z" fill="#29256A" stroke="#29256A" stroke-width="0.5" stroke-linecap="round" stroke-linejoin="round"/>
<path opacity="0.5" d="M18.1875 58.9496L46.151 42.8103L41.7017 26.866L22.2345 38.3366L18.1875 58.9496Z" fill="#29256A" stroke="#29256A" stroke-width="0.5" stroke-linecap="round" stroke-linejoin="round"/>
<path d="M29.5726 19.8567L41.7015 26.8658L22.2343 38.3365L10.1055 31.3273L29.5726 19.8567Z" fill="url(#paint5_linear_340_2388)" stroke="#29256A" stroke-width="0.5" stroke-linecap="round" stroke-linejoin="round"/>
<path d="M22.2345 38.3363L18.1875 58.9493L6.05859 51.9523L10.1056 31.3271L22.2345 38.3363Z" fill="url(#paint6_linear_340_2388)" stroke="#29256A" stroke-width="0.5" stroke-linecap="round" stroke-linejoin="round"/>
<path d="M58.9388 156.48L59.8652 160.564C64.1804 166.196 73.1277 175.692 79.5883 175.289C80.7585 175.216 81.6728 174.972 82.3798 174.607C81.7459 175.789 80.3197 176.057 77.9671 176.204C71.5065 176.606 62.9614 168.268 58.9388 162.417C57.476 160.296 58.634 157.285 58.9266 156.48H58.9388Z" fill="#29256A" stroke="#29256A" stroke-width="0.5" stroke-linecap="round" stroke-linejoin="round"/>
<path d="M61.0714 149.703C61.0714 149.703 58.414 156.931 61.1324 160.491C65.4476 166.122 73.1271 175.704 79.5878 175.301C86.0484 174.899 85 169.328 82.0745 165.525C79.1489 161.722 73.6757 156.627 72.603 149.825C71.7131 144.23 61.0592 149.703 61.0592 149.703H61.0714Z" fill="url(#paint7_linear_340_2388)" stroke="#29256A" stroke-width="0.5" stroke-linecap="round" stroke-linejoin="round"/>
<g opacity="0.15">
<path d="M79.5895 175.301C73.1289 175.704 64.1816 166.208 59.8664 160.576C57.1359 157.017 61.0732 149.703 61.0732 149.703C61.0732 149.703 62.2312 149.105 63.8159 148.508C63.9134 150.519 63.9987 152.226 63.9987 152.226C63.9987 152.226 60.6831 154.81 63.499 159.881C65.3274 163.185 65.7419 163.428 68.5943 166.415C70.3253 168.219 79.5651 175.667 84.2948 172.108C83.9535 173.814 82.5882 175.106 79.6017 175.289L79.5895 175.301Z" fill="#29256A"/>
</g>
<path d="M71.7502 169.036C73.7249 165.635 78.0889 164.465 80.9047 164.062C81.1241 164.318 81.3314 164.574 81.5386 164.83C78.93 165.159 74.371 166.183 72.4816 169.462C72.0305 170.243 71.5064 171.352 71.1285 172.022C70.9091 171.839 70.6896 171.669 70.4824 171.486C70.8481 170.852 71.3479 169.779 71.7624 169.048L71.7502 169.036Z" fill="#1C3B47" stroke="#29256A" stroke-width="0.5" stroke-linecap="round" stroke-linejoin="round"/>
<path d="M39.373 103.126L44.505 84.3044L57.9625 91.8378C62.7288 96.6284 78.283 116.766 81.0013 121.922C81.8302 123.495 82.0131 125.335 81.5011 127.042L73.6996 153.067C73.6996 153.067 67.2999 156.992 60.3761 149.898L63.5333 127.2L39.373 103.126V103.126Z" fill="url(#paint8_linear_340_2388)" stroke="#29256A" stroke-width="0.5" stroke-linecap="round" stroke-linejoin="round"/>
<g opacity="0.15">
<path d="M60.3633 149.898L62.1308 127.481L36.8613 105.332L44.4922 84.3044L48.2101 83.2195L45.0773 101.443L65.032 126.274L62.5819 151.824C61.8505 151.3 61.1191 150.666 60.3633 149.898V149.898Z" fill="#29256A"/>
</g>
<path d="M72.2254 148.63C73.3956 148.581 74.3342 148.459 75.1144 148.301L74.8462 149.203C74.1148 149.337 73.2615 149.434 72.262 149.471C67.191 149.666 62.8027 147.521 60.6816 146.07L60.7548 144.997C62.7052 146.375 67.191 148.837 72.2254 148.654V148.63Z" fill="#1C3B47" stroke="#29256A" stroke-width="0.5" stroke-linecap="round" stroke-linejoin="round"/>
<path d="M11.5069 162.466L11.19 166.647C13.6645 173.303 19.4181 185.005 25.708 186.529C26.8417 186.809 27.7925 186.833 28.5848 186.699C27.634 187.638 26.1835 187.479 23.904 186.931C17.6018 185.407 11.897 174.924 9.77594 168.158C9.00798 165.696 10.9949 163.161 11.5069 162.478V162.466Z" fill="#29256A" stroke="#29256A" stroke-width="0.5" stroke-linecap="round" stroke-linejoin="round"/>
<path d="M15.5427 156.614C15.5427 156.614 10.874 162.734 12.4343 166.939C14.9089 173.595 19.4191 185.004 25.7213 186.528C32.0234 188.052 32.6573 182.408 30.9751 177.922C29.3051 173.424 25.5628 166.939 26.538 160.137C27.3425 154.53 15.5427 156.626 15.5427 156.626V156.614Z" fill="url(#paint9_linear_340_2388)" stroke="#29256A" stroke-width="0.5" stroke-linecap="round" stroke-linejoin="round"/>
<g opacity="0.15">
<path d="M25.7081 186.528C19.4059 185.005 13.6523 173.302 11.19 166.647C9.62967 162.441 15.5417 156.615 15.5417 156.615C15.5417 156.615 16.8217 156.383 18.5161 156.285C18.0163 158.248 17.5896 159.894 17.5896 159.894C17.5896 159.894 13.6645 161.381 14.8591 167.061C15.6393 170.767 16.4804 170.938 17.809 174.814C18.6258 177.179 25.574 186.882 31.1325 184.871C30.3036 186.406 28.6214 187.235 25.7081 186.541V186.528Z" fill="#29256A"/>
</g>
<path d="M21.3307 115.998L18.6977 131.052L14.8457 157.382C14.8457 157.382 19.7704 164.087 26.5236 160.125L46.0517 112.268C46.0517 112.268 48.8431 106.319 50.2693 89.2533L24.5854 88.4731L21.3307 115.998Z" fill="url(#paint10_linear_340_2388)" stroke="#29256A" stroke-width="0.5" stroke-linecap="round" stroke-linejoin="round"/>
<g opacity="0.15">
<path d="M18.7089 131.052L20.5862 114.754L22.8169 91.4228L39.0659 90.728L29.3263 96.0184C27.449 104.588 22.9876 126.883 22.6584 129.979L17.5997 159.881L14.8691 159.491V157.382L18.7211 131.052H18.7089Z" fill="#29256A"/>
</g>
<path d="M20.0651 178.239C22.9541 175.57 27.4766 175.74 30.2802 176.179C30.4143 176.496 30.5362 176.801 30.6581 177.093C28.0739 176.642 23.4173 176.277 20.6381 178.849C19.9798 179.458 19.1509 180.372 18.5902 180.897C18.4317 180.665 18.2854 180.433 18.127 180.19C18.6633 179.69 19.4556 178.812 20.0773 178.239H20.0651Z" fill="#1C3B47" stroke="#29256A" stroke-width="0.5" stroke-linecap="round" stroke-linejoin="round"/>
<path d="M15.469 153.153C16.176 154.067 16.8099 154.749 18.0167 155.664C21.1007 157.992 25.2209 157.651 27.3297 157.261L27.0859 158.15C26.3302 158.272 25.3915 158.382 24.3676 158.382C22.2222 158.382 19.6745 157.943 17.5291 156.322C16.5661 155.591 15.9688 155.103 15.3105 154.359L15.4812 153.153H15.469Z" fill="#1C3B47" stroke="#29256A" stroke-width="0.5" stroke-linecap="round" stroke-linejoin="round"/>
<path d="M23.8673 88.9976V68.5919C23.8673 68.5919 22.4532 52.9279 27.0854 43.493C32.0588 33.3633 45.1751 33.8996 52.5377 34.0093C56.0118 34.0581 58.9374 36.5936 59.5225 40.0189C60.2417 44.1878 60.6927 51.1238 59.6932 62.3141C57.6575 85.1091 57.7306 88.9976 57.7306 88.9976C57.7306 88.9976 49.2465 97.4452 38.7876 96.1531C28.3287 94.8609 24.5133 90.9358 23.8673 88.9976Z" fill="url(#paint11_linear_340_2388)" stroke="#29256A" stroke-width="0.5" stroke-linecap="round" stroke-linejoin="round"/>
<g opacity="0.15">
<path d="M27.0843 43.4932L28.0716 41.7744C40.8344 53.0622 34.5323 73.2485 34.5323 73.2485L27.6572 93.764C25.2924 91.9234 23.4639 88.4858 23.1348 87.5106L23.854 68.6042C23.854 68.6042 22.4399 52.9403 27.0721 43.5054L27.0843 43.4932Z" fill="#29256A"/>
</g>
<path d="M23.7089 65.6908C27.5975 65.0569 35.5452 62.0338 37.2396 59.2667C40.7381 53.5497 38.4586 45.6995 38.3489 45.3582L37.2884 45.3825C37.3128 45.4679 39.3972 53.4156 36.0938 58.8035C34.5335 61.3512 27.2927 64.033 23.6602 64.6181L23.7089 65.6908V65.6908Z" fill="url(#paint12_linear_340_2388)" stroke="#29256A" stroke-width="0.5" stroke-linecap="round" stroke-linejoin="round"/>
<path d="M23.1471 87.4983C26.7065 89.6438 33.6669 91.8379 43.0896 92.1305C50.7936 92.3743 55.4623 88.632 57.7906 86.1575C57.8515 86.3647 57.8637 86.4378 57.9125 86.5719C57.9125 86.5719 57.7906 90.5702 57.4249 92.1305C54.158 94.6294 49.2943 97.1161 42.8702 97.1161C42.6142 97.1161 42.3582 97.1161 42.0901 97.1161C33.3987 96.8479 28.6935 94.3247 24.5002 92.2036C24.2198 90.9846 23.0374 88.9489 22.8789 87.7178C22.8789 87.7178 22.9886 87.6446 23.1349 87.5105L23.1471 87.4983Z" fill="#29256A" stroke="#29256A" stroke-width="0.5" stroke-linecap="round" stroke-linejoin="round"/>
<path d="M22.8921 87.7054C26.4515 89.8387 33.29 92.6789 42.7249 92.9714C50.4289 93.2152 55.5974 89.0463 57.9256 86.5718C58.5351 88.449 58.4254 89.9118 58.145 91.3746C58.0231 91.9963 57.6696 92.5692 57.1455 92.9349C53.903 95.2266 49.3074 97.3476 43.371 97.3476C43.115 97.3476 42.859 97.3476 42.5908 97.3476C33.8995 97.0794 26.8659 94.7999 22.6726 92.6911C22.307 91.1186 22.2826 89.3754 22.9043 87.7298L22.8921 87.7054Z" fill="url(#paint13_linear_340_2388)" stroke="#29256A" stroke-width="0.5" stroke-linecap="round" stroke-linejoin="round"/>
<path d="M53.8182 88.3762C53.5378 88.2177 53.1599 88.2299 52.7333 88.4737L48.6375 90.8385C47.7842 91.3261 47.1016 92.5207 47.1016 93.4959V98.2012C47.1138 98.6887 47.2844 99.0301 47.5648 99.1885L48.3327 99.6396C48.0524 99.4811 47.8817 99.1398 47.8817 98.6522V93.9469C47.8695 92.9839 48.5522 91.7771 49.4054 91.2895L53.5012 88.9247C53.9279 88.6809 54.3057 88.6565 54.5861 88.8272L53.8182 88.3762V88.3762Z" fill="#29256A" stroke="#29256A" stroke-width="0.5" stroke-linecap="round" stroke-linejoin="round"/>
<path d="M49.3933 91.2896C48.5401 91.7772 47.8574 92.9718 47.8574 93.947V98.6523C47.8696 99.6152 48.5644 100.018 49.4177 99.5299L53.5135 97.1651C54.3546 96.6775 55.0372 95.4829 55.0372 94.5077V89.8024C55.025 88.8394 54.3302 88.4372 53.4891 88.9248L49.3933 91.2896Z" fill="url(#paint14_linear_340_2388)" stroke="#29256A" stroke-width="0.5" stroke-linecap="round" stroke-linejoin="round"/>
<path d="M43.1387 83.646L56.9741 78.0508L59.3146 61.3142L45.4913 66.9093L43.1387 83.646Z" fill="white" stroke="#29256A" stroke-width="0.5" stroke-linecap="round" stroke-linejoin="round"/>
<path d="M55.585 58.4009L59.3151 61.3142L45.4918 66.9094L41.7617 63.996L55.585 58.4009Z" fill="white" stroke="#29256A" stroke-width="0.5" stroke-linecap="round" stroke-linejoin="round"/>
<path d="M45.4924 66.9095L43.1398 83.6461L39.4219 80.7327L41.7623 63.9961L45.4924 66.9095Z" fill="url(#paint15_linear_340_2388)" stroke="#29256A" stroke-width="0.5" stroke-linecap="round" stroke-linejoin="round"/>
<path d="M53.0869 69.4086C53.0869 68.1774 54.0864 66.6049 55.3054 65.8979C55.9759 65.5078 56.5732 65.4712 56.9754 65.7029L57.5971 66.0564L57.4265 66.3002C57.4752 66.4586 57.5118 66.6293 57.5118 66.8365C57.5118 68.0677 56.5122 69.6402 55.2932 70.3472C54.9763 70.53 54.6716 70.6397 54.3912 70.6763L54.2327 70.9079L53.611 70.5544C53.2697 70.3472 53.0625 69.9693 53.0625 69.4086H53.0869Z" fill="#BACFD6" stroke="#29256A" stroke-width="0.5" stroke-linecap="round" stroke-linejoin="round"/>
<path d="M53.709 69.7622C53.709 70.9933 54.7085 71.4078 55.9275 70.7008C57.1587 69.9938 58.1461 68.4213 58.1461 67.1901C58.1461 65.9589 57.1465 65.5445 55.9275 66.2515C54.6964 66.9585 53.709 68.531 53.709 69.7622Z" fill="#F5F5F5" stroke="#29256A" stroke-width="0.5" stroke-linecap="round" stroke-linejoin="round"/>
<path d="M52.0869 76.1251C52.0869 74.8939 53.0864 73.3215 54.3054 72.6144C54.9759 72.2244 55.5732 72.1878 55.9754 72.4194L56.5971 72.7729L56.4265 73.0167C56.4752 73.1752 56.5118 73.3458 56.5118 73.5531C56.5118 74.7842 55.5122 76.3567 54.2932 77.0637C53.9763 77.2466 53.6716 77.3563 53.3912 77.3929L53.2327 77.6245L52.611 77.271C52.2697 77.0637 52.0625 76.6858 52.0625 76.1251H52.0869Z" fill="#BACFD6" stroke="#29256A" stroke-width="0.5" stroke-linecap="round" stroke-linejoin="round"/>
<path d="M52.709 76.4787C52.709 77.7099 53.7085 78.1243 54.9275 77.4173C56.1587 76.7103 57.1461 75.1378 57.1461 73.9067C57.1461 72.6755 56.1465 72.261 54.9275 72.968C53.6964 73.6751 52.709 75.2475 52.709 76.4787Z" fill="#F5F5F5" stroke="#29256A" stroke-width="0.5" stroke-linecap="round" stroke-linejoin="round"/>
<path d="M57.2321 16.6874V32.9365L56.1716 36.5203C56.1716 36.5203 52.7828 27.2926 40.4102 29.9621L41.2269 11.4458L54.526 13.384L57.2199 16.6874H57.2321Z" fill="#BACFD6" stroke="#29256A" stroke-width="0.5" stroke-linecap="round" stroke-linejoin="round"/>
<path d="M44.8713 39.2999L43.2379 43.4932C43.2379 43.4932 43.2013 45.919 39.9832 44.7366C36.7651 43.5541 30.5117 36.289 30.5117 36.289L34.7294 28.6338L45.6027 36.5572L44.8835 39.3121L44.8713 39.2999Z" fill="#FFD8CC" stroke="#29256A" stroke-width="0.5" stroke-linecap="round" stroke-linejoin="round"/>
<g opacity="0.15">
<path d="M37.3751 33.8876L38.9841 31.73L45.6032 36.5572L44.884 39.3121L43.2506 43.5054C43.2506 43.5054 43.2506 43.8589 43.0555 44.2367C36.2536 42.5545 37.3873 33.912 37.3873 33.912L37.3751 33.8876Z" fill="#29256A"/>
</g>
<path d="M54.0626 23.6722C54.0626 23.6722 54.3673 28.8285 54.0626 31.0226C53.7578 33.229 52.4535 36.4593 52.4047 37.5076C52.356 38.556 52.0756 40.1284 51.0882 40.5185C50.0887 40.9086 46.0295 40.933 43.0673 39.1654C40.1052 37.3979 37.3991 34.5577 36.6799 33.3021C35.9607 32.0466 33.3398 28.5969 32.7669 26.0248C32.194 23.4528 32.4622 17.8576 35.7778 16.468C39.0934 15.0662 46.2976 14.4567 49.8814 17.8698C53.4652 21.2708 53.4896 22.4044 54.0747 23.6722H54.0626Z" fill="#FFD8CC" stroke="#29256A" stroke-width="0.5" stroke-linecap="round" stroke-linejoin="round"/>
<path d="M53.9054 38.1538C53.9054 38.1538 53.8931 38.1784 53.8809 38.1906C53.8809 38.1906 53.8931 38.1661 53.9054 38.1538Z" fill="#C4CBEB" stroke="#29256A" stroke-width="0.5" stroke-linecap="round" stroke-linejoin="round"/>
<path d="M45.6032 24.1111C45.6032 24.1111 51.625 24.5865 52.9659 24.3062C55.3551 23.8186 56.4643 21.0637 56.1108 18.3453C55.7451 15.627 53.1609 12.482 51.6981 11.5312C50.2232 10.5804 45.8714 8.52033 42.763 8.61785C39.6546 8.71536 34.7665 10.2513 32.7186 12.543C30.5366 14.9809 30.0612 16.8947 29.7442 19.5521C29.4151 22.2095 30.8291 27.9265 31.5118 28.7798C32.1944 29.6331 36.3877 32.7903 36.3877 32.7903L39.0451 34.0458C39.0451 34.0458 38.655 29.6209 38.8135 27.6584C38.9719 25.6958 43.8844 27.4755 45.6276 24.0867L45.6032 24.1111Z" fill="#29256A" stroke="#29256A" stroke-width="0.5" stroke-linecap="round" stroke-linejoin="round"/>
<path d="M36.9598 33.7531C36.9598 33.7531 36.5088 29.5963 34.4 28.0604C33.0957 27.1096 32.6812 28.0848 32.5227 28.4139C32.3643 28.743 32.0717 30.9372 33.7783 32.144C35.4849 33.3508 36.9598 33.7652 36.9598 33.7652V33.7531Z" fill="#FFD8CC" stroke="#29256A" stroke-width="0.5" stroke-linecap="round" stroke-linejoin="round"/>
<path d="M28.8423 35.3866L29.2445 40.2382C29.2445 40.2382 34.5593 46.2965 43.2141 46.1625C58.8171 45.9187 57.6712 37.0567 58.0491 33.6069L56.7082 35.4598L54.3434 38.1903L51.43 40.2016L47.0904 41.3231L40.9833 41.5059L28.8301 35.3866H28.8423Z" fill="#CEE0E8" stroke="#29256A" stroke-width="0.5" stroke-linecap="round" stroke-linejoin="round"/>
<path d="M28.9766 40.5553C29.0741 40.4334 29.2082 39.6289 29.2082 39.6289C29.2569 39.6898 34.7545 45.736 42.9583 45.736C43.0436 45.736 43.1411 45.736 43.2265 45.736C55.5626 45.5531 56.9522 39.8849 57.9396 35.4478C58.0249 35.7525 58.1224 36.3498 58.22 36.8496C57.6836 40.9697 55.5016 46.3942 43.2387 46.5771C43.1411 46.5771 43.0436 46.5771 42.9461 46.5771C34.6814 46.5771 29.5495 41.177 28.9766 40.5553V40.5553Z" fill="url(#paint16_linear_340_2388)" stroke="#29256A" stroke-width="0.5" stroke-linecap="round" stroke-linejoin="round"/>
<path d="M29.6339 28.4019L28.8416 35.3867C28.8416 35.3867 31.889 40.9696 41.2264 41.8595C50.5639 42.7494 56.7929 38.2391 58.0606 33.607V18.9426C58.0606 17.1995 57.5121 15.4807 56.415 14.1033C54.2208 11.3606 49.6618 6.41149 40.4707 7.05755C22.9417 8.27653 29.6461 28.3897 29.6461 28.3897L29.6339 28.4019ZM35.741 25.2326C36.509 22.9287 43.5669 17.0044 50.6492 15.8464C56.9391 14.8225 56.6588 20.6736 56.6588 20.6736L56.7075 32.7781C56.7075 32.7781 56.7075 41.0794 44.4446 41.0794C35.997 41.0794 35.3144 36.045 35.3144 36.045C35.3144 36.045 34.9731 27.5243 35.741 25.2326V25.2326Z" fill="#CEE0E8" stroke="#29256A" stroke-width="0.5" stroke-linecap="round" stroke-linejoin="round"/>
<g opacity="0.3">
<path d="M50.1018 16.7972C46.0426 17.4554 42.0199 19.9056 39.5454 22.0754C37.851 23.5626 37.8632 26.1956 39.4844 27.7559C40.8253 29.0602 42.7391 30.0963 45.3843 29.95C50.4431 29.6697 55.1971 28.4141 55.38 24.0623V21.0027C55.38 21.0027 55.6116 15.8952 50.114 16.785L50.1018 16.7972Z" fill="#CADDFF"/>
</g>
<g opacity="0.15">
<path d="M40.4717 7.07011C41.7638 6.98478 42.9462 7.00916 44.0677 7.11887C19.0054 8.02092 31.695 31.1572 31.695 31.1572L32.0851 39.1781C29.7568 37.5325 28.8548 35.3871 28.8548 35.3871L28.4769 27.9757C28.4769 27.9757 22.9305 8.28909 40.4717 7.07011Z" fill="#29256A"/>
</g>
<path d="M34.3017 75.0525C43.2856 75.0525 49.2221 69.7621 49.3074 69.6768C49.8803 69.1526 49.9169 68.2749 49.3927 67.702C48.8686 67.1291 47.9909 67.0925 47.418 67.6167C46.8938 68.0921 34.9965 78.5388 19.357 66.6415C18.7475 66.1783 17.8698 66.288 17.3944 66.9097C16.9312 67.5192 17.0409 68.3968 17.6626 68.8722C23.7941 73.5287 29.4745 75.0525 34.2895 75.0525H34.3017Z" fill="white" stroke="#29256A" stroke-width="0.5" stroke-linecap="round" stroke-linejoin="round"/>
<path d="M34.3017 82.4639C43.2856 82.4639 49.2221 77.1735 49.3074 77.0882C49.8803 76.564 49.9169 75.6863 49.3927 75.1134C48.8686 74.5405 47.9909 74.5039 47.418 75.0281C46.8938 75.5035 34.9965 85.9502 19.357 74.0529C18.7475 73.5897 17.8698 73.7116 17.3944 74.3211C16.9312 74.9306 17.0409 75.8082 17.6626 76.2836C23.7941 80.9401 29.4745 82.4639 34.2895 82.4639H34.3017Z" fill="white" stroke="#29256A" stroke-width="0.5" stroke-linecap="round" stroke-linejoin="round"/>
<path d="M13.3843 39.1535L13.811 37.8004C13.811 37.8004 18.3578 34.302 19.7718 31.1448L21.3809 29.3163C21.3809 29.3163 24.343 27.7926 23.2093 25.4643C22.6974 24.4038 20.9908 24.8183 19.5158 27.2684L17.5898 29.2919L16.8828 29.231L16.5903 24.928L17.4314 18.3455C17.4314 18.3455 17.8214 16.578 17.0169 16.261C16.2124 15.9441 15.4932 16.261 15.2128 17.992C14.9324 19.7107 13.8841 24.2697 13.8841 24.2697L14.4083 17.5653C14.4083 17.5653 14.6277 15.4199 13.5672 15.4199C12.5067 15.4199 12.1532 15.9075 11.9947 17.029C11.8362 18.1504 11.3852 21.1491 11.3852 21.1491L10.1297 26.6711L7.53322 29.2798L6.57022 35.911L5.81445 37.8004L6.82621 43.7003L11.1536 42.1888L13.3721 39.1413L13.3843 39.1535Z" fill="#29256A" stroke="#29256A" stroke-width="0.5" stroke-linecap="round" stroke-linejoin="round"/>
<path d="M10.1311 26.671L13.2639 29.6575C13.6296 30.0841 13.788 30.657 13.6905 31.2178L13.1298 34.3262C13.1298 34.3262 12.8982 35.4233 12.0571 35.5939C11.216 35.7646 10.8869 35.0332 11.0331 34.3749C11.1794 33.7167 11.5817 31.4738 11.5817 31.4738L9.81416 29.2796L8.89992 28.0119C8.89992 28.0119 8.74145 26.5369 10.1433 26.671H10.1311Z" fill="#3B3B89" stroke="#29256A" stroke-width="0.5" stroke-linecap="round" stroke-linejoin="round"/>
<path d="M9.03357 27.9633C9.03357 27.9633 8.53379 27.6097 7.87554 28.0242C7.21729 28.4265 7.43671 29.2432 7.63174 29.4626C7.82678 29.682 8.997 31.5836 8.997 31.5836L9.39927 33.6559C9.39927 33.6559 9.4846 34.8627 10.5695 34.8505C11.6544 34.8505 11.1058 32.7782 11.0693 32.3272C11.0205 31.8762 10.5939 30.2915 10.5939 30.2915C10.5939 30.2915 9.54555 28.3411 9.04576 27.9633H9.03357Z" fill="#3B3B89" stroke="#29256A" stroke-width="0.5" stroke-linecap="round" stroke-linejoin="round"/>
<path d="M27.9417 42.0667C27.9417 42.0667 22.115 45.9553 17.8851 51.8552L12.1437 55.7315C12.1437 55.7315 12.5826 41.2744 13.3993 39.1534C13.3993 39.1534 9.25474 40.6527 5.8294 37.8003C5.8294 37.8003 -0.826248 52.6841 0.100179 64.9836C1.01442 77.271 10.5103 71.8099 10.5103 71.8099L29.051 61.1682C30.8551 60.1321 32.3423 58.5961 33.2443 56.7311C35.4385 52.2087 37.8765 44.0171 27.9539 42.0667H27.9417Z" fill="url(#paint17_linear_340_2388)" stroke="#29256A" stroke-width="0.5" stroke-linecap="round" stroke-linejoin="round"/>
<g opacity="0.15">
<path d="M5.8278 37.8125C5.90094 37.8734 5.96189 37.91 6.03503 37.9709C4.16998 42.92 0.81778 53.2448 1.48822 62.1921C2.40246 74.4795 11.8983 69.0184 11.8983 69.0184L30.4391 58.3767C31.8653 57.56 33.0721 56.4263 33.9741 55.0611C33.7425 55.6584 33.4865 56.2191 33.2427 56.7311C32.3285 58.6083 30.8535 60.1321 29.0494 61.1682L10.5087 71.8099C10.5087 71.8099 1.00063 77.271 0.0863902 64.9836C-0.827847 52.6963 5.81561 37.8003 5.81561 37.8003L5.8278 37.8125Z" fill="#29256A"/>
</g>
<path d="M24.1972 63.9474C23.5511 56.6335 19.5651 53.5129 17.2246 52.2939L17.8829 51.8551C17.9438 51.7698 18.0048 51.6844 18.0779 51.5991C20.6012 53.0497 24.4044 56.3897 25.1968 63.3745L24.2094 63.9352L24.1972 63.9474Z" fill="url(#paint18_linear_340_2388)" stroke="#29256A" stroke-width="0.5" stroke-linecap="round" stroke-linejoin="round"/>
<path d="M115.262 103.691L110.896 105.542L118.779 124.139L123.145 122.288L115.262 103.691Z" fill="#BACFD6" stroke="#29256A" stroke-width="0.5" stroke-linecap="round" stroke-linejoin="round"/>
<path d="M110.902 105.539L118.009 97.7007L115.266 103.686L110.902 105.539Z" fill="#EBF3F6" stroke="#29256A" stroke-width="0.5" stroke-linecap="round" stroke-linejoin="round"/>
<path d="M215.077 157.346C215.077 157.346 216.833 156.626 217.515 156.188C219.429 154.969 221.538 153.993 224.317 155.761C227.097 157.528 237.165 167.451 238.787 171.754C240.396 176.057 239.835 183.98 233.521 182.81C228.571 181.896 223.732 178.629 220.173 174.314C218.149 171.864 215.528 169.986 212.481 169.109L212.127 169.011L206.557 163.892L209.153 159.649L215.065 157.346H215.077Z" fill="url(#paint19_linear_340_2388)" stroke="#29256A" stroke-width="0.5" stroke-linecap="round" stroke-linejoin="round"/>
<path d="M238.787 171.754C237.178 167.451 227.097 157.528 224.318 155.761C224.074 155.615 223.842 155.481 223.623 155.371C222.855 154.993 221.953 155.005 221.209 155.42C219.746 156.236 218.54 157.553 218.82 159.649C219.49 164.513 225.634 165.854 226.938 169.67C227.877 172.437 229.962 178.361 233.948 181.908C234.85 182.7 236.203 182.883 237.19 182.201C239.969 180.287 240.006 175.009 238.787 171.766V171.754Z" fill="#29256A" stroke="#29256A" stroke-width="0.5" stroke-linecap="round" stroke-linejoin="round"/>
<path d="M159.626 120.215C159.626 120.215 167.5 124.933 173.01 135.306C173.01 135.306 186.516 146.582 193.757 161.161C193.757 161.161 198.06 156.029 205.447 156.297C212.834 156.565 213.736 157.894 213.736 157.894C213.736 157.894 211.274 161.587 212.871 168.731C212.871 168.731 199.962 177.544 194.196 177.239C188.43 176.934 179.044 170.303 175.692 166.658C172.34 163.014 150.13 146.143 150.13 146.143C150.13 146.143 143.706 137.013 146.997 129.662C150.288 122.312 155.505 119.008 159.626 120.215Z" fill="url(#paint20_linear_340_2388)" stroke="#29256A" stroke-width="0.5" stroke-linecap="round" stroke-linejoin="round"/>
<g opacity="0.15">
<path d="M205.422 156.297C198.035 156.029 193.732 161.161 193.732 161.161C186.503 146.57 172.985 135.306 172.985 135.306C167.487 124.933 159.6 120.215 159.6 120.215C155.492 119.021 150.263 122.312 146.971 129.662C146.533 130.662 146.277 131.686 146.143 132.71C149.544 126.347 155.358 124.933 159.247 126.066C159.247 126.066 166.073 129.138 171.571 139.512C171.571 139.512 185.077 150.787 192.318 165.366C192.318 165.366 196.621 160.234 204.008 160.503C211.395 160.771 213.126 161.429 213.126 161.429L213.711 157.882C213.711 157.882 212.797 156.553 205.422 156.285V156.297Z" fill="#29256A"/>
</g>
<g opacity="0.15">
<path d="M156.298 136.099L166.098 158.54L149.045 145.046L156.298 136.099Z" fill="#29256A"/>
</g>
<path d="M204.473 156.31C204.156 156.31 203.851 156.334 203.546 156.358C202.754 159.333 201.742 165.83 205.021 173.253C205.277 173.107 205.533 172.973 205.789 172.827C202.535 165.415 203.717 158.991 204.473 156.31Z" fill="#1C3B47" stroke="#29256A" stroke-width="0.5" stroke-linecap="round" stroke-linejoin="round"/>
<path d="M168.84 59.2418C168.84 59.2418 165.927 56.4138 164.891 54.4146C163.867 52.4155 164.025 49.88 162.867 48.4904C162.867 48.4904 162.867 46.2962 165.305 48.4538C165.305 48.4538 166.585 51.0502 167.28 51.355C167.28 51.355 168.414 48.2344 168.279 47.2226C168.145 46.2109 168.316 41.9322 168.999 41.274C169.681 40.6157 170.266 41.079 170.205 42.5417C170.145 44.0045 170.474 47.7346 170.474 47.7346L171.229 42.883C171.229 42.883 171.083 40.0916 171.534 39.6771C171.985 39.2749 172.875 39.5308 172.912 40.5304C172.948 41.53 172.814 44.7237 172.814 44.7237L172.692 47.0763C172.692 47.0763 173.716 41.6397 173.826 40.8961C173.936 40.1525 175.35 39.5796 175.191 41.786C175.033 43.9801 174.448 48.015 174.448 48.015C174.448 48.015 175.423 43.2975 175.971 42.8465C176.52 42.4076 177.202 42.4564 176.788 44.5287C176.374 46.6009 174.472 58.9614 174.472 58.9614L168.84 59.2662V59.2418Z" fill="#29256A" stroke="#29256A" stroke-width="0.5" stroke-linecap="round" stroke-linejoin="round"/>
<path d="M145.582 71.0169C145.582 71.0169 151.018 71.5777 156.174 74.1497L165.963 74.5886L167.474 57.8275C167.474 57.8275 173.46 55.1336 174.91 58.8393C174.91 58.8393 176.178 74.5398 174.447 79.4523C172.704 84.3648 172.728 85.6447 169.864 87.0709C166.999 88.4971 147.8 85.5472 144.679 85.2181C144.679 85.2181 131.551 72.2359 145.569 71.0169H145.582Z" fill="url(#paint21_linear_340_2388)" stroke="#29256A" stroke-width="0.5" stroke-linecap="round" stroke-linejoin="round"/>
<g opacity="0.15">
<path d="M174.447 79.4524C176.19 74.5399 174.91 58.8394 174.91 58.8394C174.691 57.7667 174.337 58.0958 173.898 57.4741C174.02 58.9857 175.068 72.175 173.423 76.8316C171.68 81.7441 171.704 83.024 168.839 84.4502C166.146 85.7911 157.674 82.122 153.054 81.549C153.115 83.0606 144.691 85.2182 144.691 85.2182C147.8 85.5473 167.011 88.485 169.876 87.071C172.74 85.6448 172.716 84.3771 174.459 79.4524H174.447Z" fill="#29256A"/>
</g>
<path d="M120.947 82.2803C120.947 82.2803 108.428 87.656 114.425 102.771C120.423 117.887 127.529 131.881 132.393 138.207C137.257 144.546 162.929 133.356 159.637 120.215C159.637 120.215 157.687 114.961 154.274 104.831C150.58 93.8484 159.32 75.5149 143.632 70.5171L136.148 71.5167L120.959 82.2803H120.947Z" fill="url(#paint22_linear_340_2388)" stroke="#29256A" stroke-width="0.5" stroke-linecap="round" stroke-linejoin="round"/>
<path d="M123.665 96.3846C129.187 87.0838 117.192 86.7181 118.009 84.1704C114.73 87.7664 110.841 93.7394 114.413 102.772C116.644 108.404 119.033 113.877 121.398 118.863C119.484 112.097 118.058 105.82 123.665 96.3846V96.3846Z" fill="#BACFD6" stroke="#29256A" stroke-width="0.5" stroke-linecap="round" stroke-linejoin="round"/>
<path d="M162.063 121.983C162.063 121.983 157.662 114.961 154.261 104.832C152.079 98.3222 154.225 88.8385 153.091 81.4636C153.079 81.488 153.066 81.5124 153.054 81.5368C152.335 82.8898 151.579 84.4867 151.201 85.9982C150.129 93.6169 149.58 100.675 151.445 106.233C154.115 114.181 157.796 122.751 159.259 126.066C159.942 124.201 162.562 123.994 162.063 121.97V121.983Z" fill="#BACFD6" stroke="#29256A" stroke-width="0.5" stroke-linecap="round" stroke-linejoin="round"/>
<path d="M151.091 171.547C151.091 171.547 152.956 172.169 155.784 172.083C158.612 171.998 160.477 173.29 160.721 178.422C160.879 181.762 163.89 192.611 163.293 198.572C162.903 202.46 159.819 203.289 157.247 202.07C155.882 201.424 154.992 201.193 154.065 200.339C150.372 196.926 147.068 192.318 147.007 181.152C146.959 173.57 143.631 173.826 143.631 173.826L151.103 171.547H151.091Z" fill="url(#paint23_linear_340_2388)" stroke="#29256A" stroke-width="0.5" stroke-linecap="round" stroke-linejoin="round"/>
<path d="M155.675 194.207C155.675 194.207 151.689 195.097 149.129 193.586C149.324 194.025 149.519 194.439 149.726 194.841C150.811 195.231 151.969 195.365 152.993 195.365C154.541 195.365 155.772 195.085 155.882 195.061L155.675 194.207V194.207Z" fill="#1C3B47" stroke="#29256A" stroke-width="0.5" stroke-linecap="round" stroke-linejoin="round"/>
<path d="M160.709 178.422C160.526 174.533 159.417 172.851 157.65 172.29C156.943 172.583 156.101 173.375 155.553 175.447C154.48 179.506 154.456 191.66 154.846 194.671C155.114 196.718 156.089 199.644 157.235 202.058C159.807 203.264 162.891 202.46 163.281 198.571C163.879 192.61 160.868 181.762 160.709 178.422Z" fill="#29256A" stroke="#29256A" stroke-width="0.5" stroke-linecap="round" stroke-linejoin="round"/>
<path d="M130.442 134.807C130.442 134.807 122.251 140.365 118.96 153.64C115.668 166.915 113.998 172.29 117.643 174.802C121.288 177.313 130.077 179.47 136.05 179.519L147.374 180.616C147.374 180.616 147.459 175.448 150.556 171.754L137.232 163.502C137.232 163.502 140.938 158.345 144.412 156.858C147.886 155.371 157.455 151.543 157.662 143.059C157.869 134.575 150.519 127.103 150.519 127.103C150.519 127.103 134.953 121.898 130.43 134.807H130.442Z" fill="url(#paint24_linear_340_2388)" stroke="#29256A" stroke-width="0.5" stroke-linecap="round" stroke-linejoin="round"/>
<path d="M134.988 179.482C135.269 179.494 135.537 179.506 135.805 179.506C135.829 175.923 136.951 170.681 142.107 166.329L141.327 165.878C136.219 170.376 135.061 175.764 134.988 179.482Z" fill="#1C3B47" stroke="#29256A" stroke-width="0.5" stroke-linecap="round" stroke-linejoin="round"/>
<g opacity="0.15">
<path d="M140.803 154.798C128.04 156.504 131.392 163.538 131.746 164.513C131.746 164.513 133.757 163.684 137.231 163.501C137.231 163.501 140.937 158.345 144.411 156.858C147.885 155.371 157.454 151.543 157.662 143.059C157.71 140.889 157.271 138.78 156.577 136.842C156.552 136.964 153.517 153.091 140.803 154.798V154.798Z" fill="#29256A"/>
</g>
<path d="M130.138 134.99C130.138 134.99 151.982 133.137 159.759 117.997L158.357 114.962C158.357 114.962 148.411 129.26 128.285 131.966L130.15 134.99H130.138Z" fill="url(#paint25_linear_340_2388)" stroke="#29256A" stroke-width="0.5" stroke-linecap="round" stroke-linejoin="round"/>
<path d="M126.129 120.862C122.898 120.862 119.571 119.753 116.804 116.608C115.402 115.023 114.146 113.597 113.72 110.854C113.573 109.891 114.232 108.989 115.195 108.843C116.145 108.696 117.06 109.355 117.206 110.318C117.474 112.049 118.193 112.853 119.376 114.194C125.568 121.191 134.893 114.328 135.296 114.035C136.076 113.45 137.185 113.609 137.77 114.389C138.355 115.169 138.197 116.266 137.429 116.851C134.966 118.716 130.639 120.862 126.141 120.862H126.129Z" fill="#F5F5F5" stroke="#29256A" stroke-width="0.5" stroke-linecap="round" stroke-linejoin="round"/>
<path d="M127.75 126.884C124.52 126.884 121.192 125.774 118.425 122.629C117.023 121.045 116.34 118.814 116.389 116.01C116.414 115.035 117.218 114.243 118.193 114.279C119.168 114.304 119.936 115.108 119.924 116.083C119.9 117.388 120.07 119.18 121.07 120.301C127.189 127.225 136.527 120.35 136.917 120.057C137.697 119.472 138.806 119.631 139.391 120.411C139.976 121.191 139.818 122.288 139.05 122.873C136.588 124.738 132.26 126.884 127.762 126.884H127.75Z" fill="#F5F5F5" stroke="#29256A" stroke-width="0.5" stroke-linecap="round" stroke-linejoin="round"/>
<path d="M130.918 105.868C125.75 106.904 121.508 106.283 118.302 103.991C117.997 103.772 117.717 103.552 117.436 103.321C112.244 98.8591 112.097 90.8991 116.522 85.6697C118.741 83.0489 120.935 82.2931 120.935 82.2931L121.435 81.9883L120.935 80.8181C116.388 82.2199 113.816 86.011 112.414 89.2657C110.878 92.8007 110.927 96.8599 112.768 100.237C113.731 102.028 115.169 103.918 117.266 105.417C119.789 107.209 122.824 108.111 126.347 108.111C127.895 108.111 129.541 107.94 131.26 107.587L130.906 105.856L130.918 105.868Z" fill="url(#paint26_linear_340_2388)" stroke="#29256A" stroke-width="0.5" stroke-linecap="round" stroke-linejoin="round"/>
<path d="M122.63 69.4939C122.63 59.4739 120.583 57.2797 119.01 56.0364C118.681 56.914 118.401 57.8283 118.181 58.7547C116.852 64.2279 117.267 69.9815 118.973 75.3451L119.851 78.1C121.582 77.7586 122.63 74.2602 122.63 69.5061V69.4939Z" fill="url(#paint27_linear_340_2388)"/>
<path d="M144.194 52.7452C142.122 50.1488 140.025 47.6133 131.053 47.6133C124.178 47.6133 120.716 51.5262 119.01 56.0365C120.046 57.8162 122.594 62.9237 121.692 68.592C121.18 71.7857 121.582 77.7587 119.851 78.0879L120.948 80.8184C120.948 80.8184 121.984 82.72 129.347 82.7322C137.526 82.7322 144.255 78.7583 145.45 74.37L146.083 58.511C146.083 56.8532 145.218 54.0495 144.182 52.7574L144.194 52.7452Z" fill="url(#paint28_linear_340_2388)" stroke="#29256A" stroke-width="0.5" stroke-linecap="round" stroke-linejoin="round"/>
<path d="M119.852 78.0879L120.327 79.2581L119.852 78.0879Z" fill="#CEE0E8" stroke="#29256A" stroke-width="0.5" stroke-linecap="round" stroke-linejoin="round"/>
<path d="M129.348 82.7321C121.985 82.7321 120.949 80.8183 120.949 80.8183V82.2811C120.949 82.2811 121.985 84.1827 129.348 84.1949C137.527 84.1949 144.256 80.221 145.451 75.8327V74.3699C144.244 78.7582 137.527 82.7443 129.348 82.7321V82.7321Z" fill="#1C3B47" stroke="#29256A" stroke-width="0.5" stroke-linecap="round" stroke-linejoin="round"/>
<g opacity="0.15">
<path d="M134.454 47.5645C133.235 47.4792 132.101 47.5035 131.053 47.6133C154.762 48.4665 142.755 70.3595 142.755 70.3595L142.243 78.7461C144.437 77.1858 145.449 74.3699 145.449 74.3699L145.815 67.3608C145.815 67.3608 151.044 48.7225 134.454 47.5767V47.5645Z" fill="#29256A"/>
</g>
<path d="M85.1821 96.238C85.1821 96.238 86.1573 93.6781 87.035 92.7517C87.9126 91.8253 89.3388 92.0081 89.6192 92.8249C89.6192 92.8249 91.1917 91.9594 91.789 93.2515C91.789 93.2515 93.7028 92.837 94.5317 94.373C94.5317 94.373 96.0554 94.6533 95.9823 96.2014C95.9092 97.7495 95.6532 99.4805 95.6532 99.4805L96.86 104.21L92.24 106.465L88.8634 101.321L85.5844 98.5175L85.1699 96.2258L85.1821 96.238Z" fill="#29256A" stroke="#29256A" stroke-width="0.5" stroke-linecap="round" stroke-linejoin="round"/>
<path d="M95.1653 110.317C95.1653 110.317 92.642 109.659 91.0207 108.403C89.3873 107.148 88.2537 105.234 88.2537 105.234C88.2537 105.234 82.6951 97.286 82.5123 95.5794C82.3294 93.8851 84.231 94.2629 85.706 96.1889C87.1688 98.1271 87.4613 98.8463 87.4613 98.8463C87.4613 98.8463 92.4835 99.5533 93.1662 102.491L93.5319 103.539L96.8841 104.198L99.0051 108.293L95.1775 110.293L95.1653 110.317Z" fill="#29256A" stroke="#29256A" stroke-width="0.5" stroke-linecap="round" stroke-linejoin="round"/>
<path d="M114.218 87.0105C114.218 87.0105 112.073 97.9326 113.45 100.943L112.438 106.173L96.8598 104.198C96.8598 104.198 93.6905 105.929 95.1533 110.305C95.1533 110.305 108.623 116.668 114.121 116.644C119.618 116.607 121.41 116.888 123.153 113.109C124.884 109.33 128.249 103.04 130.223 95.6409C132.869 85.7184 117.18 77.2221 114.206 87.0227L114.218 87.0105Z" fill="url(#paint29_linear_340_2388)" stroke="#29256A" stroke-width="0.5" stroke-linecap="round" stroke-linejoin="round"/>
<g opacity="0.15">
<path d="M113.462 100.956L112.45 106.185L96.8716 104.21C96.8716 104.21 93.7022 105.941 95.165 110.317C95.165 110.317 95.5673 110.512 96.2621 110.817C95.4941 107.112 98.2124 105.624 98.2124 105.624L113.791 107.599L114.803 102.37C113.425 99.3588 114.23 87.0105 114.23 87.0105C114.23 87.0105 112.084 97.9326 113.462 100.943V100.956Z" fill="#29256A"/>
</g>
<path d="M151.874 139.073L141.049 138.915L128.359 101.809L139.184 101.968L151.874 139.073Z" fill="url(#paint30_linear_340_2388)" stroke="#29256A" stroke-width="0.5" stroke-linecap="round" stroke-linejoin="round"/>
<path d="M136.623 82.4639L129.346 82.3786L143.559 74.3821L150.836 74.4552L136.623 82.4639Z" fill="url(#paint31_linear_340_2388)" stroke="#29256A" stroke-width="0.5" stroke-linecap="round" stroke-linejoin="round"/>
<path d="M139.184 101.968L128.359 101.809L129.347 82.3787L136.624 82.464L139.184 101.968Z" fill="url(#paint32_linear_340_2388)" stroke="#29256A" stroke-width="0.5" stroke-linecap="round" stroke-linejoin="round"/>
<path d="M150.838 74.4553L136.625 82.464L139.185 101.968L163.199 88.1079L150.838 74.4553Z" fill="url(#paint33_linear_340_2388)" stroke="#29256A" stroke-width="0.5" stroke-linecap="round" stroke-linejoin="round"/>
<path d="M163.198 88.1077L139.184 101.968L151.873 139.073L175.899 125.201L163.198 88.1077Z" fill="url(#paint34_linear_340_2388)" stroke="#29256A" stroke-width="0.5" stroke-linecap="round" stroke-linejoin="round"/>
<path d="M163.796 131.979L151.667 94.654L142.695 79.051L144.231 78.1733L153.313 94.0201L165.478 131.431L163.796 131.979Z" stroke="#29256A" stroke-width="0.5" stroke-linecap="round" stroke-linejoin="round"/>
<path d="M163.796 131.979L151.667 94.654L142.695 79.051L144.231 78.1733L153.313 94.0201L165.478 131.431L163.796 131.979Z" fill="#29256A" fill-opacity="0.2"/>
<path d="M233.034 170.121C228.962 175.765 224.745 176.776 222.611 176.886C222.916 177.167 223.209 177.447 223.526 177.703C226 177.374 229.937 175.935 233.753 170.633L233.034 170.121Z" fill="#1C3B47" stroke="#29256A" stroke-width="0.5" stroke-linecap="round" stroke-linejoin="round"/>
</g>
<defs>
<linearGradient id="paint0_linear_340_2388" x1="51.382" y1="45.4552" x2="97.7521" y2="45.4552" gradientUnits="userSpaceOnUse">
<stop stop-color="#DDE7FF"/>
<stop offset="1" stop-color="#9FD0E3"/>
</linearGradient>
<linearGradient id="paint1_linear_340_2388" x1="66.8871" y1="47.2838" x2="70.8001" y2="47.2838" gradientUnits="userSpaceOnUse">
<stop stop-color="#A05AC1"/>
<stop offset="1" stop-color="#142387"/>
</linearGradient>
<linearGradient id="paint2_linear_340_2388" x1="18.1875" y1="72.6629" x2="46.151" y2="72.6629" gradientUnits="userSpaceOnUse">
<stop stop-color="#F3D4FF"/>
<stop offset="1" stop-color="#828CD1"/>
</linearGradient>
<linearGradient id="paint3_linear_340_2388" x1="6.05859" y1="77.2343" x2="18.1875" y2="77.2343" gradientUnits="userSpaceOnUse">
<stop stop-color="#F3D4FF"/>
<stop offset="1" stop-color="#828CD1"/>
</linearGradient>
<linearGradient id="paint4_linear_340_2388" x1="18.1875" y1="42.9078" x2="0.914514" y2="42.9078" gradientUnits="userSpaceOnUse">
<stop stop-color="#F3D4FF"/>
<stop offset="1" stop-color="#828CD1"/>
</linearGradient>
<linearGradient id="paint5_linear_340_2388" x1="10.1055" y1="29.0966" x2="41.7015" y2="29.0966" gradientUnits="userSpaceOnUse">
<stop stop-color="#F3D4FF"/>
<stop offset="1" stop-color="#828CD1"/>
</linearGradient>
<linearGradient id="paint6_linear_340_2388" x1="6.05859" y1="45.1382" x2="22.2345" y2="45.1382" gradientUnits="userSpaceOnUse">
<stop stop-color="#F3D4FF"/>
<stop offset="1" stop-color="#828CD1"/>
</linearGradient>
<linearGradient id="paint7_linear_340_2388" x1="59.9012" y1="161.307" x2="84.3784" y2="161.307" gradientUnits="userSpaceOnUse">
<stop stop-color="#DDE7FF"/>
<stop offset="1" stop-color="#9FD0E3"/>
</linearGradient>
<linearGradient id="paint8_linear_340_2388" x1="39.373" y1="119.216" x2="81.7693" y2="119.216" gradientUnits="userSpaceOnUse">
<stop stop-color="#DDE7FF"/>
<stop offset="1" stop-color="#9FD0E3"/>
</linearGradient>
<linearGradient id="paint9_linear_340_2388" x1="12.1052" y1="171.51" x2="31.7674" y2="171.51" gradientUnits="userSpaceOnUse">
<stop stop-color="#DDE7FF"/>
<stop offset="1" stop-color="#9FD0E3"/>
</linearGradient>
<linearGradient id="paint10_linear_340_2388" x1="14.8457" y1="124.933" x2="50.2815" y2="124.933" gradientUnits="userSpaceOnUse">
<stop stop-color="#DDE7FF"/>
<stop offset="1" stop-color="#9FD0E3"/>
</linearGradient>
<linearGradient id="paint11_linear_340_2388" x1="23.66" y1="65.1299" x2="60.2661" y2="65.1299" gradientUnits="userSpaceOnUse">
<stop stop-color="#DDE7FF"/>
<stop offset="1" stop-color="#9FD0E3"/>
</linearGradient>
<linearGradient id="paint12_linear_340_2388" x1="23.6602" y1="55.5245" x2="39.1778" y2="55.5245" gradientUnits="userSpaceOnUse">
<stop stop-color="#A05AC1"/>
<stop offset="1" stop-color="#142387"/>
</linearGradient>
<linearGradient id="paint13_linear_340_2388" x1="22.4045" y1="91.9597" x2="58.3645" y2="91.9597" gradientUnits="userSpaceOnUse">
<stop stop-color="#A05AC1"/>
<stop offset="1" stop-color="#142387"/>
</linearGradient>
<linearGradient id="paint14_linear_340_2388" x1="47.8696" y1="94.2273" x2="55.0494" y2="94.2273" gradientUnits="userSpaceOnUse">
<stop stop-color="#A05AC1"/>
<stop offset="1" stop-color="#142387"/>
</linearGradient>
<linearGradient id="paint15_linear_340_2388" x1="39.4219" y1="73.8211" x2="45.4924" y2="73.8211" gradientUnits="userSpaceOnUse">
<stop stop-color="#DDE7FF"/>
<stop offset="1" stop-color="#9FD0E3"/>
</linearGradient>
<linearGradient id="paint16_linear_340_2388" x1="28.9766" y1="41.0185" x2="58.2078" y2="41.0185" gradientUnits="userSpaceOnUse">
<stop stop-color="#A05AC1"/>
<stop offset="1" stop-color="#142387"/>
</linearGradient>
<linearGradient id="paint17_linear_340_2388" x1="0.00266073" y1="55.4146" x2="35.1947" y2="55.4146" gradientUnits="userSpaceOnUse">
<stop stop-color="#DDE7FF"/>
<stop offset="1" stop-color="#9FD0E3"/>
</linearGradient>
<linearGradient id="paint18_linear_340_2388" x1="17.2246" y1="57.7794" x2="25.1846" y2="57.7794" gradientUnits="userSpaceOnUse">
<stop stop-color="#A05AC1"/>
<stop offset="1" stop-color="#142387"/>
</linearGradient>
<linearGradient id="paint19_linear_340_2388" x1="206.569" y1="168.865" x2="239.555" y2="168.865" gradientUnits="userSpaceOnUse">
<stop stop-color="#DDE7FF"/>
<stop offset="1" stop-color="#9FD0E3"/>
</linearGradient>
<linearGradient id="paint20_linear_340_2388" x1="146.058" y1="148.618" x2="213.724" y2="148.618" gradientUnits="userSpaceOnUse">
<stop stop-color="#DDE7FF"/>
<stop offset="1" stop-color="#9FD0E3"/>
</linearGradient>
<linearGradient id="paint21_linear_340_2388" x1="139.109" y1="72.1628" x2="175.361" y2="72.1628" gradientUnits="userSpaceOnUse">
<stop stop-color="#DDE7FF"/>
<stop offset="1" stop-color="#9FD0E3"/>
</linearGradient>
<linearGradient id="paint22_linear_340_2388" x1="112.792" y1="105.282" x2="159.906" y2="105.282" gradientUnits="userSpaceOnUse">
<stop stop-color="#DDE7FF"/>
<stop offset="1" stop-color="#9FD0E3"/>
</linearGradient>
<linearGradient id="paint23_linear_340_2388" x1="143.619" y1="187.065" x2="163.366" y2="187.065" gradientUnits="userSpaceOnUse">
<stop stop-color="#DDE7FF"/>
<stop offset="1" stop-color="#9FD0E3"/>
</linearGradient>
<linearGradient id="paint24_linear_340_2388" x1="115.583" y1="153.335" x2="157.674" y2="153.335" gradientUnits="userSpaceOnUse">
<stop stop-color="#DDE7FF"/>
<stop offset="1" stop-color="#9FD0E3"/>
</linearGradient>
<linearGradient id="paint25_linear_340_2388" x1="128.273" y1="124.982" x2="159.747" y2="124.982" gradientUnits="userSpaceOnUse">
<stop stop-color="#A05AC1"/>
<stop offset="1" stop-color="#142387"/>
</linearGradient>
<linearGradient id="paint26_linear_340_2388" x1="111.329" y1="94.4707" x2="131.272" y2="94.4707" gradientUnits="userSpaceOnUse">
<stop stop-color="#A05AC1"/>
<stop offset="1" stop-color="#142387"/>
</linearGradient>
<linearGradient id="paint27_linear_340_2388" x1="116.807" y1="55.0098" x2="124.231" y2="76.7873" gradientUnits="userSpaceOnUse">
<stop stop-color="#FF3AA3"/>
<stop offset="0.21" stop-color="#A165FE"/>
<stop offset="0.46" stop-color="#3394FF"/>
<stop offset="0.77" stop-color="#4EB8FF"/>
<stop offset="1" stop-color="#0AE2FF"/>
</linearGradient>
<linearGradient id="paint28_linear_340_2388" x1="119.01" y1="65.1666" x2="146.083" y2="65.1666" gradientUnits="userSpaceOnUse">
<stop stop-color="#DDE7FF"/>
<stop offset="1" stop-color="#9FD0E3"/>
</linearGradient>
<linearGradient id="paint29_linear_340_2388" x1="94.7754" y1="99.6635" x2="130.528" y2="99.6635" gradientUnits="userSpaceOnUse">
<stop stop-color="#DDE7FF"/>
<stop offset="1" stop-color="#9FD0E3"/>
</linearGradient>
<linearGradient id="paint30_linear_340_2388" x1="128.686" y1="100.049" x2="140.565" y2="122.817" gradientUnits="userSpaceOnUse">
<stop stop-color="#F3D4FF"/>
<stop offset="1" stop-color="#828CD1"/>
</linearGradient>
<linearGradient id="paint31_linear_340_2388" x1="136.11" y1="76.7872" x2="150.463" y2="88.1709" gradientUnits="userSpaceOnUse">
<stop stop-color="#F3D4FF"/>
<stop offset="1" stop-color="#828CD1"/>
</linearGradient>
<linearGradient id="paint32_linear_340_2388" x1="128.686" y1="80.7467" x2="139.575" y2="102.029" gradientUnits="userSpaceOnUse">
<stop stop-color="#F3D4FF"/>
<stop offset="1" stop-color="#828CD1"/>
</linearGradient>
<linearGradient id="paint33_linear_340_2388" x1="144.525" y1="81.7367" x2="160.363" y2="98.5648" gradientUnits="userSpaceOnUse">
<stop stop-color="#F3D4FF"/>
<stop offset="1" stop-color="#828CD1"/>
</linearGradient>
<linearGradient id="paint34_linear_340_2388" x1="141.554" y1="104.504" x2="171.746" y2="118.362" gradientUnits="userSpaceOnUse">
<stop stop-color="#F3D4FF"/>
<stop offset="1" stop-color="#828CD1"/>
</linearGradient>
<clipPath id="clip0_340_2388">
<rect width="240" height="210" fill="white"/>
</clipPath>
</defs>
</svg>
