<svg width="1728" height="290" fill="none" xmlns="http://www.w3.org/2000/svg"><path d="M1588.61 152.013c.01.071.01.142.03.212.01.047.02.094.06.125.07.071.18.024.25-.023.43-.29.35-.666.96-.635.22.008.43.063.61.18.04.024.43.431.38.447a1.05 1.05 0 0 0-.26.118c-.08.062-.14.156-.11.258.04.243 1.51-.454 1.66-.525.6-.29 1.18-.635 1.82-.823 1.45-.431 2.91-.752 4.42-.744 1.84.015 3.58.666 5.2 1.52 1.51.792 3.34 1.638 4.62 2.767-.18.133-.42.086-.64.031-1.91-.447-3.74-1.074-5.72-1.254-2.13-.188-4.27.063-6.34.549-1.88.439-3.77.729-5.63 1.222-1.72.455-3.51.886-5.29 1.129-.61.086-1.3.188-1.65.697-.21.298-.33.753-.69.8-.02-.462-.12-1.003-.53-1.199-.39-.188-.82-.047-1-.525 1.1-.212 2.93-.337 3.27-1.787.48-2.093-2.21-3.37-3.53-4.405-.74-.58-1.5-1.168-2.34-1.575-2.06-1.011-4.47-.894-6.69-.941-.24 0-.52-.031-.66-.227 1.46-.674 3.52-.596 5.08-.65 2.59-.087 5.14.282 7.65.94 1.26.329 2.56.776 3.63 1.552.45.321.98.69 1.22 1.215.19.439.16 1.05.21 1.559l.01-.008Z" fill="url(#a)" stroke="#4D5AFF" stroke-width=".5" stroke-miterlimit="10"/><path d="M1684.45 115.585c-.01.063-.02.126-.02.181 0 .039 0 .086.01.117.04.071.15.071.22.047.43-.133.46-.462.96-.282.17.063.33.165.45.306.03.031.25.47.21.47-.09 0-.18 0-.26.031-.07.032-.15.102-.15.181-.03.219 1.37.015 1.51 0 .57-.087 1.14-.22 1.72-.212 1.3.016 2.59.125 3.85.533 1.52.494 2.79 1.481 3.91 2.594 1.05 1.042 2.35 2.218 3.13 3.48-.18.063-.38-.039-.54-.141-1.47-.862-2.82-1.858-4.42-2.516-1.71-.705-3.54-1.05-5.38-1.183-1.67-.126-3.3-.369-4.97-.439-1.53-.071-3.13-.173-4.65-.431-.53-.087-1.13-.181-1.54.148-.26.196-.47.541-.77.479.1-.384.15-.863-.14-1.129-.27-.259-.67-.251-.7-.698.96.11 2.51.479 3.15-.634.93-1.607-.97-3.355-1.8-4.554-.47-.674-.95-1.348-1.54-1.904-1.44-1.364-3.47-1.897-5.29-2.508-.2-.071-.43-.157-.49-.361 1.37-.18 3.06.416 4.36.776 2.16.596 4.18 1.568 6.09 2.759.97.603 1.92 1.301 2.62 2.218.29.384.64.823.7 1.316.05.416-.13.91-.22 1.348l-.01.008Z" fill="url(#b)" stroke="#4D5AFF" stroke-width=".5" stroke-miterlimit="10"/><path d="M1375 230.865c-.01.062-.02.125-.02.18 0 .039 0 .086.01.117.04.071.14.071.22.047.43-.133.46-.462.95-.282.18.063.34.165.46.306.03.031.25.47.2.47-.08 0-.17 0-.25.032-.08.031-.15.101-.15.18-.03.219 1.37.016 1.51 0 .57-.086 1.13-.22 1.72-.212 1.3.016 2.59.126 3.85.533 1.51.494 2.79 1.481 3.91 2.594 1.05 1.043 2.35 2.218 3.13 3.48-.18.063-.38-.039-.54-.141-1.47-.862-2.82-1.857-4.42-2.516-1.71-.705-3.54-1.05-5.38-1.183-1.67-.126-3.3-.369-4.97-.439-1.53-.071-3.13-.173-4.65-.431-.53-.086-1.13-.18-1.55.149-.25.196-.46.541-.77.478.11-.384.16-.862-.13-1.129-.27-.258-.67-.251-.7-.697.97.109 2.51.478 3.15-.635.93-1.607-.97-3.354-1.8-4.554-.47-.674-.95-1.348-1.54-1.904-1.44-1.364-3.47-1.897-5.3-2.508-.19-.071-.42-.157-.48-.361 1.37-.18 3.05.416 4.36.776 2.16.596 4.18 1.568 6.09 2.759.97.604 1.92 1.301 2.62 2.218.29.384.64.823.7 1.317.05.415-.14.909-.22 1.348l-.01.008Z" fill="url(#c)" stroke="#4D5AFF" stroke-width=".5" stroke-miterlimit="10"/><path d="M1060.54 166.927c0 .063-.02.126-.02.18 0 .04 0 .087.02.118.04.07.14.07.22.047.42-.133.45-.462.95-.282.17.063.33.164.45.305.03.032.25.471.21.471-.09 0-.18 0-.25.031-.08.031-.15.102-.16.18-.03.22 1.37.016 1.52 0 .56-.086 1.13-.219 1.71-.211 1.3.015 2.59.125 3.85.533 1.52.493 2.79 1.481 3.92 2.594 1.04 1.042 2.35 2.218 3.12 3.48-.18.062-.37-.04-.54-.141-1.47-.863-2.82-1.858-4.42-2.516-1.71-.706-3.54-1.05-5.38-1.184-1.67-.125-3.29-.368-4.97-.439-1.53-.07-3.13-.172-4.65-.431-.53-.086-1.13-.18-1.54.149-.25.196-.47.541-.77.478.1-.384.15-.862-.14-1.128-.27-.259-.66-.251-.7-.698.96.11 2.51.478 3.16-.635.92-1.606-.98-3.354-1.81-4.553-.47-.674-.95-1.348-1.53-1.905-1.45-1.363-3.48-1.896-5.3-2.508-.2-.07-.43-.156-.49-.36 1.38-.18 3.06.415 4.36.776 2.16.595 4.18 1.567 6.09 2.759.97.603 1.92 1.301 2.62 2.218.29.384.64.823.7 1.316.06.416-.13.909-.22 1.348l-.01.008Z" fill="url(#d)" stroke="#4D5AFF" stroke-width=".5" stroke-miterlimit="10"/><path d="M1530.45 182.093c0 .062.01.125.02.18 0 .039.02.086.05.117.05.063.16.032.23 0 .37-.227.32-.556.85-.486.18.024.37.079.52.189.04.023.37.391.33.407a.672.672 0 0 0-.24.086c-.07.047-.12.126-.1.212.03.212 1.33-.298 1.47-.345.52-.211 1.04-.47 1.6-.596 1.27-.282 2.55-.47 3.88-.36 1.6.133 3.09.799 4.47 1.63 1.29.776 2.85 1.615 3.94 2.665-.16.102-.37.047-.56-.008-1.65-.509-3.22-1.16-4.94-1.434-1.84-.298-3.71-.212-5.52.07-1.65.259-3.3.392-4.93.698-1.51.282-3.08.541-4.63.642-.54.032-1.13.079-1.46.502-.18.243-.31.627-.62.643 0-.4-.08-.87-.43-1.066-.34-.188-.71-.094-.86-.517.96-.11 2.55-.102 2.89-1.333.49-1.771-1.82-3.033-2.94-4.012-.63-.549-1.26-1.098-1.98-1.505-1.76-.996-3.86-1.05-5.8-1.223-.21-.016-.45-.055-.57-.235 1.28-.486 3.07-.29 4.43-.235 2.25.086 4.46.572 6.62 1.293 1.1.361 2.2.831 3.12 1.56.37.305.83.658 1.02 1.12.15.384.1.91.14 1.356v-.015Z" fill="url(#e)" stroke="#4D5AFF" stroke-width=".5" stroke-miterlimit="10"/><path d="M1171.67 169.545c0 .063-.02.126-.02.181 0 .039 0 .086.02.117.04.071.14.071.22.047.42-.133.45-.462.95-.282.17.063.34.165.45.306.04.031.26.47.21.47-.09 0-.17 0-.25.031-.08.032-.15.102-.16.18-.02.22 1.37.016 1.52 0 .56-.086 1.13-.219 1.71-.211 1.3.016 2.59.125 3.85.533 1.52.494 2.79 1.481 3.92 2.594 1.04 1.042 2.35 2.218 3.12 3.48-.18.062-.37-.039-.54-.141-1.47-.862-2.82-1.858-4.42-2.516-1.71-.705-3.54-1.05-5.38-1.184-1.67-.125-3.29-.368-4.97-.438-1.53-.071-3.13-.173-4.65-.431-.53-.087-1.13-.181-1.54.148-.25.196-.47.541-.77.479.1-.385.16-.863-.14-1.129-.27-.259-.66-.251-.7-.698.96.11 2.51.478 3.16-.634.92-1.607-.98-3.355-1.81-4.554-.47-.674-.94-1.348-1.53-1.904-1.45-1.364-3.48-1.897-5.3-2.508-.2-.071-.43-.157-.5-.361 1.38-.18 3.06.415 4.37.776 2.16.596 4.18 1.567 6.09 2.759.96.603 1.92 1.301 2.61 2.218.3.384.64.823.7 1.316.06.416-.13.91-.21 1.348l-.01.008Z" fill="url(#f)" stroke="#4D5AFF" stroke-width=".5" stroke-miterlimit="10"/><path d="M1225.63 113.783c-.01.062-.02.125-.02.18 0 .039 0 .086.01.117.04.071.14.071.22.047.43-.133.46-.462.95-.282.18.063.34.165.46.306.03.031.25.47.2.47-.08 0-.17 0-.25.032-.08.031-.15.101-.16.18-.02.219 1.38.015 1.52 0 .57-.086 1.13-.22 1.72-.212 1.3.016 2.59.126 3.85.533 1.51.494 2.79 1.481 3.91 2.594 1.05 1.043 2.35 2.218 3.13 3.48-.18.063-.38-.039-.53-.141-1.47-.862-2.83-1.857-4.42-2.516-1.72-.705-3.55-1.05-5.39-1.183-1.66-.126-3.29-.369-4.96-.439-1.54-.071-3.13-.173-4.66-.431-.52-.086-1.12-.18-1.54.149-.25.196-.46.541-.77.478.1-.384.16-.862-.13-1.129-.28-.258-.67-.251-.7-.697.96.109 2.51.478 3.15-.635.93-1.607-.97-3.355-1.81-4.554-.46-.674-.94-1.348-1.53-1.904-1.45-1.364-3.48-1.897-5.3-2.508-.2-.071-.42-.157-.49-.361 1.38-.18 3.06.416 4.37.776 2.16.596 4.18 1.568 6.09 2.759.97.604 1.92 1.301 2.62 2.218.29.384.63.823.7 1.317.05.415-.14.909-.22 1.348l-.02.008Z" fill="url(#g)" stroke="#4D5AFF" stroke-width=".5" stroke-miterlimit="10"/><path d="M1308.29 182.533c-.02.086-.04.164-.06.243 0 .054-.01.117 0 .164.05.102.19.11.3.086.59-.133.66-.587 1.32-.29.23.102.45.251.6.455.04.047.3.658.24.65-.12-.007-.23-.015-.34.016-.11.031-.21.118-.23.235-.05.29 1.86.157 2.06.141.78-.062 1.56-.188 2.34-.125 1.78.149 3.52.423 5.18 1.089 2.02.815 3.66 2.273 5.08 3.903 1.33 1.521 3 3.237 3.93 5.032-.25.063-.5-.094-.71-.235-1.91-1.317-3.66-2.79-5.77-3.833-2.26-1.12-4.71-1.763-7.2-2.124-2.25-.329-4.44-.815-6.7-1.073-2.08-.236-4.24-.541-6.29-1.035-.71-.172-1.51-.353-2.11.055-.36.243-.69.69-1.1.58.18-.517.29-1.152-.08-1.552-.35-.376-.88-.407-.88-1.011 1.29.243 3.36.894 4.34-.564 1.42-2.093-1.01-4.656-2.03-6.364-.58-.956-1.16-1.92-1.91-2.743-1.84-1.991-4.55-2.908-6.97-3.911-.26-.11-.56-.259-.63-.541 1.87-.117 4.11.862 5.85 1.474 2.89 1.011 5.54 2.523 8.02 4.326 1.25.909 2.49 1.959 3.35 3.268.35.549.78 1.183.83 1.857.03.565-.27 1.215-.42 1.811l-.01.016Z" fill="url(#h)" stroke="#4D5AFF" stroke-width=".5" stroke-miterlimit="10"/><g opacity=".6" stroke="#4D5AFF"><path d="m258.134 192.551-.231-.036-.719 4.548-.68-4.546-.229.034.771 5.161H245.66l.817-5.161-.228-.036-.719 4.548-.678-4.546-.231.034.789 5.288v5.369c0 .616.501 1.117 1.117 1.117h9.655c.618 0 1.116-.501 1.116-1.117v-5.369l.836-5.288Z" fill="url(#i)"/><path d="M266.821 147.801c-1.812-1.155-3.881-2.02-6.14-2.625-1.978-.529-4.102-.862-6.324-1.015a45.547 45.547 0 0 0-4.684-.067 39.616 39.616 0 0 0-3.881.335c-3.191.443-6.119 1.305-8.635 2.653-5.457 2.923-8.969 8.136-8.969 16.369 0 9.452 15.507 24.617 16.394 28.763.026.122.042.236.042.337h13.513c0-3.58 16.428-19.367 16.428-29.1 0-7.597-2.99-12.623-7.741-15.653l-.003.003Z" fill="url(#j)"/><path d="M245.825 144.426s-.024.002-.034.005c-3.191.444-6.119 1.306-8.635 2.653l-.052.029c-5.322 7.326-3.829 17.293-.423 27 2.292 6.542 7.088 10.668 8.053 18.293.013.052.021.101.026.148h1.761c-.039-2.475-.481-4.479-1.127-7.044-3.487-13.83-6.426-31.089.431-41.082v-.002Z" fill="url(#k)"/><path d="M267.79 148.462a15.458 15.458 0 0 0-.969-.662c-1.656-1.057-3.525-1.869-5.558-2.461 2.118 2.638 2.601 5.623 2.941 8.759.74 6.831-1.376 14.648-4.018 23.072-1.395 4.45-4.757 10.286-5.284 15.38h2.5c.463-4.587 3.56-8.1 6.514-12.796 6.511-10.362 10.149-22.499 3.871-31.289l.003-.003Z" fill="url(#l)"/><path d="M254.667 144.186a43.683 43.683 0 0 0-4.826-.096c-.395 2.542-1.405 7.501-1.612 13.802-.213 6.591.42 14.642.594 21.561.128 5.016.46 9.694.745 13.103h3.134c.218-4.352.532-7.882 1.212-11.878 2.264-13.279 4.588-25.141.753-36.486v-.006Z" fill="url(#m)"/></g><g opacity=".6" stroke="#4D5AFF" stroke-width=".5"><path d="m407.726 281.284-.159-.023-.485 3.092-.462-3.092-.156.023.524 3.51h-7.739l.556-3.51-.156-.023-.488 3.092-.46-3.092-.158.023.537 3.593v3.648c0 .418.34.758.761.758h6.561c.42 0 .758-.34.758-.758v-3.648l.571-3.593h-.005Z" fill="url(#n)"/><path d="M413.631 250.866c-1.234-.784-2.638-1.374-4.172-1.784a22.655 22.655 0 0 0-4.3-.69 30.625 30.625 0 0 0-3.183-.047c-.903.034-1.786.109-2.637.228-2.168.302-4.162.886-5.87 1.805-3.713 1.986-6.096 5.53-6.096 11.127 0 6.425 10.538 16.732 11.143 19.549.018.083.026.161.026.229h9.188c0-2.436 11.166-13.163 11.166-19.781 0-5.163-2.033-8.58-5.263-10.639l-.002.003Z" fill="url(#o)"/><path d="M399.358 248.57s-.016 0-.024.006c-2.168.301-4.161.885-5.87 1.804-.013.005-.023.013-.033.018-3.619 4.979-2.604 11.753-.289 18.355 1.558 4.447 4.816 7.251 5.476 12.436.008.033.013.067.018.098h1.197c-.026-1.679-.327-3.045-.766-4.79-2.368-9.398-4.367-21.13.293-27.924l-.002-.003Z" fill="url(#p)"/><path d="M414.287 251.317a10.75 10.75 0 0 0-.657-.452c-1.127-.716-2.396-1.269-3.777-1.672 1.44 1.794 1.768 3.825 1.999 5.953.506 4.645-.935 9.959-2.731 15.684-.948 3.024-3.233 6.991-3.594 10.455h1.701c.314-3.118 2.419-5.504 4.426-8.7 4.427-7.041 6.901-15.292 2.63-21.268h.003Z" fill="url(#q)"/><path d="m405.369 248.409-.21-.015a30.679 30.679 0 0 0-3.069-.052c-.27 1.729-.955 5.099-1.096 9.382-.145 4.481.286 9.954.403 14.658.088 3.409.311 6.589.506 8.905h2.129c.151-2.957.361-5.358.823-8.074 1.54-9.027 3.121-17.088.514-24.801v-.003Z" fill="url(#r)"/></g><g opacity=".5" stroke="#4D5AFF" stroke-width=".5"><path d="m589.57 250.661-.117-.018-.361 2.282-.34-2.282-.117.016.387 2.591h-5.717l.41-2.591-.117-.018-.36 2.282-.341-2.282-.114.015.395 2.653v2.695c0 .309.254.561.561.561h4.847c.309 0 .56-.252.56-.561v-2.695l.421-2.653.003.005Z" fill="url(#s)"/><path d="M593.927 228.199c-.911-.579-1.95-1.015-3.081-1.317a16.48 16.48 0 0 0-3.176-.508 21.638 21.638 0 0 0-2.352-.034c-.667.023-1.319.08-1.949.169-1.6.223-3.072.654-4.336 1.331-2.739 1.465-4.502 4.084-4.502 8.215 0 4.745 7.784 12.357 8.23 14.437.013.06.021.117.021.169h6.781c0-1.797 8.246-9.72 8.246-14.606 0-3.812-1.501-6.338-3.884-7.856h.002Z" fill="url(#t)"/><path d="M583.389 226.506h-.018c-1.6.223-3.072.654-4.336 1.332a.06.06 0 0 0-.023.013c-2.672 3.676-1.924 8.679-.213 13.552 1.15 3.281 3.557 5.353 4.042 9.182.005.026.011.052.013.076h.883c-.018-1.244-.239-2.249-.564-3.536-1.749-6.94-3.227-15.603.216-20.619Z" fill="url(#u)"/><path d="M594.415 228.531a7.306 7.306 0 0 0-.486-.332c-.83-.53-1.77-.938-2.79-1.236 1.064 1.324 1.305 2.825 1.477 4.398.374 3.429-.691 7.352-2.017 11.581-.701 2.233-2.389 5.164-2.654 7.719h1.257c.233-2.303 1.789-4.066 3.268-6.426 3.269-5.197 5.097-11.291 1.942-15.704h.003Z" fill="url(#v)"/><path d="M587.826 226.384a21.638 21.638 0 0 0-2.422-.047c-.2 1.275-.704 3.765-.81 6.929-.107 3.308.213 7.348.298 10.821.063 2.518.231 4.865.374 6.576h1.574c.109-2.183.264-3.956.607-5.963 1.135-6.664 2.303-12.617.376-18.313l.003-.003Z" fill="url(#w)"/></g><path d="m140.728 79.275-.366-.057-1.145 7.248-1.083-7.248-.368.054 1.23 8.228h-18.144l1.303-8.225-.366-.057-1.148 7.248-1.08-7.248-.366.054 1.257 8.425v8.554a1.78 1.78 0 0 0 1.781 1.779h15.385a1.78 1.78 0 0 0 1.781-1.779v-8.554l1.332-8.427-.003.005Z" fill="url(#x)" stroke="#4D5AFF"/><path d="M154.573 7.956c-2.887-1.841-6.186-3.217-9.782-4.183-3.154-.844-6.54-1.373-10.081-1.615A69.791 69.791 0 0 0 129.954 2c-.911 0-1.817.016-2.711.05-2.118.08-4.185.256-6.189.534-5.083.709-9.754 2.08-13.759 4.23C98.595 11.47 93 19.78 93 32.896c0 15.068 24.71 39.236 26.125 45.838.042.195.063.376.063.537h21.537c.006-5.706 26.183-30.863 26.183-46.375 0-12.103-4.767-20.115-12.34-24.941h.005Z" fill="url(#y)" stroke="#4D5AFF"/><path d="M121.113 2.58a2.65 2.65 0 0 1-.057.007c-5.083.709-9.754 2.08-13.76 4.229l-.08.042c-8.482 11.675-6.104 27.555-.675 43.031 3.655 10.426 11.293 17.002 12.838 29.152.018.08.031.159.041.237h2.804c-.057-3.944-.763-7.14-1.794-11.226-5.558-22.039-10.244-49.543.686-65.47l-.003-.003Z" fill="url(#z)" stroke="#4D5AFF"/><path d="M156.112 9.016a26.686 26.686 0 0 0-1.542-1.057c-2.638-1.682-5.618-2.975-8.856-3.923 3.383 4.203 4.149 8.965 4.689 13.962 1.179 10.886-2.196 23.342-6.402 36.77-2.22 7.093-7.581 16.392-8.425 24.51h3.988c.737-7.31 5.675-12.908 10.379-20.395 10.375-16.51 16.18-35.853 6.166-49.865l.003-.002Z" fill="url(#A)" stroke="#4D5AFF"/><path d="M135.205 2.198c-.166-.013-.33-.026-.496-.037a69.792 69.792 0 0 0-4.756-.158c-.821 0-1.633.013-2.441.041-.63 4.048-2.237 11.95-2.567 21.993-.343 10.506.672 23.334.95 34.363.2 7.993.727 15.447 1.181 20.878h4.993c.35-6.934.846-12.563 1.931-18.931 3.609-21.164 7.314-40.064 1.202-58.15h.003Z" fill="url(#B)" stroke="#4D5AFF"/><defs><linearGradient id="a" x1="1606.46" y1="144.852" x2="1571.67" y2="149.445" gradientUnits="userSpaceOnUse"><stop stop-color="#6366F3"/><stop offset="1" stop-color="#72CFED"/></linearGradient><linearGradient id="b" x1="1698.6" y1="104.468" x2="1671.25" y2="106.463" gradientUnits="userSpaceOnUse"><stop stop-color="#6366F3"/><stop offset="1" stop-color="#72CFED"/></linearGradient><linearGradient id="c" x1="1389.15" y1="219.748" x2="1361.8" y2="221.742" gradientUnits="userSpaceOnUse"><stop stop-color="#6366F3"/><stop offset="1" stop-color="#72CFED"/></linearGradient><linearGradient id="d" x1="1074.69" y1="155.81" x2="1047.34" y2="157.805" gradientUnits="userSpaceOnUse"><stop stop-color="#6366F3"/><stop offset="1" stop-color="#72CFED"/></linearGradient><linearGradient id="e" x1="1545.92" y1="174.988" x2="1515.82" y2="178.795" gradientUnits="userSpaceOnUse"><stop stop-color="#6366F3"/><stop offset="1" stop-color="#72CFED"/></linearGradient><linearGradient id="f" x1="1185.82" y1="158.428" x2="1158.46" y2="160.424" gradientUnits="userSpaceOnUse"><stop stop-color="#6366F3"/><stop offset="1" stop-color="#72CFED"/></linearGradient><linearGradient id="g" x1="1239.78" y1="102.666" x2="1212.43" y2="104.659" gradientUnits="userSpaceOnUse"><stop stop-color="#6366F3"/><stop offset="1" stop-color="#72CFED"/></linearGradient><linearGradient id="h" x1="1326.89" y1="165.702" x2="1291.06" y2="167.934" gradientUnits="userSpaceOnUse"><stop stop-color="#6366F3"/><stop offset="1" stop-color="#72CFED"/></linearGradient><linearGradient id="i" x1="251.376" y1="204.322" x2="251.376" y2="192.515" gradientUnits="userSpaceOnUse"><stop stop-color="#6366F3"/><stop offset="1" stop-color="#72CFED"/></linearGradient><linearGradient id="j" x1="251.374" y1="192.551" x2="251.374" y2="144.062" gradientUnits="userSpaceOnUse"><stop stop-color="#6366F3"/><stop offset="1" stop-color="#72CFED"/></linearGradient><linearGradient id="k" x1="240.067" y1="192.551" x2="240.067" y2="144.426" gradientUnits="userSpaceOnUse"><stop stop-color="#99B0FF"/><stop offset="1" stop-color="#2CE6C4"/></linearGradient><linearGradient id="l" x1="262.974" y1="192.55" x2="262.974" y2="145.339" gradientUnits="userSpaceOnUse"><stop stop-color="#99B0FF"/><stop offset="1" stop-color="#2CE6C4"/></linearGradient><linearGradient id="m" x1="252.45" y1="192.55" x2="252.45" y2="144.062" gradientUnits="userSpaceOnUse"><stop stop-color="#99B0FF"/><stop offset="1" stop-color="#2CE6C4"/></linearGradient><linearGradient id="n" x1="403.133" y1="289.286" x2="403.133" y2="281.261" gradientUnits="userSpaceOnUse"><stop stop-color="#6366F3"/><stop offset="1" stop-color="#72CFED"/></linearGradient><linearGradient id="o" x1="403.129" y1="281.285" x2="403.129" y2="248.327" gradientUnits="userSpaceOnUse"><stop stop-color="#6366F3"/><stop offset="1" stop-color="#72CFED"/></linearGradient><linearGradient id="p" x1="395.44" y1="281.285" x2="395.44" y2="248.57" gradientUnits="userSpaceOnUse"><stop stop-color="#99B0FF"/><stop offset="1" stop-color="#2CE6C4"/></linearGradient><linearGradient id="q" x1="411.013" y1="281.285" x2="411.013" y2="249.193" gradientUnits="userSpaceOnUse"><stop stop-color="#99B0FF"/><stop offset="1" stop-color="#2CE6C4"/></linearGradient><linearGradient id="r" x1="403.861" y1="281.285" x2="403.861" y2="248.326" gradientUnits="userSpaceOnUse"><stop stop-color="#99B0FF"/><stop offset="1" stop-color="#2CE6C4"/></linearGradient><linearGradient id="s" x1="586.176" y1="256.57" x2="586.176" y2="250.646" gradientUnits="userSpaceOnUse"><stop stop-color="#6366F3"/><stop offset="1" stop-color="#72CFED"/></linearGradient><linearGradient id="t" x1="586.172" y1="250.661" x2="586.172" y2="226.324" gradientUnits="userSpaceOnUse"><stop stop-color="#6366F3"/><stop offset="1" stop-color="#72CFED"/></linearGradient><linearGradient id="u" x1="580.497" y1="250.661" x2="580.497" y2="226.506" gradientUnits="userSpaceOnUse"><stop stop-color="#99B0FF"/><stop offset="1" stop-color="#2CE6C4"/></linearGradient><linearGradient id="v" x1="591.998" y1="250.661" x2="591.998" y2="226.965" gradientUnits="userSpaceOnUse"><stop stop-color="#99B0FF"/><stop offset="1" stop-color="#2CE6C4"/></linearGradient><linearGradient id="w" x1="586.715" y1="250.661" x2="586.715" y2="226.324" gradientUnits="userSpaceOnUse"><stop stop-color="#99B0FF"/><stop offset="1" stop-color="#2CE6C4"/></linearGradient><linearGradient id="x" x1="129.959" y1="98.032" x2="129.959" y2="79.218" gradientUnits="userSpaceOnUse"><stop stop-color="#49B5D1"/><stop offset="1" stop-color="#829FFF"/></linearGradient><linearGradient id="y" x1="129.956" y1="79.275" x2="129.956" y2="2.003" gradientUnits="userSpaceOnUse"><stop stop-color="#49B5D1"/><stop offset="1" stop-color="#829FFF"/></linearGradient><linearGradient id="z" x1="111.93" y1="79.275" x2="111.93" y2="2.579" gradientUnits="userSpaceOnUse"><stop stop-color="#99B0FF"/><stop offset="1" stop-color="#2CE6C4"/></linearGradient><linearGradient id="A" x1="148.438" y1="79.276" x2="148.438" y2="4.036" gradientUnits="userSpaceOnUse"><stop stop-color="#99B0FF"/><stop offset="1" stop-color="#2CE6C4"/></linearGradient><linearGradient id="B" x1="131.669" y1="79.275" x2="131.669" y2="2.003" gradientUnits="userSpaceOnUse"><stop stop-color="#99B0FF"/><stop offset="1" stop-color="#2CE6C4"/></linearGradient></defs></svg>