<svg width="1728" height="220" viewBox="0 0 1728 220" fill="none" xmlns="http://www.w3.org/2000/svg">
<g clip-path="url(#clip0_346_4917)">
<path d="M891.149 217.87C889.019 210.73 805.119 143.78 805.089 136.53C805.039 124.81 777.339 118.95 765.339 110.48C753.909 102.41 744.479 95.0796 734.979 89.2996C725.889 83.7696 718.999 78.6696 706.029 78.2096C694.429 77.7996 682.529 81.2996 671.079 78.7796C668.989 76.4896 666.479 74.4296 663.609 72.5596C648.639 62.8296 624.949 65.1796 606.429 68.9396C588.759 72.5296 564.679 73.9696 546.849 69.5896C527.979 64.9596 513.269 56.2796 491.759 56.2296C472.659 56.1896 464.759 68.3996 444.589 66.6296C427.139 65.0996 407.029 54.7596 390.079 59.9996C379.389 63.2996 372.659 63.8496 361.649 66.6196C349.629 69.6396 339.219 75.0896 327.959 72.3196C308.669 67.5796 287.689 60.4996 269.279 65.5696C248.479 71.2996 228.039 73.9196 205.419 73.4496C196.029 73.2496 186.699 66.0796 177.379 65.1396C166.889 64.0796 156.399 63.0896 145.839 63.2996V63.2796C145.839 63.2796 108.629 63.1296 85.7593 75.3396C62.8893 87.5496 43.4093 93.4895 34.0893 93.0595C26.6493 92.7195 104.629 165.6 136.289 194.92V217.86H891.149V217.87Z" fill="url(#paint0_linear_346_4917)" stroke="#4D5AFF" stroke-miterlimit="10"/>
<path d="M831.72 217.87C831.72 217.87 730.88 129.11 712.76 127.9C676.17 125.46 672.52 98.8603 646.8 93.8503C635.42 91.6303 622.96 89.2003 609.43 89.0303C596.87 88.8703 589.53 91.0003 579.11 92.8303C546.38 98.5803 528.51 83.2803 500.19 80.8603C488.62 79.8703 476.62 80.8102 467.31 83.2502C457.6 85.8002 452.4 89.9303 438.13 88.8303C418.67 87.3403 403.52 80.7703 384.59 78.4103C369.48 76.5203 351.92 76.5103 336.32 77.8003C321.28 79.0403 315.2 82.0403 304.52 85.3403C292.77 88.9703 280.35 87.9203 266.29 86.1703C238.74 82.7403 201.97 74.4002 174.08 82.0002C163.42 84.9002 160.13 89.2203 152.3 92.7803C151.66 93.0603 151.02 93.3203 150.38 93.5703C146.28 95.1003 141.55 95.9102 136.32 96.3102V97.1803C104.38 101.25 73.8302 78.0203 47.6702 56.2503C17.1802 30.8703 -28.8298 24.0303 -28.8298 24.0303C-28.8298 24.0303 -50.5898 190.05 -50.5898 194.78C-50.5898 198.24 71.0801 196.64 136.31 195.53V217.87H831.73H831.72Z" fill="url(#paint1_linear_346_4917)" stroke="#4D5AFF" stroke-miterlimit="10"/>
<path opacity="0.4" d="M908.46 137.28C903.42 134.52 901.3 131.18 894.44 128.93C876.49 123.04 852.83 129.5 835.09 132.16C826.04 133.52 818.05 134.33 810.48 131.52C803.61 128.96 799.69 126.64 790.01 125.68C779.97 124.68 768.67 124.69 758.94 126.16C746.76 127.99 737.01 133.08 724.48 134.23C715.3 135.08 711.95 131.88 705.7 129.91C699.7 128.02 691.98 127.29 684.54 128.06C666.31 129.93 654.81 141.78 633.74 137.33C627.03 135.91 622.31 134.26 614.22 134.39C605.51 134.52 597.49 136.4 590.17 138.12C573.61 142.01 571.27 162.61 547.71 164.5C536.04 165.44 526.49 208.93 526.49 208.93H918.73V140.02C914.82 139.66 911.35 138.88 908.44 137.28H908.46Z" fill="url(#paint2_linear_346_4917)" stroke="#4D5AFF" stroke-miterlimit="10"/>
<path opacity="0.6" d="M900.471 176.01C888.841 173.26 876.421 173.63 865.051 176.11C849.941 179.41 842.211 179.12 830.101 173.61C821.091 169.51 810.001 166.89 797.771 169.32C787.521 171.36 778.621 177.25 766.331 175.3C754.031 173.35 748.651 165.95 734.281 165.5C720.741 165.07 705.731 171.39 698.851 176.06C684.811 185.6 632.431 178.81 617.101 188.85C608.731 194.34 608.871 202.56 610.561 210.21H918.741V186.08C911.751 183.34 909.521 178.15 900.471 176V176.01Z" fill="url(#paint3_linear_346_4917)" stroke="#4D5AFF" stroke-miterlimit="10"/>
<path d="M892.05 164.26C894.67 166.18 895.69 169.56 895.62 172.67C895.42 191.37 895.19 189.35 894.99 208.05C896.49 208.06 897.24 208.04 898.74 208.05C900.24 208.06 900.99 208.04 902.49 208.05C902.62 189.34 902.78 191.43 902.92 172.72C902.9 169.6 903.98 166.23 906.63 164.33C910.13 161.8 914.41 160.5 918.75 160.5V157.11L604.75 157.01L606.22 159.85L652.78 160.39C657.11 160.41 661.37 161.72 664.84 164.27C667.46 166.19 668.48 169.57 668.41 172.68C668.21 191.38 667.98 189.36 667.78 208.06C669.28 208.07 670.03 208.05 671.53 208.06C673.03 208.07 673.78 208.05 675.28 208.06C675.41 189.35 675.57 191.44 675.71 172.73C675.69 169.61 676.77 166.24 679.42 164.34L702.72 164.28C705.34 166.2 706.36 169.58 706.29 172.69C706.09 191.39 705.86 189.37 705.66 208.07C707.16 208.08 707.91 208.06 709.41 208.07C710.91 208.08 711.66 208.06 713.16 208.07C713.29 189.36 713.45 191.45 713.59 172.74C713.57 169.62 714.65 166.25 717.3 164.35L740.6 164.29C743.22 166.21 744.24 169.59 744.17 172.7C743.97 191.4 743.74 189.38 743.54 208.08C745.04 208.09 745.79 208.07 747.29 208.08C748.79 208.09 749.54 208.07 751.04 208.08C751.17 189.37 751.33 191.46 751.47 172.75C751.45 169.63 752.53 166.26 755.17 164.36L778.47 164.3C781.09 166.22 782.11 169.6 782.04 172.71C781.84 191.41 781.61 189.39 781.41 208.09C782.91 208.1 783.66 208.08 785.16 208.09C786.66 208.1 787.41 208.08 788.91 208.09C789.04 189.38 789.2 191.47 789.34 172.76C789.32 169.64 790.4 166.27 793.05 164.37L816.35 164.31C818.97 166.23 819.99 169.61 819.92 172.72C819.72 191.42 819.49 189.4 819.29 208.1C820.79 208.11 821.54 208.09 823.04 208.1C824.54 208.11 825.29 208.09 826.79 208.1C826.92 189.39 827.08 191.48 827.22 172.77C827.2 169.65 828.28 166.28 830.92 164.38L854.22 164.32C856.84 166.24 857.86 169.62 857.79 172.73C857.59 191.43 857.36 189.41 857.16 208.11C858.66 208.12 859.41 208.1 860.91 208.11C862.41 208.12 863.16 208.1 864.66 208.11C864.79 189.4 864.95 191.49 865.09 172.78C865.07 169.66 866.15 166.29 868.79 164.39L892.09 164.33L892.05 164.26Z" fill="url(#paint4_linear_346_4917)" stroke="#4D5AFF" stroke-miterlimit="10"/>
<path d="M830.69 155.34H788.61C787.72 155.34 786.99 154.61 786.99 153.72V144.65C786.99 143.76 787.72 143.03 788.61 143.03H810.59C829.55 143.03 835.17 155.34 830.69 155.34V155.34Z" fill="url(#paint5_linear_346_4917)" stroke="#4D5AFF" stroke-miterlimit="10"/>
<path d="M794.019 155.33C794.019 156.34 793.199 157.16 792.189 157.16C791.179 157.16 790.359 156.34 790.359 155.33C790.359 154.32 791.179 153.5 792.189 153.5C793.199 153.5 794.019 154.32 794.019 155.33Z" fill="url(#paint6_linear_346_4917)" stroke="#4D5AFF" stroke-miterlimit="10"/>
<path d="M800.09 155.33C800.09 156.34 799.27 157.16 798.26 157.16C797.25 157.16 796.43 156.34 796.43 155.33C796.43 154.32 797.25 153.5 798.26 153.5C799.27 153.5 800.09 154.32 800.09 155.33Z" fill="url(#paint7_linear_346_4917)" stroke="#4D5AFF" stroke-miterlimit="10"/>
<path d="M796.991 154.5H793.391V156.21H796.991V154.5Z" fill="url(#paint8_linear_346_4917)" stroke="#4D5AFF" stroke-miterlimit="10"/>
<path d="M799.689 156.21V154.5H803.28L799.689 156.21Z" fill="url(#paint9_linear_346_4917)" stroke="#4D5AFF" stroke-miterlimit="10"/>
<path d="M790.92 156.21V154.5H787.33L790.92 156.21Z" fill="url(#paint10_linear_346_4917)" stroke="#4D5AFF" stroke-miterlimit="10"/>
<path d="M822.699 155.33C822.699 156.34 821.879 157.16 820.869 157.16C819.859 157.16 819.039 156.34 819.039 155.33C819.039 154.32 819.859 153.5 820.869 153.5C821.879 153.5 822.699 154.32 822.699 155.33Z" fill="url(#paint11_linear_346_4917)" stroke="#4D5AFF" stroke-miterlimit="10"/>
<path d="M828.769 155.33C828.769 156.34 827.949 157.16 826.939 157.16C825.929 157.16 825.109 156.34 825.109 155.33C825.109 154.32 825.929 153.5 826.939 153.5C827.949 153.5 828.769 154.32 828.769 155.33Z" fill="url(#paint12_linear_346_4917)" stroke="#4D5AFF" stroke-miterlimit="10"/>
<path d="M825.67 154.5H822.07V156.21H825.67V154.5Z" fill="url(#paint13_linear_346_4917)" stroke="#4D5AFF" stroke-miterlimit="10"/>
<path d="M828.369 156.21V154.5H831.959L828.369 156.21Z" fill="url(#paint14_linear_346_4917)" stroke="#4D5AFF" stroke-miterlimit="10"/>
<path d="M819.61 156.21V154.5H816.01L819.61 156.21Z" fill="url(#paint15_linear_346_4917)" stroke="#4D5AFF" stroke-miterlimit="10"/>
<path d="M815.77 155.69H804.28L803.82 155.12H816.23L815.77 155.69Z" fill="url(#paint16_linear_346_4917)" stroke="#4D5AFF" stroke-miterlimit="10"/>
<path d="M788.09 144.86H784.16V153.51H788.09V144.86Z" fill="url(#paint17_linear_346_4917)" stroke="#4D5AFF" stroke-miterlimit="10"/>
<path d="M741.19 143.03H783.27C784.16 143.03 784.89 143.76 784.89 144.65V153.72C784.89 154.61 784.16 155.34 783.27 155.34H741.19C740.3 155.34 739.57 154.61 739.57 153.72V144.65C739.57 143.76 740.3 143.03 741.19 143.03Z" fill="url(#paint18_linear_346_4917)" stroke="#4D5AFF" stroke-miterlimit="10"/>
<path d="M746.59 155.33C746.59 156.34 745.77 157.16 744.76 157.16C743.75 157.16 742.93 156.34 742.93 155.33C742.93 154.32 743.75 153.5 744.76 153.5C745.77 153.5 746.59 154.32 746.59 155.33Z" fill="url(#paint19_linear_346_4917)" stroke="#4D5AFF" stroke-miterlimit="10"/>
<path d="M752.66 155.33C752.66 156.34 751.84 157.16 750.83 157.16C749.82 157.16 749 156.34 749 155.33C749 154.32 749.82 153.5 750.83 153.5C751.84 153.5 752.66 154.32 752.66 155.33Z" fill="url(#paint20_linear_346_4917)" stroke="#4D5AFF" stroke-miterlimit="10"/>
<path d="M749.571 154.5H745.971V156.21H749.571V154.5Z" fill="url(#paint21_linear_346_4917)" stroke="#4D5AFF" stroke-miterlimit="10"/>
<path d="M752.27 156.21V154.5H755.859L752.27 156.21Z" fill="url(#paint22_linear_346_4917)" stroke="#4D5AFF" stroke-miterlimit="10"/>
<path d="M743.5 156.21V154.5H739.91L743.5 156.21Z" fill="url(#paint23_linear_346_4917)" stroke="#4D5AFF" stroke-miterlimit="10"/>
<path d="M775.22 155.33C775.22 156.34 774.401 157.16 773.391 157.16C772.381 157.16 771.561 156.34 771.561 155.33C771.561 154.32 772.381 153.5 773.391 153.5C774.401 153.5 775.22 154.32 775.22 155.33Z" fill="url(#paint24_linear_346_4917)" stroke="#4D5AFF" stroke-miterlimit="10"/>
<path d="M781.291 155.33C781.291 156.34 780.471 157.16 779.461 157.16C778.451 157.16 777.631 156.34 777.631 155.33C777.631 154.32 778.451 153.5 779.461 153.5C780.471 153.5 781.291 154.32 781.291 155.33Z" fill="url(#paint25_linear_346_4917)" stroke="#4D5AFF" stroke-miterlimit="10"/>
<path d="M778.202 154.5H774.602V156.21H778.202V154.5Z" fill="url(#paint26_linear_346_4917)" stroke="#4D5AFF" stroke-miterlimit="10"/>
<path d="M780.891 156.21V154.5H784.491L780.891 156.21Z" fill="url(#paint27_linear_346_4917)" stroke="#4D5AFF" stroke-miterlimit="10"/>
<path d="M772.131 156.21V154.5H768.531L772.131 156.21Z" fill="url(#paint28_linear_346_4917)" stroke="#4D5AFF" stroke-miterlimit="10"/>
<path d="M767.981 155.69H756.491L756.031 155.12H768.441L767.981 155.69Z" fill="url(#paint29_linear_346_4917)" stroke="#4D5AFF" stroke-miterlimit="10"/>
<path d="M742.111 146.931H743.991C744.251 146.931 744.461 147.141 744.461 147.401V149.281C744.461 149.541 744.251 149.751 743.991 149.751H742.111C741.851 149.751 741.641 149.541 741.641 149.281V147.401C741.641 147.141 741.851 146.931 742.111 146.931Z" fill="url(#paint30_linear_346_4917)" stroke="#4D5AFF" stroke-miterlimit="10"/>
<path d="M746.39 146.931H748.27C748.53 146.931 748.74 147.141 748.74 147.401V149.281C748.74 149.541 748.53 149.751 748.27 149.751H746.39C746.13 149.751 745.92 149.541 745.92 149.281V147.401C745.92 147.141 746.13 146.931 746.39 146.931Z" fill="url(#paint31_linear_346_4917)" stroke="#4D5AFF" stroke-miterlimit="10"/>
<path d="M752.52 146.931H750.65C750.39 146.931 750.18 147.141 750.18 147.401V149.271C750.18 149.53 750.39 149.741 750.65 149.741H752.52C752.779 149.741 752.99 149.53 752.99 149.271V147.401C752.99 147.141 752.779 146.931 752.52 146.931Z" fill="url(#paint32_linear_346_4917)" stroke="#4D5AFF" stroke-miterlimit="10"/>
<path d="M754.911 146.931H756.792C757.052 146.931 757.261 147.141 757.261 147.401V149.281C757.261 149.541 757.052 149.751 756.792 149.751H754.911C754.651 149.751 754.441 149.541 754.441 149.281V147.401C754.441 147.141 754.651 146.931 754.911 146.931Z" fill="url(#paint33_linear_346_4917)" stroke="#4D5AFF" stroke-miterlimit="10"/>
<path d="M761.041 146.931H759.171C758.912 146.931 758.701 147.141 758.701 147.401V149.271C758.701 149.53 758.912 149.741 759.171 149.741H761.041C761.301 149.741 761.511 149.53 761.511 149.271V147.401C761.511 147.141 761.301 146.931 761.041 146.931Z" fill="url(#paint34_linear_346_4917)" stroke="#4D5AFF" stroke-miterlimit="10"/>
<path d="M763.431 146.931H765.311C765.571 146.931 765.781 147.141 765.781 147.401V149.281C765.781 149.541 765.571 149.751 765.311 149.751H763.431C763.171 149.751 762.961 149.541 762.961 149.281V147.401C762.961 147.141 763.171 146.931 763.431 146.931Z" fill="url(#paint35_linear_346_4917)" stroke="#4D5AFF" stroke-miterlimit="10"/>
<path d="M767.691 146.931H769.571C769.831 146.931 770.041 147.141 770.041 147.401V149.281C770.041 149.541 769.831 149.751 769.571 149.751H767.691C767.431 149.751 767.221 149.541 767.221 149.281V147.401C767.221 147.141 767.431 146.931 767.691 146.931Z" fill="url(#paint36_linear_346_4917)" stroke="#4D5AFF" stroke-miterlimit="10"/>
<path d="M773.82 146.931H771.95C771.691 146.931 771.48 147.141 771.48 147.401V149.271C771.48 149.53 771.691 149.741 771.95 149.741H773.82C774.08 149.741 774.291 149.53 774.291 149.271V147.401C774.291 147.141 774.08 146.931 773.82 146.931Z" fill="url(#paint37_linear_346_4917)" stroke="#4D5AFF" stroke-miterlimit="10"/>
<path d="M778.08 146.931H776.21C775.951 146.931 775.74 147.141 775.74 147.401V149.271C775.74 149.53 775.951 149.741 776.21 149.741H778.08C778.34 149.741 778.55 149.53 778.55 149.271V147.401C778.55 147.141 778.34 146.931 778.08 146.931Z" fill="url(#paint38_linear_346_4917)" stroke="#4D5AFF" stroke-miterlimit="10"/>
<path d="M782.34 146.931H780.47C780.21 146.931 780 147.141 780 147.401V149.271C780 149.53 780.21 149.741 780.47 149.741H782.34C782.6 149.741 782.81 149.53 782.81 149.271V147.401C782.81 147.141 782.6 146.931 782.34 146.931Z" fill="url(#paint39_linear_346_4917)" stroke="#4D5AFF" stroke-miterlimit="10"/>
<path d="M793.01 146.931H791.14C790.88 146.931 790.67 147.141 790.67 147.401V149.271C790.67 149.53 790.88 149.741 791.14 149.741H793.01C793.269 149.741 793.48 149.53 793.48 149.271V147.401C793.48 147.141 793.269 146.931 793.01 146.931Z" fill="url(#paint40_linear_346_4917)" stroke="#4D5AFF" stroke-miterlimit="10"/>
<path d="M797.291 146.931H795.421C795.162 146.931 794.951 147.141 794.951 147.401V149.271C794.951 149.53 795.162 149.741 795.421 149.741H797.291C797.551 149.741 797.761 149.53 797.761 149.271V147.401C797.761 147.141 797.551 146.931 797.291 146.931Z" fill="url(#paint41_linear_346_4917)" stroke="#4D5AFF" stroke-miterlimit="10"/>
<path d="M799.681 146.931H801.561C801.821 146.931 802.031 147.141 802.031 147.401V149.281C802.031 149.541 801.821 149.751 801.561 149.751H799.681C799.421 149.751 799.211 149.541 799.211 149.281V147.401C799.211 147.141 799.421 146.931 799.681 146.931Z" fill="url(#paint42_linear_346_4917)" stroke="#4D5AFF" stroke-miterlimit="10"/>
<path d="M805.811 146.931H803.941C803.681 146.931 803.471 147.141 803.471 147.401V149.271C803.471 149.53 803.681 149.741 803.941 149.741H805.811C806.07 149.741 806.281 149.53 806.281 149.271V147.401C806.281 147.141 806.07 146.931 805.811 146.931Z" fill="url(#paint43_linear_346_4917)" stroke="#4D5AFF" stroke-miterlimit="10"/>
<path d="M810.07 146.931H808.2C807.941 146.931 807.73 147.141 807.73 147.401V149.271C807.73 149.53 807.941 149.741 808.2 149.741H810.07C810.33 149.741 810.541 149.53 810.541 149.271V147.401C810.541 147.141 810.33 146.931 810.07 146.931Z" fill="url(#paint44_linear_346_4917)" stroke="#4D5AFF" stroke-miterlimit="10"/>
<path d="M814.33 146.931H812.46C812.201 146.931 811.99 147.141 811.99 147.401V149.271C811.99 149.53 812.201 149.741 812.46 149.741H814.33C814.59 149.741 814.8 149.53 814.8 149.271V147.401C814.8 147.141 814.59 146.931 814.33 146.931Z" fill="url(#paint45_linear_346_4917)" stroke="#4D5AFF" stroke-miterlimit="10"/>
<path d="M818.04 146.931H818.49C818.75 146.931 818.96 147.141 818.96 147.401V149.281C818.96 149.541 818.75 149.751 818.49 149.751H818.04C817.78 149.751 817.57 149.541 817.57 149.281V147.401C817.57 147.141 817.78 146.931 818.04 146.931Z" fill="url(#paint46_linear_346_4917)" stroke="#4D5AFF" stroke-miterlimit="10"/>
<path d="M824.85 149.751H819.98C819.72 149.751 819.51 149.541 819.51 149.281V147.401C819.51 147.141 819.72 146.931 819.98 146.931H821.86C823.69 146.931 827.84 149.741 824.85 149.741V149.751Z" fill="url(#paint47_linear_346_4917)" stroke="#4D5AFF" stroke-miterlimit="10"/>
<path d="M740.131 144.86H736.201V153.51H740.131V144.86Z" fill="url(#paint48_linear_346_4917)" stroke="#4D5AFF" stroke-miterlimit="10"/>
<path d="M735.311 143.03H693.231C692.337 143.03 691.611 143.756 691.611 144.65V153.72C691.611 154.615 692.337 155.34 693.231 155.34H735.311C736.206 155.34 736.931 154.615 736.931 153.72V144.65C736.931 143.756 736.206 143.03 735.311 143.03Z" fill="url(#paint49_linear_346_4917)" stroke="#4D5AFF" stroke-miterlimit="10"/>
<path d="M698.631 155.33C698.631 156.34 697.811 157.16 696.801 157.16C695.791 157.16 694.971 156.34 694.971 155.33C694.971 154.32 695.791 153.5 696.801 153.5C697.811 153.5 698.631 154.32 698.631 155.33Z" fill="url(#paint50_linear_346_4917)" stroke="#4D5AFF" stroke-miterlimit="10"/>
<path d="M704.701 155.33C704.701 156.34 703.881 157.16 702.871 157.16C701.861 157.16 701.041 156.34 701.041 155.33C701.041 154.32 701.861 153.5 702.871 153.5C703.881 153.5 704.701 154.32 704.701 155.33Z" fill="url(#paint51_linear_346_4917)" stroke="#4D5AFF" stroke-miterlimit="10"/>
<path d="M701.612 154.5H698.012V156.21H701.612V154.5Z" fill="url(#paint52_linear_346_4917)" stroke="#4D5AFF" stroke-miterlimit="10"/>
<path d="M704.301 156.21V154.5H707.901L704.301 156.21Z" fill="url(#paint53_linear_346_4917)" stroke="#4D5AFF" stroke-miterlimit="10"/>
<path d="M695.541 156.21V154.5H691.941L695.541 156.21Z" fill="url(#paint54_linear_346_4917)" stroke="#4D5AFF" stroke-miterlimit="10"/>
<path d="M727.252 155.33C727.252 156.34 726.432 157.16 725.422 157.16C724.412 157.16 723.592 156.34 723.592 155.33C723.592 154.32 724.412 153.5 725.422 153.5C726.432 153.5 727.252 154.32 727.252 155.33Z" fill="url(#paint55_linear_346_4917)" stroke="#4D5AFF" stroke-miterlimit="10"/>
<path d="M733.322 155.33C733.322 156.34 732.502 157.16 731.492 157.16C730.482 157.16 729.662 156.34 729.662 155.33C729.662 154.32 730.482 153.5 731.492 153.5C732.502 153.5 733.322 154.32 733.322 155.33Z" fill="url(#paint56_linear_346_4917)" stroke="#4D5AFF" stroke-miterlimit="10"/>
<path d="M730.233 154.5H726.633V156.21H730.233V154.5Z" fill="url(#paint57_linear_346_4917)" stroke="#4D5AFF" stroke-miterlimit="10"/>
<path d="M732.922 156.21V154.5H736.522L732.922 156.21Z" fill="url(#paint58_linear_346_4917)" stroke="#4D5AFF" stroke-miterlimit="10"/>
<path d="M724.162 156.21V154.5H720.572L724.162 156.21Z" fill="url(#paint59_linear_346_4917)" stroke="#4D5AFF" stroke-miterlimit="10"/>
<path d="M720.012 155.69H708.522L708.072 155.12H720.472L720.012 155.69Z" fill="url(#paint60_linear_346_4917)" stroke="#4D5AFF" stroke-miterlimit="10"/>
<path d="M694.152 146.931H696.032C696.292 146.931 696.502 147.141 696.502 147.401V149.281C696.502 149.541 696.292 149.751 696.032 149.751H694.152C693.892 149.751 693.682 149.541 693.682 149.281V147.401C693.682 147.141 693.892 146.931 694.152 146.931Z" fill="url(#paint61_linear_346_4917)" stroke="#4D5AFF" stroke-miterlimit="10"/>
<path d="M700.301 146.931H698.431C698.171 146.931 697.961 147.141 697.961 147.401V149.271C697.961 149.53 698.171 149.741 698.431 149.741H700.301C700.56 149.741 700.771 149.53 700.771 149.271V147.401C700.771 147.141 700.56 146.931 700.301 146.931Z" fill="url(#paint62_linear_346_4917)" stroke="#4D5AFF" stroke-miterlimit="10"/>
<path d="M704.561 146.931H702.691C702.431 146.931 702.221 147.141 702.221 147.401V149.271C702.221 149.53 702.431 149.741 702.691 149.741H704.561C704.82 149.741 705.031 149.53 705.031 149.271V147.401C705.031 147.141 704.82 146.931 704.561 146.931Z" fill="url(#paint63_linear_346_4917)" stroke="#4D5AFF" stroke-miterlimit="10"/>
<path d="M706.941 146.931H708.821C709.081 146.931 709.291 147.141 709.291 147.401V149.281C709.291 149.541 709.081 149.751 708.821 149.751H706.941C706.681 149.751 706.471 149.541 706.471 149.281V147.401C706.471 147.141 706.681 146.931 706.941 146.931Z" fill="url(#paint64_linear_346_4917)" stroke="#4D5AFF" stroke-miterlimit="10"/>
<path d="M711.202 146.931H713.082C713.342 146.931 713.552 147.141 713.552 147.401V149.281C713.552 149.541 713.342 149.751 713.082 149.751H711.202C710.942 149.751 710.732 149.541 710.732 149.281V147.401C710.732 147.141 710.942 146.931 711.202 146.931Z" fill="url(#paint65_linear_346_4917)" stroke="#4D5AFF" stroke-miterlimit="10"/>
<path d="M717.342 146.931H715.472C715.212 146.931 715.002 147.141 715.002 147.401V149.271C715.002 149.53 715.212 149.741 715.472 149.741H717.342C717.602 149.741 717.812 149.53 717.812 149.271V147.401C717.812 147.141 717.602 146.931 717.342 146.931Z" fill="url(#paint66_linear_346_4917)" stroke="#4D5AFF" stroke-miterlimit="10"/>
<path d="M719.732 146.931H721.612C721.872 146.931 722.082 147.141 722.082 147.401V149.281C722.082 149.541 721.872 149.751 721.612 149.751H719.732C719.472 149.751 719.262 149.541 719.262 149.281V147.401C719.262 147.141 719.472 146.931 719.732 146.931Z" fill="url(#paint67_linear_346_4917)" stroke="#4D5AFF" stroke-miterlimit="10"/>
<path d="M723.991 146.931H725.871C726.131 146.931 726.341 147.141 726.341 147.401V149.281C726.341 149.541 726.131 149.751 725.871 149.751H723.991C723.731 149.751 723.521 149.541 723.521 149.281V147.401C723.521 147.141 723.731 146.931 723.991 146.931Z" fill="url(#paint68_linear_346_4917)" stroke="#4D5AFF" stroke-miterlimit="10"/>
<path d="M730.121 146.931H728.251C727.992 146.931 727.781 147.141 727.781 147.401V149.271C727.781 149.53 727.992 149.741 728.251 149.741H730.121C730.381 149.741 730.591 149.53 730.591 149.271V147.401C730.591 147.141 730.381 146.931 730.121 146.931Z" fill="url(#paint69_linear_346_4917)" stroke="#4D5AFF" stroke-miterlimit="10"/>
<path d="M734.381 146.931H732.511C732.251 146.931 732.041 147.141 732.041 147.401V149.271C732.041 149.53 732.251 149.741 732.511 149.741H734.381C734.641 149.741 734.851 149.53 734.851 149.271V147.401C734.851 147.141 734.641 146.931 734.381 146.931Z" fill="url(#paint70_linear_346_4917)" stroke="#4D5AFF" stroke-miterlimit="10"/>
<path d="M692.16 144.86H688.23V153.51H692.16V144.86Z" fill="url(#paint71_linear_346_4917)" stroke="#4D5AFF" stroke-miterlimit="10"/>
<path d="M687.341 143.03H645.261C644.366 143.03 643.641 143.756 643.641 144.65V153.72C643.641 154.615 644.366 155.34 645.261 155.34H687.341C688.235 155.34 688.961 154.615 688.961 153.72V144.65C688.961 143.756 688.235 143.03 687.341 143.03Z" fill="url(#paint72_linear_346_4917)" stroke="#4D5AFF" stroke-miterlimit="10"/>
<path d="M650.66 155.33C650.66 156.34 649.84 157.16 648.83 157.16C647.82 157.16 647 156.34 647 155.33C647 154.32 647.82 153.5 648.83 153.5C649.84 153.5 650.66 154.32 650.66 155.33Z" fill="url(#paint73_linear_346_4917)" stroke="#4D5AFF" stroke-miterlimit="10"/>
<path d="M656.74 155.33C656.74 156.34 655.92 157.16 654.91 157.16C653.9 157.16 653.08 156.34 653.08 155.33C653.08 154.32 653.9 153.5 654.91 153.5C655.92 153.5 656.74 154.32 656.74 155.33Z" fill="url(#paint74_linear_346_4917)" stroke="#4D5AFF" stroke-miterlimit="10"/>
<path d="M653.641 154.5H650.041V156.21H653.641V154.5Z" fill="url(#paint75_linear_346_4917)" stroke="#4D5AFF" stroke-miterlimit="10"/>
<path d="M656.34 156.21V154.5H659.93L656.34 156.21Z" fill="url(#paint76_linear_346_4917)" stroke="#4D5AFF" stroke-miterlimit="10"/>
<path d="M647.581 156.21V154.5H643.98L647.581 156.21Z" fill="url(#paint77_linear_346_4917)" stroke="#4D5AFF" stroke-miterlimit="10"/>
<path d="M679.291 155.33C679.291 156.34 678.471 157.16 677.461 157.16C676.451 157.16 675.631 156.34 675.631 155.33C675.631 154.32 676.451 153.5 677.461 153.5C678.471 153.5 679.291 154.32 679.291 155.33Z" fill="url(#paint78_linear_346_4917)" stroke="#4D5AFF" stroke-miterlimit="10"/>
<path d="M685.361 155.33C685.361 156.34 684.541 157.16 683.531 157.16C682.521 157.16 681.701 156.34 681.701 155.33C681.701 154.32 682.521 153.5 683.531 153.5C684.541 153.5 685.361 154.32 685.361 155.33Z" fill="url(#paint79_linear_346_4917)" stroke="#4D5AFF" stroke-miterlimit="10"/>
<path d="M682.272 154.5H678.672V156.21H682.272V154.5Z" fill="url(#paint80_linear_346_4917)" stroke="#4D5AFF" stroke-miterlimit="10"/>
<path d="M684.961 156.21V154.5H688.561L684.961 156.21Z" fill="url(#paint81_linear_346_4917)" stroke="#4D5AFF" stroke-miterlimit="10"/>
<path d="M676.202 156.21V154.5H672.602L676.202 156.21Z" fill="url(#paint82_linear_346_4917)" stroke="#4D5AFF" stroke-miterlimit="10"/>
<path d="M672.052 155.69H660.562L660.102 155.12H672.512L672.052 155.69Z" fill="url(#paint83_linear_346_4917)" stroke="#4D5AFF" stroke-miterlimit="10"/>
<path d="M648.061 146.931H646.191C645.931 146.931 645.721 147.141 645.721 147.401V149.271C645.721 149.53 645.931 149.741 646.191 149.741H648.061C648.32 149.741 648.531 149.53 648.531 149.271V147.401C648.531 147.141 648.32 146.931 648.061 146.931Z" fill="url(#paint84_linear_346_4917)" stroke="#4D5AFF" stroke-miterlimit="10"/>
<path d="M652.33 146.931H650.46C650.201 146.931 649.99 147.141 649.99 147.401V149.271C649.99 149.53 650.201 149.741 650.46 149.741H652.33C652.59 149.741 652.8 149.53 652.8 149.271V147.401C652.8 147.141 652.59 146.931 652.33 146.931Z" fill="url(#paint85_linear_346_4917)" stroke="#4D5AFF" stroke-miterlimit="10"/>
<path d="M654.72 146.931H656.6C656.86 146.931 657.07 147.141 657.07 147.401V149.281C657.07 149.541 656.86 149.751 656.6 149.751H654.72C654.46 149.751 654.25 149.541 654.25 149.281V147.401C654.25 147.141 654.46 146.931 654.72 146.931Z" fill="url(#paint86_linear_346_4917)" stroke="#4D5AFF" stroke-miterlimit="10"/>
<path d="M660.852 146.931H658.982C658.722 146.931 658.512 147.141 658.512 147.401V149.271C658.512 149.53 658.722 149.741 658.982 149.741H660.852C661.111 149.741 661.322 149.53 661.322 149.271V147.401C661.322 147.141 661.111 146.931 660.852 146.931Z" fill="url(#paint87_linear_346_4917)" stroke="#4D5AFF" stroke-miterlimit="10"/>
<path d="M663.241 146.931H665.121C665.381 146.931 665.591 147.141 665.591 147.401V149.281C665.591 149.541 665.381 149.751 665.121 149.751H663.241C662.981 149.751 662.771 149.541 662.771 149.281V147.401C662.771 147.141 662.981 146.931 663.241 146.931Z" fill="url(#paint88_linear_346_4917)" stroke="#4D5AFF" stroke-miterlimit="10"/>
<path d="M669.371 146.931H667.501C667.242 146.931 667.031 147.141 667.031 147.401V149.271C667.031 149.53 667.242 149.741 667.501 149.741H669.371C669.631 149.741 669.841 149.53 669.841 149.271V147.401C669.841 147.141 669.631 146.931 669.371 146.931Z" fill="url(#paint89_linear_346_4917)" stroke="#4D5AFF" stroke-miterlimit="10"/>
<path d="M673.631 146.931H671.761C671.501 146.931 671.291 147.141 671.291 147.401V149.271C671.291 149.53 671.501 149.741 671.761 149.741H673.631C673.891 149.741 674.101 149.53 674.101 149.271V147.401C674.101 147.141 673.891 146.931 673.631 146.931Z" fill="url(#paint90_linear_346_4917)" stroke="#4D5AFF" stroke-miterlimit="10"/>
<path d="M676.021 146.931H677.901C678.161 146.931 678.371 147.141 678.371 147.401V149.281C678.371 149.541 678.161 149.751 677.901 149.751H676.021C675.761 149.751 675.551 149.541 675.551 149.281V147.401C675.551 147.141 675.761 146.931 676.021 146.931Z" fill="url(#paint91_linear_346_4917)" stroke="#4D5AFF" stroke-miterlimit="10"/>
<path d="M682.151 146.931H680.281C680.021 146.931 679.811 147.141 679.811 147.401V149.271C679.811 149.53 680.021 149.741 680.281 149.741H682.151C682.41 149.741 682.621 149.53 682.621 149.271V147.401C682.621 147.141 682.41 146.931 682.151 146.931Z" fill="url(#paint92_linear_346_4917)" stroke="#4D5AFF" stroke-miterlimit="10"/>
<path d="M686.42 146.931H684.55C684.29 146.931 684.08 147.141 684.08 147.401V149.271C684.08 149.53 684.29 149.741 684.55 149.741H686.42C686.68 149.741 686.89 149.53 686.89 149.271V147.401C686.89 147.141 686.68 146.931 686.42 146.931Z" fill="url(#paint93_linear_346_4917)" stroke="#4D5AFF" stroke-miterlimit="10"/>
<path d="M918.74 157.12H901.72L917.07 141.84L918.73 143.5V139.78H544.49V141.49H567.46L552.11 156.77L544.49 149.18V151.6L550.04 157.12H544.49V158.83H918.73V157.12H918.74ZM554.2 157.12L569.55 141.84L584.85 157.12H554.2ZM571.62 141.49H602.14L586.92 156.76L571.62 141.49ZM588.99 157.12L604.22 141.85L619.56 157.12H588.99ZM606.29 141.49H636.98L621.63 156.77L606.29 141.49ZM623.71 157.12L639.06 141.84L654.36 157.12H623.71ZM641.13 141.49H671.65L656.42 156.76L641.12 141.49H641.13ZM658.5 157.12L673.73 141.85L689.07 157.12H658.5ZM675.8 141.49H706.49L691.14 156.77L675.8 141.49ZM693.22 157.12L708.57 141.84L723.87 157.12H693.22ZM710.64 141.49H741.17L725.95 156.76L710.65 141.49H710.64ZM728.01 157.12L743.24 141.85L758.58 157.12H728.02H728.01ZM745.31 141.49H776L760.65 156.77L745.31 141.49V141.49ZM762.73 157.12L778.08 141.84L793.38 157.12H762.73V157.12ZM780.15 141.49H810.68L795.46 156.76L780.16 141.49H780.15ZM797.52 157.12L812.75 141.85L828.09 157.12H797.52ZM814.82 141.49H845.51L830.16 156.77L814.82 141.49V141.49ZM832.24 157.12L847.59 141.84L862.89 157.12H832.24V157.12ZM849.66 141.49H880.19L864.97 156.76L849.67 141.49H849.66ZM867.03 157.12L882.26 141.85L897.6 157.12H867.03ZM884.33 141.49H915.02L899.67 156.77L884.33 141.49V141.49Z" fill="url(#paint94_linear_346_4917)" stroke="#4D5AFF" stroke-miterlimit="10"/>
<path opacity="0.6" d="M527.379 99.6804H546.579L548.259 91.6504H559.259V206.93H527.379V99.6804Z" fill="url(#paint95_linear_346_4917)" stroke="#4D5AFF" stroke-miterlimit="10"/>
<path opacity="0.6" d="M456.879 55.8604V88.7904L474.659 106.57V194.78H433.949V55.8604H456.879Z" fill="url(#paint96_linear_346_4917)" stroke="#4D5AFF" stroke-miterlimit="10"/>
<path opacity="0.5" d="M276.349 76.6502C278.979 76.2002 282.389 75.9502 285.969 75.9502C289.549 75.9502 292.959 76.2002 295.589 76.6502C299.439 77.3202 299.489 78.0502 299.489 78.0502V105.33H312.679V194.78H272.459V78.0602C272.459 78.0602 272.499 77.3202 276.359 76.6602L276.349 76.6502Z" fill="url(#paint97_linear_346_4917)" stroke="#4D5AFF" stroke-miterlimit="10"/>
<path d="M207.9 90.1902V78.9902H224.14V194.78H194.25V90.1902H207.9Z" fill="url(#paint98_linear_346_4917)" stroke="#4D5AFF" stroke-miterlimit="10"/>
<path d="M342.399 98.6008C350.259 102.671 359.639 111.311 359.639 129.391V194.781H325.299V94.0508C326.539 94.0908 334.519 94.5108 342.409 98.5908L342.399 98.6008Z" fill="url(#paint99_linear_346_4917)" stroke="#4D5AFF" stroke-miterlimit="10"/>
<path d="M404.38 76.0606C402.13 75.6006 399.2 75.3506 396.14 75.3506C393.08 75.3506 390.15 75.6006 387.9 76.0606C384.6 76.7306 384.56 77.4606 384.56 77.4706V104.911H373.26V194.781H407.72V77.4706C407.72 77.4706 407.68 76.7306 404.38 76.0606Z" fill="url(#paint100_linear_346_4917)" stroke="#4D5AFF" stroke-miterlimit="10"/>
<path d="M319.858 125.641L332.738 112.761L345.518 125.551V194.781H279.398V125.641H319.858Z" fill="url(#paint101_linear_346_4917)" stroke="#4D5AFF" stroke-miterlimit="10"/>
<path d="M198.32 76.8008V194.781H169.68V106.001L198.32 76.8008Z" fill="url(#paint102_linear_346_4917)" stroke="#4D5AFF" stroke-miterlimit="10"/>
<path d="M515.199 77.0508V203.621H484.129V108.721L515.199 77.0508Z" fill="url(#paint103_linear_346_4917)" stroke="#4D5AFF" stroke-miterlimit="10"/>
<path d="M224.548 112.29L225.738 105.12H243.658L245.128 97.7803H259.728L261.208 105.12H279.118L280.318 112.29H293.958V194.78H210.908V112.29H224.548Z" fill="url(#paint104_linear_346_4917)" stroke="#4D5AFF" stroke-miterlimit="10"/>
<path d="M526.018 111.84C533.878 115.91 543.258 124.55 543.258 142.63V208.02H508.908V107.29C510.148 107.33 518.128 107.75 526.018 111.83V111.84Z" fill="url(#paint105_linear_346_4917)" stroke="#4D5AFF" stroke-miterlimit="10"/>
<path d="M315.369 84.1406C310.269 88.2106 304.189 96.8506 304.189 114.931V194.781H326.479V79.6006C325.679 79.6406 320.499 80.0606 315.379 84.1406H315.369Z" fill="url(#paint106_linear_346_4917)" stroke="#4D5AFF" stroke-miterlimit="10"/>
<path d="M442.93 96.1807L444.82 103.521H467.66L469.18 110.681H486.58V194.781H433.75V96.1807H442.93Z" fill="url(#paint107_linear_346_4917)" stroke="#4D5AFF" stroke-miterlimit="10"/>
<path d="M380.67 110.681H398.07L399.59 103.521H422.43L424.32 96.1807H433.75V194.781H380.67V110.681Z" fill="url(#paint108_linear_346_4917)" stroke="#4D5AFF" stroke-miterlimit="10"/>
<path d="M376.229 93.0703V126.01L394.009 143.79V194.78H353.299V93.0703H376.229Z" fill="url(#paint109_linear_346_4917)" stroke="#4D5AFF" stroke-miterlimit="10"/>
<path d="M422.669 86.8799V65.71H445.149V194.78H403.779V86.8799H422.669Z" fill="url(#paint110_linear_346_4917)" stroke="#4D5AFF" stroke-miterlimit="10"/>
<path d="M465.39 103.6C468.02 103.27 471.43 103.08 475.01 103.08C478.59 103.08 482 103.26 484.63 103.6C488.48 104.09 488.53 104.62 488.53 104.63V124.66H501.72V194.78H461.5V104.63C461.5 104.63 461.54 104.09 465.4 103.6H465.39Z" fill="url(#paint111_linear_346_4917)" stroke="#4D5AFF" stroke-miterlimit="10"/>
<path d="M172.619 103.6C169.989 103.27 166.579 103.08 162.999 103.08C159.419 103.08 156.009 103.26 153.379 103.6C149.529 104.09 149.479 104.62 149.479 104.63V124.66H136.289V194.78H176.509V104.63C176.509 104.63 176.469 104.09 172.609 103.6H172.619Z" fill="url(#paint112_linear_346_4917)" stroke="#4D5AFF" stroke-miterlimit="10"/>
<path opacity="0.6" d="M95.0801 99.6804H114.29L115.97 91.6504H126.97V206.93H95.0801V99.6804Z" fill="url(#paint113_linear_346_4917)" stroke="#4D5AFF" stroke-miterlimit="10"/>
<path opacity="0.6" d="M24.5901 55.8604V88.7904L42.3701 106.57V194.78H1.66016V55.8604H24.5901Z" fill="url(#paint114_linear_346_4917)" stroke="#4D5AFF" stroke-miterlimit="10"/>
<path d="M82.9099 77.0508V203.621H51.8398V108.721L82.9099 77.0508Z" fill="url(#paint115_linear_346_4917)" stroke="#4D5AFF" stroke-miterlimit="10"/>
<path d="M93.7194 111.84C101.579 115.91 110.959 124.55 110.959 142.63V208.02H76.6094V107.29C77.8494 107.33 85.8294 107.75 93.7194 111.83V111.84Z" fill="url(#paint116_linear_346_4917)" stroke="#4D5AFF" stroke-miterlimit="10"/>
<path d="M10.641 96.1807L12.5309 103.521H35.3709L36.891 110.681H54.291V194.781H1.46094V96.1807H10.641Z" fill="url(#paint117_linear_346_4917)" stroke="#4D5AFF" stroke-miterlimit="10"/>
<path d="M-51.6309 110.681H-34.2209L-32.7009 103.521H-9.86084L-7.98087 96.1807H1.45914V194.781H-51.6309V110.681Z" fill="url(#paint118_linear_346_4917)" stroke="#4D5AFF" stroke-miterlimit="10"/>
<path d="M-9.61975 86.8799V65.71H12.8602V194.78H-28.5098V86.8799H-9.61975Z" fill="url(#paint119_linear_346_4917)" stroke="#4D5AFF" stroke-miterlimit="10"/>
<path d="M33.101 103.6C35.731 103.27 39.1409 103.08 42.7209 103.08C46.3009 103.08 49.7109 103.26 52.3409 103.6C56.1909 104.09 56.2409 104.62 56.2409 104.63V124.66H69.4309V194.78H29.2109V104.63C29.2109 104.63 29.2509 104.09 33.1109 103.6H33.101Z" fill="url(#paint120_linear_346_4917)" stroke="#4D5AFF" stroke-miterlimit="10"/>
<path d="M410.799 179.96C428.899 165.01 450.409 142.62 478.449 147.86C486.369 149.34 494.519 151.76 502.739 149.67C509.789 147.87 516.149 143.61 521.729 139.75C537.489 128.84 569.419 122.46 586.619 133.76C588.699 135.12 590.479 136.61 591.929 138.24C600.579 140.35 609.989 138.39 618.899 139.07C628.859 139.83 633.809 143.53 640.409 147.6C647.319 151.85 654.069 157.15 662.299 163.02C670.939 169.18 691.869 174.12 691.079 182.07C690.589 186.98 706.129 199.74 707.259 204.66C707.039 203.69 682.129 203.55 680.459 203.49C632.039 201.68 583.619 199.26 535.299 196.62C519.519 195.76 503.649 196.02 487.889 195.07C471.589 194.09 455.579 192.3 439.149 192.48C433.099 192.55 424.649 194.49 419.029 192.76C414.909 191.49 408.299 186.16 409.289 182.2C409.509 181.32 410.039 180.58 410.799 179.96V179.96Z" fill="url(#paint121_linear_346_4917)" stroke="#4D5AFF" stroke-miterlimit="10"/>
<path d="M162.229 177.26C178.749 173.75 196.369 174.23 212.519 177.39C233.969 181.6 244.959 181.23 262.149 174.2C274.949 168.97 290.679 165.63 308.049 168.74C322.609 171.34 335.249 178.85 352.689 176.37C370.159 173.89 377.789 164.45 398.189 163.88C417.419 163.34 438.719 171.38 448.489 177.34C468.429 189.5 542.799 180.85 564.559 193.64C576.449 200.63 576.239 211.11 573.849 220.86H136.289V190.1C146.209 186.6 149.379 179.99 162.229 177.25V177.26Z" fill="url(#paint122_linear_346_4917)" stroke="#4D5AFF" stroke-miterlimit="10"/>
<path d="M320.7 215.82C324.02 210.28 340.43 208.74 347.02 205.79C358.59 200.61 367.32 193.81 374.93 185.86C385.62 174.7 396.89 165.08 412.59 157.08C412.59 157.08 412.6 157.08 412.61 157.07C437.47 144.4 467.03 155.24 487.19 165.61C503.69 174.09 519.45 177.99 537.64 177.26C545.56 176.94 561.81 166.07 568.5 161.05C578.18 153.79 599.43 151.18 611.09 152.7C625.71 154.6 635.38 168.62 647.99 171.02C666.48 174.54 680.15 169.17 695.32 182.09C699.78 185.89 700.94 202.19 705.35 206.21C710.6 210.98 718.32 214.24 722.06 220.89H317.92C318.66 218.43 319.28 218.17 320.69 215.83L320.7 215.82Z" fill="url(#paint123_linear_346_4917)" stroke="#4D5AFF" stroke-miterlimit="10"/>
<path opacity="0.6" d="M1285.9 104.83L1271.71 219.99H1058.75L907.689 220.86C907.689 220.86 1071.61 77.4601 1076.54 73.5201C1082.53 68.7301 1097.23 55.1801 1104.69 55.8701C1115.45 56.8701 1131.1 77.7201 1140.38 84.1401C1149.43 90.4001 1167.42 104.73 1177.83 106.52C1193.48 109.21 1224.26 92.9402 1240.08 93.2402C1251.8 93.4602 1285.91 104.82 1285.91 104.82L1285.9 104.83Z" fill="url(#paint124_linear_346_4917)" stroke="#4D5AFF" stroke-miterlimit="10"/>
<path d="M1699.67 220C1699.67 220 1565.15 172.21 1524.82 146.08C1508.02 135.2 1482.18 101.36 1465.11 90.9897C1455.17 84.9497 1431.47 82.3297 1421.86 75.6897C1410.9 68.1197 1399.09 36.0996 1386.23 34.4696C1369.12 32.2996 1344.63 68.8796 1328.68 75.9996C1314.89 82.1496 1284.54 83.9196 1270.23 88.3996C1256.16 92.8096 1229.79 107.52 1215.58 111.34C1210.33 112.75 1199.18 112.04 1194.1 114.08C1187.31 116.8 1176.68 128.54 1170.02 131.6C1157.46 137.37 1129.49 138.72 1116.73 143.94C1101.2 150.29 1058.74 179.18 1058.74 179.18V220H1699.66H1699.67Z" fill="url(#paint125_linear_346_4917)" stroke="#4D5AFF" stroke-miterlimit="10"/>
<path opacity="0.1" d="M1388.03 64.5394C1381.19 75.6494 1354.42 80.9494 1342.65 84.5894C1313.03 93.7394 1231 138.339 1218.38 110.509C1233.04 105.729 1257.04 92.5394 1270.23 88.4094C1284.54 83.9194 1314.9 82.1594 1328.68 76.0094C1344.63 68.8894 1369.12 32.3094 1386.23 34.4794C1388.01 34.7094 1389.77 35.5094 1391.51 36.7594C1393.47 45.1894 1391.27 59.2994 1388.04 64.5494L1388.03 64.5394Z" fill="black" stroke="#4D5AFF" stroke-miterlimit="10"/>
<path d="M1634.76 220C1634.76 220 1651.13 114.32 1635.52 83.9103C1624.97 63.3603 1579.78 41.4503 1559.78 29.3403C1557.37 27.8803 1552.52 24.0403 1549.7 24.2803C1532.36 25.7503 1511.55 66.1503 1494.17 65.3003C1492.11 65.2003 1490.13 60.2303 1488.11 59.8103C1471.44 56.3303 1439.32 74.9303 1423.51 81.1703C1415.14 84.4703 1398.94 92.2803 1390.89 96.2503C1382.06 100.6 1365.39 111.44 1356.01 114.51C1344.08 118.42 1318.51 119.16 1306.3 122.13C1295.48 124.76 1275.2 134.99 1264.14 136.34C1255.41 137.41 1237.6 131.39 1229.07 133.49C1222.35 135.15 1211.73 144.74 1205.82 148.28C1195.16 154.66 1173.83 167.55 1162.48 172.66C1148.14 179.12 1116.15 184.83 1102.98 193.34C1095.26 198.33 1077.9 219.98 1077.9 219.98H1634.77L1634.76 220Z" fill="url(#paint126_linear_346_4917)" stroke="#4D5AFF" stroke-miterlimit="10"/>
<path opacity="0.1" d="M1550.05 58.2099C1543.22 68.5999 1516.21 75.2698 1504.09 78.7498C1476.74 86.5998 1382.63 124.04 1339.2 119.93C1337.9 119.81 1338.58 118.94 1340.7 117.54C1346.64 116.75 1352.07 115.8 1356.01 114.51C1365.39 111.43 1382.05 100.6 1390.89 96.2498C1398.95 92.2798 1415.15 84.4699 1423.51 81.1699C1439.32 74.9299 1471.44 56.3299 1488.11 59.8099C1490.13 60.2299 1492.11 65.1999 1494.17 65.2999C1511.55 66.1499 1532.36 25.7499 1549.7 24.2799C1551.74 24.1099 1554.84 26.0699 1557.31 27.7199C1558.28 37.2199 1553.65 52.7299 1550.05 58.2199V58.2099Z" fill="black" stroke="#4D5AFF" stroke-miterlimit="10"/>
<path d="M1407.76 123.51C1439.66 121.37 1504.37 112.47 1533.52 97.71C1562.1 83.24 1601.65 18.56 1632.17 10.62C1636.88 9.4 1646.74 12.77 1651.07 15.18C1659 19.61 1669.11 40.63 1677.95 41.15C1693.19 42.04 1728.15 2 1728.15 2V219.99H1136.63C1136.63 219.99 1206.74 187.93 1230.99 180.29C1245.37 175.76 1275.69 173.7 1289.65 167.75C1308.93 159.52 1340.48 125.73 1360.52 120.26C1372.02 117.12 1395.95 124.3 1407.76 123.51V123.51Z" fill="url(#paint127_linear_346_4917)" stroke="#4D5AFF" stroke-miterlimit="10"/>
<path opacity="0.1" d="M1537.41 111.07C1499.25 130.2 1413.6 132.93 1372.63 142.07C1352.5 146.56 1302.4 181.98 1289.18 167.96C1289.34 167.89 1289.5 167.83 1289.66 167.76C1308.94 159.53 1340.49 125.74 1360.53 120.27C1372.03 117.13 1395.96 124.31 1407.77 123.52C1439.67 121.38 1504.38 112.48 1533.53 97.72C1562.11 83.25 1601.66 18.5701 1632.18 10.6301C1636.17 9.59005 1643.85 11.8501 1648.75 14.0401C1652.91 52.3301 1569.13 95.18 1537.41 111.08V111.07Z" fill="black" stroke="#4D5AFF" stroke-miterlimit="10"/>
<path d="M1507.71 110.22C1524.81 104.02 1562.51 106.5 1579.92 101.22C1619.6 89.1798 1728.16 26.7998 1728.16 26.7998V219.99H1184.67C1184.67 219.99 1300.67 171.99 1341.57 164.27C1362.78 160.27 1407.24 167.93 1427.85 161.52C1450.51 154.47 1485.4 118.29 1507.71 110.21V110.22Z" fill="url(#paint128_linear_346_4917)" stroke="#4D5AFF" stroke-miterlimit="10"/>
<path opacity="0.1" d="M1450.67 157.54C1479.1 152.51 1534.19 132.28 1559 117.5C1564.61 114.16 1579.62 106.92 1582.15 100.51C1581.38 100.76 1580.64 101 1579.92 101.22C1562.51 106.5 1524.81 104.03 1507.71 110.22C1486.98 117.73 1455.41 149.48 1432.86 159.6C1437.56 160.72 1446.78 158.22 1450.67 157.53V157.54Z" fill="black" stroke="#4D5AFF" stroke-miterlimit="10"/>
<path opacity="0.1" d="M1355.4 177.26C1360.37 165.5 1330.44 178.51 1329.87 176.63C1328.63 172.56 1343.9 167.85 1341.58 164.28C1300.68 172 1184.68 220 1184.68 220H1221.63C1221.63 220 1342.2 208.47 1355.41 177.26H1355.4Z" fill="black" stroke="#4D5AFF" stroke-miterlimit="10"/>
<path d="M1441.69 178.34C1477.06 167.17 1554.18 168.45 1587.87 152.94C1618.91 138.65 1659.2 69.4703 1693.18 65.8103C1702.97 64.7603 1728.17 83.8802 1728.17 83.8802V220H1353.09C1353.09 220 1418.35 185.71 1441.69 178.34V178.34Z" fill="url(#paint129_linear_346_4917)" stroke="#4D5AFF" stroke-miterlimit="10"/>
<path opacity="0.1" d="M1593.22 170.281C1612.29 160.851 1653.52 112.641 1674.77 113.451C1677.12 113.541 1678.64 120.701 1680.99 120.511C1696.34 119.281 1704.75 75.9705 1693.17 65.8105C1659.2 69.4705 1618.9 138.641 1587.86 152.941C1554.17 168.461 1477.06 167.181 1441.68 178.341C1418.34 185.711 1353.08 220.001 1353.08 220.001C1353.08 220.001 1440.83 194.431 1470.64 188.251C1500.96 181.961 1565.45 184.011 1593.22 170.291V170.281Z" fill="black" stroke="#4D5AFF" stroke-miterlimit="10"/>
<path d="M1207.27 220C1173.39 215.76 1159.83 191.75 1131.33 182.52C1102.83 173.29 1087.83 184.97 1070.89 182.52C1053.95 180.07 1037.01 174.8 1014.14 153.5C991.27 132.19 967.55 121.44 947.22 123.4C926.89 125.36 876.04 174.43 840.49 192.14C833.96 194.77 827.42 197.52 820.83 199.28C799.53 204.98 784.02 186.36 763.42 184.07C736.98 181.13 717.85 191.96 693 193.93C670.65 195.7 652.1 177.21 629.63 179.37C607.44 181.5 584.91 193.06 562.55 191.84C543.99 190.83 459.68 199.91 429.75 220.87H918.74V220.55C1036.59 220.3 1183.91 220 1207.26 220H1207.27Z" fill="url(#paint130_linear_346_4917)" stroke="#4D5AFF" stroke-miterlimit="10"/>
<path d="M259.211 206.03C255.831 201.58 249.041 197.12 242.041 195.33C233.981 193.27 226.071 192.76 217.871 189.94C213.411 188.4 208.871 187.16 204.281 186.11C204.281 186.11 204.261 186.1 204.231 186.1C196.031 184.23 187.661 183 179.211 181.99C164.961 180.28 150.501 179.17 136.291 176.51V177.07C119.101 174.83 103.401 172.84 95.9308 172.03C74.7508 169.73 60.3508 161.6 47.6508 156.77C34.9408 151.94 7.84083 150.49 -14.1892 158.84C-36.2092 167.19 -26.8992 220.88 -26.8992 220.88H261.141C265.361 220.88 260.341 207.53 259.211 206.04V206.03Z" fill="url(#paint131_linear_346_4917)" stroke="#4D5AFF" stroke-miterlimit="10"/>
<path d="M260.63 191C279.25 188.46 303.23 187.66 322.58 187.54C337.19 187.45 345.67 187.86 359.55 184.6C375.26 180.91 392.88 177.55 410.67 180.03C422.27 181.64 432.2 186.86 441.5 192.11C448.33 195.96 459.74 202.97 469.08 201.75C473.95 201.12 482.77 198.56 487.59 197.73C503.62 194.95 552.66 209.33 582.38 220.88H154.27C155.92 217.92 156.11 216.18 160.37 213.46C181.81 199.78 228.1 195.45 260.63 191.01V191Z" fill="url(#paint132_linear_346_4917)" stroke="#4D5AFF" stroke-miterlimit="10"/>
</g>
<defs>
<linearGradient id="paint0_linear_346_4917" x1="911.679" y1="137.06" x2="357.369" y2="137.06" gradientUnits="userSpaceOnUse">
<stop stop-color="#F7E3F1"/>
<stop offset="1" stop-color="#80AFF5"/>
</linearGradient>
<linearGradient id="paint1_linear_346_4917" x1="960.54" y1="120.95" x2="146.44" y2="120.95" gradientUnits="userSpaceOnUse">
<stop stop-color="#EFDCE3"/>
<stop offset="1" stop-color="#919FF7"/>
</linearGradient>
<linearGradient id="paint2_linear_346_4917" x1="526.51" y1="166.95" x2="948.73" y2="166.95" gradientUnits="userSpaceOnUse">
<stop stop-color="#2CE6C4"/>
<stop offset="1" stop-color="#99F1FF"/>
</linearGradient>
<linearGradient id="paint3_linear_346_4917" x1="949.521" y1="187.86" x2="609.651" y2="187.86" gradientUnits="userSpaceOnUse">
<stop stop-color="#2CE6C4"/>
<stop offset="1" stop-color="#99B0FF"/>
</linearGradient>
<linearGradient id="paint4_linear_346_4917" x1="586.84" y1="182.52" x2="921.14" y2="182.52" gradientUnits="userSpaceOnUse">
<stop stop-color="#72CFED"/>
<stop offset="1" stop-color="#6366F3"/>
</linearGradient>
<linearGradient id="paint5_linear_346_4917" x1="646.55" y1="149.18" x2="830.38" y2="149.18" gradientUnits="userSpaceOnUse">
<stop stop-color="#59BBD5"/>
<stop offset="1" stop-color="#8DA7FF"/>
</linearGradient>
<linearGradient id="paint6_linear_346_4917" x1="646.548" y1="155.33" x2="830.38" y2="155.33" gradientUnits="userSpaceOnUse">
<stop stop-color="#59BBD5"/>
<stop offset="1" stop-color="#8DA7FF"/>
</linearGradient>
<linearGradient id="paint7_linear_346_4917" x1="646.543" y1="155.33" x2="830.389" y2="155.33" gradientUnits="userSpaceOnUse">
<stop stop-color="#59BBD5"/>
<stop offset="1" stop-color="#8DA7FF"/>
</linearGradient>
<linearGradient id="paint8_linear_346_4917" x1="646.552" y1="155.35" x2="830.38" y2="155.35" gradientUnits="userSpaceOnUse">
<stop stop-color="#59BBD5"/>
<stop offset="1" stop-color="#8DA7FF"/>
</linearGradient>
<linearGradient id="paint9_linear_346_4917" x1="646.586" y1="155.35" x2="830.38" y2="155.35" gradientUnits="userSpaceOnUse">
<stop stop-color="#59BBD5"/>
<stop offset="1" stop-color="#8DA7FF"/>
</linearGradient>
<linearGradient id="paint10_linear_346_4917" x1="646.537" y1="155.35" x2="830.391" y2="155.35" gradientUnits="userSpaceOnUse">
<stop stop-color="#59BBD5"/>
<stop offset="1" stop-color="#8DA7FF"/>
</linearGradient>
<linearGradient id="paint11_linear_346_4917" x1="646.553" y1="155.33" x2="830.379" y2="155.33" gradientUnits="userSpaceOnUse">
<stop stop-color="#59BBD5"/>
<stop offset="1" stop-color="#8DA7FF"/>
</linearGradient>
<linearGradient id="paint12_linear_346_4917" x1="646.588" y1="155.33" x2="830.379" y2="155.33" gradientUnits="userSpaceOnUse">
<stop stop-color="#59BBD5"/>
<stop offset="1" stop-color="#8DA7FF"/>
</linearGradient>
<linearGradient id="paint13_linear_346_4917" x1="646.536" y1="155.35" x2="830.381" y2="155.35" gradientUnits="userSpaceOnUse">
<stop stop-color="#59BBD5"/>
<stop offset="1" stop-color="#8DA7FF"/>
</linearGradient>
<linearGradient id="paint14_linear_346_4917" x1="646.541" y1="155.35" x2="830.379" y2="155.35" gradientUnits="userSpaceOnUse">
<stop stop-color="#59BBD5"/>
<stop offset="1" stop-color="#8DA7FF"/>
</linearGradient>
<linearGradient id="paint15_linear_346_4917" x1="646.541" y1="155.35" x2="830.38" y2="155.35" gradientUnits="userSpaceOnUse">
<stop stop-color="#59BBD5"/>
<stop offset="1" stop-color="#8DA7FF"/>
</linearGradient>
<linearGradient id="paint16_linear_346_4917" x1="646.54" y1="155.41" x2="830.39" y2="155.41" gradientUnits="userSpaceOnUse">
<stop stop-color="#59BBD5"/>
<stop offset="1" stop-color="#8DA7FF"/>
</linearGradient>
<linearGradient id="paint17_linear_346_4917" x1="646.543" y1="149.18" x2="830.389" y2="149.18" gradientUnits="userSpaceOnUse">
<stop stop-color="#59BBD5"/>
<stop offset="1" stop-color="#8DA7FF"/>
</linearGradient>
<linearGradient id="paint18_linear_346_4917" x1="646.55" y1="-433.66" x2="830.38" y2="-433.66" gradientUnits="userSpaceOnUse">
<stop stop-color="#59BBD5"/>
<stop offset="1" stop-color="#8DA7FF"/>
</linearGradient>
<linearGradient id="paint19_linear_346_4917" x1="646.562" y1="155.33" x2="830.378" y2="155.33" gradientUnits="userSpaceOnUse">
<stop stop-color="#59BBD5"/>
<stop offset="1" stop-color="#8DA7FF"/>
</linearGradient>
<linearGradient id="paint20_linear_346_4917" x1="646.569" y1="155.33" x2="830.371" y2="155.33" gradientUnits="userSpaceOnUse">
<stop stop-color="#59BBD5"/>
<stop offset="1" stop-color="#8DA7FF"/>
</linearGradient>
<linearGradient id="paint21_linear_346_4917" x1="646.541" y1="155.35" x2="830.39" y2="155.35" gradientUnits="userSpaceOnUse">
<stop stop-color="#59BBD5"/>
<stop offset="1" stop-color="#8DA7FF"/>
</linearGradient>
<linearGradient id="paint22_linear_346_4917" x1="646.541" y1="155.35" x2="830.389" y2="155.35" gradientUnits="userSpaceOnUse">
<stop stop-color="#59BBD5"/>
<stop offset="1" stop-color="#8DA7FF"/>
</linearGradient>
<linearGradient id="paint23_linear_346_4917" x1="646.541" y1="155.35" x2="830.389" y2="155.35" gradientUnits="userSpaceOnUse">
<stop stop-color="#59BBD5"/>
<stop offset="1" stop-color="#8DA7FF"/>
</linearGradient>
<linearGradient id="paint24_linear_346_4917" x1="646.594" y1="155.33" x2="830.369" y2="155.33" gradientUnits="userSpaceOnUse">
<stop stop-color="#59BBD5"/>
<stop offset="1" stop-color="#8DA7FF"/>
</linearGradient>
<linearGradient id="paint25_linear_346_4917" x1="646.54" y1="155.33" x2="830.391" y2="155.33" gradientUnits="userSpaceOnUse">
<stop stop-color="#59BBD5"/>
<stop offset="1" stop-color="#8DA7FF"/>
</linearGradient>
<linearGradient id="paint26_linear_346_4917" x1="646.552" y1="155.35" x2="830.381" y2="155.35" gradientUnits="userSpaceOnUse">
<stop stop-color="#59BBD5"/>
<stop offset="1" stop-color="#8DA7FF"/>
</linearGradient>
<linearGradient id="paint27_linear_346_4917" x1="646.542" y1="155.35" x2="830.39" y2="155.35" gradientUnits="userSpaceOnUse">
<stop stop-color="#59BBD5"/>
<stop offset="1" stop-color="#8DA7FF"/>
</linearGradient>
<linearGradient id="paint28_linear_346_4917" x1="646.542" y1="155.35" x2="830.391" y2="155.35" gradientUnits="userSpaceOnUse">
<stop stop-color="#59BBD5"/>
<stop offset="1" stop-color="#8DA7FF"/>
</linearGradient>
<linearGradient id="paint29_linear_346_4917" x1="646.552" y1="155.41" x2="830.381" y2="155.41" gradientUnits="userSpaceOnUse">
<stop stop-color="#59BBD5"/>
<stop offset="1" stop-color="#8DA7FF"/>
</linearGradient>
<linearGradient id="paint30_linear_346_4917" x1="826.479" y1="148.341" x2="643.083" y2="148.341" gradientUnits="userSpaceOnUse">
<stop stop-color="#FFFADF"/>
<stop offset="1" stop-color="#6BCBEE"/>
</linearGradient>
<linearGradient id="paint31_linear_346_4917" x1="826.468" y1="-433.648" x2="643.092" y2="-433.648" gradientUnits="userSpaceOnUse">
<stop stop-color="#FFFADF"/>
<stop offset="1" stop-color="#6BCBEE"/>
</linearGradient>
<linearGradient id="paint32_linear_346_4917" x1="826.478" y1="-433.659" x2="643.082" y2="-433.659" gradientUnits="userSpaceOnUse">
<stop stop-color="#FFFADF"/>
<stop offset="1" stop-color="#6BCBEE"/>
</linearGradient>
<linearGradient id="paint33_linear_346_4917" x1="826.473" y1="-433.648" x2="643.089" y2="-433.648" gradientUnits="userSpaceOnUse">
<stop stop-color="#FFFADF"/>
<stop offset="1" stop-color="#6BCBEE"/>
</linearGradient>
<linearGradient id="paint34_linear_346_4917" x1="826.463" y1="-433.659" x2="643.109" y2="-433.659" gradientUnits="userSpaceOnUse">
<stop stop-color="#FFFADF"/>
<stop offset="1" stop-color="#6BCBEE"/>
</linearGradient>
<linearGradient id="paint35_linear_346_4917" x1="826.472" y1="-433.648" x2="643.088" y2="-433.648" gradientUnits="userSpaceOnUse">
<stop stop-color="#FFFADF"/>
<stop offset="1" stop-color="#6BCBEE"/>
</linearGradient>
<linearGradient id="paint36_linear_346_4917" x1="826.482" y1="-433.648" x2="643.078" y2="-433.648" gradientUnits="userSpaceOnUse">
<stop stop-color="#FFFADF"/>
<stop offset="1" stop-color="#6BCBEE"/>
</linearGradient>
<linearGradient id="paint37_linear_346_4917" x1="826.452" y1="-433.659" x2="643.128" y2="-433.659" gradientUnits="userSpaceOnUse">
<stop stop-color="#FFFADF"/>
<stop offset="1" stop-color="#6BCBEE"/>
</linearGradient>
<linearGradient id="paint38_linear_346_4917" x1="826.471" y1="-433.659" x2="643.077" y2="-433.659" gradientUnits="userSpaceOnUse">
<stop stop-color="#FFFADF"/>
<stop offset="1" stop-color="#6BCBEE"/>
</linearGradient>
<linearGradient id="paint39_linear_346_4917" x1="826.471" y1="-433.659" x2="643.087" y2="-433.659" gradientUnits="userSpaceOnUse">
<stop stop-color="#FFFADF"/>
<stop offset="1" stop-color="#6BCBEE"/>
</linearGradient>
<linearGradient id="paint40_linear_346_4917" x1="826.469" y1="-433.659" x2="643.073" y2="-433.659" gradientUnits="userSpaceOnUse">
<stop stop-color="#FFFADF"/>
<stop offset="1" stop-color="#6BCBEE"/>
</linearGradient>
<linearGradient id="paint41_linear_346_4917" x1="826.472" y1="-433.659" x2="643.088" y2="-433.659" gradientUnits="userSpaceOnUse">
<stop stop-color="#FFFADF"/>
<stop offset="1" stop-color="#6BCBEE"/>
</linearGradient>
<linearGradient id="paint42_linear_346_4917" x1="826.482" y1="-433.648" x2="643.057" y2="-433.648" gradientUnits="userSpaceOnUse">
<stop stop-color="#FFFADF"/>
<stop offset="1" stop-color="#6BCBEE"/>
</linearGradient>
<linearGradient id="paint43_linear_346_4917" x1="826.471" y1="-433.659" x2="643.057" y2="-433.659" gradientUnits="userSpaceOnUse">
<stop stop-color="#FFFADF"/>
<stop offset="1" stop-color="#6BCBEE"/>
</linearGradient>
<linearGradient id="paint44_linear_346_4917" x1="826.471" y1="-433.659" x2="643.067" y2="-433.659" gradientUnits="userSpaceOnUse">
<stop stop-color="#FFFADF"/>
<stop offset="1" stop-color="#6BCBEE"/>
</linearGradient>
<linearGradient id="paint45_linear_346_4917" x1="826.471" y1="-433.659" x2="643.067" y2="-433.659" gradientUnits="userSpaceOnUse">
<stop stop-color="#FFFADF"/>
<stop offset="1" stop-color="#6BCBEE"/>
</linearGradient>
<linearGradient id="paint46_linear_346_4917" x1="826.47" y1="-433.648" x2="643.078" y2="-433.648" gradientUnits="userSpaceOnUse">
<stop stop-color="#FFFADF"/>
<stop offset="1" stop-color="#6BCBEE"/>
</linearGradient>
<linearGradient id="paint47_linear_346_4917" x1="826.47" y1="-433.648" x2="643.111" y2="-433.648" gradientUnits="userSpaceOnUse">
<stop stop-color="#FFFADF"/>
<stop offset="1" stop-color="#6BCBEE"/>
</linearGradient>
<linearGradient id="paint48_linear_346_4917" x1="646.55" y1="149.18" x2="830.392" y2="149.18" gradientUnits="userSpaceOnUse">
<stop stop-color="#59BBD5"/>
<stop offset="1" stop-color="#8DA7FF"/>
</linearGradient>
<linearGradient id="paint49_linear_346_4917" x1="646.551" y1="-433.66" x2="830.382" y2="-433.66" gradientUnits="userSpaceOnUse">
<stop stop-color="#59BBD5"/>
<stop offset="1" stop-color="#8DA7FF"/>
</linearGradient>
<linearGradient id="paint50_linear_346_4917" x1="646.55" y1="155.33" x2="830.382" y2="155.33" gradientUnits="userSpaceOnUse">
<stop stop-color="#59BBD5"/>
<stop offset="1" stop-color="#8DA7FF"/>
</linearGradient>
<linearGradient id="paint51_linear_346_4917" x1="646.541" y1="155.33" x2="830.392" y2="155.33" gradientUnits="userSpaceOnUse">
<stop stop-color="#59BBD5"/>
<stop offset="1" stop-color="#8DA7FF"/>
</linearGradient>
<linearGradient id="paint52_linear_346_4917" x1="646.552" y1="155.35" x2="830.381" y2="155.35" gradientUnits="userSpaceOnUse">
<stop stop-color="#59BBD5"/>
<stop offset="1" stop-color="#8DA7FF"/>
</linearGradient>
<linearGradient id="paint53_linear_346_4917" x1="646.55" y1="155.35" x2="830.392" y2="155.35" gradientUnits="userSpaceOnUse">
<stop stop-color="#59BBD5"/>
<stop offset="1" stop-color="#8DA7FF"/>
</linearGradient>
<linearGradient id="paint54_linear_346_4917" x1="646.562" y1="155.35" x2="830.35" y2="155.35" gradientUnits="userSpaceOnUse">
<stop stop-color="#59BBD5"/>
<stop offset="1" stop-color="#8DA7FF"/>
</linearGradient>
<linearGradient id="paint55_linear_346_4917" x1="646.542" y1="155.33" x2="830.391" y2="155.33" gradientUnits="userSpaceOnUse">
<stop stop-color="#59BBD5"/>
<stop offset="1" stop-color="#8DA7FF"/>
</linearGradient>
<linearGradient id="paint56_linear_346_4917" x1="646.544" y1="155.33" x2="830.39" y2="155.33" gradientUnits="userSpaceOnUse">
<stop stop-color="#59BBD5"/>
<stop offset="1" stop-color="#8DA7FF"/>
</linearGradient>
<linearGradient id="paint57_linear_346_4917" x1="646.553" y1="155.35" x2="830.392" y2="155.35" gradientUnits="userSpaceOnUse">
<stop stop-color="#59BBD5"/>
<stop offset="1" stop-color="#8DA7FF"/>
</linearGradient>
<linearGradient id="paint58_linear_346_4917" x1="646.552" y1="155.35" x2="830.391" y2="155.35" gradientUnits="userSpaceOnUse">
<stop stop-color="#59BBD5"/>
<stop offset="1" stop-color="#8DA7FF"/>
</linearGradient>
<linearGradient id="paint59_linear_346_4917" x1="646.553" y1="155.35" x2="830.391" y2="155.35" gradientUnits="userSpaceOnUse">
<stop stop-color="#59BBD5"/>
<stop offset="1" stop-color="#8DA7FF"/>
</linearGradient>
<linearGradient id="paint60_linear_346_4917" x1="646.552" y1="155.41" x2="830.382" y2="155.41" gradientUnits="userSpaceOnUse">
<stop stop-color="#59BBD5"/>
<stop offset="1" stop-color="#8DA7FF"/>
</linearGradient>
<linearGradient id="paint61_linear_346_4917" x1="826.482" y1="-433.648" x2="643.082" y2="-433.648" gradientUnits="userSpaceOnUse">
<stop stop-color="#FFFADF"/>
<stop offset="1" stop-color="#6BCBEE"/>
</linearGradient>
<linearGradient id="paint62_linear_346_4917" x1="826.431" y1="-433.659" x2="643.101" y2="-433.659" gradientUnits="userSpaceOnUse">
<stop stop-color="#FFFADF"/>
<stop offset="1" stop-color="#6BCBEE"/>
</linearGradient>
<linearGradient id="paint63_linear_346_4917" x1="826.483" y1="-433.659" x2="643.079" y2="-433.659" gradientUnits="userSpaceOnUse">
<stop stop-color="#FFFADF"/>
<stop offset="1" stop-color="#6BCBEE"/>
</linearGradient>
<linearGradient id="paint64_linear_346_4917" x1="826.471" y1="-433.648" x2="643.091" y2="-433.648" gradientUnits="userSpaceOnUse">
<stop stop-color="#FFFADF"/>
<stop offset="1" stop-color="#6BCBEE"/>
</linearGradient>
<linearGradient id="paint65_linear_346_4917" x1="826.483" y1="-433.648" x2="643.082" y2="-433.648" gradientUnits="userSpaceOnUse">
<stop stop-color="#FFFADF"/>
<stop offset="1" stop-color="#6BCBEE"/>
</linearGradient>
<linearGradient id="paint66_linear_346_4917" x1="826.482" y1="-433.659" x2="643.082" y2="-433.659" gradientUnits="userSpaceOnUse">
<stop stop-color="#FFFADF"/>
<stop offset="1" stop-color="#6BCBEE"/>
</linearGradient>
<linearGradient id="paint67_linear_346_4917" x1="826.482" y1="-433.648" x2="643.082" y2="-433.648" gradientUnits="userSpaceOnUse">
<stop stop-color="#FFFADF"/>
<stop offset="1" stop-color="#6BCBEE"/>
</linearGradient>
<linearGradient id="paint68_linear_346_4917" x1="826.482" y1="-433.648" x2="643.081" y2="-433.648" gradientUnits="userSpaceOnUse">
<stop stop-color="#FFFADF"/>
<stop offset="1" stop-color="#6BCBEE"/>
</linearGradient>
<linearGradient id="paint69_linear_346_4917" x1="826.439" y1="-433.659" x2="643.113" y2="-433.659" gradientUnits="userSpaceOnUse">
<stop stop-color="#FFFADF"/>
<stop offset="1" stop-color="#6BCBEE"/>
</linearGradient>
<linearGradient id="paint70_linear_346_4917" x1="826.479" y1="-433.659" x2="643.083" y2="-433.659" gradientUnits="userSpaceOnUse">
<stop stop-color="#FFFADF"/>
<stop offset="1" stop-color="#6BCBEE"/>
</linearGradient>
<linearGradient id="paint71_linear_346_4917" x1="646.551" y1="149.18" x2="830.39" y2="149.18" gradientUnits="userSpaceOnUse">
<stop stop-color="#59BBD5"/>
<stop offset="1" stop-color="#8DA7FF"/>
</linearGradient>
<linearGradient id="paint72_linear_346_4917" x1="646.551" y1="-433.66" x2="830.381" y2="-433.66" gradientUnits="userSpaceOnUse">
<stop stop-color="#59BBD5"/>
<stop offset="1" stop-color="#8DA7FF"/>
</linearGradient>
<linearGradient id="paint73_linear_346_4917" x1="646.55" y1="155.33" x2="830.379" y2="155.33" gradientUnits="userSpaceOnUse">
<stop stop-color="#59BBD5"/>
<stop offset="1" stop-color="#8DA7FF"/>
</linearGradient>
<linearGradient id="paint74_linear_346_4917" x1="646.55" y1="155.33" x2="830.369" y2="155.33" gradientUnits="userSpaceOnUse">
<stop stop-color="#59BBD5"/>
<stop offset="1" stop-color="#8DA7FF"/>
</linearGradient>
<linearGradient id="paint75_linear_346_4917" x1="646.551" y1="155.35" x2="830.393" y2="155.35" gradientUnits="userSpaceOnUse">
<stop stop-color="#59BBD5"/>
<stop offset="1" stop-color="#8DA7FF"/>
</linearGradient>
<linearGradient id="paint76_linear_346_4917" x1="646.55" y1="155.35" x2="830.388" y2="155.35" gradientUnits="userSpaceOnUse">
<stop stop-color="#59BBD5"/>
<stop offset="1" stop-color="#8DA7FF"/>
</linearGradient>
<linearGradient id="paint77_linear_346_4917" x1="646.55" y1="155.35" x2="830.392" y2="155.35" gradientUnits="userSpaceOnUse">
<stop stop-color="#59BBD5"/>
<stop offset="1" stop-color="#8DA7FF"/>
</linearGradient>
<linearGradient id="paint78_linear_346_4917" x1="646.551" y1="155.33" x2="830.39" y2="155.33" gradientUnits="userSpaceOnUse">
<stop stop-color="#59BBD5"/>
<stop offset="1" stop-color="#8DA7FF"/>
</linearGradient>
<linearGradient id="paint79_linear_346_4917" x1="646.551" y1="155.33" x2="830.39" y2="155.33" gradientUnits="userSpaceOnUse">
<stop stop-color="#59BBD5"/>
<stop offset="1" stop-color="#8DA7FF"/>
</linearGradient>
<linearGradient id="paint80_linear_346_4917" x1="646.552" y1="155.35" x2="830.393" y2="155.35" gradientUnits="userSpaceOnUse">
<stop stop-color="#59BBD5"/>
<stop offset="1" stop-color="#8DA7FF"/>
</linearGradient>
<linearGradient id="paint81_linear_346_4917" x1="646.551" y1="155.35" x2="830.39" y2="155.35" gradientUnits="userSpaceOnUse">
<stop stop-color="#59BBD5"/>
<stop offset="1" stop-color="#8DA7FF"/>
</linearGradient>
<linearGradient id="paint82_linear_346_4917" x1="646.541" y1="155.35" x2="830.403" y2="155.35" gradientUnits="userSpaceOnUse">
<stop stop-color="#59BBD5"/>
<stop offset="1" stop-color="#8DA7FF"/>
</linearGradient>
<linearGradient id="paint83_linear_346_4917" x1="646.552" y1="155.41" x2="830.382" y2="155.41" gradientUnits="userSpaceOnUse">
<stop stop-color="#59BBD5"/>
<stop offset="1" stop-color="#8DA7FF"/>
</linearGradient>
<linearGradient id="paint84_linear_346_4917" x1="826.474" y1="-433.659" x2="643.091" y2="-433.659" gradientUnits="userSpaceOnUse">
<stop stop-color="#FFFADF"/>
<stop offset="1" stop-color="#6BCBEE"/>
</linearGradient>
<linearGradient id="paint85_linear_346_4917" x1="826.45" y1="-433.659" x2="643.09" y2="-433.659" gradientUnits="userSpaceOnUse">
<stop stop-color="#FFFADF"/>
<stop offset="1" stop-color="#6BCBEE"/>
</linearGradient>
<linearGradient id="paint86_linear_346_4917" x1="826.5" y1="-433.648" x2="643.08" y2="-433.648" gradientUnits="userSpaceOnUse">
<stop stop-color="#FFFADF"/>
<stop offset="1" stop-color="#6BCBEE"/>
</linearGradient>
<linearGradient id="paint87_linear_346_4917" x1="826.482" y1="-433.659" x2="643.082" y2="-433.659" gradientUnits="userSpaceOnUse">
<stop stop-color="#FFFADF"/>
<stop offset="1" stop-color="#6BCBEE"/>
</linearGradient>
<linearGradient id="paint88_linear_346_4917" x1="826.502" y1="-433.648" x2="643.081" y2="-433.648" gradientUnits="userSpaceOnUse">
<stop stop-color="#FFFADF"/>
<stop offset="1" stop-color="#6BCBEE"/>
</linearGradient>
<linearGradient id="paint89_linear_346_4917" x1="826.471" y1="-433.659" x2="643.091" y2="-433.659" gradientUnits="userSpaceOnUse">
<stop stop-color="#FFFADF"/>
<stop offset="1" stop-color="#6BCBEE"/>
</linearGradient>
<linearGradient id="paint90_linear_346_4917" x1="826.451" y1="-433.659" x2="643.091" y2="-433.659" gradientUnits="userSpaceOnUse">
<stop stop-color="#FFFADF"/>
<stop offset="1" stop-color="#6BCBEE"/>
</linearGradient>
<linearGradient id="paint91_linear_346_4917" x1="826.471" y1="-433.648" x2="643.091" y2="-433.648" gradientUnits="userSpaceOnUse">
<stop stop-color="#FFFADF"/>
<stop offset="1" stop-color="#6BCBEE"/>
</linearGradient>
<linearGradient id="paint92_linear_346_4917" x1="826.49" y1="-433.659" x2="643.081" y2="-433.659" gradientUnits="userSpaceOnUse">
<stop stop-color="#FFFADF"/>
<stop offset="1" stop-color="#6BCBEE"/>
</linearGradient>
<linearGradient id="paint93_linear_346_4917" x1="826.48" y1="-433.659" x2="643.08" y2="-433.659" gradientUnits="userSpaceOnUse">
<stop stop-color="#FFFADF"/>
<stop offset="1" stop-color="#6BCBEE"/>
</linearGradient>
<linearGradient id="paint94_linear_346_4917" x1="586.84" y1="149.31" x2="921.15" y2="149.31" gradientUnits="userSpaceOnUse">
<stop stop-color="#72CFED"/>
<stop offset="1" stop-color="#6366F3"/>
</linearGradient>
<linearGradient id="paint95_linear_346_4917" x1="563.709" y1="205.31" x2="525.369" y2="99.9804" gradientUnits="userSpaceOnUse">
<stop stop-color="#2CE6C4"/>
<stop offset="1" stop-color="#99DFFF"/>
</linearGradient>
<linearGradient id="paint96_linear_346_4917" x1="471.159" y1="196.06" x2="421.749" y2="60.3004" gradientUnits="userSpaceOnUse">
<stop stop-color="#2CE6C4"/>
<stop offset="1" stop-color="#99DFFF"/>
</linearGradient>
<linearGradient id="paint97_linear_346_4917" x1="309.289" y1="196.01" x2="266.969" y2="79.7402" gradientUnits="userSpaceOnUse">
<stop stop-color="#2CE6C4"/>
<stop offset="1" stop-color="#99DFFF"/>
</linearGradient>
<linearGradient id="paint98_linear_346_4917" x1="229.55" y1="192.81" x2="190.44" y2="85.3402" gradientUnits="userSpaceOnUse">
<stop stop-color="#2CE6C4"/>
<stop offset="1" stop-color="#99B0FF"/>
</linearGradient>
<linearGradient id="paint99_linear_346_4917" x1="356.229" y1="196.031" x2="319.829" y2="96.0408" gradientUnits="userSpaceOnUse">
<stop stop-color="#2CE6C4"/>
<stop offset="1" stop-color="#99B0FF"/>
</linearGradient>
<linearGradient id="paint100_linear_346_4917" x1="411.36" y1="193.461" x2="370.82" y2="82.0806" gradientUnits="userSpaceOnUse">
<stop stop-color="#59BBD5"/>
<stop offset="1" stop-color="#8DA7FF"/>
</linearGradient>
<linearGradient id="paint101_linear_346_4917" x1="327.448" y1="201.361" x2="297.498" y2="119.061" gradientUnits="userSpaceOnUse">
<stop stop-color="#99B0FF"/>
<stop offset="1" stop-color="#7A99FF"/>
</linearGradient>
<linearGradient id="paint102_linear_346_4917" x1="204.63" y1="192.481" x2="166.71" y2="88.3108" gradientUnits="userSpaceOnUse">
<stop stop-color="#72CFED"/>
<stop offset="1" stop-color="#6366F3"/>
</linearGradient>
<linearGradient id="paint103_linear_346_4917" x1="521.819" y1="201.211" x2="481.139" y2="89.4408" gradientUnits="userSpaceOnUse">
<stop stop-color="#2CE6C4"/>
<stop offset="1" stop-color="#99B0FF"/>
</linearGradient>
<linearGradient id="paint104_linear_346_4917" x1="270.548" y1="203.3" x2="233.658" y2="101.95" gradientUnits="userSpaceOnUse">
<stop stop-color="#72CFED"/>
<stop offset="1" stop-color="#6366F3"/>
</linearGradient>
<linearGradient id="paint105_linear_346_4917" x1="539.838" y1="209.28" x2="503.448" y2="109.29" gradientUnits="userSpaceOnUse">
<stop stop-color="#72CFED"/>
<stop offset="1" stop-color="#6366F3"/>
</linearGradient>
<linearGradient id="paint106_linear_346_4917" x1="335.139" y1="191.631" x2="297.889" y2="89.2906" gradientUnits="userSpaceOnUse">
<stop stop-color="#59BBD5"/>
<stop offset="1" stop-color="#8DA7FF"/>
</linearGradient>
<linearGradient id="paint107_linear_346_4917" x1="476.77" y1="198.351" x2="437.26" y2="89.8007" gradientUnits="userSpaceOnUse">
<stop stop-color="#59BBD5"/>
<stop offset="1" stop-color="#8DA7FF"/>
</linearGradient>
<linearGradient id="paint108_linear_346_4917" x1="432.34" y1="214.531" x2="388.35" y2="93.6506" gradientUnits="userSpaceOnUse">
<stop stop-color="#2CE6C4"/>
<stop offset="1" stop-color="#99B0FF"/>
</linearGradient>
<linearGradient id="paint109_linear_346_4917" x1="384.529" y1="198.23" x2="347.079" y2="95.3403" gradientUnits="userSpaceOnUse">
<stop stop-color="#99B0FF"/>
<stop offset="1" stop-color="#7A99FF"/>
</linearGradient>
<linearGradient id="paint110_linear_346_4917" x1="447.619" y1="193.88" x2="403.509" y2="72.68" gradientUnits="userSpaceOnUse">
<stop stop-color="#72CFED"/>
<stop offset="1" stop-color="#6366F3"/>
</linearGradient>
<linearGradient id="paint111_linear_346_4917" x1="495.22" y1="197.15" x2="461.49" y2="104.48" gradientUnits="userSpaceOnUse">
<stop stop-color="#99B0FF"/>
<stop offset="1" stop-color="#7A99FF"/>
</linearGradient>
<linearGradient id="paint112_linear_346_4917" x1="173.239" y1="195.97" x2="141.059" y2="107.55" gradientUnits="userSpaceOnUse">
<stop stop-color="#99B0FF"/>
<stop offset="1" stop-color="#7A99FF"/>
</linearGradient>
<linearGradient id="paint113_linear_346_4917" x1="131.42" y1="-433.66" x2="93.0801" y2="-433.66" gradientUnits="userSpaceOnUse">
<stop stop-color="#2CE6C4"/>
<stop offset="1" stop-color="#99DFFF"/>
</linearGradient>
<linearGradient id="paint114_linear_346_4917" x1="38.8702" y1="196.06" x2="-10.5399" y2="60.3004" gradientUnits="userSpaceOnUse">
<stop stop-color="#2CE6C4"/>
<stop offset="1" stop-color="#99DFFF"/>
</linearGradient>
<linearGradient id="paint115_linear_346_4917" x1="89.5299" y1="201.211" x2="48.8498" y2="89.4408" gradientUnits="userSpaceOnUse">
<stop stop-color="#2CE6C4"/>
<stop offset="1" stop-color="#99B0FF"/>
</linearGradient>
<linearGradient id="paint116_linear_346_4917" x1="107.549" y1="209.28" x2="71.1494" y2="109.29" gradientUnits="userSpaceOnUse">
<stop stop-color="#72CFED"/>
<stop offset="1" stop-color="#6366F3"/>
</linearGradient>
<linearGradient id="paint117_linear_346_4917" x1="44.4809" y1="198.351" x2="4.97097" y2="89.8007" gradientUnits="userSpaceOnUse">
<stop stop-color="#59BBD5"/>
<stop offset="1" stop-color="#8DA7FF"/>
</linearGradient>
<linearGradient id="paint118_linear_346_4917" x1="0.0491335" y1="214.531" x2="-43.9508" y2="93.6507" gradientUnits="userSpaceOnUse">
<stop stop-color="#2CE6C4"/>
<stop offset="1" stop-color="#99B0FF"/>
</linearGradient>
<linearGradient id="paint119_linear_346_4917" x1="15.3302" y1="193.88" x2="-28.7798" y2="72.68" gradientUnits="userSpaceOnUse">
<stop stop-color="#72CFED"/>
<stop offset="1" stop-color="#6366F3"/>
</linearGradient>
<linearGradient id="paint120_linear_346_4917" x1="62.9309" y1="197.15" x2="29.2009" y2="104.48" gradientUnits="userSpaceOnUse">
<stop stop-color="#99B0FF"/>
<stop offset="1" stop-color="#7A99FF"/>
</linearGradient>
<linearGradient id="paint121_linear_346_4917" x1="732.481" y1="173.523" x2="409.491" y2="158.913" gradientUnits="userSpaceOnUse">
<stop stop-color="#99B0FF"/>
<stop offset="1" stop-color="#2CE6C4"/>
</linearGradient>
<linearGradient id="paint122_linear_346_4917" x1="92.5991" y1="192.36" x2="575.149" y2="192.36" gradientUnits="userSpaceOnUse">
<stop stop-color="#99B0FF"/>
<stop offset="1" stop-color="#2CE6C4"/>
</linearGradient>
<linearGradient id="paint123_linear_346_4917" x1="722.08" y1="186.1" x2="317.93" y2="186.1" gradientUnits="userSpaceOnUse">
<stop stop-color="#59BBD5"/>
<stop offset="1" stop-color="#8DA7FF"/>
</linearGradient>
<linearGradient id="paint124_linear_346_4917" x1="1090.66" y1="217.74" x2="1135.72" y2="90.9401" gradientUnits="userSpaceOnUse">
<stop stop-color="#99F1FF"/>
<stop offset="1" stop-color="#75FFF6"/>
</linearGradient>
<linearGradient id="paint125_linear_346_4917" x1="1292.99" y1="233" x2="1453.77" y2="161.77" gradientUnits="userSpaceOnUse">
<stop stop-color="#99F1FF"/>
<stop offset="1" stop-color="#2CE6C4"/>
</linearGradient>
<linearGradient id="paint126_linear_346_4917" x1="1390.77" y1="194.78" x2="1603.08" y2="101.2" gradientUnits="userSpaceOnUse">
<stop stop-color="#99B0FF"/>
<stop offset="1" stop-color="#2CE6C4"/>
</linearGradient>
<linearGradient id="paint127_linear_346_4917" x1="1636.4" y1="315" x2="1367.34" y2="45.93" gradientUnits="userSpaceOnUse">
<stop stop-color="#59BBD5"/>
<stop offset="1" stop-color="#8DA7FF"/>
</linearGradient>
<linearGradient id="paint128_linear_346_4917" x1="1320.54" y1="355.87" x2="1688.89" y2="-12.4701" gradientUnits="userSpaceOnUse">
<stop stop-color="#6E8EFF"/>
<stop offset="1" stop-color="#49B5D1"/>
</linearGradient>
<linearGradient id="paint129_linear_346_4917" x1="1446.85" y1="313.77" x2="1702.45" y2="58.1702" gradientUnits="userSpaceOnUse">
<stop stop-color="#6366F3"/>
<stop offset="1" stop-color="#72CFED"/>
</linearGradient>
<linearGradient id="paint130_linear_346_4917" x1="1170.05" y1="106.86" x2="502.35" y2="319.01" gradientUnits="userSpaceOnUse">
<stop stop-color="#6366F3"/>
<stop offset="1" stop-color="#72CFED"/>
</linearGradient>
<linearGradient id="paint131_linear_346_4917" x1="251.861" y1="186.86" x2="29.2008" y2="186.86" gradientUnits="userSpaceOnUse">
<stop stop-color="#3FE8C9"/>
<stop offset="1" stop-color="#59BBD5"/>
</linearGradient>
<linearGradient id="paint132_linear_346_4917" x1="553.35" y1="200.03" x2="158.33" y2="200.03" gradientUnits="userSpaceOnUse">
<stop stop-color="#49B5D1"/>
<stop offset="1" stop-color="#829FFF"/>
</linearGradient>
<clipPath id="clip0_346_4917">
<rect width="1728" height="220" fill="white"/>
</clipPath>
</defs>
</svg>
