<svg width="460" height="370" viewBox="0 0 460 370" fill="none" xmlns="http://www.w3.org/2000/svg">
<g clip-path="url(#clip0_344_3203)">
<path d="M241.501 110.181C235.583 95.9841 197.029 98.53 155.4 115.892C113.772 133.255 84.8505 158.851 90.7679 173.048C91.7542 175.433 95.5156 184.424 96.5018 186.809C102.419 201.029 140.974 198.46 182.602 181.098C224.23 163.736 253.152 138.14 247.235 123.943C246.248 121.557 242.487 112.567 241.501 110.181V110.181Z" fill="url(#paint0_linear_344_3203)" stroke="#29256A" stroke-linejoin="round"/>
<g style="mix-blend-mode:multiply" opacity="0.3">
<path d="M241.501 110.181C235.583 95.9841 197.029 98.53 155.4 115.892C113.772 133.255 84.8505 158.851 90.7679 173.048C91.7542 175.433 95.5156 184.424 96.5018 186.809C102.419 201.029 140.974 198.46 182.602 181.098C224.23 163.736 253.152 138.14 247.235 123.943C246.248 121.557 242.487 112.567 241.501 110.181V110.181Z" fill="url(#paint1_linear_344_3203)"/>
<path d="M241.501 110.181C235.583 95.9841 197.029 98.53 155.4 115.892C113.772 133.255 84.8505 158.851 90.7679 173.048C91.7542 175.433 95.5156 184.424 96.5018 186.809C102.419 201.029 140.974 198.46 182.602 181.098C224.23 163.736 253.152 138.14 247.235 123.943C246.248 121.557 242.487 112.567 241.501 110.181V110.181Z" stroke="#29256A" stroke-linejoin="round"/>
</g>
<path d="M241.501 110.181C235.583 95.9841 197.029 98.53 155.4 115.892C113.772 133.255 84.8505 158.851 90.7679 173.048C91.7542 175.433 95.5156 184.424 96.5018 186.809C102.419 201.029 140.974 198.46 182.602 181.098C224.23 163.736 253.152 138.14 247.235 123.943C246.248 121.557 242.487 112.567 241.501 110.181V110.181Z" stroke="#29256A" stroke-linejoin="round"/>
<mask id="mask0_344_3203" style="mask-type:alpha" maskUnits="userSpaceOnUse" x="90" y="101" width="159" height="95">
<path d="M241.501 110.181C235.583 95.9841 197.029 98.53 155.4 115.892C113.772 133.255 84.8505 158.851 90.7679 173.048C91.7542 175.433 95.5156 184.424 96.5018 186.809C102.419 201.029 140.974 198.46 182.602 181.098C224.23 163.736 253.152 138.14 247.235 123.943C246.248 121.557 242.487 112.567 241.501 110.181V110.181Z" fill="url(#paint2_linear_344_3203)"/>
</mask>
<g mask="url(#mask0_344_3203)">
<path d="M70.0874 93.4825L124.758 244.414" stroke="#29256A"/>
<path d="M80.6597 90.9913L135.33 241.923" stroke="#29256A"/>
<path d="M91.228 88.502L145.899 239.434" stroke="#29256A"/>
<path d="M101.8 86.0137L156.471 236.945" stroke="#29256A"/>
<path d="M122.945 81.0367L177.616 231.968" stroke="#29256A"/>
<path d="M133.517 78.5474L188.188 229.479" stroke="#29256A"/>
<path d="M112.373 83.5254L167.043 234.457" stroke="#29256A"/>
<path d="M144.091 76.0591L198.762 226.991" stroke="#29256A"/>
<path d="M154.664 73.5704L209.334 224.502" stroke="#29256A"/>
<path d="M165.236 71.0816L219.907 222.013" stroke="#29256A"/>
<path d="M175.808 68.5928L230.479 219.524" stroke="#29256A"/>
<path d="M186.378 66.1041L241.049 217.036" stroke="#29256A"/>
<path d="M196.949 63.6153L251.62 214.547" stroke="#29256A"/>
<path d="M207.521 61.1246L262.192 212.056" stroke="#29256A"/>
<path d="M218.095 58.6363L271.45 209.864" stroke="#29256A"/>
</g>
<path d="M90.7679 173.048C96.6853 187.268 135.24 184.699 176.868 167.337C218.496 149.975 247.418 124.378 241.501 110.181C235.583 95.9841 197.029 98.53 155.4 115.892C113.772 133.255 84.8505 158.851 90.7679 173.048Z" fill="url(#paint3_linear_344_3203)" stroke="#29256A" stroke-linejoin="round"/>
<path opacity="0.2" d="M132.535 180.595C145.815 178.37 161.113 173.921 176.87 167.361C218.016 150.205 246.732 124.999 241.663 110.71C155.196 125.389 112.535 147.613 132.535 180.595Z" fill="white"/>
<g style="mix-blend-mode:multiply" opacity="0.5">
<path d="M156.848 119.333C121.711 133.989 97.3304 155.709 102.399 167.865C104.303 172.452 110.174 175.021 118.592 175.64C112.147 174.746 107.674 172.452 106.115 168.668C101.344 157.223 124.67 136.581 158.202 122.59C191.756 108.599 222.811 106.535 227.582 118.003C229.164 121.787 227.651 126.581 223.751 131.787C229.233 125.365 231.55 119.379 229.623 114.792C224.554 102.636 191.963 104.677 156.825 119.31L156.848 119.333Z" fill="url(#paint4_linear_344_3203)"/>
</g>
<path d="M156.848 119.333C121.711 133.989 97.3304 155.709 102.399 167.865C104.303 172.452 110.174 175.021 118.592 175.64C112.147 174.746 107.674 172.452 106.115 168.668C101.344 157.223 124.67 136.581 158.202 122.59C191.756 108.599 222.811 106.535 227.582 118.003C229.164 121.787 227.651 126.581 223.751 131.787C229.233 125.365 231.55 119.379 229.623 114.792C224.554 102.636 191.963 104.677 156.825 119.31L156.848 119.333Z" stroke="#29256A" stroke-linejoin="round"/>
<path d="M203.243 141.719C222.107 127.477 221.565 116.182 202.04 116.441C192.325 116.582 179.709 119.577 167.188 124.293C167.094 124.34 166.999 124.364 166.905 124.411C154.384 129.151 141.957 135.635 132.548 142.733C131.652 143.417 130.827 144.077 130.001 144.738C129.954 144.761 129.931 144.808 129.883 144.832C129.341 145.28 128.846 145.704 128.351 146.129C128.351 146.129 128.351 146.129 128.327 146.129C127.879 146.53 127.455 146.907 127.03 147.284C114.037 159.287 116.372 168.224 133.751 167.988C153.275 167.705 184.378 155.938 203.219 141.719H203.243ZM195.532 141.837C193.221 143.582 190.651 145.304 187.915 146.931C187.915 146.931 187.915 146.931 187.939 146.907C192.018 142.262 191.948 138.772 190.368 136.791C202.158 129.08 203.408 125.708 200.366 125.024C200.295 125.024 200.201 124.977 200.106 124.977C197.513 124.553 192.396 126.133 188.693 128.467C184.968 130.801 184.048 133.042 186.642 133.466C186.878 133.513 187.114 133.513 187.373 133.537C187.019 133.796 186.642 134.079 186.241 134.362C183.694 133.537 180.605 133.301 177.304 133.395C176.101 133.395 174.828 133.49 173.484 133.608C177.563 131.014 182.963 128.137 188.434 126.085C193.716 124.105 198.904 123.043 202.276 123.491C202.913 123.586 203.502 123.751 203.926 123.963C203.926 123.963 203.974 123.963 203.997 123.987C208.855 127.123 206.072 133.938 195.532 141.884V141.837ZM166.999 144.903C164.948 145.752 162.778 146.6 160.491 147.402C160.774 145.964 161.552 144.455 162.708 142.875C162.778 142.78 162.826 142.71 162.896 142.615C163.698 141.625 164.712 140.517 165.962 139.338C168.909 139.008 171.432 138.913 173.508 139.102C173.625 139.102 173.72 139.102 173.838 139.125C175.087 139.267 176.243 139.526 177.28 139.904C174.05 141.672 170.749 143.276 167.518 144.667C167.353 144.738 167.188 144.808 166.999 144.879V144.903ZM186.265 122.902C186.265 122.902 186.241 122.902 186.217 122.902C176.832 126.651 168.697 131.438 163.486 135.164C149.833 138.111 142.381 141.955 139.669 144.832C139.599 144.903 139.528 144.997 139.457 145.068C137.524 147.308 139.292 148.463 143.395 147.638C147.498 146.836 152.379 144.36 154.313 142.12C154.478 141.932 154.619 141.743 154.714 141.554C155.209 141.413 155.704 141.295 156.247 141.153C153.393 143.912 151.625 146.27 150.634 148.251C150.233 149.006 149.927 149.737 149.691 150.421C145.117 151.364 140.377 151.835 137.594 151.128C134.906 150.444 134.34 148.558 136.651 145.752C137.076 145.233 137.689 144.62 138.349 144.054C138.962 143.559 139.575 143.063 140.235 142.568C152.521 133.348 171.48 125.425 186.265 122.902ZM141.226 162.376C133.68 162.494 129.789 160.372 129.53 156.858C134.835 157.754 143.041 156.434 149.833 154.689C151.695 159.428 157.897 159.004 163.651 156.787C163.816 156.717 163.957 156.669 164.122 156.599C168.65 154.783 171.998 152.071 171.621 150.538C171.244 149.006 167.282 149.241 162.755 151.057C162.354 151.222 161.977 151.387 161.599 151.552C161.481 151.411 161.34 151.269 161.222 151.128C166.622 149.194 171.456 147.096 175.748 145.021C177.351 144.242 178.955 143.464 180.511 142.639C181.006 144.29 180.369 146.718 177.658 149.477C175.064 152.142 170.442 155.089 164.759 157.424C163.674 157.872 162.495 158.296 161.411 158.65C161.411 158.65 161.387 158.65 161.364 158.65C154.03 160.914 146.979 162.282 141.226 162.352V162.376Z" fill="url(#paint5_linear_344_3203)" stroke="#3442C0" stroke-linejoin="round"/>
<path style="mix-blend-mode:overlay" opacity="0.9" d="M200.385 125.025C200.385 125.025 200.22 124.978 200.126 124.978C199.678 124.907 199.135 124.884 198.522 124.931C199.772 126.393 196.777 130.213 185.152 137.523C181.308 139.952 177.087 142.239 172.725 144.314C169.046 146.106 164.943 147.898 160.439 149.596C160.605 150.186 160.864 150.704 161.194 151.105C166.594 149.172 171.428 147.073 175.72 144.998C180.082 142.923 184.279 140.635 188.147 138.207C202.012 129.482 203.592 125.733 200.361 125.025H200.385Z" fill="url(#paint6_radial_344_3203)"/>
<g style="mix-blend-mode:overlay" opacity="0.8">
<path d="M185.158 137.547C196.783 130.237 199.778 126.417 198.528 124.955C198.387 124.955 198.245 124.978 198.08 125.002C199.212 126.511 196.147 130.331 184.663 137.547C180.819 139.975 176.598 142.263 172.236 144.338C168.675 146.059 164.737 147.804 160.398 149.455C160.398 149.526 160.422 149.573 160.446 149.643C164.949 147.946 169.053 146.154 172.731 144.361C177.093 142.286 181.291 139.999 185.158 137.57V137.547Z" fill="white"/>
</g>
<path style="mix-blend-mode:overlay" opacity="0.5" d="M149.526 153.794C149.478 153.605 149.455 153.416 149.431 153.204C142.64 154.548 134.835 155.256 130.072 153.841C129.647 154.925 129.435 155.939 129.506 156.836C134.811 157.732 143.017 156.411 149.808 154.666C149.691 154.383 149.596 154.077 149.526 153.77V153.794Z" fill="url(#paint7_radial_344_3203)"/>
<path style="mix-blend-mode:overlay" opacity="0.6" d="M149.432 153.204C149.432 153.204 149.408 153.016 149.408 152.921C142.641 154.218 134.93 154.831 130.308 153.346C130.237 153.511 130.166 153.676 130.096 153.865C134.859 155.279 142.641 154.572 149.455 153.228L149.432 153.204Z" fill="url(#paint8_linear_344_3203)"/>
<path style="mix-blend-mode:overlay" opacity="0.9" d="M139.699 144.856C139.699 144.856 139.557 145.021 139.487 145.092C139.156 145.493 138.921 145.846 138.803 146.176C142.67 143.37 150.522 140.069 163.327 137.522C167.571 136.673 171.368 136.273 174.622 136.225C177.451 136.131 180.139 136.32 182.45 136.886C183.912 135.966 185.186 135.094 186.247 134.339C183.7 133.514 180.611 133.254 177.31 133.372C174.056 133.419 170.259 133.844 166.015 134.669C150.758 137.687 142.552 141.79 139.675 144.856H139.699Z" fill="url(#paint9_radial_344_3203)"/>
<g style="mix-blend-mode:overlay" opacity="0.8">
<path d="M163.325 137.522C150.497 140.045 142.668 143.37 138.801 146.176C138.778 146.246 138.754 146.341 138.73 146.411C142.668 143.629 150.45 140.375 163.089 137.875C167.334 137.026 171.13 136.626 174.384 136.578C177.12 136.508 179.714 136.673 181.977 137.191C182.142 137.097 182.284 137.003 182.425 136.909C180.114 136.343 177.426 136.154 174.597 136.248C171.342 136.295 167.546 136.72 163.301 137.545L163.325 137.522Z" fill="white"/>
</g>
<path style="mix-blend-mode:overlay" opacity="0.4" d="M188.179 138.207C187.731 138.49 187.26 138.773 186.788 139.056C187.401 141.603 186.175 145.659 181.129 150.634C183.511 149.432 185.798 148.182 187.944 146.885C192.023 142.24 191.952 138.75 190.372 136.792C189.665 137.241 188.934 137.736 188.156 138.207H188.179Z" fill="url(#paint10_radial_344_3203)"/>
<path style="mix-blend-mode:overlay" opacity="0.5" d="M186.787 139.056C186.551 139.198 186.316 139.339 186.08 139.481C186.599 142.074 185.207 146.177 180.02 151.2C180.397 151.012 180.751 150.823 181.128 150.634C186.174 145.659 187.4 141.603 186.787 139.056V139.056Z" fill="url(#paint11_linear_344_3203)"/>
<path style="mix-blend-mode:overlay" opacity="0.9" d="M163.652 156.788C163.817 156.717 163.958 156.67 164.123 156.599C164.925 156.269 165.68 155.915 166.387 155.562C161.246 156.906 156.412 156.387 155.233 151.6C154.833 150.02 155.257 148.134 156.365 146.106C157.214 144.408 158.629 142.427 160.822 140.164C159.219 140.494 157.662 140.847 156.271 141.201C153.418 143.96 151.673 146.318 150.682 148.299C149.574 150.327 149.15 152.213 149.55 153.793C150.965 159.5 157.568 159.146 163.652 156.788Z" fill="url(#paint12_radial_344_3203)"/>
<g style="mix-blend-mode:overlay" opacity="0.8">
<path d="M155.23 151.6C156.409 156.387 161.267 156.905 166.384 155.561C166.549 155.467 166.714 155.373 166.903 155.302C161.856 156.575 157.117 156.009 155.938 151.293C155.537 149.713 155.961 147.827 157.07 145.799C157.895 144.148 159.239 142.238 161.314 140.069C161.149 140.092 160.984 140.14 160.795 140.163C158.602 142.427 157.187 144.408 156.339 146.105C155.23 148.133 154.806 150.02 155.207 151.6H155.23Z" fill="white"/>
</g>
<path style="mix-blend-mode:overlay" opacity="0.3" d="M166.003 134.671C166.499 134.576 166.994 134.482 167.489 134.388C173.667 130.497 182.698 125.757 192.484 122.173C190.527 122.291 188.452 122.55 186.236 122.927C176.851 126.677 168.715 131.464 163.504 135.189C164.329 135.024 165.155 134.836 166.003 134.671V134.671Z" fill="url(#paint13_radial_344_3203)"/>
<path style="mix-blend-mode:overlay" opacity="0.4" d="M167.496 134.387C167.732 134.34 167.991 134.293 168.227 134.269C174.476 130.402 183.578 125.662 193.388 122.125C193.105 122.125 192.798 122.149 192.492 122.172C182.682 125.756 173.674 130.52 167.496 134.387V134.387Z" fill="url(#paint14_linear_344_3203)"/>
<path d="M203.243 141.719C222.107 127.477 221.565 116.182 202.04 116.441C192.325 116.582 179.709 119.577 167.188 124.293C167.094 124.34 166.999 124.364 166.905 124.411C154.384 129.151 141.957 135.635 132.548 142.733C131.652 143.417 130.827 144.077 130.001 144.738C129.954 144.761 129.931 144.808 129.883 144.832C129.341 145.28 128.846 145.704 128.351 146.129C128.351 146.129 128.351 146.129 128.327 146.129C127.879 146.53 127.455 146.907 127.03 147.284C114.037 159.287 116.372 168.224 133.751 167.988C153.275 167.705 184.378 155.938 203.219 141.719H203.243ZM195.532 141.837C193.221 143.582 190.651 145.304 187.915 146.931C187.915 146.931 187.915 146.931 187.939 146.907C192.018 142.262 191.948 138.772 190.368 136.791C202.158 129.08 203.408 125.708 200.366 125.024C200.295 125.024 200.201 124.977 200.106 124.977C197.513 124.553 192.396 126.133 188.693 128.467C184.968 130.801 184.048 133.042 186.642 133.466C186.878 133.513 187.114 133.513 187.373 133.537C187.019 133.796 186.642 134.079 186.241 134.362C183.694 133.537 180.605 133.301 177.304 133.395C176.101 133.395 174.828 133.49 173.484 133.608C177.563 131.014 182.963 128.137 188.434 126.085C193.716 124.105 198.904 123.043 202.276 123.491C202.913 123.586 203.502 123.751 203.926 123.963C203.926 123.963 203.974 123.963 203.997 123.987C208.855 127.123 206.072 133.938 195.532 141.884V141.837ZM166.999 144.903C164.948 145.752 162.778 146.6 160.491 147.402C160.774 145.964 161.552 144.455 162.708 142.875C162.778 142.78 162.826 142.71 162.896 142.615C163.698 141.625 164.712 140.517 165.962 139.338C168.909 139.008 171.432 138.913 173.508 139.102C173.625 139.102 173.72 139.102 173.838 139.125C175.087 139.267 176.243 139.526 177.28 139.904C174.05 141.672 170.749 143.276 167.518 144.667C167.353 144.738 167.188 144.808 166.999 144.879V144.903ZM186.265 122.902C186.265 122.902 186.241 122.902 186.217 122.902C176.832 126.651 168.697 131.438 163.486 135.164C149.833 138.111 142.381 141.955 139.669 144.832C139.599 144.903 139.528 144.997 139.457 145.068C137.524 147.308 139.292 148.463 143.395 147.638C147.498 146.836 152.379 144.36 154.313 142.12C154.478 141.932 154.619 141.743 154.714 141.554C155.209 141.413 155.704 141.295 156.247 141.153C153.393 143.912 151.625 146.27 150.634 148.251C150.233 149.006 149.927 149.737 149.691 150.421C145.117 151.364 140.377 151.835 137.594 151.128C134.906 150.444 134.34 148.558 136.651 145.752C137.076 145.233 137.689 144.62 138.349 144.054C138.962 143.559 139.575 143.063 140.235 142.568C152.521 133.348 171.48 125.425 186.265 122.902ZM141.226 162.376C133.68 162.494 129.789 160.372 129.53 156.858C134.835 157.754 143.041 156.434 149.833 154.689C151.695 159.428 157.897 159.004 163.651 156.787C163.816 156.717 163.957 156.669 164.122 156.599C168.65 154.783 171.998 152.071 171.621 150.538C171.244 149.006 167.282 149.241 162.755 151.057C162.354 151.222 161.977 151.387 161.599 151.552C161.481 151.411 161.34 151.269 161.222 151.128C166.622 149.194 171.456 147.096 175.748 145.021C177.351 144.242 178.955 143.464 180.511 142.639C181.006 144.29 180.369 146.718 177.658 149.477C175.064 152.142 170.442 155.089 164.759 157.424C163.674 157.872 162.495 158.296 161.411 158.65C161.411 158.65 161.387 158.65 161.364 158.65C154.03 160.914 146.979 162.282 141.226 162.352V162.376Z" stroke="#3442C0" stroke-linejoin="round"/>
<path d="M214.102 41.4635C193.105 65.9218 202.629 108.577 235.355 136.731C268.081 164.884 311.618 167.868 332.603 143.391C336.117 139.292 339.565 135.288 343.068 131.171C364.052 106.694 354.529 64.0389 321.803 35.8854C289.089 7.75002 245.551 4.76673 224.567 29.2432C221.052 33.3427 217.604 37.3459 214.102 41.4635V41.4635Z" fill="url(#paint15_linear_344_3203)"/>
<g style="mix-blend-mode:multiply" opacity="0.3">
<path d="M214.102 41.4635C193.105 65.9218 202.629 108.577 235.355 136.731C268.081 164.884 311.618 167.868 332.603 143.391C336.117 139.292 339.565 135.288 343.068 131.171C364.052 106.694 354.529 64.0389 321.803 35.8854C289.089 7.75002 245.551 4.76673 224.567 29.2432C221.052 33.3427 217.604 37.3459 214.102 41.4635V41.4635Z" fill="url(#paint16_linear_344_3203)"/>
</g>
<mask id="mask1_344_3203" style="mask-type:alpha" maskUnits="userSpaceOnUse" x="202" y="12" width="153" height="148">
<path d="M214.1 41.463C193.103 65.9213 202.627 108.577 235.353 136.73C268.079 164.884 311.616 167.867 332.601 143.391C336.116 139.291 339.563 135.288 343.066 131.17C364.05 106.694 354.527 64.0385 321.801 35.8849C289.087 7.74953 245.549 4.76624 224.565 29.2427C221.05 33.3422 217.603 37.3454 214.1 41.463V41.463Z" fill="url(#paint17_linear_344_3203)"/>
</mask>
<g mask="url(#mask1_344_3203)">
<path d="M305.536 -41.6861L192.128 65.2917" stroke="#29256A"/>
<path d="M311.837 -33.2261L198.429 73.7516" stroke="#29256A"/>
<path d="M318.136 -24.7671L204.728 82.2106" stroke="#29256A"/>
<path d="M324.434 -16.3057L211.026 90.672" stroke="#29256A"/>
<path d="M337.03 0.616678L223.622 107.594" stroke="#29256A"/>
<path d="M343.329 9.0781L229.921 116.056" stroke="#29256A"/>
<path d="M330.731 -7.84426L217.323 99.1335" stroke="#29256A"/>
<path d="M349.63 17.541L236.222 124.519" stroke="#29256A"/>
<path d="M355.925 26.0024L242.517 132.98" stroke="#29256A"/>
<path d="M362.226 34.4634L248.817 141.441" stroke="#29256A"/>
<path d="M368.522 42.9243L255.114 149.902" stroke="#29256A"/>
<path d="M374.823 51.3857L261.415 158.363" stroke="#29256A"/>
<path d="M381.12 59.8447L267.712 166.822" stroke="#29256A"/>
<path d="M387.419 68.3052L274.011 175.283" stroke="#29256A"/>
<path d="M393.718 76.7677L279.538 182.686" stroke="#29256A"/>
</g>
<path d="M214.102 41.4635C193.105 65.9218 202.629 108.577 235.355 136.731C268.081 164.884 311.618 167.868 332.603 143.391C336.117 139.292 339.565 135.288 343.068 131.171C364.052 106.694 354.529 64.0389 321.803 35.8854C289.089 7.75002 245.551 4.76673 224.567 29.2432C221.052 33.3427 217.604 37.3459 214.102 41.4635V41.4635Z" stroke="#29256A" stroke-linejoin="round"/>
<path d="M332.612 143.405C353.594 118.933 344.072 76.2732 311.342 48.1227C278.612 19.9721 235.07 16.9906 214.088 41.4633C193.105 65.9359 202.628 108.595 235.358 136.746C268.087 164.896 311.63 167.878 332.612 143.405Z" fill="url(#paint18_linear_344_3203)" stroke="#29256A" stroke-linejoin="round"/>
<path opacity="0.1" d="M210.661 46.0357C194.337 70.9836 204.575 110.267 235.351 136.732C266.127 163.197 306.447 167.419 328.596 147.501L210.661 46.0357Z" fill="white"/>
<g style="mix-blend-mode:multiply" opacity="0.5">
<path d="M240.428 130.816C268.063 154.577 305.004 156.879 322.946 135.955C329.727 128.051 332.822 117.96 332.56 107.162C332.122 115.915 329.237 124.039 323.647 130.555C306.734 150.277 271.65 147.869 245.273 125.184C218.896 102.498 211.216 68.1066 228.129 48.3847C233.718 41.8689 241.298 37.7728 249.891 36.0369C239.206 37.4055 229.707 41.9866 222.908 49.9029C204.966 70.827 212.811 107.043 240.428 130.816Z" fill="url(#paint19_linear_344_3203)"/>
</g>
<path d="M240.428 130.816C268.063 154.577 305.004 156.879 322.946 135.955C329.727 128.051 332.822 117.96 332.56 107.162C332.122 115.915 329.237 124.039 323.647 130.555C306.734 150.277 271.65 147.869 245.273 125.184C218.896 102.498 211.216 68.1066 228.129 48.3847C233.718 41.8689 241.298 37.7728 249.891 36.0369C239.206 37.4055 229.707 41.9866 222.908 49.9029C204.966 70.827 212.811 107.043 240.428 130.816Z" stroke="#29256A" stroke-linejoin="round"/>
<path d="M323.066 135.198C323.066 135.198 323.478 134.638 324.246 133.556C324.622 133.02 325.118 132.353 325.669 131.571C326.25 130.795 326.674 129.783 327.286 128.699C327.583 128.163 327.874 127.579 328.213 126.989C328.523 126.393 328.711 125.693 328.99 125.013C329.495 123.608 330.168 122.145 330.492 120.468C330.906 118.809 331.387 117.055 331.525 115.135C331.654 114.188 331.759 113.205 331.882 112.209C331.896 111.207 331.917 110.174 331.926 109.124C332.07 107.017 331.726 104.842 331.569 102.595C331.499 101.465 331.194 100.334 331.004 99.18C330.766 98.0315 330.66 96.8474 330.283 95.6861C329.608 93.3639 329.041 90.9698 328.058 88.6158C327.59 87.4359 327.226 86.2142 326.662 85.0459C326.116 83.8656 325.552 82.6972 325.006 81.5169C324.496 80.3126 323.769 79.1736 323.109 78.0169C322.43 76.8721 321.83 75.6492 321.067 74.5342C319.523 72.316 318.081 69.9777 316.277 67.879C312.947 63.4717 308.844 59.5494 304.734 55.8142C300.328 52.2224 295.916 48.8178 291.05 46.1836C288.707 44.7281 286.195 43.6461 283.737 42.4496C282.509 41.8514 281.225 41.4461 280.008 40.9446C278.767 40.4851 277.544 39.9352 276.26 39.6084C275 39.2395 273.759 38.8586 272.511 38.5078C271.27 38.1269 270.004 37.9451 268.774 37.6609C266.309 37.044 263.855 36.8379 261.467 36.5354C260.279 36.354 259.073 36.4201 257.909 36.3536C256.733 36.3474 255.6 36.2086 254.466 36.3052C252.215 36.4866 250.002 36.487 247.962 36.9472C246.936 37.1289 245.911 37.3107 244.921 37.4685C243.956 37.7412 243.008 38.0018 242.091 38.2687C240.214 38.6996 238.559 39.4275 236.965 40.0893C235.342 40.6664 234 41.553 232.696 42.2586C232.056 42.6296 231.409 42.9522 230.86 43.3418C230.322 43.7496 229.802 44.1453 229.307 44.499C228.352 45.2608 227.385 45.8474 226.714 46.5262C226.031 47.1868 225.456 47.7755 224.985 48.244C224.042 49.1809 223.534 49.6734 223.534 49.6734C223.534 49.6734 224.03 49.1627 224.931 48.2014C225.39 47.7147 225.947 47.138 226.606 46.4411C227.253 45.7259 228.177 45.1149 229.138 44.323C229.61 43.933 230.129 43.5372 230.673 43.0993C231.211 42.6915 231.857 42.3689 232.492 41.9496C233.778 41.1775 235.113 40.2426 236.731 39.6171C238.319 38.9069 239.974 38.1005 241.851 37.5912C242.787 37.3123 243.74 37.0215 244.712 36.7187C245.708 36.5307 246.752 36.337 247.795 36.1432C249.89 35.6471 252.127 35.6045 254.402 35.3811C255.542 35.2542 256.711 35.3691 257.906 35.3633C259.088 35.4179 260.3 35.3216 261.524 35.479C263.966 35.7455 266.475 35.9158 268.994 36.4967C271.55 36.8966 274.063 37.6646 276.625 38.4269C277.927 38.7417 279.162 39.3098 280.433 39.7754C281.698 40.2712 283.012 40.6827 284.241 41.2809C286.717 42.4654 289.289 43.5598 291.692 45.0276C296.649 47.6804 301.26 51.1888 305.618 54.7079C309.854 58.5946 313.951 62.5471 317.335 67.0755C319.145 69.2225 320.61 71.5972 322.154 73.8938C322.912 75.039 323.542 76.2681 324.214 77.443C324.869 78.63 325.595 79.769 326.111 81.0216C327.239 83.4368 328.372 85.8218 329.162 88.2774C330.121 90.6736 330.658 93.14 331.291 95.5163C331.65 96.6896 331.731 97.9158 331.951 99.0763C332.105 100.255 332.41 101.385 332.455 102.557C332.57 104.858 332.872 107.088 332.692 109.218C332.647 110.293 332.608 111.337 332.575 112.351C332.434 113.359 332.28 114.348 332.145 115.326C331.941 117.263 331.394 119.035 330.931 120.7C330.541 122.394 329.838 123.852 329.273 125.244C328.976 125.936 328.745 126.611 328.418 127.22C328.079 127.809 327.758 128.387 327.431 128.917C326.776 129.976 326.322 130.982 325.729 131.74C325.136 132.498 324.645 133.135 324.24 133.664C323.429 134.723 323.006 135.264 323.006 135.264L323.066 135.198Z" fill="#29256A"/>
<path d="M289.907 54.0129C265.894 39.5352 239.588 43.9165 231.096 63.7943C226.873 73.7021 227.872 85.5787 232.917 96.8068L232.903 96.8187C232.964 96.8922 232.996 96.9894 233.043 97.0747C238.143 108.282 247.25 118.823 259.208 126.017C260.354 126.703 261.49 127.347 262.631 127.939C262.682 127.971 262.732 128.003 262.785 128.009C263.542 128.399 264.298 128.788 265.071 129.139C265.071 129.139 265.083 129.154 265.11 129.157C265.791 129.484 266.486 129.8 267.184 130.09C288.779 139.313 310.453 133.91 318.006 116.221C326.486 96.3283 313.908 68.4759 289.907 54.0129V54.0129ZM286.559 61.8594C289.512 63.6505 292.244 65.6989 294.735 67.9222C294.735 67.9222 294.696 67.9046 294.67 67.9018C285.851 65.3178 277.818 66.5407 272.518 68.8212C260.278 59.3614 253.076 59.2279 250.095 62.5617C249.994 62.6446 249.933 62.7451 249.859 62.8309C247.683 65.6222 248.903 70.3327 252.558 73.3509C256.213 76.3691 260.94 76.5438 263.102 73.7644C263.282 73.5161 263.45 73.253 263.592 72.9871C264.037 73.2627 264.495 73.553 264.976 73.8727C261.911 76.7556 259.871 80.0035 258.558 83.3431C258.031 84.5716 257.593 85.85 257.245 87.1781C253.157 83.8991 249.04 79.3315 246.873 74.4386C244.761 69.6988 244.748 64.7569 247.378 61.1442C247.874 60.4613 248.527 59.8221 249.21 59.3066C249.239 59.2829 249.267 59.2592 249.296 59.2355C258.813 53.2187 273.182 53.7365 286.588 61.8358L286.559 61.8594ZM280.293 90.0238C280.293 90.0238 280.293 90.0238 280.305 90.0385C281.334 91.8365 282.245 93.7823 283.024 95.8613C279.871 96.0436 276.713 95.7836 273.656 95.1192C273.499 95.0756 273.34 95.0584 273.171 95.0001C271.233 94.5234 269.204 93.8495 267.073 92.9637C267.656 90.0542 268.678 87.5 270.031 85.3161C270.106 85.2038 270.17 85.0767 270.246 84.9644C271.155 83.6431 272.273 82.3712 273.611 81.1899C276.181 83.9171 278.331 86.7195 280.036 89.5677C280.117 89.7237 280.212 89.8678 280.307 90.012L280.293 90.0238ZM238.618 77.7529L238.642 77.7823C242.907 86.1147 250.149 92.8266 256.283 96.8885C256.713 109.855 262.049 116.188 267.445 117.988C267.588 118.043 267.744 118.087 267.889 118.116C272.13 119.336 275.621 117.142 275.673 113.211C275.725 109.28 272.309 105.123 268.068 103.903C267.689 103.795 267.335 103.717 266.979 103.665C266.895 103.214 266.828 102.725 266.761 102.235C271.781 104.223 276.374 105.226 280.499 105.577C282.035 105.743 283.565 105.814 285.075 105.803C285.095 110.17 283.966 114.868 281.018 117.951C278.184 120.939 273.559 122.141 268.212 120.721C267.192 120.451 266.103 120.039 265.087 119.568C264.229 119.114 263.385 118.648 262.531 118.141C246.934 108.734 237.499 92.0255 238.606 77.7382L238.618 77.7529ZM308.506 110.511C305.238 118.192 298.525 122.904 290.329 124.337C294.895 118.603 295.673 110.654 294.827 104.297C306.638 100.79 308.517 94.579 306.103 89.4452C306.034 89.3039 305.965 89.1626 305.897 89.0213C303.817 85.0215 299.121 82.4935 295.414 83.4061C291.708 84.3187 290.396 88.3011 292.475 92.3009C292.661 92.6423 292.874 92.9865 293.088 93.3042C292.727 93.4795 292.339 93.6519 291.91 93.8333C289.955 88.9632 287.402 84.7115 284.602 81.0357C283.579 79.6535 282.501 78.2921 281.339 76.9752C285.393 75.8992 290.653 75.7566 295.768 77.5665C300.714 79.318 305.326 83.0552 308.084 88.0787C308.607 89.0322 309.055 90.0981 309.362 91.0818C309.362 91.0818 309.374 91.0965 309.387 91.1112C311.177 97.8514 311.029 104.61 308.523 110.472L308.506 110.511Z" fill="url(#paint20_linear_344_3203)" stroke="#3442C0" stroke-linejoin="round"/>
<g style="mix-blend-mode:overlay" opacity="0.8">
<path d="M271.81 73.9372C260.382 64.498 252.966 62.7347 249.015 64.518C248.963 64.6597 248.938 64.8043 248.899 64.9607C252.88 63.3011 260.249 65.1531 271.528 74.4424C275.321 77.5692 278.613 81.1105 281.38 84.8632C283.71 87.9126 285.847 91.3696 287.629 95.2437C287.793 95.2077 287.929 95.1689 288.092 95.133C286.27 91.0939 284.062 87.5221 281.647 84.3698C278.894 80.6053 275.603 77.0639 271.795 73.949L271.81 73.9372Z" fill="white"/>
</g>
<path style="mix-blend-mode:overlay" opacity="0.6" d="M291.228 105.194C290.998 105.236 290.767 105.278 290.537 105.32C290.345 111.793 288.198 119.488 282.591 124.721C282.95 124.747 283.296 124.757 283.669 124.771C289.138 119.429 291.142 111.678 291.228 105.194V105.194Z" fill="url(#paint21_linear_344_3203)"/>
<path style="mix-blend-mode:overlay" opacity="0.9" d="M267.46 118C267.602 118.056 267.759 118.099 267.904 118.128C268.661 118.344 269.374 118.447 270.081 118.457C265.425 115.424 261.457 108.53 261.611 96.2688C261.66 92.2172 262.471 88.4754 263.89 85.1472C265.017 82.283 266.701 79.4787 269.086 76.9107C267.646 75.7246 266.259 74.7182 264.991 73.8853C261.926 76.7682 259.871 80.0279 258.558 83.3675C257.128 86.681 256.331 90.411 256.28 94.4892C256.095 109.103 261.752 116.086 267.474 117.988L267.46 118Z" fill="url(#paint22_radial_344_3203)"/>
<g style="mix-blend-mode:overlay" opacity="0.8">
<path d="M261.582 96.2928C261.429 108.554 265.397 115.448 270.052 118.481C270.225 118.486 270.386 118.477 270.547 118.467C265.976 115.39 262.114 108.507 262.267 96.4201C262.315 92.3685 263.126 88.6267 264.545 85.2985C265.637 82.5376 267.247 79.8191 269.506 77.3312C269.355 77.2079 269.205 77.0846 269.055 76.9612C266.669 79.5292 264.986 82.3335 263.859 85.1977C262.428 88.5112 261.631 92.2412 261.58 96.3194L261.582 96.2928Z" fill="white"/>
</g>
<path style="mix-blend-mode:overlay" opacity="0.4" d="M274.775 70.6431C275.226 71.013 275.662 71.3948 276.099 71.7765C282.243 70.2832 291 70.1694 300.147 73.6456C298.469 71.6171 296.647 69.7069 294.68 67.9418C285.862 65.3578 277.829 66.5807 272.541 68.876C273.27 69.4366 274.009 70.0384 274.787 70.6578L274.775 70.6431Z" fill="url(#paint23_radial_344_3203)"/>
<path style="mix-blend-mode:overlay" opacity="0.5" d="M276.087 71.7616C276.298 71.9584 276.523 72.1434 276.735 72.3402C282.938 70.9469 291.751 70.9597 300.888 74.5687C300.632 74.26 300.377 73.9513 300.109 73.6279C290.962 70.1516 282.205 70.2655 276.061 71.7588L276.087 71.7616Z" fill="url(#paint24_linear_344_3203)"/>
<path style="mix-blend-mode:overlay" opacity="0.9" d="M306.102 89.4453C306.033 89.304 305.965 89.1627 305.896 89.0214C305.526 88.3121 305.073 87.6473 304.56 87.0565C305.266 91.8455 301.83 96.9914 290.234 99.8252C286.405 100.765 282.29 100.95 278.104 100.526C274.562 100.238 270.685 99.4586 266.477 97.9875C266.472 99.5267 266.568 100.983 266.741 102.3C271.762 104.288 276.369 105.28 280.482 105.616C284.654 106.052 288.769 105.866 292.613 104.915C306.416 101.542 308.664 94.9029 306.1 89.4718L306.102 89.4453Z" fill="url(#paint25_radial_344_3203)"/>
<g style="mix-blend-mode:overlay" opacity="0.8">
<path d="M290.235 99.8001C301.816 96.9782 305.252 91.8323 304.56 87.0314C304.439 86.8844 304.317 86.7374 304.181 86.6023C304.772 91.3387 301.265 96.3698 289.832 99.1676C286.003 100.107 281.888 100.293 277.702 99.8685C274.28 99.58 270.533 98.8414 266.478 97.4671C266.465 97.6264 266.478 97.7885 266.465 97.9478C270.673 99.4189 274.564 100.186 278.092 100.486C282.264 100.923 286.379 100.737 290.223 99.7855L290.235 99.8001Z" fill="white"/>
</g>
<path style="mix-blend-mode:overlay" opacity="0.3" d="M256.233 94.5C256.246 94.0193 256.27 93.5533 256.294 93.0873C250.223 88.0815 243.483 80.4597 239.805 71.6416C239.179 73.5959 238.772 75.6407 238.598 77.7909C242.863 86.1234 250.105 92.8352 256.239 96.8972C256.208 96.1307 256.193 95.3257 256.219 94.5118L256.233 94.5Z" fill="url(#paint26_radial_344_3203)"/>
<path style="mix-blend-mode:overlay" opacity="0.4" d="M256.312 93.0752C256.331 92.8363 256.336 92.6092 256.356 92.3703C250.344 87.2906 243.677 79.583 240.136 70.7261C240.018 71.0214 239.927 71.3195 239.836 71.6177C243.515 80.4358 250.255 88.0576 256.326 93.0634L256.312 93.0752Z" fill="url(#paint27_linear_344_3203)"/>
<path d="M289.907 54.0129C265.894 39.5352 239.588 43.9165 231.096 63.7943C226.873 73.7021 227.872 85.5787 232.917 96.8068L232.903 96.8187C232.964 96.8922 232.996 96.9894 233.043 97.0747C238.143 108.282 247.25 118.823 259.208 126.017C260.354 126.703 261.49 127.347 262.631 127.939C262.682 127.971 262.732 128.003 262.785 128.009C263.542 128.399 264.298 128.788 265.071 129.139C265.071 129.139 265.083 129.154 265.11 129.157C265.791 129.484 266.486 129.8 267.184 130.09C288.779 139.313 310.453 133.91 318.006 116.221C326.486 96.3283 313.908 68.4759 289.907 54.0129V54.0129ZM286.559 61.8594C289.512 63.6505 292.244 65.6989 294.735 67.9222C294.735 67.9222 294.696 67.9046 294.67 67.9018C285.851 65.3178 277.818 66.5407 272.518 68.8212C260.278 59.3614 253.076 59.2279 250.095 62.5617C249.994 62.6446 249.933 62.7451 249.859 62.8309C247.683 65.6222 248.903 70.3327 252.558 73.3509C256.213 76.3691 260.94 76.5438 263.102 73.7644C263.282 73.5161 263.45 73.253 263.592 72.9871C264.037 73.2627 264.495 73.553 264.976 73.8727C261.911 76.7556 259.871 80.0035 258.558 83.3431C258.031 84.5716 257.593 85.85 257.245 87.1781C253.157 83.8991 249.04 79.3315 246.873 74.4386C244.761 69.6988 244.748 64.7569 247.378 61.1442C247.874 60.4613 248.527 59.8221 249.21 59.3066C249.239 59.2829 249.267 59.2592 249.296 59.2355C258.813 53.2187 273.182 53.7365 286.588 61.8358L286.559 61.8594ZM280.293 90.0238C280.293 90.0238 280.293 90.0238 280.305 90.0385C281.334 91.8365 282.245 93.7823 283.024 95.8613C279.871 96.0436 276.713 95.7836 273.656 95.1192C273.499 95.0756 273.34 95.0584 273.171 95.0001C271.233 94.5234 269.204 93.8495 267.073 92.9637C267.656 90.0542 268.678 87.5 270.031 85.3161C270.106 85.2038 270.17 85.0767 270.246 84.9644C271.155 83.6431 272.273 82.3712 273.611 81.1899C276.181 83.9171 278.331 86.7195 280.036 89.5677C280.117 89.7237 280.212 89.8678 280.307 90.012L280.293 90.0238ZM238.618 77.7529L238.642 77.7823C242.907 86.1147 250.149 92.8266 256.283 96.8885C256.713 109.855 262.049 116.188 267.445 117.988C267.588 118.043 267.744 118.087 267.889 118.116C272.13 119.336 275.621 117.142 275.673 113.211C275.725 109.28 272.309 105.123 268.068 103.903C267.689 103.795 267.335 103.717 266.979 103.665C266.895 103.214 266.828 102.725 266.761 102.235C271.781 104.223 276.374 105.226 280.499 105.577C282.035 105.743 283.565 105.814 285.075 105.803C285.095 110.17 283.966 114.868 281.018 117.951C278.184 120.939 273.559 122.141 268.212 120.721C267.192 120.451 266.103 120.039 265.087 119.568C264.229 119.114 263.385 118.648 262.531 118.141C246.934 108.734 237.499 92.0255 238.606 77.7382L238.618 77.7529ZM308.506 110.511C305.238 118.192 298.525 122.904 290.329 124.337C294.895 118.603 295.673 110.654 294.827 104.297C306.638 100.79 308.517 94.579 306.103 89.4452C306.034 89.3039 305.965 89.1626 305.897 89.0213C303.817 85.0215 299.121 82.4935 295.414 83.4061C291.708 84.3187 290.396 88.3011 292.475 92.3009C292.661 92.6423 292.874 92.9865 293.088 93.3042C292.727 93.4795 292.339 93.6519 291.91 93.8333C289.955 88.9632 287.402 84.7115 284.602 81.0357C283.579 79.6535 282.501 78.2921 281.339 76.9752C285.393 75.8992 290.653 75.7566 295.768 77.5665C300.714 79.318 305.326 83.0552 308.084 88.0787C308.607 89.0322 309.055 90.0981 309.362 91.0818C309.362 91.0818 309.374 91.0965 309.387 91.1112C311.177 97.8514 311.029 104.61 308.523 110.472L308.506 110.511Z" stroke="#3442C0" stroke-linejoin="round"/>
<path d="M299.5 241.354C305.674 211.705 277.529 180.759 236.615 172.239C195.702 163.719 157.521 180.852 151.346 210.501L147.479 229.07C141.305 258.718 169.473 289.669 210.386 298.189C251.299 306.709 289.48 289.576 295.655 259.927L299.522 241.358L299.5 241.354Z" fill="url(#paint28_linear_344_3203)" stroke="#29256A" stroke-linejoin="round"/>
<g style="mix-blend-mode:multiply" opacity="0.3">
<path d="M299.5 241.354C305.674 211.705 277.529 180.759 236.615 172.239C195.702 163.719 157.521 180.852 151.346 210.501L147.479 229.07C141.305 258.718 169.473 289.669 210.386 298.189C251.299 306.709 289.48 289.576 295.655 259.927L299.522 241.358L299.5 241.354Z" fill="url(#paint29_linear_344_3203)"/>
<path d="M299.5 241.354C305.674 211.705 277.529 180.759 236.615 172.239C195.702 163.719 157.521 180.852 151.346 210.501L147.479 229.07C141.305 258.718 169.473 289.669 210.386 298.189C251.299 306.709 289.48 289.576 295.655 259.927L299.522 241.358L299.5 241.354Z" stroke="#29256A" stroke-linejoin="round"/>
</g>
<mask id="mask2_344_3203" style="mask-type:alpha" maskUnits="userSpaceOnUse" x="146" y="169" width="155" height="132">
<path d="M299.498 241.354C305.672 211.705 277.527 180.759 236.613 172.239C195.7 163.719 157.519 180.852 151.344 210.501L147.477 229.07C141.303 258.718 169.471 289.669 210.384 298.189C251.298 306.709 289.479 289.576 295.653 259.927L299.52 241.358L299.498 241.354Z" fill="url(#paint30_linear_344_3203)" stroke="#29256A" stroke-linejoin="round"/>
</mask>
<g mask="url(#mask2_344_3203)">
<path d="M152.442 135.345L130.368 298.084" stroke="#29256A"/>
<path d="M163.206 138.104L141.131 300.843" stroke="#29256A"/>
<path d="M173.968 140.864L151.893 303.603" stroke="#29256A"/>
<path d="M184.729 143.627L162.655 306.365" stroke="#29256A"/>
<path d="M206.253 149.149L184.178 311.888" stroke="#29256A"/>
<path d="M217.018 151.91L194.944 314.649" stroke="#29256A"/>
<path d="M195.491 146.387L173.416 309.126" stroke="#29256A"/>
<path d="M227.782 154.673L205.707 317.411" stroke="#29256A"/>
<path d="M238.546 157.434L216.471 320.173" stroke="#29256A"/>
<path d="M249.309 160.195L227.235 322.934" stroke="#29256A"/>
<path d="M260.071 162.957L237.996 325.696" stroke="#29256A"/>
<path d="M270.833 165.718L248.758 328.457" stroke="#29256A"/>
<path d="M281.594 168.478L259.52 331.217" stroke="#29256A"/>
<path d="M292.358 171.238L270.284 333.977" stroke="#29256A"/>
<path d="M303.122 174L279.713 336.382" stroke="#29256A"/>
</g>
<path d="M299.5 241.354C305.674 211.705 277.529 180.759 236.615 172.239C195.702 163.719 157.521 180.852 151.346 210.501L147.479 229.07C141.305 258.718 169.473 289.669 210.386 298.189C251.299 306.709 289.48 289.576 295.655 259.927L299.522 241.358L299.5 241.354Z" stroke="#29256A"/>
<path d="M214.253 279.62C255.171 288.141 293.347 271.011 299.522 241.358C305.697 211.706 277.533 180.76 236.615 172.239C195.698 163.718 157.521 180.848 151.346 210.501C145.171 240.153 173.335 271.099 214.253 279.62Z" fill="url(#paint31_linear_344_3203)" stroke="#29256A" stroke-linejoin="round"/>
<path opacity="0.2" d="M174.434 261.596C185.093 269.965 198.743 276.415 214.243 279.643C254.691 288.066 292.424 271.417 299.255 242.391C229.622 188.239 184.494 187.072 174.434 261.596Z" fill="white"/>
<g style="mix-blend-mode:multiply" opacity="0.5">
<path d="M235.116 179.418C200.589 172.228 168.3 186.959 163.021 212.309C161.027 221.881 163.164 231.62 168.484 240.404C164.713 232.96 163.322 224.972 164.965 217.083C169.944 193.174 200.698 179.372 233.673 186.239C266.648 193.105 289.336 218.037 284.357 241.946C282.714 249.835 278.246 256.626 271.816 261.946C280.2 256.016 286.047 247.939 288.045 238.345C293.329 212.973 269.621 186.604 235.072 179.409L235.116 179.418Z" fill="url(#paint32_linear_344_3203)"/>
</g>
<path d="M235.118 179.418C200.591 172.228 168.302 186.959 163.023 212.309C161.029 221.881 163.166 231.62 168.486 240.404C164.714 232.96 163.324 224.972 164.967 217.083C169.946 193.174 200.7 179.372 233.675 186.239C266.65 193.105 289.338 218.037 284.359 241.946C282.716 249.835 278.247 256.626 271.818 261.946C280.202 256.016 286.049 247.939 288.047 238.345C293.331 212.973 269.623 186.604 235.074 179.409L235.118 179.418Z" stroke="#29256A"/>
<path d="M275.475 233.936C277.317 214.104 256.582 194.943 229.136 191.098C215.466 189.185 202.71 191.435 193.131 196.644L193.11 196.64C193.034 196.692 192.984 196.726 192.908 196.778C183.392 202 177.03 210.178 176.097 220.048C176.007 220.978 175.981 221.921 175.998 222.871C175.99 222.914 175.982 222.956 175.995 223.003C176.008 223.622 176.043 224.246 176.102 224.852C176.102 224.852 176.102 224.852 176.098 224.873C176.145 225.433 176.213 225.997 176.306 226.543C178.914 243.893 198.014 259.461 222.435 262.886C249.881 266.731 273.612 253.765 275.475 233.936V233.936ZM264.635 232.429C264.411 234.876 263.734 237.171 262.737 239.317C262.737 239.317 262.741 239.296 262.745 239.275C260.345 232.342 254.137 226.47 248.39 222.779C251.67 212.407 247.476 206.984 241.938 205.184C241.794 205.134 241.629 205.081 241.486 205.032C237.051 203.749 232.48 205.261 231.297 208.385C230.113 211.509 232.738 215.07 237.172 216.353C237.565 216.471 237.945 216.544 238.324 216.616C238.277 216.981 238.225 217.368 238.153 217.751C233.077 215.818 228.193 214.714 223.647 214.137C221.964 213.906 220.248 213.734 218.541 213.631C219.789 210.166 222.412 206.478 226.62 204.236C230.684 202.056 236.227 201.411 241.864 202.922C242.924 203.212 244.048 203.623 245.037 204.054C245.08 204.062 245.143 204.074 245.177 204.124C257.675 210.485 265.693 221.327 264.66 232.412L264.635 232.429ZM229.219 231.301C227.807 232.289 226.185 233.237 224.321 234.073C222.208 231.733 220.608 229.336 219.51 226.946C219.446 226.824 219.382 226.702 219.342 226.562C218.711 225.054 218.251 223.446 217.963 221.739C221.578 221.809 225.058 222.249 228.329 222.98C228.498 223.012 228.666 223.044 228.856 223.08C230.879 223.596 232.982 224.26 235.134 225.131C233.632 227.402 231.752 229.359 229.579 231.017C229.453 231.103 229.349 231.194 229.223 231.28L229.219 231.301ZM217.978 198.519C217.978 198.519 217.978 198.519 217.953 198.537C211.158 202.777 207.975 209.069 207.09 214.189C192.769 216.163 188.865 220.952 190.089 225.216C190.111 225.33 190.154 225.449 190.197 225.567C191.379 228.898 195.94 231.24 200.376 230.783C204.813 230.325 207.455 227.235 206.273 223.904C206.173 223.621 206.032 223.33 205.887 223.06C206.345 222.948 206.849 222.824 207.371 222.725C208.162 226.731 209.776 230.32 211.871 233.45C212.609 234.625 213.461 235.779 214.381 236.923C209.486 237.492 203.522 237.241 198.291 235.432C193.225 233.677 189.107 230.384 187.476 226.196C187.166 225.41 186.965 224.513 186.899 223.707C186.902 223.003 186.905 222.298 186.971 221.606C188.17 208.724 201.281 199.536 217.995 198.545L217.978 198.519ZM223.176 255.073C212.572 253.589 203.25 249.153 196.708 243.196C205.881 245.885 215.294 245.469 221.93 244.018C232.991 252.42 241.069 253.05 245.405 250.59C245.526 250.525 245.648 250.46 245.748 250.391C249.005 248.322 249.011 244.489 245.758 241.822C242.504 239.156 237.238 238.685 233.982 240.754C233.705 240.944 233.45 241.138 233.216 241.336C232.805 241.082 232.373 240.823 231.907 240.515C236.196 238.421 239.436 235.973 241.888 233.42C242.833 232.476 243.697 231.494 244.484 230.454C248.127 233.371 251.471 237.289 252.491 241.36C253.492 245.296 252.067 249.233 248.082 251.914C247.328 252.432 246.409 252.896 245.49 253.251C245.49 253.251 245.469 253.247 245.443 253.264C238.927 255.464 231.245 256.208 223.176 255.073V255.073Z" fill="url(#paint33_linear_344_3203)" stroke="#3442C0" stroke-linejoin="round"/>
<g style="mix-blend-mode:overlay" opacity="0.8">
<path d="M242.202 222.905C245.935 213.148 243.469 207.37 239.094 204.622C238.904 204.586 238.727 204.597 238.529 204.603C242.79 207.373 245.151 213.131 241.464 222.764C240.239 225.991 238.241 228.917 235.68 231.471C233.637 233.595 231.059 235.661 227.783 237.485C227.915 237.598 228.047 237.711 228.182 237.803C231.621 235.922 234.317 233.812 236.418 231.611C238.976 229.078 240.974 226.153 242.202 222.905V222.905Z" fill="white"/>
</g>
<path style="mix-blend-mode:overlay" opacity="0.6" d="M218.773 241.436C218.586 241.269 218.399 241.101 218.212 240.934C210.807 241.599 200.893 240.972 191.637 237.452C191.825 237.73 192.017 237.987 192.225 238.269C201.501 241.683 211.41 242.22 218.769 241.458L218.773 241.436Z" fill="url(#paint34_linear_344_3203)"/>
<path style="mix-blend-mode:overlay" opacity="0.9" d="M190.069 225.212C190.091 225.327 190.134 225.445 190.177 225.563C190.393 226.155 190.701 226.72 191.105 227.238C191.709 223.365 197.074 219.514 210.944 218.071C215.537 217.599 220.236 217.72 224.812 218.369C228.722 218.847 232.879 219.746 237.188 221.225C237.642 219.989 237.948 218.836 238.129 217.768C233.032 215.831 228.152 214.706 223.623 214.155C219.046 213.506 214.348 213.386 209.755 213.858C193.233 215.568 188.784 220.694 190.069 225.212V225.212Z" fill="url(#paint35_radial_344_3203)"/>
<g style="mix-blend-mode:overlay" opacity="0.8">
<path d="M210.944 218.071C197.074 219.514 191.709 223.364 191.105 227.238C191.211 227.368 191.3 227.473 191.407 227.604C192.134 223.776 197.525 220.018 211.214 218.607C215.807 218.135 220.505 218.256 225.082 218.905C228.86 219.38 232.874 220.23 237.027 221.613C237.072 221.49 237.122 221.345 237.167 221.221C232.853 219.763 228.696 218.864 224.791 218.365C220.214 217.716 215.516 217.595 210.923 218.067L210.944 218.071Z" fill="white"/>
</g>
<path style="mix-blend-mode:overlay" opacity="0.4" d="M247.718 224.7C247.578 225.092 247.399 225.455 247.242 225.822C252.612 230.234 258.013 236.79 259.602 244.076C260.871 242.576 261.923 240.947 262.726 239.249C260.348 232.32 254.119 226.444 248.388 222.778C248.183 223.4 247.977 224.022 247.722 224.679L247.718 224.7Z" fill="url(#paint36_radial_344_3203)"/>
<path style="mix-blend-mode:overlay" opacity="0.5" d="M247.22 225.841C247.141 226.024 247.063 226.207 246.959 226.408C252.254 230.872 257.533 237.493 258.966 244.794C259.163 244.566 259.38 244.343 259.58 244.095C257.991 236.809 252.59 230.253 247.22 225.841V225.841Z" fill="url(#paint37_linear_344_3203)"/>
<path style="mix-blend-mode:overlay" opacity="0.9" d="M245.382 250.566C245.382 250.566 245.626 250.436 245.726 250.367C246.3 249.991 246.773 249.574 247.144 249.116C242.186 250.246 234.334 248.314 224.196 240C220.828 237.245 218.153 234.182 216.134 231C214.33 228.3 212.868 225.291 211.994 221.952C210.251 222.15 208.674 222.401 207.307 222.692C208.094 226.72 209.737 230.27 211.831 233.4C213.85 236.582 216.547 239.649 219.894 242.4C231.978 252.318 240.782 253.152 245.361 250.562L245.382 250.566Z" fill="url(#paint38_radial_344_3203)"/>
<g style="mix-blend-mode:overlay" opacity="0.8">
<path d="M224.221 240.004C234.358 248.318 242.206 250.271 247.168 249.12C247.256 249.004 247.343 248.889 247.41 248.769C242.426 249.806 234.67 247.827 224.668 239.604C221.3 236.85 218.625 233.786 216.606 230.604C214.87 228.005 213.455 225.093 212.557 221.882C212.38 221.892 212.199 221.924 212.001 221.931C212.875 225.269 214.337 228.279 216.141 230.979C218.16 234.16 220.857 237.228 224.203 239.979L224.221 240.004Z" fill="white"/>
</g>
<path style="mix-blend-mode:overlay" opacity="0.3" d="M209.756 213.836C210.291 213.783 210.847 213.734 211.398 213.707C213.386 208.532 217.895 202.514 225.586 198.62C223.026 198.399 220.456 198.351 217.959 198.494C211.165 202.734 207.981 209.026 207.096 214.146C207.95 214.022 208.843 213.927 209.76 213.815L209.756 213.836Z" fill="url(#paint39_radial_344_3203)"/>
<path style="mix-blend-mode:overlay" opacity="0.4" d="M211.374 213.703C211.639 213.687 211.93 213.654 212.195 213.638C214.288 208.483 218.941 202.515 226.763 198.734C226.358 198.679 225.97 198.649 225.582 198.62C217.875 202.488 213.362 208.528 211.395 213.707L211.374 213.703Z" fill="url(#paint40_linear_344_3203)"/>
<path d="M275.475 233.936C277.317 214.103 256.582 194.942 229.136 191.097C215.466 189.185 202.71 191.434 193.131 196.644L193.11 196.64C193.034 196.691 192.984 196.726 192.908 196.778C183.392 201.999 177.03 210.178 176.097 220.047C176.007 220.978 175.981 221.92 175.998 222.871C175.99 222.913 175.982 222.956 175.995 223.002C176.008 223.622 176.043 224.245 176.102 224.852C176.102 224.852 176.102 224.852 176.098 224.873C176.145 225.433 176.213 225.996 176.306 226.543C178.914 243.893 198.014 259.461 222.435 262.886C249.881 266.731 273.612 253.764 275.475 233.936V233.936ZM264.635 232.429C264.411 234.876 263.734 237.171 262.737 239.317C262.737 239.317 262.741 239.296 262.745 239.274C260.345 232.341 254.137 226.47 248.39 222.778C251.67 212.407 247.476 206.984 241.938 205.183C241.794 205.134 241.629 205.08 241.486 205.031C237.051 203.749 232.48 205.26 231.297 208.385C230.113 211.509 232.738 215.07 237.172 216.352C237.565 216.471 237.945 216.543 238.324 216.615C238.277 216.981 238.225 217.367 238.153 217.75C233.077 215.817 228.193 214.714 223.647 214.137C221.964 213.906 220.248 213.734 218.541 213.63C219.789 210.166 222.412 206.478 226.62 204.236C230.684 202.055 236.227 201.411 241.864 202.922C242.924 203.211 244.048 203.623 245.037 204.053C245.08 204.061 245.143 204.073 245.177 204.124C257.675 210.484 265.693 221.327 264.66 232.411L264.635 232.429ZM229.219 231.301C227.807 232.289 226.185 233.236 224.321 234.072C222.208 231.732 220.608 229.336 219.51 226.946C219.446 226.823 219.382 226.701 219.342 226.561C218.711 225.053 218.251 223.446 217.963 221.739C221.578 221.808 225.058 222.248 228.329 222.98C228.498 223.012 228.666 223.044 228.856 223.08C230.879 223.596 232.982 224.26 235.134 225.131C233.632 227.402 231.752 229.358 229.579 231.017C229.453 231.103 229.349 231.193 229.223 231.28L229.219 231.301ZM217.978 198.519C217.978 198.519 217.978 198.519 217.953 198.536C211.158 202.776 207.975 209.068 207.09 214.188C192.769 216.162 188.865 220.951 190.089 225.216C190.111 225.33 190.154 225.448 190.197 225.567C191.379 228.898 195.94 231.24 200.376 230.782C204.813 230.325 207.455 227.235 206.273 223.904C206.173 223.621 206.032 223.329 205.887 223.059C206.345 222.948 206.849 222.823 207.371 222.724C208.162 226.73 209.776 230.319 211.871 233.449C212.609 234.625 213.461 235.778 214.381 236.922C209.486 237.491 203.522 237.24 198.291 235.432C193.225 233.677 189.107 230.383 187.476 226.196C187.166 225.41 186.965 224.512 186.899 223.707C186.902 223.002 186.905 222.298 186.971 221.605C188.17 208.723 201.281 199.535 217.995 198.544L217.978 198.519ZM223.176 255.073C212.572 253.588 203.25 249.152 196.708 243.195C205.881 245.884 215.294 245.468 221.93 244.018C232.991 252.419 241.069 253.05 245.405 250.59C245.526 250.525 245.648 250.46 245.748 250.391C249.005 248.321 249.011 244.489 245.758 241.822C242.504 239.155 237.238 238.684 233.982 240.754C233.705 240.944 233.45 241.138 233.216 241.335C232.805 241.081 232.373 240.823 231.907 240.514C236.196 238.42 239.436 235.973 241.888 233.42C242.833 232.475 243.697 231.494 244.484 230.454C248.127 233.371 251.471 237.288 252.491 241.36C253.492 245.295 252.067 249.233 248.082 251.914C247.328 252.431 246.409 252.896 245.49 253.25C245.49 253.25 245.469 253.246 245.443 253.263C238.927 255.463 231.245 256.208 223.176 255.073V255.073Z" stroke="#3442C0" stroke-linejoin="round"/>
</g>
<defs>
<linearGradient id="paint0_linear_344_3203" x1="78.5" y1="187.5" x2="241.5" y2="155.5" gradientUnits="userSpaceOnUse">
<stop stop-color="#E6007A"/>
<stop offset="0.21" stop-color="#703AC2"/>
<stop offset="0.46" stop-color="#0070EB"/>
<stop offset="0.77" stop-color="#0297FB"/>
<stop offset="1" stop-color="#0AE2FF"/>
</linearGradient>
<linearGradient id="paint1_linear_344_3203" x1="78.5" y1="187.5" x2="241.5" y2="155.5" gradientUnits="userSpaceOnUse">
<stop stop-color="#E6007A"/>
<stop offset="0.21" stop-color="#703AC2"/>
<stop offset="0.46" stop-color="#0070EB"/>
<stop offset="0.77" stop-color="#0297FB"/>
<stop offset="1" stop-color="#0AE2FF"/>
</linearGradient>
<linearGradient id="paint2_linear_344_3203" x1="126.001" y1="120.783" x2="237.521" y2="179.481" gradientUnits="userSpaceOnUse">
<stop stop-color="#E6C1FF"/>
<stop offset="0.40625" stop-color="#B6C7FF"/>
<stop offset="1" stop-color="#AFF1FF"/>
</linearGradient>
<linearGradient id="paint3_linear_344_3203" x1="71.5" y1="172" x2="221" y2="138.5" gradientUnits="userSpaceOnUse">
<stop stop-color="#E60068"/>
<stop offset="0.21" stop-color="#703AC2"/>
<stop offset="0.46" stop-color="#0070EB"/>
<stop offset="0.77" stop-color="#0297FB"/>
<stop offset="1" stop-color="#0AE2FF"/>
</linearGradient>
<linearGradient id="paint4_linear_344_3203" x1="116.635" y1="100.363" x2="127.509" y2="184.15" gradientUnits="userSpaceOnUse">
<stop stop-color="#E6007A"/>
<stop offset="0.21" stop-color="#703AC2"/>
<stop offset="0.46" stop-color="#0070EB"/>
<stop offset="0.77" stop-color="#0297FB"/>
<stop offset="1" stop-color="#0AE2FF"/>
</linearGradient>
<linearGradient id="paint5_linear_344_3203" x1="141.145" y1="127.173" x2="206.098" y2="166.363" gradientUnits="userSpaceOnUse">
<stop stop-color="#E6C1FF"/>
<stop offset="0.40625" stop-color="#B6C7FF"/>
<stop offset="1" stop-color="#AFF1FF"/>
</linearGradient>
<radialGradient id="paint6_radial_344_3203" cx="0" cy="0" r="1" gradientUnits="userSpaceOnUse" gradientTransform="translate(209.216 138.358) rotate(2.18) scale(12.5024 10.3429)">
<stop stop-color="white"/>
<stop offset="1" stop-color="white" stop-opacity="0"/>
</radialGradient>
<radialGradient id="paint7_radial_344_3203" cx="0" cy="0" r="1" gradientUnits="userSpaceOnUse" gradientTransform="translate(190.009 156.824) rotate(2.18) scale(7.26282 6.00833)">
<stop stop-color="white"/>
<stop offset="1" stop-color="white" stop-opacity="0"/>
</radialGradient>
<linearGradient id="paint8_linear_344_3203" x1="179.136" y1="155.401" x2="186.164" y2="155.543" gradientUnits="userSpaceOnUse">
<stop stop-color="white" stop-opacity="0"/>
<stop offset="1" stop-color="white"/>
</linearGradient>
<radialGradient id="paint9_radial_344_3203" cx="0" cy="0" r="1" gradientUnits="userSpaceOnUse" gradientTransform="translate(118.261 205.664) rotate(-56.63) scale(10.4566 12.3888)">
<stop stop-color="white"/>
<stop offset="1" stop-color="white" stop-opacity="0"/>
</radialGradient>
<radialGradient id="paint10_radial_344_3203" cx="0" cy="0" r="1" gradientUnits="userSpaceOnUse" gradientTransform="translate(128.975 231.218) rotate(-56.63) scale(6.07436 7.19679)">
<stop stop-color="white"/>
<stop offset="1" stop-color="white" stop-opacity="0"/>
</radialGradient>
<linearGradient id="paint11_linear_344_3203" x1="122.92" y1="238.167" x2="126.081" y2="233.234" gradientUnits="userSpaceOnUse">
<stop stop-color="white" stop-opacity="0"/>
<stop offset="1" stop-color="white"/>
</linearGradient>
<radialGradient id="paint12_radial_344_3203" cx="0" cy="0" r="1" gradientUnits="userSpaceOnUse" gradientTransform="translate(365.048 50.9128) rotate(155.72) scale(20.0039 6.47853)">
<stop stop-color="white"/>
<stop offset="1" stop-color="white" stop-opacity="0"/>
</radialGradient>
<radialGradient id="paint13_radial_344_3203" cx="0" cy="0" r="1" gradientUnits="userSpaceOnUse" gradientTransform="translate(386.905 28.3265) rotate(155.72) scale(11.6205 3.76346)">
<stop stop-color="white"/>
<stop offset="1" stop-color="white" stop-opacity="0"/>
</radialGradient>
<linearGradient id="paint14_linear_344_3203" x1="403.098" y1="21.7172" x2="393.114" y2="26.7826" gradientUnits="userSpaceOnUse">
<stop stop-color="white" stop-opacity="0"/>
<stop offset="1" stop-color="white"/>
</linearGradient>
<linearGradient id="paint15_linear_344_3203" x1="204.283" y1="33.3238" x2="338.902" y2="143.783" gradientUnits="userSpaceOnUse">
<stop stop-color="#E6007A"/>
<stop offset="0.21" stop-color="#703AC2"/>
<stop offset="0.46" stop-color="#0070EB"/>
<stop offset="0.77" stop-color="#0297FB"/>
<stop offset="1" stop-color="#0AE2FF"/>
</linearGradient>
<linearGradient id="paint16_linear_344_3203" x1="204.283" y1="33.3238" x2="338.902" y2="143.783" gradientUnits="userSpaceOnUse">
<stop stop-color="#E6007A"/>
<stop offset="0.21" stop-color="#703AC2"/>
<stop offset="0.46" stop-color="#0070EB"/>
<stop offset="0.77" stop-color="#0297FB"/>
<stop offset="1" stop-color="#0AE2FF"/>
</linearGradient>
<linearGradient id="paint17_linear_344_3203" x1="204.281" y1="33.3234" x2="338.9" y2="143.782" gradientUnits="userSpaceOnUse">
<stop stop-color="#E6007A"/>
<stop offset="0.21" stop-color="#703AC2"/>
<stop offset="0.46" stop-color="#0070EB"/>
<stop offset="0.77" stop-color="#0297FB"/>
<stop offset="1" stop-color="#0AE2FF"/>
</linearGradient>
<linearGradient id="paint18_linear_344_3203" x1="180.401" y1="68.6632" x2="343.634" y2="136.688" gradientUnits="userSpaceOnUse">
<stop stop-color="#E6007A"/>
<stop offset="0.21" stop-color="#703AC2"/>
<stop offset="0.46" stop-color="#0070EB"/>
<stop offset="0.77" stop-color="#0297FB"/>
<stop offset="1" stop-color="#0AE2FF"/>
</linearGradient>
<linearGradient id="paint19_linear_344_3203" x1="196.589" y1="50.8448" x2="316.933" y2="144.365" gradientUnits="userSpaceOnUse">
<stop stop-color="#E6007A"/>
<stop offset="0.21" stop-color="#703AC2"/>
<stop offset="0.46" stop-color="#0070EB"/>
<stop offset="0.77" stop-color="#0297FB"/>
<stop offset="1" stop-color="#0AE2FF"/>
</linearGradient>
<linearGradient id="paint20_linear_344_3203" x1="239.325" y1="80.4063" x2="300.103" y2="50.5433" gradientUnits="userSpaceOnUse">
<stop stop-color="#E6C1FF"/>
<stop offset="0.40625" stop-color="#B6C7FF"/>
<stop offset="1" stop-color="#AFF1FF"/>
</linearGradient>
<linearGradient id="paint21_linear_344_3203" x1="282.529" y1="123.741" x2="286.805" y2="116.655" gradientUnits="userSpaceOnUse">
<stop stop-color="white" stop-opacity="0"/>
<stop offset="1" stop-color="white"/>
</linearGradient>
<radialGradient id="paint22_radial_344_3203" cx="0" cy="0" r="1" gradientUnits="userSpaceOnUse" gradientTransform="translate(414.435 124.041) rotate(-170.455) scale(17.6142 16.0629)">
<stop stop-color="white"/>
<stop offset="1" stop-color="white" stop-opacity="0"/>
</radialGradient>
<radialGradient id="paint23_radial_344_3203" cx="0" cy="0" r="1" gradientUnits="userSpaceOnUse" gradientTransform="translate(444.275 98.8496) rotate(-170.455) scale(10.2366 9.33508)">
<stop stop-color="white"/>
<stop offset="1" stop-color="white" stop-opacity="0"/>
</radialGradient>
<linearGradient id="paint24_linear_344_3203" x1="299.901" y1="72.9058" x2="290.226" y2="72.944" gradientUnits="userSpaceOnUse">
<stop stop-color="white" stop-opacity="0"/>
<stop offset="1" stop-color="white"/>
</linearGradient>
<radialGradient id="paint25_radial_344_3203" cx="0" cy="0" r="1" gradientUnits="userSpaceOnUse" gradientTransform="translate(387.148 244.445) rotate(56.6798) scale(18.9876 14.9025)">
<stop stop-color="white"/>
<stop offset="1" stop-color="white" stop-opacity="0"/>
</radialGradient>
<radialGradient id="paint26_radial_344_3203" cx="0" cy="0" r="1" gradientUnits="userSpaceOnUse" gradientTransform="translate(349.517 235.798) rotate(56.6798) scale(11.0348 8.6607)">
<stop stop-color="white"/>
<stop offset="1" stop-color="white" stop-opacity="0"/>
</radialGradient>
<linearGradient id="paint27_linear_344_3203" x1="241.717" y1="71.1268" x2="246.908" y2="80.4772" gradientUnits="userSpaceOnUse">
<stop stop-color="white" stop-opacity="0"/>
<stop offset="1" stop-color="white"/>
</linearGradient>
<linearGradient id="paint28_linear_344_3203" x1="127.86" y1="269.245" x2="288.114" y2="280.052" gradientUnits="userSpaceOnUse">
<stop stop-color="#E6007A"/>
<stop offset="0.21" stop-color="#703AC2"/>
<stop offset="0.46" stop-color="#0070EB"/>
<stop offset="0.77" stop-color="#0297FB"/>
<stop offset="1" stop-color="#0AE2FF"/>
</linearGradient>
<linearGradient id="paint29_linear_344_3203" x1="127.86" y1="269.245" x2="288.114" y2="280.052" gradientUnits="userSpaceOnUse">
<stop stop-color="#E6007A"/>
<stop offset="0.21" stop-color="#703AC2"/>
<stop offset="0.46" stop-color="#0070EB"/>
<stop offset="0.77" stop-color="#0297FB"/>
<stop offset="1" stop-color="#0AE2FF"/>
</linearGradient>
<linearGradient id="paint30_linear_344_3203" x1="127.858" y1="269.245" x2="288.113" y2="280.052" gradientUnits="userSpaceOnUse">
<stop stop-color="#E6007A"/>
<stop offset="0.21" stop-color="#703AC2"/>
<stop offset="0.46" stop-color="#0070EB"/>
<stop offset="0.77" stop-color="#0297FB"/>
<stop offset="1" stop-color="#0AE2FF"/>
</linearGradient>
<linearGradient id="paint31_linear_344_3203" x1="124.981" y1="246.909" x2="278.829" y2="253.346" gradientUnits="userSpaceOnUse">
<stop stop-color="#E60068"/>
<stop offset="0.21" stop-color="#703AC2"/>
<stop offset="0.46" stop-color="#0070EB"/>
<stop offset="0.77" stop-color="#0297FB"/>
<stop offset="1" stop-color="#0AE2FF"/>
</linearGradient>
<linearGradient id="paint32_linear_344_3203" x1="188.485" y1="162.639" x2="182.468" y2="252.376" gradientUnits="userSpaceOnUse">
<stop stop-color="#E6007A"/>
<stop offset="0.21" stop-color="#703AC2"/>
<stop offset="0.46" stop-color="#0070EB"/>
<stop offset="0.77" stop-color="#0297FB"/>
<stop offset="1" stop-color="#0AE2FF"/>
</linearGradient>
<linearGradient id="paint33_linear_344_3203" x1="202.843" y1="201.27" x2="271.023" y2="248.287" gradientUnits="userSpaceOnUse">
<stop stop-color="#E6C1FF"/>
<stop offset="0.40625" stop-color="#B6C7FF"/>
<stop offset="1" stop-color="#AFF1FF"/>
</linearGradient>
<linearGradient id="paint34_linear_344_3203" x1="192.618" y1="237.815" x2="203.152" y2="239.663" gradientUnits="userSpaceOnUse">
<stop stop-color="white" stop-opacity="0"/>
<stop offset="1" stop-color="white"/>
</linearGradient>
<radialGradient id="paint35_radial_344_3203" cx="0" cy="0" r="1" gradientUnits="userSpaceOnUse" gradientTransform="translate(229.874 255.554) rotate(-118.128) scale(15.2528 17.2273)">
<stop stop-color="white"/>
<stop offset="1" stop-color="white" stop-opacity="0"/>
</radialGradient>
<radialGradient id="paint36_radial_344_3203" cx="0" cy="0" r="1" gradientUnits="userSpaceOnUse" gradientTransform="translate(268.573 260.139) rotate(-118.128) scale(8.8868 10.0372)">
<stop stop-color="white"/>
<stop offset="1" stop-color="white" stop-opacity="0"/>
</radialGradient>
<linearGradient id="paint37_linear_344_3203" x1="256.813" y1="244.715" x2="253.85" y2="236.713" gradientUnits="userSpaceOnUse">
<stop stop-color="white" stop-opacity="0"/>
<stop offset="1" stop-color="white"/>
</linearGradient>
<radialGradient id="paint38_radial_344_3203" cx="0" cy="0" r="1" gradientUnits="userSpaceOnUse" gradientTransform="translate(604.134 -92.3966) rotate(139.628) scale(15.2528 17.2273)">
<stop stop-color="white"/>
<stop offset="1" stop-color="white" stop-opacity="0"/>
</radialGradient>
<radialGradient id="paint39_radial_344_3203" cx="0" cy="0" r="1" gradientUnits="userSpaceOnUse" gradientTransform="translate(601.306 -130.528) rotate(139.628) scale(8.8868 10.0372)">
<stop stop-color="white"/>
<stop offset="1" stop-color="white" stop-opacity="0"/>
</radialGradient>
<linearGradient id="paint40_linear_344_3203" x1="224.878" y1="198.216" x2="219.511" y2="204.6" gradientUnits="userSpaceOnUse">
<stop stop-color="white" stop-opacity="0"/>
<stop offset="1" stop-color="white"/>
</linearGradient>
<clipPath id="clip0_344_3203">
<rect width="460" height="370" fill="white"/>
</clipPath>
</defs>
</svg>
